G04 #@! TF.GenerationSoftware,KiCad,Pcbnew,7.0.1*
G04 #@! TF.CreationDate,2023-07-06T21:39:26+03:00*
G04 #@! TF.ProjectId,ssd2828_board,73736432-3832-4385-9f62-6f6172642e6b,rev?*
G04 #@! TF.SameCoordinates,Original*
G04 #@! TF.FileFunction,Soldermask,Top*
G04 #@! TF.FilePolarity,Negative*
%FSLAX46Y46*%
G04 Gerber Fmt 4.6, Leading zero omitted, Abs format (unit mm)*
G04 Created by KiCad (PCBNEW 7.0.1) date 2023-07-06 21:39:26*
%MOMM*%
%LPD*%
G01*
G04 APERTURE LIST*
G04 Aperture macros list*
%AMRoundRect*
0 Rectangle with rounded corners*
0 $1 Rounding radius*
0 $2 $3 $4 $5 $6 $7 $8 $9 X,Y pos of 4 corners*
0 Add a 4 corners polygon primitive as box body*
4,1,4,$2,$3,$4,$5,$6,$7,$8,$9,$2,$3,0*
0 Add four circle primitives for the rounded corners*
1,1,$1+$1,$2,$3*
1,1,$1+$1,$4,$5*
1,1,$1+$1,$6,$7*
1,1,$1+$1,$8,$9*
0 Add four rect primitives between the rounded corners*
20,1,$1+$1,$2,$3,$4,$5,0*
20,1,$1+$1,$4,$5,$6,$7,0*
20,1,$1+$1,$6,$7,$8,$9,0*
20,1,$1+$1,$8,$9,$2,$3,0*%
%AMRotRect*
0 Rectangle, with rotation*
0 The origin of the aperture is its center*
0 $1 length*
0 $2 width*
0 $3 Rotation angle, in degrees counterclockwise*
0 Add horizontal line*
21,1,$1,$2,0,0,$3*%
%AMFreePoly0*
4,1,33,0.550000,-0.750000,0.000000,-0.750000,0.000000,-0.749013,-0.031395,-0.749013,-0.093691,-0.741144,-0.154508,-0.725528,-0.212890,-0.702414,-0.267913,-0.672164,-0.318712,-0.635257,-0.364484,-0.592274,-0.404508,-0.543893,-0.438153,-0.490877,-0.464888,-0.434062,-0.484292,-0.374345,-0.496057,-0.312667,-0.500000,-0.250000,-0.500000,0.250000,-0.496057,0.312667,-0.484292,0.374345,-0.464888,0.434062,
-0.438153,0.490877,-0.404508,0.543893,-0.364484,0.592274,-0.318712,0.635257,-0.267913,0.672164,-0.212890,0.702414,-0.154508,0.725528,-0.093691,0.741144,-0.031395,0.749013,0.000000,0.749013,0.000000,0.750000,0.550000,0.750000,0.550000,-0.750000,0.550000,-0.750000,$1*%
%AMFreePoly1*
4,1,33,0.000000,0.749013,0.031395,0.749013,0.093691,0.741144,0.154508,0.725528,0.212890,0.702414,0.267913,0.672164,0.318712,0.635257,0.364484,0.592274,0.404508,0.543893,0.438153,0.490877,0.464888,0.434062,0.484292,0.374345,0.496057,0.312667,0.500000,0.250000,0.500000,-0.250000,0.496057,-0.312667,0.484292,-0.374345,0.464888,-0.434062,0.438153,-0.490877,0.404508,-0.543893,
0.364484,-0.592274,0.318712,-0.635257,0.267913,-0.672164,0.212890,-0.702414,0.154508,-0.725528,0.093691,-0.741144,0.031395,-0.749013,0.000000,-0.749013,0.000000,-0.750000,-0.550000,-0.750000,-0.550000,0.750000,0.000000,0.750000,0.000000,0.749013,0.000000,0.749013,$1*%
G04 Aperture macros list end*
%ADD10R,1.000000X1.000000*%
%ADD11RoundRect,0.225000X0.225000X0.250000X-0.225000X0.250000X-0.225000X-0.250000X0.225000X-0.250000X0*%
%ADD12R,0.600000X1.200000*%
%ADD13RoundRect,0.200000X0.275000X-0.200000X0.275000X0.200000X-0.275000X0.200000X-0.275000X-0.200000X0*%
%ADD14RoundRect,0.200000X0.200000X0.275000X-0.200000X0.275000X-0.200000X-0.275000X0.200000X-0.275000X0*%
%ADD15RoundRect,0.200000X-0.275000X0.200000X-0.275000X-0.200000X0.275000X-0.200000X0.275000X0.200000X0*%
%ADD16R,0.800000X2.000000*%
%ADD17RoundRect,0.225000X-0.225000X-0.250000X0.225000X-0.250000X0.225000X0.250000X-0.225000X0.250000X0*%
%ADD18RoundRect,0.150000X-0.512500X-0.150000X0.512500X-0.150000X0.512500X0.150000X-0.512500X0.150000X0*%
%ADD19RoundRect,0.225000X0.250000X-0.225000X0.250000X0.225000X-0.250000X0.225000X-0.250000X-0.225000X0*%
%ADD20R,0.500000X0.800000*%
%ADD21R,0.400000X0.800000*%
%ADD22RoundRect,0.250000X-0.262500X-0.450000X0.262500X-0.450000X0.262500X0.450000X-0.262500X0.450000X0*%
%ADD23R,1.200000X0.600000*%
%ADD24RoundRect,0.200000X-0.200000X-0.275000X0.200000X-0.275000X0.200000X0.275000X-0.200000X0.275000X0*%
%ADD25R,2.000000X0.800000*%
%ADD26RotRect,5.200000X5.200000X315.000000*%
%ADD27RoundRect,0.050000X-0.291682X-0.220971X-0.220971X-0.291682X0.291682X0.220971X0.220971X0.291682X0*%
%ADD28RoundRect,0.050000X-0.291682X0.220971X0.220971X-0.291682X0.291682X-0.220971X-0.220971X0.291682X0*%
%ADD29R,1.200000X1.400000*%
%ADD30R,0.300000X0.800000*%
%ADD31R,0.300000X0.650000*%
%ADD32R,0.400000X0.950000*%
%ADD33R,0.700000X2.000000*%
%ADD34R,0.800000X0.500000*%
%ADD35R,0.800000X0.400000*%
%ADD36R,0.900000X0.800000*%
%ADD37FreePoly0,0.000000*%
%ADD38R,1.000000X1.500000*%
%ADD39FreePoly1,0.000000*%
%ADD40R,0.240000X0.450000*%
%ADD41R,0.500000X0.470000*%
%ADD42RoundRect,0.050000X-0.350000X-0.050000X0.350000X-0.050000X0.350000X0.050000X-0.350000X0.050000X0*%
%ADD43R,1.700000X2.500000*%
%ADD44R,0.800000X2.700000*%
%ADD45RoundRect,0.250000X-0.475000X0.250000X-0.475000X-0.250000X0.475000X-0.250000X0.475000X0.250000X0*%
%ADD46RoundRect,0.250000X-0.450000X0.262500X-0.450000X-0.262500X0.450000X-0.262500X0.450000X0.262500X0*%
%ADD47RoundRect,0.225000X-0.250000X0.225000X-0.250000X-0.225000X0.250000X-0.225000X0.250000X0.225000X0*%
%ADD48R,0.800000X0.300000*%
%ADD49R,0.650000X0.300000*%
%ADD50R,0.950000X0.400000*%
%ADD51R,0.467000X0.180000*%
%ADD52R,1.000000X0.300000*%
%ADD53R,0.350000X0.800000*%
%ADD54R,0.800000X0.900000*%
%ADD55RoundRect,0.112500X0.187500X0.112500X-0.187500X0.112500X-0.187500X-0.112500X0.187500X-0.112500X0*%
%ADD56R,1.800000X2.200000*%
%ADD57R,1.400000X0.300000*%
%ADD58R,0.300000X0.850000*%
%ADD59R,0.850000X0.300000*%
%ADD60R,2.550000X2.550000*%
%ADD61R,0.650000X2.000000*%
G04 APERTURE END LIST*
D10*
X98552000Y-68199000D03*
D11*
X84976000Y-99441000D03*
X83426000Y-99441000D03*
D12*
X94223000Y-96156799D03*
X95173000Y-96156799D03*
X96123000Y-96156799D03*
X96123000Y-93656799D03*
X94223000Y-93656799D03*
D10*
X73609200Y-91592400D03*
D13*
X87847000Y-96456000D03*
X87847000Y-94806000D03*
D14*
X116522000Y-77155000D03*
X114872000Y-77155000D03*
D15*
X95782600Y-97891600D03*
X95782600Y-99541600D03*
D16*
X114491000Y-90805000D03*
X116141000Y-90805000D03*
D10*
X64211200Y-97078800D03*
X70459600Y-97078800D03*
D17*
X94093200Y-91985799D03*
X95643200Y-91985799D03*
X56629000Y-97708400D03*
X58179000Y-97708400D03*
D10*
X100584000Y-68199000D03*
D17*
X79997000Y-95631000D03*
X81547000Y-95631000D03*
D10*
X120777000Y-68199000D03*
D18*
X94546399Y-82364600D03*
X94546399Y-83314600D03*
X94546399Y-84264600D03*
X96821399Y-84264600D03*
X96821399Y-83314600D03*
X96821399Y-82364600D03*
D11*
X78932605Y-69697600D03*
X77382605Y-69697600D03*
D19*
X114300000Y-75390000D03*
X114300000Y-73840000D03*
D20*
X94558000Y-75931600D03*
D21*
X95358000Y-75931600D03*
X96158000Y-75931600D03*
D20*
X96958000Y-75931600D03*
X96958000Y-74131600D03*
D21*
X96158000Y-74131600D03*
X95358000Y-74131600D03*
D20*
X94558000Y-74131600D03*
D13*
X118872000Y-75440000D03*
X118872000Y-73790000D03*
D22*
X51624500Y-95422400D03*
X53449500Y-95422400D03*
D14*
X116522000Y-78679000D03*
X114872000Y-78679000D03*
D17*
X79997000Y-92329000D03*
X81547000Y-92329000D03*
D10*
X136525000Y-68199000D03*
D23*
X83569000Y-95758000D03*
X83569000Y-96708000D03*
X83569000Y-97658000D03*
X86069000Y-97658000D03*
X86069000Y-95758000D03*
D10*
X67360800Y-91592400D03*
X75692000Y-91592400D03*
X68376800Y-99161600D03*
D24*
X59843800Y-90596400D03*
X61493800Y-90596400D03*
D25*
X115951000Y-83543000D03*
X115951000Y-81943000D03*
D14*
X88328000Y-93319600D03*
X86678000Y-93319600D03*
D16*
X123863000Y-75631000D03*
X122263000Y-75631000D03*
D17*
X83426000Y-93980000D03*
X84976000Y-93980000D03*
D26*
X73406000Y-79211716D03*
D27*
X73927491Y-74164741D03*
X74210334Y-74447584D03*
X74493177Y-74730427D03*
X74776019Y-75013269D03*
X75058862Y-75296112D03*
X75341705Y-75578955D03*
X75624548Y-75861798D03*
X75907390Y-76144640D03*
X76190233Y-76427483D03*
X76473076Y-76710326D03*
X76755918Y-76993168D03*
X77038761Y-77276011D03*
X77321604Y-77558854D03*
X77604447Y-77841697D03*
X77887289Y-78124539D03*
X78170132Y-78407382D03*
X78452975Y-78690225D03*
D28*
X78452975Y-79733207D03*
X78170132Y-80016050D03*
X77887289Y-80298893D03*
X77604447Y-80581735D03*
X77321604Y-80864578D03*
X77038761Y-81147421D03*
X76755918Y-81430264D03*
X76473076Y-81713106D03*
X76190233Y-81995949D03*
X75907390Y-82278792D03*
X75624548Y-82561634D03*
X75341705Y-82844477D03*
X75058862Y-83127320D03*
X74776019Y-83410163D03*
X74493177Y-83693005D03*
X74210334Y-83975848D03*
X73927491Y-84258691D03*
D27*
X72884509Y-84258691D03*
X72601666Y-83975848D03*
X72318823Y-83693005D03*
X72035981Y-83410163D03*
X71753138Y-83127320D03*
X71470295Y-82844477D03*
X71187452Y-82561634D03*
X70904610Y-82278792D03*
X70621767Y-81995949D03*
X70338924Y-81713106D03*
X70056082Y-81430264D03*
X69773239Y-81147421D03*
X69490396Y-80864578D03*
X69207553Y-80581735D03*
X68924711Y-80298893D03*
X68641868Y-80016050D03*
X68359025Y-79733207D03*
D28*
X68359025Y-78690225D03*
X68641868Y-78407382D03*
X68924711Y-78124539D03*
X69207553Y-77841697D03*
X69490396Y-77558854D03*
X69773239Y-77276011D03*
X70056082Y-76993168D03*
X70338924Y-76710326D03*
X70621767Y-76427483D03*
X70904610Y-76144640D03*
X71187452Y-75861798D03*
X71470295Y-75578955D03*
X71753138Y-75296112D03*
X72035981Y-75013269D03*
X72318823Y-74730427D03*
X72601666Y-74447584D03*
X72884509Y-74164741D03*
D19*
X115824000Y-75390001D03*
X115824000Y-73840001D03*
D10*
X118745000Y-68199000D03*
D19*
X113411000Y-78692000D03*
X113411000Y-77142000D03*
D10*
X102616000Y-68199000D03*
D24*
X120307600Y-83083400D03*
X121957600Y-83083400D03*
D29*
X78828000Y-73744000D03*
X78828000Y-71544000D03*
X77128000Y-71544000D03*
X77128000Y-73744000D03*
D30*
X126146000Y-96774000D03*
D31*
X126446000Y-99648000D03*
D30*
X126746000Y-96774000D03*
D31*
X127046000Y-99648000D03*
D30*
X127346000Y-96774000D03*
D31*
X127646000Y-99648000D03*
D30*
X127946000Y-96774000D03*
D31*
X128246000Y-99648000D03*
D30*
X128546000Y-96774000D03*
D31*
X128846000Y-99648000D03*
D30*
X129146000Y-96774000D03*
D31*
X129446000Y-99648000D03*
D30*
X129746000Y-96774000D03*
D31*
X130046000Y-99648000D03*
D30*
X130346000Y-96774000D03*
D31*
X130646000Y-99648000D03*
D30*
X130946000Y-96774000D03*
D31*
X131246000Y-99648000D03*
D30*
X131546000Y-96774000D03*
D31*
X131846000Y-99648000D03*
D30*
X132146000Y-96774000D03*
D31*
X132446000Y-99648000D03*
D30*
X132746000Y-96774000D03*
D31*
X133046000Y-99648000D03*
D30*
X133346000Y-96774000D03*
D32*
X125446000Y-97048000D03*
X134046000Y-97048000D03*
D14*
X58037500Y-90698000D03*
X56387500Y-90698000D03*
D33*
X81497000Y-98171000D03*
X80047000Y-98171000D03*
D10*
X71526400Y-91592400D03*
X64211200Y-99161600D03*
D34*
X61772800Y-83108800D03*
D35*
X61772800Y-83908800D03*
X61772800Y-84708800D03*
D34*
X61772800Y-85508800D03*
X63572800Y-85508800D03*
D35*
X63572800Y-84708800D03*
X63572800Y-83908800D03*
D34*
X63572800Y-83108800D03*
D36*
X120650000Y-76273000D03*
X120650000Y-73973000D03*
D37*
X51328800Y-82255100D03*
D38*
X52628800Y-82255100D03*
D39*
X53928800Y-82255100D03*
D17*
X56629000Y-99232400D03*
X58179000Y-99232400D03*
D24*
X116091200Y-96520000D03*
X117741200Y-96520000D03*
D17*
X94093200Y-90436399D03*
X95643200Y-90436399D03*
D40*
X104756000Y-83140000D03*
X104756000Y-80690000D03*
X105156000Y-83140000D03*
X105156000Y-80690000D03*
X105556000Y-83140000D03*
X105556000Y-80690000D03*
X105956000Y-83140000D03*
X105956000Y-80690000D03*
X106356000Y-83140000D03*
X106356000Y-80690000D03*
X106756000Y-83140000D03*
X106756000Y-80690000D03*
D41*
X104006000Y-83110000D03*
X104006000Y-80720000D03*
X107506000Y-83110000D03*
X107506000Y-80720000D03*
D10*
X77774800Y-91592400D03*
D42*
X55325800Y-93906400D03*
X55325800Y-94356400D03*
X55325800Y-94806400D03*
X55325800Y-95256400D03*
X55325800Y-95706400D03*
X55325800Y-96156400D03*
X58225800Y-96156400D03*
X58225800Y-95706400D03*
X58225800Y-95256400D03*
X58225800Y-94806400D03*
X58225800Y-94356400D03*
X58225800Y-93906400D03*
D43*
X56775800Y-95031400D03*
D37*
X51328800Y-85140800D03*
D38*
X52628800Y-85140800D03*
D39*
X53928800Y-85140800D03*
D15*
X55016400Y-97625400D03*
X55016400Y-99275400D03*
D44*
X96864800Y-79215000D03*
X94564800Y-79215000D03*
D10*
X130429000Y-68199000D03*
D17*
X79997000Y-93980000D03*
X81547000Y-93980000D03*
D10*
X69443600Y-91592400D03*
X68376800Y-97078800D03*
D45*
X120777000Y-93030000D03*
X120777000Y-94930000D03*
D46*
X105730600Y-75135100D03*
X105730600Y-76960100D03*
D47*
X80518000Y-71818200D03*
X80518000Y-73368200D03*
D10*
X128397000Y-68199000D03*
D48*
X54229000Y-70677000D03*
D49*
X51355000Y-70977000D03*
D48*
X54229000Y-71277000D03*
D49*
X51355000Y-71577000D03*
D48*
X54229000Y-71877000D03*
D49*
X51355000Y-72177000D03*
D48*
X54229000Y-72477000D03*
D49*
X51355000Y-72777000D03*
D48*
X54229000Y-73077000D03*
D49*
X51355000Y-73377000D03*
D48*
X54229000Y-73677000D03*
D49*
X51355000Y-73977000D03*
D48*
X54229000Y-74277000D03*
D49*
X51355000Y-74577000D03*
D48*
X54229000Y-74877000D03*
D49*
X51355000Y-75177000D03*
D48*
X54229000Y-75477000D03*
D49*
X51355000Y-75777000D03*
D48*
X54229000Y-76077000D03*
D49*
X51355000Y-76377000D03*
D48*
X54229000Y-76677000D03*
D49*
X51355000Y-76977000D03*
D48*
X54229000Y-77277000D03*
D49*
X51355000Y-77577000D03*
D48*
X54229000Y-77877000D03*
D50*
X53955000Y-69977000D03*
X53955000Y-78577000D03*
D47*
X118643400Y-85102400D03*
X118643400Y-86652400D03*
X117119400Y-85102400D03*
X117119400Y-86652400D03*
D10*
X65278000Y-91592400D03*
D33*
X59943800Y-96692400D03*
X61393800Y-96692400D03*
D51*
X133338000Y-87385000D03*
X131330000Y-87385000D03*
X133338000Y-87035000D03*
X131330000Y-87035000D03*
X133338000Y-86685000D03*
X131330000Y-86685000D03*
X133338000Y-86335000D03*
X131330000Y-86335000D03*
X133338000Y-85985000D03*
X131330000Y-85985000D03*
X133338000Y-85635000D03*
X131330000Y-85635000D03*
X133338000Y-85285000D03*
X131330000Y-85285000D03*
X133338000Y-84935000D03*
X131330000Y-84935000D03*
X133338000Y-84585000D03*
X131330000Y-84585000D03*
X133338000Y-84235000D03*
X131330000Y-84235000D03*
X133338000Y-83885000D03*
X131330000Y-83885000D03*
X133338000Y-83535000D03*
X131330000Y-83535000D03*
X133338000Y-83185000D03*
X131330000Y-83185000D03*
X133338000Y-82835000D03*
X131330000Y-82835000D03*
X133338000Y-82485000D03*
X131330000Y-82485000D03*
X133338000Y-82135000D03*
X131330000Y-82135000D03*
X133338000Y-81785000D03*
X131330000Y-81785000D03*
X133338000Y-81435000D03*
X131330000Y-81435000D03*
X133338000Y-81085000D03*
X131330000Y-81085000D03*
X133338000Y-80735000D03*
X131330000Y-80735000D03*
X133338000Y-80385000D03*
X131330000Y-80385000D03*
X133338000Y-80035000D03*
X131330000Y-80035000D03*
X133338000Y-79685000D03*
X131330000Y-79685000D03*
X133338000Y-79335000D03*
X131330000Y-79335000D03*
X133338000Y-78985000D03*
X131330000Y-78985000D03*
D52*
X132334000Y-88695000D03*
X132334000Y-77675000D03*
D53*
X131399000Y-88085000D03*
X131399000Y-78285000D03*
X133269000Y-78285000D03*
X133269000Y-88085000D03*
D30*
X99397000Y-96520000D03*
D31*
X99697000Y-99394000D03*
D30*
X99997000Y-96520000D03*
D31*
X100297000Y-99394000D03*
D30*
X100597000Y-96520000D03*
D31*
X100897000Y-99394000D03*
D30*
X101197000Y-96520000D03*
D31*
X101497000Y-99394000D03*
D30*
X101797000Y-96520000D03*
D31*
X102097000Y-99394000D03*
D30*
X102397000Y-96520000D03*
D31*
X102697000Y-99394000D03*
D30*
X102997000Y-96520000D03*
D31*
X103297000Y-99394000D03*
D30*
X103597000Y-96520000D03*
D31*
X103897000Y-99394000D03*
D30*
X104197000Y-96520000D03*
D31*
X104497000Y-99394000D03*
D30*
X104797000Y-96520000D03*
D31*
X105097000Y-99394000D03*
D30*
X105397000Y-96520000D03*
D31*
X105697000Y-99394000D03*
D30*
X105997000Y-96520000D03*
D31*
X106297000Y-99394000D03*
D30*
X106597000Y-96520000D03*
D32*
X98697000Y-96794000D03*
X107297000Y-96794000D03*
D10*
X96520000Y-68199000D03*
X104648000Y-68199000D03*
D13*
X98806000Y-85266800D03*
X98806000Y-83616800D03*
D17*
X56083800Y-92374400D03*
X57633800Y-92374400D03*
D54*
X113683400Y-80330000D03*
X115983400Y-80330000D03*
D10*
X66294000Y-99161600D03*
X132461000Y-68199000D03*
D17*
X51965200Y-99232400D03*
X53515200Y-99232400D03*
D45*
X98806000Y-80063800D03*
X98806000Y-81963800D03*
D10*
X70459600Y-99161600D03*
D19*
X63208800Y-92133400D03*
X63208800Y-90583400D03*
D55*
X119795000Y-90805000D03*
X117695000Y-90805000D03*
D10*
X66294000Y-97078800D03*
D18*
X116083500Y-93030000D03*
X116083500Y-93980000D03*
X116083500Y-94930000D03*
X118358500Y-94930000D03*
X118358500Y-93980000D03*
X118358500Y-93030000D03*
D10*
X94488000Y-68199000D03*
D17*
X51955400Y-90779600D03*
X53505400Y-90779600D03*
D56*
X89329000Y-90600000D03*
X89329000Y-70700000D03*
D57*
X86614000Y-88900000D03*
X86614000Y-88400000D03*
X86614000Y-87900000D03*
X86614000Y-87400000D03*
X86614000Y-86900000D03*
X86614000Y-86400000D03*
X86614000Y-85900000D03*
X86614000Y-85400000D03*
X86614000Y-84900000D03*
X86614000Y-84400000D03*
X86614000Y-83900000D03*
X86614000Y-83400000D03*
X86614000Y-82900000D03*
X86614000Y-82400000D03*
X86614000Y-81900000D03*
X86614000Y-81400000D03*
X86614000Y-80900000D03*
X86614000Y-80400000D03*
X86614000Y-79900000D03*
X86614000Y-79400000D03*
X86614000Y-78900000D03*
X86614000Y-78400000D03*
X86614000Y-77900000D03*
X86614000Y-77400000D03*
X86614000Y-76900000D03*
X86614000Y-76400000D03*
X86614000Y-75900000D03*
X86614000Y-75400000D03*
X86614000Y-74900000D03*
X86614000Y-74400000D03*
X86614000Y-73900000D03*
X86614000Y-73400000D03*
X86614000Y-72900000D03*
X86614000Y-72400000D03*
D20*
X133547000Y-75615800D03*
D21*
X134347000Y-75615800D03*
X135147000Y-75615800D03*
D20*
X135947000Y-75615800D03*
X135947000Y-73815800D03*
D21*
X135147000Y-73815800D03*
X134347000Y-73815800D03*
D20*
X133547000Y-73815800D03*
D19*
X114046000Y-94501000D03*
X114046000Y-92951000D03*
D13*
X87847000Y-99631000D03*
X87847000Y-97981000D03*
D10*
X106680000Y-68199000D03*
D19*
X94157000Y-99491799D03*
X94157000Y-97941799D03*
D10*
X122809000Y-68199000D03*
X116713000Y-68199000D03*
D15*
X117348000Y-73790000D03*
X117348000Y-75440000D03*
D10*
X134493000Y-68199000D03*
D46*
X107696000Y-75133200D03*
X107696000Y-76958200D03*
D14*
X117741200Y-98171000D03*
X116091200Y-98171000D03*
D58*
X118723000Y-81579000D03*
X119223000Y-81579000D03*
X119723000Y-81579000D03*
X120223000Y-81579000D03*
X120723000Y-81579000D03*
X121223000Y-81579000D03*
D59*
X121923000Y-80879000D03*
X121923000Y-80379000D03*
X121923000Y-79879000D03*
X121923000Y-79379000D03*
X121923000Y-78879000D03*
X121923000Y-78379000D03*
D58*
X121223000Y-77679000D03*
X120723000Y-77679000D03*
X120223000Y-77679000D03*
X119723000Y-77679000D03*
X119223000Y-77679000D03*
X118723000Y-77679000D03*
D59*
X118023000Y-78379000D03*
X118023000Y-78879000D03*
X118023000Y-79379000D03*
X118023000Y-79879000D03*
X118023000Y-80379000D03*
X118023000Y-80879000D03*
D60*
X119973000Y-79629000D03*
D61*
X53608600Y-93014800D03*
X52258600Y-93014800D03*
D14*
X53362000Y-97454400D03*
X51712000Y-97454400D03*
D24*
X83096600Y-92303600D03*
X84746600Y-92303600D03*
D14*
X61493800Y-92374400D03*
X59843800Y-92374400D03*
D11*
X61633400Y-94157800D03*
X60083400Y-94157800D03*
X95872600Y-86017601D03*
X94322600Y-86017601D03*
X121907600Y-84632800D03*
X120357600Y-84632800D03*
X121907600Y-86182200D03*
X120357600Y-86182200D03*
D20*
X129737000Y-75615800D03*
D21*
X130537000Y-75615800D03*
X131337000Y-75615800D03*
D20*
X132137000Y-75615800D03*
X132137000Y-73815800D03*
D21*
X131337000Y-73815800D03*
X130537000Y-73815800D03*
D20*
X129737000Y-73815800D03*
M02*
