M48
; DRILL file {KiCad 7.0.8} date Fri Nov  3 17:47:41 2023
; FORMAT={-:-/ absolute / metric / decimal}
; #@! TF.CreationDate,2023-11-03T17:47:41+02:00
; #@! TF.GenerationSoftware,Kicad,Pcbnew,7.0.8
; #@! TF.FileFunction,Plated,1,4,PTH
FMAT,2
METRIC
; #@! TA.AperFunction,Plated,PTH,ViaDrill
T1C0.200
; #@! TA.AperFunction,Plated,PTH,ViaDrill
T2C0.250
; #@! TA.AperFunction,Plated,PTH,ViaDrill
T3C0.300
%
G90
G05
T1
X102.616Y-63.246
X102.718Y-62.459
X104.318Y-61.57
X116.789Y-59.284
X123.622Y-75.438
X123.876Y-74.651
X124.333Y-75.844
X130.302Y-56.794
X132.41Y-61.011
X135.026Y-68.656
X135.052Y-66.599
X136.779Y-64.948
X137.49Y-64.465
X138.201Y-65.075
T2
X54.686Y-100.203
X54.712Y-58.242
X54.737Y-93.167
X54.788Y-95.199
X54.864Y-56.871
X54.889Y-55.245
X54.889Y-91.516
X54.915Y-59.461
X54.94Y-96.317
X54.94Y-97.561
X54.966Y-60.985
X55.216Y-93.808
X55.216Y-94.558
X55.296Y-98.863
X55.296Y-99.613
X55.499Y-92.208
X55.499Y-92.958
X55.499Y-53.993
X55.499Y-54.743
X55.564Y-57.295
X55.564Y-58.045
X55.671Y-60.597
X55.671Y-61.347
X55.677Y-95.408
X55.677Y-96.158
X55.677Y-97.136
X55.677Y-97.886
X55.702Y-55.644
X55.702Y-56.394
X55.702Y-62.103
X55.753Y-58.946
X55.753Y-59.696
X55.905Y-100.051
X56.159Y-53.543
X56.286Y-91.618
X58.268Y-93.269
X58.293Y-94.971
X58.293Y-98.374
X58.344Y-55.169
X58.344Y-56.871
X58.344Y-58.395
X58.344Y-60.147
X58.369Y-96.622
X58.877Y-100.406
X58.953Y-92.208
X58.953Y-92.958
X58.953Y-93.808
X58.953Y-94.558
X58.979Y-95.408
X58.979Y-96.158
X58.979Y-97.136
X58.979Y-97.886
X59.03Y-98.863
X59.03Y-99.613
X59.036Y-53.993
X59.036Y-54.743
X59.066Y-60.597
X59.066Y-61.347
X59.078Y-58.946
X59.078Y-59.696
X59.082Y-55.644
X59.082Y-56.394
X59.142Y-57.295
X59.142Y-58.045
X59.309Y-91.313
X59.461Y-53.162
X59.487Y-62.001
X59.588Y-94.971
X59.614Y-96.622
X59.665Y-93.294
X59.665Y-98.349
X59.69Y-60.173
X59.766Y-55.22
X59.766Y-56.82
X59.893Y-58.522
X71.882Y-98.755
X71.933Y-95.301
X71.984Y-97.053
X72.212Y-93.497
X72.314Y-91.465
X72.339Y-100.686
X72.572Y-99.167
X72.572Y-99.917
X72.603Y-97.498
X72.603Y-98.248
X72.644Y-95.764
X72.644Y-96.514
X72.72Y-92.132
X72.72Y-92.882
X72.72Y-94.062
X72.72Y-94.812
X73.228Y-97.053
X73.254Y-91.592
X73.279Y-93.497
X73.279Y-98.781
X73.304Y-95.301
X74.14Y-65.814
X74.295Y-64.77
X74.803Y-66.536
X74.93Y-64.135
X75.286Y-96.901
X75.311Y-91.542
X75.336Y-95.326
X75.565Y-63.5
X75.565Y-64.77
X75.616Y-101.575
X75.768Y-97.498
X75.768Y-98.248
X75.794Y-100.686
X75.87Y-99.167
X75.87Y-99.917
X75.921Y-92.132
X75.921Y-92.882
X75.971Y-95.764
X75.971Y-96.514
X75.997Y-94.062
X75.997Y-94.812
X76.073Y-67.666
X76.2Y-64.135
X76.302Y-63.144
X76.53Y-91.669
X76.53Y-98.069
X76.556Y-93.497
X76.581Y-95.326
X76.606Y-100.279
X79.375Y-63.5
X85.369Y-72.39
X85.979Y-72.923
X89.332Y-71.653
X103.264Y-80.01
X104.419Y-80.01
X105.131Y-78.486
X105.131Y-81.991
X105.613Y-80.01
X105.924Y-78.775
X105.924Y-82.169
X106.674Y-78.775
X106.674Y-82.169
X107.366Y-81.763
X107.366Y-82.652
X107.391Y-78.308
X107.391Y-79.273
X108.134Y-78.698
X108.134Y-82.169
X108.884Y-78.698
X108.884Y-82.169
X109.423Y-80.01
X109.652Y-82.347
X109.728Y-78.689
X128.753Y-82.677
X129.235Y-81.94
X129.286Y-79.832
X129.413Y-69.698
X129.527Y-79.09
X129.527Y-82.666
X130.088Y-69.305
X130.277Y-79.09
X130.277Y-82.666
X130.607Y-79.807
X130.618Y-69.836
X131.013Y-82.931
X131.102Y-82.042
X131.166Y-67.92
X131.369Y-69.723
X131.852Y-82.042
X131.858Y-67.477
X132.334Y-82.677
X132.385Y-80.086
X132.388Y-66.946
X132.854Y-82.042
X133.147Y-66.929
X133.604Y-82.042
X134.061Y-82.677
X134.112Y-79.858
X134.609Y-82.107
X134.722Y-70.815
X134.747Y-71.958
X134.976Y-62.84
X135.001Y-63.729
X135.077Y-69.545
X135.139Y-82.637
X135.839Y-82.956
X136.017Y-80.137
X136.042Y-73.381
X136.042Y-78.232
X136.133Y-82.132
X136.506Y-78.867
X136.663Y-82.663
X136.804Y-72.136
X137.256Y-78.867
X137.439Y-82.702
X137.566Y-81.483
X137.897Y-78.461
X139.43Y-69.869
X139.573Y-70.688
X139.96Y-69.338
X140.767Y-69.418
T3
X52.705Y-54.61
X52.705Y-57.15
X52.705Y-60.325
X52.705Y-63.5
X52.705Y-66.04
X52.705Y-69.215
X52.705Y-71.755
X52.705Y-74.93
X52.705Y-78.105
X52.705Y-81.28
X52.705Y-84.455
X52.705Y-88.265
X52.705Y-89.535
X52.705Y-92.075
X52.705Y-94.615
X52.705Y-97.155
X52.705Y-100.33
X53.34Y-102.87
X53.975Y-85.725
X54.229Y-62.547
X54.229Y-63.512
X54.432Y-101.067
X54.61Y-52.07
X55.093Y-101.727
X55.245Y-88.265
X55.245Y-103.505
X56.567Y-63.764
X56.896Y-80.708
X57.125Y-79.895
X57.175Y-79.071
X57.683Y-81.038
X57.785Y-85.725
X57.81Y-76.492
X57.887Y-77.406
X57.937Y-62.801
X57.937Y-63.614
X57.937Y-100.99
X58.42Y-52.07
X58.674Y-101.575
X58.699Y-80.987
X59.055Y-88.265
X59.055Y-103.505
X59.868Y-75.806
X60.122Y-81.089
X60.147Y-71.679
X60.325Y-73.025
X60.858Y-67.412
X61.087Y-80.886
X61.189Y-71.704
X61.62Y-74.663
X61.697Y-77.787
X61.747Y-69.774
X61.747Y-78.854
X62.23Y-52.07
X62.23Y-85.725
X62.511Y-75.755
X62.865Y-88.265
X62.865Y-103.505
X63.246Y-79.311
X64.135Y-73.025
X64.465Y-70.612
X64.795Y-75.247
X65.913Y-84.112
X66.04Y-52.07
X66.04Y-85.725
X66.573Y-77.495
X66.624Y-71.793
X66.675Y-103.505
X67.259Y-78.207
X67.31Y-88.265
X67.894Y-82.994
X68.656Y-69.761
X68.834Y-68.199
X69.215Y-85.725
X69.723Y-69.913
X69.85Y-52.07
X69.85Y-77.47
X70.028Y-82.144
X70.079Y-63.817
X70.307Y-63.03
X70.358Y-64.745
X70.485Y-103.505
X71.044Y-65.507
X71.12Y-88.265
X71.476Y-69.608
X71.907Y-63.538
X72.161Y-82.105
X72.339Y-101.6
X72.466Y-62.75
X72.974Y-67.513
X73.025Y-64.833
X73.025Y-85.725
X73.228Y-62.014
X73.279Y-101.219
X73.66Y-52.07
X73.685Y-68.313
X73.894Y-61.297
X73.965Y-81.089
X74.701Y-60.49
X74.752Y-69.253
X74.752Y-81.686
X74.93Y-103.505
X75.387Y-59.753
X75.413Y-81.089
X75.565Y-78.105
X75.819Y-88.316
X76.2Y-71.12
X76.556Y-101.829
X76.632Y-59.792
X76.657Y-57.365
X76.835Y-85.725
X77.178Y-101.206
X77.445Y-58.102
X77.47Y-52.07
X77.978Y-61.011
X78.08Y-55.956
X78.105Y-53.34
X78.105Y-89.535
X78.105Y-103.505
X78.13Y-58.559
X78.588Y-61.646
X78.74Y-92.71
X78.74Y-95.885
X78.74Y-98.425
X78.74Y-101.6
X79.527Y-60.058
X79.578Y-74.739
X80.086Y-83.185
X80.543Y-82.22
X80.645Y-85.725
X81.051Y-83.109
X81.28Y-52.07
X83.185Y-54.61
X83.312Y-58.903
X84.455Y-56.515
X84.455Y-85.725
X84.861Y-53.01
X85.192Y-82.956
X85.217Y-80.022
X85.217Y-80.937
X85.344Y-75.438
X85.725Y-56.236
X85.75Y-57.175
X86.411Y-56.693
X87.63Y-52.07
X87.63Y-74.93
X87.63Y-85.725
X88.443Y-83.769
X88.468Y-82.613
X89.154Y-83.146
X91.44Y-85.725
X92.71Y-53.975
X92.71Y-57.15
X92.71Y-60.325
X92.71Y-63.5
X92.71Y-66.675
X92.71Y-69.85
X92.71Y-73.66
X92.71Y-76.835
X92.71Y-80.01
X92.71Y-83.82
X95.25Y-52.07
X95.25Y-55.245
X95.25Y-58.42
X95.25Y-62.23
X95.25Y-65.405
X95.25Y-69.215
X95.25Y-73.025
X95.25Y-76.2
X95.25Y-80.01
X95.25Y-83.82
X95.885Y-85.725
X97.206Y-69.151
X97.714Y-81.292
X97.79Y-62.23
X98.067Y-55.964
X98.654Y-61.366
X99.035Y-81.382
X99.695Y-85.725
X100.0Y-71.056
X100.432Y-77.445
X100.578Y-68.422
X100.667Y-63.064
X100.711Y-56.197
X100.736Y-84.01
X100.965Y-59.499
X101.321Y-82.017
X101.575Y-70.053
X101.625Y-84.023
X102.87Y-73.025
X103.505Y-63.983
X103.505Y-85.725
X104.14Y-56.515
X104.14Y-60.325
X106.147Y-63.043
X106.35Y-60.452
X106.655Y-64.122
X106.673Y-66.154
X107.051Y-58.635
X107.315Y-85.725
X107.975Y-65.722
X108.179Y-66.751
X108.585Y-56.515
X108.712Y-64.237
X108.839Y-65.747
X109.322Y-66.751
X110.173Y-66.154
X110.592Y-54.635
X111.76Y-85.725
X112.395Y-52.07
X112.395Y-54.61
X112.395Y-57.785
X112.395Y-61.595
X112.395Y-64.77
X112.395Y-67.945
X112.395Y-70.485
X112.395Y-73.025
X112.395Y-76.2
X112.395Y-79.375
X112.395Y-82.55
X114.935Y-52.07
X114.935Y-54.61
X114.935Y-57.785
X114.935Y-61.595
X114.935Y-64.77
X114.935Y-67.945
X114.935Y-70.485
X114.935Y-73.025
X114.935Y-76.2
X114.935Y-79.375
X114.935Y-82.55
X115.57Y-85.725
X116.459Y-71.552
X116.713Y-70.256
X117.17Y-70.917
X118.11Y-83.185
X118.339Y-53.416
X118.745Y-85.725
X118.77Y-80.01
X118.809Y-63.284
X120.421Y-53.619
X120.421Y-76.251
X121.209Y-65.71
X121.488Y-76.733
X121.768Y-80.479
X121.869Y-65.024
X121.92Y-70.485
X121.92Y-85.725
X122.174Y-65.938
X122.555Y-83.185
X124.384Y-58.28
X124.384Y-64.008
X124.409Y-53.95
X125.12Y-64.338
X125.73Y-85.725
X126.771Y-80.493
X126.797Y-53.365
X126.949Y-79.4
X127.0Y-67.945
X127.0Y-76.2
X127.203Y-62.916
X127.279Y-81.597
X127.559Y-83.896
X128.27Y-52.07
X128.473Y-83.922
X129.286Y-61.925
X129.54Y-85.725
X130.048Y-63.652
X132.486Y-59.03
X132.715Y-85.725
X134.798Y-54.825
X136.093Y-55.169
X136.525Y-85.725
X136.576Y-60.249
X137.008Y-63.119
X138.43Y-61.595
X139.7Y-85.725
X141.605Y-52.07
X141.707Y-63.83
X142.24Y-53.975
X142.24Y-56.515
X142.24Y-59.055
X142.24Y-61.595
X142.24Y-64.77
X142.24Y-67.31
X142.24Y-69.85
X142.24Y-73.025
X142.24Y-76.2
X142.24Y-79.375
X142.24Y-81.915
X142.24Y-84.455
T0
M30
