%TF.GenerationSoftware,KiCad,Pcbnew,7.0.1*%
%TF.CreationDate,2023-07-06T21:39:31+03:00*%
%TF.ProjectId,ssd2828_board,73736432-3832-4385-9f62-6f6172642e6b,rev?*%
%TF.SameCoordinates,Original*%
%TF.FileFunction,Drillmap*%
%TF.FilePolarity,Positive*%
%FSLAX45Y45*%
G04 Gerber Fmt 4.5, Leading zero omitted, Abs format (unit mm)*
G04 Created by KiCad (PCBNEW 7.0.1) date 2023-07-06 21:39:31*
%MOMM*%
%LPD*%
G01*
G04 APERTURE LIST*
%ADD10C,0.100000*%
%ADD11C,0.200000*%
G04 APERTURE END LIST*
D10*
X13933480Y-10228270D02*
G75*
G03*
X14030000Y-10131750I0J96520D01*
G01*
X4904410Y-10131750D02*
G75*
G03*
X5000930Y-10228270I96520J0D01*
G01*
X13933480Y-10228270D02*
X5000930Y-10228270D01*
X5000930Y-6685280D02*
G75*
G03*
X4904410Y-6781800I0J-96520D01*
G01*
X14030000Y-6781470D02*
X14030000Y-10131750D01*
X5000930Y-6685280D02*
X13933480Y-6684950D01*
X4904410Y-10131750D02*
X4904410Y-6781800D01*
X14030000Y-6781470D02*
G75*
G03*
X13933480Y-6684950I-96520J0D01*
G01*
D11*
X5147029Y-10545794D02*
X5147029Y-10345794D01*
X5147029Y-10345794D02*
X5194648Y-10345794D01*
X5194648Y-10345794D02*
X5223219Y-10355318D01*
X5223219Y-10355318D02*
X5242267Y-10374365D01*
X5242267Y-10374365D02*
X5251791Y-10393413D01*
X5251791Y-10393413D02*
X5261315Y-10431508D01*
X5261315Y-10431508D02*
X5261315Y-10460080D01*
X5261315Y-10460080D02*
X5251791Y-10498175D01*
X5251791Y-10498175D02*
X5242267Y-10517222D01*
X5242267Y-10517222D02*
X5223219Y-10536270D01*
X5223219Y-10536270D02*
X5194648Y-10545794D01*
X5194648Y-10545794D02*
X5147029Y-10545794D01*
X5347029Y-10545794D02*
X5347029Y-10412461D01*
X5347029Y-10450556D02*
X5356553Y-10431508D01*
X5356553Y-10431508D02*
X5366077Y-10421984D01*
X5366077Y-10421984D02*
X5385124Y-10412461D01*
X5385124Y-10412461D02*
X5404172Y-10412461D01*
X5470838Y-10545794D02*
X5470838Y-10412461D01*
X5470838Y-10345794D02*
X5461315Y-10355318D01*
X5461315Y-10355318D02*
X5470838Y-10364842D01*
X5470838Y-10364842D02*
X5480362Y-10355318D01*
X5480362Y-10355318D02*
X5470838Y-10345794D01*
X5470838Y-10345794D02*
X5470838Y-10364842D01*
X5594648Y-10545794D02*
X5575600Y-10536270D01*
X5575600Y-10536270D02*
X5566077Y-10517222D01*
X5566077Y-10517222D02*
X5566077Y-10345794D01*
X5699410Y-10545794D02*
X5680362Y-10536270D01*
X5680362Y-10536270D02*
X5670838Y-10517222D01*
X5670838Y-10517222D02*
X5670838Y-10345794D01*
X5927981Y-10545794D02*
X5927981Y-10345794D01*
X5927981Y-10345794D02*
X5994648Y-10488651D01*
X5994648Y-10488651D02*
X6061315Y-10345794D01*
X6061315Y-10345794D02*
X6061315Y-10545794D01*
X6242267Y-10545794D02*
X6242267Y-10441032D01*
X6242267Y-10441032D02*
X6232743Y-10421984D01*
X6232743Y-10421984D02*
X6213696Y-10412461D01*
X6213696Y-10412461D02*
X6175600Y-10412461D01*
X6175600Y-10412461D02*
X6156553Y-10421984D01*
X6242267Y-10536270D02*
X6223219Y-10545794D01*
X6223219Y-10545794D02*
X6175600Y-10545794D01*
X6175600Y-10545794D02*
X6156553Y-10536270D01*
X6156553Y-10536270D02*
X6147029Y-10517222D01*
X6147029Y-10517222D02*
X6147029Y-10498175D01*
X6147029Y-10498175D02*
X6156553Y-10479127D01*
X6156553Y-10479127D02*
X6175600Y-10469603D01*
X6175600Y-10469603D02*
X6223219Y-10469603D01*
X6223219Y-10469603D02*
X6242267Y-10460080D01*
X6337505Y-10412461D02*
X6337505Y-10612461D01*
X6337505Y-10421984D02*
X6356553Y-10412461D01*
X6356553Y-10412461D02*
X6394648Y-10412461D01*
X6394648Y-10412461D02*
X6413696Y-10421984D01*
X6413696Y-10421984D02*
X6423219Y-10431508D01*
X6423219Y-10431508D02*
X6432743Y-10450556D01*
X6432743Y-10450556D02*
X6432743Y-10507699D01*
X6432743Y-10507699D02*
X6423219Y-10526746D01*
X6423219Y-10526746D02*
X6413696Y-10536270D01*
X6413696Y-10536270D02*
X6394648Y-10545794D01*
X6394648Y-10545794D02*
X6356553Y-10545794D01*
X6356553Y-10545794D02*
X6337505Y-10536270D01*
X6518457Y-10526746D02*
X6527981Y-10536270D01*
X6527981Y-10536270D02*
X6518457Y-10545794D01*
X6518457Y-10545794D02*
X6508934Y-10536270D01*
X6508934Y-10536270D02*
X6518457Y-10526746D01*
X6518457Y-10526746D02*
X6518457Y-10545794D01*
X6518457Y-10421984D02*
X6527981Y-10431508D01*
X6527981Y-10431508D02*
X6518457Y-10441032D01*
X6518457Y-10441032D02*
X6508934Y-10431508D01*
X6508934Y-10431508D02*
X6518457Y-10421984D01*
X6518457Y-10421984D02*
X6518457Y-10441032D01*
M02*
