M48
; DRILL file {KiCad 7.0.1} date Thu Jul  6 21:39:29 2023
; FORMAT={-:-/ absolute / metric / decimal}
; #@! TF.CreationDate,2023-07-06T21:39:29+03:00
; #@! TF.GenerationSoftware,Kicad,Pcbnew,7.0.1
; #@! TF.FileFunction,Plated,1,4,PTH
FMAT,2
METRIC
; #@! TA.AperFunction,Plated,PTH,ViaDrill
T1C0.300
%
G90
G05
T1
X49.962Y-80.289
X49.987Y-73.457
X49.999Y-83.349
X50.024Y-77.649
X50.024Y-87.259
X50.075Y-69.024
X50.4Y-90.7
X50.5Y-92.8
X50.5Y-95.2
X50.851Y-89.052
X51.003Y-80.721
X51.181Y-100.203
X51.562Y-78.283
X51.562Y-79.248
X52.095Y-87.325
X52.121Y-71.145
X52.172Y-76.632
X52.222Y-69.037
X52.222Y-84.023
X52.349Y-75.235
X52.375Y-73.965
X52.476Y-72.542
X52.527Y-97.587
X52.807Y-69.704
X52.807Y-70.504
X53.0Y-68.1
X53.005Y-76.308
X53.005Y-77.108
X53.188Y-77.927
X53.204Y-74.657
X53.204Y-75.457
X53.206Y-71.355
X53.206Y-72.155
X53.213Y-73.006
X53.213Y-73.806
X53.9Y-79.5
X54.1Y-101.4
X54.229Y-96.444
X54.458Y-95.631
X54.508Y-94.806
X55.016Y-96.774
X55.143Y-92.227
X55.22Y-93.142
X55.27Y-78.537
X55.27Y-79.35
X55.397Y-75.87
X55.474Y-74.219
X55.474Y-77.495
X55.55Y-72.593
X55.601Y-70.917
X55.88Y-67.767
X56.032Y-96.723
X56.388Y-69.704
X56.388Y-70.504
X56.388Y-71.355
X56.388Y-72.155
X56.388Y-73.006
X56.388Y-73.806
X56.388Y-74.657
X56.388Y-75.457
X56.388Y-76.308
X56.388Y-77.108
X56.54Y-79.553
X56.617Y-83.21
X56.693Y-86.055
X57.023Y-77.826
X57.099Y-68.936
X57.175Y-70.917
X57.201Y-72.644
X57.201Y-91.542
X57.226Y-74.193
X57.226Y-75.792
X57.226Y-78.842
X57.277Y-82.22
X57.353Y-88.824
X57.455Y-96.825
X57.709Y-100.482
X58.42Y-96.622
X58.699Y-82.626
X58.953Y-90.399
X59.0Y-67.6
X59.0Y-101.2
X59.03Y-93.523
X59.08Y-94.59
X59.182Y-88.976
X59.842Y-86.665
X59.844Y-91.491
X60.35Y-100.076
X60.579Y-95.047
X60.655Y-82.626
X62.128Y-90.983
X62.255Y-86.868
X62.3Y-101.4
X62.433Y-99.771
X62.484Y-93.167
X62.687Y-85.801
X63.246Y-99.847
X63.957Y-87.528
X64.16Y-91.516
X64.668Y-85.192
X64.77Y-93.675
X65.0Y-67.6
X65.227Y-98.73
X65.253Y-99.771
X65.5Y-101.4
X65.989Y-85.496
X66.269Y-83.871
X67.056Y-85.649
X67.412Y-79.553
X67.462Y-100.635
X67.64Y-78.765
X68.58Y-93.726
X68.986Y-85.344
X69.24Y-79.273
X69.494Y-97.841
X69.799Y-78.486
X70.358Y-80.569
X70.561Y-77.749
X70.637Y-83.312
X71.018Y-84.049
X71.018Y-100.584
X71.227Y-77.033
X71.45Y-81.559
X71.476Y-96.825
X72.014Y-82.301
X72.034Y-76.225
X72.034Y-93.116
X72.085Y-84.988
X72.085Y-97.282
X72.593Y-72.949
X72.72Y-75.489
X72.746Y-96.825
X72.9Y-101.1
X73.025Y-67.666
X73.381Y-83.439
X73.736Y-95.072
X73.99Y-73.101
X74.2Y-93.3
X74.295Y-75.565
X74.778Y-73.838
X75.159Y-71.73
X75.463Y-74.295
X75.641Y-100.33
X75.895Y-69.596
X75.946Y-94.488
X75.997Y-77.368
X76.556Y-68.377
X76.86Y-75.794
X76.9Y-101.3
X76.911Y-90.475
X78.689Y-100.635
X78.842Y-97.485
X78.842Y-98.857
X79.172Y-75.743
X79.248Y-98.095
X79.426Y-68.148
X80.0Y-89.1
X80.772Y-74.524
X81.051Y-69.494
X81.864Y-90.068
X81.89Y-70.968
X81.915Y-73.431
X81.915Y-91.415
X82.55Y-95.758
X82.55Y-96.672
X83.464Y-87.732
X83.769Y-91.542
X83.769Y-98.501
X84.0Y-101.5
X84.125Y-88.24
X84.887Y-88.646
X85.242Y-72.136
X85.623Y-67.767
X85.801Y-98.349
X85.903Y-99.416
X86.411Y-98.882
X86.792Y-90.221
X87.7Y-67.5
X88.9Y-100.9
X89.611Y-98.857
X89.992Y-95.783
X90.03Y-93.026
X92.9Y-96.0
X92.913Y-88.214
X92.964Y-77.699
X93.1Y-91.1
X93.142Y-99.568
X93.37Y-85.877
X93.421Y-83.007
X93.574Y-75.717
X94.539Y-84.887
X95.047Y-97.028
X95.4Y-71.7
X96.632Y-101.37
X96.698Y-92.405
X96.799Y-98.171
X96.9Y-97.0
X97.333Y-86.792
X97.765Y-90.653
X98.0Y-78.8
X98.0Y-82.9
X98.044Y-71.933
X98.069Y-99.746
X98.298Y-75.235
X98.4Y-97.688
X99.1Y-82.855
X99.3Y-77.3
X99.832Y-101.226
X99.847Y-90.754
X100.584Y-95.402
X101.702Y-95.402
X102.489Y-97.917
X102.565Y-93.878
X102.819Y-95.402
X102.972Y-79.096
X103.175Y-101.244
X103.232Y-94.463
X103.232Y-97.561
X103.988Y-79.858
X104.006Y-81.89
X104.032Y-94.463
X104.032Y-97.561
X104.384Y-74.371
X104.588Y-76.81
X104.699Y-95.402
X104.724Y-93.65
X104.724Y-97.993
X105.308Y-81.458
X105.442Y-94.412
X105.442Y-97.612
X105.613Y-82.296
X106.172Y-81.483
X106.242Y-94.412
X106.242Y-97.612
X106.731Y-82.194
X106.916Y-101.158
X106.985Y-95.352
X107.061Y-93.675
X107.061Y-97.968
X107.506Y-81.89
X107.569Y-69.494
X108.9Y-101.1
X109.093Y-72.085
X109.169Y-98.933
X109.2Y-69.1
X109.601Y-78.715
X109.8Y-94.5
X109.9Y-82.4
X109.982Y-85.7
X110.0Y-89.6
X112.9Y-68.7
X112.9Y-73.1
X113.081Y-76.048
X113.3Y-89.6
X113.309Y-86.995
X113.538Y-81.432
X113.817Y-70.485
X113.868Y-99.187
X113.97Y-95.504
X114.224Y-82.271
X114.706Y-72.746
X115.138Y-97.993
X115.697Y-84.709
X115.799Y-69.317
X116.053Y-86.614
X116.6Y-100.3
X117.551Y-77.47
X117.729Y-97.307
X117.754Y-76.657
X117.78Y-83.947
X117.958Y-88.951
X118.491Y-69.825
X118.783Y-83.909
X119.101Y-96.215
X119.38Y-82.575
X120.167Y-99.568
X120.6Y-71.1
X120.752Y-98.196
X121.158Y-90.576
X121.26Y-72.542
X121.768Y-69.698
X122.326Y-73.711
X123.088Y-84.887
X123.1Y-100.8
X123.19Y-90.424
X123.6Y-89.2
X123.927Y-71.399
X124.003Y-77.114
X124.1Y-84.1
X124.1Y-93.1
X124.13Y-69.545
X124.612Y-97.333
X125.1Y-82.6
X125.806Y-99.644
X125.959Y-76.2
X126.06Y-98.781
X126.086Y-94.234
X126.187Y-101.092
X126.3Y-95.6
X126.314Y-97.739
X126.502Y-73.092
X126.835Y-94.615
X126.835Y-98.425
X126.848Y-75.235
X127.533Y-84.43
X127.635Y-94.615
X127.635Y-98.425
X127.711Y-72.695
X127.991Y-93.853
X128.0Y-95.6
X128.368Y-84.426
X128.41Y-97.79
X128.549Y-98.628
X128.702Y-85.776
X128.934Y-84.992
X129.184Y-82.423
X129.21Y-97.79
X129.565Y-101.143
X129.616Y-76.524
X129.7Y-95.6
X129.794Y-82.96
X129.794Y-83.76
X129.946Y-98.628
X130.162Y-97.79
X130.962Y-97.79
X131.293Y-98.527
X131.4Y-95.6
X131.807Y-97.799
X132.08Y-86.67
X132.105Y-87.706
X132.131Y-70.561
X132.34Y-84.93
X132.36Y-81.78
X132.36Y-83.88
X132.39Y-82.83
X132.512Y-80.112
X132.6Y-85.8
X132.607Y-97.799
X132.69Y-79.299
X132.944Y-98.552
X133.198Y-93.853
X133.2Y-95.6
X133.4Y-89.11
X133.448Y-97.888
X133.712Y-94.615
X133.858Y-101.117
X134.014Y-98.454
X134.13Y-87.84
X134.512Y-94.615
X134.518Y-71.374
X134.823Y-98.527
X135.052Y-93.878
X135.1Y-95.6
X135.833Y-76.486
X136.474Y-86.309
X136.55Y-79.654
X136.623Y-85.5
X136.7Y-100.6
X137.189Y-84.934
X137.3Y-97.2
X137.938Y-94.804
X137.998Y-84.836
X138.1Y-70.1
X138.2Y-77.2
X138.6Y-81.7
X139.0Y-73.7
X139.3Y-93.1
X139.6Y-85.4
X139.6Y-89.0
T0
M30
