G04 #@! TF.GenerationSoftware,KiCad,Pcbnew,7.0.8*
G04 #@! TF.CreationDate,2023-11-02T17:04:35+02:00*
G04 #@! TF.ProjectId,ssd2828_board,73736432-3832-4385-9f62-6f6172642e6b,rev?*
G04 #@! TF.SameCoordinates,Original*
G04 #@! TF.FileFunction,Legend,Top*
G04 #@! TF.FilePolarity,Positive*
%FSLAX46Y46*%
G04 Gerber Fmt 4.6, Leading zero omitted, Abs format (unit mm)*
G04 Created by KiCad (PCBNEW 7.0.8) date 2023-11-02 17:04:35*
%MOMM*%
%LPD*%
G01*
G04 APERTURE LIST*
G04 Aperture macros list*
%AMRoundRect*
0 Rectangle with rounded corners*
0 $1 Rounding radius*
0 $2 $3 $4 $5 $6 $7 $8 $9 X,Y pos of 4 corners*
0 Add a 4 corners polygon primitive as box body*
4,1,4,$2,$3,$4,$5,$6,$7,$8,$9,$2,$3,0*
0 Add four circle primitives for the rounded corners*
1,1,$1+$1,$2,$3*
1,1,$1+$1,$4,$5*
1,1,$1+$1,$6,$7*
1,1,$1+$1,$8,$9*
0 Add four rect primitives between the rounded corners*
20,1,$1+$1,$2,$3,$4,$5,0*
20,1,$1+$1,$4,$5,$6,$7,0*
20,1,$1+$1,$6,$7,$8,$9,0*
20,1,$1+$1,$8,$9,$2,$3,0*%
%AMRotRect*
0 Rectangle, with rotation*
0 The origin of the aperture is its center*
0 $1 length*
0 $2 width*
0 $3 Rotation angle, in degrees counterclockwise*
0 Add horizontal line*
21,1,$1,$2,0,0,$3*%
%AMFreePoly0*
4,1,33,0.550000,-0.750000,0.000000,-0.750000,0.000000,-0.749013,-0.031395,-0.749013,-0.093691,-0.741144,-0.154508,-0.725528,-0.212890,-0.702414,-0.267913,-0.672164,-0.318712,-0.635257,-0.364484,-0.592274,-0.404508,-0.543893,-0.438153,-0.490877,-0.464888,-0.434062,-0.484292,-0.374345,-0.496057,-0.312667,-0.500000,-0.250000,-0.500000,0.250000,-0.496057,0.312667,-0.484292,0.374345,-0.464888,0.434062,
-0.438153,0.490877,-0.404508,0.543893,-0.364484,0.592274,-0.318712,0.635257,-0.267913,0.672164,-0.212890,0.702414,-0.154508,0.725528,-0.093691,0.741144,-0.031395,0.749013,0.000000,0.749013,0.000000,0.750000,0.550000,0.750000,0.550000,-0.750000,0.550000,-0.750000,$1*%
%AMFreePoly1*
4,1,33,0.000000,0.749013,0.031395,0.749013,0.093691,0.741144,0.154508,0.725528,0.212890,0.702414,0.267913,0.672164,0.318712,0.635257,0.364484,0.592274,0.404508,0.543893,0.438153,0.490877,0.464888,0.434062,0.484292,0.374345,0.496057,0.312667,0.500000,0.250000,0.500000,-0.250000,0.496057,-0.312667,0.484292,-0.374345,0.464888,-0.434062,0.438153,-0.490877,0.404508,-0.543893,
0.364484,-0.592274,0.318712,-0.635257,0.267913,-0.672164,0.212890,-0.702414,0.154508,-0.725528,0.093691,-0.741144,0.031395,-0.749013,0.000000,-0.749013,0.000000,-0.750000,-0.550000,-0.750000,-0.550000,0.750000,0.000000,0.750000,0.000000,0.749013,0.000000,0.749013,$1*%
G04 Aperture macros list end*
%ADD10C,0.150000*%
%ADD11C,0.155000*%
%ADD12C,0.200000*%
%ADD13C,0.120000*%
%ADD14C,0.100000*%
%ADD15C,0.250000*%
%ADD16RoundRect,0.175000X-0.175000X-0.175000X0.175000X-0.175000X0.175000X0.175000X-0.175000X0.175000X0*%
%ADD17R,0.467000X0.180000*%
%ADD18R,1.000000X0.300000*%
%ADD19R,0.350000X0.800000*%
%ADD20R,0.240000X0.450000*%
%ADD21R,0.500000X0.470000*%
%ADD22RoundRect,0.250000X1.075000X-0.312500X1.075000X0.312500X-1.075000X0.312500X-1.075000X-0.312500X0*%
%ADD23R,1.800000X2.200000*%
%ADD24R,1.400000X0.300000*%
%ADD25R,1.000000X1.500000*%
%ADD26R,1.000000X1.000000*%
%ADD27RoundRect,0.225000X0.225000X0.250000X-0.225000X0.250000X-0.225000X-0.250000X0.225000X-0.250000X0*%
%ADD28R,0.600000X1.200000*%
%ADD29RoundRect,0.200000X0.275000X-0.200000X0.275000X0.200000X-0.275000X0.200000X-0.275000X-0.200000X0*%
%ADD30RoundRect,0.200000X-0.275000X0.200000X-0.275000X-0.200000X0.275000X-0.200000X0.275000X0.200000X0*%
%ADD31R,1.000000X2.200000*%
%ADD32RoundRect,0.225000X-0.225000X-0.250000X0.225000X-0.250000X0.225000X0.250000X-0.225000X0.250000X0*%
%ADD33RoundRect,0.150000X-0.512500X-0.150000X0.512500X-0.150000X0.512500X0.150000X-0.512500X0.150000X0*%
%ADD34RoundRect,0.225000X0.250000X-0.225000X0.250000X0.225000X-0.250000X0.225000X-0.250000X-0.225000X0*%
%ADD35R,0.500000X0.800000*%
%ADD36R,0.400000X0.800000*%
%ADD37RoundRect,0.250000X-0.262500X-0.450000X0.262500X-0.450000X0.262500X0.450000X-0.262500X0.450000X0*%
%ADD38RoundRect,0.200000X-0.200000X-0.275000X0.200000X-0.275000X0.200000X0.275000X-0.200000X0.275000X0*%
%ADD39R,0.800000X0.300000*%
%ADD40R,0.650000X0.300000*%
%ADD41R,0.950000X0.400000*%
%ADD42R,1.200000X0.600000*%
%ADD43RoundRect,0.050000X-0.291682X0.220971X0.220971X-0.291682X0.291682X-0.220971X-0.220971X0.291682X0*%
%ADD44RoundRect,0.050000X-0.291682X-0.220971X-0.220971X-0.291682X0.291682X0.220971X0.220971X0.291682X0*%
%ADD45RotRect,5.200000X5.200000X315.000000*%
%ADD46R,1.870000X1.720000*%
%ADD47RoundRect,0.200000X0.200000X0.275000X-0.200000X0.275000X-0.200000X-0.275000X0.200000X-0.275000X0*%
%ADD48RoundRect,0.225000X-0.250000X0.225000X-0.250000X-0.225000X0.250000X-0.225000X0.250000X0.225000X0*%
%ADD49R,1.200000X1.400000*%
%ADD50R,0.300000X0.800000*%
%ADD51R,0.300000X0.650000*%
%ADD52R,0.400000X0.950000*%
%ADD53RoundRect,0.243750X0.456250X-0.243750X0.456250X0.243750X-0.456250X0.243750X-0.456250X-0.243750X0*%
%ADD54R,0.700000X2.000000*%
%ADD55R,0.800000X0.500000*%
%ADD56R,0.800000X0.400000*%
%ADD57R,0.900000X0.800000*%
%ADD58FreePoly0,0.000000*%
%ADD59FreePoly1,0.000000*%
%ADD60RoundRect,0.050000X-0.350000X-0.050000X0.350000X-0.050000X0.350000X0.050000X-0.350000X0.050000X0*%
%ADD61R,1.700000X2.500000*%
%ADD62R,0.800000X2.700000*%
%ADD63RoundRect,0.250000X-0.475000X0.250000X-0.475000X-0.250000X0.475000X-0.250000X0.475000X0.250000X0*%
%ADD64RoundRect,0.250000X-0.450000X0.262500X-0.450000X-0.262500X0.450000X-0.262500X0.450000X0.262500X0*%
%ADD65R,0.800000X0.900000*%
%ADD66RoundRect,0.112500X0.187500X0.112500X-0.187500X0.112500X-0.187500X-0.112500X0.187500X-0.112500X0*%
%ADD67RoundRect,0.243750X0.243750X0.456250X-0.243750X0.456250X-0.243750X-0.456250X0.243750X-0.456250X0*%
%ADD68RoundRect,0.062500X0.062500X-0.325000X0.062500X0.325000X-0.062500X0.325000X-0.062500X-0.325000X0*%
%ADD69RoundRect,0.062500X0.325000X-0.062500X0.325000X0.062500X-0.325000X0.062500X-0.325000X-0.062500X0*%
%ADD70R,2.450000X2.450000*%
%ADD71R,0.650000X2.000000*%
G04 APERTURE END LIST*
D10*
X51841400Y-86969600D02*
X79527400Y-86969600D01*
X113665000Y-86372200D02*
X113665000Y-51269400D01*
X94234000Y-51269400D02*
X94234000Y-86372200D01*
D11*
X70632704Y-80041684D02*
X70632704Y-79577398D01*
X70632704Y-79577398D02*
X70918418Y-79827398D01*
X70918418Y-79827398D02*
X70918418Y-79720255D01*
X70918418Y-79720255D02*
X70954132Y-79648827D01*
X70954132Y-79648827D02*
X70989847Y-79613112D01*
X70989847Y-79613112D02*
X71061275Y-79577398D01*
X71061275Y-79577398D02*
X71239847Y-79577398D01*
X71239847Y-79577398D02*
X71311275Y-79613112D01*
X71311275Y-79613112D02*
X71346990Y-79648827D01*
X71346990Y-79648827D02*
X71382704Y-79720255D01*
X71382704Y-79720255D02*
X71382704Y-79934541D01*
X71382704Y-79934541D02*
X71346990Y-80005969D01*
X71346990Y-80005969D02*
X71311275Y-80041684D01*
X70632704Y-79363112D02*
X71382704Y-79113112D01*
X71382704Y-79113112D02*
X70632704Y-78863112D01*
X70632704Y-78684541D02*
X70632704Y-78220255D01*
X70632704Y-78220255D02*
X70918418Y-78470255D01*
X70918418Y-78470255D02*
X70918418Y-78363112D01*
X70918418Y-78363112D02*
X70954132Y-78291684D01*
X70954132Y-78291684D02*
X70989847Y-78255969D01*
X70989847Y-78255969D02*
X71061275Y-78220255D01*
X71061275Y-78220255D02*
X71239847Y-78220255D01*
X71239847Y-78220255D02*
X71311275Y-78255969D01*
X71311275Y-78255969D02*
X71346990Y-78291684D01*
X71346990Y-78291684D02*
X71382704Y-78363112D01*
X71382704Y-78363112D02*
X71382704Y-78577398D01*
X71382704Y-78577398D02*
X71346990Y-78648826D01*
X71346990Y-78648826D02*
X71311275Y-78684541D01*
X54516857Y-52929104D02*
X54516857Y-52179104D01*
X54516857Y-52179104D02*
X54766857Y-52714818D01*
X54766857Y-52714818D02*
X55016857Y-52179104D01*
X55016857Y-52179104D02*
X55016857Y-52929104D01*
X55374000Y-52929104D02*
X55374000Y-52179104D01*
X55731143Y-52929104D02*
X55731143Y-52179104D01*
X55731143Y-52179104D02*
X56016857Y-52179104D01*
X56016857Y-52179104D02*
X56088286Y-52214818D01*
X56088286Y-52214818D02*
X56124000Y-52250532D01*
X56124000Y-52250532D02*
X56159714Y-52321961D01*
X56159714Y-52321961D02*
X56159714Y-52429104D01*
X56159714Y-52429104D02*
X56124000Y-52500532D01*
X56124000Y-52500532D02*
X56088286Y-52536247D01*
X56088286Y-52536247D02*
X56016857Y-52571961D01*
X56016857Y-52571961D02*
X55731143Y-52571961D01*
X56481143Y-52929104D02*
X56481143Y-52179104D01*
X103636695Y-53764515D02*
X103636695Y-54228801D01*
X103636695Y-54228801D02*
X103350981Y-53978801D01*
X103350981Y-53978801D02*
X103350981Y-54085944D01*
X103350981Y-54085944D02*
X103315267Y-54157373D01*
X103315267Y-54157373D02*
X103279552Y-54193087D01*
X103279552Y-54193087D02*
X103208124Y-54228801D01*
X103208124Y-54228801D02*
X103029552Y-54228801D01*
X103029552Y-54228801D02*
X102958124Y-54193087D01*
X102958124Y-54193087D02*
X102922410Y-54157373D01*
X102922410Y-54157373D02*
X102886695Y-54085944D01*
X102886695Y-54085944D02*
X102886695Y-53871658D01*
X102886695Y-53871658D02*
X102922410Y-53800230D01*
X102922410Y-53800230D02*
X102958124Y-53764515D01*
X103636695Y-54443087D02*
X102886695Y-54693087D01*
X102886695Y-54693087D02*
X103636695Y-54943087D01*
X103636695Y-55335944D02*
X103636695Y-55407373D01*
X103636695Y-55407373D02*
X103600981Y-55478801D01*
X103600981Y-55478801D02*
X103565267Y-55514516D01*
X103565267Y-55514516D02*
X103493838Y-55550230D01*
X103493838Y-55550230D02*
X103350981Y-55585944D01*
X103350981Y-55585944D02*
X103172410Y-55585944D01*
X103172410Y-55585944D02*
X103029552Y-55550230D01*
X103029552Y-55550230D02*
X102958124Y-55514516D01*
X102958124Y-55514516D02*
X102922410Y-55478801D01*
X102922410Y-55478801D02*
X102886695Y-55407373D01*
X102886695Y-55407373D02*
X102886695Y-55335944D01*
X102886695Y-55335944D02*
X102922410Y-55264516D01*
X102922410Y-55264516D02*
X102958124Y-55228801D01*
X102958124Y-55228801D02*
X103029552Y-55193087D01*
X103029552Y-55193087D02*
X103172410Y-55157373D01*
X103172410Y-55157373D02*
X103350981Y-55157373D01*
X103350981Y-55157373D02*
X103493838Y-55193087D01*
X103493838Y-55193087D02*
X103565267Y-55228801D01*
X103565267Y-55228801D02*
X103600981Y-55264516D01*
X103600981Y-55264516D02*
X103636695Y-55335944D01*
X103279552Y-56478802D02*
X103279552Y-56728802D01*
X102886695Y-56835945D02*
X102886695Y-56478802D01*
X102886695Y-56478802D02*
X103636695Y-56478802D01*
X103636695Y-56478802D02*
X103636695Y-56835945D01*
X102886695Y-57157373D02*
X103636695Y-57157373D01*
X103636695Y-57157373D02*
X102886695Y-57585944D01*
X102886695Y-57585944D02*
X103636695Y-57585944D01*
X57913144Y-66899104D02*
X57913144Y-66149104D01*
X57913144Y-66149104D02*
X58198858Y-66149104D01*
X58198858Y-66149104D02*
X58270287Y-66184818D01*
X58270287Y-66184818D02*
X58306001Y-66220532D01*
X58306001Y-66220532D02*
X58341715Y-66291961D01*
X58341715Y-66291961D02*
X58341715Y-66399104D01*
X58341715Y-66399104D02*
X58306001Y-66470532D01*
X58306001Y-66470532D02*
X58270287Y-66506247D01*
X58270287Y-66506247D02*
X58198858Y-66541961D01*
X58198858Y-66541961D02*
X57913144Y-66541961D01*
X58627430Y-66863390D02*
X58734573Y-66899104D01*
X58734573Y-66899104D02*
X58913144Y-66899104D01*
X58913144Y-66899104D02*
X58984573Y-66863390D01*
X58984573Y-66863390D02*
X59020287Y-66827675D01*
X59020287Y-66827675D02*
X59056001Y-66756247D01*
X59056001Y-66756247D02*
X59056001Y-66684818D01*
X59056001Y-66684818D02*
X59020287Y-66613390D01*
X59020287Y-66613390D02*
X58984573Y-66577675D01*
X58984573Y-66577675D02*
X58913144Y-66541961D01*
X58913144Y-66541961D02*
X58770287Y-66506247D01*
X58770287Y-66506247D02*
X58698858Y-66470532D01*
X58698858Y-66470532D02*
X58663144Y-66434818D01*
X58663144Y-66434818D02*
X58627430Y-66363390D01*
X58627430Y-66363390D02*
X58627430Y-66291961D01*
X58627430Y-66291961D02*
X58663144Y-66220532D01*
X58663144Y-66220532D02*
X58698858Y-66184818D01*
X58698858Y-66184818D02*
X58770287Y-66149104D01*
X58770287Y-66149104D02*
X58948858Y-66149104D01*
X58948858Y-66149104D02*
X59056001Y-66184818D01*
X59520287Y-66149104D02*
X59591716Y-66149104D01*
X59591716Y-66149104D02*
X59663144Y-66184818D01*
X59663144Y-66184818D02*
X59698859Y-66220532D01*
X59698859Y-66220532D02*
X59734573Y-66291961D01*
X59734573Y-66291961D02*
X59770287Y-66434818D01*
X59770287Y-66434818D02*
X59770287Y-66613390D01*
X59770287Y-66613390D02*
X59734573Y-66756247D01*
X59734573Y-66756247D02*
X59698859Y-66827675D01*
X59698859Y-66827675D02*
X59663144Y-66863390D01*
X59663144Y-66863390D02*
X59591716Y-66899104D01*
X59591716Y-66899104D02*
X59520287Y-66899104D01*
X59520287Y-66899104D02*
X59448859Y-66863390D01*
X59448859Y-66863390D02*
X59413144Y-66827675D01*
X59413144Y-66827675D02*
X59377430Y-66756247D01*
X59377430Y-66756247D02*
X59341716Y-66613390D01*
X59341716Y-66613390D02*
X59341716Y-66434818D01*
X59341716Y-66434818D02*
X59377430Y-66291961D01*
X59377430Y-66291961D02*
X59413144Y-66220532D01*
X59413144Y-66220532D02*
X59448859Y-66184818D01*
X59448859Y-66184818D02*
X59520287Y-66149104D01*
D12*
X56097600Y-89650557D02*
X56269028Y-89650557D01*
X56269028Y-89650557D02*
X56354743Y-89693414D01*
X56354743Y-89693414D02*
X56440457Y-89779128D01*
X56440457Y-89779128D02*
X56483314Y-89950557D01*
X56483314Y-89950557D02*
X56483314Y-90250557D01*
X56483314Y-90250557D02*
X56440457Y-90421985D01*
X56440457Y-90421985D02*
X56354743Y-90507700D01*
X56354743Y-90507700D02*
X56269028Y-90550557D01*
X56269028Y-90550557D02*
X56097600Y-90550557D01*
X56097600Y-90550557D02*
X56011886Y-90507700D01*
X56011886Y-90507700D02*
X55926171Y-90421985D01*
X55926171Y-90421985D02*
X55883314Y-90250557D01*
X55883314Y-90250557D02*
X55883314Y-89950557D01*
X55883314Y-89950557D02*
X55926171Y-89779128D01*
X55926171Y-89779128D02*
X56011886Y-89693414D01*
X56011886Y-89693414D02*
X56097600Y-89650557D01*
X56869028Y-89650557D02*
X56869028Y-90379128D01*
X56869028Y-90379128D02*
X56911885Y-90464842D01*
X56911885Y-90464842D02*
X56954743Y-90507700D01*
X56954743Y-90507700D02*
X57040457Y-90550557D01*
X57040457Y-90550557D02*
X57211885Y-90550557D01*
X57211885Y-90550557D02*
X57297600Y-90507700D01*
X57297600Y-90507700D02*
X57340457Y-90464842D01*
X57340457Y-90464842D02*
X57383314Y-90379128D01*
X57383314Y-90379128D02*
X57383314Y-89650557D01*
X57683314Y-89650557D02*
X58197600Y-89650557D01*
X57940457Y-90550557D02*
X57940457Y-89650557D01*
D11*
X57913144Y-69794704D02*
X57913144Y-69044704D01*
X57913144Y-69044704D02*
X58198858Y-69044704D01*
X58198858Y-69044704D02*
X58270287Y-69080418D01*
X58270287Y-69080418D02*
X58306001Y-69116132D01*
X58306001Y-69116132D02*
X58341715Y-69187561D01*
X58341715Y-69187561D02*
X58341715Y-69294704D01*
X58341715Y-69294704D02*
X58306001Y-69366132D01*
X58306001Y-69366132D02*
X58270287Y-69401847D01*
X58270287Y-69401847D02*
X58198858Y-69437561D01*
X58198858Y-69437561D02*
X57913144Y-69437561D01*
X58627430Y-69758990D02*
X58734573Y-69794704D01*
X58734573Y-69794704D02*
X58913144Y-69794704D01*
X58913144Y-69794704D02*
X58984573Y-69758990D01*
X58984573Y-69758990D02*
X59020287Y-69723275D01*
X59020287Y-69723275D02*
X59056001Y-69651847D01*
X59056001Y-69651847D02*
X59056001Y-69580418D01*
X59056001Y-69580418D02*
X59020287Y-69508990D01*
X59020287Y-69508990D02*
X58984573Y-69473275D01*
X58984573Y-69473275D02*
X58913144Y-69437561D01*
X58913144Y-69437561D02*
X58770287Y-69401847D01*
X58770287Y-69401847D02*
X58698858Y-69366132D01*
X58698858Y-69366132D02*
X58663144Y-69330418D01*
X58663144Y-69330418D02*
X58627430Y-69258990D01*
X58627430Y-69258990D02*
X58627430Y-69187561D01*
X58627430Y-69187561D02*
X58663144Y-69116132D01*
X58663144Y-69116132D02*
X58698858Y-69080418D01*
X58698858Y-69080418D02*
X58770287Y-69044704D01*
X58770287Y-69044704D02*
X58948858Y-69044704D01*
X58948858Y-69044704D02*
X59056001Y-69080418D01*
X59770287Y-69794704D02*
X59341716Y-69794704D01*
X59556001Y-69794704D02*
X59556001Y-69044704D01*
X59556001Y-69044704D02*
X59484573Y-69151847D01*
X59484573Y-69151847D02*
X59413144Y-69223275D01*
X59413144Y-69223275D02*
X59341716Y-69258990D01*
X78672504Y-74483855D02*
X77922504Y-74483855D01*
X77922504Y-74483855D02*
X77922504Y-74305284D01*
X77922504Y-74305284D02*
X77958218Y-74198141D01*
X77958218Y-74198141D02*
X78029647Y-74126712D01*
X78029647Y-74126712D02*
X78101075Y-74090998D01*
X78101075Y-74090998D02*
X78243932Y-74055284D01*
X78243932Y-74055284D02*
X78351075Y-74055284D01*
X78351075Y-74055284D02*
X78493932Y-74090998D01*
X78493932Y-74090998D02*
X78565361Y-74126712D01*
X78565361Y-74126712D02*
X78636790Y-74198141D01*
X78636790Y-74198141D02*
X78672504Y-74305284D01*
X78672504Y-74305284D02*
X78672504Y-74483855D01*
X77886790Y-73198141D02*
X78851075Y-73840998D01*
X78601075Y-72519570D02*
X78636790Y-72555284D01*
X78636790Y-72555284D02*
X78672504Y-72662427D01*
X78672504Y-72662427D02*
X78672504Y-72733855D01*
X78672504Y-72733855D02*
X78636790Y-72840998D01*
X78636790Y-72840998D02*
X78565361Y-72912427D01*
X78565361Y-72912427D02*
X78493932Y-72948141D01*
X78493932Y-72948141D02*
X78351075Y-72983855D01*
X78351075Y-72983855D02*
X78243932Y-72983855D01*
X78243932Y-72983855D02*
X78101075Y-72948141D01*
X78101075Y-72948141D02*
X78029647Y-72912427D01*
X78029647Y-72912427D02*
X77958218Y-72840998D01*
X77958218Y-72840998D02*
X77922504Y-72733855D01*
X77922504Y-72733855D02*
X77922504Y-72662427D01*
X77922504Y-72662427D02*
X77958218Y-72555284D01*
X77958218Y-72555284D02*
X77993932Y-72519570D01*
D12*
X65934514Y-90702957D02*
X65934514Y-89802957D01*
X65934514Y-89802957D02*
X66148800Y-89802957D01*
X66148800Y-89802957D02*
X66277371Y-89845814D01*
X66277371Y-89845814D02*
X66363086Y-89931528D01*
X66363086Y-89931528D02*
X66405943Y-90017242D01*
X66405943Y-90017242D02*
X66448800Y-90188671D01*
X66448800Y-90188671D02*
X66448800Y-90317242D01*
X66448800Y-90317242D02*
X66405943Y-90488671D01*
X66405943Y-90488671D02*
X66363086Y-90574385D01*
X66363086Y-90574385D02*
X66277371Y-90660100D01*
X66277371Y-90660100D02*
X66148800Y-90702957D01*
X66148800Y-90702957D02*
X65934514Y-90702957D01*
X67005943Y-89802957D02*
X67091657Y-89802957D01*
X67091657Y-89802957D02*
X67177371Y-89845814D01*
X67177371Y-89845814D02*
X67220229Y-89888671D01*
X67220229Y-89888671D02*
X67263086Y-89974385D01*
X67263086Y-89974385D02*
X67305943Y-90145814D01*
X67305943Y-90145814D02*
X67305943Y-90360100D01*
X67305943Y-90360100D02*
X67263086Y-90531528D01*
X67263086Y-90531528D02*
X67220229Y-90617242D01*
X67220229Y-90617242D02*
X67177371Y-90660100D01*
X67177371Y-90660100D02*
X67091657Y-90702957D01*
X67091657Y-90702957D02*
X67005943Y-90702957D01*
X67005943Y-90702957D02*
X66920229Y-90660100D01*
X66920229Y-90660100D02*
X66877371Y-90617242D01*
X66877371Y-90617242D02*
X66834514Y-90531528D01*
X66834514Y-90531528D02*
X66791657Y-90360100D01*
X66791657Y-90360100D02*
X66791657Y-90145814D01*
X66791657Y-90145814D02*
X66834514Y-89974385D01*
X66834514Y-89974385D02*
X66877371Y-89888671D01*
X66877371Y-89888671D02*
X66920229Y-89845814D01*
X66920229Y-89845814D02*
X67005943Y-89802957D01*
D11*
X61219228Y-98763904D02*
X61219228Y-98013904D01*
X61219228Y-98013904D02*
X61397799Y-98013904D01*
X61397799Y-98013904D02*
X61504942Y-98049618D01*
X61504942Y-98049618D02*
X61576371Y-98121047D01*
X61576371Y-98121047D02*
X61612085Y-98192475D01*
X61612085Y-98192475D02*
X61647799Y-98335332D01*
X61647799Y-98335332D02*
X61647799Y-98442475D01*
X61647799Y-98442475D02*
X61612085Y-98585332D01*
X61612085Y-98585332D02*
X61576371Y-98656761D01*
X61576371Y-98656761D02*
X61504942Y-98728190D01*
X61504942Y-98728190D02*
X61397799Y-98763904D01*
X61397799Y-98763904D02*
X61219228Y-98763904D01*
X61933514Y-98085332D02*
X61969228Y-98049618D01*
X61969228Y-98049618D02*
X62040657Y-98013904D01*
X62040657Y-98013904D02*
X62219228Y-98013904D01*
X62219228Y-98013904D02*
X62290657Y-98049618D01*
X62290657Y-98049618D02*
X62326371Y-98085332D01*
X62326371Y-98085332D02*
X62362085Y-98156761D01*
X62362085Y-98156761D02*
X62362085Y-98228190D01*
X62362085Y-98228190D02*
X62326371Y-98335332D01*
X62326371Y-98335332D02*
X61897799Y-98763904D01*
X61897799Y-98763904D02*
X62362085Y-98763904D01*
X133532495Y-53703401D02*
X133532495Y-54131973D01*
X132782495Y-53917687D02*
X133532495Y-53917687D01*
X133175352Y-54381973D02*
X133175352Y-54631973D01*
X132782495Y-54739116D02*
X132782495Y-54381973D01*
X132782495Y-54381973D02*
X133532495Y-54381973D01*
X133532495Y-54381973D02*
X133532495Y-54739116D01*
X105158381Y-53800230D02*
X105158381Y-54157373D01*
X104944095Y-53728801D02*
X105694095Y-53978801D01*
X105694095Y-53978801D02*
X104944095Y-54228801D01*
D12*
X67210800Y-95621042D02*
X67167943Y-95663900D01*
X67167943Y-95663900D02*
X67039371Y-95706757D01*
X67039371Y-95706757D02*
X66953657Y-95706757D01*
X66953657Y-95706757D02*
X66825086Y-95663900D01*
X66825086Y-95663900D02*
X66739371Y-95578185D01*
X66739371Y-95578185D02*
X66696514Y-95492471D01*
X66696514Y-95492471D02*
X66653657Y-95321042D01*
X66653657Y-95321042D02*
X66653657Y-95192471D01*
X66653657Y-95192471D02*
X66696514Y-95021042D01*
X66696514Y-95021042D02*
X66739371Y-94935328D01*
X66739371Y-94935328D02*
X66825086Y-94849614D01*
X66825086Y-94849614D02*
X66953657Y-94806757D01*
X66953657Y-94806757D02*
X67039371Y-94806757D01*
X67039371Y-94806757D02*
X67167943Y-94849614D01*
X67167943Y-94849614D02*
X67210800Y-94892471D01*
X67767943Y-94806757D02*
X67853657Y-94806757D01*
X67853657Y-94806757D02*
X67939371Y-94849614D01*
X67939371Y-94849614D02*
X67982229Y-94892471D01*
X67982229Y-94892471D02*
X68025086Y-94978185D01*
X68025086Y-94978185D02*
X68067943Y-95149614D01*
X68067943Y-95149614D02*
X68067943Y-95363900D01*
X68067943Y-95363900D02*
X68025086Y-95535328D01*
X68025086Y-95535328D02*
X67982229Y-95621042D01*
X67982229Y-95621042D02*
X67939371Y-95663900D01*
X67939371Y-95663900D02*
X67853657Y-95706757D01*
X67853657Y-95706757D02*
X67767943Y-95706757D01*
X67767943Y-95706757D02*
X67682229Y-95663900D01*
X67682229Y-95663900D02*
X67639371Y-95621042D01*
X67639371Y-95621042D02*
X67596514Y-95535328D01*
X67596514Y-95535328D02*
X67553657Y-95363900D01*
X67553657Y-95363900D02*
X67553657Y-95149614D01*
X67553657Y-95149614D02*
X67596514Y-94978185D01*
X67596514Y-94978185D02*
X67639371Y-94892471D01*
X67639371Y-94892471D02*
X67682229Y-94849614D01*
X67682229Y-94849614D02*
X67767943Y-94806757D01*
D11*
X69299904Y-79577398D02*
X69299904Y-80005969D01*
X69299904Y-79791684D02*
X68549904Y-79791684D01*
X68549904Y-79791684D02*
X68657047Y-79863112D01*
X68657047Y-79863112D02*
X68728475Y-79934541D01*
X68728475Y-79934541D02*
X68764190Y-80005969D01*
X68549904Y-79363112D02*
X69299904Y-79113112D01*
X69299904Y-79113112D02*
X68549904Y-78863112D01*
X68871332Y-78505969D02*
X68835618Y-78577398D01*
X68835618Y-78577398D02*
X68799904Y-78613112D01*
X68799904Y-78613112D02*
X68728475Y-78648826D01*
X68728475Y-78648826D02*
X68692761Y-78648826D01*
X68692761Y-78648826D02*
X68621332Y-78613112D01*
X68621332Y-78613112D02*
X68585618Y-78577398D01*
X68585618Y-78577398D02*
X68549904Y-78505969D01*
X68549904Y-78505969D02*
X68549904Y-78363112D01*
X68549904Y-78363112D02*
X68585618Y-78291684D01*
X68585618Y-78291684D02*
X68621332Y-78255969D01*
X68621332Y-78255969D02*
X68692761Y-78220255D01*
X68692761Y-78220255D02*
X68728475Y-78220255D01*
X68728475Y-78220255D02*
X68799904Y-78255969D01*
X68799904Y-78255969D02*
X68835618Y-78291684D01*
X68835618Y-78291684D02*
X68871332Y-78363112D01*
X68871332Y-78363112D02*
X68871332Y-78505969D01*
X68871332Y-78505969D02*
X68907047Y-78577398D01*
X68907047Y-78577398D02*
X68942761Y-78613112D01*
X68942761Y-78613112D02*
X69014190Y-78648826D01*
X69014190Y-78648826D02*
X69157047Y-78648826D01*
X69157047Y-78648826D02*
X69228475Y-78613112D01*
X69228475Y-78613112D02*
X69264190Y-78577398D01*
X69264190Y-78577398D02*
X69299904Y-78505969D01*
X69299904Y-78505969D02*
X69299904Y-78363112D01*
X69299904Y-78363112D02*
X69264190Y-78291684D01*
X69264190Y-78291684D02*
X69228475Y-78255969D01*
X69228475Y-78255969D02*
X69157047Y-78220255D01*
X69157047Y-78220255D02*
X69014190Y-78220255D01*
X69014190Y-78220255D02*
X68942761Y-78255969D01*
X68942761Y-78255969D02*
X68907047Y-78291684D01*
X68907047Y-78291684D02*
X68871332Y-78363112D01*
X76589704Y-74483855D02*
X75839704Y-74483855D01*
X75839704Y-74483855D02*
X76375418Y-74233855D01*
X76375418Y-74233855D02*
X75839704Y-73983855D01*
X75839704Y-73983855D02*
X76589704Y-73983855D01*
X75839704Y-73483855D02*
X75839704Y-73340998D01*
X75839704Y-73340998D02*
X75875418Y-73269569D01*
X75875418Y-73269569D02*
X75946847Y-73198141D01*
X75946847Y-73198141D02*
X76089704Y-73162426D01*
X76089704Y-73162426D02*
X76339704Y-73162426D01*
X76339704Y-73162426D02*
X76482561Y-73198141D01*
X76482561Y-73198141D02*
X76553990Y-73269569D01*
X76553990Y-73269569D02*
X76589704Y-73340998D01*
X76589704Y-73340998D02*
X76589704Y-73483855D01*
X76589704Y-73483855D02*
X76553990Y-73555284D01*
X76553990Y-73555284D02*
X76482561Y-73626712D01*
X76482561Y-73626712D02*
X76339704Y-73662426D01*
X76339704Y-73662426D02*
X76089704Y-73662426D01*
X76089704Y-73662426D02*
X75946847Y-73626712D01*
X75946847Y-73626712D02*
X75875418Y-73555284D01*
X75875418Y-73555284D02*
X75839704Y-73483855D01*
X76553990Y-72876712D02*
X76589704Y-72769570D01*
X76589704Y-72769570D02*
X76589704Y-72590998D01*
X76589704Y-72590998D02*
X76553990Y-72519570D01*
X76553990Y-72519570D02*
X76518275Y-72483855D01*
X76518275Y-72483855D02*
X76446847Y-72448141D01*
X76446847Y-72448141D02*
X76375418Y-72448141D01*
X76375418Y-72448141D02*
X76303990Y-72483855D01*
X76303990Y-72483855D02*
X76268275Y-72519570D01*
X76268275Y-72519570D02*
X76232561Y-72590998D01*
X76232561Y-72590998D02*
X76196847Y-72733855D01*
X76196847Y-72733855D02*
X76161132Y-72805284D01*
X76161132Y-72805284D02*
X76125418Y-72840998D01*
X76125418Y-72840998D02*
X76053990Y-72876712D01*
X76053990Y-72876712D02*
X75982561Y-72876712D01*
X75982561Y-72876712D02*
X75911132Y-72840998D01*
X75911132Y-72840998D02*
X75875418Y-72805284D01*
X75875418Y-72805284D02*
X75839704Y-72733855D01*
X75839704Y-72733855D02*
X75839704Y-72555284D01*
X75839704Y-72555284D02*
X75875418Y-72448141D01*
X76589704Y-72126712D02*
X75839704Y-72126712D01*
X123344781Y-53788030D02*
X123344781Y-54145173D01*
X123130495Y-53716601D02*
X123880495Y-53966601D01*
X123880495Y-53966601D02*
X123130495Y-54216601D01*
X72424104Y-74483855D02*
X71674104Y-74483855D01*
X71674104Y-74483855D02*
X72209818Y-74233855D01*
X72209818Y-74233855D02*
X71674104Y-73983855D01*
X71674104Y-73983855D02*
X72424104Y-73983855D01*
X72424104Y-73626712D02*
X71674104Y-73626712D01*
X72388390Y-73305283D02*
X72424104Y-73198141D01*
X72424104Y-73198141D02*
X72424104Y-73019569D01*
X72424104Y-73019569D02*
X72388390Y-72948141D01*
X72388390Y-72948141D02*
X72352675Y-72912426D01*
X72352675Y-72912426D02*
X72281247Y-72876712D01*
X72281247Y-72876712D02*
X72209818Y-72876712D01*
X72209818Y-72876712D02*
X72138390Y-72912426D01*
X72138390Y-72912426D02*
X72102675Y-72948141D01*
X72102675Y-72948141D02*
X72066961Y-73019569D01*
X72066961Y-73019569D02*
X72031247Y-73162426D01*
X72031247Y-73162426D02*
X71995532Y-73233855D01*
X71995532Y-73233855D02*
X71959818Y-73269569D01*
X71959818Y-73269569D02*
X71888390Y-73305283D01*
X71888390Y-73305283D02*
X71816961Y-73305283D01*
X71816961Y-73305283D02*
X71745532Y-73269569D01*
X71745532Y-73269569D02*
X71709818Y-73233855D01*
X71709818Y-73233855D02*
X71674104Y-73162426D01*
X71674104Y-73162426D02*
X71674104Y-72983855D01*
X71674104Y-72983855D02*
X71709818Y-72876712D01*
X71674104Y-72412426D02*
X71674104Y-72269569D01*
X71674104Y-72269569D02*
X71709818Y-72198140D01*
X71709818Y-72198140D02*
X71781247Y-72126712D01*
X71781247Y-72126712D02*
X71924104Y-72090997D01*
X71924104Y-72090997D02*
X72174104Y-72090997D01*
X72174104Y-72090997D02*
X72316961Y-72126712D01*
X72316961Y-72126712D02*
X72388390Y-72198140D01*
X72388390Y-72198140D02*
X72424104Y-72269569D01*
X72424104Y-72269569D02*
X72424104Y-72412426D01*
X72424104Y-72412426D02*
X72388390Y-72483855D01*
X72388390Y-72483855D02*
X72316961Y-72555283D01*
X72316961Y-72555283D02*
X72174104Y-72590997D01*
X72174104Y-72590997D02*
X71924104Y-72590997D01*
X71924104Y-72590997D02*
X71781247Y-72555283D01*
X71781247Y-72555283D02*
X71709818Y-72483855D01*
X71709818Y-72483855D02*
X71674104Y-72412426D01*
X101247552Y-54085944D02*
X101211838Y-54193087D01*
X101211838Y-54193087D02*
X101176124Y-54228801D01*
X101176124Y-54228801D02*
X101104695Y-54264515D01*
X101104695Y-54264515D02*
X100997552Y-54264515D01*
X100997552Y-54264515D02*
X100926124Y-54228801D01*
X100926124Y-54228801D02*
X100890410Y-54193087D01*
X100890410Y-54193087D02*
X100854695Y-54121658D01*
X100854695Y-54121658D02*
X100854695Y-53835944D01*
X100854695Y-53835944D02*
X101604695Y-53835944D01*
X101604695Y-53835944D02*
X101604695Y-54085944D01*
X101604695Y-54085944D02*
X101568981Y-54157373D01*
X101568981Y-54157373D02*
X101533267Y-54193087D01*
X101533267Y-54193087D02*
X101461838Y-54228801D01*
X101461838Y-54228801D02*
X101390410Y-54228801D01*
X101390410Y-54228801D02*
X101318981Y-54193087D01*
X101318981Y-54193087D02*
X101283267Y-54157373D01*
X101283267Y-54157373D02*
X101247552Y-54085944D01*
X101247552Y-54085944D02*
X101247552Y-53835944D01*
X101068981Y-54550230D02*
X101068981Y-54907373D01*
X100854695Y-54478801D02*
X101604695Y-54728801D01*
X101604695Y-54728801D02*
X100854695Y-54978801D01*
X100926124Y-55657372D02*
X100890410Y-55621658D01*
X100890410Y-55621658D02*
X100854695Y-55514515D01*
X100854695Y-55514515D02*
X100854695Y-55443087D01*
X100854695Y-55443087D02*
X100890410Y-55335944D01*
X100890410Y-55335944D02*
X100961838Y-55264515D01*
X100961838Y-55264515D02*
X101033267Y-55228801D01*
X101033267Y-55228801D02*
X101176124Y-55193087D01*
X101176124Y-55193087D02*
X101283267Y-55193087D01*
X101283267Y-55193087D02*
X101426124Y-55228801D01*
X101426124Y-55228801D02*
X101497552Y-55264515D01*
X101497552Y-55264515D02*
X101568981Y-55335944D01*
X101568981Y-55335944D02*
X101604695Y-55443087D01*
X101604695Y-55443087D02*
X101604695Y-55514515D01*
X101604695Y-55514515D02*
X101568981Y-55621658D01*
X101568981Y-55621658D02*
X101533267Y-55657372D01*
X100854695Y-55978801D02*
X101604695Y-55978801D01*
X100854695Y-56407372D02*
X101283267Y-56085944D01*
X101604695Y-56407372D02*
X101176124Y-55978801D01*
X86019942Y-54478504D02*
X85769942Y-54121361D01*
X85591371Y-54478504D02*
X85591371Y-53728504D01*
X85591371Y-53728504D02*
X85877085Y-53728504D01*
X85877085Y-53728504D02*
X85948514Y-53764218D01*
X85948514Y-53764218D02*
X85984228Y-53799932D01*
X85984228Y-53799932D02*
X86019942Y-53871361D01*
X86019942Y-53871361D02*
X86019942Y-53978504D01*
X86019942Y-53978504D02*
X85984228Y-54049932D01*
X85984228Y-54049932D02*
X85948514Y-54085647D01*
X85948514Y-54085647D02*
X85877085Y-54121361D01*
X85877085Y-54121361D02*
X85591371Y-54121361D01*
X86734228Y-53764218D02*
X86662800Y-53728504D01*
X86662800Y-53728504D02*
X86555657Y-53728504D01*
X86555657Y-53728504D02*
X86448514Y-53764218D01*
X86448514Y-53764218D02*
X86377085Y-53835647D01*
X86377085Y-53835647D02*
X86341371Y-53907075D01*
X86341371Y-53907075D02*
X86305657Y-54049932D01*
X86305657Y-54049932D02*
X86305657Y-54157075D01*
X86305657Y-54157075D02*
X86341371Y-54299932D01*
X86341371Y-54299932D02*
X86377085Y-54371361D01*
X86377085Y-54371361D02*
X86448514Y-54442790D01*
X86448514Y-54442790D02*
X86555657Y-54478504D01*
X86555657Y-54478504D02*
X86627085Y-54478504D01*
X86627085Y-54478504D02*
X86734228Y-54442790D01*
X86734228Y-54442790D02*
X86769942Y-54407075D01*
X86769942Y-54407075D02*
X86769942Y-54157075D01*
X86769942Y-54157075D02*
X86627085Y-54157075D01*
X87341371Y-54085647D02*
X87448514Y-54121361D01*
X87448514Y-54121361D02*
X87484228Y-54157075D01*
X87484228Y-54157075D02*
X87519942Y-54228504D01*
X87519942Y-54228504D02*
X87519942Y-54335647D01*
X87519942Y-54335647D02*
X87484228Y-54407075D01*
X87484228Y-54407075D02*
X87448514Y-54442790D01*
X87448514Y-54442790D02*
X87377085Y-54478504D01*
X87377085Y-54478504D02*
X87091371Y-54478504D01*
X87091371Y-54478504D02*
X87091371Y-53728504D01*
X87091371Y-53728504D02*
X87341371Y-53728504D01*
X87341371Y-53728504D02*
X87412800Y-53764218D01*
X87412800Y-53764218D02*
X87448514Y-53799932D01*
X87448514Y-53799932D02*
X87484228Y-53871361D01*
X87484228Y-53871361D02*
X87484228Y-53942790D01*
X87484228Y-53942790D02*
X87448514Y-54014218D01*
X87448514Y-54014218D02*
X87412800Y-54049932D01*
X87412800Y-54049932D02*
X87341371Y-54085647D01*
X87341371Y-54085647D02*
X87091371Y-54085647D01*
X67213628Y-101151504D02*
X67213628Y-100401504D01*
X67213628Y-100401504D02*
X67392199Y-100401504D01*
X67392199Y-100401504D02*
X67499342Y-100437218D01*
X67499342Y-100437218D02*
X67570771Y-100508647D01*
X67570771Y-100508647D02*
X67606485Y-100580075D01*
X67606485Y-100580075D02*
X67642199Y-100722932D01*
X67642199Y-100722932D02*
X67642199Y-100830075D01*
X67642199Y-100830075D02*
X67606485Y-100972932D01*
X67606485Y-100972932D02*
X67570771Y-101044361D01*
X67570771Y-101044361D02*
X67499342Y-101115790D01*
X67499342Y-101115790D02*
X67392199Y-101151504D01*
X67392199Y-101151504D02*
X67213628Y-101151504D01*
X67892199Y-100401504D02*
X68356485Y-100401504D01*
X68356485Y-100401504D02*
X68106485Y-100687218D01*
X68106485Y-100687218D02*
X68213628Y-100687218D01*
X68213628Y-100687218D02*
X68285057Y-100722932D01*
X68285057Y-100722932D02*
X68320771Y-100758647D01*
X68320771Y-100758647D02*
X68356485Y-100830075D01*
X68356485Y-100830075D02*
X68356485Y-101008647D01*
X68356485Y-101008647D02*
X68320771Y-101080075D01*
X68320771Y-101080075D02*
X68285057Y-101115790D01*
X68285057Y-101115790D02*
X68213628Y-101151504D01*
X68213628Y-101151504D02*
X67999342Y-101151504D01*
X67999342Y-101151504D02*
X67927914Y-101115790D01*
X67927914Y-101115790D02*
X67892199Y-101080075D01*
X96816095Y-54264515D02*
X97173238Y-54014515D01*
X96816095Y-53835944D02*
X97566095Y-53835944D01*
X97566095Y-53835944D02*
X97566095Y-54121658D01*
X97566095Y-54121658D02*
X97530381Y-54193087D01*
X97530381Y-54193087D02*
X97494667Y-54228801D01*
X97494667Y-54228801D02*
X97423238Y-54264515D01*
X97423238Y-54264515D02*
X97316095Y-54264515D01*
X97316095Y-54264515D02*
X97244667Y-54228801D01*
X97244667Y-54228801D02*
X97208952Y-54193087D01*
X97208952Y-54193087D02*
X97173238Y-54121658D01*
X97173238Y-54121658D02*
X97173238Y-53835944D01*
X96851810Y-54550230D02*
X96816095Y-54657373D01*
X96816095Y-54657373D02*
X96816095Y-54835944D01*
X96816095Y-54835944D02*
X96851810Y-54907373D01*
X96851810Y-54907373D02*
X96887524Y-54943087D01*
X96887524Y-54943087D02*
X96958952Y-54978801D01*
X96958952Y-54978801D02*
X97030381Y-54978801D01*
X97030381Y-54978801D02*
X97101810Y-54943087D01*
X97101810Y-54943087D02*
X97137524Y-54907373D01*
X97137524Y-54907373D02*
X97173238Y-54835944D01*
X97173238Y-54835944D02*
X97208952Y-54693087D01*
X97208952Y-54693087D02*
X97244667Y-54621658D01*
X97244667Y-54621658D02*
X97280381Y-54585944D01*
X97280381Y-54585944D02*
X97351810Y-54550230D01*
X97351810Y-54550230D02*
X97423238Y-54550230D01*
X97423238Y-54550230D02*
X97494667Y-54585944D01*
X97494667Y-54585944D02*
X97530381Y-54621658D01*
X97530381Y-54621658D02*
X97566095Y-54693087D01*
X97566095Y-54693087D02*
X97566095Y-54871658D01*
X97566095Y-54871658D02*
X97530381Y-54978801D01*
X97566095Y-55193087D02*
X97566095Y-55621659D01*
X96816095Y-55407373D02*
X97566095Y-55407373D01*
X130699695Y-54239115D02*
X131056838Y-53989115D01*
X130699695Y-53810544D02*
X131449695Y-53810544D01*
X131449695Y-53810544D02*
X131449695Y-54096258D01*
X131449695Y-54096258D02*
X131413981Y-54167687D01*
X131413981Y-54167687D02*
X131378267Y-54203401D01*
X131378267Y-54203401D02*
X131306838Y-54239115D01*
X131306838Y-54239115D02*
X131199695Y-54239115D01*
X131199695Y-54239115D02*
X131128267Y-54203401D01*
X131128267Y-54203401D02*
X131092552Y-54167687D01*
X131092552Y-54167687D02*
X131056838Y-54096258D01*
X131056838Y-54096258D02*
X131056838Y-53810544D01*
X130735410Y-54524830D02*
X130699695Y-54631973D01*
X130699695Y-54631973D02*
X130699695Y-54810544D01*
X130699695Y-54810544D02*
X130735410Y-54881973D01*
X130735410Y-54881973D02*
X130771124Y-54917687D01*
X130771124Y-54917687D02*
X130842552Y-54953401D01*
X130842552Y-54953401D02*
X130913981Y-54953401D01*
X130913981Y-54953401D02*
X130985410Y-54917687D01*
X130985410Y-54917687D02*
X131021124Y-54881973D01*
X131021124Y-54881973D02*
X131056838Y-54810544D01*
X131056838Y-54810544D02*
X131092552Y-54667687D01*
X131092552Y-54667687D02*
X131128267Y-54596258D01*
X131128267Y-54596258D02*
X131163981Y-54560544D01*
X131163981Y-54560544D02*
X131235410Y-54524830D01*
X131235410Y-54524830D02*
X131306838Y-54524830D01*
X131306838Y-54524830D02*
X131378267Y-54560544D01*
X131378267Y-54560544D02*
X131413981Y-54596258D01*
X131413981Y-54596258D02*
X131449695Y-54667687D01*
X131449695Y-54667687D02*
X131449695Y-54846258D01*
X131449695Y-54846258D02*
X131413981Y-54953401D01*
X131449695Y-55167687D02*
X131449695Y-55596259D01*
X130699695Y-55381973D02*
X131449695Y-55381973D01*
X62184428Y-93277504D02*
X62184428Y-92527504D01*
X62184428Y-92527504D02*
X62362999Y-92527504D01*
X62362999Y-92527504D02*
X62470142Y-92563218D01*
X62470142Y-92563218D02*
X62541571Y-92634647D01*
X62541571Y-92634647D02*
X62577285Y-92706075D01*
X62577285Y-92706075D02*
X62612999Y-92848932D01*
X62612999Y-92848932D02*
X62612999Y-92956075D01*
X62612999Y-92956075D02*
X62577285Y-93098932D01*
X62577285Y-93098932D02*
X62541571Y-93170361D01*
X62541571Y-93170361D02*
X62470142Y-93241790D01*
X62470142Y-93241790D02*
X62362999Y-93277504D01*
X62362999Y-93277504D02*
X62184428Y-93277504D01*
X63327285Y-93277504D02*
X62898714Y-93277504D01*
X63112999Y-93277504D02*
X63112999Y-92527504D01*
X63112999Y-92527504D02*
X63041571Y-92634647D01*
X63041571Y-92634647D02*
X62970142Y-92706075D01*
X62970142Y-92706075D02*
X62898714Y-92741790D01*
D12*
X73366371Y-90525157D02*
X73366371Y-89625157D01*
X73794942Y-90525157D02*
X73794942Y-89625157D01*
X73794942Y-89625157D02*
X74309228Y-90525157D01*
X74309228Y-90525157D02*
X74309228Y-89625157D01*
D11*
X125162495Y-53823744D02*
X125912495Y-53823744D01*
X125162495Y-54252315D02*
X125591067Y-53930887D01*
X125912495Y-54252315D02*
X125483924Y-53823744D01*
D12*
X110177054Y-64102314D02*
X110558006Y-63816600D01*
X110558006Y-63816600D02*
X110938958Y-64102314D01*
D11*
X119791095Y-53716601D02*
X119041095Y-53966601D01*
X119041095Y-53966601D02*
X119791095Y-54216601D01*
X119076810Y-54430887D02*
X119041095Y-54538030D01*
X119041095Y-54538030D02*
X119041095Y-54716601D01*
X119041095Y-54716601D02*
X119076810Y-54788030D01*
X119076810Y-54788030D02*
X119112524Y-54823744D01*
X119112524Y-54823744D02*
X119183952Y-54859458D01*
X119183952Y-54859458D02*
X119255381Y-54859458D01*
X119255381Y-54859458D02*
X119326810Y-54823744D01*
X119326810Y-54823744D02*
X119362524Y-54788030D01*
X119362524Y-54788030D02*
X119398238Y-54716601D01*
X119398238Y-54716601D02*
X119433952Y-54573744D01*
X119433952Y-54573744D02*
X119469667Y-54502315D01*
X119469667Y-54502315D02*
X119505381Y-54466601D01*
X119505381Y-54466601D02*
X119576810Y-54430887D01*
X119576810Y-54430887D02*
X119648238Y-54430887D01*
X119648238Y-54430887D02*
X119719667Y-54466601D01*
X119719667Y-54466601D02*
X119755381Y-54502315D01*
X119755381Y-54502315D02*
X119791095Y-54573744D01*
X119791095Y-54573744D02*
X119791095Y-54752315D01*
X119791095Y-54752315D02*
X119755381Y-54859458D01*
X119041095Y-55180887D02*
X119791095Y-55180887D01*
X119791095Y-55180887D02*
X119791095Y-55466601D01*
X119791095Y-55466601D02*
X119755381Y-55538030D01*
X119755381Y-55538030D02*
X119719667Y-55573744D01*
X119719667Y-55573744D02*
X119648238Y-55609458D01*
X119648238Y-55609458D02*
X119541095Y-55609458D01*
X119541095Y-55609458D02*
X119469667Y-55573744D01*
X119469667Y-55573744D02*
X119433952Y-55538030D01*
X119433952Y-55538030D02*
X119398238Y-55466601D01*
X119398238Y-55466601D02*
X119398238Y-55180887D01*
X106950695Y-53835944D02*
X107700695Y-53835944D01*
X106950695Y-54264515D02*
X107379267Y-53943087D01*
X107700695Y-54264515D02*
X107272124Y-53835944D01*
X121823095Y-53716601D02*
X121073095Y-53966601D01*
X121073095Y-53966601D02*
X121823095Y-54216601D01*
X121108810Y-54430887D02*
X121073095Y-54538030D01*
X121073095Y-54538030D02*
X121073095Y-54716601D01*
X121073095Y-54716601D02*
X121108810Y-54788030D01*
X121108810Y-54788030D02*
X121144524Y-54823744D01*
X121144524Y-54823744D02*
X121215952Y-54859458D01*
X121215952Y-54859458D02*
X121287381Y-54859458D01*
X121287381Y-54859458D02*
X121358810Y-54823744D01*
X121358810Y-54823744D02*
X121394524Y-54788030D01*
X121394524Y-54788030D02*
X121430238Y-54716601D01*
X121430238Y-54716601D02*
X121465952Y-54573744D01*
X121465952Y-54573744D02*
X121501667Y-54502315D01*
X121501667Y-54502315D02*
X121537381Y-54466601D01*
X121537381Y-54466601D02*
X121608810Y-54430887D01*
X121608810Y-54430887D02*
X121680238Y-54430887D01*
X121680238Y-54430887D02*
X121751667Y-54466601D01*
X121751667Y-54466601D02*
X121787381Y-54502315D01*
X121787381Y-54502315D02*
X121823095Y-54573744D01*
X121823095Y-54573744D02*
X121823095Y-54752315D01*
X121823095Y-54752315D02*
X121787381Y-54859458D01*
X121073095Y-55180887D02*
X121823095Y-55180887D01*
X121823095Y-55180887D02*
X121073095Y-55609458D01*
X121073095Y-55609458D02*
X121823095Y-55609458D01*
X68258504Y-74055284D02*
X67901361Y-74305284D01*
X68258504Y-74483855D02*
X67508504Y-74483855D01*
X67508504Y-74483855D02*
X67508504Y-74198141D01*
X67508504Y-74198141D02*
X67544218Y-74126712D01*
X67544218Y-74126712D02*
X67579932Y-74090998D01*
X67579932Y-74090998D02*
X67651361Y-74055284D01*
X67651361Y-74055284D02*
X67758504Y-74055284D01*
X67758504Y-74055284D02*
X67829932Y-74090998D01*
X67829932Y-74090998D02*
X67865647Y-74126712D01*
X67865647Y-74126712D02*
X67901361Y-74198141D01*
X67901361Y-74198141D02*
X67901361Y-74483855D01*
X68222790Y-73769569D02*
X68258504Y-73662427D01*
X68258504Y-73662427D02*
X68258504Y-73483855D01*
X68258504Y-73483855D02*
X68222790Y-73412427D01*
X68222790Y-73412427D02*
X68187075Y-73376712D01*
X68187075Y-73376712D02*
X68115647Y-73340998D01*
X68115647Y-73340998D02*
X68044218Y-73340998D01*
X68044218Y-73340998D02*
X67972790Y-73376712D01*
X67972790Y-73376712D02*
X67937075Y-73412427D01*
X67937075Y-73412427D02*
X67901361Y-73483855D01*
X67901361Y-73483855D02*
X67865647Y-73626712D01*
X67865647Y-73626712D02*
X67829932Y-73698141D01*
X67829932Y-73698141D02*
X67794218Y-73733855D01*
X67794218Y-73733855D02*
X67722790Y-73769569D01*
X67722790Y-73769569D02*
X67651361Y-73769569D01*
X67651361Y-73769569D02*
X67579932Y-73733855D01*
X67579932Y-73733855D02*
X67544218Y-73698141D01*
X67544218Y-73698141D02*
X67508504Y-73626712D01*
X67508504Y-73626712D02*
X67508504Y-73448141D01*
X67508504Y-73448141D02*
X67544218Y-73340998D01*
X67508504Y-73126712D02*
X67508504Y-72698141D01*
X68258504Y-72912426D02*
X67508504Y-72912426D01*
X137213952Y-54060544D02*
X137178238Y-54167687D01*
X137178238Y-54167687D02*
X137142524Y-54203401D01*
X137142524Y-54203401D02*
X137071095Y-54239115D01*
X137071095Y-54239115D02*
X136963952Y-54239115D01*
X136963952Y-54239115D02*
X136892524Y-54203401D01*
X136892524Y-54203401D02*
X136856810Y-54167687D01*
X136856810Y-54167687D02*
X136821095Y-54096258D01*
X136821095Y-54096258D02*
X136821095Y-53810544D01*
X136821095Y-53810544D02*
X137571095Y-53810544D01*
X137571095Y-53810544D02*
X137571095Y-54060544D01*
X137571095Y-54060544D02*
X137535381Y-54131973D01*
X137535381Y-54131973D02*
X137499667Y-54167687D01*
X137499667Y-54167687D02*
X137428238Y-54203401D01*
X137428238Y-54203401D02*
X137356810Y-54203401D01*
X137356810Y-54203401D02*
X137285381Y-54167687D01*
X137285381Y-54167687D02*
X137249667Y-54131973D01*
X137249667Y-54131973D02*
X137213952Y-54060544D01*
X137213952Y-54060544D02*
X137213952Y-53810544D01*
X137035381Y-54524830D02*
X137035381Y-54881973D01*
X136821095Y-54453401D02*
X137571095Y-54703401D01*
X137571095Y-54703401D02*
X136821095Y-54953401D01*
X136892524Y-55631972D02*
X136856810Y-55596258D01*
X136856810Y-55596258D02*
X136821095Y-55489115D01*
X136821095Y-55489115D02*
X136821095Y-55417687D01*
X136821095Y-55417687D02*
X136856810Y-55310544D01*
X136856810Y-55310544D02*
X136928238Y-55239115D01*
X136928238Y-55239115D02*
X136999667Y-55203401D01*
X136999667Y-55203401D02*
X137142524Y-55167687D01*
X137142524Y-55167687D02*
X137249667Y-55167687D01*
X137249667Y-55167687D02*
X137392524Y-55203401D01*
X137392524Y-55203401D02*
X137463952Y-55239115D01*
X137463952Y-55239115D02*
X137535381Y-55310544D01*
X137535381Y-55310544D02*
X137571095Y-55417687D01*
X137571095Y-55417687D02*
X137571095Y-55489115D01*
X137571095Y-55489115D02*
X137535381Y-55596258D01*
X137535381Y-55596258D02*
X137499667Y-55631972D01*
X136821095Y-55953401D02*
X137571095Y-55953401D01*
X136821095Y-56381972D02*
X137249667Y-56060544D01*
X137571095Y-56381972D02*
X137142524Y-55953401D01*
X74892201Y-83050418D02*
X74820773Y-83014704D01*
X74820773Y-83014704D02*
X74713630Y-83014704D01*
X74713630Y-83014704D02*
X74606487Y-83050418D01*
X74606487Y-83050418D02*
X74535058Y-83121847D01*
X74535058Y-83121847D02*
X74499344Y-83193275D01*
X74499344Y-83193275D02*
X74463630Y-83336132D01*
X74463630Y-83336132D02*
X74463630Y-83443275D01*
X74463630Y-83443275D02*
X74499344Y-83586132D01*
X74499344Y-83586132D02*
X74535058Y-83657561D01*
X74535058Y-83657561D02*
X74606487Y-83728990D01*
X74606487Y-83728990D02*
X74713630Y-83764704D01*
X74713630Y-83764704D02*
X74785058Y-83764704D01*
X74785058Y-83764704D02*
X74892201Y-83728990D01*
X74892201Y-83728990D02*
X74927915Y-83693275D01*
X74927915Y-83693275D02*
X74927915Y-83443275D01*
X74927915Y-83443275D02*
X74785058Y-83443275D01*
X75249344Y-83764704D02*
X75249344Y-83014704D01*
X75249344Y-83014704D02*
X75677915Y-83764704D01*
X75677915Y-83764704D02*
X75677915Y-83014704D01*
X76035058Y-83764704D02*
X76035058Y-83014704D01*
X76035058Y-83014704D02*
X76213629Y-83014704D01*
X76213629Y-83014704D02*
X76320772Y-83050418D01*
X76320772Y-83050418D02*
X76392201Y-83121847D01*
X76392201Y-83121847D02*
X76427915Y-83193275D01*
X76427915Y-83193275D02*
X76463629Y-83336132D01*
X76463629Y-83336132D02*
X76463629Y-83443275D01*
X76463629Y-83443275D02*
X76427915Y-83586132D01*
X76427915Y-83586132D02*
X76392201Y-83657561D01*
X76392201Y-83657561D02*
X76320772Y-83728990D01*
X76320772Y-83728990D02*
X76213629Y-83764704D01*
X76213629Y-83764704D02*
X76035058Y-83764704D01*
X98883810Y-53800230D02*
X98848095Y-53907373D01*
X98848095Y-53907373D02*
X98848095Y-54085944D01*
X98848095Y-54085944D02*
X98883810Y-54157373D01*
X98883810Y-54157373D02*
X98919524Y-54193087D01*
X98919524Y-54193087D02*
X98990952Y-54228801D01*
X98990952Y-54228801D02*
X99062381Y-54228801D01*
X99062381Y-54228801D02*
X99133810Y-54193087D01*
X99133810Y-54193087D02*
X99169524Y-54157373D01*
X99169524Y-54157373D02*
X99205238Y-54085944D01*
X99205238Y-54085944D02*
X99240952Y-53943087D01*
X99240952Y-53943087D02*
X99276667Y-53871658D01*
X99276667Y-53871658D02*
X99312381Y-53835944D01*
X99312381Y-53835944D02*
X99383810Y-53800230D01*
X99383810Y-53800230D02*
X99455238Y-53800230D01*
X99455238Y-53800230D02*
X99526667Y-53835944D01*
X99526667Y-53835944D02*
X99562381Y-53871658D01*
X99562381Y-53871658D02*
X99598095Y-53943087D01*
X99598095Y-53943087D02*
X99598095Y-54121658D01*
X99598095Y-54121658D02*
X99562381Y-54228801D01*
X99205238Y-54693087D02*
X98848095Y-54693087D01*
X99598095Y-54443087D02*
X99205238Y-54693087D01*
X99205238Y-54693087D02*
X99598095Y-54943087D01*
X98848095Y-55193087D02*
X99598095Y-55193087D01*
X99598095Y-55193087D02*
X98848095Y-55621658D01*
X98848095Y-55621658D02*
X99598095Y-55621658D01*
X98919524Y-56407372D02*
X98883810Y-56371658D01*
X98883810Y-56371658D02*
X98848095Y-56264515D01*
X98848095Y-56264515D02*
X98848095Y-56193087D01*
X98848095Y-56193087D02*
X98883810Y-56085944D01*
X98883810Y-56085944D02*
X98955238Y-56014515D01*
X98955238Y-56014515D02*
X99026667Y-55978801D01*
X99026667Y-55978801D02*
X99169524Y-55943087D01*
X99169524Y-55943087D02*
X99276667Y-55943087D01*
X99276667Y-55943087D02*
X99419524Y-55978801D01*
X99419524Y-55978801D02*
X99490952Y-56014515D01*
X99490952Y-56014515D02*
X99562381Y-56085944D01*
X99562381Y-56085944D02*
X99598095Y-56193087D01*
X99598095Y-56193087D02*
X99598095Y-56264515D01*
X99598095Y-56264515D02*
X99562381Y-56371658D01*
X99562381Y-56371658D02*
X99526667Y-56407372D01*
X72715504Y-79613112D02*
X72715504Y-79970255D01*
X72715504Y-79970255D02*
X73072647Y-80005969D01*
X73072647Y-80005969D02*
X73036932Y-79970255D01*
X73036932Y-79970255D02*
X73001218Y-79898827D01*
X73001218Y-79898827D02*
X73001218Y-79720255D01*
X73001218Y-79720255D02*
X73036932Y-79648827D01*
X73036932Y-79648827D02*
X73072647Y-79613112D01*
X73072647Y-79613112D02*
X73144075Y-79577398D01*
X73144075Y-79577398D02*
X73322647Y-79577398D01*
X73322647Y-79577398D02*
X73394075Y-79613112D01*
X73394075Y-79613112D02*
X73429790Y-79648827D01*
X73429790Y-79648827D02*
X73465504Y-79720255D01*
X73465504Y-79720255D02*
X73465504Y-79898827D01*
X73465504Y-79898827D02*
X73429790Y-79970255D01*
X73429790Y-79970255D02*
X73394075Y-80005969D01*
X72715504Y-79363112D02*
X73465504Y-79113112D01*
X73465504Y-79113112D02*
X72715504Y-78863112D01*
X72715504Y-78470255D02*
X72715504Y-78398826D01*
X72715504Y-78398826D02*
X72751218Y-78327398D01*
X72751218Y-78327398D02*
X72786932Y-78291684D01*
X72786932Y-78291684D02*
X72858361Y-78255969D01*
X72858361Y-78255969D02*
X73001218Y-78220255D01*
X73001218Y-78220255D02*
X73179790Y-78220255D01*
X73179790Y-78220255D02*
X73322647Y-78255969D01*
X73322647Y-78255969D02*
X73394075Y-78291684D01*
X73394075Y-78291684D02*
X73429790Y-78327398D01*
X73429790Y-78327398D02*
X73465504Y-78398826D01*
X73465504Y-78398826D02*
X73465504Y-78470255D01*
X73465504Y-78470255D02*
X73429790Y-78541684D01*
X73429790Y-78541684D02*
X73394075Y-78577398D01*
X73394075Y-78577398D02*
X73322647Y-78613112D01*
X73322647Y-78613112D02*
X73179790Y-78648826D01*
X73179790Y-78648826D02*
X73001218Y-78648826D01*
X73001218Y-78648826D02*
X72858361Y-78613112D01*
X72858361Y-78613112D02*
X72786932Y-78577398D01*
X72786932Y-78577398D02*
X72751218Y-78541684D01*
X72751218Y-78541684D02*
X72715504Y-78470255D01*
X77351208Y-70295966D02*
X77452223Y-70245459D01*
X77452223Y-70245459D02*
X77578492Y-70119190D01*
X77578492Y-70119190D02*
X77603746Y-70043428D01*
X77603746Y-70043428D02*
X77603746Y-69992921D01*
X77603746Y-69992921D02*
X77578492Y-69917159D01*
X77578492Y-69917159D02*
X77527985Y-69866652D01*
X77527985Y-69866652D02*
X77452223Y-69841398D01*
X77452223Y-69841398D02*
X77401716Y-69841398D01*
X77401716Y-69841398D02*
X77325954Y-69866652D01*
X77325954Y-69866652D02*
X77199685Y-69942413D01*
X77199685Y-69942413D02*
X77123924Y-69967667D01*
X77123924Y-69967667D02*
X77073416Y-69967667D01*
X77073416Y-69967667D02*
X76997655Y-69942413D01*
X76997655Y-69942413D02*
X76947147Y-69891905D01*
X76947147Y-69891905D02*
X76921893Y-69816144D01*
X76921893Y-69816144D02*
X76921893Y-69765636D01*
X76921893Y-69765636D02*
X76947147Y-69689875D01*
X76947147Y-69689875D02*
X77073416Y-69563606D01*
X77073416Y-69563606D02*
X77174431Y-69513098D01*
X77856284Y-69790890D02*
X77957300Y-69740382D01*
X77957300Y-69740382D02*
X78083569Y-69614113D01*
X78083569Y-69614113D02*
X78108823Y-69538352D01*
X78108823Y-69538352D02*
X78108823Y-69487844D01*
X78108823Y-69487844D02*
X78083569Y-69412083D01*
X78083569Y-69412083D02*
X78033061Y-69361575D01*
X78033061Y-69361575D02*
X77957300Y-69336321D01*
X77957300Y-69336321D02*
X77906792Y-69336321D01*
X77906792Y-69336321D02*
X77831031Y-69361575D01*
X77831031Y-69361575D02*
X77704762Y-69437337D01*
X77704762Y-69437337D02*
X77629000Y-69462590D01*
X77629000Y-69462590D02*
X77578493Y-69462590D01*
X77578493Y-69462590D02*
X77502731Y-69437337D01*
X77502731Y-69437337D02*
X77452223Y-69386829D01*
X77452223Y-69386829D02*
X77426970Y-69311067D01*
X77426970Y-69311067D02*
X77426970Y-69260560D01*
X77426970Y-69260560D02*
X77452223Y-69184798D01*
X77452223Y-69184798D02*
X77578493Y-69058529D01*
X77578493Y-69058529D02*
X77679508Y-69008022D01*
X78411869Y-69285813D02*
X77881538Y-68755483D01*
X77881538Y-68755483D02*
X78007808Y-68629214D01*
X78007808Y-68629214D02*
X78108823Y-68578707D01*
X78108823Y-68578707D02*
X78209838Y-68578707D01*
X78209838Y-68578707D02*
X78285600Y-68603961D01*
X78285600Y-68603961D02*
X78411869Y-68679722D01*
X78411869Y-68679722D02*
X78487630Y-68755483D01*
X78487630Y-68755483D02*
X78563391Y-68881752D01*
X78563391Y-68881752D02*
X78588645Y-68957514D01*
X78588645Y-68957514D02*
X78588645Y-69058529D01*
X78588645Y-69058529D02*
X78538138Y-69159544D01*
X78538138Y-69159544D02*
X78411869Y-69285813D01*
X78437122Y-68300915D02*
X78437122Y-68250407D01*
X78437122Y-68250407D02*
X78462376Y-68174646D01*
X78462376Y-68174646D02*
X78588645Y-68048377D01*
X78588645Y-68048377D02*
X78664407Y-68023123D01*
X78664407Y-68023123D02*
X78714914Y-68023123D01*
X78714914Y-68023123D02*
X78790676Y-68048377D01*
X78790676Y-68048377D02*
X78841183Y-68098884D01*
X78841183Y-68098884D02*
X78891691Y-68199899D01*
X78891691Y-68199899D02*
X78891691Y-68805991D01*
X78891691Y-68805991D02*
X79219991Y-68477691D01*
X79219991Y-67871600D02*
X79144229Y-67896854D01*
X79144229Y-67896854D02*
X79093722Y-67896854D01*
X79093722Y-67896854D02*
X79017960Y-67871600D01*
X79017960Y-67871600D02*
X78992706Y-67846346D01*
X78992706Y-67846346D02*
X78967453Y-67770584D01*
X78967453Y-67770584D02*
X78967453Y-67720077D01*
X78967453Y-67720077D02*
X78992706Y-67644315D01*
X78992706Y-67644315D02*
X79093722Y-67543300D01*
X79093722Y-67543300D02*
X79169483Y-67518046D01*
X79169483Y-67518046D02*
X79219991Y-67518046D01*
X79219991Y-67518046D02*
X79295752Y-67543300D01*
X79295752Y-67543300D02*
X79321006Y-67568554D01*
X79321006Y-67568554D02*
X79346260Y-67644315D01*
X79346260Y-67644315D02*
X79346260Y-67694823D01*
X79346260Y-67694823D02*
X79321006Y-67770584D01*
X79321006Y-67770584D02*
X79219991Y-67871600D01*
X79219991Y-67871600D02*
X79194737Y-67947361D01*
X79194737Y-67947361D02*
X79194737Y-67997869D01*
X79194737Y-67997869D02*
X79219991Y-68073630D01*
X79219991Y-68073630D02*
X79321006Y-68174645D01*
X79321006Y-68174645D02*
X79396768Y-68199899D01*
X79396768Y-68199899D02*
X79447275Y-68199899D01*
X79447275Y-68199899D02*
X79523037Y-68174645D01*
X79523037Y-68174645D02*
X79624052Y-68073630D01*
X79624052Y-68073630D02*
X79649306Y-67997869D01*
X79649306Y-67997869D02*
X79649306Y-67947361D01*
X79649306Y-67947361D02*
X79624052Y-67871600D01*
X79624052Y-67871600D02*
X79523037Y-67770584D01*
X79523037Y-67770584D02*
X79447275Y-67745331D01*
X79447275Y-67745331D02*
X79396768Y-67745331D01*
X79396768Y-67745331D02*
X79321006Y-67770584D01*
X79447275Y-67290762D02*
X79447275Y-67240254D01*
X79447275Y-67240254D02*
X79472529Y-67164493D01*
X79472529Y-67164493D02*
X79598798Y-67038224D01*
X79598798Y-67038224D02*
X79674560Y-67012970D01*
X79674560Y-67012970D02*
X79725067Y-67012970D01*
X79725067Y-67012970D02*
X79800829Y-67038224D01*
X79800829Y-67038224D02*
X79851336Y-67088731D01*
X79851336Y-67088731D02*
X79901844Y-67189747D01*
X79901844Y-67189747D02*
X79901844Y-67795838D01*
X79901844Y-67795838D02*
X80230144Y-67467538D01*
X80230144Y-66861447D02*
X80154382Y-66886701D01*
X80154382Y-66886701D02*
X80103875Y-66886701D01*
X80103875Y-66886701D02*
X80028113Y-66861447D01*
X80028113Y-66861447D02*
X80002859Y-66836193D01*
X80002859Y-66836193D02*
X79977606Y-66760432D01*
X79977606Y-66760432D02*
X79977606Y-66709924D01*
X79977606Y-66709924D02*
X80002859Y-66634162D01*
X80002859Y-66634162D02*
X80103875Y-66533147D01*
X80103875Y-66533147D02*
X80179636Y-66507893D01*
X80179636Y-66507893D02*
X80230144Y-66507893D01*
X80230144Y-66507893D02*
X80305905Y-66533147D01*
X80305905Y-66533147D02*
X80331159Y-66558401D01*
X80331159Y-66558401D02*
X80356413Y-66634162D01*
X80356413Y-66634162D02*
X80356413Y-66684670D01*
X80356413Y-66684670D02*
X80331159Y-66760432D01*
X80331159Y-66760432D02*
X80230144Y-66861447D01*
X80230144Y-66861447D02*
X80204890Y-66937208D01*
X80204890Y-66937208D02*
X80204890Y-66987716D01*
X80204890Y-66987716D02*
X80230144Y-67063477D01*
X80230144Y-67063477D02*
X80331159Y-67164493D01*
X80331159Y-67164493D02*
X80406920Y-67189746D01*
X80406920Y-67189746D02*
X80457428Y-67189746D01*
X80457428Y-67189746D02*
X80533190Y-67164493D01*
X80533190Y-67164493D02*
X80634205Y-67063477D01*
X80634205Y-67063477D02*
X80659459Y-66987716D01*
X80659459Y-66987716D02*
X80659459Y-66937208D01*
X80659459Y-66937208D02*
X80634205Y-66861447D01*
X80634205Y-66861447D02*
X80533190Y-66760432D01*
X80533190Y-66760432D02*
X80457428Y-66735178D01*
X80457428Y-66735178D02*
X80406920Y-66735178D01*
X80406920Y-66735178D02*
X80331159Y-66760432D01*
X109758095Y-53764515D02*
X109758095Y-54228801D01*
X109758095Y-54228801D02*
X109472381Y-53978801D01*
X109472381Y-53978801D02*
X109472381Y-54085944D01*
X109472381Y-54085944D02*
X109436667Y-54157373D01*
X109436667Y-54157373D02*
X109400952Y-54193087D01*
X109400952Y-54193087D02*
X109329524Y-54228801D01*
X109329524Y-54228801D02*
X109150952Y-54228801D01*
X109150952Y-54228801D02*
X109079524Y-54193087D01*
X109079524Y-54193087D02*
X109043810Y-54157373D01*
X109043810Y-54157373D02*
X109008095Y-54085944D01*
X109008095Y-54085944D02*
X109008095Y-53871658D01*
X109008095Y-53871658D02*
X109043810Y-53800230D01*
X109043810Y-53800230D02*
X109079524Y-53764515D01*
X109758095Y-54443087D02*
X109008095Y-54693087D01*
X109008095Y-54693087D02*
X109758095Y-54943087D01*
X109758095Y-55335944D02*
X109758095Y-55407373D01*
X109758095Y-55407373D02*
X109722381Y-55478801D01*
X109722381Y-55478801D02*
X109686667Y-55514516D01*
X109686667Y-55514516D02*
X109615238Y-55550230D01*
X109615238Y-55550230D02*
X109472381Y-55585944D01*
X109472381Y-55585944D02*
X109293810Y-55585944D01*
X109293810Y-55585944D02*
X109150952Y-55550230D01*
X109150952Y-55550230D02*
X109079524Y-55514516D01*
X109079524Y-55514516D02*
X109043810Y-55478801D01*
X109043810Y-55478801D02*
X109008095Y-55407373D01*
X109008095Y-55407373D02*
X109008095Y-55335944D01*
X109008095Y-55335944D02*
X109043810Y-55264516D01*
X109043810Y-55264516D02*
X109079524Y-55228801D01*
X109079524Y-55228801D02*
X109150952Y-55193087D01*
X109150952Y-55193087D02*
X109293810Y-55157373D01*
X109293810Y-55157373D02*
X109472381Y-55157373D01*
X109472381Y-55157373D02*
X109615238Y-55193087D01*
X109615238Y-55193087D02*
X109686667Y-55228801D01*
X109686667Y-55228801D02*
X109722381Y-55264516D01*
X109722381Y-55264516D02*
X109758095Y-55335944D01*
X67191704Y-79577398D02*
X67191704Y-80005969D01*
X67191704Y-79791684D02*
X66441704Y-79791684D01*
X66441704Y-79791684D02*
X66548847Y-79863112D01*
X66548847Y-79863112D02*
X66620275Y-79934541D01*
X66620275Y-79934541D02*
X66655990Y-80005969D01*
X66441704Y-79363112D02*
X67191704Y-79113112D01*
X67191704Y-79113112D02*
X66441704Y-78863112D01*
X66513132Y-78648826D02*
X66477418Y-78613112D01*
X66477418Y-78613112D02*
X66441704Y-78541684D01*
X66441704Y-78541684D02*
X66441704Y-78363112D01*
X66441704Y-78363112D02*
X66477418Y-78291684D01*
X66477418Y-78291684D02*
X66513132Y-78255969D01*
X66513132Y-78255969D02*
X66584561Y-78220255D01*
X66584561Y-78220255D02*
X66655990Y-78220255D01*
X66655990Y-78220255D02*
X66763132Y-78255969D01*
X66763132Y-78255969D02*
X67191704Y-78684541D01*
X67191704Y-78684541D02*
X67191704Y-78220255D01*
X80709275Y-74055284D02*
X80744990Y-74090998D01*
X80744990Y-74090998D02*
X80780704Y-74198141D01*
X80780704Y-74198141D02*
X80780704Y-74269569D01*
X80780704Y-74269569D02*
X80744990Y-74376712D01*
X80744990Y-74376712D02*
X80673561Y-74448141D01*
X80673561Y-74448141D02*
X80602132Y-74483855D01*
X80602132Y-74483855D02*
X80459275Y-74519569D01*
X80459275Y-74519569D02*
X80352132Y-74519569D01*
X80352132Y-74519569D02*
X80209275Y-74483855D01*
X80209275Y-74483855D02*
X80137847Y-74448141D01*
X80137847Y-74448141D02*
X80066418Y-74376712D01*
X80066418Y-74376712D02*
X80030704Y-74269569D01*
X80030704Y-74269569D02*
X80030704Y-74198141D01*
X80030704Y-74198141D02*
X80066418Y-74090998D01*
X80066418Y-74090998D02*
X80102132Y-74055284D01*
X80744990Y-73769569D02*
X80780704Y-73662427D01*
X80780704Y-73662427D02*
X80780704Y-73483855D01*
X80780704Y-73483855D02*
X80744990Y-73412427D01*
X80744990Y-73412427D02*
X80709275Y-73376712D01*
X80709275Y-73376712D02*
X80637847Y-73340998D01*
X80637847Y-73340998D02*
X80566418Y-73340998D01*
X80566418Y-73340998D02*
X80494990Y-73376712D01*
X80494990Y-73376712D02*
X80459275Y-73412427D01*
X80459275Y-73412427D02*
X80423561Y-73483855D01*
X80423561Y-73483855D02*
X80387847Y-73626712D01*
X80387847Y-73626712D02*
X80352132Y-73698141D01*
X80352132Y-73698141D02*
X80316418Y-73733855D01*
X80316418Y-73733855D02*
X80244990Y-73769569D01*
X80244990Y-73769569D02*
X80173561Y-73769569D01*
X80173561Y-73769569D02*
X80102132Y-73733855D01*
X80102132Y-73733855D02*
X80066418Y-73698141D01*
X80066418Y-73698141D02*
X80030704Y-73626712D01*
X80030704Y-73626712D02*
X80030704Y-73448141D01*
X80030704Y-73448141D02*
X80066418Y-73340998D01*
D12*
X132682314Y-62669945D02*
X132396600Y-62288993D01*
X132396600Y-62288993D02*
X132682314Y-61908041D01*
D11*
X139245952Y-54060544D02*
X139210238Y-54167687D01*
X139210238Y-54167687D02*
X139174524Y-54203401D01*
X139174524Y-54203401D02*
X139103095Y-54239115D01*
X139103095Y-54239115D02*
X138995952Y-54239115D01*
X138995952Y-54239115D02*
X138924524Y-54203401D01*
X138924524Y-54203401D02*
X138888810Y-54167687D01*
X138888810Y-54167687D02*
X138853095Y-54096258D01*
X138853095Y-54096258D02*
X138853095Y-53810544D01*
X138853095Y-53810544D02*
X139603095Y-53810544D01*
X139603095Y-53810544D02*
X139603095Y-54060544D01*
X139603095Y-54060544D02*
X139567381Y-54131973D01*
X139567381Y-54131973D02*
X139531667Y-54167687D01*
X139531667Y-54167687D02*
X139460238Y-54203401D01*
X139460238Y-54203401D02*
X139388810Y-54203401D01*
X139388810Y-54203401D02*
X139317381Y-54167687D01*
X139317381Y-54167687D02*
X139281667Y-54131973D01*
X139281667Y-54131973D02*
X139245952Y-54060544D01*
X139245952Y-54060544D02*
X139245952Y-53810544D01*
X138853095Y-54560544D02*
X139603095Y-54560544D01*
X139067381Y-54881973D02*
X139067381Y-55239116D01*
X138853095Y-54810544D02*
X139603095Y-55060544D01*
X139603095Y-55060544D02*
X138853095Y-55310544D01*
X138888810Y-55524830D02*
X138853095Y-55631973D01*
X138853095Y-55631973D02*
X138853095Y-55810544D01*
X138853095Y-55810544D02*
X138888810Y-55881973D01*
X138888810Y-55881973D02*
X138924524Y-55917687D01*
X138924524Y-55917687D02*
X138995952Y-55953401D01*
X138995952Y-55953401D02*
X139067381Y-55953401D01*
X139067381Y-55953401D02*
X139138810Y-55917687D01*
X139138810Y-55917687D02*
X139174524Y-55881973D01*
X139174524Y-55881973D02*
X139210238Y-55810544D01*
X139210238Y-55810544D02*
X139245952Y-55667687D01*
X139245952Y-55667687D02*
X139281667Y-55596258D01*
X139281667Y-55596258D02*
X139317381Y-55560544D01*
X139317381Y-55560544D02*
X139388810Y-55524830D01*
X139388810Y-55524830D02*
X139460238Y-55524830D01*
X139460238Y-55524830D02*
X139531667Y-55560544D01*
X139531667Y-55560544D02*
X139567381Y-55596258D01*
X139567381Y-55596258D02*
X139603095Y-55667687D01*
X139603095Y-55667687D02*
X139603095Y-55846258D01*
X139603095Y-55846258D02*
X139567381Y-55953401D01*
X134814495Y-53810544D02*
X135564495Y-53810544D01*
X135564495Y-53810544D02*
X135564495Y-54096258D01*
X135564495Y-54096258D02*
X135528781Y-54167687D01*
X135528781Y-54167687D02*
X135493067Y-54203401D01*
X135493067Y-54203401D02*
X135421638Y-54239115D01*
X135421638Y-54239115D02*
X135314495Y-54239115D01*
X135314495Y-54239115D02*
X135243067Y-54203401D01*
X135243067Y-54203401D02*
X135207352Y-54167687D01*
X135207352Y-54167687D02*
X135171638Y-54096258D01*
X135171638Y-54096258D02*
X135171638Y-53810544D01*
X135564495Y-54489115D02*
X134814495Y-54667687D01*
X134814495Y-54667687D02*
X135350210Y-54810544D01*
X135350210Y-54810544D02*
X134814495Y-54953401D01*
X134814495Y-54953401D02*
X135564495Y-55131973D01*
X134814495Y-55417687D02*
X135564495Y-55417687D01*
X135564495Y-55417687D02*
X135028781Y-55667687D01*
X135028781Y-55667687D02*
X135564495Y-55917687D01*
X135564495Y-55917687D02*
X134814495Y-55917687D01*
X70330990Y-74519569D02*
X70366704Y-74412427D01*
X70366704Y-74412427D02*
X70366704Y-74233855D01*
X70366704Y-74233855D02*
X70330990Y-74162427D01*
X70330990Y-74162427D02*
X70295275Y-74126712D01*
X70295275Y-74126712D02*
X70223847Y-74090998D01*
X70223847Y-74090998D02*
X70152418Y-74090998D01*
X70152418Y-74090998D02*
X70080990Y-74126712D01*
X70080990Y-74126712D02*
X70045275Y-74162427D01*
X70045275Y-74162427D02*
X70009561Y-74233855D01*
X70009561Y-74233855D02*
X69973847Y-74376712D01*
X69973847Y-74376712D02*
X69938132Y-74448141D01*
X69938132Y-74448141D02*
X69902418Y-74483855D01*
X69902418Y-74483855D02*
X69830990Y-74519569D01*
X69830990Y-74519569D02*
X69759561Y-74519569D01*
X69759561Y-74519569D02*
X69688132Y-74483855D01*
X69688132Y-74483855D02*
X69652418Y-74448141D01*
X69652418Y-74448141D02*
X69616704Y-74376712D01*
X69616704Y-74376712D02*
X69616704Y-74198141D01*
X69616704Y-74198141D02*
X69652418Y-74090998D01*
X70295275Y-73340998D02*
X70330990Y-73376712D01*
X70330990Y-73376712D02*
X70366704Y-73483855D01*
X70366704Y-73483855D02*
X70366704Y-73555283D01*
X70366704Y-73555283D02*
X70330990Y-73662426D01*
X70330990Y-73662426D02*
X70259561Y-73733855D01*
X70259561Y-73733855D02*
X70188132Y-73769569D01*
X70188132Y-73769569D02*
X70045275Y-73805283D01*
X70045275Y-73805283D02*
X69938132Y-73805283D01*
X69938132Y-73805283D02*
X69795275Y-73769569D01*
X69795275Y-73769569D02*
X69723847Y-73733855D01*
X69723847Y-73733855D02*
X69652418Y-73662426D01*
X69652418Y-73662426D02*
X69616704Y-73555283D01*
X69616704Y-73555283D02*
X69616704Y-73483855D01*
X69616704Y-73483855D02*
X69652418Y-73376712D01*
X69652418Y-73376712D02*
X69688132Y-73340998D01*
X70366704Y-73019569D02*
X69616704Y-73019569D01*
X70366704Y-72590998D02*
X69938132Y-72912426D01*
X69616704Y-72590998D02*
X70045275Y-73019569D01*
X74471190Y-74519569D02*
X74506904Y-74412427D01*
X74506904Y-74412427D02*
X74506904Y-74233855D01*
X74506904Y-74233855D02*
X74471190Y-74162427D01*
X74471190Y-74162427D02*
X74435475Y-74126712D01*
X74435475Y-74126712D02*
X74364047Y-74090998D01*
X74364047Y-74090998D02*
X74292618Y-74090998D01*
X74292618Y-74090998D02*
X74221190Y-74126712D01*
X74221190Y-74126712D02*
X74185475Y-74162427D01*
X74185475Y-74162427D02*
X74149761Y-74233855D01*
X74149761Y-74233855D02*
X74114047Y-74376712D01*
X74114047Y-74376712D02*
X74078332Y-74448141D01*
X74078332Y-74448141D02*
X74042618Y-74483855D01*
X74042618Y-74483855D02*
X73971190Y-74519569D01*
X73971190Y-74519569D02*
X73899761Y-74519569D01*
X73899761Y-74519569D02*
X73828332Y-74483855D01*
X73828332Y-74483855D02*
X73792618Y-74448141D01*
X73792618Y-74448141D02*
X73756904Y-74376712D01*
X73756904Y-74376712D02*
X73756904Y-74198141D01*
X73756904Y-74198141D02*
X73792618Y-74090998D01*
X74506904Y-73769569D02*
X73756904Y-73769569D01*
X74114047Y-73769569D02*
X74114047Y-73340998D01*
X74506904Y-73340998D02*
X73756904Y-73340998D01*
X73756904Y-72983855D02*
X74364047Y-72983855D01*
X74364047Y-72983855D02*
X74435475Y-72948141D01*
X74435475Y-72948141D02*
X74471190Y-72912427D01*
X74471190Y-72912427D02*
X74506904Y-72840998D01*
X74506904Y-72840998D02*
X74506904Y-72698141D01*
X74506904Y-72698141D02*
X74471190Y-72626712D01*
X74471190Y-72626712D02*
X74435475Y-72590998D01*
X74435475Y-72590998D02*
X74364047Y-72555284D01*
X74364047Y-72555284D02*
X73756904Y-72555284D01*
X73756904Y-72305284D02*
X73756904Y-71876713D01*
X74506904Y-72090998D02*
X73756904Y-72090998D01*
D13*
X68994400Y-99550600D02*
X69994400Y-99550600D01*
X69994400Y-99550600D02*
X69994400Y-100550600D01*
X69994400Y-100550600D02*
X68994400Y-100550600D01*
X68994400Y-100550600D02*
X68994400Y-99550600D01*
X68994400Y-101074600D02*
X69994400Y-101074600D01*
X69994400Y-101074600D02*
X69994400Y-102074600D01*
X69994400Y-102074600D02*
X68994400Y-102074600D01*
X68994400Y-102074600D02*
X68994400Y-101074600D01*
X63000000Y-98687000D02*
X64000000Y-98687000D01*
X64000000Y-98687000D02*
X64000000Y-99687000D01*
X64000000Y-99687000D02*
X63000000Y-99687000D01*
X63000000Y-99687000D02*
X63000000Y-98687000D01*
X63000000Y-97163000D02*
X64000000Y-97163000D01*
X64000000Y-97163000D02*
X64000000Y-98163000D01*
X64000000Y-98163000D02*
X63000000Y-98163000D01*
X63000000Y-98163000D02*
X63000000Y-97163000D01*
X68588000Y-95588200D02*
X69588000Y-95588200D01*
X69588000Y-95588200D02*
X69588000Y-96588200D01*
X69588000Y-96588200D02*
X68588000Y-96588200D01*
X68588000Y-96588200D02*
X68588000Y-95588200D01*
X68588000Y-94038800D02*
X69588000Y-94038800D01*
X69588000Y-94038800D02*
X69588000Y-95038800D01*
X69588000Y-95038800D02*
X68588000Y-95038800D01*
X68588000Y-95038800D02*
X68588000Y-94038800D01*
X63965200Y-93175200D02*
X64965200Y-93175200D01*
X64965200Y-93175200D02*
X64965200Y-94175200D01*
X64965200Y-94175200D02*
X63965200Y-94175200D01*
X63965200Y-94175200D02*
X63965200Y-93175200D01*
X63965200Y-91676600D02*
X64965200Y-91676600D01*
X64965200Y-91676600D02*
X64965200Y-92676600D01*
X64965200Y-92676600D02*
X63965200Y-92676600D01*
X63965200Y-92676600D02*
X63965200Y-91676600D01*
X67800600Y-90609800D02*
X68800600Y-90609800D01*
X68800600Y-90609800D02*
X68800600Y-91609800D01*
X68800600Y-91609800D02*
X67800600Y-91609800D01*
X67800600Y-91609800D02*
X67800600Y-90609800D01*
X67800600Y-89060400D02*
X68800600Y-89060400D01*
X68800600Y-89060400D02*
X68800600Y-90060400D01*
X68800600Y-90060400D02*
X67800600Y-90060400D01*
X67800600Y-90060400D02*
X67800600Y-89060400D01*
D14*
X133801000Y-72999200D02*
X134301000Y-72999200D01*
X135601000Y-72999200D02*
X136005000Y-72999200D01*
X135936000Y-72999200D02*
X136101000Y-72999200D01*
X133801000Y-61899200D02*
X134301000Y-61899200D01*
X135601000Y-61899200D02*
X136005000Y-61899200D01*
X136005000Y-61899200D02*
X136101000Y-61899200D01*
D12*
X105873000Y-64879200D02*
X105873000Y-67479200D01*
X105873000Y-67479200D02*
X106023000Y-67479200D01*
X106023000Y-64879200D02*
X105873000Y-64879200D01*
X110823000Y-64879200D02*
X110973000Y-64879200D01*
X110973000Y-64879200D02*
X110973000Y-67479200D01*
X110973000Y-67479200D02*
X110823000Y-67479200D01*
D13*
X140369200Y-62293337D02*
X140369200Y-60845863D01*
X137659200Y-62293337D02*
X137659200Y-60845863D01*
X89332000Y-75572000D02*
X89332000Y-72662000D01*
X91492000Y-75572000D02*
X89332000Y-75572000D01*
X86877000Y-72662000D02*
X86877000Y-55662000D01*
X88637000Y-72662000D02*
X91492000Y-72662000D01*
X88637000Y-72662000D02*
X88637000Y-55662000D01*
X89332000Y-72662000D02*
X86877000Y-72662000D01*
X91492000Y-72662000D02*
X91492000Y-75572000D01*
X88637000Y-55662000D02*
X91492000Y-55662000D01*
X89332000Y-55662000D02*
X86877000Y-55662000D01*
X91492000Y-55662000D02*
X91492000Y-52752000D01*
X89332000Y-52752000D02*
X89332000Y-55662000D01*
X91492000Y-52752000D02*
X89332000Y-52752000D01*
X53972000Y-72025000D02*
X56772000Y-72025000D01*
X53972000Y-74025000D02*
X53972000Y-72025000D01*
X56772000Y-72025000D02*
X56772000Y-74025000D01*
X56772000Y-74025000D02*
X53972000Y-74025000D01*
X100519000Y-51763200D02*
X101919000Y-51763200D01*
X100519000Y-53163200D02*
X100519000Y-51763200D01*
X101919000Y-51763200D02*
X101919000Y-53163200D01*
X101919000Y-53163200D02*
X100519000Y-53163200D01*
X87008580Y-84215200D02*
X86727420Y-84215200D01*
X87008580Y-83195200D02*
X86727420Y-83195200D01*
D12*
X96340000Y-81020999D02*
X96340000Y-79820999D01*
X96390000Y-79470999D02*
X96390000Y-78870999D01*
X99290000Y-79470999D02*
X96390000Y-79470999D01*
X96390000Y-78870999D02*
X99290000Y-78870999D01*
X99290000Y-78870999D02*
X99290000Y-79470999D01*
D13*
X75576200Y-75156600D02*
X76976200Y-75156600D01*
X75576200Y-76556600D02*
X75576200Y-75156600D01*
X76976200Y-75156600D02*
X76976200Y-76556600D01*
X76976200Y-76556600D02*
X75576200Y-76556600D01*
X89991500Y-80132458D02*
X89991500Y-79657942D01*
X91036500Y-80132458D02*
X91036500Y-79657942D01*
X118048300Y-62221342D02*
X118048300Y-62695858D01*
X117003300Y-62221342D02*
X117003300Y-62695858D01*
D15*
X116809200Y-73635400D02*
X119309200Y-73635400D01*
X116809200Y-76255400D02*
X119309200Y-76255400D01*
D13*
X66178200Y-80643000D02*
X67578200Y-80643000D01*
X66178200Y-82043000D02*
X66178200Y-80643000D01*
X67578200Y-80643000D02*
X67578200Y-82043000D01*
X67578200Y-82043000D02*
X66178200Y-82043000D01*
X72426600Y-80643000D02*
X73826600Y-80643000D01*
X72426600Y-82043000D02*
X72426600Y-80643000D01*
X73826600Y-80643000D02*
X73826600Y-82043000D01*
X73826600Y-82043000D02*
X72426600Y-82043000D01*
X97394620Y-75739999D02*
X97675780Y-75739999D01*
X97394620Y-76759999D02*
X97675780Y-76759999D01*
X59930420Y-81462600D02*
X60211580Y-81462600D01*
X59930420Y-82482600D02*
X60211580Y-82482600D01*
X102551000Y-51763200D02*
X103951000Y-51763200D01*
X102551000Y-53163200D02*
X102551000Y-51763200D01*
X103951000Y-51763200D02*
X103951000Y-53163200D01*
X103951000Y-53163200D02*
X102551000Y-53163200D01*
X83273020Y-77747400D02*
X83554180Y-77747400D01*
X83273020Y-78767400D02*
X83554180Y-78767400D01*
X122744000Y-51763200D02*
X124144000Y-51763200D01*
X122744000Y-53163200D02*
X122744000Y-51763200D01*
X124144000Y-51763200D02*
X124144000Y-53163200D01*
X124144000Y-53163200D02*
X122744000Y-53163200D01*
X98350899Y-66018800D02*
X96550899Y-66018800D01*
X98350899Y-66018800D02*
X99150899Y-66018800D01*
X98350899Y-69138800D02*
X97550899Y-69138800D01*
X98350899Y-69138800D02*
X99150899Y-69138800D01*
X80965185Y-54471800D02*
X80684025Y-54471800D01*
X80965185Y-53451800D02*
X80684025Y-53451800D01*
X120063800Y-57595380D02*
X120063800Y-57314220D01*
X121083800Y-57595380D02*
X121083800Y-57314220D01*
X96745000Y-58795800D02*
X96745000Y-59795800D01*
X100105000Y-58795800D02*
X100105000Y-59795800D01*
X124144300Y-57217542D02*
X124144300Y-57692058D01*
X123099300Y-57217542D02*
X123099300Y-57692058D01*
X54976936Y-78951600D02*
X55431064Y-78951600D01*
X54976936Y-80421600D02*
X55431064Y-80421600D01*
X116501142Y-59650100D02*
X116975658Y-59650100D01*
X116501142Y-60695100D02*
X116975658Y-60695100D01*
X83273020Y-82573400D02*
X83554180Y-82573400D01*
X83273020Y-83593400D02*
X83554180Y-83593400D01*
D14*
X77343000Y-92099000D02*
X77343000Y-92749000D01*
X75344000Y-92099000D02*
X77343000Y-92099000D01*
X73944000Y-100249000D02*
X73944000Y-100249000D01*
X73844000Y-100249000D02*
X73844000Y-100249000D01*
X77343000Y-100549000D02*
X77343000Y-101199000D01*
X77343000Y-101199000D02*
X75344000Y-101199000D01*
X73844000Y-100249000D02*
G75*
G03*
X73944000Y-100249000I50000J0D01*
G01*
X73944000Y-100249000D02*
G75*
G03*
X73844000Y-100249000I-50000J0D01*
G01*
D13*
X138492000Y-51763200D02*
X139892000Y-51763200D01*
X138492000Y-53163200D02*
X138492000Y-51763200D01*
X139892000Y-51763200D02*
X139892000Y-53163200D01*
X139892000Y-53163200D02*
X138492000Y-53163200D01*
D12*
X85636000Y-79472200D02*
X86836000Y-79472200D01*
X87186000Y-79522200D02*
X87786000Y-79522200D01*
X87186000Y-82422200D02*
X87186000Y-79522200D01*
X87786000Y-79522200D02*
X87786000Y-82422200D01*
X87786000Y-82422200D02*
X87186000Y-82422200D01*
D13*
X69327800Y-75156600D02*
X70727800Y-75156600D01*
X69327800Y-76556600D02*
X69327800Y-75156600D01*
X70727800Y-75156600D02*
X70727800Y-76556600D01*
X70727800Y-76556600D02*
X69327800Y-76556600D01*
X77659000Y-75156600D02*
X79059000Y-75156600D01*
X77659000Y-76556600D02*
X77659000Y-75156600D01*
X79059000Y-75156600D02*
X79059000Y-76556600D01*
X79059000Y-76556600D02*
X77659000Y-76556600D01*
X70343800Y-82725800D02*
X71743800Y-82725800D01*
X70343800Y-84125800D02*
X70343800Y-82725800D01*
X71743800Y-82725800D02*
X71743800Y-84125800D01*
X71743800Y-84125800D02*
X70343800Y-84125800D01*
X63098542Y-74338100D02*
X63573058Y-74338100D01*
X63098542Y-75383100D02*
X63573058Y-75383100D01*
X70260582Y-63469761D02*
X70649491Y-63080852D01*
X76461909Y-58046252D02*
X76073000Y-57657343D01*
X70649491Y-63858670D02*
X70260582Y-63469761D01*
X81496509Y-63080852D02*
X81885418Y-63469761D01*
X75684091Y-68893270D02*
X76073000Y-69282179D01*
X81885418Y-63469761D02*
X81496509Y-63858670D01*
X76073000Y-69282179D02*
X76461909Y-68893270D01*
D10*
X120622400Y-66716600D02*
X120612400Y-66716600D01*
X120612400Y-66716600D02*
X120612400Y-69376600D01*
X118452400Y-66716600D02*
X118452400Y-69376600D01*
X118442400Y-66716600D02*
X118452400Y-66716600D01*
X120612400Y-69376600D02*
X120622400Y-69376600D01*
X118452400Y-69376600D02*
X118442400Y-69376600D01*
D13*
X90407258Y-78106300D02*
X89932742Y-78106300D01*
X90407258Y-77061300D02*
X89932742Y-77061300D01*
D10*
X127129200Y-60283400D02*
X127139200Y-60283400D01*
X127139200Y-60283400D02*
X127139200Y-57623400D01*
X129299200Y-60283400D02*
X129299200Y-57623400D01*
X129309200Y-60283400D02*
X129299200Y-60283400D01*
X127139200Y-57623400D02*
X127129200Y-57623400D01*
X129299200Y-57623400D02*
X129309200Y-57623400D01*
D13*
X86727420Y-77734200D02*
X87008580Y-77734200D01*
X86727420Y-78754200D02*
X87008580Y-78754200D01*
X62059601Y-82921600D02*
X64859601Y-82921600D01*
X62059601Y-84921600D02*
X62059601Y-82921600D01*
X64859601Y-82921600D02*
X64859601Y-84921600D01*
X64859601Y-84921600D02*
X62059601Y-84921600D01*
X125655800Y-57314220D02*
X125655800Y-57595380D01*
X124635800Y-57314220D02*
X124635800Y-57595380D01*
X118629200Y-51776400D02*
X120029200Y-51776400D01*
X118629200Y-53176400D02*
X118629200Y-51776400D01*
X120029200Y-51776400D02*
X120029200Y-53176400D01*
X120029200Y-53176400D02*
X118629200Y-53176400D01*
X116486400Y-62318020D02*
X116486400Y-62599180D01*
X115466400Y-62318020D02*
X115466400Y-62599180D01*
X104583000Y-51763200D02*
X105983000Y-51763200D01*
X104583000Y-53163200D02*
X104583000Y-51763200D01*
X105983000Y-51763200D02*
X105983000Y-53163200D01*
X105983000Y-53163200D02*
X104583000Y-53163200D01*
X123790942Y-66965300D02*
X124265458Y-66965300D01*
X123790942Y-68010300D02*
X124265458Y-68010300D01*
X78995000Y-58908200D02*
X82295000Y-58908200D01*
X82295000Y-58908200D02*
X82295000Y-54908200D01*
D14*
X136963000Y-83912200D02*
X136313000Y-83912200D01*
X136963000Y-81913200D02*
X136963000Y-83912200D01*
X128813000Y-80513200D02*
X128813000Y-80513200D01*
X128813000Y-80413200D02*
X128813000Y-80413200D01*
X128513000Y-83912200D02*
X127863000Y-83912200D01*
X127863000Y-83912200D02*
X127863000Y-81913200D01*
X128813000Y-80413200D02*
G75*
G03*
X128813000Y-80513200I0J-50000D01*
G01*
X128813000Y-80513200D02*
G75*
G03*
X128813000Y-80413200I0J50000D01*
G01*
D13*
X76662400Y-83371400D02*
X78582400Y-83371400D01*
X78582400Y-83371400D02*
X78582400Y-80686400D01*
X76662400Y-80686400D02*
X76662400Y-83371400D01*
X60116758Y-75484700D02*
X59642242Y-75484700D01*
X60116758Y-74439700D02*
X59642242Y-74439700D01*
X73493400Y-75156600D02*
X74893400Y-75156600D01*
X73493400Y-76556600D02*
X73493400Y-75156600D01*
X74893400Y-75156600D02*
X74893400Y-76556600D01*
X74893400Y-76556600D02*
X73493400Y-76556600D01*
X66178200Y-82725800D02*
X67578200Y-82725800D01*
X66178200Y-84125800D02*
X66178200Y-82725800D01*
X67578200Y-82725800D02*
X67578200Y-84125800D01*
X67578200Y-84125800D02*
X66178200Y-84125800D01*
X65839800Y-66893000D02*
X64839800Y-66893000D01*
X65839800Y-70253000D02*
X64839800Y-70253000D01*
D14*
X126836800Y-59486600D02*
X126836800Y-59486600D01*
X126836800Y-59586600D02*
X126836800Y-59586600D01*
D12*
X126786800Y-60661600D02*
X126786800Y-61461600D01*
X125536800Y-60661600D02*
X125536800Y-61461600D01*
D14*
X126836800Y-59586600D02*
G75*
G03*
X126836800Y-59486600I0J50000D01*
G01*
X126836800Y-59486600D02*
G75*
G03*
X126836800Y-59586600I0J-50000D01*
G01*
D13*
X53245800Y-66819300D02*
X53245800Y-66219300D01*
X53795800Y-68019300D02*
X54395800Y-68019300D01*
X53895800Y-65519300D02*
X56695800Y-65519300D01*
X54095800Y-67719300D02*
X53795800Y-68019300D01*
X54095800Y-67719300D02*
X54395800Y-68019300D01*
X56695800Y-67519300D02*
X53895800Y-67519300D01*
X57345800Y-66219300D02*
X57345800Y-66819300D01*
X53945800Y-65519300D02*
G75*
G03*
X53245800Y-66219300I-1J-699999D01*
G01*
X53245800Y-66819300D02*
G75*
G03*
X53945800Y-67519300I699999J-1D01*
G01*
X57345800Y-66219300D02*
G75*
G03*
X56645800Y-65519300I-700000J0D01*
G01*
X56645800Y-67519300D02*
G75*
G03*
X57345800Y-66819300I0J700000D01*
G01*
X59930420Y-82986600D02*
X60211580Y-82986600D01*
X59930420Y-84006600D02*
X60211580Y-84006600D01*
X140648458Y-64298300D02*
X140173942Y-64298300D01*
X140648458Y-65343300D02*
X140173942Y-65343300D01*
X97394620Y-74190599D02*
X97675780Y-74190599D01*
X97394620Y-75210599D02*
X97675780Y-75210599D01*
X79741800Y-75156600D02*
X81141800Y-75156600D01*
X79741800Y-76556600D02*
X79741800Y-75156600D01*
X81141800Y-75156600D02*
X81141800Y-76556600D01*
X81141800Y-76556600D02*
X79741800Y-76556600D01*
X57942800Y-80905600D02*
X60942800Y-80905600D01*
X59442800Y-77685600D02*
X60942800Y-77685600D01*
X53245800Y-69705000D02*
X53245800Y-69105000D01*
X53795800Y-70905000D02*
X54395800Y-70905000D01*
X53895800Y-68405000D02*
X56695800Y-68405000D01*
X54095800Y-70605000D02*
X53795800Y-70905000D01*
X54095800Y-70605000D02*
X54395800Y-70905000D01*
X56695800Y-70405000D02*
X53895800Y-70405000D01*
X57345800Y-69105000D02*
X57345800Y-69705000D01*
X53945800Y-68405000D02*
G75*
G03*
X53245800Y-69105000I-1J-699999D01*
G01*
X53245800Y-69705000D02*
G75*
G03*
X53945800Y-70405000I699999J-1D01*
G01*
X57345800Y-69105000D02*
G75*
G03*
X56645800Y-68405000I-700000J0D01*
G01*
X56645800Y-70405000D02*
G75*
G03*
X57345800Y-69705000I0J700000D01*
G01*
X58205900Y-82477342D02*
X58205900Y-82951858D01*
X57160900Y-82477342D02*
X57160900Y-82951858D01*
X132396000Y-51763200D02*
X133796000Y-51763200D01*
X132396000Y-53163200D02*
X132396000Y-51763200D01*
X133796000Y-51763200D02*
X133796000Y-53163200D01*
X133796000Y-53163200D02*
X132396000Y-53163200D01*
X83273020Y-76096400D02*
X83554180Y-76096400D01*
X83273020Y-77116400D02*
X83554180Y-77116400D01*
X71410600Y-75156600D02*
X72810600Y-75156600D01*
X71410600Y-76556600D02*
X71410600Y-75156600D01*
X72810600Y-75156600D02*
X72810600Y-76556600D01*
X72810600Y-76556600D02*
X71410600Y-76556600D01*
X70343800Y-80643000D02*
X71743800Y-80643000D01*
X70343800Y-82043000D02*
X70343800Y-80643000D01*
X71743800Y-80643000D02*
X71743800Y-82043000D01*
X71743800Y-82043000D02*
X70343800Y-82043000D01*
X124179000Y-77982948D02*
X124179000Y-78505452D01*
X122709000Y-77982948D02*
X122709000Y-78505452D01*
X109132600Y-60084736D02*
X109132600Y-60538864D01*
X107662600Y-60084736D02*
X107662600Y-60538864D01*
X83695000Y-56716820D02*
X83695000Y-56997980D01*
X82675000Y-56716820D02*
X82675000Y-56997980D01*
X130364000Y-51763200D02*
X131764000Y-51763200D01*
X130364000Y-53163200D02*
X130364000Y-51763200D01*
X131764000Y-51763200D02*
X131764000Y-53163200D01*
X131764000Y-53163200D02*
X130364000Y-53163200D01*
D14*
X54022000Y-63091200D02*
X54022000Y-62441200D01*
X56021000Y-63091200D02*
X54022000Y-63091200D01*
X57421000Y-54941200D02*
X57421000Y-54941200D01*
X57521000Y-54941200D02*
X57521000Y-54941200D01*
X54022000Y-54641200D02*
X54022000Y-53991200D01*
X54022000Y-53991200D02*
X56021000Y-53991200D01*
X57521000Y-54941200D02*
G75*
G03*
X57421000Y-54941200I-50000J0D01*
G01*
X57421000Y-54941200D02*
G75*
G03*
X57521000Y-54941200I50000J0D01*
G01*
D13*
X118428380Y-58726800D02*
X118147220Y-58726800D01*
X118428380Y-57706800D02*
X118147220Y-57706800D01*
X118641400Y-60643380D02*
X118641400Y-60362220D01*
X119661400Y-60643380D02*
X119661400Y-60362220D01*
X67245000Y-75156600D02*
X68645000Y-75156600D01*
X67245000Y-76556600D02*
X67245000Y-75156600D01*
X68645000Y-75156600D02*
X68645000Y-76556600D01*
X68645000Y-76556600D02*
X67245000Y-76556600D01*
D14*
X110214000Y-83658200D02*
X109564000Y-83658200D01*
X110214000Y-81659200D02*
X110214000Y-83658200D01*
X102064000Y-80259200D02*
X102064000Y-80259200D01*
X102064000Y-80159200D02*
X102064000Y-80159200D01*
X101764000Y-83658200D02*
X101114000Y-83658200D01*
X101114000Y-83658200D02*
X101114000Y-81659200D01*
X102064000Y-80159200D02*
G75*
G03*
X102064000Y-80259200I0J-50000D01*
G01*
X102064000Y-80259200D02*
G75*
G03*
X102064000Y-80159200I0J50000D01*
G01*
D13*
X99887000Y-53163200D02*
X98487000Y-53163200D01*
X99887000Y-51763200D02*
X99887000Y-53163200D01*
X98487000Y-53163200D02*
X98487000Y-51763200D01*
X98487000Y-51763200D02*
X99887000Y-51763200D01*
X106615000Y-51763200D02*
X108015000Y-51763200D01*
X106615000Y-53163200D02*
X106615000Y-51763200D01*
X108015000Y-51763200D02*
X108015000Y-53163200D01*
X108015000Y-53163200D02*
X106615000Y-53163200D01*
X59385220Y-76128600D02*
X59666380Y-76128600D01*
X59385220Y-77148600D02*
X59666380Y-77148600D01*
D14*
X116560400Y-64222000D02*
X116560400Y-64222000D01*
X116660400Y-64222000D02*
X116660400Y-64222000D01*
D12*
X117735400Y-64272000D02*
X118535400Y-64272000D01*
X117735400Y-65522000D02*
X118535400Y-65522000D01*
D14*
X116660400Y-64222000D02*
G75*
G03*
X116560400Y-64222000I-50000J0D01*
G01*
X116560400Y-64222000D02*
G75*
G03*
X116660400Y-64222000I50000J0D01*
G01*
D13*
X68261000Y-82725800D02*
X69661000Y-82725800D01*
X68261000Y-84125800D02*
X68261000Y-82725800D01*
X69661000Y-82725800D02*
X69661000Y-84125800D01*
X69661000Y-84125800D02*
X68261000Y-84125800D01*
X134428000Y-51763200D02*
X135828000Y-51763200D01*
X134428000Y-53163200D02*
X134428000Y-51763200D01*
X135828000Y-51763200D02*
X135828000Y-53163200D01*
X135828000Y-53163200D02*
X134428000Y-53163200D01*
X78418458Y-84723500D02*
X77943942Y-84723500D01*
X78418458Y-83678500D02*
X77943942Y-83678500D01*
X55266620Y-82986600D02*
X55547780Y-82986600D01*
X55266620Y-84006600D02*
X55547780Y-84006600D01*
X102208000Y-65016748D02*
X102208000Y-65539252D01*
X100738000Y-65016748D02*
X100738000Y-65539252D01*
X72426600Y-82725800D02*
X73826600Y-82725800D01*
X72426600Y-84125800D02*
X72426600Y-82725800D01*
X73826600Y-82725800D02*
X73826600Y-84125800D01*
X73826600Y-84125800D02*
X72426600Y-84125800D01*
X65365800Y-75763180D02*
X65365800Y-75482020D01*
X66385800Y-75763180D02*
X66385800Y-75482020D01*
X123022000Y-75919200D02*
X123022000Y-74219200D01*
X123022000Y-75919200D02*
X120362000Y-75919200D01*
X123022000Y-74219200D02*
X120362000Y-74219200D01*
D14*
X53971100Y-101229200D02*
X53971100Y-100579200D01*
X55970100Y-101229200D02*
X53971100Y-101229200D01*
X57370100Y-93079200D02*
X57370100Y-93079200D01*
X57470100Y-93079200D02*
X57470100Y-93079200D01*
X53971100Y-92779200D02*
X53971100Y-92129200D01*
X53971100Y-92129200D02*
X55970100Y-92129200D01*
X57470100Y-93079200D02*
G75*
G03*
X57370100Y-93079200I-50000J0D01*
G01*
X57370100Y-93079200D02*
G75*
G03*
X57470100Y-93079200I50000J0D01*
G01*
D13*
X68261000Y-80643000D02*
X69661000Y-80643000D01*
X68261000Y-82043000D02*
X68261000Y-80643000D01*
X69661000Y-80643000D02*
X69661000Y-82043000D01*
X69661000Y-82043000D02*
X68261000Y-82043000D01*
X119888000Y-76684200D02*
X118088000Y-76684200D01*
X119888000Y-76684200D02*
X120688000Y-76684200D01*
X119888000Y-79804200D02*
X119088000Y-79804200D01*
X119888000Y-79804200D02*
X120688000Y-79804200D01*
X97855000Y-53163200D02*
X96455000Y-53163200D01*
X97855000Y-51763200D02*
X97855000Y-53163200D01*
X96455000Y-53163200D02*
X96455000Y-51763200D01*
X96455000Y-51763200D02*
X97855000Y-51763200D01*
X55256820Y-74533800D02*
X55537980Y-74533800D01*
X55256820Y-75553800D02*
X55537980Y-75553800D01*
X135708600Y-56700800D02*
X135708600Y-57700800D01*
X139068600Y-56700800D02*
X139068600Y-57700800D01*
X121801658Y-72887100D02*
X121327142Y-72887100D01*
X121801658Y-71842100D02*
X121327142Y-71842100D01*
X116203000Y-78130780D02*
X116203000Y-77849620D01*
X117223000Y-78130780D02*
X117223000Y-77849620D01*
X100829342Y-73670900D02*
X101303858Y-73670900D01*
X100829342Y-74715900D02*
X101303858Y-74715900D01*
X89991500Y-83307458D02*
X89991500Y-82832942D01*
X91036500Y-83307458D02*
X91036500Y-82832942D01*
X119871200Y-73350000D02*
X119871200Y-71430000D01*
X119871200Y-71430000D02*
X117186200Y-71430000D01*
X117186200Y-73350000D02*
X119871200Y-73350000D01*
X108647000Y-51763200D02*
X110047000Y-51763200D01*
X108647000Y-53163200D02*
X108647000Y-51763200D01*
X110047000Y-51763200D02*
X110047000Y-53163200D01*
X110047000Y-53163200D02*
X108647000Y-53163200D01*
X102624600Y-76956800D02*
X102624600Y-75036800D01*
X102624600Y-75036800D02*
X99939600Y-75036800D01*
X99939600Y-76956800D02*
X102624600Y-76956800D01*
X97778180Y-82653600D02*
X97497020Y-82653600D01*
X97778180Y-81633600D02*
X97497020Y-81633600D01*
X124776000Y-51763200D02*
X126176000Y-51763200D01*
X124776000Y-53163200D02*
X124776000Y-51763200D01*
X126176000Y-51763200D02*
X126176000Y-53163200D01*
X126176000Y-53163200D02*
X124776000Y-53163200D01*
X120686600Y-51776400D02*
X122086600Y-51776400D01*
X120686600Y-53176400D02*
X120686600Y-51776400D01*
X122086600Y-51776400D02*
X122086600Y-53176400D01*
X122086600Y-53176400D02*
X120686600Y-53176400D01*
X121575300Y-57692058D02*
X121575300Y-57217542D01*
X122620300Y-57692058D02*
X122620300Y-57217542D01*
X136460000Y-51763200D02*
X137860000Y-51763200D01*
X136460000Y-53163200D02*
X136460000Y-51763200D01*
X137860000Y-51763200D02*
X137860000Y-53163200D01*
X137860000Y-53163200D02*
X136460000Y-53163200D01*
X111098000Y-60082836D02*
X111098000Y-60536964D01*
X109628000Y-60082836D02*
X109628000Y-60536964D01*
X124708600Y-64307400D02*
X124233600Y-64307400D01*
X120488600Y-63832400D02*
X120488600Y-64307400D01*
X124708600Y-63832400D02*
X124708600Y-64307400D01*
X120488600Y-60562400D02*
X120488600Y-60087400D01*
X124708600Y-60562400D02*
X124708600Y-60087400D01*
X120488600Y-60087400D02*
X120963600Y-60087400D01*
X124708600Y-60087400D02*
X124233600Y-60087400D01*
X55441258Y-82241100D02*
X54966742Y-82241100D01*
X55441258Y-81196100D02*
X54966742Y-81196100D01*
X83676258Y-75452500D02*
X83201742Y-75452500D01*
X83676258Y-74407500D02*
X83201742Y-74407500D01*
X63573058Y-77161100D02*
X63098542Y-77161100D01*
X63573058Y-76116100D02*
X63098542Y-76116100D01*
X63665980Y-78932000D02*
X63384820Y-78932000D01*
X63665980Y-77912000D02*
X63384820Y-77912000D01*
X81572800Y-79587600D02*
X78772800Y-79587600D01*
X81572800Y-77587600D02*
X81572800Y-79587600D01*
X78772800Y-79587600D02*
X78772800Y-77587600D01*
X78772800Y-77587600D02*
X81572800Y-77587600D01*
X97905180Y-70791801D02*
X97624020Y-70791801D01*
X97905180Y-69771801D02*
X97624020Y-69771801D01*
X121054400Y-67628380D02*
X121054400Y-67347220D01*
X122074400Y-67628380D02*
X122074400Y-67347220D01*
X123760620Y-65250600D02*
X124041780Y-65250600D01*
X123760620Y-66270600D02*
X124041780Y-66270600D01*
X131924000Y-58480000D02*
X131924000Y-59480000D01*
X135284000Y-58480000D02*
X135284000Y-59480000D01*
%LPC*%
D16*
X69494400Y-100050600D03*
X69494400Y-101574600D03*
X63500000Y-99187000D03*
X63500000Y-97663000D03*
X69088000Y-96088200D03*
X69088000Y-94538800D03*
X64465200Y-93675200D03*
X64465200Y-92176600D03*
X68300600Y-91109800D03*
X68300600Y-89560400D03*
D17*
X136005000Y-71649200D03*
X133997000Y-71649200D03*
X136005000Y-71299200D03*
X133997000Y-71299200D03*
X136005000Y-70949200D03*
X133997000Y-70949200D03*
X136005000Y-70599200D03*
X133997000Y-70599200D03*
X136005000Y-70249200D03*
X133997000Y-70249200D03*
X136005000Y-69899200D03*
X133997000Y-69899200D03*
X136005000Y-69549200D03*
X133997000Y-69549200D03*
X136005000Y-69199200D03*
X133997000Y-69199200D03*
X136005000Y-68849200D03*
X133997000Y-68849200D03*
X136005000Y-68499200D03*
X133997000Y-68499200D03*
X136005000Y-68149200D03*
X133997000Y-68149200D03*
X136005000Y-67799200D03*
X133997000Y-67799200D03*
X136005000Y-67449200D03*
X133997000Y-67449200D03*
X136005000Y-67099200D03*
X133997000Y-67099200D03*
X136005000Y-66749200D03*
X133997000Y-66749200D03*
X136005000Y-66399200D03*
X133997000Y-66399200D03*
X136005000Y-66049200D03*
X133997000Y-66049200D03*
X136005000Y-65699200D03*
X133997000Y-65699200D03*
X136005000Y-65349200D03*
X133997000Y-65349200D03*
X136005000Y-64999200D03*
X133997000Y-64999200D03*
X136005000Y-64649200D03*
X133997000Y-64649200D03*
X136005000Y-64299200D03*
X133997000Y-64299200D03*
X136005000Y-63949200D03*
X133997000Y-63949200D03*
X136005000Y-63599200D03*
X133997000Y-63599200D03*
X136005000Y-63249200D03*
X133997000Y-63249200D03*
D18*
X135001000Y-72959200D03*
X135001000Y-61939200D03*
D19*
X134066000Y-72349200D03*
X134066000Y-62549200D03*
X135936000Y-62549200D03*
X135936000Y-72349200D03*
D20*
X107423000Y-67404200D03*
X107423000Y-64954200D03*
X107823000Y-67404200D03*
X107823000Y-64954200D03*
X108223000Y-67404200D03*
X108223000Y-64954200D03*
X108623000Y-67404200D03*
X108623000Y-64954200D03*
X109023000Y-67404200D03*
X109023000Y-64954200D03*
X109423000Y-67404200D03*
X109423000Y-64954200D03*
D21*
X106673000Y-67374200D03*
X106673000Y-64984200D03*
X110173000Y-67374200D03*
X110173000Y-64984200D03*
D22*
X139014200Y-63032100D03*
X139014200Y-60107100D03*
D23*
X90472000Y-74112000D03*
X90472000Y-54212000D03*
D24*
X87757000Y-72412000D03*
X87757000Y-71912000D03*
X87757000Y-71412000D03*
X87757000Y-70912000D03*
X87757000Y-70412000D03*
X87757000Y-69912000D03*
X87757000Y-69412000D03*
X87757000Y-68912000D03*
X87757000Y-68412000D03*
X87757000Y-67912000D03*
X87757000Y-67412000D03*
X87757000Y-66912000D03*
X87757000Y-66412000D03*
X87757000Y-65912000D03*
X87757000Y-65412000D03*
X87757000Y-64912000D03*
X87757000Y-64412000D03*
X87757000Y-63912000D03*
X87757000Y-63412000D03*
X87757000Y-62912000D03*
X87757000Y-62412000D03*
X87757000Y-61912000D03*
X87757000Y-61412000D03*
X87757000Y-60912000D03*
X87757000Y-60412000D03*
X87757000Y-59912000D03*
X87757000Y-59412000D03*
X87757000Y-58912000D03*
X87757000Y-58412000D03*
X87757000Y-57912000D03*
X87757000Y-57412000D03*
X87757000Y-56912000D03*
X87757000Y-56412000D03*
X87757000Y-55912000D03*
D25*
X54722000Y-73025000D03*
X56022000Y-73025000D03*
D26*
X101219000Y-52463200D03*
D27*
X87643000Y-83705200D03*
X86093000Y-83705200D03*
D28*
X96890000Y-80420999D03*
X97840000Y-80420999D03*
X98790000Y-80420999D03*
X98790000Y-77920999D03*
X96890000Y-77920999D03*
D26*
X76276200Y-75856600D03*
D29*
X90514000Y-80720200D03*
X90514000Y-79070200D03*
D30*
X117525800Y-61633600D03*
X117525800Y-63283600D03*
D31*
X117109200Y-74955400D03*
X119009200Y-74955400D03*
D26*
X66878200Y-81343000D03*
X73126600Y-81343000D03*
D32*
X96760200Y-76249999D03*
X98310200Y-76249999D03*
X59296000Y-81972600D03*
X60846000Y-81972600D03*
D26*
X103251000Y-52463200D03*
D32*
X82638600Y-78257400D03*
X84188600Y-78257400D03*
D26*
X123444000Y-52463200D03*
D33*
X97213399Y-66628800D03*
X97213399Y-67578800D03*
X97213399Y-68528800D03*
X99488399Y-68528800D03*
X99488399Y-67578800D03*
X99488399Y-66628800D03*
D27*
X81599605Y-53961800D03*
X80049605Y-53961800D03*
D34*
X120573800Y-58229800D03*
X120573800Y-56679800D03*
D35*
X97225000Y-60195800D03*
D36*
X98025000Y-60195800D03*
X98825000Y-60195800D03*
D35*
X99625000Y-60195800D03*
X99625000Y-58395800D03*
D36*
X98825000Y-58395800D03*
X98025000Y-58395800D03*
D35*
X97225000Y-58395800D03*
D30*
X123621800Y-56629800D03*
X123621800Y-58279800D03*
D37*
X54291500Y-79686600D03*
X56116500Y-79686600D03*
D38*
X115913400Y-60172600D03*
X117563400Y-60172600D03*
D32*
X82638600Y-83083400D03*
X84188600Y-83083400D03*
D39*
X74469000Y-100249000D03*
D40*
X77343000Y-99949000D03*
D39*
X74469000Y-99649000D03*
D40*
X77343000Y-99349000D03*
D39*
X74469000Y-99049000D03*
D40*
X77343000Y-98749000D03*
D39*
X74469000Y-98449000D03*
D40*
X77343000Y-98149000D03*
D39*
X74469000Y-97849000D03*
D40*
X77343000Y-97549000D03*
D39*
X74469000Y-97249000D03*
D40*
X77343000Y-96949000D03*
D39*
X74469000Y-96649000D03*
D40*
X77343000Y-96349000D03*
D39*
X74469000Y-96049000D03*
D40*
X77343000Y-95749000D03*
D39*
X74469000Y-95449000D03*
D40*
X77343000Y-95149000D03*
D39*
X74469000Y-94849000D03*
D40*
X77343000Y-94549000D03*
D39*
X74469000Y-94249000D03*
D40*
X77343000Y-93949000D03*
D39*
X74469000Y-93649000D03*
D40*
X77343000Y-93349000D03*
D39*
X74469000Y-93049000D03*
D41*
X74743000Y-100949000D03*
X74743000Y-92349000D03*
D26*
X139192000Y-52463200D03*
D42*
X86236000Y-80022200D03*
X86236000Y-80972200D03*
X86236000Y-81922200D03*
X88736000Y-81922200D03*
X88736000Y-80022200D03*
D26*
X70027800Y-75856600D03*
X78359000Y-75856600D03*
X71043800Y-83425800D03*
D38*
X62510800Y-74860600D03*
X64160800Y-74860600D03*
D43*
X75551509Y-58422786D03*
X75268666Y-58705629D03*
X74985823Y-58988472D03*
X74702981Y-59271314D03*
X74420138Y-59554157D03*
X74137295Y-59837000D03*
X73854452Y-60119843D03*
X73571610Y-60402685D03*
X73288767Y-60685528D03*
X73005924Y-60968371D03*
X72723082Y-61251213D03*
X72440239Y-61534056D03*
X72157396Y-61816899D03*
X71874553Y-62099742D03*
X71591711Y-62382584D03*
X71308868Y-62665427D03*
X71026025Y-62948270D03*
D44*
X71026025Y-63991252D03*
X71308868Y-64274095D03*
X71591711Y-64556938D03*
X71874553Y-64839780D03*
X72157396Y-65122623D03*
X72440239Y-65405466D03*
X72723082Y-65688309D03*
X73005924Y-65971151D03*
X73288767Y-66253994D03*
X73571610Y-66536837D03*
X73854452Y-66819679D03*
X74137295Y-67102522D03*
X74420138Y-67385365D03*
X74702981Y-67668208D03*
X74985823Y-67951050D03*
X75268666Y-68233893D03*
X75551509Y-68516736D03*
D43*
X76594491Y-68516736D03*
X76877334Y-68233893D03*
X77160177Y-67951050D03*
X77443019Y-67668208D03*
X77725862Y-67385365D03*
X78008705Y-67102522D03*
X78291548Y-66819679D03*
X78574390Y-66536837D03*
X78857233Y-66253994D03*
X79140076Y-65971151D03*
X79422918Y-65688309D03*
X79705761Y-65405466D03*
X79988604Y-65122623D03*
X80271447Y-64839780D03*
X80554289Y-64556938D03*
X80837132Y-64274095D03*
X81119975Y-63991252D03*
D44*
X81119975Y-62948270D03*
X80837132Y-62665427D03*
X80554289Y-62382584D03*
X80271447Y-62099742D03*
X79988604Y-61816899D03*
X79705761Y-61534056D03*
X79422918Y-61251213D03*
X79140076Y-60968371D03*
X78857233Y-60685528D03*
X78574390Y-60402685D03*
X78291548Y-60119843D03*
X78008705Y-59837000D03*
X77725862Y-59554157D03*
X77443019Y-59271314D03*
X77160177Y-58988472D03*
X76877334Y-58705629D03*
X76594491Y-58422786D03*
D45*
X76073000Y-63469761D03*
D46*
X119532400Y-69276600D03*
X119532400Y-66816600D03*
D47*
X90995000Y-77583800D03*
X89345000Y-77583800D03*
D46*
X128219200Y-57723400D03*
X128219200Y-60183400D03*
D32*
X86093000Y-78244200D03*
X87643000Y-78244200D03*
D25*
X62809601Y-83921600D03*
X64109601Y-83921600D03*
D48*
X125145800Y-56679800D03*
X125145800Y-58229800D03*
D26*
X119329200Y-52476400D03*
D48*
X115976400Y-61683600D03*
X115976400Y-63233600D03*
D26*
X105283000Y-52463200D03*
D38*
X123203200Y-67487800D03*
X124853200Y-67487800D03*
D49*
X81495000Y-58008200D03*
X81495000Y-55808200D03*
X79795000Y-55808200D03*
X79795000Y-58008200D03*
D50*
X128813000Y-81038200D03*
D51*
X129113000Y-83912200D03*
D50*
X129413000Y-81038200D03*
D51*
X129713000Y-83912200D03*
D50*
X130013000Y-81038200D03*
D51*
X130313000Y-83912200D03*
D50*
X130613000Y-81038200D03*
D51*
X130913000Y-83912200D03*
D50*
X131213000Y-81038200D03*
D51*
X131513000Y-83912200D03*
D50*
X131813000Y-81038200D03*
D51*
X132113000Y-83912200D03*
D50*
X132413000Y-81038200D03*
D51*
X132713000Y-83912200D03*
D50*
X133013000Y-81038200D03*
D51*
X133313000Y-83912200D03*
D50*
X133613000Y-81038200D03*
D51*
X133913000Y-83912200D03*
D50*
X134213000Y-81038200D03*
D51*
X134513000Y-83912200D03*
D50*
X134813000Y-81038200D03*
D51*
X135113000Y-83912200D03*
D50*
X135413000Y-81038200D03*
D51*
X135713000Y-83912200D03*
D50*
X136013000Y-81038200D03*
D52*
X128113000Y-81312200D03*
X136713000Y-81312200D03*
D53*
X77622400Y-82623900D03*
X77622400Y-80748900D03*
D47*
X60704500Y-74962200D03*
X59054500Y-74962200D03*
D54*
X84138600Y-80797400D03*
X82688600Y-80797400D03*
D26*
X74193400Y-75856600D03*
X66878200Y-83425800D03*
D55*
X64439800Y-67373000D03*
D56*
X64439800Y-68173000D03*
X64439800Y-68973000D03*
D55*
X64439800Y-69773000D03*
X66239800Y-69773000D03*
D56*
X66239800Y-68973000D03*
X66239800Y-68173000D03*
D55*
X66239800Y-67373000D03*
D57*
X126161800Y-59911600D03*
X126161800Y-62211600D03*
D58*
X53995800Y-66519300D03*
D25*
X55295800Y-66519300D03*
D59*
X56595800Y-66519300D03*
D32*
X59296000Y-83496600D03*
X60846000Y-83496600D03*
D47*
X139586200Y-64820800D03*
X141236200Y-64820800D03*
D32*
X96760200Y-74700599D03*
X98310200Y-74700599D03*
D26*
X80441800Y-75856600D03*
D60*
X57992800Y-78170600D03*
X57992800Y-78620600D03*
X57992800Y-79070600D03*
X57992800Y-79520600D03*
X57992800Y-79970600D03*
X57992800Y-80420600D03*
X60892800Y-80420600D03*
X60892800Y-79970600D03*
X60892800Y-79520600D03*
X60892800Y-79070600D03*
X60892800Y-78620600D03*
X60892800Y-78170600D03*
D61*
X59442800Y-79295600D03*
D58*
X53995800Y-69405000D03*
D25*
X55295800Y-69405000D03*
D59*
X56595800Y-69405000D03*
D30*
X57683400Y-81889600D03*
X57683400Y-83539600D03*
D62*
X99092400Y-63881000D03*
X96792400Y-63881000D03*
D26*
X133096000Y-52463200D03*
D32*
X82638600Y-76606400D03*
X84188600Y-76606400D03*
D26*
X72110600Y-75856600D03*
X71043800Y-81343000D03*
D63*
X123444000Y-77294200D03*
X123444000Y-79194200D03*
D64*
X108397600Y-59399300D03*
X108397600Y-61224300D03*
D48*
X83185000Y-56082400D03*
X83185000Y-57632400D03*
D26*
X131064000Y-52463200D03*
D39*
X56896000Y-54941200D03*
D40*
X54022000Y-55241200D03*
D39*
X56896000Y-55541200D03*
D40*
X54022000Y-55841200D03*
D39*
X56896000Y-56141200D03*
D40*
X54022000Y-56441200D03*
D39*
X56896000Y-56741200D03*
D40*
X54022000Y-57041200D03*
D39*
X56896000Y-57341200D03*
D40*
X54022000Y-57641200D03*
D39*
X56896000Y-57941200D03*
D40*
X54022000Y-58241200D03*
D39*
X56896000Y-58541200D03*
D40*
X54022000Y-58841200D03*
D39*
X56896000Y-59141200D03*
D40*
X54022000Y-59441200D03*
D39*
X56896000Y-59741200D03*
D40*
X54022000Y-60041200D03*
D39*
X56896000Y-60341200D03*
D40*
X54022000Y-60641200D03*
D39*
X56896000Y-60941200D03*
D40*
X54022000Y-61241200D03*
D39*
X56896000Y-61541200D03*
D40*
X54022000Y-61841200D03*
D39*
X56896000Y-62141200D03*
D41*
X56622000Y-54241200D03*
X56622000Y-62841200D03*
D27*
X119062800Y-58216800D03*
X117512800Y-58216800D03*
D34*
X119151400Y-61277800D03*
X119151400Y-59727800D03*
D26*
X67945000Y-75856600D03*
D54*
X62610800Y-80956600D03*
X64060800Y-80956600D03*
D50*
X102064000Y-80784200D03*
D51*
X102364000Y-83658200D03*
D50*
X102664000Y-80784200D03*
D51*
X102964000Y-83658200D03*
D50*
X103264000Y-80784200D03*
D51*
X103564000Y-83658200D03*
D50*
X103864000Y-80784200D03*
D51*
X104164000Y-83658200D03*
D50*
X104464000Y-80784200D03*
D51*
X104764000Y-83658200D03*
D50*
X105064000Y-80784200D03*
D51*
X105364000Y-83658200D03*
D50*
X105664000Y-80784200D03*
D51*
X105964000Y-83658200D03*
D50*
X106264000Y-80784200D03*
D51*
X106564000Y-83658200D03*
D50*
X106864000Y-80784200D03*
D51*
X107164000Y-83658200D03*
D50*
X107464000Y-80784200D03*
D51*
X107764000Y-83658200D03*
D50*
X108064000Y-80784200D03*
D51*
X108364000Y-83658200D03*
D50*
X108664000Y-80784200D03*
D51*
X108964000Y-83658200D03*
D50*
X109264000Y-80784200D03*
D52*
X101364000Y-81058200D03*
X109964000Y-81058200D03*
D26*
X99187000Y-52463200D03*
X107315000Y-52463200D03*
D32*
X58750800Y-76638600D03*
X60300800Y-76638600D03*
D65*
X116985400Y-64897000D03*
X119285400Y-64897000D03*
D26*
X68961000Y-83425800D03*
X135128000Y-52463200D03*
D47*
X79006200Y-84201000D03*
X77356200Y-84201000D03*
D32*
X54632200Y-83496600D03*
X56182200Y-83496600D03*
D63*
X101473000Y-64328000D03*
X101473000Y-66228000D03*
D26*
X73126600Y-83425800D03*
D34*
X65875800Y-76397600D03*
X65875800Y-74847600D03*
D66*
X122462000Y-75069200D03*
X120362000Y-75069200D03*
D39*
X56845100Y-93079200D03*
D40*
X53971100Y-93379200D03*
D39*
X56845100Y-93679200D03*
D40*
X53971100Y-93979200D03*
D39*
X56845100Y-94279200D03*
D40*
X53971100Y-94579200D03*
D39*
X56845100Y-94879200D03*
D40*
X53971100Y-95179200D03*
D39*
X56845100Y-95479200D03*
D40*
X53971100Y-95779200D03*
D39*
X56845100Y-96079200D03*
D40*
X53971100Y-96379200D03*
D39*
X56845100Y-96679200D03*
D40*
X53971100Y-96979200D03*
D39*
X56845100Y-97279200D03*
D40*
X53971100Y-97579200D03*
D39*
X56845100Y-97879200D03*
D40*
X53971100Y-98179200D03*
D39*
X56845100Y-98479200D03*
D40*
X53971100Y-98779200D03*
D39*
X56845100Y-99079200D03*
D40*
X53971100Y-99379200D03*
D39*
X56845100Y-99679200D03*
D40*
X53971100Y-99979200D03*
D39*
X56845100Y-100279200D03*
D41*
X56571100Y-92379200D03*
X56571100Y-100979200D03*
D26*
X68961000Y-81343000D03*
D33*
X118750500Y-77294200D03*
X118750500Y-78244200D03*
X118750500Y-79194200D03*
X121025500Y-79194200D03*
X121025500Y-78244200D03*
X121025500Y-77294200D03*
D26*
X97155000Y-52463200D03*
D32*
X54622400Y-75043800D03*
X56172400Y-75043800D03*
D35*
X136188600Y-58100800D03*
D36*
X136988600Y-58100800D03*
X137788600Y-58100800D03*
D35*
X138588600Y-58100800D03*
X138588600Y-56300800D03*
D36*
X137788600Y-56300800D03*
X136988600Y-56300800D03*
D35*
X136188600Y-56300800D03*
D47*
X122389400Y-72364600D03*
X120739400Y-72364600D03*
D34*
X116713000Y-78765200D03*
X116713000Y-77215200D03*
D38*
X100241600Y-74193400D03*
X101891600Y-74193400D03*
D29*
X90514000Y-83895200D03*
X90514000Y-82245200D03*
D67*
X119123700Y-72390000D03*
X117248700Y-72390000D03*
D26*
X109347000Y-52463200D03*
D67*
X101877100Y-75996800D03*
X100002100Y-75996800D03*
D27*
X98412600Y-82143600D03*
X96862600Y-82143600D03*
D26*
X125476000Y-52463200D03*
X121386600Y-52476400D03*
D29*
X122097800Y-58279800D03*
X122097800Y-56629800D03*
D26*
X137160000Y-52463200D03*
D64*
X110363000Y-59397400D03*
X110363000Y-61222400D03*
D68*
X121348600Y-64184900D03*
X121848600Y-64184900D03*
X122348600Y-64184900D03*
X122848600Y-64184900D03*
X123348600Y-64184900D03*
X123848600Y-64184900D03*
D69*
X124586100Y-63447400D03*
X124586100Y-62947400D03*
X124586100Y-62447400D03*
X124586100Y-61947400D03*
X124586100Y-61447400D03*
X124586100Y-60947400D03*
D68*
X123848600Y-60209900D03*
X123348600Y-60209900D03*
X122848600Y-60209900D03*
X122348600Y-60209900D03*
X121848600Y-60209900D03*
X121348600Y-60209900D03*
D69*
X120611100Y-60947400D03*
X120611100Y-61447400D03*
X120611100Y-61947400D03*
X120611100Y-62447400D03*
X120611100Y-62947400D03*
X120611100Y-63447400D03*
D70*
X122598600Y-62197400D03*
D71*
X56275600Y-77279000D03*
X54925600Y-77279000D03*
D47*
X56029000Y-81718600D03*
X54379000Y-81718600D03*
X84264000Y-74930000D03*
X82614000Y-74930000D03*
X64160800Y-76638600D03*
X62510800Y-76638600D03*
D27*
X64300400Y-78422000D03*
X62750400Y-78422000D03*
D25*
X80822800Y-78587600D03*
X79522800Y-78587600D03*
D27*
X98539600Y-70281801D03*
X96989600Y-70281801D03*
D34*
X121564400Y-68262800D03*
X121564400Y-66712800D03*
D32*
X123126200Y-65760600D03*
X124676200Y-65760600D03*
D35*
X132404000Y-59880000D03*
D36*
X133204000Y-59880000D03*
X134004000Y-59880000D03*
D35*
X134804000Y-59880000D03*
X134804000Y-58080000D03*
D36*
X134004000Y-58080000D03*
X133204000Y-58080000D03*
D35*
X132404000Y-58080000D03*
%LPD*%
M02*
