G04 #@! TF.GenerationSoftware,KiCad,Pcbnew,7.0.1*
G04 #@! TF.CreationDate,2023-07-06T21:39:26+03:00*
G04 #@! TF.ProjectId,ssd2828_board,73736432-3832-4385-9f62-6f6172642e6b,rev?*
G04 #@! TF.SameCoordinates,Original*
G04 #@! TF.FileFunction,Copper,L4,Bot*
G04 #@! TF.FilePolarity,Positive*
%FSLAX46Y46*%
G04 Gerber Fmt 4.6, Leading zero omitted, Abs format (unit mm)*
G04 Created by KiCad (PCBNEW 7.0.1) date 2023-07-06 21:39:26*
%MOMM*%
%LPD*%
G01*
G04 APERTURE LIST*
G04 Aperture macros list*
%AMRoundRect*
0 Rectangle with rounded corners*
0 $1 Rounding radius*
0 $2 $3 $4 $5 $6 $7 $8 $9 X,Y pos of 4 corners*
0 Add a 4 corners polygon primitive as box body*
4,1,4,$2,$3,$4,$5,$6,$7,$8,$9,$2,$3,0*
0 Add four circle primitives for the rounded corners*
1,1,$1+$1,$2,$3*
1,1,$1+$1,$4,$5*
1,1,$1+$1,$6,$7*
1,1,$1+$1,$8,$9*
0 Add four rect primitives between the rounded corners*
20,1,$1+$1,$2,$3,$4,$5,0*
20,1,$1+$1,$4,$5,$6,$7,0*
20,1,$1+$1,$6,$7,$8,$9,0*
20,1,$1+$1,$8,$9,$2,$3,0*%
G04 Aperture macros list end*
G04 #@! TA.AperFunction,SMDPad,CuDef*
%ADD10RoundRect,0.225000X-0.017678X0.335876X-0.335876X0.017678X0.017678X-0.335876X0.335876X-0.017678X0*%
G04 #@! TD*
G04 #@! TA.AperFunction,SMDPad,CuDef*
%ADD11RoundRect,0.225000X-0.250000X0.225000X-0.250000X-0.225000X0.250000X-0.225000X0.250000X0.225000X0*%
G04 #@! TD*
G04 #@! TA.AperFunction,SMDPad,CuDef*
%ADD12RoundRect,0.225000X0.017678X-0.335876X0.335876X-0.017678X-0.017678X0.335876X-0.335876X0.017678X0*%
G04 #@! TD*
G04 #@! TA.AperFunction,SMDPad,CuDef*
%ADD13RoundRect,0.225000X-0.225000X-0.250000X0.225000X-0.250000X0.225000X0.250000X-0.225000X0.250000X0*%
G04 #@! TD*
G04 #@! TA.AperFunction,ViaPad*
%ADD14C,0.450000*%
G04 #@! TD*
G04 #@! TA.AperFunction,Conductor*
%ADD15C,0.200000*%
G04 #@! TD*
G04 #@! TA.AperFunction,Conductor*
%ADD16C,0.166000*%
G04 #@! TD*
G04 #@! TA.AperFunction,Conductor*
%ADD17C,0.350000*%
G04 #@! TD*
G04 #@! TA.AperFunction,Conductor*
%ADD18C,0.300000*%
G04 #@! TD*
G04 APERTURE END LIST*
D10*
X71718808Y-86116792D03*
X70622792Y-87212808D03*
D11*
X118237000Y-72885000D03*
X118237000Y-74435000D03*
X119888000Y-72885000D03*
X119888000Y-74435000D03*
D12*
X73010392Y-70652008D03*
X74106408Y-69555992D03*
X76363192Y-74004808D03*
X77459208Y-72908792D03*
X75296392Y-72938008D03*
X76392408Y-71841992D03*
D13*
X114300000Y-78740000D03*
X115850000Y-78740000D03*
D12*
X79258792Y-76900408D03*
X80354808Y-75804392D03*
D13*
X114300000Y-77136000D03*
X115850000Y-77136000D03*
D10*
X67908808Y-82154392D03*
X66812792Y-83250408D03*
X70601208Y-84999192D03*
X69505192Y-86095208D03*
D12*
X74178792Y-71820408D03*
X75274808Y-70724392D03*
D10*
X66791208Y-81036792D03*
X65695192Y-82132808D03*
D12*
X78141192Y-75782808D03*
X79237208Y-74686792D03*
D14*
X106916090Y-101158307D03*
X103174800Y-101244400D03*
X99831818Y-101225563D03*
X133858000Y-101117400D03*
X129565400Y-101142800D03*
X126187200Y-101092000D03*
X52095400Y-87325200D03*
X57353200Y-88823800D03*
X50024272Y-87258608D03*
X49999051Y-83349367D03*
X49961800Y-80289400D03*
X50074714Y-69023893D03*
X49987200Y-73456800D03*
X50024272Y-77649443D03*
X75158600Y-71729600D03*
X79171800Y-75742800D03*
X76555600Y-68376800D03*
X79425800Y-68148200D03*
X81889600Y-70967600D03*
X81915000Y-73431400D03*
X132943600Y-98552000D03*
X99847400Y-90754200D03*
X137998200Y-84836000D03*
X127533400Y-84429600D03*
X50500000Y-95200000D03*
X99300000Y-77300000D03*
X58953400Y-90398600D03*
X57200800Y-72644000D03*
X59842400Y-86664800D03*
X57023000Y-77825600D03*
X139000000Y-73700000D03*
X136474200Y-86309200D03*
X86791800Y-90220800D03*
X107506000Y-81889600D03*
X55397400Y-75869800D03*
X57175400Y-70916800D03*
X52374800Y-73964800D03*
X60350400Y-100076000D03*
X93100000Y-91100000D03*
X113817400Y-70485000D03*
X114706400Y-72745600D03*
X90029924Y-93025598D03*
X71018400Y-100584000D03*
X57226200Y-75792314D03*
X102489000Y-97917000D03*
X62484000Y-93167200D03*
X124612400Y-97332800D03*
X119380000Y-82575400D03*
X56616600Y-83210400D03*
X53900000Y-79500000D03*
X70561200Y-77749400D03*
X109169200Y-98933000D03*
X109093000Y-72085200D03*
X139300000Y-93100000D03*
X99100000Y-82854800D03*
X110000000Y-89600000D03*
X131400000Y-95600000D03*
X123100000Y-100800000D03*
X52222400Y-69037200D03*
X89992200Y-95783400D03*
X67462400Y-100634800D03*
X124002800Y-77114400D03*
X112900000Y-73100000D03*
X129700000Y-95600000D03*
X92964000Y-77698600D03*
X51003200Y-80721200D03*
X55600600Y-70916800D03*
X133200000Y-95600000D03*
X57099200Y-68935600D03*
X112900000Y-68700000D03*
X137938057Y-94804258D03*
X62433200Y-99771200D03*
X113969800Y-95504000D03*
X82550000Y-96672400D03*
X52171600Y-76631800D03*
X50400000Y-90700000D03*
X95046800Y-97028000D03*
X120167400Y-99568000D03*
X73736200Y-95072200D03*
X131292600Y-98526600D03*
X72720200Y-75488800D03*
X107061000Y-97967800D03*
X126300000Y-95600000D03*
X109200000Y-69100000D03*
X58699400Y-82626200D03*
X109900000Y-82400000D03*
X65000000Y-67600000D03*
X57226200Y-78841600D03*
X72593200Y-72948800D03*
X120600000Y-71100000D03*
X122326400Y-73710800D03*
X105613200Y-82296000D03*
X104698800Y-95402400D03*
X59000000Y-67600000D03*
X81864200Y-90068400D03*
X126085600Y-94234000D03*
X93370400Y-85877400D03*
X57708800Y-100482400D03*
X104384400Y-74371200D03*
X127990600Y-93853000D03*
X128549400Y-98628200D03*
X72034400Y-76225400D03*
X132080000Y-86670000D03*
X87700000Y-67500000D03*
X78689200Y-100634800D03*
X100584000Y-95402400D03*
X52349400Y-75234800D03*
X80772000Y-74523600D03*
X56032400Y-96723200D03*
X55473600Y-77495400D03*
X80000000Y-89100000D03*
X85623400Y-67767200D03*
X75946000Y-94488000D03*
X116052600Y-86614000D03*
X113309400Y-86995000D03*
X129184400Y-82423000D03*
X62300000Y-101400000D03*
X136700000Y-100600000D03*
X123600000Y-89200000D03*
X124100000Y-84100000D03*
X55880000Y-67767200D03*
X135100000Y-95600000D03*
X104724200Y-93649800D03*
X126060200Y-98780600D03*
X60655200Y-82626200D03*
X59182000Y-88976200D03*
X92913200Y-88214200D03*
X102565200Y-93878400D03*
X135833000Y-76485600D03*
X60579000Y-95046800D03*
X128000000Y-95600000D03*
X92900000Y-96000000D03*
X135051800Y-93878400D03*
X84000000Y-101500000D03*
X93573600Y-75717400D03*
X68580000Y-93726000D03*
X54100000Y-101400000D03*
X113300000Y-89600000D03*
X126502395Y-73091960D03*
X123926600Y-71399400D03*
X132340000Y-84930000D03*
X124100000Y-93100000D03*
X107061000Y-93675200D03*
X116600000Y-100300000D03*
X62687200Y-85801200D03*
X109601000Y-78714600D03*
X106984800Y-95351600D03*
X50850800Y-89052400D03*
X89611200Y-98856800D03*
X128701800Y-85775800D03*
X62128400Y-90982800D03*
X132360000Y-83880000D03*
X106730800Y-82194400D03*
X52120800Y-71145400D03*
X68986400Y-85344000D03*
X57226200Y-74193400D03*
X96799400Y-98171000D03*
X53000000Y-68100000D03*
X109800000Y-94500000D03*
X134823200Y-98526600D03*
X133197600Y-93853000D03*
X85242400Y-72136000D03*
X71227042Y-77032758D03*
X138600000Y-81700000D03*
X129946400Y-98628200D03*
X138200000Y-77200000D03*
X120751600Y-98196400D03*
X113868200Y-99187000D03*
X126314200Y-97739200D03*
X66268600Y-83870800D03*
X73025000Y-67665600D03*
X108900000Y-101100000D03*
X136550400Y-79654400D03*
X109982000Y-85699600D03*
X132360000Y-81780000D03*
X125100000Y-82600000D03*
X81051400Y-69494400D03*
X125958600Y-76200000D03*
X115138200Y-97993200D03*
X56692800Y-86055200D03*
X54508400Y-94806400D03*
X81915000Y-91414600D03*
X129616200Y-76524000D03*
X51181000Y-100203000D03*
X75895200Y-69596000D03*
X72900000Y-101100000D03*
X93421200Y-83007200D03*
X96697800Y-92405200D03*
X83769200Y-98501200D03*
X55549800Y-72593200D03*
X74295000Y-75565000D03*
X52476400Y-72542400D03*
X88900000Y-100900000D03*
X96631911Y-101370334D03*
X57200800Y-91541600D03*
X53187600Y-77927200D03*
X56540400Y-79552800D03*
X104006000Y-81889600D03*
X64770000Y-93675200D03*
X55473600Y-74218800D03*
X98399600Y-97688400D03*
X50500000Y-92800000D03*
X132390000Y-82830000D03*
X75641200Y-100330000D03*
X65500000Y-101400000D03*
X93141800Y-99568000D03*
X76900000Y-101300000D03*
X139600000Y-89000000D03*
X137300000Y-97200000D03*
X102819200Y-95402400D03*
X133400000Y-89110000D03*
X139600000Y-85400000D03*
X101701600Y-95402400D03*
X138100000Y-70100000D03*
X114223800Y-82270600D03*
X72034400Y-93116400D03*
X74200000Y-93300000D03*
X59000000Y-101200000D03*
X104724200Y-97993200D03*
X64668400Y-85191600D03*
X75463400Y-74295000D03*
X63957200Y-87528400D03*
X73990200Y-73101200D03*
X52527200Y-97586800D03*
X69240400Y-79273400D03*
X72085200Y-84988400D03*
X65252600Y-99771200D03*
X64160400Y-91516200D03*
X69799200Y-78486000D03*
X74777600Y-73837800D03*
X76860400Y-75793600D03*
X71018400Y-84048600D03*
X72745600Y-96824800D03*
X97764600Y-90652600D03*
X86410800Y-98882200D03*
X55270400Y-79349600D03*
X85902800Y-99415600D03*
X55219600Y-93141800D03*
X71475600Y-96824800D03*
X55143400Y-92227400D03*
X55270400Y-78536800D03*
X85801200Y-98348800D03*
X58420000Y-96621600D03*
X117957600Y-88950800D03*
X115697000Y-84709000D03*
X123088400Y-84886800D03*
X123190000Y-90424000D03*
X72085200Y-97282000D03*
X97332800Y-86791800D03*
X57454800Y-96824800D03*
X59843800Y-91490800D03*
X54457600Y-95631000D03*
X59080400Y-94589600D03*
X54229000Y-96443800D03*
X98069400Y-99745800D03*
X51562000Y-79248000D03*
X125806200Y-99644200D03*
X79248000Y-98094800D03*
X78841600Y-97485200D03*
X132105400Y-87706200D03*
X78841600Y-98856800D03*
X102971600Y-79095600D03*
X51562000Y-78282800D03*
X57277000Y-82219800D03*
X67640200Y-78765400D03*
X67411600Y-79552800D03*
X52222400Y-84023200D03*
X70358000Y-80568800D03*
X65989200Y-85496400D03*
X62255400Y-86868000D03*
X67056000Y-85648800D03*
X70637400Y-83312000D03*
X71450200Y-81559400D03*
X83464400Y-87731600D03*
X72013886Y-82300886D03*
X84124800Y-88239600D03*
X73380600Y-83439000D03*
X84886800Y-88646000D03*
X76911200Y-90474800D03*
X75996800Y-77368400D03*
X52806600Y-69704000D03*
X56388000Y-69704000D03*
X56388000Y-70504000D03*
X52806600Y-70504000D03*
X53205903Y-71355000D03*
X56388000Y-71355000D03*
X53205903Y-72155000D03*
X56388000Y-72155000D03*
X56388000Y-73006000D03*
X53213000Y-73006000D03*
X56388000Y-73806000D03*
X53213000Y-73806000D03*
X56388000Y-74657000D03*
X53203998Y-74657000D03*
X53203998Y-75457000D03*
X56388000Y-75457000D03*
X56388000Y-76308000D03*
X53004840Y-76308000D03*
X53004840Y-77108000D03*
X56388000Y-77108000D03*
X117779800Y-83947000D03*
X117551200Y-77470000D03*
X117754400Y-76657200D03*
X118783100Y-83908900D03*
X69494400Y-97840800D03*
X82550000Y-95758000D03*
X83769200Y-91541600D03*
X103232000Y-94462600D03*
X103232000Y-97561400D03*
X107569000Y-69494400D03*
X103987600Y-79857600D03*
X104032000Y-97561400D03*
X104032000Y-94462600D03*
X98298000Y-75234800D03*
X105308400Y-81457800D03*
X105441800Y-97612200D03*
X105441800Y-94411800D03*
X106172000Y-81483200D03*
X95400000Y-71700000D03*
X106241800Y-97612200D03*
X106241800Y-94411800D03*
X65227200Y-98729800D03*
X59029600Y-93522800D03*
X63246000Y-99847400D03*
X55016400Y-96774000D03*
X96900000Y-97000000D03*
X98000000Y-78800000D03*
X98000000Y-82900000D03*
X98044000Y-71932800D03*
X104587600Y-76809600D03*
X94538800Y-84886800D03*
X127635000Y-94615000D03*
X127635000Y-98425000D03*
X126835000Y-94615000D03*
X126835000Y-98425000D03*
X129794000Y-83760000D03*
X129209800Y-97790000D03*
X129794000Y-82960000D03*
X128409800Y-97790000D03*
X130962400Y-97790000D03*
X128933843Y-84991843D03*
X128368157Y-84426157D03*
X130162400Y-97790000D03*
X131807000Y-97799002D03*
X136623157Y-85499843D03*
X132607000Y-97799002D03*
X137188843Y-84934157D03*
X133448157Y-97888157D03*
X133712000Y-94615000D03*
X134512000Y-94615000D03*
X134013843Y-98453843D03*
X132511800Y-80111600D03*
X121158000Y-90576400D03*
X121767600Y-69697600D03*
X134518400Y-71374000D03*
X127711200Y-72694800D03*
X124129800Y-69545200D03*
X117729000Y-97307400D03*
X132689600Y-79298800D03*
X119100600Y-96215200D03*
X132130800Y-70561200D03*
X113080800Y-76047600D03*
X113538000Y-81432400D03*
X115798600Y-69316600D03*
X134130000Y-87840000D03*
X121259600Y-72542400D03*
X118491000Y-69824600D03*
X132600000Y-85800000D03*
X126847600Y-75234800D03*
D15*
X98000000Y-82500000D02*
X98000000Y-82900000D01*
X98800000Y-81700000D02*
X98000000Y-82500000D01*
X94300000Y-73600000D02*
X98800000Y-78100000D01*
X98800000Y-78100000D02*
X98800000Y-81700000D01*
X94300000Y-71500000D02*
X94300000Y-73600000D01*
X94900000Y-70900000D02*
X94300000Y-71500000D01*
X98044000Y-71932800D02*
X97011200Y-70900000D01*
X97011200Y-70900000D02*
X94900000Y-70900000D01*
X105689400Y-79756000D02*
X105308400Y-80137000D01*
X105029000Y-75260200D02*
X105689400Y-75920600D01*
X98323400Y-75260200D02*
X105029000Y-75260200D01*
X98298000Y-75234800D02*
X98323400Y-75260200D01*
X105689400Y-75920600D02*
X105689400Y-79756000D01*
X105308400Y-80137000D02*
X105308400Y-81457800D01*
D16*
X127533993Y-87254010D02*
G75*
G03*
X127826893Y-87961117I1000007J10D01*
G01*
X130715400Y-91263838D02*
X130715400Y-97335893D01*
X128933843Y-84991843D02*
X128791639Y-84991843D01*
X128022588Y-88156812D02*
X128022587Y-88156812D01*
X128022587Y-88770582D02*
X128022587Y-88770581D01*
X128791639Y-84991858D02*
G75*
G03*
X128438085Y-85138290I-39J-499942D01*
G01*
X128438085Y-85138290D02*
X127826893Y-85749482D01*
X127826893Y-87961117D02*
X128022588Y-88156812D01*
X127826899Y-85749488D02*
G75*
G03*
X127534000Y-86456589I707101J-707112D01*
G01*
X127534000Y-86456589D02*
X127534000Y-87254010D01*
X129387485Y-88381488D02*
G75*
G03*
X128773766Y-88381437I-306885J-306812D01*
G01*
X128022590Y-88770585D02*
G75*
G03*
X128022587Y-88156812I-306890J306885D01*
G01*
X128022587Y-88770581D02*
X127849826Y-88943341D01*
X127849877Y-88943392D02*
G75*
G03*
X127849828Y-89124359I90423J-90508D01*
G01*
X127849827Y-89124360D02*
X127849826Y-89124360D01*
X127849791Y-89124395D02*
G75*
G03*
X128030845Y-89124359I90509J90495D01*
G01*
X128030845Y-89124359D02*
X128030845Y-89124360D01*
X128644592Y-89919167D02*
G75*
G03*
X128825628Y-89919147I90508J90567D01*
G01*
X128030845Y-89124360D02*
X128773765Y-88381436D01*
X128825629Y-89919148D02*
X128825629Y-89919149D01*
X129387512Y-88995185D02*
G75*
G03*
X129387535Y-88381438I-306912J306885D01*
G01*
X129387534Y-88995207D02*
X129387535Y-88995206D01*
X129387535Y-88995206D02*
X128644610Y-89738130D01*
X128644570Y-89738090D02*
G75*
G03*
X128644609Y-89919149I90530J-90510D01*
G01*
X130009583Y-89962790D02*
G75*
G03*
X130009554Y-90143781I90517J-90510D01*
G01*
X128644609Y-89919149D02*
X128644610Y-89919149D01*
X128825629Y-89919149D02*
X129568528Y-89176247D01*
X130182286Y-89176261D02*
G75*
G03*
X129568528Y-89176247I-306886J-306839D01*
G01*
X130182265Y-89789984D02*
G75*
G03*
X130182298Y-89176249I-306865J306884D01*
G01*
X130182299Y-89790018D02*
X130182297Y-89790017D01*
X130182297Y-89790017D02*
X130009554Y-89962761D01*
X130009554Y-90143781D02*
X130009553Y-90143779D01*
X130009553Y-90143779D02*
X130422507Y-90556731D01*
X130715373Y-91263838D02*
G75*
G03*
X130422507Y-90556731I-999973J38D01*
G01*
X130715405Y-97335893D02*
G75*
G03*
X130861847Y-97689447I499995J-7D01*
G01*
X130861847Y-97689447D02*
X130962400Y-97790000D01*
X131907554Y-97698448D02*
X131807000Y-97799002D01*
X132054000Y-93975238D02*
X132054000Y-97344895D01*
X133411738Y-92203283D02*
X132346893Y-93268131D01*
X133243154Y-91672662D02*
X133243155Y-91672662D01*
X133773777Y-91841244D02*
X133773778Y-91841246D01*
X133773777Y-91841245D02*
X133773777Y-91841244D01*
X133605223Y-91491671D02*
X133773777Y-91660225D01*
X133954797Y-91479207D02*
X133786242Y-91310652D01*
X135299285Y-91179472D02*
X135174305Y-91054492D01*
X134560537Y-91054491D02*
X134135817Y-91479207D01*
X135299287Y-91179471D02*
X135299285Y-91179472D01*
X135156626Y-90674772D02*
X135156626Y-90674775D01*
X134560537Y-91054492D02*
X134560537Y-91054491D01*
X134832910Y-90351056D02*
X135048438Y-90566584D01*
X136094122Y-90384733D02*
X135446679Y-89737288D01*
X136275143Y-90384731D02*
X136275142Y-90384733D01*
X135156626Y-90674775D02*
X135480305Y-90998451D01*
X136150112Y-90078683D02*
X136275142Y-90203713D01*
X136275141Y-90384732D02*
X136275143Y-90384731D01*
X136150113Y-90078683D02*
X136150112Y-90078683D01*
X137653907Y-87961117D02*
X136150112Y-89464912D01*
X135048438Y-90566584D02*
X135156626Y-90674772D01*
X137946800Y-86888389D02*
X137946800Y-87254010D01*
X137118914Y-85646289D02*
X137653907Y-86181282D01*
X131907556Y-97698450D02*
G75*
G03*
X132054000Y-97344895I-353556J353550D01*
G01*
X132346874Y-93268112D02*
G75*
G03*
X132054000Y-93975238I707126J-707088D01*
G01*
X133243184Y-91672691D02*
G75*
G03*
X133243155Y-91853680I90516J-90509D01*
G01*
X133424173Y-91672663D02*
G75*
G03*
X133243155Y-91672663I-90509J-90511D01*
G01*
X133773742Y-91841210D02*
G75*
G03*
X133773777Y-91660225I-90442J90510D01*
G01*
X133605263Y-91310692D02*
G75*
G03*
X133605224Y-91491669I90437J-90508D01*
G01*
X133592759Y-91841245D02*
G75*
G03*
X133773777Y-91841245I90509J90511D01*
G01*
X133786241Y-91310653D02*
G75*
G03*
X133605223Y-91310653I-90509J-90511D01*
G01*
X133954798Y-91479206D02*
G75*
G03*
X134135816Y-91479206I90509J90511D01*
G01*
X136094123Y-90384734D02*
X136094122Y-90384733D01*
X135174305Y-91054492D02*
G75*
G03*
X134560537Y-91054492I-306884J-306882D01*
G01*
X133411764Y-92203310D02*
G75*
G03*
X133411738Y-92022264I-90564J90510D01*
G01*
X133605223Y-91491670D02*
X133605223Y-91491671D01*
X135299288Y-91179470D02*
G75*
G03*
X135480304Y-91179470I90508J90505D01*
G01*
X135480344Y-91179510D02*
G75*
G03*
X135480305Y-90998451I-90544J90510D01*
G01*
X136275118Y-90384709D02*
G75*
G03*
X136275141Y-90203714I-90518J90509D01*
G01*
X133411738Y-92203284D02*
X133411738Y-92203283D01*
X136150116Y-89464916D02*
G75*
G03*
X136150114Y-90078682I306884J-306884D01*
G01*
X136150112Y-89464912D02*
X136150113Y-89464913D01*
X137653902Y-87961112D02*
G75*
G03*
X137946800Y-87254010I-707102J707112D01*
G01*
X135446685Y-89737282D02*
G75*
G03*
X134832910Y-89737287I-306885J-306918D01*
G01*
X136623157Y-85499843D02*
X136765361Y-85499843D01*
X133592758Y-91841246D02*
X133424174Y-91672662D01*
X137118924Y-85646279D02*
G75*
G03*
X136765361Y-85499843I-353524J-353521D01*
G01*
X137946808Y-86888389D02*
G75*
G03*
X137653907Y-86181282I-1000008J-11D01*
G01*
X136094091Y-90384766D02*
G75*
G03*
X136275142Y-90384733I90509J90566D01*
G01*
X133605222Y-91310652D02*
X133605223Y-91310652D01*
X133243155Y-91853680D02*
X133243155Y-91853681D01*
X134832939Y-89737317D02*
G75*
G03*
X134832911Y-90351055I306861J-306883D01*
G01*
X134832910Y-89737287D02*
X134832910Y-89737288D01*
X133243155Y-91853681D02*
X133411738Y-92022264D01*
X125896493Y-84657283D02*
X126747883Y-83805893D01*
X125603600Y-85662200D02*
X125603600Y-85364390D01*
X125876848Y-85790200D02*
X125731600Y-85790200D01*
X125731600Y-86558200D02*
X125876850Y-86558200D01*
X125876848Y-86814200D02*
X125731600Y-86814200D01*
X126104888Y-89007712D02*
X125896493Y-88799317D01*
X126104887Y-89007712D02*
X126104888Y-89007712D01*
X126104887Y-89621481D02*
X126104887Y-89621482D01*
X126162745Y-89925660D02*
X126162745Y-89925659D01*
X125603600Y-88092210D02*
X125603600Y-87198200D01*
X126285905Y-89802499D02*
X126162745Y-89925660D01*
X126899674Y-89802499D02*
X126899674Y-89802500D01*
X125981726Y-89744641D02*
X126104887Y-89621481D01*
X126899675Y-89802500D02*
X126899674Y-89802499D01*
X129693446Y-83659446D02*
X129794000Y-83760000D01*
X126899675Y-90416269D02*
X126899675Y-90416270D01*
X127454990Y-83513000D02*
X127523376Y-83513000D01*
X126776584Y-90720378D02*
X126776585Y-90720378D01*
X127523376Y-83513000D02*
X129339893Y-83513000D01*
X127080693Y-90597287D02*
X126957603Y-90720378D01*
X127694462Y-90597287D02*
X127694462Y-90597288D01*
X128962800Y-97335893D02*
X128962800Y-92279838D01*
X129209800Y-97790000D02*
X129109247Y-97689447D01*
X127454990Y-83512993D02*
G75*
G03*
X126747883Y-83805893I10J-1000007D01*
G01*
X125896498Y-84657288D02*
G75*
G03*
X125603600Y-85364390I707102J-707112D01*
G01*
X125731600Y-86046200D02*
X125876848Y-86046200D01*
X126004800Y-85918200D02*
G75*
G03*
X125876848Y-85790200I-128000J0D01*
G01*
X125603600Y-85662200D02*
G75*
G03*
X125731600Y-85790200I128000J0D01*
G01*
X125731600Y-87070200D02*
X125876848Y-87070200D01*
X125876848Y-86046248D02*
G75*
G03*
X126004848Y-85918200I-48J128048D01*
G01*
X125603600Y-86174200D02*
G75*
G03*
X125731600Y-86302200I128000J0D01*
G01*
X128669907Y-91572731D02*
X127694462Y-90597287D01*
X125876850Y-86302200D02*
X125731600Y-86302200D01*
X126004900Y-86430200D02*
G75*
G03*
X125876850Y-86302200I-128000J0D01*
G01*
X125876850Y-86558150D02*
G75*
G03*
X126004850Y-86430200I50J127950D01*
G01*
X125731600Y-86558200D02*
G75*
G03*
X125603600Y-86686200I0J-128000D01*
G01*
X129693449Y-83659443D02*
G75*
G03*
X129339893Y-83513000I-353549J-353557D01*
G01*
X125603600Y-86686200D02*
G75*
G03*
X125731600Y-86814200I128000J0D01*
G01*
X126004800Y-86942200D02*
G75*
G03*
X125876848Y-86814200I-128000J0D01*
G01*
X125603593Y-88092210D02*
G75*
G03*
X125896493Y-88799317I1000007J10D01*
G01*
X125731600Y-86046200D02*
G75*
G03*
X125603600Y-86174200I0J-128000D01*
G01*
X125981777Y-89744692D02*
G75*
G03*
X125981728Y-89925659I90423J-90508D01*
G01*
X125981691Y-89925695D02*
G75*
G03*
X126162745Y-89925659I90509J90495D01*
G01*
X126899690Y-90416285D02*
G75*
G03*
X126899675Y-89802500I-306890J306885D01*
G01*
X125731600Y-87070200D02*
G75*
G03*
X125603600Y-87198200I0J-128000D01*
G01*
X125981726Y-89925660D02*
X125981727Y-89925660D01*
X126776591Y-90720371D02*
G75*
G03*
X126957603Y-90720377I90509J90471D01*
G01*
X126104890Y-89621485D02*
G75*
G03*
X126104887Y-89007712I-306890J306885D01*
G01*
X126776616Y-90539391D02*
G75*
G03*
X126776585Y-90720378I90484J-90509D01*
G01*
X125876848Y-87070248D02*
G75*
G03*
X126004848Y-86942200I-48J128048D01*
G01*
X126776584Y-90539359D02*
X126899675Y-90416269D01*
X127694485Y-90597265D02*
G75*
G03*
X127080693Y-90597287I-306885J-306935D01*
G01*
X128962805Y-97335893D02*
G75*
G03*
X129109247Y-97689447I499995J-7D01*
G01*
X126899685Y-89802489D02*
G75*
G03*
X126285905Y-89802499I-306885J-306911D01*
G01*
X128962773Y-92279838D02*
G75*
G03*
X128669907Y-91572731I-999973J38D01*
G01*
X126957603Y-90720378D02*
X126957603Y-90720377D01*
X132506446Y-97698448D02*
X132607000Y-97799002D01*
X132360000Y-94101990D02*
X132360000Y-97344895D01*
X134776911Y-91270865D02*
X134776911Y-91270866D01*
X135082911Y-91395845D02*
X134957931Y-91270865D01*
X135571700Y-90657095D02*
X135696679Y-90782077D01*
X135049285Y-90134682D02*
X135571700Y-90657095D01*
X135049285Y-90134681D02*
X135049285Y-90134682D01*
X135049285Y-89953662D02*
X135049285Y-89953663D01*
X134776911Y-91270866D02*
X132652893Y-93394883D01*
X135877748Y-90601107D02*
X135230304Y-89953663D01*
X135877749Y-90601107D02*
X135877748Y-90601107D01*
X136491517Y-90601106D02*
X136491518Y-90601106D01*
X136491516Y-90601107D02*
X136491517Y-90601106D01*
X136366487Y-89862308D02*
X136491517Y-89987338D01*
X136366488Y-89862308D02*
X136366487Y-89862308D01*
X137335289Y-85429914D02*
X137959907Y-86054532D01*
X132652898Y-93394888D02*
G75*
G03*
X132360000Y-94101990I707102J-707112D01*
G01*
X134957930Y-91270866D02*
G75*
G03*
X134776912Y-91270866I-90509J-90511D01*
G01*
X132360004Y-97344895D02*
G75*
G03*
X132506446Y-97698448I499996J-5D01*
G01*
X135082911Y-91395845D02*
G75*
G03*
X135696679Y-91395845I306884J306882D01*
G01*
X135877716Y-90601140D02*
G75*
G03*
X136491518Y-90601106I306884J306940D01*
G01*
X135230309Y-89953658D02*
G75*
G03*
X135049286Y-89953663I-90509J-90542D01*
G01*
X136491494Y-90601085D02*
G75*
G03*
X136491517Y-89987338I-306894J306885D01*
G01*
X137188843Y-84934157D02*
X137188843Y-85076361D01*
X137959926Y-88087888D02*
G75*
G03*
X138252800Y-87380762I-707126J707088D01*
G01*
X137959907Y-88087869D02*
X136366488Y-89681288D01*
X138252772Y-86761639D02*
G75*
G03*
X137959906Y-86054533I-999972J39D01*
G01*
X135049313Y-89953691D02*
G75*
G03*
X135049285Y-90134681I90487J-90509D01*
G01*
X138252800Y-86761639D02*
X138252800Y-87380762D01*
X135696718Y-91395884D02*
G75*
G03*
X135696679Y-90782077I-306918J306884D01*
G01*
X137188858Y-85076361D02*
G75*
G03*
X137335289Y-85429914I499942J-39D01*
G01*
X136366490Y-89681290D02*
G75*
G03*
X136366488Y-89862308I90510J-90510D01*
G01*
X130262953Y-97689447D02*
X130162400Y-97790000D01*
X130409400Y-91390589D02*
X130409400Y-97335893D01*
X129793180Y-90360155D02*
X130116507Y-90683482D01*
X129793179Y-90360153D02*
X129793180Y-90360155D01*
X129042004Y-90135523D02*
X129042003Y-90135524D01*
X128428234Y-90135524D02*
X128428235Y-90135524D01*
X129171160Y-88778830D02*
X128428235Y-89521755D01*
X129171160Y-88778831D02*
X129171160Y-88778830D01*
X128247219Y-89340735D02*
X128990141Y-88597812D01*
X127633452Y-89340735D02*
X127633451Y-89340735D01*
X128247220Y-89340734D02*
X128247219Y-89340735D01*
X127806212Y-88554206D02*
X127633451Y-88726966D01*
X127806212Y-88554207D02*
X127806212Y-88554206D01*
X127806212Y-88373188D02*
X127806212Y-88373187D01*
X127520893Y-88087869D02*
X127806212Y-88373188D01*
X127228000Y-86329839D02*
X127228000Y-87380762D01*
X128221710Y-84921915D02*
X127520893Y-85622732D01*
X128368157Y-84426157D02*
X128368157Y-84568361D01*
X130262956Y-97689450D02*
G75*
G03*
X130409400Y-97335893I-353556J353550D01*
G01*
X129793211Y-89746417D02*
G75*
G03*
X129793180Y-90360152I306889J-306883D01*
G01*
X129965892Y-89573609D02*
G75*
G03*
X129965924Y-89392623I-90492J90509D01*
G01*
X129965923Y-89392624D02*
G75*
G03*
X129784905Y-89392624I-90509J-90511D01*
G01*
X128428216Y-90135543D02*
G75*
G03*
X129042004Y-90135523I306884J306943D01*
G01*
X129965925Y-89573642D02*
X129965924Y-89573643D01*
X128428195Y-89521715D02*
G75*
G03*
X128428234Y-90135524I306905J-306885D01*
G01*
X130409408Y-91390589D02*
G75*
G03*
X130116507Y-90683482I-1000008J-11D01*
G01*
X129171139Y-88778810D02*
G75*
G03*
X129171161Y-88597812I-90439J90510D01*
G01*
X127633416Y-89340770D02*
G75*
G03*
X128247220Y-89340734I306884J306970D01*
G01*
X129042003Y-90135524D02*
X129784904Y-89392623D01*
X127806215Y-88554210D02*
G75*
G03*
X127806212Y-88373187I-90515J90510D01*
G01*
X129171160Y-88597813D02*
G75*
G03*
X128990142Y-88597813I-90509J-90511D01*
G01*
X129965924Y-89573643D02*
X129793179Y-89746385D01*
X127228027Y-87380762D02*
G75*
G03*
X127520893Y-88087869I999973J-38D01*
G01*
X127633401Y-88726916D02*
G75*
G03*
X127633452Y-89340735I306899J-306884D01*
G01*
X128221720Y-84921925D02*
G75*
G03*
X128368157Y-84568361I-353520J353525D01*
G01*
X127520874Y-85622713D02*
G75*
G03*
X127228000Y-86329839I707126J-707087D01*
G01*
X128656800Y-92406590D02*
X128656800Y-97335893D01*
X127478086Y-90813662D02*
X128363907Y-91699483D01*
X127173977Y-90936753D02*
X127297067Y-90813662D01*
X127173978Y-90936752D02*
X127173977Y-90936753D01*
X126683298Y-90018874D02*
X126683300Y-90018875D01*
X126683298Y-90018875D02*
X126683298Y-90018874D01*
X126379119Y-90142035D02*
X126502279Y-90018874D01*
X126379120Y-90142034D02*
X126379119Y-90142035D01*
X125765352Y-90142035D02*
X125765351Y-90142035D01*
X125888512Y-89405107D02*
X125888512Y-89405106D01*
X125888512Y-89224088D02*
X125888512Y-89224087D01*
X125590493Y-88926069D02*
X125888512Y-89224088D01*
X126683300Y-90199895D02*
X126683300Y-90199894D01*
X126621131Y-83499893D02*
X125590493Y-84530531D01*
X126560210Y-90936753D02*
X126560209Y-90936753D01*
X128510353Y-97689447D02*
X128409800Y-97790000D01*
X129339893Y-83207000D02*
X127396624Y-83207000D01*
X129794000Y-82960000D02*
X129693446Y-83060554D01*
X128510356Y-97689450D02*
G75*
G03*
X128656800Y-97335893I-353556J353550D01*
G01*
X128656807Y-92406590D02*
G75*
G03*
X128363907Y-91699483I-1000007J-10D01*
G01*
X127478110Y-90813639D02*
G75*
G03*
X127297067Y-90813662I-90510J-90561D01*
G01*
X126560242Y-90323017D02*
G75*
G03*
X126560211Y-90936752I306858J-306883D01*
G01*
X126560216Y-90936746D02*
G75*
G03*
X127173978Y-90936752I306884J306846D01*
G01*
X126683315Y-90199910D02*
G75*
G03*
X126683300Y-90018875I-90515J90510D01*
G01*
X125297600Y-85237638D02*
X125297600Y-88218962D01*
X126683300Y-90199894D02*
X126560209Y-90322984D01*
X126683310Y-90018863D02*
G75*
G03*
X126502279Y-90018874I-90510J-90537D01*
G01*
X125888515Y-89405110D02*
G75*
G03*
X125888512Y-89224087I-90515J90510D01*
G01*
X125297627Y-88218962D02*
G75*
G03*
X125590493Y-88926069I999973J-38D01*
G01*
X125590474Y-84530512D02*
G75*
G03*
X125297600Y-85237638I707126J-707088D01*
G01*
X127328238Y-83207027D02*
G75*
G03*
X126621131Y-83499893I-38J-999973D01*
G01*
X127396624Y-83207000D02*
X127328238Y-83207000D01*
X125765301Y-89528216D02*
G75*
G03*
X125765352Y-90142035I306899J-306884D01*
G01*
X129339893Y-83206995D02*
G75*
G03*
X129693446Y-83060554I7J499995D01*
G01*
X125888512Y-89405106D02*
X125765351Y-89528266D01*
X127478086Y-90813663D02*
X127478086Y-90813662D01*
X125765316Y-90142070D02*
G75*
G03*
X126379120Y-90142034I306884J306970D01*
G01*
X134072443Y-98045976D02*
G75*
G03*
X134013843Y-98187375I141357J-141424D01*
G01*
X134118569Y-97999838D02*
G75*
G03*
X134265000Y-97646268I-353569J353538D01*
G01*
X134411443Y-94715551D02*
G75*
G03*
X134265000Y-95069107I353557J-353549D01*
G01*
X133812544Y-97873063D02*
G75*
G03*
X133959000Y-97519518I-353544J353563D01*
G01*
X133958995Y-95069107D02*
G75*
G03*
X133812554Y-94715554I-499995J7D01*
G01*
X127081995Y-95069107D02*
G75*
G03*
X126935554Y-94715554I-499995J7D01*
G01*
X126935556Y-98324450D02*
G75*
G03*
X127082000Y-97970893I-353556J353550D01*
G01*
X127388005Y-97970893D02*
G75*
G03*
X127534447Y-98324447I499995J-7D01*
G01*
X127534443Y-94715551D02*
G75*
G03*
X127388000Y-95069107I353557J-353549D01*
G01*
X106141243Y-94512351D02*
G75*
G03*
X105994800Y-94865907I353557J-353549D01*
G01*
X105994805Y-97158093D02*
G75*
G03*
X106141247Y-97511647I499995J-7D01*
G01*
X105688795Y-94865907D02*
G75*
G03*
X105542354Y-94512354I-499995J7D01*
G01*
X103931443Y-94563151D02*
G75*
G03*
X103785000Y-94916707I353557J-353549D01*
G01*
X105542356Y-97511650D02*
G75*
G03*
X105688800Y-97158093I-353556J353550D01*
G01*
X103785005Y-97107293D02*
G75*
G03*
X103931447Y-97460847I499995J-7D01*
G01*
X103478995Y-94916707D02*
G75*
G03*
X103332554Y-94563154I-499995J7D01*
G01*
X103332556Y-97460850D02*
G75*
G03*
X103479000Y-97107293I-353556J353550D01*
G01*
X56287449Y-70403443D02*
G75*
G03*
X55933893Y-70257000I-353549J-353557D01*
G01*
X55933893Y-69950995D02*
G75*
G03*
X56287446Y-69804554I7J499995D01*
G01*
D15*
X73704849Y-82493243D02*
G75*
G03*
X73351293Y-82346800I-353549J-353557D01*
G01*
X73939395Y-84204907D02*
G75*
G03*
X73792953Y-83851353I-499995J7D01*
G01*
X80080249Y-87598643D02*
G75*
G03*
X79726693Y-87452200I-353549J-353557D01*
G01*
X75215350Y-87305756D02*
G75*
G03*
X75568907Y-87452200I353550J353556D01*
G01*
X73939405Y-86635493D02*
G75*
G03*
X74085846Y-86989046I499995J-7D01*
G01*
X74935950Y-87839156D02*
G75*
G03*
X75289507Y-87985600I353550J353556D01*
G01*
X80574750Y-88093156D02*
G75*
G03*
X80928307Y-88239600I353550J353556D01*
G01*
X74345795Y-83341307D02*
G75*
G03*
X74199353Y-82987753I-499995J7D01*
G01*
X74345805Y-86229093D02*
G75*
G03*
X74492246Y-86582646I499995J-7D01*
G01*
X79851649Y-88132043D02*
G75*
G03*
X79498093Y-87985600I-353549J-353557D01*
G01*
X80320750Y-88601156D02*
G75*
G03*
X80674307Y-88747600I353550J353556D01*
G01*
X74752205Y-85822693D02*
G75*
G03*
X74898646Y-86176246I499995J-7D01*
G01*
X75545550Y-86823156D02*
G75*
G03*
X75899107Y-86969600I353550J353556D01*
G01*
X80308849Y-87116043D02*
G75*
G03*
X79955293Y-86969600I-353549J-353557D01*
G01*
X73679449Y-81705843D02*
G75*
G03*
X73325893Y-81559400I-353549J-353557D01*
G01*
X74752195Y-82985707D02*
G75*
G03*
X74605753Y-82632153I-499995J7D01*
G01*
X80777950Y-87585156D02*
G75*
G03*
X81131507Y-87731600I353550J353556D01*
G01*
D16*
X53658105Y-75210004D02*
G75*
G03*
X53304551Y-75356447I-5J-499996D01*
G01*
X56287449Y-75356443D02*
G75*
G03*
X55933893Y-75210000I-353549J-353557D01*
G01*
X53667107Y-73559005D02*
G75*
G03*
X53313553Y-73705447I-7J-499995D01*
G01*
X56287449Y-73705443D02*
G75*
G03*
X55933893Y-73559000I-353549J-353557D01*
G01*
X53304549Y-74757555D02*
G75*
G03*
X53658105Y-74904000I353551J353555D01*
G01*
X55933893Y-74903995D02*
G75*
G03*
X56287446Y-74757554I7J499995D01*
G01*
X56287449Y-72054443D02*
G75*
G03*
X55933893Y-71908000I-353549J-353557D01*
G01*
X53660010Y-71908007D02*
G75*
G03*
X53306456Y-72054447I-10J-499993D01*
G01*
X53306451Y-71455558D02*
G75*
G03*
X53660010Y-71602000I353549J353558D01*
G01*
X55933893Y-71601995D02*
G75*
G03*
X56287446Y-71455554I7J499995D01*
G01*
X53313550Y-73106556D02*
G75*
G03*
X53667107Y-73253000I353550J353556D01*
G01*
X55933893Y-73252995D02*
G75*
G03*
X56287446Y-73106554I7J499995D01*
G01*
X53260707Y-70257005D02*
G75*
G03*
X52907153Y-70403447I-7J-499995D01*
G01*
X52907150Y-69804556D02*
G75*
G03*
X53260707Y-69951000I353550J353556D01*
G01*
X53458947Y-76861034D02*
G75*
G03*
X53105394Y-77007448I-47J-499966D01*
G01*
X56287449Y-77007443D02*
G75*
G03*
X55933893Y-76861000I-353549J-353557D01*
G01*
X53105370Y-76408576D02*
G75*
G03*
X53458947Y-76555000I353530J353576D01*
G01*
X55933893Y-76554995D02*
G75*
G03*
X56287446Y-76408554I7J499995D01*
G01*
D17*
X75274808Y-70216392D02*
X75895200Y-69596000D01*
X121602200Y-74435000D02*
X122326400Y-73710800D01*
X119888000Y-74435000D02*
X121602200Y-74435000D01*
X115850000Y-80644400D02*
X114223800Y-82270600D01*
X115850000Y-77136000D02*
X115850000Y-78740000D01*
X80608808Y-74686792D02*
X80772000Y-74523600D01*
X66812792Y-83326608D02*
X66812792Y-83250408D01*
X66268600Y-83870800D02*
X66812792Y-83326608D01*
X79237208Y-74686792D02*
X80608808Y-74686792D01*
X80354808Y-75804392D02*
X79237208Y-74686792D01*
X77459208Y-72908792D02*
X74106408Y-69555992D01*
X118237000Y-74435000D02*
X119888000Y-74435000D01*
X70622792Y-87212808D02*
X70601208Y-87212808D01*
X75274808Y-70724392D02*
X75274808Y-70216392D01*
X65695192Y-82132808D02*
X66812792Y-83250408D01*
X115850000Y-78740000D02*
X115850000Y-80644400D01*
X68986400Y-85598000D02*
X68986400Y-85344000D01*
X70601208Y-87212808D02*
X68986400Y-85598000D01*
X68529200Y-87528400D02*
X69545200Y-88544400D01*
X73010392Y-70652008D02*
X74178792Y-71820408D01*
X71145400Y-88544400D02*
X72237600Y-87452200D01*
X74178792Y-72912608D02*
X74178792Y-71820408D01*
X76073000Y-74295000D02*
X76363192Y-74004808D01*
X72237600Y-86635584D02*
X71718808Y-86116792D01*
X69545200Y-88544400D02*
X71145400Y-88544400D01*
X72237600Y-87452200D02*
X72237600Y-86635584D01*
X67614800Y-80213200D02*
X66791208Y-81036792D01*
X71718808Y-85354792D02*
X72085200Y-84988400D01*
X75463400Y-74295000D02*
X76073000Y-74295000D01*
X68300600Y-80213200D02*
X67614800Y-80213200D01*
X60909200Y-99466400D02*
X54406800Y-99466400D01*
X69240400Y-79273400D02*
X68300600Y-80213200D01*
X73990200Y-73101200D02*
X74178792Y-72912608D01*
X65252600Y-99771200D02*
X64490600Y-100533200D01*
X63957200Y-87528400D02*
X68529200Y-87528400D01*
X61976000Y-100533200D02*
X60909200Y-99466400D01*
X54406800Y-99466400D02*
X52527200Y-97586800D01*
X64490600Y-100533200D02*
X61976000Y-100533200D01*
X71718808Y-86116792D02*
X71718808Y-85354792D01*
X74853800Y-74777600D02*
X75869800Y-75793600D01*
X76871192Y-75782808D02*
X76860400Y-75793600D01*
X74777600Y-73837800D02*
X74777600Y-73456800D01*
X69799200Y-78486000D02*
X70205600Y-78892400D01*
X74777600Y-73456800D02*
X75296392Y-72938008D01*
X79258792Y-76900408D02*
X78141192Y-75782808D01*
X78141192Y-75782808D02*
X76871192Y-75782808D01*
X75869800Y-75793600D02*
X76860400Y-75793600D01*
X70601208Y-84465792D02*
X70601208Y-84999192D01*
X74777600Y-73837800D02*
X74853800Y-73914000D01*
X70205600Y-78892400D02*
X70205600Y-79451200D01*
X67908808Y-81747992D02*
X67908808Y-82154392D01*
X74853800Y-73914000D02*
X74853800Y-74777600D01*
X70205600Y-79451200D02*
X67908808Y-81747992D01*
X71018400Y-84048600D02*
X70601208Y-84465792D01*
X121970800Y-89509600D02*
X121412000Y-88950800D01*
X120827800Y-85775800D02*
X116763800Y-85775800D01*
X122174000Y-86360000D02*
X123088400Y-85445600D01*
X123190000Y-90424000D02*
X122275600Y-89509600D01*
X97764600Y-87223600D02*
X97332800Y-86791800D01*
X97764600Y-90652600D02*
X97764600Y-87223600D01*
X121412000Y-86360000D02*
X122174000Y-86360000D01*
X121412000Y-88950800D02*
X121412000Y-86360000D01*
X116763800Y-85775800D02*
X115697000Y-84709000D01*
X122275600Y-89509600D02*
X121970800Y-89509600D01*
X121412000Y-88950800D02*
X117957600Y-88950800D01*
X121412000Y-86360000D02*
X120827800Y-85775800D01*
X123088400Y-85445600D02*
X123088400Y-84886800D01*
D15*
X54787800Y-95300800D02*
X56286400Y-95300800D01*
X56286400Y-95300800D02*
X59843800Y-91743400D01*
X59843800Y-91743400D02*
X59843800Y-91490800D01*
X54457600Y-95631000D02*
X54787800Y-95300800D01*
X54508400Y-96164400D02*
X57505600Y-96164400D01*
X57505600Y-96164400D02*
X59080400Y-94589600D01*
X54229000Y-96443800D02*
X54508400Y-96164400D01*
D18*
X97713800Y-99390200D02*
X98069400Y-99745800D01*
X97713800Y-94945200D02*
X97713800Y-99390200D01*
X102971600Y-79095600D02*
X101269800Y-80797400D01*
X101269800Y-80797400D02*
X101269800Y-91389200D01*
X101269800Y-91389200D02*
X97713800Y-94945200D01*
D15*
X57277000Y-82219800D02*
X57277000Y-82245200D01*
X66294000Y-78765400D02*
X67640200Y-78765400D01*
X61620400Y-83439000D02*
X66294000Y-78765400D01*
X57277000Y-82245200D02*
X58470800Y-83439000D01*
X58470800Y-83439000D02*
X61620400Y-83439000D01*
X66243200Y-79552800D02*
X61823600Y-83972400D01*
X52273200Y-83972400D02*
X52222400Y-84023200D01*
X61823600Y-83972400D02*
X52273200Y-83972400D01*
X67411600Y-79552800D02*
X66243200Y-79552800D01*
X70358000Y-80568800D02*
X70358000Y-81127600D01*
X70358000Y-81127600D02*
X65989200Y-85496400D01*
X69392800Y-83312000D02*
X67056000Y-85648800D01*
X70637400Y-83312000D02*
X69392800Y-83312000D01*
X62255400Y-86868000D02*
X65836800Y-86868000D01*
X65836800Y-86868000D02*
X67056000Y-85648800D01*
X79955293Y-86969600D02*
X75899107Y-86969600D01*
X83464400Y-87731600D02*
X81131507Y-87731600D01*
X74752200Y-85822693D02*
X74752200Y-82985707D01*
X74605753Y-82632153D02*
X73679446Y-81705846D01*
X75545553Y-86823153D02*
X74898646Y-86176246D01*
X80777953Y-87585153D02*
X80308846Y-87116046D01*
X73325893Y-81559400D02*
X71450200Y-81559400D01*
X79726693Y-87452200D02*
X75568907Y-87452200D01*
X74345800Y-86229093D02*
X74345800Y-83341307D01*
X80574753Y-88093153D02*
X80080246Y-87598646D01*
X73351293Y-82346800D02*
X72059800Y-82346800D01*
X74199353Y-82987753D02*
X73704846Y-82493246D01*
X75215353Y-87305753D02*
X74492246Y-86582646D01*
X72059800Y-82346800D02*
X72013886Y-82300886D01*
X84124800Y-88239600D02*
X80928307Y-88239600D01*
X73792953Y-83851353D02*
X73380600Y-83439000D01*
X84886800Y-88646000D02*
X84785200Y-88747600D01*
X80320753Y-88601153D02*
X79851646Y-88132046D01*
X84785200Y-88747600D02*
X80674307Y-88747600D01*
X74935953Y-87839153D02*
X74085846Y-86989046D01*
X79498093Y-87985600D02*
X75289507Y-87985600D01*
X73939400Y-86635493D02*
X73939400Y-84204907D01*
D16*
X55933893Y-69951000D02*
X53260707Y-69951000D01*
X56388000Y-69704000D02*
X56287446Y-69804554D01*
X52907153Y-69804553D02*
X52806600Y-69704000D01*
X56388000Y-70504000D02*
X56287446Y-70403446D01*
X55933893Y-70257000D02*
X53260707Y-70257000D01*
X52907153Y-70403447D02*
X52806600Y-70504000D01*
X56388000Y-71355000D02*
X56287446Y-71455554D01*
X53306456Y-71455553D02*
X53205903Y-71355000D01*
X55933893Y-71602000D02*
X53660010Y-71602000D01*
X53306456Y-72054447D02*
X53205903Y-72155000D01*
X55933893Y-71908000D02*
X53660010Y-71908000D01*
X56388000Y-72155000D02*
X56287446Y-72054446D01*
X56388000Y-73006000D02*
X56287446Y-73106554D01*
X53313553Y-73106553D02*
X53213000Y-73006000D01*
X55933893Y-73253000D02*
X53667107Y-73253000D01*
X55933893Y-73559000D02*
X53667107Y-73559000D01*
X53313553Y-73705447D02*
X53213000Y-73806000D01*
X56388000Y-73806000D02*
X56287446Y-73705446D01*
X56388000Y-74657000D02*
X56287446Y-74757554D01*
X53304551Y-74757553D02*
X53203998Y-74657000D01*
X55933893Y-74904000D02*
X53658105Y-74904000D01*
X55933893Y-75210000D02*
X53658105Y-75210000D01*
X56388000Y-75457000D02*
X56287446Y-75356446D01*
X53304551Y-75356447D02*
X53203998Y-75457000D01*
X55933893Y-76555000D02*
X53458947Y-76555000D01*
X53105393Y-76408553D02*
X53004840Y-76308000D01*
X56388000Y-76308000D02*
X56287446Y-76408554D01*
X55933893Y-76861000D02*
X53458947Y-76861000D01*
X56388000Y-77108000D02*
X56287446Y-77007446D01*
X53105393Y-77007447D02*
X53004840Y-77108000D01*
D15*
X117551200Y-77470000D02*
X117779800Y-77698600D01*
X117779800Y-77698600D02*
X117779800Y-83947000D01*
X118783100Y-77685900D02*
X118783100Y-83908900D01*
X117754400Y-76657200D02*
X118783100Y-77685900D01*
X71450200Y-95885000D02*
X82423000Y-95885000D01*
X69494400Y-97840800D02*
X71450200Y-95885000D01*
X83769200Y-94538800D02*
X83769200Y-91541600D01*
X82550000Y-95758000D02*
X83769200Y-94538800D01*
X82423000Y-95885000D02*
X82550000Y-95758000D01*
D16*
X103232000Y-94462600D02*
X103332554Y-94563154D01*
X103332553Y-97460847D02*
X103232000Y-97561400D01*
X103479000Y-94916707D02*
X103479000Y-97107293D01*
X103931447Y-97460847D02*
X104032000Y-97561400D01*
X103785000Y-94916707D02*
X103785000Y-97107293D01*
X104032000Y-94462600D02*
X103931446Y-94563154D01*
X105542353Y-97511647D02*
X105441800Y-97612200D01*
X105441800Y-94411800D02*
X105542354Y-94512354D01*
X105688800Y-94865907D02*
X105688800Y-97158093D01*
D15*
X95400000Y-71700000D02*
X97487000Y-73787000D01*
X106349800Y-81483200D02*
X106172000Y-81483200D01*
X97487000Y-73787000D02*
X106070400Y-73787000D01*
X106070400Y-73787000D02*
X106781600Y-74498200D01*
X106781600Y-74498200D02*
X106781600Y-81051400D01*
X106781600Y-81051400D02*
X106349800Y-81483200D01*
D16*
X105994800Y-94865907D02*
X105994800Y-97158093D01*
X106141247Y-97511647D02*
X106241800Y-97612200D01*
X106241800Y-94411800D02*
X106141246Y-94512354D01*
D15*
X59893200Y-96418400D02*
X59893200Y-93929200D01*
X59486800Y-93522800D02*
X59029600Y-93522800D01*
X65227200Y-98729800D02*
X64846200Y-98348800D01*
X64846200Y-98348800D02*
X61823600Y-98348800D01*
X61823600Y-98348800D02*
X59893200Y-96418400D01*
X59893200Y-93929200D02*
X59486800Y-93522800D01*
X62407800Y-99009200D02*
X61112400Y-99009200D01*
X63246000Y-99847400D02*
X62407800Y-99009200D01*
X61112400Y-99009200D02*
X59486800Y-97383600D01*
X59486800Y-97383600D02*
X55626000Y-97383600D01*
X55626000Y-97383600D02*
X55016400Y-96774000D01*
X97500000Y-91800000D02*
X97500000Y-93000000D01*
X97700000Y-79100000D02*
X97700000Y-79744400D01*
X93980000Y-88280000D02*
X97500000Y-91800000D01*
X93980000Y-83464400D02*
X93980000Y-88280000D01*
X98000000Y-78800000D02*
X97700000Y-79100000D01*
X97700000Y-79744400D02*
X93980000Y-83464400D01*
X96900000Y-93600000D02*
X96900000Y-97000000D01*
X97500000Y-93000000D02*
X96900000Y-93600000D01*
D18*
X100200000Y-80673400D02*
X104063800Y-76809600D01*
X94538800Y-84886800D02*
X99613200Y-84886800D01*
X99613200Y-84886800D02*
X100200000Y-84300000D01*
X100200000Y-84300000D02*
X100200000Y-80673400D01*
X104063800Y-76809600D02*
X104587600Y-76809600D01*
D16*
X127534447Y-98324447D02*
X127635000Y-98425000D01*
X127388000Y-95069107D02*
X127388000Y-97970893D01*
X127635000Y-94615000D02*
X127534446Y-94715554D01*
X126835000Y-94615000D02*
X126935554Y-94715554D01*
X127082000Y-95069107D02*
X127082000Y-97970893D01*
X126935553Y-98324447D02*
X126835000Y-98425000D01*
X133812553Y-97873072D02*
X133797468Y-97888157D01*
X133797468Y-97888157D02*
X133448157Y-97888157D01*
X133959000Y-95069107D02*
X133959000Y-97519518D01*
X133712000Y-94615000D02*
X133812554Y-94715554D01*
X134118553Y-97999822D02*
X134072421Y-98045954D01*
X134512000Y-94615000D02*
X134411446Y-94715554D01*
X134265000Y-95069107D02*
X134265000Y-97646268D01*
X134013843Y-98187375D02*
X134013843Y-98453843D01*
D15*
X127711200Y-72694800D02*
X127711200Y-72085200D01*
X128422400Y-71374000D02*
X134518400Y-71374000D01*
X127711200Y-72085200D02*
X128422400Y-71374000D01*
X115671600Y-69443600D02*
X115798600Y-69316600D01*
X134130000Y-87840000D02*
X134130000Y-76776800D01*
X120853200Y-76123800D02*
X115671600Y-76123800D01*
X114579400Y-76123800D02*
X114300000Y-76403200D01*
X131851400Y-74498200D02*
X122478800Y-74498200D01*
X114300000Y-77136000D02*
X114169200Y-77136000D01*
X115671600Y-76123800D02*
X115671600Y-69443600D01*
X114300000Y-76403200D02*
X114300000Y-78740000D01*
X113538000Y-79502000D02*
X113538000Y-81432400D01*
X115671600Y-76123800D02*
X114579400Y-76123800D01*
X122478800Y-74498200D02*
X120853200Y-76123800D01*
X134130000Y-76776800D02*
X131851400Y-74498200D01*
X114300000Y-78740000D02*
X113538000Y-79502000D01*
X114169200Y-77136000D02*
X113080800Y-76047600D01*
X133430000Y-78515200D02*
X133430000Y-84970000D01*
X132600000Y-85800000D02*
X133430000Y-84970000D01*
X119888000Y-72885000D02*
X120917000Y-72885000D01*
X118237000Y-72885000D02*
X118237000Y-70078600D01*
X118237000Y-70078600D02*
X118491000Y-69824600D01*
X126847600Y-75234800D02*
X127457200Y-75844400D01*
X127457200Y-75844400D02*
X130759200Y-75844400D01*
X130759200Y-75844400D02*
X133430000Y-78515200D01*
X118237000Y-72885000D02*
X119888000Y-72885000D01*
X120917000Y-72885000D02*
X121259600Y-72542400D01*
M02*
