G04 #@! TF.GenerationSoftware,KiCad,Pcbnew,7.0.8*
G04 #@! TF.CreationDate,2023-11-02T22:20:24+02:00*
G04 #@! TF.ProjectId,ssd2828_board,73736432-3832-4385-9f62-6f6172642e6b,rev?*
G04 #@! TF.SameCoordinates,Original*
G04 #@! TF.FileFunction,Paste,Top*
G04 #@! TF.FilePolarity,Positive*
%FSLAX46Y46*%
G04 Gerber Fmt 4.6, Leading zero omitted, Abs format (unit mm)*
G04 Created by KiCad (PCBNEW 7.0.8) date 2023-11-02 22:20:24*
%MOMM*%
%LPD*%
G01*
G04 APERTURE LIST*
G04 Aperture macros list*
%AMRoundRect*
0 Rectangle with rounded corners*
0 $1 Rounding radius*
0 $2 $3 $4 $5 $6 $7 $8 $9 X,Y pos of 4 corners*
0 Add a 4 corners polygon primitive as box body*
4,1,4,$2,$3,$4,$5,$6,$7,$8,$9,$2,$3,0*
0 Add four circle primitives for the rounded corners*
1,1,$1+$1,$2,$3*
1,1,$1+$1,$4,$5*
1,1,$1+$1,$6,$7*
1,1,$1+$1,$8,$9*
0 Add four rect primitives between the rounded corners*
20,1,$1+$1,$2,$3,$4,$5,0*
20,1,$1+$1,$4,$5,$6,$7,0*
20,1,$1+$1,$6,$7,$8,$9,0*
20,1,$1+$1,$8,$9,$2,$3,0*%
G04 Aperture macros list end*
%ADD10RoundRect,0.225000X0.225000X0.250000X-0.225000X0.250000X-0.225000X-0.250000X0.225000X-0.250000X0*%
%ADD11R,0.600000X1.200000*%
%ADD12RoundRect,0.200000X0.275000X-0.200000X0.275000X0.200000X-0.275000X0.200000X-0.275000X-0.200000X0*%
%ADD13RoundRect,0.200000X-0.275000X0.200000X-0.275000X-0.200000X0.275000X-0.200000X0.275000X0.200000X0*%
%ADD14R,1.000000X2.200000*%
%ADD15RoundRect,0.225000X-0.225000X-0.250000X0.225000X-0.250000X0.225000X0.250000X-0.225000X0.250000X0*%
%ADD16RoundRect,0.150000X-0.512500X-0.150000X0.512500X-0.150000X0.512500X0.150000X-0.512500X0.150000X0*%
%ADD17RoundRect,0.175000X-0.175000X-0.175000X0.175000X-0.175000X0.175000X0.175000X-0.175000X0.175000X0*%
%ADD18RoundRect,0.225000X0.250000X-0.225000X0.250000X0.225000X-0.250000X0.225000X-0.250000X-0.225000X0*%
%ADD19R,0.500000X0.800000*%
%ADD20R,0.400000X0.800000*%
%ADD21RoundRect,0.250000X-0.262500X-0.450000X0.262500X-0.450000X0.262500X0.450000X-0.262500X0.450000X0*%
%ADD22RoundRect,0.200000X-0.200000X-0.275000X0.200000X-0.275000X0.200000X0.275000X-0.200000X0.275000X0*%
%ADD23R,0.950000X0.400000*%
%ADD24R,0.800000X0.300000*%
%ADD25R,0.650000X0.300000*%
%ADD26R,1.200000X0.600000*%
%ADD27RoundRect,0.050000X-0.291682X-0.220971X-0.220971X-0.291682X0.291682X0.220971X0.220971X0.291682X0*%
%ADD28RoundRect,0.050000X-0.291682X0.220971X0.220971X-0.291682X0.291682X-0.220971X-0.220971X0.291682X0*%
%ADD29RoundRect,0.250000X-0.388909X0.000000X0.000000X-0.388909X0.388909X0.000000X0.000000X0.388909X0*%
%ADD30R,1.870000X1.720000*%
%ADD31RoundRect,0.200000X0.200000X0.275000X-0.200000X0.275000X-0.200000X-0.275000X0.200000X-0.275000X0*%
%ADD32RoundRect,0.225000X-0.250000X0.225000X-0.250000X-0.225000X0.250000X-0.225000X0.250000X0.225000X0*%
%ADD33R,1.200000X1.400000*%
%ADD34R,0.400000X0.950000*%
%ADD35R,0.300000X0.800000*%
%ADD36R,0.300000X0.650000*%
%ADD37RoundRect,0.243750X0.456250X-0.243750X0.456250X0.243750X-0.456250X0.243750X-0.456250X-0.243750X0*%
%ADD38R,0.700000X2.000000*%
%ADD39R,0.800000X0.500000*%
%ADD40R,0.800000X0.400000*%
%ADD41R,0.900000X0.800000*%
%ADD42R,0.500000X0.470000*%
%ADD43R,0.240000X0.450000*%
%ADD44RoundRect,0.050000X-0.350000X-0.050000X0.350000X-0.050000X0.350000X0.050000X-0.350000X0.050000X0*%
%ADD45RoundRect,0.172500X-0.172500X-0.332500X0.172500X-0.332500X0.172500X0.332500X-0.172500X0.332500X0*%
%ADD46R,0.800000X2.700000*%
%ADD47RoundRect,0.250000X-0.475000X0.250000X-0.475000X-0.250000X0.475000X-0.250000X0.475000X0.250000X0*%
%ADD48RoundRect,0.250000X-0.450000X0.262500X-0.450000X-0.262500X0.450000X-0.262500X0.450000X0.262500X0*%
%ADD49R,0.350000X0.800000*%
%ADD50R,1.000000X0.300000*%
%ADD51R,0.467000X0.180000*%
%ADD52R,0.800000X0.900000*%
%ADD53RoundRect,0.112500X0.187500X0.112500X-0.187500X0.112500X-0.187500X-0.112500X0.187500X-0.112500X0*%
%ADD54R,1.400000X0.300000*%
%ADD55R,1.800000X2.200000*%
%ADD56RoundRect,0.243750X0.243750X0.456250X-0.243750X0.456250X-0.243750X-0.456250X0.243750X-0.456250X0*%
%ADD57RoundRect,0.250000X1.075000X-0.312500X1.075000X0.312500X-1.075000X0.312500X-1.075000X-0.312500X0*%
%ADD58RoundRect,0.062500X0.325000X-0.062500X0.325000X0.062500X-0.325000X0.062500X-0.325000X-0.062500X0*%
%ADD59RoundRect,0.062500X0.062500X-0.325000X0.062500X0.325000X-0.062500X0.325000X-0.062500X-0.325000X0*%
%ADD60RoundRect,0.165000X0.165000X-0.165000X0.165000X0.165000X-0.165000X0.165000X-0.165000X-0.165000X0*%
%ADD61R,0.650000X2.000000*%
G04 APERTURE END LIST*
D10*
X86093000Y-83705200D03*
X87643000Y-83705200D03*
D11*
X96890000Y-77920999D03*
X98790000Y-77920999D03*
X98790000Y-80420999D03*
X97840000Y-80420999D03*
X96890000Y-80420999D03*
D12*
X90514000Y-79070200D03*
X90514000Y-80720200D03*
D13*
X117525800Y-63283600D03*
X117525800Y-61633600D03*
D14*
X119009200Y-74955400D03*
X117109200Y-74955400D03*
D15*
X98310200Y-76249999D03*
X96760200Y-76249999D03*
X60846000Y-81972600D03*
X59296000Y-81972600D03*
X84188600Y-78257400D03*
X82638600Y-78257400D03*
D16*
X99488399Y-66628800D03*
X99488399Y-67578800D03*
X99488399Y-68528800D03*
X97213399Y-68528800D03*
X97213399Y-67578800D03*
X97213399Y-66628800D03*
D17*
X63500000Y-99187000D03*
D10*
X80049605Y-53961800D03*
X81599605Y-53961800D03*
D18*
X120573800Y-56679800D03*
X120573800Y-58229800D03*
D19*
X97225000Y-58395800D03*
D20*
X98025000Y-58395800D03*
X98825000Y-58395800D03*
D19*
X99625000Y-58395800D03*
X99625000Y-60195800D03*
D20*
X98825000Y-60195800D03*
X98025000Y-60195800D03*
D19*
X97225000Y-60195800D03*
D13*
X123621800Y-58279800D03*
X123621800Y-56629800D03*
D17*
X63500000Y-97663000D03*
D21*
X56116500Y-79686600D03*
X54291500Y-79686600D03*
D22*
X117563400Y-60172600D03*
X115913400Y-60172600D03*
D15*
X84188600Y-83083400D03*
X82638600Y-83083400D03*
D23*
X74743000Y-92349000D03*
X74743000Y-100949000D03*
D24*
X74469000Y-93049000D03*
D25*
X77343000Y-93349000D03*
D24*
X74469000Y-93649000D03*
D25*
X77343000Y-93949000D03*
D24*
X74469000Y-94249000D03*
D25*
X77343000Y-94549000D03*
D24*
X74469000Y-94849000D03*
D25*
X77343000Y-95149000D03*
D24*
X74469000Y-95449000D03*
D25*
X77343000Y-95749000D03*
D24*
X74469000Y-96049000D03*
D25*
X77343000Y-96349000D03*
D24*
X74469000Y-96649000D03*
D25*
X77343000Y-96949000D03*
D24*
X74469000Y-97249000D03*
D25*
X77343000Y-97549000D03*
D24*
X74469000Y-97849000D03*
D25*
X77343000Y-98149000D03*
D24*
X74469000Y-98449000D03*
D25*
X77343000Y-98749000D03*
D24*
X74469000Y-99049000D03*
D25*
X77343000Y-99349000D03*
D24*
X74469000Y-99649000D03*
D25*
X77343000Y-99949000D03*
D24*
X74469000Y-100249000D03*
D26*
X88736000Y-80022200D03*
X88736000Y-81922200D03*
X86236000Y-81922200D03*
X86236000Y-80972200D03*
X86236000Y-80022200D03*
D22*
X64160800Y-74860600D03*
X62510800Y-74860600D03*
D27*
X76594491Y-58422786D03*
X76877334Y-58705629D03*
X77160177Y-58988472D03*
X77443019Y-59271314D03*
X77725862Y-59554157D03*
X78008705Y-59837000D03*
X78291548Y-60119843D03*
X78574390Y-60402685D03*
X78857233Y-60685528D03*
X79140076Y-60968371D03*
X79422918Y-61251213D03*
X79705761Y-61534056D03*
X79988604Y-61816899D03*
X80271447Y-62099742D03*
X80554289Y-62382584D03*
X80837132Y-62665427D03*
X81119975Y-62948270D03*
D28*
X81119975Y-63991252D03*
X80837132Y-64274095D03*
X80554289Y-64556938D03*
X80271447Y-64839780D03*
X79988604Y-65122623D03*
X79705761Y-65405466D03*
X79422918Y-65688309D03*
X79140076Y-65971151D03*
X78857233Y-66253994D03*
X78574390Y-66536837D03*
X78291548Y-66819679D03*
X78008705Y-67102522D03*
X77725862Y-67385365D03*
X77443019Y-67668208D03*
X77160177Y-67951050D03*
X76877334Y-68233893D03*
X76594491Y-68516736D03*
D27*
X75551509Y-68516736D03*
X75268666Y-68233893D03*
X74985823Y-67951050D03*
X74702981Y-67668208D03*
X74420138Y-67385365D03*
X74137295Y-67102522D03*
X73854452Y-66819679D03*
X73571610Y-66536837D03*
X73288767Y-66253994D03*
X73005924Y-65971151D03*
X72723082Y-65688309D03*
X72440239Y-65405466D03*
X72157396Y-65122623D03*
X71874553Y-64839780D03*
X71591711Y-64556938D03*
X71308868Y-64274095D03*
X71026025Y-63991252D03*
D28*
X71026025Y-62948270D03*
X71308868Y-62665427D03*
X71591711Y-62382584D03*
X71874553Y-62099742D03*
X72157396Y-61816899D03*
X72440239Y-61534056D03*
X72723082Y-61251213D03*
X73005924Y-60968371D03*
X73288767Y-60685528D03*
X73571610Y-60402685D03*
X73854452Y-60119843D03*
X74137295Y-59837000D03*
X74420138Y-59554157D03*
X74702981Y-59271314D03*
X74985823Y-58988472D03*
X75268666Y-58705629D03*
X75551509Y-58422786D03*
D29*
X76073000Y-66227477D03*
X76992239Y-65308239D03*
X77911478Y-64389000D03*
X78830716Y-63469761D03*
X75153761Y-65308239D03*
X76073000Y-64389000D03*
X76992239Y-63469761D03*
X77911478Y-62550522D03*
X74234522Y-64389000D03*
X75153761Y-63469761D03*
X76073000Y-62550522D03*
X76992239Y-61631283D03*
X73315284Y-63469761D03*
X74234522Y-62550522D03*
X75153761Y-61631283D03*
X76073000Y-60712045D03*
D30*
X119532400Y-66816600D03*
X119532400Y-69276600D03*
D31*
X89345000Y-77583800D03*
X90995000Y-77583800D03*
D30*
X128219200Y-60183400D03*
X128219200Y-57723400D03*
D15*
X87643000Y-78244200D03*
X86093000Y-78244200D03*
D32*
X125145800Y-58229800D03*
X125145800Y-56679800D03*
X115976400Y-63233600D03*
X115976400Y-61683600D03*
D17*
X64465200Y-92176600D03*
D22*
X124853200Y-67487800D03*
X123203200Y-67487800D03*
D17*
X68300600Y-89560400D03*
D33*
X79795000Y-58008200D03*
X79795000Y-55808200D03*
X81495000Y-55808200D03*
X81495000Y-58008200D03*
D34*
X136713000Y-81312200D03*
X128113000Y-81312200D03*
D35*
X136013000Y-81038200D03*
D36*
X135713000Y-83912200D03*
D35*
X135413000Y-81038200D03*
D36*
X135113000Y-83912200D03*
D35*
X134813000Y-81038200D03*
D36*
X134513000Y-83912200D03*
D35*
X134213000Y-81038200D03*
D36*
X133913000Y-83912200D03*
D35*
X133613000Y-81038200D03*
D36*
X133313000Y-83912200D03*
D35*
X133013000Y-81038200D03*
D36*
X132713000Y-83912200D03*
D35*
X132413000Y-81038200D03*
D36*
X132113000Y-83912200D03*
D35*
X131813000Y-81038200D03*
D36*
X131513000Y-83912200D03*
D35*
X131213000Y-81038200D03*
D36*
X130913000Y-83912200D03*
D35*
X130613000Y-81038200D03*
D36*
X130313000Y-83912200D03*
D35*
X130013000Y-81038200D03*
D36*
X129713000Y-83912200D03*
D35*
X129413000Y-81038200D03*
D36*
X129113000Y-83912200D03*
D35*
X128813000Y-81038200D03*
D37*
X77622400Y-80748900D03*
X77622400Y-82623900D03*
D31*
X59054500Y-74962200D03*
X60704500Y-74962200D03*
D38*
X82688600Y-80797400D03*
X84138600Y-80797400D03*
D17*
X64465200Y-93675200D03*
D39*
X66239800Y-67373000D03*
D40*
X66239800Y-68173000D03*
X66239800Y-68973000D03*
D39*
X66239800Y-69773000D03*
X64439800Y-69773000D03*
D40*
X64439800Y-68973000D03*
X64439800Y-68173000D03*
D39*
X64439800Y-67373000D03*
D41*
X126161800Y-62211600D03*
X126161800Y-59911600D03*
D15*
X60846000Y-83496600D03*
X59296000Y-83496600D03*
D31*
X139586200Y-64820800D03*
X141236200Y-64820800D03*
D15*
X98310200Y-74700599D03*
X96760200Y-74700599D03*
D42*
X110173000Y-64984200D03*
X110173000Y-67374200D03*
X106673000Y-64984200D03*
X106673000Y-67374200D03*
D43*
X109423000Y-64954200D03*
X109423000Y-67404200D03*
X109023000Y-64954200D03*
X109023000Y-67404200D03*
X108623000Y-64954200D03*
X108623000Y-67404200D03*
X108223000Y-64954200D03*
X108223000Y-67404200D03*
X107823000Y-64954200D03*
X107823000Y-67404200D03*
X107423000Y-64954200D03*
X107423000Y-67404200D03*
D44*
X60892800Y-78170600D03*
X60892800Y-78620600D03*
X60892800Y-79070600D03*
X60892800Y-79520600D03*
X60892800Y-79970600D03*
X60892800Y-80420600D03*
X57992800Y-80420600D03*
X57992800Y-79970600D03*
X57992800Y-79520600D03*
X57992800Y-79070600D03*
X57992800Y-78620600D03*
X57992800Y-78170600D03*
D45*
X59867800Y-79920600D03*
X59867800Y-78670600D03*
X59017800Y-79920600D03*
X59017800Y-78670600D03*
D13*
X57683400Y-83539600D03*
X57683400Y-81889600D03*
D17*
X69494400Y-100050600D03*
D46*
X96792400Y-63881000D03*
X99092400Y-63881000D03*
D15*
X84188600Y-76606400D03*
X82638600Y-76606400D03*
D17*
X69088000Y-94538800D03*
D47*
X123444000Y-79194200D03*
X123444000Y-77294200D03*
D48*
X108397600Y-61224300D03*
X108397600Y-59399300D03*
D32*
X83185000Y-57632400D03*
X83185000Y-56082400D03*
D17*
X68300600Y-91109800D03*
D23*
X56622000Y-62841200D03*
X56622000Y-54241200D03*
D24*
X56896000Y-62141200D03*
D25*
X54022000Y-61841200D03*
D24*
X56896000Y-61541200D03*
D25*
X54022000Y-61241200D03*
D24*
X56896000Y-60941200D03*
D25*
X54022000Y-60641200D03*
D24*
X56896000Y-60341200D03*
D25*
X54022000Y-60041200D03*
D24*
X56896000Y-59741200D03*
D25*
X54022000Y-59441200D03*
D24*
X56896000Y-59141200D03*
D25*
X54022000Y-58841200D03*
D24*
X56896000Y-58541200D03*
D25*
X54022000Y-58241200D03*
D24*
X56896000Y-57941200D03*
D25*
X54022000Y-57641200D03*
D24*
X56896000Y-57341200D03*
D25*
X54022000Y-57041200D03*
D24*
X56896000Y-56741200D03*
D25*
X54022000Y-56441200D03*
D24*
X56896000Y-56141200D03*
D25*
X54022000Y-55841200D03*
D24*
X56896000Y-55541200D03*
D25*
X54022000Y-55241200D03*
D24*
X56896000Y-54941200D03*
D10*
X117512800Y-58216800D03*
X119062800Y-58216800D03*
D18*
X119151400Y-59727800D03*
X119151400Y-61277800D03*
D38*
X64060800Y-80956600D03*
X62610800Y-80956600D03*
D49*
X135936000Y-72349200D03*
X135936000Y-62549200D03*
X134066000Y-62549200D03*
X134066000Y-72349200D03*
D50*
X135001000Y-61939200D03*
X135001000Y-72959200D03*
D51*
X133997000Y-63249200D03*
X136005000Y-63249200D03*
X133997000Y-63599200D03*
X136005000Y-63599200D03*
X133997000Y-63949200D03*
X136005000Y-63949200D03*
X133997000Y-64299200D03*
X136005000Y-64299200D03*
X133997000Y-64649200D03*
X136005000Y-64649200D03*
X133997000Y-64999200D03*
X136005000Y-64999200D03*
X133997000Y-65349200D03*
X136005000Y-65349200D03*
X133997000Y-65699200D03*
X136005000Y-65699200D03*
X133997000Y-66049200D03*
X136005000Y-66049200D03*
X133997000Y-66399200D03*
X136005000Y-66399200D03*
X133997000Y-66749200D03*
X136005000Y-66749200D03*
X133997000Y-67099200D03*
X136005000Y-67099200D03*
X133997000Y-67449200D03*
X136005000Y-67449200D03*
X133997000Y-67799200D03*
X136005000Y-67799200D03*
X133997000Y-68149200D03*
X136005000Y-68149200D03*
X133997000Y-68499200D03*
X136005000Y-68499200D03*
X133997000Y-68849200D03*
X136005000Y-68849200D03*
X133997000Y-69199200D03*
X136005000Y-69199200D03*
X133997000Y-69549200D03*
X136005000Y-69549200D03*
X133997000Y-69899200D03*
X136005000Y-69899200D03*
X133997000Y-70249200D03*
X136005000Y-70249200D03*
X133997000Y-70599200D03*
X136005000Y-70599200D03*
X133997000Y-70949200D03*
X136005000Y-70949200D03*
X133997000Y-71299200D03*
X136005000Y-71299200D03*
X133997000Y-71649200D03*
X136005000Y-71649200D03*
D34*
X109964000Y-81058200D03*
X101364000Y-81058200D03*
D35*
X109264000Y-80784200D03*
D36*
X108964000Y-83658200D03*
D35*
X108664000Y-80784200D03*
D36*
X108364000Y-83658200D03*
D35*
X108064000Y-80784200D03*
D36*
X107764000Y-83658200D03*
D35*
X107464000Y-80784200D03*
D36*
X107164000Y-83658200D03*
D35*
X106864000Y-80784200D03*
D36*
X106564000Y-83658200D03*
D35*
X106264000Y-80784200D03*
D36*
X105964000Y-83658200D03*
D35*
X105664000Y-80784200D03*
D36*
X105364000Y-83658200D03*
D35*
X105064000Y-80784200D03*
D36*
X104764000Y-83658200D03*
D35*
X104464000Y-80784200D03*
D36*
X104164000Y-83658200D03*
D35*
X103864000Y-80784200D03*
D36*
X103564000Y-83658200D03*
D35*
X103264000Y-80784200D03*
D36*
X102964000Y-83658200D03*
D35*
X102664000Y-80784200D03*
D36*
X102364000Y-83658200D03*
D35*
X102064000Y-80784200D03*
D15*
X60300800Y-76638600D03*
X58750800Y-76638600D03*
D52*
X119285400Y-64897000D03*
X116985400Y-64897000D03*
D31*
X77356200Y-84201000D03*
X79006200Y-84201000D03*
D15*
X56182200Y-83496600D03*
X54632200Y-83496600D03*
D47*
X101473000Y-66228000D03*
X101473000Y-64328000D03*
D18*
X65875800Y-74847600D03*
X65875800Y-76397600D03*
D53*
X120362000Y-75069200D03*
X122462000Y-75069200D03*
D23*
X56571100Y-100979200D03*
X56571100Y-92379200D03*
D24*
X56845100Y-100279200D03*
D25*
X53971100Y-99979200D03*
D24*
X56845100Y-99679200D03*
D25*
X53971100Y-99379200D03*
D24*
X56845100Y-99079200D03*
D25*
X53971100Y-98779200D03*
D24*
X56845100Y-98479200D03*
D25*
X53971100Y-98179200D03*
D24*
X56845100Y-97879200D03*
D25*
X53971100Y-97579200D03*
D24*
X56845100Y-97279200D03*
D25*
X53971100Y-96979200D03*
D24*
X56845100Y-96679200D03*
D25*
X53971100Y-96379200D03*
D24*
X56845100Y-96079200D03*
D25*
X53971100Y-95779200D03*
D24*
X56845100Y-95479200D03*
D25*
X53971100Y-95179200D03*
D24*
X56845100Y-94879200D03*
D25*
X53971100Y-94579200D03*
D24*
X56845100Y-94279200D03*
D25*
X53971100Y-93979200D03*
D24*
X56845100Y-93679200D03*
D25*
X53971100Y-93379200D03*
D24*
X56845100Y-93079200D03*
D16*
X121025500Y-77294200D03*
X121025500Y-78244200D03*
X121025500Y-79194200D03*
X118750500Y-79194200D03*
X118750500Y-78244200D03*
X118750500Y-77294200D03*
D15*
X56172400Y-75043800D03*
X54622400Y-75043800D03*
D54*
X87757000Y-55912000D03*
X87757000Y-56412000D03*
X87757000Y-56912000D03*
X87757000Y-57412000D03*
X87757000Y-57912000D03*
X87757000Y-58412000D03*
X87757000Y-58912000D03*
X87757000Y-59412000D03*
X87757000Y-59912000D03*
X87757000Y-60412000D03*
X87757000Y-60912000D03*
X87757000Y-61412000D03*
X87757000Y-61912000D03*
X87757000Y-62412000D03*
X87757000Y-62912000D03*
X87757000Y-63412000D03*
X87757000Y-63912000D03*
X87757000Y-64412000D03*
X87757000Y-64912000D03*
X87757000Y-65412000D03*
X87757000Y-65912000D03*
X87757000Y-66412000D03*
X87757000Y-66912000D03*
X87757000Y-67412000D03*
X87757000Y-67912000D03*
X87757000Y-68412000D03*
X87757000Y-68912000D03*
X87757000Y-69412000D03*
X87757000Y-69912000D03*
X87757000Y-70412000D03*
X87757000Y-70912000D03*
X87757000Y-71412000D03*
X87757000Y-71912000D03*
X87757000Y-72412000D03*
D55*
X90472000Y-54212000D03*
X90472000Y-74112000D03*
D19*
X136188600Y-56300800D03*
D20*
X136988600Y-56300800D03*
X137788600Y-56300800D03*
D19*
X138588600Y-56300800D03*
X138588600Y-58100800D03*
D20*
X137788600Y-58100800D03*
X136988600Y-58100800D03*
D19*
X136188600Y-58100800D03*
D31*
X120739400Y-72364600D03*
X122389400Y-72364600D03*
D18*
X116713000Y-77215200D03*
X116713000Y-78765200D03*
D22*
X101891600Y-74193400D03*
X100241600Y-74193400D03*
D12*
X90514000Y-82245200D03*
X90514000Y-83895200D03*
D56*
X117248700Y-72390000D03*
X119123700Y-72390000D03*
X100002100Y-75996800D03*
X101877100Y-75996800D03*
D10*
X96862600Y-82143600D03*
X98412600Y-82143600D03*
D12*
X122097800Y-56629800D03*
X122097800Y-58279800D03*
D17*
X69494400Y-101574600D03*
D48*
X110363000Y-61222400D03*
X110363000Y-59397400D03*
D57*
X139014200Y-60107100D03*
X139014200Y-63032100D03*
D58*
X120611100Y-63447400D03*
X120611100Y-62947400D03*
X120611100Y-62447400D03*
X120611100Y-61947400D03*
X120611100Y-61447400D03*
X120611100Y-60947400D03*
D59*
X121348600Y-60209900D03*
X121848600Y-60209900D03*
X122348600Y-60209900D03*
X122848600Y-60209900D03*
X123348600Y-60209900D03*
X123848600Y-60209900D03*
D58*
X124586100Y-60947400D03*
X124586100Y-61447400D03*
X124586100Y-61947400D03*
X124586100Y-62447400D03*
X124586100Y-62947400D03*
X124586100Y-63447400D03*
D59*
X123848600Y-64184900D03*
X123348600Y-64184900D03*
X122848600Y-64184900D03*
X122348600Y-64184900D03*
X121848600Y-64184900D03*
X121348600Y-64184900D03*
D60*
X123418600Y-61377400D03*
X122598600Y-61377400D03*
X121778600Y-61377400D03*
X123418600Y-62197400D03*
X122598600Y-62197400D03*
X121778600Y-62197400D03*
X123418600Y-63017400D03*
X122598600Y-63017400D03*
X121778600Y-63017400D03*
D61*
X54925600Y-77279000D03*
X56275600Y-77279000D03*
D31*
X54379000Y-81718600D03*
X56029000Y-81718600D03*
D17*
X69088000Y-96088200D03*
D31*
X82614000Y-74930000D03*
X84264000Y-74930000D03*
X62510800Y-76638600D03*
X64160800Y-76638600D03*
D10*
X62750400Y-78422000D03*
X64300400Y-78422000D03*
X96989600Y-70281801D03*
X98539600Y-70281801D03*
D18*
X121564400Y-66712800D03*
X121564400Y-68262800D03*
D15*
X124676200Y-65760600D03*
X123126200Y-65760600D03*
D19*
X132404000Y-58080000D03*
D20*
X133204000Y-58080000D03*
X134004000Y-58080000D03*
D19*
X134804000Y-58080000D03*
X134804000Y-59880000D03*
D20*
X134004000Y-59880000D03*
X133204000Y-59880000D03*
D19*
X132404000Y-59880000D03*
M02*
