%TF.GenerationSoftware,KiCad,Pcbnew,7.0.1*%
%TF.CreationDate,2023-08-25T16:41:40+03:00*%
%TF.ProjectId,ssd2828_board,73736432-3832-4385-9f62-6f6172642e6b,rev?*%
%TF.SameCoordinates,Original*%
%TF.FileFunction,Drillmap*%
%TF.FilePolarity,Positive*%
%FSLAX45Y45*%
G04 Gerber Fmt 4.5, Leading zero omitted, Abs format (unit mm)*
G04 Created by KiCad (PCBNEW 7.0.1) date 2023-08-25 16:41:40*
%MOMM*%
%LPD*%
G01*
G04 APERTURE LIST*
%ADD10C,0.100000*%
%ADD11C,0.200000*%
G04 APERTURE END LIST*
D10*
X14200180Y-8654690D02*
X8516950Y-8654690D01*
X8516950Y-10365740D02*
X8516950Y-8654690D01*
X5267630Y-10462260D02*
X8420265Y-10462260D01*
X5171110Y-8558170D02*
X5171110Y-10365740D01*
X8420430Y-10462260D02*
G75*
G03*
X8516950Y-10365740I0J96520D01*
G01*
X5171110Y-10365740D02*
G75*
G03*
X5267630Y-10462260I96520J0D01*
G01*
X14200180Y-8654690D02*
G75*
G03*
X14296700Y-8558170I0J96520D01*
G01*
X5267630Y-5111700D02*
G75*
G03*
X5171110Y-5208220I0J-96520D01*
G01*
X14296700Y-5207890D02*
X14296700Y-8558170D01*
X5267630Y-5111700D02*
X14200180Y-5111370D01*
X5171110Y-8558170D02*
X5171110Y-5208220D01*
X14296700Y-5207890D02*
G75*
G03*
X14200180Y-5111370I-96520J0D01*
G01*
D11*
X5413729Y-10779784D02*
X5413729Y-10579784D01*
X5413729Y-10579784D02*
X5461348Y-10579784D01*
X5461348Y-10579784D02*
X5489919Y-10589308D01*
X5489919Y-10589308D02*
X5508967Y-10608355D01*
X5508967Y-10608355D02*
X5518491Y-10627403D01*
X5518491Y-10627403D02*
X5528015Y-10665498D01*
X5528015Y-10665498D02*
X5528015Y-10694070D01*
X5528015Y-10694070D02*
X5518491Y-10732165D01*
X5518491Y-10732165D02*
X5508967Y-10751212D01*
X5508967Y-10751212D02*
X5489919Y-10770260D01*
X5489919Y-10770260D02*
X5461348Y-10779784D01*
X5461348Y-10779784D02*
X5413729Y-10779784D01*
X5613729Y-10779784D02*
X5613729Y-10646450D01*
X5613729Y-10684546D02*
X5623253Y-10665498D01*
X5623253Y-10665498D02*
X5632776Y-10655974D01*
X5632776Y-10655974D02*
X5651824Y-10646450D01*
X5651824Y-10646450D02*
X5670872Y-10646450D01*
X5737538Y-10779784D02*
X5737538Y-10646450D01*
X5737538Y-10579784D02*
X5728015Y-10589308D01*
X5728015Y-10589308D02*
X5737538Y-10598831D01*
X5737538Y-10598831D02*
X5747062Y-10589308D01*
X5747062Y-10589308D02*
X5737538Y-10579784D01*
X5737538Y-10579784D02*
X5737538Y-10598831D01*
X5861348Y-10779784D02*
X5842300Y-10770260D01*
X5842300Y-10770260D02*
X5832776Y-10751212D01*
X5832776Y-10751212D02*
X5832776Y-10579784D01*
X5966110Y-10779784D02*
X5947062Y-10770260D01*
X5947062Y-10770260D02*
X5937538Y-10751212D01*
X5937538Y-10751212D02*
X5937538Y-10579784D01*
X6194681Y-10779784D02*
X6194681Y-10579784D01*
X6194681Y-10579784D02*
X6261348Y-10722641D01*
X6261348Y-10722641D02*
X6328015Y-10579784D01*
X6328015Y-10579784D02*
X6328015Y-10779784D01*
X6508967Y-10779784D02*
X6508967Y-10675022D01*
X6508967Y-10675022D02*
X6499443Y-10655974D01*
X6499443Y-10655974D02*
X6480396Y-10646450D01*
X6480396Y-10646450D02*
X6442300Y-10646450D01*
X6442300Y-10646450D02*
X6423253Y-10655974D01*
X6508967Y-10770260D02*
X6489919Y-10779784D01*
X6489919Y-10779784D02*
X6442300Y-10779784D01*
X6442300Y-10779784D02*
X6423253Y-10770260D01*
X6423253Y-10770260D02*
X6413729Y-10751212D01*
X6413729Y-10751212D02*
X6413729Y-10732165D01*
X6413729Y-10732165D02*
X6423253Y-10713117D01*
X6423253Y-10713117D02*
X6442300Y-10703593D01*
X6442300Y-10703593D02*
X6489919Y-10703593D01*
X6489919Y-10703593D02*
X6508967Y-10694070D01*
X6604205Y-10646450D02*
X6604205Y-10846450D01*
X6604205Y-10655974D02*
X6623253Y-10646450D01*
X6623253Y-10646450D02*
X6661348Y-10646450D01*
X6661348Y-10646450D02*
X6680396Y-10655974D01*
X6680396Y-10655974D02*
X6689919Y-10665498D01*
X6689919Y-10665498D02*
X6699443Y-10684546D01*
X6699443Y-10684546D02*
X6699443Y-10741689D01*
X6699443Y-10741689D02*
X6689919Y-10760736D01*
X6689919Y-10760736D02*
X6680396Y-10770260D01*
X6680396Y-10770260D02*
X6661348Y-10779784D01*
X6661348Y-10779784D02*
X6623253Y-10779784D01*
X6623253Y-10779784D02*
X6604205Y-10770260D01*
X6785157Y-10760736D02*
X6794681Y-10770260D01*
X6794681Y-10770260D02*
X6785157Y-10779784D01*
X6785157Y-10779784D02*
X6775634Y-10770260D01*
X6775634Y-10770260D02*
X6785157Y-10760736D01*
X6785157Y-10760736D02*
X6785157Y-10779784D01*
X6785157Y-10655974D02*
X6794681Y-10665498D01*
X6794681Y-10665498D02*
X6785157Y-10675022D01*
X6785157Y-10675022D02*
X6775634Y-10665498D01*
X6775634Y-10665498D02*
X6785157Y-10655974D01*
X6785157Y-10655974D02*
X6785157Y-10675022D01*
M02*
