%TF.GenerationSoftware,KiCad,Pcbnew,7.0.1*%
%TF.CreationDate,2023-08-25T16:41:40+03:00*%
%TF.ProjectId,ssd2828_board,73736432-3832-4385-9f62-6f6172642e6b,rev?*%
%TF.SameCoordinates,Original*%
%TF.FileFunction,Drillmap*%
%TF.FilePolarity,Positive*%
%FSLAX45Y45*%
G04 Gerber Fmt 4.5, Leading zero omitted, Abs format (unit mm)*
G04 Created by KiCad (PCBNEW 7.0.1) date 2023-08-25 16:41:40*
%MOMM*%
%LPD*%
G01*
G04 APERTURE LIST*
%ADD10C,0.100000*%
%ADD11C,0.200000*%
%ADD12C,0.030000*%
G04 APERTURE END LIST*
D10*
X14200180Y-8654690D02*
X8516950Y-8654690D01*
X8516950Y-10365740D02*
X8516950Y-8654690D01*
X5267630Y-10462260D02*
X8420265Y-10462260D01*
X5171110Y-8558170D02*
X5171110Y-10365740D01*
X8420430Y-10462260D02*
G75*
G03*
X8516950Y-10365740I0J96520D01*
G01*
X5171110Y-10365740D02*
G75*
G03*
X5267630Y-10462260I96520J0D01*
G01*
X14200180Y-8654690D02*
G75*
G03*
X14296700Y-8558170I0J96520D01*
G01*
X5267630Y-5111700D02*
G75*
G03*
X5171110Y-5208220I0J-96520D01*
G01*
X14296700Y-5207890D02*
X14296700Y-8558170D01*
X5267630Y-5111700D02*
X14200180Y-5111370D01*
X5171110Y-8558170D02*
X5171110Y-5208220D01*
X14296700Y-5207890D02*
G75*
G03*
X14200180Y-5111370I-96520J0D01*
G01*
D11*
D12*
X5247880Y-6440360D02*
X5277880Y-6470360D01*
X5277880Y-6440360D02*
X5247880Y-6470360D01*
X5250420Y-5757100D02*
X5280420Y-5787100D01*
X5280420Y-5757100D02*
X5250420Y-5787100D01*
X5251605Y-6746357D02*
X5281605Y-6776357D01*
X5281605Y-6746357D02*
X5251605Y-6776357D01*
X5254127Y-6176364D02*
X5284127Y-6206364D01*
X5284127Y-6176364D02*
X5254127Y-6206364D01*
X5254127Y-7137281D02*
X5284127Y-7167281D01*
X5284127Y-7137281D02*
X5254127Y-7167281D01*
X5259171Y-5313809D02*
X5289171Y-5343809D01*
X5289171Y-5313809D02*
X5259171Y-5343809D01*
X5291700Y-7481420D02*
X5321700Y-7511420D01*
X5321700Y-7481420D02*
X5291700Y-7511420D01*
X5301700Y-7691420D02*
X5331700Y-7721420D01*
X5331700Y-7691420D02*
X5301700Y-7721420D01*
X5301700Y-7931420D02*
X5331700Y-7961420D01*
X5331700Y-7931420D02*
X5301700Y-7961420D01*
X5336780Y-7316660D02*
X5366780Y-7346660D01*
X5366780Y-7316660D02*
X5336780Y-7346660D01*
X5352020Y-6483540D02*
X5382020Y-6513540D01*
X5382020Y-6483540D02*
X5352020Y-6513540D01*
X5369800Y-8431720D02*
X5399800Y-8461720D01*
X5399800Y-8431720D02*
X5369800Y-8461720D01*
X5407900Y-6239700D02*
X5437900Y-6269700D01*
X5437900Y-6239700D02*
X5407900Y-6269700D01*
X5407900Y-6336220D02*
X5437900Y-6366220D01*
X5437900Y-6336220D02*
X5407900Y-6366220D01*
X5461240Y-7143940D02*
X5491240Y-7173940D01*
X5491240Y-7143940D02*
X5461240Y-7173940D01*
X5463780Y-5525960D02*
X5493780Y-5555960D01*
X5493780Y-5525960D02*
X5463780Y-5555960D01*
X5468860Y-6074600D02*
X5498860Y-6104600D01*
X5498860Y-6074600D02*
X5468860Y-6104600D01*
X5473940Y-5315140D02*
X5503940Y-5345140D01*
X5503940Y-5315140D02*
X5473940Y-5345140D01*
X5486640Y-5934900D02*
X5516640Y-5964900D01*
X5516640Y-5934900D02*
X5486640Y-5964900D01*
X5489180Y-5807900D02*
X5519180Y-5837900D01*
X5519180Y-5807900D02*
X5489180Y-5837900D01*
X5499340Y-5665660D02*
X5529340Y-5695660D01*
X5529340Y-5665660D02*
X5499340Y-5695660D01*
X5532360Y-5381820D02*
X5562360Y-5411820D01*
X5562360Y-5381820D02*
X5532360Y-5411820D01*
X5532360Y-5461820D02*
X5562360Y-5491820D01*
X5562360Y-5461820D02*
X5532360Y-5491820D01*
X5551700Y-5221420D02*
X5581700Y-5251420D01*
X5581700Y-5221420D02*
X5551700Y-5251420D01*
X5552184Y-6042220D02*
X5582184Y-6072220D01*
X5582184Y-6042220D02*
X5552184Y-6072220D01*
X5552184Y-6122220D02*
X5582184Y-6152220D01*
X5582184Y-6122220D02*
X5552184Y-6152220D01*
X5570460Y-6204140D02*
X5600460Y-6234140D01*
X5600460Y-6204140D02*
X5570460Y-6234140D01*
X5572100Y-5877120D02*
X5602100Y-5907120D01*
X5602100Y-5877120D02*
X5572100Y-5907120D01*
X5572100Y-5957120D02*
X5602100Y-5987120D01*
X5602100Y-5957120D02*
X5572100Y-5987120D01*
X5572290Y-5546920D02*
X5602290Y-5576920D01*
X5602290Y-5546920D02*
X5572290Y-5576920D01*
X5572290Y-5626920D02*
X5602290Y-5656920D01*
X5602290Y-5626920D02*
X5572290Y-5656920D01*
X5573000Y-5712020D02*
X5603000Y-5742020D01*
X5603000Y-5712020D02*
X5573000Y-5742020D01*
X5573000Y-5792020D02*
X5603000Y-5822020D01*
X5603000Y-5792020D02*
X5573000Y-5822020D01*
X5641700Y-6361420D02*
X5671700Y-6391420D01*
X5671700Y-6361420D02*
X5641700Y-6391420D01*
X5661700Y-8551420D02*
X5691700Y-8581420D01*
X5691700Y-8551420D02*
X5661700Y-8581420D01*
X5674600Y-8055800D02*
X5704600Y-8085800D01*
X5704600Y-8055800D02*
X5674600Y-8085800D01*
X5697460Y-7974520D02*
X5727460Y-8004520D01*
X5727460Y-7974520D02*
X5697460Y-8004520D01*
X5702540Y-7892060D02*
X5732540Y-7922060D01*
X5732540Y-7892060D02*
X5702540Y-7922060D01*
X5753340Y-8088820D02*
X5783340Y-8118820D01*
X5783340Y-8088820D02*
X5753340Y-8118820D01*
X5766040Y-7634160D02*
X5796040Y-7664160D01*
X5796040Y-7634160D02*
X5766040Y-7664160D01*
X5773660Y-7725600D02*
X5803660Y-7755600D01*
X5803660Y-7725600D02*
X5773660Y-7755600D01*
X5778740Y-6265100D02*
X5808740Y-6295100D01*
X5808740Y-6265100D02*
X5778740Y-6295100D01*
X5778740Y-6346380D02*
X5808740Y-6376380D01*
X5808740Y-6346380D02*
X5778740Y-6376380D01*
X5791440Y-5998400D02*
X5821440Y-6028400D01*
X5821440Y-5998400D02*
X5791440Y-6028400D01*
X5799060Y-5833300D02*
X5829060Y-5863300D01*
X5829060Y-5833300D02*
X5799060Y-5863300D01*
X5799060Y-6160960D02*
X5829060Y-6190960D01*
X5829060Y-6160960D02*
X5799060Y-6190960D01*
X5806680Y-5670740D02*
X5836680Y-5700740D01*
X5836680Y-5670740D02*
X5806680Y-5700740D01*
X5811760Y-5503100D02*
X5841760Y-5533100D01*
X5841760Y-5503100D02*
X5811760Y-5533100D01*
X5839700Y-5188140D02*
X5869700Y-5218140D01*
X5869700Y-5188140D02*
X5839700Y-5218140D01*
X5854940Y-8083740D02*
X5884940Y-8113740D01*
X5884940Y-8083740D02*
X5854940Y-8113740D01*
X5890500Y-5381820D02*
X5920500Y-5411820D01*
X5920500Y-5381820D02*
X5890500Y-5411820D01*
X5890500Y-5461820D02*
X5920500Y-5491820D01*
X5920500Y-5461820D02*
X5890500Y-5491820D01*
X5890500Y-5546920D02*
X5920500Y-5576920D01*
X5920500Y-5546920D02*
X5890500Y-5576920D01*
X5890500Y-5626920D02*
X5920500Y-5656920D01*
X5920500Y-5626920D02*
X5890500Y-5656920D01*
X5890500Y-5712020D02*
X5920500Y-5742020D01*
X5920500Y-5712020D02*
X5890500Y-5742020D01*
X5890500Y-5792020D02*
X5920500Y-5822020D01*
X5920500Y-5792020D02*
X5890500Y-5822020D01*
X5890500Y-5877120D02*
X5920500Y-5907120D01*
X5920500Y-5877120D02*
X5890500Y-5907120D01*
X5890500Y-5957120D02*
X5920500Y-5987120D01*
X5920500Y-5957120D02*
X5890500Y-5987120D01*
X5890500Y-6042220D02*
X5920500Y-6072220D01*
X5920500Y-6042220D02*
X5890500Y-6072220D01*
X5890500Y-6122220D02*
X5920500Y-6152220D01*
X5920500Y-6122220D02*
X5890500Y-6152220D01*
X5905740Y-6366700D02*
X5935740Y-6396700D01*
X5935740Y-6366700D02*
X5905740Y-6396700D01*
X5913360Y-6732460D02*
X5943360Y-6762460D01*
X5943360Y-6732460D02*
X5913360Y-6762460D01*
X5920980Y-7016940D02*
X5950980Y-7046940D01*
X5950980Y-7016940D02*
X5920980Y-7046940D01*
X5954000Y-6193980D02*
X5984000Y-6223980D01*
X5984000Y-6193980D02*
X5954000Y-6223980D01*
X5961620Y-5304980D02*
X5991620Y-5334980D01*
X5991620Y-5304980D02*
X5961620Y-5334980D01*
X5969240Y-5503100D02*
X5999240Y-5533100D01*
X5999240Y-5503100D02*
X5969240Y-5533100D01*
X5971780Y-5675820D02*
X6001780Y-5705820D01*
X6001780Y-5675820D02*
X5971780Y-5705820D01*
X5971780Y-7565580D02*
X6001780Y-7595580D01*
X6001780Y-7565580D02*
X5971780Y-7595580D01*
X5974320Y-5830760D02*
X6004320Y-5860760D01*
X6004320Y-5830760D02*
X5974320Y-5860760D01*
X5974320Y-5990651D02*
X6004320Y-6020651D01*
X6004320Y-5990651D02*
X5974320Y-6020651D01*
X5974320Y-6295580D02*
X6004320Y-6325580D01*
X6004320Y-6295580D02*
X5974320Y-6325580D01*
X5987020Y-7293800D02*
X6017020Y-7323800D01*
X6017020Y-7293800D02*
X5987020Y-7323800D01*
X5997180Y-8093900D02*
X6027180Y-8123900D01*
X6027180Y-8093900D02*
X5997180Y-8123900D01*
X5999720Y-7152880D02*
X6029720Y-7182880D01*
X6029720Y-7152880D02*
X5999720Y-7182880D01*
X6022580Y-8459660D02*
X6052580Y-8489660D01*
X6052580Y-8459660D02*
X6022580Y-8489660D01*
X6070840Y-6726160D02*
X6100840Y-6756160D01*
X6100840Y-6726160D02*
X6070840Y-6756160D01*
X6093700Y-8073580D02*
X6123700Y-8103580D01*
X6123700Y-8073580D02*
X6093700Y-8103580D01*
X6103860Y-7155420D02*
X6133860Y-7185420D01*
X6133860Y-7155420D02*
X6103860Y-7185420D01*
X6147040Y-7451280D02*
X6177040Y-7481280D01*
X6177040Y-7451280D02*
X6147040Y-7481280D01*
X6151700Y-5171420D02*
X6181700Y-5201420D01*
X6181700Y-5171420D02*
X6151700Y-5201420D01*
X6151700Y-8531420D02*
X6181700Y-8561420D01*
X6181700Y-8531420D02*
X6151700Y-8561420D01*
X6154660Y-7763700D02*
X6184660Y-7793700D01*
X6184660Y-7763700D02*
X6154660Y-7793700D01*
X6159740Y-6962380D02*
X6189740Y-6992380D01*
X6189740Y-6962380D02*
X6159740Y-6992380D01*
X6159740Y-7870380D02*
X6189740Y-7900380D01*
X6189740Y-7870380D02*
X6159740Y-7900380D01*
X6167360Y-6662660D02*
X6197360Y-6692660D01*
X6197360Y-6662660D02*
X6167360Y-6692660D01*
X6169900Y-7309040D02*
X6199900Y-7339040D01*
X6199900Y-7309040D02*
X6169900Y-7339040D01*
X6235940Y-7077900D02*
X6265940Y-7107900D01*
X6265940Y-7077900D02*
X6235940Y-7107900D01*
X6236080Y-7560500D02*
X6266080Y-7590500D01*
X6266080Y-7560500D02*
X6236080Y-7590500D01*
X6309600Y-7916100D02*
X6339600Y-7946100D01*
X6339600Y-7916100D02*
X6309600Y-7946100D01*
X6317220Y-6674040D02*
X6347220Y-6704040D01*
X6347220Y-6674040D02*
X6317220Y-6704040D01*
X6431520Y-7046200D02*
X6461520Y-7076200D01*
X6461520Y-7046200D02*
X6431520Y-7076200D01*
X6464540Y-7509700D02*
X6494540Y-7539700D01*
X6494540Y-7509700D02*
X6464540Y-7539700D01*
X6520420Y-6991540D02*
X6550420Y-7021540D01*
X6550420Y-6991540D02*
X6520420Y-7021540D01*
X6533120Y-7772640D02*
X6563120Y-7802640D01*
X6563120Y-7772640D02*
X6533120Y-7802640D01*
X6573760Y-8534640D02*
X6603760Y-8564640D01*
X6603760Y-8534640D02*
X6573760Y-8564640D01*
X6576300Y-8396160D02*
X6606300Y-8426160D01*
X6606300Y-8396160D02*
X6576300Y-8426160D01*
X6647420Y-7164260D02*
X6677420Y-7194260D01*
X6677420Y-7164260D02*
X6647420Y-7194260D01*
X6672820Y-7810740D02*
X6702820Y-7840740D01*
X6702820Y-7810740D02*
X6672820Y-7840740D01*
X6675360Y-7742160D02*
X6705360Y-7772160D01*
X6705360Y-7742160D02*
X6675360Y-7772160D01*
X6751700Y-5171420D02*
X6781700Y-5201420D01*
X6781700Y-5171420D02*
X6751700Y-5201420D01*
X6774420Y-8284400D02*
X6804420Y-8314400D01*
X6804420Y-8284400D02*
X6774420Y-8314400D01*
X6801700Y-8551420D02*
X6831700Y-8581420D01*
X6831700Y-8551420D02*
X6801700Y-8581420D01*
X6807440Y-7719300D02*
X6837440Y-7749300D01*
X6837440Y-7719300D02*
X6807440Y-7749300D01*
X6850620Y-6961060D02*
X6880620Y-6991060D01*
X6880620Y-6961060D02*
X6850620Y-6991060D01*
X6878560Y-6798500D02*
X6908560Y-6828500D01*
X6908560Y-6798500D02*
X6878560Y-6828500D01*
X6957300Y-6976300D02*
X6987300Y-7006300D01*
X6987300Y-6976300D02*
X6957300Y-7006300D01*
X6987780Y-8199360D02*
X7017780Y-8229360D01*
X7017780Y-8199360D02*
X6987780Y-8229360D01*
X6992860Y-6366700D02*
X7022860Y-6396700D01*
X7022860Y-6366700D02*
X6992860Y-6396700D01*
X6997940Y-8474900D02*
X7027940Y-8504900D01*
X7027940Y-8474900D02*
X6997940Y-8504900D01*
X7015720Y-6287960D02*
X7045720Y-6317960D01*
X7045720Y-6287960D02*
X7015720Y-6317960D01*
X7036040Y-6477240D02*
X7066040Y-6507240D01*
X7066040Y-6477240D02*
X7036040Y-6507240D01*
X7097000Y-6535660D02*
X7127000Y-6565660D01*
X7127000Y-6535660D02*
X7097000Y-6565660D01*
X7109700Y-7784020D02*
X7139700Y-7814020D01*
X7139700Y-7784020D02*
X7109700Y-7814020D01*
X7150340Y-6945820D02*
X7180340Y-6975820D01*
X7180340Y-6945820D02*
X7150340Y-6975820D01*
X7175740Y-6338760D02*
X7205740Y-6368760D01*
X7205740Y-6338760D02*
X7175740Y-6368760D01*
X7201140Y-8195500D02*
X7231140Y-8225500D01*
X7231140Y-8195500D02*
X7201140Y-8225500D01*
X7231620Y-6260020D02*
X7261620Y-6290020D01*
X7261620Y-6260020D02*
X7231620Y-6290020D01*
X7287500Y-6468300D02*
X7317500Y-6498300D01*
X7317500Y-6468300D02*
X7287500Y-6498300D01*
X7307820Y-6186360D02*
X7337820Y-6216360D01*
X7337820Y-6186360D02*
X7307820Y-6216360D01*
X7315440Y-6742620D02*
X7345440Y-6772620D01*
X7345440Y-6742620D02*
X7315440Y-6772620D01*
X7353540Y-6816280D02*
X7383540Y-6846280D01*
X7383540Y-6816280D02*
X7353540Y-6846280D01*
X7374404Y-6114696D02*
X7404404Y-6144696D01*
X7404404Y-6114696D02*
X7374404Y-6144696D01*
X7381480Y-8093900D02*
X7411480Y-8123900D01*
X7411480Y-8093900D02*
X7381480Y-8123900D01*
X7396720Y-6567360D02*
X7426720Y-6597360D01*
X7426720Y-6567360D02*
X7396720Y-6597360D01*
X7453089Y-6641509D02*
X7483089Y-6671509D01*
X7483089Y-6641509D02*
X7453089Y-6671509D01*
X7455140Y-6033960D02*
X7485140Y-6063960D01*
X7485140Y-6033960D02*
X7455140Y-6063960D01*
X7455140Y-7723060D02*
X7485140Y-7753060D01*
X7485140Y-7723060D02*
X7455140Y-7753060D01*
X7460220Y-6910260D02*
X7490220Y-6940260D01*
X7490220Y-6910260D02*
X7460220Y-6940260D01*
X7460220Y-8153640D02*
X7490220Y-8183640D01*
X7490220Y-8153640D02*
X7460220Y-8183640D01*
X7511020Y-5706300D02*
X7541020Y-5736300D01*
X7541020Y-5706300D02*
X7511020Y-5736300D01*
X7523720Y-5960300D02*
X7553720Y-5990300D01*
X7553720Y-5960300D02*
X7523720Y-5990300D01*
X7526260Y-8093900D02*
X7556260Y-8123900D01*
X7556260Y-8093900D02*
X7526260Y-8123900D01*
X7541700Y-8521420D02*
X7571700Y-8551420D01*
X7571700Y-8521420D02*
X7541700Y-8551420D01*
X7554200Y-5177980D02*
X7584200Y-5207980D01*
X7584200Y-5177980D02*
X7554200Y-5207980D01*
X7589760Y-6755320D02*
X7619760Y-6785320D01*
X7619760Y-6755320D02*
X7589760Y-6785320D01*
X7645640Y-5961620D02*
X7675640Y-5991620D01*
X7675640Y-5961620D02*
X7645640Y-5991620D01*
X7650720Y-5721540D02*
X7680720Y-5751540D01*
X7680720Y-5721540D02*
X7650720Y-5751540D01*
X7655800Y-7851380D02*
X7685800Y-7881380D01*
X7685800Y-7851380D02*
X7655800Y-7881380D01*
X7671700Y-7741420D02*
X7701700Y-7771420D01*
X7701700Y-7741420D02*
X7671700Y-7771420D01*
X7729460Y-5795200D02*
X7759460Y-5825200D01*
X7759460Y-5795200D02*
X7729460Y-5825200D01*
X7767560Y-5584380D02*
X7797560Y-5614380D01*
X7797560Y-5584380D02*
X7767560Y-5614380D01*
X7795500Y-7859000D02*
X7825500Y-7889000D01*
X7825500Y-7859000D02*
X7795500Y-7889000D01*
X7798040Y-5840920D02*
X7828040Y-5870920D01*
X7828040Y-5840920D02*
X7798040Y-5870920D01*
X7815820Y-8444420D02*
X7845820Y-8474420D01*
X7845820Y-8444420D02*
X7815820Y-8474420D01*
X7841220Y-5371020D02*
X7871220Y-5401020D01*
X7871220Y-5371020D02*
X7841220Y-5401020D01*
X7851380Y-6148260D02*
X7881380Y-6178260D01*
X7881380Y-6148260D02*
X7851380Y-6178260D01*
X7907260Y-5249100D02*
X7937260Y-5279100D01*
X7937260Y-5249100D02*
X7907260Y-5279100D01*
X7937740Y-5990780D02*
X7967740Y-6020780D01*
X7967740Y-5990780D02*
X7937740Y-6020780D01*
X7941700Y-8541420D02*
X7971700Y-8571420D01*
X7971700Y-8541420D02*
X7941700Y-8571420D01*
X7942820Y-7458900D02*
X7972820Y-7488900D01*
X7972820Y-7458900D02*
X7942820Y-7488900D01*
X7993620Y-8278100D02*
X8023620Y-8308100D01*
X8023620Y-8278100D02*
X7993620Y-8308100D01*
X8039340Y-8206980D02*
X8069340Y-8236980D01*
X8069340Y-8206980D02*
X8039340Y-8236980D01*
X8079980Y-8273020D02*
X8109980Y-8303020D01*
X8109980Y-8273020D02*
X8079980Y-8303020D01*
X8120620Y-8474900D02*
X8150620Y-8504900D01*
X8150620Y-8474900D02*
X8120620Y-8504900D01*
X8168880Y-5985700D02*
X8198880Y-6015700D01*
X8198880Y-5985700D02*
X8168880Y-6015700D01*
X8194280Y-5226240D02*
X8224280Y-5256240D01*
X8224280Y-5226240D02*
X8194280Y-5256240D01*
X8251700Y-7321420D02*
X8281700Y-7351420D01*
X8281700Y-7321420D02*
X8251700Y-7351420D01*
X8318740Y-5867640D02*
X8348740Y-5897640D01*
X8348740Y-5867640D02*
X8318740Y-5897640D01*
X8356840Y-5360860D02*
X8386840Y-5390860D01*
X8386840Y-5360860D02*
X8356840Y-5390860D01*
X8438120Y-7418260D02*
X8468120Y-7448260D01*
X8468120Y-7418260D02*
X8438120Y-7448260D01*
X8440660Y-5508180D02*
X8470660Y-5538180D01*
X8470660Y-5508180D02*
X8440660Y-5538180D01*
X8443200Y-5754560D02*
X8473200Y-5784560D01*
X8473200Y-5754560D02*
X8443200Y-5784560D01*
X8506700Y-7987220D02*
X8536700Y-8017220D01*
X8536700Y-7987220D02*
X8506700Y-8017220D01*
X8506700Y-8078660D02*
X8536700Y-8108660D01*
X8536700Y-8078660D02*
X8506700Y-8108660D01*
X8598140Y-7184580D02*
X8628140Y-7214580D01*
X8628140Y-7184580D02*
X8598140Y-7214580D01*
X8628620Y-7565580D02*
X8658620Y-7595580D01*
X8658620Y-7565580D02*
X8628620Y-7595580D01*
X8628620Y-8261540D02*
X8658620Y-8291540D01*
X8658620Y-8261540D02*
X8628620Y-8291540D01*
X8651700Y-8561420D02*
X8681700Y-8591420D01*
X8681700Y-8561420D02*
X8651700Y-8591420D01*
X8664180Y-7235380D02*
X8694180Y-7265380D01*
X8694180Y-7235380D02*
X8664180Y-7265380D01*
X8740380Y-7276020D02*
X8770380Y-7306020D01*
X8770380Y-7276020D02*
X8740380Y-7306020D01*
X8775940Y-5625020D02*
X8805940Y-5655020D01*
X8805940Y-5625020D02*
X8775940Y-5655020D01*
X8814040Y-5188140D02*
X8844040Y-5218140D01*
X8844040Y-5188140D02*
X8814040Y-5218140D01*
X8829280Y-8361920D02*
X8859280Y-8391920D01*
X8859280Y-8361920D02*
X8829280Y-8391920D01*
X8831820Y-8246300D02*
X8861820Y-8276300D01*
X8861820Y-8246300D02*
X8831820Y-8276300D01*
X8900400Y-8299640D02*
X8930400Y-8329640D01*
X8930400Y-8299640D02*
X8900400Y-8329640D01*
X8930880Y-7433500D02*
X8960880Y-7463500D01*
X8960880Y-7433500D02*
X8930880Y-7463500D01*
X9021700Y-5161420D02*
X9051700Y-5191420D01*
X9051700Y-5161420D02*
X9021700Y-5191420D01*
X9141700Y-8501420D02*
X9171700Y-8531420D01*
X9171700Y-8501420D02*
X9141700Y-8531420D01*
X9212820Y-8297100D02*
X9242820Y-8327100D01*
X9242820Y-8297100D02*
X9212820Y-8327100D01*
X9250920Y-7989760D02*
X9280920Y-8019760D01*
X9280920Y-7989760D02*
X9250920Y-8019760D01*
X9254692Y-7713980D02*
X9284692Y-7743980D01*
X9284692Y-7713980D02*
X9254692Y-7743980D01*
X9541700Y-8011420D02*
X9571700Y-8041420D01*
X9571700Y-8011420D02*
X9541700Y-8041420D01*
X9543020Y-7232840D02*
X9573020Y-7262840D01*
X9573020Y-7232840D02*
X9543020Y-7262840D01*
X9548100Y-6181280D02*
X9578100Y-6211280D01*
X9578100Y-6181280D02*
X9548100Y-6211280D01*
X9561700Y-7521420D02*
X9591700Y-7551420D01*
X9591700Y-7521420D02*
X9561700Y-7551420D01*
X9565880Y-8368220D02*
X9595880Y-8398220D01*
X9595880Y-8368220D02*
X9565880Y-8398220D01*
X9588740Y-6999160D02*
X9618740Y-7029160D01*
X9618740Y-6999160D02*
X9588740Y-7029160D01*
X9593820Y-6712140D02*
X9623820Y-6742140D01*
X9623820Y-6712140D02*
X9593820Y-6742140D01*
X9609060Y-5983160D02*
X9639060Y-6013160D01*
X9639060Y-5983160D02*
X9609060Y-6013160D01*
X9705580Y-6900100D02*
X9735580Y-6930100D01*
X9735580Y-6900100D02*
X9705580Y-6930100D01*
X9756380Y-8114220D02*
X9786380Y-8144220D01*
X9786380Y-8114220D02*
X9756380Y-8144220D01*
X9791700Y-5581420D02*
X9821700Y-5611420D01*
X9821700Y-5581420D02*
X9791700Y-5611420D01*
X9914891Y-8548453D02*
X9944891Y-8578453D01*
X9944891Y-8548453D02*
X9914891Y-8578453D01*
X9921480Y-7651940D02*
X9951480Y-7681940D01*
X9951480Y-7651940D02*
X9921480Y-7681940D01*
X9931640Y-8228520D02*
X9961640Y-8258520D01*
X9961640Y-8228520D02*
X9931640Y-8258520D01*
X9941700Y-8111420D02*
X9971700Y-8141420D01*
X9971700Y-8111420D02*
X9941700Y-8141420D01*
X9984980Y-7090600D02*
X10014980Y-7120600D01*
X10014980Y-7090600D02*
X9984980Y-7120600D01*
X10028160Y-7476680D02*
X10058160Y-7506680D01*
X10058160Y-7476680D02*
X10028160Y-7506680D01*
X10051700Y-6291420D02*
X10081700Y-6321420D01*
X10081700Y-6291420D02*
X10051700Y-6321420D01*
X10051700Y-6701420D02*
X10081700Y-6731420D01*
X10081700Y-6701420D02*
X10051700Y-6731420D01*
X10056100Y-5604700D02*
X10086100Y-5634700D01*
X10086100Y-5604700D02*
X10056100Y-5634700D01*
X10058640Y-8386000D02*
X10088640Y-8416000D01*
X10088640Y-8386000D02*
X10058640Y-8416000D01*
X10081500Y-5934900D02*
X10111500Y-5964900D01*
X10111500Y-5934900D02*
X10081500Y-5964900D01*
X10091660Y-8180260D02*
X10121660Y-8210260D01*
X10121660Y-8180260D02*
X10091660Y-8210260D01*
X10161700Y-6696900D02*
X10191700Y-6726900D01*
X10191700Y-6696900D02*
X10161700Y-6726900D01*
X10181700Y-6141420D02*
X10211700Y-6171420D01*
X10211700Y-6141420D02*
X10181700Y-6171420D01*
X10234882Y-8533976D02*
X10264882Y-8563976D01*
X10264882Y-8533976D02*
X10234882Y-8563976D01*
X10236440Y-7486840D02*
X10266440Y-7516840D01*
X10266440Y-7486840D02*
X10236440Y-7516840D01*
X10310100Y-7951660D02*
X10340100Y-7981660D01*
X10340100Y-7951660D02*
X10310100Y-7981660D01*
X10421860Y-7951660D02*
X10451860Y-7981660D01*
X10451860Y-7951660D02*
X10421860Y-7981660D01*
X10500600Y-8203120D02*
X10530600Y-8233120D01*
X10530600Y-8203120D02*
X10500600Y-8233120D01*
X10508220Y-7799260D02*
X10538220Y-7829260D01*
X10538220Y-7799260D02*
X10508220Y-7829260D01*
X10533620Y-7951660D02*
X10563620Y-7981660D01*
X10563620Y-7951660D02*
X10533620Y-7981660D01*
X10548860Y-6320980D02*
X10578860Y-6350980D01*
X10578860Y-6320980D02*
X10548860Y-6350980D01*
X10569180Y-8535860D02*
X10599180Y-8565860D01*
X10599180Y-8535860D02*
X10569180Y-8565860D01*
X10574900Y-7857680D02*
X10604900Y-7887680D01*
X10604900Y-7857680D02*
X10574900Y-7887680D01*
X10574900Y-8167560D02*
X10604900Y-8197560D01*
X10604900Y-8167560D02*
X10574900Y-8197560D01*
X10650460Y-6397180D02*
X10680460Y-6427180D01*
X10680460Y-6397180D02*
X10650460Y-6427180D01*
X10652300Y-6600380D02*
X10682300Y-6630380D01*
X10682300Y-6600380D02*
X10652300Y-6630380D01*
X10654900Y-7857680D02*
X10684900Y-7887680D01*
X10684900Y-7857680D02*
X10654900Y-7887680D01*
X10654900Y-8167560D02*
X10684900Y-8197560D01*
X10684900Y-8167560D02*
X10654900Y-8197560D01*
X10690140Y-5848540D02*
X10720140Y-5878540D01*
X10720140Y-5848540D02*
X10690140Y-5878540D01*
X10710460Y-6092380D02*
X10740460Y-6122380D01*
X10740460Y-6092380D02*
X10710460Y-6122380D01*
X10721580Y-7951660D02*
X10751580Y-7981660D01*
X10751580Y-7951660D02*
X10721580Y-7981660D01*
X10724120Y-7776400D02*
X10754120Y-7806400D01*
X10754120Y-7776400D02*
X10724120Y-7806400D01*
X10724120Y-8210740D02*
X10754120Y-8240740D01*
X10754120Y-8210740D02*
X10724120Y-8240740D01*
X10782540Y-6557200D02*
X10812540Y-6587200D01*
X10812540Y-6557200D02*
X10782540Y-6587200D01*
X10795880Y-7852600D02*
X10825880Y-7882600D01*
X10825880Y-7852600D02*
X10795880Y-7882600D01*
X10795880Y-8172640D02*
X10825880Y-8202640D01*
X10825880Y-8172640D02*
X10795880Y-8202640D01*
X10813020Y-6641020D02*
X10843020Y-6671020D01*
X10843020Y-6641020D02*
X10813020Y-6671020D01*
X10868900Y-6559740D02*
X10898900Y-6589740D01*
X10898900Y-6559740D02*
X10868900Y-6589740D01*
X10875880Y-7852600D02*
X10905880Y-7882600D01*
X10905880Y-7852600D02*
X10875880Y-7882600D01*
X10875880Y-8172640D02*
X10905880Y-8202640D01*
X10905880Y-8172640D02*
X10875880Y-8202640D01*
X10924780Y-6630860D02*
X10954780Y-6660860D01*
X10954780Y-6630860D02*
X10924780Y-6660860D01*
X10943309Y-8527251D02*
X10973309Y-8557251D01*
X10973309Y-8527251D02*
X10943309Y-8557251D01*
X10950180Y-7946580D02*
X10980180Y-7976580D01*
X10980180Y-7946580D02*
X10950180Y-7976580D01*
X10957800Y-7778940D02*
X10987800Y-7808940D01*
X10987800Y-7778940D02*
X10957800Y-7808940D01*
X10957800Y-8208200D02*
X10987800Y-8238200D01*
X10987800Y-8208200D02*
X10957800Y-8238200D01*
X11002300Y-6600380D02*
X11032300Y-6630380D01*
X11032300Y-6600380D02*
X11002300Y-6630380D01*
X11008600Y-5360860D02*
X11038600Y-5390860D01*
X11038600Y-5360860D02*
X11008600Y-5390860D01*
X11141700Y-8521420D02*
X11171700Y-8551420D01*
X11171700Y-8521420D02*
X11141700Y-8551420D01*
X11161000Y-5619940D02*
X11191000Y-5649940D01*
X11191000Y-5619940D02*
X11161000Y-5649940D01*
X11168620Y-8304720D02*
X11198620Y-8334720D01*
X11198620Y-8304720D02*
X11168620Y-8334720D01*
X11171700Y-5321420D02*
X11201700Y-5351420D01*
X11201700Y-5321420D02*
X11171700Y-5351420D01*
X11211800Y-6282880D02*
X11241800Y-6312880D01*
X11241800Y-6282880D02*
X11211800Y-6312880D01*
X11216880Y-6660120D02*
X11246880Y-6690120D01*
X11246880Y-6660120D02*
X11216880Y-6690120D01*
X11231700Y-7861420D02*
X11261700Y-7891420D01*
X11261700Y-7861420D02*
X11231700Y-7891420D01*
X11232120Y-7373860D02*
X11262120Y-7403860D01*
X11262120Y-7373860D02*
X11232120Y-7403860D01*
X11234660Y-6982700D02*
X11264660Y-7012700D01*
X11264660Y-6982700D02*
X11234660Y-7012700D01*
X11531840Y-6390880D02*
X11561840Y-6420880D01*
X11561840Y-6390880D02*
X11531840Y-6420880D01*
X11541700Y-5281420D02*
X11571700Y-5311420D01*
X11571700Y-5281420D02*
X11541700Y-5311420D01*
X11541700Y-5721420D02*
X11571700Y-5751420D01*
X11571700Y-5721420D02*
X11541700Y-5751420D01*
X11559780Y-6016180D02*
X11589780Y-6046180D01*
X11589780Y-6016180D02*
X11559780Y-6046180D01*
X11581700Y-7371420D02*
X11611700Y-7401420D01*
X11611700Y-7371420D02*
X11581700Y-7401420D01*
X11582640Y-7110920D02*
X11612640Y-7140920D01*
X11612640Y-7110920D02*
X11582640Y-7140920D01*
X11605500Y-6554660D02*
X11635500Y-6584660D01*
X11635500Y-6554660D02*
X11605500Y-6584660D01*
X11633440Y-5459920D02*
X11663440Y-5489920D01*
X11663440Y-5459920D02*
X11633440Y-5489920D01*
X11638520Y-8330120D02*
X11668520Y-8360120D01*
X11668520Y-8330120D02*
X11638520Y-8360120D01*
X11648680Y-7961820D02*
X11678680Y-7991820D01*
X11678680Y-7961820D02*
X11648680Y-7991820D01*
X11674080Y-6638480D02*
X11704080Y-6668480D01*
X11704080Y-6638480D02*
X11674080Y-6668480D01*
X11722340Y-5685980D02*
X11752340Y-5715980D01*
X11752340Y-5685980D02*
X11722340Y-5715980D01*
X11765520Y-8210740D02*
X11795520Y-8240740D01*
X11795520Y-8210740D02*
X11765520Y-8240740D01*
X11821400Y-6882320D02*
X11851400Y-6912320D01*
X11851400Y-6882320D02*
X11821400Y-6912320D01*
X11831560Y-5343080D02*
X11861560Y-5373080D01*
X11861560Y-5343080D02*
X11831560Y-5373080D01*
X11856960Y-7072820D02*
X11886960Y-7102820D01*
X11886960Y-7072820D02*
X11856960Y-7102820D01*
X11911700Y-8441420D02*
X11941700Y-8471420D01*
X11941700Y-8441420D02*
X11911700Y-8471420D01*
X12006820Y-6158420D02*
X12036820Y-6188420D01*
X12036820Y-6158420D02*
X12006820Y-6188420D01*
X12024600Y-8142160D02*
X12054600Y-8172160D01*
X12054600Y-8142160D02*
X12024600Y-8172160D01*
X12027140Y-6077140D02*
X12057140Y-6107140D01*
X12057140Y-6077140D02*
X12027140Y-6107140D01*
X12029680Y-6806120D02*
X12059680Y-6836120D01*
X12059680Y-6806120D02*
X12029680Y-6836120D01*
X12047460Y-7306500D02*
X12077460Y-7336500D01*
X12077460Y-7306500D02*
X12047460Y-7336500D01*
X12100800Y-5393880D02*
X12130800Y-5423880D01*
X12130800Y-5393880D02*
X12100800Y-5423880D01*
X12130010Y-6802310D02*
X12160010Y-6832310D01*
X12160010Y-6802310D02*
X12130010Y-6832310D01*
X12161760Y-8032940D02*
X12191760Y-8062940D01*
X12191760Y-8032940D02*
X12161760Y-8062940D01*
X12189700Y-6668960D02*
X12219700Y-6698960D01*
X12219700Y-6668960D02*
X12189700Y-6698960D01*
X12268440Y-8368220D02*
X12298440Y-8398220D01*
X12298440Y-8368220D02*
X12268440Y-8398220D01*
X12311700Y-5521420D02*
X12341700Y-5551420D01*
X12341700Y-5521420D02*
X12311700Y-5551420D01*
X12326860Y-8231060D02*
X12356860Y-8261060D01*
X12356860Y-8231060D02*
X12326860Y-8261060D01*
X12367500Y-7469060D02*
X12397500Y-7499060D01*
X12397500Y-7469060D02*
X12367500Y-7499060D01*
X12377660Y-5665660D02*
X12407660Y-5695660D01*
X12407660Y-5665660D02*
X12377660Y-5695660D01*
X12428460Y-5381180D02*
X12458460Y-5411180D01*
X12458460Y-5381180D02*
X12428460Y-5411180D01*
X12484340Y-5782500D02*
X12514340Y-5812500D01*
X12514340Y-5782500D02*
X12484340Y-5812500D01*
X12560540Y-6900100D02*
X12590540Y-6930100D01*
X12590540Y-6900100D02*
X12560540Y-6930100D01*
X12561700Y-8491420D02*
X12591700Y-8521420D01*
X12591700Y-8491420D02*
X12561700Y-8521420D01*
X12570700Y-7453820D02*
X12600700Y-7483820D01*
X12600700Y-7453820D02*
X12570700Y-7483820D01*
X12611700Y-7331420D02*
X12641700Y-7361420D01*
X12641700Y-7331420D02*
X12611700Y-7361420D01*
X12644360Y-5551360D02*
X12674360Y-5581360D01*
X12674360Y-5551360D02*
X12644360Y-5581360D01*
X12651980Y-6122860D02*
X12681980Y-6152860D01*
X12681980Y-6122860D02*
X12651980Y-6152860D01*
X12661700Y-6821420D02*
X12691700Y-6851420D01*
X12691700Y-6821420D02*
X12661700Y-6851420D01*
X12661700Y-7721420D02*
X12691700Y-7751420D01*
X12691700Y-7721420D02*
X12661700Y-7751420D01*
X12664680Y-5365940D02*
X12694680Y-5395940D01*
X12694680Y-5365940D02*
X12664680Y-5395940D01*
X12712940Y-8144700D02*
X12742940Y-8174700D01*
X12742940Y-8144700D02*
X12712940Y-8174700D01*
X12738340Y-6660120D02*
X12768340Y-6690120D01*
X12768340Y-6660120D02*
X12738340Y-6690120D01*
X12832320Y-8375840D02*
X12862320Y-8405840D01*
X12862320Y-8375840D02*
X12832320Y-8405840D01*
X12847560Y-6031420D02*
X12877560Y-6061420D01*
X12877560Y-6031420D02*
X12847560Y-6061420D01*
X12857720Y-8289480D02*
X12887720Y-8319480D01*
X12887720Y-8289480D02*
X12857720Y-8319480D01*
X12860260Y-7834820D02*
X12890260Y-7864820D01*
X12890260Y-7834820D02*
X12860260Y-7864820D01*
X12870420Y-8520620D02*
X12900420Y-8550620D01*
X12900420Y-8520620D02*
X12870420Y-8550620D01*
X12881700Y-7971420D02*
X12911700Y-8001420D01*
X12911700Y-7971420D02*
X12881700Y-8001420D01*
X12883120Y-8185340D02*
X12913120Y-8215340D01*
X12913120Y-8185340D02*
X12883120Y-8215340D01*
X12901939Y-5720616D02*
X12931939Y-5750616D01*
X12931939Y-5720616D02*
X12901939Y-5750616D01*
X12935200Y-7872920D02*
X12965200Y-7902920D01*
X12965200Y-7872920D02*
X12935200Y-7902920D01*
X12935200Y-8253920D02*
X12965200Y-8283920D01*
X12965200Y-8253920D02*
X12935200Y-8283920D01*
X12936460Y-5934900D02*
X12966460Y-5964900D01*
X12966460Y-5934900D02*
X12936460Y-5964900D01*
X13005040Y-6854380D02*
X13035040Y-6884380D01*
X13035040Y-6854380D02*
X13005040Y-6884380D01*
X13015200Y-7872920D02*
X13045200Y-7902920D01*
X13045200Y-7872920D02*
X13015200Y-7902920D01*
X13015200Y-8253920D02*
X13045200Y-8283920D01*
X13045200Y-8253920D02*
X13015200Y-8283920D01*
X13022820Y-5680900D02*
X13052820Y-5710900D01*
X13052820Y-5680900D02*
X13022820Y-5710900D01*
X13050760Y-7796720D02*
X13080760Y-7826720D01*
X13080760Y-7796720D02*
X13050760Y-7826720D01*
X13051700Y-7971420D02*
X13081700Y-8001420D01*
X13081700Y-7971420D02*
X13051700Y-8001420D01*
X13088516Y-6854036D02*
X13118516Y-6884036D01*
X13118516Y-6854036D02*
X13088516Y-6884036D01*
X13092680Y-8190420D02*
X13122680Y-8220420D01*
X13122680Y-8190420D02*
X13092680Y-8220420D01*
X13106640Y-8274240D02*
X13136640Y-8304240D01*
X13136640Y-8274240D02*
X13106640Y-8304240D01*
X13121880Y-6989000D02*
X13151880Y-7019000D01*
X13151880Y-6989000D02*
X13121880Y-7019000D01*
X13145084Y-6910604D02*
X13175084Y-6940604D01*
X13175084Y-6910604D02*
X13145084Y-6940604D01*
X13170140Y-6653720D02*
X13200140Y-6683720D01*
X13200140Y-6653720D02*
X13170140Y-6683720D01*
X13172680Y-8190420D02*
X13202680Y-8220420D01*
X13202680Y-8190420D02*
X13172680Y-8220420D01*
X13208240Y-8525700D02*
X13238240Y-8555700D01*
X13238240Y-8525700D02*
X13208240Y-8555700D01*
X13213320Y-6063820D02*
X13243320Y-6093820D01*
X13243320Y-6063820D02*
X13213320Y-6093820D01*
X13221700Y-7971420D02*
X13251700Y-8001420D01*
X13251700Y-7971420D02*
X13221700Y-8001420D01*
X13231100Y-6707420D02*
X13261100Y-6737420D01*
X13261100Y-6707420D02*
X13231100Y-6737420D01*
X13231100Y-6787420D02*
X13261100Y-6817420D01*
X13261100Y-6787420D02*
X13231100Y-6817420D01*
X13246340Y-8274240D02*
X13276340Y-8304240D01*
X13276340Y-8274240D02*
X13246340Y-8304240D01*
X13267940Y-8190420D02*
X13297940Y-8220420D01*
X13297940Y-8190420D02*
X13267940Y-8220420D01*
X13347940Y-8190420D02*
X13377940Y-8220420D01*
X13377940Y-8190420D02*
X13347940Y-8220420D01*
X13380960Y-8264080D02*
X13410960Y-8294080D01*
X13410960Y-8264080D02*
X13380960Y-8294080D01*
X13391700Y-7971420D02*
X13421700Y-8001420D01*
X13421700Y-7971420D02*
X13391700Y-8001420D01*
X13432400Y-8191320D02*
X13462400Y-8221320D01*
X13462400Y-8191320D02*
X13432400Y-8221320D01*
X13459700Y-7078420D02*
X13489700Y-7108420D01*
X13489700Y-7078420D02*
X13459700Y-7108420D01*
X13462240Y-7182040D02*
X13492240Y-7212040D01*
X13492240Y-7182040D02*
X13462240Y-7212040D01*
X13464780Y-5467540D02*
X13494780Y-5497540D01*
X13494780Y-5467540D02*
X13464780Y-5497540D01*
X13485700Y-6904420D02*
X13515700Y-6934420D01*
X13515700Y-6904420D02*
X13485700Y-6934420D01*
X13487700Y-6589420D02*
X13517700Y-6619420D01*
X13517700Y-6589420D02*
X13487700Y-6619420D01*
X13487700Y-6799420D02*
X13517700Y-6829420D01*
X13517700Y-6799420D02*
X13487700Y-6829420D01*
X13490700Y-6694420D02*
X13520700Y-6724420D01*
X13520700Y-6694420D02*
X13490700Y-6724420D01*
X13502880Y-6422580D02*
X13532880Y-6452580D01*
X13532880Y-6422580D02*
X13502880Y-6452580D01*
X13511700Y-6991420D02*
X13541700Y-7021420D01*
X13541700Y-6991420D02*
X13511700Y-7021420D01*
X13512400Y-8191320D02*
X13542400Y-8221320D01*
X13542400Y-8191320D02*
X13512400Y-8221320D01*
X13520660Y-6341300D02*
X13550660Y-6371300D01*
X13550660Y-6341300D02*
X13520660Y-6371300D01*
X13546060Y-8266620D02*
X13576060Y-8296620D01*
X13576060Y-8266620D02*
X13546060Y-8296620D01*
X13571460Y-7796720D02*
X13601460Y-7826720D01*
X13601460Y-7796720D02*
X13571460Y-7826720D01*
X13571700Y-7971420D02*
X13601700Y-8001420D01*
X13601700Y-7971420D02*
X13571700Y-8001420D01*
X13591700Y-7322420D02*
X13621700Y-7352420D01*
X13621700Y-7322420D02*
X13591700Y-7352420D01*
X13596516Y-8200236D02*
X13626516Y-8230236D01*
X13626516Y-8200236D02*
X13596516Y-8230236D01*
X13622900Y-7872920D02*
X13652900Y-7902920D01*
X13652900Y-7872920D02*
X13622900Y-7902920D01*
X13637500Y-8523160D02*
X13667500Y-8553160D01*
X13667500Y-8523160D02*
X13637500Y-8553160D01*
X13653084Y-8256804D02*
X13683084Y-8286804D01*
X13683084Y-8256804D02*
X13653084Y-8286804D01*
X13664700Y-7195420D02*
X13694700Y-7225420D01*
X13694700Y-7195420D02*
X13664700Y-7225420D01*
X13702900Y-7872920D02*
X13732900Y-7902920D01*
X13732900Y-7872920D02*
X13702900Y-7902920D01*
X13703540Y-5548820D02*
X13733540Y-5578820D01*
X13733540Y-5548820D02*
X13703540Y-5578820D01*
X13734020Y-8264080D02*
X13764020Y-8294080D01*
X13764020Y-8264080D02*
X13734020Y-8294080D01*
X13756880Y-7799260D02*
X13786880Y-7829260D01*
X13786880Y-7799260D02*
X13756880Y-7829260D01*
X13761700Y-7971420D02*
X13791700Y-8001420D01*
X13791700Y-7971420D02*
X13761700Y-8001420D01*
X13835000Y-6059980D02*
X13865000Y-6089980D01*
X13865000Y-6059980D02*
X13835000Y-6089980D01*
X13899120Y-7042340D02*
X13929120Y-7072340D01*
X13929120Y-7042340D02*
X13899120Y-7072340D01*
X13906740Y-6376860D02*
X13936740Y-6406860D01*
X13936740Y-6376860D02*
X13906740Y-6406860D01*
X13914016Y-6961404D02*
X13944016Y-6991404D01*
X13944016Y-6961404D02*
X13914016Y-6991404D01*
X13921700Y-8471420D02*
X13951700Y-8501420D01*
X13951700Y-8471420D02*
X13921700Y-8501420D01*
X13970584Y-6904836D02*
X14000584Y-6934836D01*
X14000584Y-6904836D02*
X13970584Y-6934836D01*
X13981700Y-8131420D02*
X14011700Y-8161420D01*
X14011700Y-8131420D02*
X13981700Y-8161420D01*
X14045506Y-7891846D02*
X14075506Y-7921846D01*
X14075506Y-7891846D02*
X14045506Y-7921846D01*
X14051520Y-6895020D02*
X14081520Y-6925020D01*
X14081520Y-6895020D02*
X14051520Y-6925020D01*
X14061700Y-5421420D02*
X14091700Y-5451420D01*
X14091700Y-5421420D02*
X14061700Y-5451420D01*
X14071700Y-6131420D02*
X14101700Y-6161420D01*
X14101700Y-6131420D02*
X14071700Y-6161420D01*
X14111700Y-6581420D02*
X14141700Y-6611420D01*
X14141700Y-6581420D02*
X14111700Y-6611420D01*
X14151700Y-5781420D02*
X14181700Y-5811420D01*
X14181700Y-5781420D02*
X14151700Y-5811420D01*
X14181700Y-7721420D02*
X14211700Y-7751420D01*
X14211700Y-7721420D02*
X14181700Y-7751420D01*
X14211700Y-6951420D02*
X14241700Y-6981420D01*
X14241700Y-6951420D02*
X14211700Y-6981420D01*
X14211700Y-7311420D02*
X14241700Y-7341420D01*
X14241700Y-7311420D02*
X14211700Y-7341420D01*
D11*
X5413729Y-10779784D02*
X5413729Y-10579784D01*
X5413729Y-10579784D02*
X5461348Y-10579784D01*
X5461348Y-10579784D02*
X5489919Y-10589308D01*
X5489919Y-10589308D02*
X5508967Y-10608355D01*
X5508967Y-10608355D02*
X5518491Y-10627403D01*
X5518491Y-10627403D02*
X5528015Y-10665498D01*
X5528015Y-10665498D02*
X5528015Y-10694070D01*
X5528015Y-10694070D02*
X5518491Y-10732165D01*
X5518491Y-10732165D02*
X5508967Y-10751212D01*
X5508967Y-10751212D02*
X5489919Y-10770260D01*
X5489919Y-10770260D02*
X5461348Y-10779784D01*
X5461348Y-10779784D02*
X5413729Y-10779784D01*
X5613729Y-10779784D02*
X5613729Y-10646450D01*
X5613729Y-10684546D02*
X5623253Y-10665498D01*
X5623253Y-10665498D02*
X5632776Y-10655974D01*
X5632776Y-10655974D02*
X5651824Y-10646450D01*
X5651824Y-10646450D02*
X5670872Y-10646450D01*
X5737538Y-10779784D02*
X5737538Y-10646450D01*
X5737538Y-10579784D02*
X5728015Y-10589308D01*
X5728015Y-10589308D02*
X5737538Y-10598831D01*
X5737538Y-10598831D02*
X5747062Y-10589308D01*
X5747062Y-10589308D02*
X5737538Y-10579784D01*
X5737538Y-10579784D02*
X5737538Y-10598831D01*
X5861348Y-10779784D02*
X5842300Y-10770260D01*
X5842300Y-10770260D02*
X5832776Y-10751212D01*
X5832776Y-10751212D02*
X5832776Y-10579784D01*
X5966110Y-10779784D02*
X5947062Y-10770260D01*
X5947062Y-10770260D02*
X5937538Y-10751212D01*
X5937538Y-10751212D02*
X5937538Y-10579784D01*
X6194681Y-10779784D02*
X6194681Y-10579784D01*
X6194681Y-10579784D02*
X6261348Y-10722641D01*
X6261348Y-10722641D02*
X6328015Y-10579784D01*
X6328015Y-10579784D02*
X6328015Y-10779784D01*
X6508967Y-10779784D02*
X6508967Y-10675022D01*
X6508967Y-10675022D02*
X6499443Y-10655974D01*
X6499443Y-10655974D02*
X6480396Y-10646450D01*
X6480396Y-10646450D02*
X6442300Y-10646450D01*
X6442300Y-10646450D02*
X6423253Y-10655974D01*
X6508967Y-10770260D02*
X6489919Y-10779784D01*
X6489919Y-10779784D02*
X6442300Y-10779784D01*
X6442300Y-10779784D02*
X6423253Y-10770260D01*
X6423253Y-10770260D02*
X6413729Y-10751212D01*
X6413729Y-10751212D02*
X6413729Y-10732165D01*
X6413729Y-10732165D02*
X6423253Y-10713117D01*
X6423253Y-10713117D02*
X6442300Y-10703593D01*
X6442300Y-10703593D02*
X6489919Y-10703593D01*
X6489919Y-10703593D02*
X6508967Y-10694070D01*
X6604205Y-10646450D02*
X6604205Y-10846450D01*
X6604205Y-10655974D02*
X6623253Y-10646450D01*
X6623253Y-10646450D02*
X6661348Y-10646450D01*
X6661348Y-10646450D02*
X6680396Y-10655974D01*
X6680396Y-10655974D02*
X6689919Y-10665498D01*
X6689919Y-10665498D02*
X6699443Y-10684546D01*
X6699443Y-10684546D02*
X6699443Y-10741689D01*
X6699443Y-10741689D02*
X6689919Y-10760736D01*
X6689919Y-10760736D02*
X6680396Y-10770260D01*
X6680396Y-10770260D02*
X6661348Y-10779784D01*
X6661348Y-10779784D02*
X6623253Y-10779784D01*
X6623253Y-10779784D02*
X6604205Y-10770260D01*
X6785157Y-10760736D02*
X6794681Y-10770260D01*
X6794681Y-10770260D02*
X6785157Y-10779784D01*
X6785157Y-10779784D02*
X6775634Y-10770260D01*
X6775634Y-10770260D02*
X6785157Y-10760736D01*
X6785157Y-10760736D02*
X6785157Y-10779784D01*
X6785157Y-10655974D02*
X6794681Y-10665498D01*
X6794681Y-10665498D02*
X6785157Y-10675022D01*
X6785157Y-10675022D02*
X6775634Y-10665498D01*
X6775634Y-10665498D02*
X6785157Y-10655974D01*
X6785157Y-10655974D02*
X6785157Y-10675022D01*
D12*
X5136110Y-11092260D02*
X5166110Y-11122260D01*
X5166110Y-11092260D02*
X5136110Y-11122260D01*
D11*
X5451824Y-10999784D02*
X5470872Y-10999784D01*
X5470872Y-10999784D02*
X5489919Y-11009308D01*
X5489919Y-11009308D02*
X5499443Y-11018831D01*
X5499443Y-11018831D02*
X5508967Y-11037879D01*
X5508967Y-11037879D02*
X5518491Y-11075974D01*
X5518491Y-11075974D02*
X5518491Y-11123593D01*
X5518491Y-11123593D02*
X5508967Y-11161689D01*
X5508967Y-11161689D02*
X5499443Y-11180736D01*
X5499443Y-11180736D02*
X5489919Y-11190260D01*
X5489919Y-11190260D02*
X5470872Y-11199784D01*
X5470872Y-11199784D02*
X5451824Y-11199784D01*
X5451824Y-11199784D02*
X5432777Y-11190260D01*
X5432777Y-11190260D02*
X5423253Y-11180736D01*
X5423253Y-11180736D02*
X5413729Y-11161689D01*
X5413729Y-11161689D02*
X5404205Y-11123593D01*
X5404205Y-11123593D02*
X5404205Y-11075974D01*
X5404205Y-11075974D02*
X5413729Y-11037879D01*
X5413729Y-11037879D02*
X5423253Y-11018831D01*
X5423253Y-11018831D02*
X5432777Y-11009308D01*
X5432777Y-11009308D02*
X5451824Y-10999784D01*
X5604205Y-11180736D02*
X5613729Y-11190260D01*
X5613729Y-11190260D02*
X5604205Y-11199784D01*
X5604205Y-11199784D02*
X5594681Y-11190260D01*
X5594681Y-11190260D02*
X5604205Y-11180736D01*
X5604205Y-11180736D02*
X5604205Y-11199784D01*
X5680396Y-10999784D02*
X5804205Y-10999784D01*
X5804205Y-10999784D02*
X5737538Y-11075974D01*
X5737538Y-11075974D02*
X5766110Y-11075974D01*
X5766110Y-11075974D02*
X5785157Y-11085498D01*
X5785157Y-11085498D02*
X5794681Y-11095022D01*
X5794681Y-11095022D02*
X5804205Y-11114070D01*
X5804205Y-11114070D02*
X5804205Y-11161689D01*
X5804205Y-11161689D02*
X5794681Y-11180736D01*
X5794681Y-11180736D02*
X5785157Y-11190260D01*
X5785157Y-11190260D02*
X5766110Y-11199784D01*
X5766110Y-11199784D02*
X5708967Y-11199784D01*
X5708967Y-11199784D02*
X5689919Y-11190260D01*
X5689919Y-11190260D02*
X5680396Y-11180736D01*
X5928015Y-10999784D02*
X5947062Y-10999784D01*
X5947062Y-10999784D02*
X5966110Y-11009308D01*
X5966110Y-11009308D02*
X5975634Y-11018831D01*
X5975634Y-11018831D02*
X5985157Y-11037879D01*
X5985157Y-11037879D02*
X5994681Y-11075974D01*
X5994681Y-11075974D02*
X5994681Y-11123593D01*
X5994681Y-11123593D02*
X5985157Y-11161689D01*
X5985157Y-11161689D02*
X5975634Y-11180736D01*
X5975634Y-11180736D02*
X5966110Y-11190260D01*
X5966110Y-11190260D02*
X5947062Y-11199784D01*
X5947062Y-11199784D02*
X5928015Y-11199784D01*
X5928015Y-11199784D02*
X5908967Y-11190260D01*
X5908967Y-11190260D02*
X5899443Y-11180736D01*
X5899443Y-11180736D02*
X5889919Y-11161689D01*
X5889919Y-11161689D02*
X5880396Y-11123593D01*
X5880396Y-11123593D02*
X5880396Y-11075974D01*
X5880396Y-11075974D02*
X5889919Y-11037879D01*
X5889919Y-11037879D02*
X5899443Y-11018831D01*
X5899443Y-11018831D02*
X5908967Y-11009308D01*
X5908967Y-11009308D02*
X5928015Y-10999784D01*
X6118491Y-10999784D02*
X6137538Y-10999784D01*
X6137538Y-10999784D02*
X6156586Y-11009308D01*
X6156586Y-11009308D02*
X6166110Y-11018831D01*
X6166110Y-11018831D02*
X6175634Y-11037879D01*
X6175634Y-11037879D02*
X6185157Y-11075974D01*
X6185157Y-11075974D02*
X6185157Y-11123593D01*
X6185157Y-11123593D02*
X6175634Y-11161689D01*
X6175634Y-11161689D02*
X6166110Y-11180736D01*
X6166110Y-11180736D02*
X6156586Y-11190260D01*
X6156586Y-11190260D02*
X6137538Y-11199784D01*
X6137538Y-11199784D02*
X6118491Y-11199784D01*
X6118491Y-11199784D02*
X6099443Y-11190260D01*
X6099443Y-11190260D02*
X6089919Y-11180736D01*
X6089919Y-11180736D02*
X6080396Y-11161689D01*
X6080396Y-11161689D02*
X6070872Y-11123593D01*
X6070872Y-11123593D02*
X6070872Y-11075974D01*
X6070872Y-11075974D02*
X6080396Y-11037879D01*
X6080396Y-11037879D02*
X6089919Y-11018831D01*
X6089919Y-11018831D02*
X6099443Y-11009308D01*
X6099443Y-11009308D02*
X6118491Y-10999784D01*
X6270872Y-11199784D02*
X6270872Y-11066450D01*
X6270872Y-11085498D02*
X6280396Y-11075974D01*
X6280396Y-11075974D02*
X6299443Y-11066450D01*
X6299443Y-11066450D02*
X6328015Y-11066450D01*
X6328015Y-11066450D02*
X6347062Y-11075974D01*
X6347062Y-11075974D02*
X6356586Y-11095022D01*
X6356586Y-11095022D02*
X6356586Y-11199784D01*
X6356586Y-11095022D02*
X6366110Y-11075974D01*
X6366110Y-11075974D02*
X6385157Y-11066450D01*
X6385157Y-11066450D02*
X6413729Y-11066450D01*
X6413729Y-11066450D02*
X6432777Y-11075974D01*
X6432777Y-11075974D02*
X6442300Y-11095022D01*
X6442300Y-11095022D02*
X6442300Y-11199784D01*
X6537538Y-11199784D02*
X6537538Y-11066450D01*
X6537538Y-11085498D02*
X6547062Y-11075974D01*
X6547062Y-11075974D02*
X6566110Y-11066450D01*
X6566110Y-11066450D02*
X6594681Y-11066450D01*
X6594681Y-11066450D02*
X6613729Y-11075974D01*
X6613729Y-11075974D02*
X6623253Y-11095022D01*
X6623253Y-11095022D02*
X6623253Y-11199784D01*
X6623253Y-11095022D02*
X6632777Y-11075974D01*
X6632777Y-11075974D02*
X6651824Y-11066450D01*
X6651824Y-11066450D02*
X6680396Y-11066450D01*
X6680396Y-11066450D02*
X6699443Y-11075974D01*
X6699443Y-11075974D02*
X6708967Y-11095022D01*
X6708967Y-11095022D02*
X6708967Y-11199784D01*
X7099443Y-10990260D02*
X6928015Y-11247403D01*
X7356586Y-10999784D02*
X7375634Y-10999784D01*
X7375634Y-10999784D02*
X7394681Y-11009308D01*
X7394681Y-11009308D02*
X7404205Y-11018831D01*
X7404205Y-11018831D02*
X7413729Y-11037879D01*
X7413729Y-11037879D02*
X7423253Y-11075974D01*
X7423253Y-11075974D02*
X7423253Y-11123593D01*
X7423253Y-11123593D02*
X7413729Y-11161689D01*
X7413729Y-11161689D02*
X7404205Y-11180736D01*
X7404205Y-11180736D02*
X7394681Y-11190260D01*
X7394681Y-11190260D02*
X7375634Y-11199784D01*
X7375634Y-11199784D02*
X7356586Y-11199784D01*
X7356586Y-11199784D02*
X7337539Y-11190260D01*
X7337539Y-11190260D02*
X7328015Y-11180736D01*
X7328015Y-11180736D02*
X7318491Y-11161689D01*
X7318491Y-11161689D02*
X7308967Y-11123593D01*
X7308967Y-11123593D02*
X7308967Y-11075974D01*
X7308967Y-11075974D02*
X7318491Y-11037879D01*
X7318491Y-11037879D02*
X7328015Y-11018831D01*
X7328015Y-11018831D02*
X7337539Y-11009308D01*
X7337539Y-11009308D02*
X7356586Y-10999784D01*
X7508967Y-11180736D02*
X7518491Y-11190260D01*
X7518491Y-11190260D02*
X7508967Y-11199784D01*
X7508967Y-11199784D02*
X7499443Y-11190260D01*
X7499443Y-11190260D02*
X7508967Y-11180736D01*
X7508967Y-11180736D02*
X7508967Y-11199784D01*
X7642300Y-10999784D02*
X7661348Y-10999784D01*
X7661348Y-10999784D02*
X7680396Y-11009308D01*
X7680396Y-11009308D02*
X7689920Y-11018831D01*
X7689920Y-11018831D02*
X7699443Y-11037879D01*
X7699443Y-11037879D02*
X7708967Y-11075974D01*
X7708967Y-11075974D02*
X7708967Y-11123593D01*
X7708967Y-11123593D02*
X7699443Y-11161689D01*
X7699443Y-11161689D02*
X7689920Y-11180736D01*
X7689920Y-11180736D02*
X7680396Y-11190260D01*
X7680396Y-11190260D02*
X7661348Y-11199784D01*
X7661348Y-11199784D02*
X7642300Y-11199784D01*
X7642300Y-11199784D02*
X7623253Y-11190260D01*
X7623253Y-11190260D02*
X7613729Y-11180736D01*
X7613729Y-11180736D02*
X7604205Y-11161689D01*
X7604205Y-11161689D02*
X7594681Y-11123593D01*
X7594681Y-11123593D02*
X7594681Y-11075974D01*
X7594681Y-11075974D02*
X7604205Y-11037879D01*
X7604205Y-11037879D02*
X7613729Y-11018831D01*
X7613729Y-11018831D02*
X7623253Y-11009308D01*
X7623253Y-11009308D02*
X7642300Y-10999784D01*
X7899443Y-11199784D02*
X7785158Y-11199784D01*
X7842300Y-11199784D02*
X7842300Y-10999784D01*
X7842300Y-10999784D02*
X7823253Y-11028355D01*
X7823253Y-11028355D02*
X7804205Y-11047403D01*
X7804205Y-11047403D02*
X7785158Y-11056927D01*
X8089920Y-11199784D02*
X7975634Y-11199784D01*
X8032777Y-11199784D02*
X8032777Y-10999784D01*
X8032777Y-10999784D02*
X8013729Y-11028355D01*
X8013729Y-11028355D02*
X7994681Y-11047403D01*
X7994681Y-11047403D02*
X7975634Y-11056927D01*
X8204205Y-11085498D02*
X8185158Y-11075974D01*
X8185158Y-11075974D02*
X8175634Y-11066450D01*
X8175634Y-11066450D02*
X8166110Y-11047403D01*
X8166110Y-11047403D02*
X8166110Y-11037879D01*
X8166110Y-11037879D02*
X8175634Y-11018831D01*
X8175634Y-11018831D02*
X8185158Y-11009308D01*
X8185158Y-11009308D02*
X8204205Y-10999784D01*
X8204205Y-10999784D02*
X8242301Y-10999784D01*
X8242301Y-10999784D02*
X8261348Y-11009308D01*
X8261348Y-11009308D02*
X8270872Y-11018831D01*
X8270872Y-11018831D02*
X8280396Y-11037879D01*
X8280396Y-11037879D02*
X8280396Y-11047403D01*
X8280396Y-11047403D02*
X8270872Y-11066450D01*
X8270872Y-11066450D02*
X8261348Y-11075974D01*
X8261348Y-11075974D02*
X8242301Y-11085498D01*
X8242301Y-11085498D02*
X8204205Y-11085498D01*
X8204205Y-11085498D02*
X8185158Y-11095022D01*
X8185158Y-11095022D02*
X8175634Y-11104546D01*
X8175634Y-11104546D02*
X8166110Y-11123593D01*
X8166110Y-11123593D02*
X8166110Y-11161689D01*
X8166110Y-11161689D02*
X8175634Y-11180736D01*
X8175634Y-11180736D02*
X8185158Y-11190260D01*
X8185158Y-11190260D02*
X8204205Y-11199784D01*
X8204205Y-11199784D02*
X8242301Y-11199784D01*
X8242301Y-11199784D02*
X8261348Y-11190260D01*
X8261348Y-11190260D02*
X8270872Y-11180736D01*
X8270872Y-11180736D02*
X8280396Y-11161689D01*
X8280396Y-11161689D02*
X8280396Y-11123593D01*
X8280396Y-11123593D02*
X8270872Y-11104546D01*
X8270872Y-11104546D02*
X8261348Y-11095022D01*
X8261348Y-11095022D02*
X8242301Y-11085498D01*
X8356586Y-10999784D02*
X8356586Y-11037879D01*
X8432777Y-10999784D02*
X8432777Y-11037879D01*
X8728015Y-11275974D02*
X8718491Y-11266450D01*
X8718491Y-11266450D02*
X8699444Y-11237879D01*
X8699444Y-11237879D02*
X8689920Y-11218831D01*
X8689920Y-11218831D02*
X8680396Y-11190260D01*
X8680396Y-11190260D02*
X8670872Y-11142641D01*
X8670872Y-11142641D02*
X8670872Y-11104546D01*
X8670872Y-11104546D02*
X8680396Y-11056927D01*
X8680396Y-11056927D02*
X8689920Y-11028355D01*
X8689920Y-11028355D02*
X8699444Y-11009308D01*
X8699444Y-11009308D02*
X8718491Y-10980736D01*
X8718491Y-10980736D02*
X8728015Y-10971212D01*
X8785158Y-10999784D02*
X8908967Y-10999784D01*
X8908967Y-10999784D02*
X8842301Y-11075974D01*
X8842301Y-11075974D02*
X8870872Y-11075974D01*
X8870872Y-11075974D02*
X8889920Y-11085498D01*
X8889920Y-11085498D02*
X8899444Y-11095022D01*
X8899444Y-11095022D02*
X8908967Y-11114070D01*
X8908967Y-11114070D02*
X8908967Y-11161689D01*
X8908967Y-11161689D02*
X8899444Y-11180736D01*
X8899444Y-11180736D02*
X8889920Y-11190260D01*
X8889920Y-11190260D02*
X8870872Y-11199784D01*
X8870872Y-11199784D02*
X8813729Y-11199784D01*
X8813729Y-11199784D02*
X8794682Y-11190260D01*
X8794682Y-11190260D02*
X8785158Y-11180736D01*
X9080396Y-10999784D02*
X9042301Y-10999784D01*
X9042301Y-10999784D02*
X9023253Y-11009308D01*
X9023253Y-11009308D02*
X9013729Y-11018831D01*
X9013729Y-11018831D02*
X8994682Y-11047403D01*
X8994682Y-11047403D02*
X8985158Y-11085498D01*
X8985158Y-11085498D02*
X8985158Y-11161689D01*
X8985158Y-11161689D02*
X8994682Y-11180736D01*
X8994682Y-11180736D02*
X9004205Y-11190260D01*
X9004205Y-11190260D02*
X9023253Y-11199784D01*
X9023253Y-11199784D02*
X9061348Y-11199784D01*
X9061348Y-11199784D02*
X9080396Y-11190260D01*
X9080396Y-11190260D02*
X9089920Y-11180736D01*
X9089920Y-11180736D02*
X9099444Y-11161689D01*
X9099444Y-11161689D02*
X9099444Y-11114070D01*
X9099444Y-11114070D02*
X9089920Y-11095022D01*
X9089920Y-11095022D02*
X9080396Y-11085498D01*
X9080396Y-11085498D02*
X9061348Y-11075974D01*
X9061348Y-11075974D02*
X9023253Y-11075974D01*
X9023253Y-11075974D02*
X9004205Y-11085498D01*
X9004205Y-11085498D02*
X8994682Y-11095022D01*
X8994682Y-11095022D02*
X8985158Y-11114070D01*
X9194682Y-11199784D02*
X9232777Y-11199784D01*
X9232777Y-11199784D02*
X9251825Y-11190260D01*
X9251825Y-11190260D02*
X9261348Y-11180736D01*
X9261348Y-11180736D02*
X9280396Y-11152165D01*
X9280396Y-11152165D02*
X9289920Y-11114070D01*
X9289920Y-11114070D02*
X9289920Y-11037879D01*
X9289920Y-11037879D02*
X9280396Y-11018831D01*
X9280396Y-11018831D02*
X9270872Y-11009308D01*
X9270872Y-11009308D02*
X9251825Y-10999784D01*
X9251825Y-10999784D02*
X9213729Y-10999784D01*
X9213729Y-10999784D02*
X9194682Y-11009308D01*
X9194682Y-11009308D02*
X9185158Y-11018831D01*
X9185158Y-11018831D02*
X9175634Y-11037879D01*
X9175634Y-11037879D02*
X9175634Y-11085498D01*
X9175634Y-11085498D02*
X9185158Y-11104546D01*
X9185158Y-11104546D02*
X9194682Y-11114070D01*
X9194682Y-11114070D02*
X9213729Y-11123593D01*
X9213729Y-11123593D02*
X9251825Y-11123593D01*
X9251825Y-11123593D02*
X9270872Y-11114070D01*
X9270872Y-11114070D02*
X9280396Y-11104546D01*
X9280396Y-11104546D02*
X9289920Y-11085498D01*
X9528015Y-11199784D02*
X9528015Y-10999784D01*
X9613729Y-11199784D02*
X9613729Y-11095022D01*
X9613729Y-11095022D02*
X9604206Y-11075974D01*
X9604206Y-11075974D02*
X9585158Y-11066450D01*
X9585158Y-11066450D02*
X9556586Y-11066450D01*
X9556586Y-11066450D02*
X9537539Y-11075974D01*
X9537539Y-11075974D02*
X9528015Y-11085498D01*
X9737539Y-11199784D02*
X9718491Y-11190260D01*
X9718491Y-11190260D02*
X9708967Y-11180736D01*
X9708967Y-11180736D02*
X9699444Y-11161689D01*
X9699444Y-11161689D02*
X9699444Y-11104546D01*
X9699444Y-11104546D02*
X9708967Y-11085498D01*
X9708967Y-11085498D02*
X9718491Y-11075974D01*
X9718491Y-11075974D02*
X9737539Y-11066450D01*
X9737539Y-11066450D02*
X9766110Y-11066450D01*
X9766110Y-11066450D02*
X9785158Y-11075974D01*
X9785158Y-11075974D02*
X9794682Y-11085498D01*
X9794682Y-11085498D02*
X9804206Y-11104546D01*
X9804206Y-11104546D02*
X9804206Y-11161689D01*
X9804206Y-11161689D02*
X9794682Y-11180736D01*
X9794682Y-11180736D02*
X9785158Y-11190260D01*
X9785158Y-11190260D02*
X9766110Y-11199784D01*
X9766110Y-11199784D02*
X9737539Y-11199784D01*
X9918491Y-11199784D02*
X9899444Y-11190260D01*
X9899444Y-11190260D02*
X9889920Y-11171212D01*
X9889920Y-11171212D02*
X9889920Y-10999784D01*
X10070872Y-11190260D02*
X10051825Y-11199784D01*
X10051825Y-11199784D02*
X10013729Y-11199784D01*
X10013729Y-11199784D02*
X9994682Y-11190260D01*
X9994682Y-11190260D02*
X9985158Y-11171212D01*
X9985158Y-11171212D02*
X9985158Y-11095022D01*
X9985158Y-11095022D02*
X9994682Y-11075974D01*
X9994682Y-11075974D02*
X10013729Y-11066450D01*
X10013729Y-11066450D02*
X10051825Y-11066450D01*
X10051825Y-11066450D02*
X10070872Y-11075974D01*
X10070872Y-11075974D02*
X10080396Y-11095022D01*
X10080396Y-11095022D02*
X10080396Y-11114070D01*
X10080396Y-11114070D02*
X9985158Y-11133117D01*
X10156587Y-11190260D02*
X10175634Y-11199784D01*
X10175634Y-11199784D02*
X10213729Y-11199784D01*
X10213729Y-11199784D02*
X10232777Y-11190260D01*
X10232777Y-11190260D02*
X10242301Y-11171212D01*
X10242301Y-11171212D02*
X10242301Y-11161689D01*
X10242301Y-11161689D02*
X10232777Y-11142641D01*
X10232777Y-11142641D02*
X10213729Y-11133117D01*
X10213729Y-11133117D02*
X10185158Y-11133117D01*
X10185158Y-11133117D02*
X10166110Y-11123593D01*
X10166110Y-11123593D02*
X10156587Y-11104546D01*
X10156587Y-11104546D02*
X10156587Y-11095022D01*
X10156587Y-11095022D02*
X10166110Y-11075974D01*
X10166110Y-11075974D02*
X10185158Y-11066450D01*
X10185158Y-11066450D02*
X10213729Y-11066450D01*
X10213729Y-11066450D02*
X10232777Y-11075974D01*
X10308968Y-11275974D02*
X10318491Y-11266450D01*
X10318491Y-11266450D02*
X10337539Y-11237879D01*
X10337539Y-11237879D02*
X10347063Y-11218831D01*
X10347063Y-11218831D02*
X10356587Y-11190260D01*
X10356587Y-11190260D02*
X10366110Y-11142641D01*
X10366110Y-11142641D02*
X10366110Y-11104546D01*
X10366110Y-11104546D02*
X10356587Y-11056927D01*
X10356587Y-11056927D02*
X10347063Y-11028355D01*
X10347063Y-11028355D02*
X10337539Y-11009308D01*
X10337539Y-11009308D02*
X10318491Y-10980736D01*
X10318491Y-10980736D02*
X10308968Y-10971212D01*
M02*
