G04 #@! TF.GenerationSoftware,KiCad,Pcbnew,7.0.8*
G04 #@! TF.CreationDate,2023-11-03T17:47:37+02:00*
G04 #@! TF.ProjectId,ssd2828_board,73736432-3832-4385-9f62-6f6172642e6b,rev?*
G04 #@! TF.SameCoordinates,Original*
G04 #@! TF.FileFunction,Legend,Top*
G04 #@! TF.FilePolarity,Positive*
%FSLAX46Y46*%
G04 Gerber Fmt 4.6, Leading zero omitted, Abs format (unit mm)*
G04 Created by KiCad (PCBNEW 7.0.8) date 2023-11-03 17:47:37*
%MOMM*%
%LPD*%
G01*
G04 APERTURE LIST*
G04 Aperture macros list*
%AMRoundRect*
0 Rectangle with rounded corners*
0 $1 Rounding radius*
0 $2 $3 $4 $5 $6 $7 $8 $9 X,Y pos of 4 corners*
0 Add a 4 corners polygon primitive as box body*
4,1,4,$2,$3,$4,$5,$6,$7,$8,$9,$2,$3,0*
0 Add four circle primitives for the rounded corners*
1,1,$1+$1,$2,$3*
1,1,$1+$1,$4,$5*
1,1,$1+$1,$6,$7*
1,1,$1+$1,$8,$9*
0 Add four rect primitives between the rounded corners*
20,1,$1+$1,$2,$3,$4,$5,0*
20,1,$1+$1,$4,$5,$6,$7,0*
20,1,$1+$1,$6,$7,$8,$9,0*
20,1,$1+$1,$8,$9,$2,$3,0*%
%AMRotRect*
0 Rectangle, with rotation*
0 The origin of the aperture is its center*
0 $1 length*
0 $2 width*
0 $3 Rotation angle, in degrees counterclockwise*
0 Add horizontal line*
21,1,$1,$2,0,0,$3*%
%AMFreePoly0*
4,1,33,0.550000,-0.750000,0.000000,-0.750000,0.000000,-0.749013,-0.031395,-0.749013,-0.093691,-0.741144,-0.154508,-0.725528,-0.212890,-0.702414,-0.267913,-0.672164,-0.318712,-0.635257,-0.364484,-0.592274,-0.404508,-0.543893,-0.438153,-0.490877,-0.464888,-0.434062,-0.484292,-0.374345,-0.496057,-0.312667,-0.500000,-0.250000,-0.500000,0.250000,-0.496057,0.312667,-0.484292,0.374345,-0.464888,0.434062,
-0.438153,0.490877,-0.404508,0.543893,-0.364484,0.592274,-0.318712,0.635257,-0.267913,0.672164,-0.212890,0.702414,-0.154508,0.725528,-0.093691,0.741144,-0.031395,0.749013,0.000000,0.749013,0.000000,0.750000,0.550000,0.750000,0.550000,-0.750000,0.550000,-0.750000,$1*%
%AMFreePoly1*
4,1,33,0.000000,0.749013,0.031395,0.749013,0.093691,0.741144,0.154508,0.725528,0.212890,0.702414,0.267913,0.672164,0.318712,0.635257,0.364484,0.592274,0.404508,0.543893,0.438153,0.490877,0.464888,0.434062,0.484292,0.374345,0.496057,0.312667,0.500000,0.250000,0.500000,-0.250000,0.496057,-0.312667,0.484292,-0.374345,0.464888,-0.434062,0.438153,-0.490877,0.404508,-0.543893,
0.364484,-0.592274,0.318712,-0.635257,0.267913,-0.672164,0.212890,-0.702414,0.154508,-0.725528,0.093691,-0.741144,0.031395,-0.749013,0.000000,-0.749013,0.000000,-0.750000,-0.550000,-0.750000,-0.550000,0.750000,0.000000,0.750000,0.000000,0.749013,0.000000,0.749013,$1*%
G04 Aperture macros list end*
%ADD10C,0.150000*%
%ADD11C,0.200000*%
%ADD12C,0.300000*%
%ADD13C,0.120000*%
%ADD14C,0.250000*%
%ADD15C,0.100000*%
%ADD16R,1.000000X1.500000*%
%ADD17R,1.000000X1.000000*%
%ADD18RoundRect,0.225000X0.225000X0.250000X-0.225000X0.250000X-0.225000X-0.250000X0.225000X-0.250000X0*%
%ADD19R,0.600000X1.200000*%
%ADD20RoundRect,0.200000X0.275000X-0.200000X0.275000X0.200000X-0.275000X0.200000X-0.275000X-0.200000X0*%
%ADD21RoundRect,0.200000X-0.275000X0.200000X-0.275000X-0.200000X0.275000X-0.200000X0.275000X0.200000X0*%
%ADD22R,1.000000X2.200000*%
%ADD23RoundRect,0.225000X-0.225000X-0.250000X0.225000X-0.250000X0.225000X0.250000X-0.225000X0.250000X0*%
%ADD24RoundRect,0.150000X-0.512500X-0.150000X0.512500X-0.150000X0.512500X0.150000X-0.512500X0.150000X0*%
%ADD25RoundRect,0.175000X-0.175000X-0.175000X0.175000X-0.175000X0.175000X0.175000X-0.175000X0.175000X0*%
%ADD26RoundRect,0.225000X0.250000X-0.225000X0.250000X0.225000X-0.250000X0.225000X-0.250000X-0.225000X0*%
%ADD27R,0.500000X0.800000*%
%ADD28R,0.400000X0.800000*%
%ADD29RoundRect,0.250000X-0.262500X-0.450000X0.262500X-0.450000X0.262500X0.450000X-0.262500X0.450000X0*%
%ADD30RoundRect,0.200000X-0.200000X-0.275000X0.200000X-0.275000X0.200000X0.275000X-0.200000X0.275000X0*%
%ADD31R,0.800000X0.300000*%
%ADD32R,0.650000X0.300000*%
%ADD33R,0.950000X0.400000*%
%ADD34R,1.200000X0.600000*%
%ADD35RoundRect,0.050000X-0.291682X0.220971X0.220971X-0.291682X0.291682X-0.220971X-0.220971X0.291682X0*%
%ADD36RoundRect,0.050000X-0.291682X-0.220971X-0.220971X-0.291682X0.291682X0.220971X0.220971X0.291682X0*%
%ADD37RotRect,5.200000X5.200000X315.000000*%
%ADD38R,1.870000X1.720000*%
%ADD39RoundRect,0.200000X0.200000X0.275000X-0.200000X0.275000X-0.200000X-0.275000X0.200000X-0.275000X0*%
%ADD40RoundRect,0.225000X-0.250000X0.225000X-0.250000X-0.225000X0.250000X-0.225000X0.250000X0.225000X0*%
%ADD41R,1.200000X1.400000*%
%ADD42R,0.300000X0.800000*%
%ADD43R,0.300000X0.650000*%
%ADD44R,0.400000X0.950000*%
%ADD45RoundRect,0.243750X0.456250X-0.243750X0.456250X0.243750X-0.456250X0.243750X-0.456250X-0.243750X0*%
%ADD46R,0.700000X2.000000*%
%ADD47R,0.800000X0.500000*%
%ADD48R,0.800000X0.400000*%
%ADD49R,0.900000X0.800000*%
%ADD50FreePoly0,0.000000*%
%ADD51FreePoly1,0.000000*%
%ADD52R,0.240000X0.450000*%
%ADD53R,0.500000X0.470000*%
%ADD54RoundRect,0.050000X-0.350000X-0.050000X0.350000X-0.050000X0.350000X0.050000X-0.350000X0.050000X0*%
%ADD55R,1.700000X2.500000*%
%ADD56R,0.800000X2.700000*%
%ADD57RoundRect,0.250000X-0.475000X0.250000X-0.475000X-0.250000X0.475000X-0.250000X0.475000X0.250000X0*%
%ADD58RoundRect,0.250000X-0.450000X0.262500X-0.450000X-0.262500X0.450000X-0.262500X0.450000X0.262500X0*%
%ADD59R,0.467000X0.180000*%
%ADD60R,1.000000X0.300000*%
%ADD61R,0.350000X0.800000*%
%ADD62R,0.800000X0.900000*%
%ADD63RoundRect,0.112500X0.187500X0.112500X-0.187500X0.112500X-0.187500X-0.112500X0.187500X-0.112500X0*%
%ADD64R,1.800000X2.200000*%
%ADD65R,1.400000X0.300000*%
%ADD66RoundRect,0.243750X0.243750X0.456250X-0.243750X0.456250X-0.243750X-0.456250X0.243750X-0.456250X0*%
%ADD67RoundRect,0.250000X1.075000X-0.312500X1.075000X0.312500X-1.075000X0.312500X-1.075000X-0.312500X0*%
%ADD68RoundRect,0.062500X0.062500X-0.325000X0.062500X0.325000X-0.062500X0.325000X-0.062500X-0.325000X0*%
%ADD69RoundRect,0.062500X0.325000X-0.062500X0.325000X0.062500X-0.325000X0.062500X-0.325000X-0.062500X0*%
%ADD70R,2.450000X2.450000*%
%ADD71R,0.650000X2.000000*%
G04 APERTURE END LIST*
D10*
X51841400Y-86969600D02*
X79527400Y-86969600D01*
X113665000Y-86372200D02*
X113665000Y-51269400D01*
X94234000Y-51269400D02*
X94234000Y-86372200D01*
D11*
X70496019Y-79976364D02*
X70496019Y-79357317D01*
X70496019Y-79357317D02*
X70876971Y-79690650D01*
X70876971Y-79690650D02*
X70876971Y-79547793D01*
X70876971Y-79547793D02*
X70924590Y-79452555D01*
X70924590Y-79452555D02*
X70972209Y-79404936D01*
X70972209Y-79404936D02*
X71067447Y-79357317D01*
X71067447Y-79357317D02*
X71305542Y-79357317D01*
X71305542Y-79357317D02*
X71400780Y-79404936D01*
X71400780Y-79404936D02*
X71448400Y-79452555D01*
X71448400Y-79452555D02*
X71496019Y-79547793D01*
X71496019Y-79547793D02*
X71496019Y-79833507D01*
X71496019Y-79833507D02*
X71448400Y-79928745D01*
X71448400Y-79928745D02*
X71400780Y-79976364D01*
X70496019Y-79071602D02*
X71496019Y-78738269D01*
X71496019Y-78738269D02*
X70496019Y-78404936D01*
X70496019Y-78166840D02*
X70496019Y-77547793D01*
X70496019Y-77547793D02*
X70876971Y-77881126D01*
X70876971Y-77881126D02*
X70876971Y-77738269D01*
X70876971Y-77738269D02*
X70924590Y-77643031D01*
X70924590Y-77643031D02*
X70972209Y-77595412D01*
X70972209Y-77595412D02*
X71067447Y-77547793D01*
X71067447Y-77547793D02*
X71305542Y-77547793D01*
X71305542Y-77547793D02*
X71400780Y-77595412D01*
X71400780Y-77595412D02*
X71448400Y-77643031D01*
X71448400Y-77643031D02*
X71496019Y-77738269D01*
X71496019Y-77738269D02*
X71496019Y-78023983D01*
X71496019Y-78023983D02*
X71448400Y-78119221D01*
X71448400Y-78119221D02*
X71400780Y-78166840D01*
X54189477Y-53538219D02*
X54189477Y-52538219D01*
X54189477Y-52538219D02*
X54522810Y-53252504D01*
X54522810Y-53252504D02*
X54856143Y-52538219D01*
X54856143Y-52538219D02*
X54856143Y-53538219D01*
X55332334Y-53538219D02*
X55332334Y-52538219D01*
X55808524Y-53538219D02*
X55808524Y-52538219D01*
X55808524Y-52538219D02*
X56189476Y-52538219D01*
X56189476Y-52538219D02*
X56284714Y-52585838D01*
X56284714Y-52585838D02*
X56332333Y-52633457D01*
X56332333Y-52633457D02*
X56379952Y-52728695D01*
X56379952Y-52728695D02*
X56379952Y-52871552D01*
X56379952Y-52871552D02*
X56332333Y-52966790D01*
X56332333Y-52966790D02*
X56284714Y-53014409D01*
X56284714Y-53014409D02*
X56189476Y-53062028D01*
X56189476Y-53062028D02*
X55808524Y-53062028D01*
X56808524Y-53538219D02*
X56808524Y-52538219D01*
X103773380Y-53829835D02*
X103773380Y-54448882D01*
X103773380Y-54448882D02*
X103392428Y-54115549D01*
X103392428Y-54115549D02*
X103392428Y-54258406D01*
X103392428Y-54258406D02*
X103344809Y-54353644D01*
X103344809Y-54353644D02*
X103297190Y-54401263D01*
X103297190Y-54401263D02*
X103201952Y-54448882D01*
X103201952Y-54448882D02*
X102963857Y-54448882D01*
X102963857Y-54448882D02*
X102868619Y-54401263D01*
X102868619Y-54401263D02*
X102821000Y-54353644D01*
X102821000Y-54353644D02*
X102773380Y-54258406D01*
X102773380Y-54258406D02*
X102773380Y-53972692D01*
X102773380Y-53972692D02*
X102821000Y-53877454D01*
X102821000Y-53877454D02*
X102868619Y-53829835D01*
X103773380Y-54734597D02*
X102773380Y-55067930D01*
X102773380Y-55067930D02*
X103773380Y-55401263D01*
X103773380Y-55925073D02*
X103773380Y-56020311D01*
X103773380Y-56020311D02*
X103725761Y-56115549D01*
X103725761Y-56115549D02*
X103678142Y-56163168D01*
X103678142Y-56163168D02*
X103582904Y-56210787D01*
X103582904Y-56210787D02*
X103392428Y-56258406D01*
X103392428Y-56258406D02*
X103154333Y-56258406D01*
X103154333Y-56258406D02*
X102963857Y-56210787D01*
X102963857Y-56210787D02*
X102868619Y-56163168D01*
X102868619Y-56163168D02*
X102821000Y-56115549D01*
X102821000Y-56115549D02*
X102773380Y-56020311D01*
X102773380Y-56020311D02*
X102773380Y-55925073D01*
X102773380Y-55925073D02*
X102821000Y-55829835D01*
X102821000Y-55829835D02*
X102868619Y-55782216D01*
X102868619Y-55782216D02*
X102963857Y-55734597D01*
X102963857Y-55734597D02*
X103154333Y-55686978D01*
X103154333Y-55686978D02*
X103392428Y-55686978D01*
X103392428Y-55686978D02*
X103582904Y-55734597D01*
X103582904Y-55734597D02*
X103678142Y-55782216D01*
X103678142Y-55782216D02*
X103725761Y-55829835D01*
X103725761Y-55829835D02*
X103773380Y-55925073D01*
X103297190Y-57448883D02*
X103297190Y-57782216D01*
X102773380Y-57925073D02*
X102773380Y-57448883D01*
X102773380Y-57448883D02*
X103773380Y-57448883D01*
X103773380Y-57448883D02*
X103773380Y-57925073D01*
X102773380Y-58353645D02*
X103773380Y-58353645D01*
X103773380Y-58353645D02*
X102773380Y-58925073D01*
X102773380Y-58925073D02*
X103773380Y-58925073D01*
X58002273Y-67012419D02*
X58002273Y-66012419D01*
X58002273Y-66012419D02*
X58383225Y-66012419D01*
X58383225Y-66012419D02*
X58478463Y-66060038D01*
X58478463Y-66060038D02*
X58526082Y-66107657D01*
X58526082Y-66107657D02*
X58573701Y-66202895D01*
X58573701Y-66202895D02*
X58573701Y-66345752D01*
X58573701Y-66345752D02*
X58526082Y-66440990D01*
X58526082Y-66440990D02*
X58478463Y-66488609D01*
X58478463Y-66488609D02*
X58383225Y-66536228D01*
X58383225Y-66536228D02*
X58002273Y-66536228D01*
X58954654Y-66964800D02*
X59097511Y-67012419D01*
X59097511Y-67012419D02*
X59335606Y-67012419D01*
X59335606Y-67012419D02*
X59430844Y-66964800D01*
X59430844Y-66964800D02*
X59478463Y-66917180D01*
X59478463Y-66917180D02*
X59526082Y-66821942D01*
X59526082Y-66821942D02*
X59526082Y-66726704D01*
X59526082Y-66726704D02*
X59478463Y-66631466D01*
X59478463Y-66631466D02*
X59430844Y-66583847D01*
X59430844Y-66583847D02*
X59335606Y-66536228D01*
X59335606Y-66536228D02*
X59145130Y-66488609D01*
X59145130Y-66488609D02*
X59049892Y-66440990D01*
X59049892Y-66440990D02*
X59002273Y-66393371D01*
X59002273Y-66393371D02*
X58954654Y-66298133D01*
X58954654Y-66298133D02*
X58954654Y-66202895D01*
X58954654Y-66202895D02*
X59002273Y-66107657D01*
X59002273Y-66107657D02*
X59049892Y-66060038D01*
X59049892Y-66060038D02*
X59145130Y-66012419D01*
X59145130Y-66012419D02*
X59383225Y-66012419D01*
X59383225Y-66012419D02*
X59526082Y-66060038D01*
X60145130Y-66012419D02*
X60240368Y-66012419D01*
X60240368Y-66012419D02*
X60335606Y-66060038D01*
X60335606Y-66060038D02*
X60383225Y-66107657D01*
X60383225Y-66107657D02*
X60430844Y-66202895D01*
X60430844Y-66202895D02*
X60478463Y-66393371D01*
X60478463Y-66393371D02*
X60478463Y-66631466D01*
X60478463Y-66631466D02*
X60430844Y-66821942D01*
X60430844Y-66821942D02*
X60383225Y-66917180D01*
X60383225Y-66917180D02*
X60335606Y-66964800D01*
X60335606Y-66964800D02*
X60240368Y-67012419D01*
X60240368Y-67012419D02*
X60145130Y-67012419D01*
X60145130Y-67012419D02*
X60049892Y-66964800D01*
X60049892Y-66964800D02*
X60002273Y-66917180D01*
X60002273Y-66917180D02*
X59954654Y-66821942D01*
X59954654Y-66821942D02*
X59907035Y-66631466D01*
X59907035Y-66631466D02*
X59907035Y-66393371D01*
X59907035Y-66393371D02*
X59954654Y-66202895D01*
X59954654Y-66202895D02*
X60002273Y-66107657D01*
X60002273Y-66107657D02*
X60049892Y-66060038D01*
X60049892Y-66060038D02*
X60145130Y-66012419D01*
X55997600Y-89596819D02*
X56188076Y-89596819D01*
X56188076Y-89596819D02*
X56283314Y-89644438D01*
X56283314Y-89644438D02*
X56378552Y-89739676D01*
X56378552Y-89739676D02*
X56426171Y-89930152D01*
X56426171Y-89930152D02*
X56426171Y-90263485D01*
X56426171Y-90263485D02*
X56378552Y-90453961D01*
X56378552Y-90453961D02*
X56283314Y-90549200D01*
X56283314Y-90549200D02*
X56188076Y-90596819D01*
X56188076Y-90596819D02*
X55997600Y-90596819D01*
X55997600Y-90596819D02*
X55902362Y-90549200D01*
X55902362Y-90549200D02*
X55807124Y-90453961D01*
X55807124Y-90453961D02*
X55759505Y-90263485D01*
X55759505Y-90263485D02*
X55759505Y-89930152D01*
X55759505Y-89930152D02*
X55807124Y-89739676D01*
X55807124Y-89739676D02*
X55902362Y-89644438D01*
X55902362Y-89644438D02*
X55997600Y-89596819D01*
X56854743Y-89596819D02*
X56854743Y-90406342D01*
X56854743Y-90406342D02*
X56902362Y-90501580D01*
X56902362Y-90501580D02*
X56949981Y-90549200D01*
X56949981Y-90549200D02*
X57045219Y-90596819D01*
X57045219Y-90596819D02*
X57235695Y-90596819D01*
X57235695Y-90596819D02*
X57330933Y-90549200D01*
X57330933Y-90549200D02*
X57378552Y-90501580D01*
X57378552Y-90501580D02*
X57426171Y-90406342D01*
X57426171Y-90406342D02*
X57426171Y-89596819D01*
X57759505Y-89596819D02*
X58330933Y-89596819D01*
X58045219Y-90596819D02*
X58045219Y-89596819D01*
X58002273Y-69908019D02*
X58002273Y-68908019D01*
X58002273Y-68908019D02*
X58383225Y-68908019D01*
X58383225Y-68908019D02*
X58478463Y-68955638D01*
X58478463Y-68955638D02*
X58526082Y-69003257D01*
X58526082Y-69003257D02*
X58573701Y-69098495D01*
X58573701Y-69098495D02*
X58573701Y-69241352D01*
X58573701Y-69241352D02*
X58526082Y-69336590D01*
X58526082Y-69336590D02*
X58478463Y-69384209D01*
X58478463Y-69384209D02*
X58383225Y-69431828D01*
X58383225Y-69431828D02*
X58002273Y-69431828D01*
X58954654Y-69860400D02*
X59097511Y-69908019D01*
X59097511Y-69908019D02*
X59335606Y-69908019D01*
X59335606Y-69908019D02*
X59430844Y-69860400D01*
X59430844Y-69860400D02*
X59478463Y-69812780D01*
X59478463Y-69812780D02*
X59526082Y-69717542D01*
X59526082Y-69717542D02*
X59526082Y-69622304D01*
X59526082Y-69622304D02*
X59478463Y-69527066D01*
X59478463Y-69527066D02*
X59430844Y-69479447D01*
X59430844Y-69479447D02*
X59335606Y-69431828D01*
X59335606Y-69431828D02*
X59145130Y-69384209D01*
X59145130Y-69384209D02*
X59049892Y-69336590D01*
X59049892Y-69336590D02*
X59002273Y-69288971D01*
X59002273Y-69288971D02*
X58954654Y-69193733D01*
X58954654Y-69193733D02*
X58954654Y-69098495D01*
X58954654Y-69098495D02*
X59002273Y-69003257D01*
X59002273Y-69003257D02*
X59049892Y-68955638D01*
X59049892Y-68955638D02*
X59145130Y-68908019D01*
X59145130Y-68908019D02*
X59383225Y-68908019D01*
X59383225Y-68908019D02*
X59526082Y-68955638D01*
X60478463Y-69908019D02*
X59907035Y-69908019D01*
X60192749Y-69908019D02*
X60192749Y-68908019D01*
X60192749Y-68908019D02*
X60097511Y-69050876D01*
X60097511Y-69050876D02*
X60002273Y-69146114D01*
X60002273Y-69146114D02*
X59907035Y-69193733D01*
X78785819Y-74394726D02*
X77785819Y-74394726D01*
X77785819Y-74394726D02*
X77785819Y-74156631D01*
X77785819Y-74156631D02*
X77833438Y-74013774D01*
X77833438Y-74013774D02*
X77928676Y-73918536D01*
X77928676Y-73918536D02*
X78023914Y-73870917D01*
X78023914Y-73870917D02*
X78214390Y-73823298D01*
X78214390Y-73823298D02*
X78357247Y-73823298D01*
X78357247Y-73823298D02*
X78547723Y-73870917D01*
X78547723Y-73870917D02*
X78642961Y-73918536D01*
X78642961Y-73918536D02*
X78738200Y-74013774D01*
X78738200Y-74013774D02*
X78785819Y-74156631D01*
X78785819Y-74156631D02*
X78785819Y-74394726D01*
X77738200Y-72680441D02*
X79023914Y-73537583D01*
X78690580Y-71775679D02*
X78738200Y-71823298D01*
X78738200Y-71823298D02*
X78785819Y-71966155D01*
X78785819Y-71966155D02*
X78785819Y-72061393D01*
X78785819Y-72061393D02*
X78738200Y-72204250D01*
X78738200Y-72204250D02*
X78642961Y-72299488D01*
X78642961Y-72299488D02*
X78547723Y-72347107D01*
X78547723Y-72347107D02*
X78357247Y-72394726D01*
X78357247Y-72394726D02*
X78214390Y-72394726D01*
X78214390Y-72394726D02*
X78023914Y-72347107D01*
X78023914Y-72347107D02*
X77928676Y-72299488D01*
X77928676Y-72299488D02*
X77833438Y-72204250D01*
X77833438Y-72204250D02*
X77785819Y-72061393D01*
X77785819Y-72061393D02*
X77785819Y-71966155D01*
X77785819Y-71966155D02*
X77833438Y-71823298D01*
X77833438Y-71823298D02*
X77881057Y-71775679D01*
X65860705Y-90749219D02*
X65860705Y-89749219D01*
X65860705Y-89749219D02*
X66098800Y-89749219D01*
X66098800Y-89749219D02*
X66241657Y-89796838D01*
X66241657Y-89796838D02*
X66336895Y-89892076D01*
X66336895Y-89892076D02*
X66384514Y-89987314D01*
X66384514Y-89987314D02*
X66432133Y-90177790D01*
X66432133Y-90177790D02*
X66432133Y-90320647D01*
X66432133Y-90320647D02*
X66384514Y-90511123D01*
X66384514Y-90511123D02*
X66336895Y-90606361D01*
X66336895Y-90606361D02*
X66241657Y-90701600D01*
X66241657Y-90701600D02*
X66098800Y-90749219D01*
X66098800Y-90749219D02*
X65860705Y-90749219D01*
X67051181Y-89749219D02*
X67146419Y-89749219D01*
X67146419Y-89749219D02*
X67241657Y-89796838D01*
X67241657Y-89796838D02*
X67289276Y-89844457D01*
X67289276Y-89844457D02*
X67336895Y-89939695D01*
X67336895Y-89939695D02*
X67384514Y-90130171D01*
X67384514Y-90130171D02*
X67384514Y-90368266D01*
X67384514Y-90368266D02*
X67336895Y-90558742D01*
X67336895Y-90558742D02*
X67289276Y-90653980D01*
X67289276Y-90653980D02*
X67241657Y-90701600D01*
X67241657Y-90701600D02*
X67146419Y-90749219D01*
X67146419Y-90749219D02*
X67051181Y-90749219D01*
X67051181Y-90749219D02*
X66955943Y-90701600D01*
X66955943Y-90701600D02*
X66908324Y-90653980D01*
X66908324Y-90653980D02*
X66860705Y-90558742D01*
X66860705Y-90558742D02*
X66813086Y-90368266D01*
X66813086Y-90368266D02*
X66813086Y-90130171D01*
X66813086Y-90130171D02*
X66860705Y-89939695D01*
X66860705Y-89939695D02*
X66908324Y-89844457D01*
X66908324Y-89844457D02*
X66955943Y-89796838D01*
X66955943Y-89796838D02*
X67051181Y-89749219D01*
X61034705Y-98877219D02*
X61034705Y-97877219D01*
X61034705Y-97877219D02*
X61272800Y-97877219D01*
X61272800Y-97877219D02*
X61415657Y-97924838D01*
X61415657Y-97924838D02*
X61510895Y-98020076D01*
X61510895Y-98020076D02*
X61558514Y-98115314D01*
X61558514Y-98115314D02*
X61606133Y-98305790D01*
X61606133Y-98305790D02*
X61606133Y-98448647D01*
X61606133Y-98448647D02*
X61558514Y-98639123D01*
X61558514Y-98639123D02*
X61510895Y-98734361D01*
X61510895Y-98734361D02*
X61415657Y-98829600D01*
X61415657Y-98829600D02*
X61272800Y-98877219D01*
X61272800Y-98877219D02*
X61034705Y-98877219D01*
X61987086Y-97972457D02*
X62034705Y-97924838D01*
X62034705Y-97924838D02*
X62129943Y-97877219D01*
X62129943Y-97877219D02*
X62368038Y-97877219D01*
X62368038Y-97877219D02*
X62463276Y-97924838D01*
X62463276Y-97924838D02*
X62510895Y-97972457D01*
X62510895Y-97972457D02*
X62558514Y-98067695D01*
X62558514Y-98067695D02*
X62558514Y-98162933D01*
X62558514Y-98162933D02*
X62510895Y-98305790D01*
X62510895Y-98305790D02*
X61939467Y-98877219D01*
X61939467Y-98877219D02*
X62558514Y-98877219D01*
X133669180Y-53756816D02*
X133669180Y-54328244D01*
X132669180Y-54042530D02*
X133669180Y-54042530D01*
X133192990Y-54661578D02*
X133192990Y-54994911D01*
X132669180Y-55137768D02*
X132669180Y-54661578D01*
X132669180Y-54661578D02*
X133669180Y-54661578D01*
X133669180Y-54661578D02*
X133669180Y-55137768D01*
X105116495Y-53916054D02*
X105116495Y-54392244D01*
X104830780Y-53820816D02*
X105830780Y-54154149D01*
X105830780Y-54154149D02*
X104830780Y-54487482D01*
X67194133Y-95657780D02*
X67146514Y-95705400D01*
X67146514Y-95705400D02*
X67003657Y-95753019D01*
X67003657Y-95753019D02*
X66908419Y-95753019D01*
X66908419Y-95753019D02*
X66765562Y-95705400D01*
X66765562Y-95705400D02*
X66670324Y-95610161D01*
X66670324Y-95610161D02*
X66622705Y-95514923D01*
X66622705Y-95514923D02*
X66575086Y-95324447D01*
X66575086Y-95324447D02*
X66575086Y-95181590D01*
X66575086Y-95181590D02*
X66622705Y-94991114D01*
X66622705Y-94991114D02*
X66670324Y-94895876D01*
X66670324Y-94895876D02*
X66765562Y-94800638D01*
X66765562Y-94800638D02*
X66908419Y-94753019D01*
X66908419Y-94753019D02*
X67003657Y-94753019D01*
X67003657Y-94753019D02*
X67146514Y-94800638D01*
X67146514Y-94800638D02*
X67194133Y-94848257D01*
X67813181Y-94753019D02*
X67908419Y-94753019D01*
X67908419Y-94753019D02*
X68003657Y-94800638D01*
X68003657Y-94800638D02*
X68051276Y-94848257D01*
X68051276Y-94848257D02*
X68098895Y-94943495D01*
X68098895Y-94943495D02*
X68146514Y-95133971D01*
X68146514Y-95133971D02*
X68146514Y-95372066D01*
X68146514Y-95372066D02*
X68098895Y-95562542D01*
X68098895Y-95562542D02*
X68051276Y-95657780D01*
X68051276Y-95657780D02*
X68003657Y-95705400D01*
X68003657Y-95705400D02*
X67908419Y-95753019D01*
X67908419Y-95753019D02*
X67813181Y-95753019D01*
X67813181Y-95753019D02*
X67717943Y-95705400D01*
X67717943Y-95705400D02*
X67670324Y-95657780D01*
X67670324Y-95657780D02*
X67622705Y-95562542D01*
X67622705Y-95562542D02*
X67575086Y-95372066D01*
X67575086Y-95372066D02*
X67575086Y-95133971D01*
X67575086Y-95133971D02*
X67622705Y-94943495D01*
X67622705Y-94943495D02*
X67670324Y-94848257D01*
X67670324Y-94848257D02*
X67717943Y-94800638D01*
X67717943Y-94800638D02*
X67813181Y-94753019D01*
X69413219Y-79357317D02*
X69413219Y-79928745D01*
X69413219Y-79643031D02*
X68413219Y-79643031D01*
X68413219Y-79643031D02*
X68556076Y-79738269D01*
X68556076Y-79738269D02*
X68651314Y-79833507D01*
X68651314Y-79833507D02*
X68698933Y-79928745D01*
X68413219Y-79071602D02*
X69413219Y-78738269D01*
X69413219Y-78738269D02*
X68413219Y-78404936D01*
X68841790Y-77928745D02*
X68794171Y-78023983D01*
X68794171Y-78023983D02*
X68746552Y-78071602D01*
X68746552Y-78071602D02*
X68651314Y-78119221D01*
X68651314Y-78119221D02*
X68603695Y-78119221D01*
X68603695Y-78119221D02*
X68508457Y-78071602D01*
X68508457Y-78071602D02*
X68460838Y-78023983D01*
X68460838Y-78023983D02*
X68413219Y-77928745D01*
X68413219Y-77928745D02*
X68413219Y-77738269D01*
X68413219Y-77738269D02*
X68460838Y-77643031D01*
X68460838Y-77643031D02*
X68508457Y-77595412D01*
X68508457Y-77595412D02*
X68603695Y-77547793D01*
X68603695Y-77547793D02*
X68651314Y-77547793D01*
X68651314Y-77547793D02*
X68746552Y-77595412D01*
X68746552Y-77595412D02*
X68794171Y-77643031D01*
X68794171Y-77643031D02*
X68841790Y-77738269D01*
X68841790Y-77738269D02*
X68841790Y-77928745D01*
X68841790Y-77928745D02*
X68889409Y-78023983D01*
X68889409Y-78023983D02*
X68937028Y-78071602D01*
X68937028Y-78071602D02*
X69032266Y-78119221D01*
X69032266Y-78119221D02*
X69222742Y-78119221D01*
X69222742Y-78119221D02*
X69317980Y-78071602D01*
X69317980Y-78071602D02*
X69365600Y-78023983D01*
X69365600Y-78023983D02*
X69413219Y-77928745D01*
X69413219Y-77928745D02*
X69413219Y-77738269D01*
X69413219Y-77738269D02*
X69365600Y-77643031D01*
X69365600Y-77643031D02*
X69317980Y-77595412D01*
X69317980Y-77595412D02*
X69222742Y-77547793D01*
X69222742Y-77547793D02*
X69032266Y-77547793D01*
X69032266Y-77547793D02*
X68937028Y-77595412D01*
X68937028Y-77595412D02*
X68889409Y-77643031D01*
X68889409Y-77643031D02*
X68841790Y-77738269D01*
X76703019Y-74394726D02*
X75703019Y-74394726D01*
X75703019Y-74394726D02*
X76417304Y-74061393D01*
X76417304Y-74061393D02*
X75703019Y-73728060D01*
X75703019Y-73728060D02*
X76703019Y-73728060D01*
X75703019Y-73061393D02*
X75703019Y-72870917D01*
X75703019Y-72870917D02*
X75750638Y-72775679D01*
X75750638Y-72775679D02*
X75845876Y-72680441D01*
X75845876Y-72680441D02*
X76036352Y-72632822D01*
X76036352Y-72632822D02*
X76369685Y-72632822D01*
X76369685Y-72632822D02*
X76560161Y-72680441D01*
X76560161Y-72680441D02*
X76655400Y-72775679D01*
X76655400Y-72775679D02*
X76703019Y-72870917D01*
X76703019Y-72870917D02*
X76703019Y-73061393D01*
X76703019Y-73061393D02*
X76655400Y-73156631D01*
X76655400Y-73156631D02*
X76560161Y-73251869D01*
X76560161Y-73251869D02*
X76369685Y-73299488D01*
X76369685Y-73299488D02*
X76036352Y-73299488D01*
X76036352Y-73299488D02*
X75845876Y-73251869D01*
X75845876Y-73251869D02*
X75750638Y-73156631D01*
X75750638Y-73156631D02*
X75703019Y-73061393D01*
X76655400Y-72251869D02*
X76703019Y-72109012D01*
X76703019Y-72109012D02*
X76703019Y-71870917D01*
X76703019Y-71870917D02*
X76655400Y-71775679D01*
X76655400Y-71775679D02*
X76607780Y-71728060D01*
X76607780Y-71728060D02*
X76512542Y-71680441D01*
X76512542Y-71680441D02*
X76417304Y-71680441D01*
X76417304Y-71680441D02*
X76322066Y-71728060D01*
X76322066Y-71728060D02*
X76274447Y-71775679D01*
X76274447Y-71775679D02*
X76226828Y-71870917D01*
X76226828Y-71870917D02*
X76179209Y-72061393D01*
X76179209Y-72061393D02*
X76131590Y-72156631D01*
X76131590Y-72156631D02*
X76083971Y-72204250D01*
X76083971Y-72204250D02*
X75988733Y-72251869D01*
X75988733Y-72251869D02*
X75893495Y-72251869D01*
X75893495Y-72251869D02*
X75798257Y-72204250D01*
X75798257Y-72204250D02*
X75750638Y-72156631D01*
X75750638Y-72156631D02*
X75703019Y-72061393D01*
X75703019Y-72061393D02*
X75703019Y-71823298D01*
X75703019Y-71823298D02*
X75750638Y-71680441D01*
X76703019Y-71251869D02*
X75703019Y-71251869D01*
X123302895Y-53865254D02*
X123302895Y-54341444D01*
X123017180Y-53770016D02*
X124017180Y-54103349D01*
X124017180Y-54103349D02*
X123017180Y-54436682D01*
X72537419Y-74394726D02*
X71537419Y-74394726D01*
X71537419Y-74394726D02*
X72251704Y-74061393D01*
X72251704Y-74061393D02*
X71537419Y-73728060D01*
X71537419Y-73728060D02*
X72537419Y-73728060D01*
X72537419Y-73251869D02*
X71537419Y-73251869D01*
X72489800Y-72823298D02*
X72537419Y-72680441D01*
X72537419Y-72680441D02*
X72537419Y-72442346D01*
X72537419Y-72442346D02*
X72489800Y-72347108D01*
X72489800Y-72347108D02*
X72442180Y-72299489D01*
X72442180Y-72299489D02*
X72346942Y-72251870D01*
X72346942Y-72251870D02*
X72251704Y-72251870D01*
X72251704Y-72251870D02*
X72156466Y-72299489D01*
X72156466Y-72299489D02*
X72108847Y-72347108D01*
X72108847Y-72347108D02*
X72061228Y-72442346D01*
X72061228Y-72442346D02*
X72013609Y-72632822D01*
X72013609Y-72632822D02*
X71965990Y-72728060D01*
X71965990Y-72728060D02*
X71918371Y-72775679D01*
X71918371Y-72775679D02*
X71823133Y-72823298D01*
X71823133Y-72823298D02*
X71727895Y-72823298D01*
X71727895Y-72823298D02*
X71632657Y-72775679D01*
X71632657Y-72775679D02*
X71585038Y-72728060D01*
X71585038Y-72728060D02*
X71537419Y-72632822D01*
X71537419Y-72632822D02*
X71537419Y-72394727D01*
X71537419Y-72394727D02*
X71585038Y-72251870D01*
X71537419Y-71632822D02*
X71537419Y-71442346D01*
X71537419Y-71442346D02*
X71585038Y-71347108D01*
X71585038Y-71347108D02*
X71680276Y-71251870D01*
X71680276Y-71251870D02*
X71870752Y-71204251D01*
X71870752Y-71204251D02*
X72204085Y-71204251D01*
X72204085Y-71204251D02*
X72394561Y-71251870D01*
X72394561Y-71251870D02*
X72489800Y-71347108D01*
X72489800Y-71347108D02*
X72537419Y-71442346D01*
X72537419Y-71442346D02*
X72537419Y-71632822D01*
X72537419Y-71632822D02*
X72489800Y-71728060D01*
X72489800Y-71728060D02*
X72394561Y-71823298D01*
X72394561Y-71823298D02*
X72204085Y-71870917D01*
X72204085Y-71870917D02*
X71870752Y-71870917D01*
X71870752Y-71870917D02*
X71680276Y-71823298D01*
X71680276Y-71823298D02*
X71585038Y-71728060D01*
X71585038Y-71728060D02*
X71537419Y-71632822D01*
X76843237Y-52934980D02*
X76795618Y-52982600D01*
X76795618Y-52982600D02*
X76652761Y-53030219D01*
X76652761Y-53030219D02*
X76557523Y-53030219D01*
X76557523Y-53030219D02*
X76414666Y-52982600D01*
X76414666Y-52982600D02*
X76319428Y-52887361D01*
X76319428Y-52887361D02*
X76271809Y-52792123D01*
X76271809Y-52792123D02*
X76224190Y-52601647D01*
X76224190Y-52601647D02*
X76224190Y-52458790D01*
X76224190Y-52458790D02*
X76271809Y-52268314D01*
X76271809Y-52268314D02*
X76319428Y-52173076D01*
X76319428Y-52173076D02*
X76414666Y-52077838D01*
X76414666Y-52077838D02*
X76557523Y-52030219D01*
X76557523Y-52030219D02*
X76652761Y-52030219D01*
X76652761Y-52030219D02*
X76795618Y-52077838D01*
X76795618Y-52077838D02*
X76843237Y-52125457D01*
X77747999Y-53030219D02*
X77271809Y-53030219D01*
X77271809Y-53030219D02*
X77271809Y-52030219D01*
X78081333Y-53030219D02*
X78081333Y-52030219D01*
X78652761Y-53030219D02*
X78224190Y-52458790D01*
X78652761Y-52030219D02*
X78081333Y-52601647D01*
X78843238Y-53125457D02*
X79605142Y-53125457D01*
X80033714Y-52030219D02*
X80224190Y-52030219D01*
X80224190Y-52030219D02*
X80319428Y-52077838D01*
X80319428Y-52077838D02*
X80414666Y-52173076D01*
X80414666Y-52173076D02*
X80462285Y-52363552D01*
X80462285Y-52363552D02*
X80462285Y-52696885D01*
X80462285Y-52696885D02*
X80414666Y-52887361D01*
X80414666Y-52887361D02*
X80319428Y-52982600D01*
X80319428Y-52982600D02*
X80224190Y-53030219D01*
X80224190Y-53030219D02*
X80033714Y-53030219D01*
X80033714Y-53030219D02*
X79938476Y-52982600D01*
X79938476Y-52982600D02*
X79843238Y-52887361D01*
X79843238Y-52887361D02*
X79795619Y-52696885D01*
X79795619Y-52696885D02*
X79795619Y-52363552D01*
X79795619Y-52363552D02*
X79843238Y-52173076D01*
X79843238Y-52173076D02*
X79938476Y-52077838D01*
X79938476Y-52077838D02*
X80033714Y-52030219D01*
X80890857Y-52030219D02*
X80890857Y-52839742D01*
X80890857Y-52839742D02*
X80938476Y-52934980D01*
X80938476Y-52934980D02*
X80986095Y-52982600D01*
X80986095Y-52982600D02*
X81081333Y-53030219D01*
X81081333Y-53030219D02*
X81271809Y-53030219D01*
X81271809Y-53030219D02*
X81367047Y-52982600D01*
X81367047Y-52982600D02*
X81414666Y-52934980D01*
X81414666Y-52934980D02*
X81462285Y-52839742D01*
X81462285Y-52839742D02*
X81462285Y-52030219D01*
X81795619Y-52030219D02*
X82367047Y-52030219D01*
X82081333Y-53030219D02*
X82081333Y-52030219D01*
X101265190Y-54258406D02*
X101217571Y-54401263D01*
X101217571Y-54401263D02*
X101169952Y-54448882D01*
X101169952Y-54448882D02*
X101074714Y-54496501D01*
X101074714Y-54496501D02*
X100931857Y-54496501D01*
X100931857Y-54496501D02*
X100836619Y-54448882D01*
X100836619Y-54448882D02*
X100789000Y-54401263D01*
X100789000Y-54401263D02*
X100741380Y-54306025D01*
X100741380Y-54306025D02*
X100741380Y-53925073D01*
X100741380Y-53925073D02*
X101741380Y-53925073D01*
X101741380Y-53925073D02*
X101741380Y-54258406D01*
X101741380Y-54258406D02*
X101693761Y-54353644D01*
X101693761Y-54353644D02*
X101646142Y-54401263D01*
X101646142Y-54401263D02*
X101550904Y-54448882D01*
X101550904Y-54448882D02*
X101455666Y-54448882D01*
X101455666Y-54448882D02*
X101360428Y-54401263D01*
X101360428Y-54401263D02*
X101312809Y-54353644D01*
X101312809Y-54353644D02*
X101265190Y-54258406D01*
X101265190Y-54258406D02*
X101265190Y-53925073D01*
X101027095Y-54877454D02*
X101027095Y-55353644D01*
X100741380Y-54782216D02*
X101741380Y-55115549D01*
X101741380Y-55115549D02*
X100741380Y-55448882D01*
X100836619Y-56353644D02*
X100789000Y-56306025D01*
X100789000Y-56306025D02*
X100741380Y-56163168D01*
X100741380Y-56163168D02*
X100741380Y-56067930D01*
X100741380Y-56067930D02*
X100789000Y-55925073D01*
X100789000Y-55925073D02*
X100884238Y-55829835D01*
X100884238Y-55829835D02*
X100979476Y-55782216D01*
X100979476Y-55782216D02*
X101169952Y-55734597D01*
X101169952Y-55734597D02*
X101312809Y-55734597D01*
X101312809Y-55734597D02*
X101503285Y-55782216D01*
X101503285Y-55782216D02*
X101598523Y-55829835D01*
X101598523Y-55829835D02*
X101693761Y-55925073D01*
X101693761Y-55925073D02*
X101741380Y-56067930D01*
X101741380Y-56067930D02*
X101741380Y-56163168D01*
X101741380Y-56163168D02*
X101693761Y-56306025D01*
X101693761Y-56306025D02*
X101646142Y-56353644D01*
X100741380Y-56782216D02*
X101741380Y-56782216D01*
X100741380Y-57353644D02*
X101312809Y-56925073D01*
X101741380Y-57353644D02*
X101169952Y-56782216D01*
X85669523Y-55062219D02*
X85336190Y-54586028D01*
X85098095Y-55062219D02*
X85098095Y-54062219D01*
X85098095Y-54062219D02*
X85479047Y-54062219D01*
X85479047Y-54062219D02*
X85574285Y-54109838D01*
X85574285Y-54109838D02*
X85621904Y-54157457D01*
X85621904Y-54157457D02*
X85669523Y-54252695D01*
X85669523Y-54252695D02*
X85669523Y-54395552D01*
X85669523Y-54395552D02*
X85621904Y-54490790D01*
X85621904Y-54490790D02*
X85574285Y-54538409D01*
X85574285Y-54538409D02*
X85479047Y-54586028D01*
X85479047Y-54586028D02*
X85098095Y-54586028D01*
X86621904Y-54109838D02*
X86526666Y-54062219D01*
X86526666Y-54062219D02*
X86383809Y-54062219D01*
X86383809Y-54062219D02*
X86240952Y-54109838D01*
X86240952Y-54109838D02*
X86145714Y-54205076D01*
X86145714Y-54205076D02*
X86098095Y-54300314D01*
X86098095Y-54300314D02*
X86050476Y-54490790D01*
X86050476Y-54490790D02*
X86050476Y-54633647D01*
X86050476Y-54633647D02*
X86098095Y-54824123D01*
X86098095Y-54824123D02*
X86145714Y-54919361D01*
X86145714Y-54919361D02*
X86240952Y-55014600D01*
X86240952Y-55014600D02*
X86383809Y-55062219D01*
X86383809Y-55062219D02*
X86479047Y-55062219D01*
X86479047Y-55062219D02*
X86621904Y-55014600D01*
X86621904Y-55014600D02*
X86669523Y-54966980D01*
X86669523Y-54966980D02*
X86669523Y-54633647D01*
X86669523Y-54633647D02*
X86479047Y-54633647D01*
X87431428Y-54538409D02*
X87574285Y-54586028D01*
X87574285Y-54586028D02*
X87621904Y-54633647D01*
X87621904Y-54633647D02*
X87669523Y-54728885D01*
X87669523Y-54728885D02*
X87669523Y-54871742D01*
X87669523Y-54871742D02*
X87621904Y-54966980D01*
X87621904Y-54966980D02*
X87574285Y-55014600D01*
X87574285Y-55014600D02*
X87479047Y-55062219D01*
X87479047Y-55062219D02*
X87098095Y-55062219D01*
X87098095Y-55062219D02*
X87098095Y-54062219D01*
X87098095Y-54062219D02*
X87431428Y-54062219D01*
X87431428Y-54062219D02*
X87526666Y-54109838D01*
X87526666Y-54109838D02*
X87574285Y-54157457D01*
X87574285Y-54157457D02*
X87621904Y-54252695D01*
X87621904Y-54252695D02*
X87621904Y-54347933D01*
X87621904Y-54347933D02*
X87574285Y-54443171D01*
X87574285Y-54443171D02*
X87526666Y-54490790D01*
X87526666Y-54490790D02*
X87431428Y-54538409D01*
X87431428Y-54538409D02*
X87098095Y-54538409D01*
X67029105Y-101264819D02*
X67029105Y-100264819D01*
X67029105Y-100264819D02*
X67267200Y-100264819D01*
X67267200Y-100264819D02*
X67410057Y-100312438D01*
X67410057Y-100312438D02*
X67505295Y-100407676D01*
X67505295Y-100407676D02*
X67552914Y-100502914D01*
X67552914Y-100502914D02*
X67600533Y-100693390D01*
X67600533Y-100693390D02*
X67600533Y-100836247D01*
X67600533Y-100836247D02*
X67552914Y-101026723D01*
X67552914Y-101026723D02*
X67505295Y-101121961D01*
X67505295Y-101121961D02*
X67410057Y-101217200D01*
X67410057Y-101217200D02*
X67267200Y-101264819D01*
X67267200Y-101264819D02*
X67029105Y-101264819D01*
X67933867Y-100264819D02*
X68552914Y-100264819D01*
X68552914Y-100264819D02*
X68219581Y-100645771D01*
X68219581Y-100645771D02*
X68362438Y-100645771D01*
X68362438Y-100645771D02*
X68457676Y-100693390D01*
X68457676Y-100693390D02*
X68505295Y-100741009D01*
X68505295Y-100741009D02*
X68552914Y-100836247D01*
X68552914Y-100836247D02*
X68552914Y-101074342D01*
X68552914Y-101074342D02*
X68505295Y-101169580D01*
X68505295Y-101169580D02*
X68457676Y-101217200D01*
X68457676Y-101217200D02*
X68362438Y-101264819D01*
X68362438Y-101264819D02*
X68076724Y-101264819D01*
X68076724Y-101264819D02*
X67981486Y-101217200D01*
X67981486Y-101217200D02*
X67933867Y-101169580D01*
X96702780Y-54496501D02*
X97178971Y-54163168D01*
X96702780Y-53925073D02*
X97702780Y-53925073D01*
X97702780Y-53925073D02*
X97702780Y-54306025D01*
X97702780Y-54306025D02*
X97655161Y-54401263D01*
X97655161Y-54401263D02*
X97607542Y-54448882D01*
X97607542Y-54448882D02*
X97512304Y-54496501D01*
X97512304Y-54496501D02*
X97369447Y-54496501D01*
X97369447Y-54496501D02*
X97274209Y-54448882D01*
X97274209Y-54448882D02*
X97226590Y-54401263D01*
X97226590Y-54401263D02*
X97178971Y-54306025D01*
X97178971Y-54306025D02*
X97178971Y-53925073D01*
X96750400Y-54877454D02*
X96702780Y-55020311D01*
X96702780Y-55020311D02*
X96702780Y-55258406D01*
X96702780Y-55258406D02*
X96750400Y-55353644D01*
X96750400Y-55353644D02*
X96798019Y-55401263D01*
X96798019Y-55401263D02*
X96893257Y-55448882D01*
X96893257Y-55448882D02*
X96988495Y-55448882D01*
X96988495Y-55448882D02*
X97083733Y-55401263D01*
X97083733Y-55401263D02*
X97131352Y-55353644D01*
X97131352Y-55353644D02*
X97178971Y-55258406D01*
X97178971Y-55258406D02*
X97226590Y-55067930D01*
X97226590Y-55067930D02*
X97274209Y-54972692D01*
X97274209Y-54972692D02*
X97321828Y-54925073D01*
X97321828Y-54925073D02*
X97417066Y-54877454D01*
X97417066Y-54877454D02*
X97512304Y-54877454D01*
X97512304Y-54877454D02*
X97607542Y-54925073D01*
X97607542Y-54925073D02*
X97655161Y-54972692D01*
X97655161Y-54972692D02*
X97702780Y-55067930D01*
X97702780Y-55067930D02*
X97702780Y-55306025D01*
X97702780Y-55306025D02*
X97655161Y-55448882D01*
X97702780Y-55734597D02*
X97702780Y-56306025D01*
X96702780Y-56020311D02*
X97702780Y-56020311D01*
X130586380Y-54471101D02*
X131062571Y-54137768D01*
X130586380Y-53899673D02*
X131586380Y-53899673D01*
X131586380Y-53899673D02*
X131586380Y-54280625D01*
X131586380Y-54280625D02*
X131538761Y-54375863D01*
X131538761Y-54375863D02*
X131491142Y-54423482D01*
X131491142Y-54423482D02*
X131395904Y-54471101D01*
X131395904Y-54471101D02*
X131253047Y-54471101D01*
X131253047Y-54471101D02*
X131157809Y-54423482D01*
X131157809Y-54423482D02*
X131110190Y-54375863D01*
X131110190Y-54375863D02*
X131062571Y-54280625D01*
X131062571Y-54280625D02*
X131062571Y-53899673D01*
X130634000Y-54852054D02*
X130586380Y-54994911D01*
X130586380Y-54994911D02*
X130586380Y-55233006D01*
X130586380Y-55233006D02*
X130634000Y-55328244D01*
X130634000Y-55328244D02*
X130681619Y-55375863D01*
X130681619Y-55375863D02*
X130776857Y-55423482D01*
X130776857Y-55423482D02*
X130872095Y-55423482D01*
X130872095Y-55423482D02*
X130967333Y-55375863D01*
X130967333Y-55375863D02*
X131014952Y-55328244D01*
X131014952Y-55328244D02*
X131062571Y-55233006D01*
X131062571Y-55233006D02*
X131110190Y-55042530D01*
X131110190Y-55042530D02*
X131157809Y-54947292D01*
X131157809Y-54947292D02*
X131205428Y-54899673D01*
X131205428Y-54899673D02*
X131300666Y-54852054D01*
X131300666Y-54852054D02*
X131395904Y-54852054D01*
X131395904Y-54852054D02*
X131491142Y-54899673D01*
X131491142Y-54899673D02*
X131538761Y-54947292D01*
X131538761Y-54947292D02*
X131586380Y-55042530D01*
X131586380Y-55042530D02*
X131586380Y-55280625D01*
X131586380Y-55280625D02*
X131538761Y-55423482D01*
X131586380Y-55709197D02*
X131586380Y-56280625D01*
X130586380Y-55994911D02*
X131586380Y-55994911D01*
X61999905Y-93390819D02*
X61999905Y-92390819D01*
X61999905Y-92390819D02*
X62238000Y-92390819D01*
X62238000Y-92390819D02*
X62380857Y-92438438D01*
X62380857Y-92438438D02*
X62476095Y-92533676D01*
X62476095Y-92533676D02*
X62523714Y-92628914D01*
X62523714Y-92628914D02*
X62571333Y-92819390D01*
X62571333Y-92819390D02*
X62571333Y-92962247D01*
X62571333Y-92962247D02*
X62523714Y-93152723D01*
X62523714Y-93152723D02*
X62476095Y-93247961D01*
X62476095Y-93247961D02*
X62380857Y-93343200D01*
X62380857Y-93343200D02*
X62238000Y-93390819D01*
X62238000Y-93390819D02*
X61999905Y-93390819D01*
X63523714Y-93390819D02*
X62952286Y-93390819D01*
X63238000Y-93390819D02*
X63238000Y-92390819D01*
X63238000Y-92390819D02*
X63142762Y-92533676D01*
X63142762Y-92533676D02*
X63047524Y-92628914D01*
X63047524Y-92628914D02*
X62952286Y-92676533D01*
X73313991Y-90571419D02*
X73313991Y-89571419D01*
X73790181Y-90571419D02*
X73790181Y-89571419D01*
X73790181Y-89571419D02*
X74361609Y-90571419D01*
X74361609Y-90571419D02*
X74361609Y-89571419D01*
X125049180Y-53912873D02*
X126049180Y-53912873D01*
X125049180Y-54484301D02*
X125620609Y-54055730D01*
X126049180Y-54484301D02*
X125477752Y-53912873D01*
D12*
X109957082Y-63958971D02*
X110528510Y-63530400D01*
X110528510Y-63530400D02*
X111099939Y-63958971D01*
D11*
X119927780Y-53770016D02*
X118927780Y-54103349D01*
X118927780Y-54103349D02*
X119927780Y-54436682D01*
X118975400Y-54722397D02*
X118927780Y-54865254D01*
X118927780Y-54865254D02*
X118927780Y-55103349D01*
X118927780Y-55103349D02*
X118975400Y-55198587D01*
X118975400Y-55198587D02*
X119023019Y-55246206D01*
X119023019Y-55246206D02*
X119118257Y-55293825D01*
X119118257Y-55293825D02*
X119213495Y-55293825D01*
X119213495Y-55293825D02*
X119308733Y-55246206D01*
X119308733Y-55246206D02*
X119356352Y-55198587D01*
X119356352Y-55198587D02*
X119403971Y-55103349D01*
X119403971Y-55103349D02*
X119451590Y-54912873D01*
X119451590Y-54912873D02*
X119499209Y-54817635D01*
X119499209Y-54817635D02*
X119546828Y-54770016D01*
X119546828Y-54770016D02*
X119642066Y-54722397D01*
X119642066Y-54722397D02*
X119737304Y-54722397D01*
X119737304Y-54722397D02*
X119832542Y-54770016D01*
X119832542Y-54770016D02*
X119880161Y-54817635D01*
X119880161Y-54817635D02*
X119927780Y-54912873D01*
X119927780Y-54912873D02*
X119927780Y-55150968D01*
X119927780Y-55150968D02*
X119880161Y-55293825D01*
X118927780Y-55722397D02*
X119927780Y-55722397D01*
X119927780Y-55722397D02*
X119927780Y-56103349D01*
X119927780Y-56103349D02*
X119880161Y-56198587D01*
X119880161Y-56198587D02*
X119832542Y-56246206D01*
X119832542Y-56246206D02*
X119737304Y-56293825D01*
X119737304Y-56293825D02*
X119594447Y-56293825D01*
X119594447Y-56293825D02*
X119499209Y-56246206D01*
X119499209Y-56246206D02*
X119451590Y-56198587D01*
X119451590Y-56198587D02*
X119403971Y-56103349D01*
X119403971Y-56103349D02*
X119403971Y-55722397D01*
X106786580Y-53862073D02*
X107786580Y-53862073D01*
X106786580Y-54433501D02*
X107358009Y-54004930D01*
X107786580Y-54433501D02*
X107215152Y-53862073D01*
X121959780Y-53770016D02*
X120959780Y-54103349D01*
X120959780Y-54103349D02*
X121959780Y-54436682D01*
X121007400Y-54722397D02*
X120959780Y-54865254D01*
X120959780Y-54865254D02*
X120959780Y-55103349D01*
X120959780Y-55103349D02*
X121007400Y-55198587D01*
X121007400Y-55198587D02*
X121055019Y-55246206D01*
X121055019Y-55246206D02*
X121150257Y-55293825D01*
X121150257Y-55293825D02*
X121245495Y-55293825D01*
X121245495Y-55293825D02*
X121340733Y-55246206D01*
X121340733Y-55246206D02*
X121388352Y-55198587D01*
X121388352Y-55198587D02*
X121435971Y-55103349D01*
X121435971Y-55103349D02*
X121483590Y-54912873D01*
X121483590Y-54912873D02*
X121531209Y-54817635D01*
X121531209Y-54817635D02*
X121578828Y-54770016D01*
X121578828Y-54770016D02*
X121674066Y-54722397D01*
X121674066Y-54722397D02*
X121769304Y-54722397D01*
X121769304Y-54722397D02*
X121864542Y-54770016D01*
X121864542Y-54770016D02*
X121912161Y-54817635D01*
X121912161Y-54817635D02*
X121959780Y-54912873D01*
X121959780Y-54912873D02*
X121959780Y-55150968D01*
X121959780Y-55150968D02*
X121912161Y-55293825D01*
X120959780Y-55722397D02*
X121959780Y-55722397D01*
X121959780Y-55722397D02*
X120959780Y-56293825D01*
X120959780Y-56293825D02*
X121959780Y-56293825D01*
X68371819Y-73823298D02*
X67895628Y-74156631D01*
X68371819Y-74394726D02*
X67371819Y-74394726D01*
X67371819Y-74394726D02*
X67371819Y-74013774D01*
X67371819Y-74013774D02*
X67419438Y-73918536D01*
X67419438Y-73918536D02*
X67467057Y-73870917D01*
X67467057Y-73870917D02*
X67562295Y-73823298D01*
X67562295Y-73823298D02*
X67705152Y-73823298D01*
X67705152Y-73823298D02*
X67800390Y-73870917D01*
X67800390Y-73870917D02*
X67848009Y-73918536D01*
X67848009Y-73918536D02*
X67895628Y-74013774D01*
X67895628Y-74013774D02*
X67895628Y-74394726D01*
X68324200Y-73442345D02*
X68371819Y-73299488D01*
X68371819Y-73299488D02*
X68371819Y-73061393D01*
X68371819Y-73061393D02*
X68324200Y-72966155D01*
X68324200Y-72966155D02*
X68276580Y-72918536D01*
X68276580Y-72918536D02*
X68181342Y-72870917D01*
X68181342Y-72870917D02*
X68086104Y-72870917D01*
X68086104Y-72870917D02*
X67990866Y-72918536D01*
X67990866Y-72918536D02*
X67943247Y-72966155D01*
X67943247Y-72966155D02*
X67895628Y-73061393D01*
X67895628Y-73061393D02*
X67848009Y-73251869D01*
X67848009Y-73251869D02*
X67800390Y-73347107D01*
X67800390Y-73347107D02*
X67752771Y-73394726D01*
X67752771Y-73394726D02*
X67657533Y-73442345D01*
X67657533Y-73442345D02*
X67562295Y-73442345D01*
X67562295Y-73442345D02*
X67467057Y-73394726D01*
X67467057Y-73394726D02*
X67419438Y-73347107D01*
X67419438Y-73347107D02*
X67371819Y-73251869D01*
X67371819Y-73251869D02*
X67371819Y-73013774D01*
X67371819Y-73013774D02*
X67419438Y-72870917D01*
X67371819Y-72585202D02*
X67371819Y-72013774D01*
X68371819Y-72299488D02*
X67371819Y-72299488D01*
X136847006Y-54284409D02*
X136989863Y-54332028D01*
X136989863Y-54332028D02*
X137037482Y-54379647D01*
X137037482Y-54379647D02*
X137085101Y-54474885D01*
X137085101Y-54474885D02*
X137085101Y-54617742D01*
X137085101Y-54617742D02*
X137037482Y-54712980D01*
X137037482Y-54712980D02*
X136989863Y-54760600D01*
X136989863Y-54760600D02*
X136894625Y-54808219D01*
X136894625Y-54808219D02*
X136513673Y-54808219D01*
X136513673Y-54808219D02*
X136513673Y-53808219D01*
X136513673Y-53808219D02*
X136847006Y-53808219D01*
X136847006Y-53808219D02*
X136942244Y-53855838D01*
X136942244Y-53855838D02*
X136989863Y-53903457D01*
X136989863Y-53903457D02*
X137037482Y-53998695D01*
X137037482Y-53998695D02*
X137037482Y-54093933D01*
X137037482Y-54093933D02*
X136989863Y-54189171D01*
X136989863Y-54189171D02*
X136942244Y-54236790D01*
X136942244Y-54236790D02*
X136847006Y-54284409D01*
X136847006Y-54284409D02*
X136513673Y-54284409D01*
X137466054Y-54522504D02*
X137942244Y-54522504D01*
X137370816Y-54808219D02*
X137704149Y-53808219D01*
X137704149Y-53808219D02*
X138037482Y-54808219D01*
X138942244Y-54712980D02*
X138894625Y-54760600D01*
X138894625Y-54760600D02*
X138751768Y-54808219D01*
X138751768Y-54808219D02*
X138656530Y-54808219D01*
X138656530Y-54808219D02*
X138513673Y-54760600D01*
X138513673Y-54760600D02*
X138418435Y-54665361D01*
X138418435Y-54665361D02*
X138370816Y-54570123D01*
X138370816Y-54570123D02*
X138323197Y-54379647D01*
X138323197Y-54379647D02*
X138323197Y-54236790D01*
X138323197Y-54236790D02*
X138370816Y-54046314D01*
X138370816Y-54046314D02*
X138418435Y-53951076D01*
X138418435Y-53951076D02*
X138513673Y-53855838D01*
X138513673Y-53855838D02*
X138656530Y-53808219D01*
X138656530Y-53808219D02*
X138751768Y-53808219D01*
X138751768Y-53808219D02*
X138894625Y-53855838D01*
X138894625Y-53855838D02*
X138942244Y-53903457D01*
X139370816Y-54808219D02*
X139370816Y-53808219D01*
X139942244Y-54808219D02*
X139513673Y-54236790D01*
X139942244Y-53808219D02*
X139370816Y-54379647D01*
X74299482Y-84589838D02*
X74204244Y-84542219D01*
X74204244Y-84542219D02*
X74061387Y-84542219D01*
X74061387Y-84542219D02*
X73918530Y-84589838D01*
X73918530Y-84589838D02*
X73823292Y-84685076D01*
X73823292Y-84685076D02*
X73775673Y-84780314D01*
X73775673Y-84780314D02*
X73728054Y-84970790D01*
X73728054Y-84970790D02*
X73728054Y-85113647D01*
X73728054Y-85113647D02*
X73775673Y-85304123D01*
X73775673Y-85304123D02*
X73823292Y-85399361D01*
X73823292Y-85399361D02*
X73918530Y-85494600D01*
X73918530Y-85494600D02*
X74061387Y-85542219D01*
X74061387Y-85542219D02*
X74156625Y-85542219D01*
X74156625Y-85542219D02*
X74299482Y-85494600D01*
X74299482Y-85494600D02*
X74347101Y-85446980D01*
X74347101Y-85446980D02*
X74347101Y-85113647D01*
X74347101Y-85113647D02*
X74156625Y-85113647D01*
X74775673Y-85542219D02*
X74775673Y-84542219D01*
X74775673Y-84542219D02*
X75347101Y-85542219D01*
X75347101Y-85542219D02*
X75347101Y-84542219D01*
X75823292Y-85542219D02*
X75823292Y-84542219D01*
X75823292Y-84542219D02*
X76061387Y-84542219D01*
X76061387Y-84542219D02*
X76204244Y-84589838D01*
X76204244Y-84589838D02*
X76299482Y-84685076D01*
X76299482Y-84685076D02*
X76347101Y-84780314D01*
X76347101Y-84780314D02*
X76394720Y-84970790D01*
X76394720Y-84970790D02*
X76394720Y-85113647D01*
X76394720Y-85113647D02*
X76347101Y-85304123D01*
X76347101Y-85304123D02*
X76299482Y-85399361D01*
X76299482Y-85399361D02*
X76204244Y-85494600D01*
X76204244Y-85494600D02*
X76061387Y-85542219D01*
X76061387Y-85542219D02*
X75823292Y-85542219D01*
X98782400Y-53877454D02*
X98734780Y-54020311D01*
X98734780Y-54020311D02*
X98734780Y-54258406D01*
X98734780Y-54258406D02*
X98782400Y-54353644D01*
X98782400Y-54353644D02*
X98830019Y-54401263D01*
X98830019Y-54401263D02*
X98925257Y-54448882D01*
X98925257Y-54448882D02*
X99020495Y-54448882D01*
X99020495Y-54448882D02*
X99115733Y-54401263D01*
X99115733Y-54401263D02*
X99163352Y-54353644D01*
X99163352Y-54353644D02*
X99210971Y-54258406D01*
X99210971Y-54258406D02*
X99258590Y-54067930D01*
X99258590Y-54067930D02*
X99306209Y-53972692D01*
X99306209Y-53972692D02*
X99353828Y-53925073D01*
X99353828Y-53925073D02*
X99449066Y-53877454D01*
X99449066Y-53877454D02*
X99544304Y-53877454D01*
X99544304Y-53877454D02*
X99639542Y-53925073D01*
X99639542Y-53925073D02*
X99687161Y-53972692D01*
X99687161Y-53972692D02*
X99734780Y-54067930D01*
X99734780Y-54067930D02*
X99734780Y-54306025D01*
X99734780Y-54306025D02*
X99687161Y-54448882D01*
X99210971Y-55067930D02*
X98734780Y-55067930D01*
X99734780Y-54734597D02*
X99210971Y-55067930D01*
X99210971Y-55067930D02*
X99734780Y-55401263D01*
X98734780Y-55734597D02*
X99734780Y-55734597D01*
X99734780Y-55734597D02*
X98734780Y-56306025D01*
X98734780Y-56306025D02*
X99734780Y-56306025D01*
X98830019Y-57353644D02*
X98782400Y-57306025D01*
X98782400Y-57306025D02*
X98734780Y-57163168D01*
X98734780Y-57163168D02*
X98734780Y-57067930D01*
X98734780Y-57067930D02*
X98782400Y-56925073D01*
X98782400Y-56925073D02*
X98877638Y-56829835D01*
X98877638Y-56829835D02*
X98972876Y-56782216D01*
X98972876Y-56782216D02*
X99163352Y-56734597D01*
X99163352Y-56734597D02*
X99306209Y-56734597D01*
X99306209Y-56734597D02*
X99496685Y-56782216D01*
X99496685Y-56782216D02*
X99591923Y-56829835D01*
X99591923Y-56829835D02*
X99687161Y-56925073D01*
X99687161Y-56925073D02*
X99734780Y-57067930D01*
X99734780Y-57067930D02*
X99734780Y-57163168D01*
X99734780Y-57163168D02*
X99687161Y-57306025D01*
X99687161Y-57306025D02*
X99639542Y-57353644D01*
X72578819Y-79404936D02*
X72578819Y-79881126D01*
X72578819Y-79881126D02*
X73055009Y-79928745D01*
X73055009Y-79928745D02*
X73007390Y-79881126D01*
X73007390Y-79881126D02*
X72959771Y-79785888D01*
X72959771Y-79785888D02*
X72959771Y-79547793D01*
X72959771Y-79547793D02*
X73007390Y-79452555D01*
X73007390Y-79452555D02*
X73055009Y-79404936D01*
X73055009Y-79404936D02*
X73150247Y-79357317D01*
X73150247Y-79357317D02*
X73388342Y-79357317D01*
X73388342Y-79357317D02*
X73483580Y-79404936D01*
X73483580Y-79404936D02*
X73531200Y-79452555D01*
X73531200Y-79452555D02*
X73578819Y-79547793D01*
X73578819Y-79547793D02*
X73578819Y-79785888D01*
X73578819Y-79785888D02*
X73531200Y-79881126D01*
X73531200Y-79881126D02*
X73483580Y-79928745D01*
X72578819Y-79071602D02*
X73578819Y-78738269D01*
X73578819Y-78738269D02*
X72578819Y-78404936D01*
X72578819Y-77881126D02*
X72578819Y-77785888D01*
X72578819Y-77785888D02*
X72626438Y-77690650D01*
X72626438Y-77690650D02*
X72674057Y-77643031D01*
X72674057Y-77643031D02*
X72769295Y-77595412D01*
X72769295Y-77595412D02*
X72959771Y-77547793D01*
X72959771Y-77547793D02*
X73197866Y-77547793D01*
X73197866Y-77547793D02*
X73388342Y-77595412D01*
X73388342Y-77595412D02*
X73483580Y-77643031D01*
X73483580Y-77643031D02*
X73531200Y-77690650D01*
X73531200Y-77690650D02*
X73578819Y-77785888D01*
X73578819Y-77785888D02*
X73578819Y-77881126D01*
X73578819Y-77881126D02*
X73531200Y-77976364D01*
X73531200Y-77976364D02*
X73483580Y-78023983D01*
X73483580Y-78023983D02*
X73388342Y-78071602D01*
X73388342Y-78071602D02*
X73197866Y-78119221D01*
X73197866Y-78119221D02*
X72959771Y-78119221D01*
X72959771Y-78119221D02*
X72769295Y-78071602D01*
X72769295Y-78071602D02*
X72674057Y-78023983D01*
X72674057Y-78023983D02*
X72626438Y-77976364D01*
X72626438Y-77976364D02*
X72578819Y-77881126D01*
X77294923Y-70343266D02*
X77429610Y-70275923D01*
X77429610Y-70275923D02*
X77597969Y-70107564D01*
X77597969Y-70107564D02*
X77631641Y-70006549D01*
X77631641Y-70006549D02*
X77631641Y-69939205D01*
X77631641Y-69939205D02*
X77597969Y-69838190D01*
X77597969Y-69838190D02*
X77530626Y-69770847D01*
X77530626Y-69770847D02*
X77429610Y-69737175D01*
X77429610Y-69737175D02*
X77362267Y-69737175D01*
X77362267Y-69737175D02*
X77261252Y-69770847D01*
X77261252Y-69770847D02*
X77092893Y-69871862D01*
X77092893Y-69871862D02*
X76991878Y-69905534D01*
X76991878Y-69905534D02*
X76924534Y-69905534D01*
X76924534Y-69905534D02*
X76823519Y-69871862D01*
X76823519Y-69871862D02*
X76756175Y-69804518D01*
X76756175Y-69804518D02*
X76722504Y-69703503D01*
X76722504Y-69703503D02*
X76722504Y-69636160D01*
X76722504Y-69636160D02*
X76756175Y-69535144D01*
X76756175Y-69535144D02*
X76924534Y-69366786D01*
X76924534Y-69366786D02*
X77059221Y-69299442D01*
X77968358Y-69669831D02*
X78103045Y-69602488D01*
X78103045Y-69602488D02*
X78271404Y-69434129D01*
X78271404Y-69434129D02*
X78305076Y-69333114D01*
X78305076Y-69333114D02*
X78305076Y-69265770D01*
X78305076Y-69265770D02*
X78271404Y-69164755D01*
X78271404Y-69164755D02*
X78204061Y-69097412D01*
X78204061Y-69097412D02*
X78103045Y-69063740D01*
X78103045Y-69063740D02*
X78035702Y-69063740D01*
X78035702Y-69063740D02*
X77934687Y-69097412D01*
X77934687Y-69097412D02*
X77766328Y-69198427D01*
X77766328Y-69198427D02*
X77665313Y-69232099D01*
X77665313Y-69232099D02*
X77597969Y-69232099D01*
X77597969Y-69232099D02*
X77496954Y-69198427D01*
X77496954Y-69198427D02*
X77429610Y-69131083D01*
X77429610Y-69131083D02*
X77395939Y-69030068D01*
X77395939Y-69030068D02*
X77395939Y-68962725D01*
X77395939Y-68962725D02*
X77429610Y-68861709D01*
X77429610Y-68861709D02*
X77597969Y-68693351D01*
X77597969Y-68693351D02*
X77732656Y-68626007D01*
X78709137Y-68996396D02*
X78002030Y-68289290D01*
X78002030Y-68289290D02*
X78170389Y-68120931D01*
X78170389Y-68120931D02*
X78305076Y-68053587D01*
X78305076Y-68053587D02*
X78439763Y-68053587D01*
X78439763Y-68053587D02*
X78540778Y-68087259D01*
X78540778Y-68087259D02*
X78709137Y-68188274D01*
X78709137Y-68188274D02*
X78810152Y-68289290D01*
X78810152Y-68289290D02*
X78911167Y-68457648D01*
X78911167Y-68457648D02*
X78944839Y-68558664D01*
X78944839Y-68558664D02*
X78944839Y-68693351D01*
X78944839Y-68693351D02*
X78877496Y-68828038D01*
X78877496Y-68828038D02*
X78709137Y-68996396D01*
X78742809Y-67683198D02*
X78742809Y-67615855D01*
X78742809Y-67615855D02*
X78776480Y-67514839D01*
X78776480Y-67514839D02*
X78944839Y-67346481D01*
X78944839Y-67346481D02*
X79045854Y-67312809D01*
X79045854Y-67312809D02*
X79113198Y-67312809D01*
X79113198Y-67312809D02*
X79214213Y-67346481D01*
X79214213Y-67346481D02*
X79281557Y-67413824D01*
X79281557Y-67413824D02*
X79348900Y-67548511D01*
X79348900Y-67548511D02*
X79348900Y-68356633D01*
X79348900Y-68356633D02*
X79786633Y-67918900D01*
X79786633Y-67110778D02*
X79685618Y-67144450D01*
X79685618Y-67144450D02*
X79618274Y-67144450D01*
X79618274Y-67144450D02*
X79517259Y-67110778D01*
X79517259Y-67110778D02*
X79483587Y-67077106D01*
X79483587Y-67077106D02*
X79449916Y-66976091D01*
X79449916Y-66976091D02*
X79449916Y-66908748D01*
X79449916Y-66908748D02*
X79483587Y-66807732D01*
X79483587Y-66807732D02*
X79618274Y-66673045D01*
X79618274Y-66673045D02*
X79719290Y-66639374D01*
X79719290Y-66639374D02*
X79786633Y-66639374D01*
X79786633Y-66639374D02*
X79887648Y-66673045D01*
X79887648Y-66673045D02*
X79921320Y-66706717D01*
X79921320Y-66706717D02*
X79954992Y-66807732D01*
X79954992Y-66807732D02*
X79954992Y-66875076D01*
X79954992Y-66875076D02*
X79921320Y-66976091D01*
X79921320Y-66976091D02*
X79786633Y-67110778D01*
X79786633Y-67110778D02*
X79752961Y-67211793D01*
X79752961Y-67211793D02*
X79752961Y-67279137D01*
X79752961Y-67279137D02*
X79786633Y-67380152D01*
X79786633Y-67380152D02*
X79921320Y-67514839D01*
X79921320Y-67514839D02*
X80022335Y-67548511D01*
X80022335Y-67548511D02*
X80089679Y-67548511D01*
X80089679Y-67548511D02*
X80190694Y-67514839D01*
X80190694Y-67514839D02*
X80325381Y-67380152D01*
X80325381Y-67380152D02*
X80359053Y-67279137D01*
X80359053Y-67279137D02*
X80359053Y-67211793D01*
X80359053Y-67211793D02*
X80325381Y-67110778D01*
X80325381Y-67110778D02*
X80190694Y-66976091D01*
X80190694Y-66976091D02*
X80089679Y-66942419D01*
X80089679Y-66942419D02*
X80022335Y-66942419D01*
X80022335Y-66942419D02*
X79921320Y-66976091D01*
X80089679Y-66336328D02*
X80089679Y-66268984D01*
X80089679Y-66268984D02*
X80123351Y-66167969D01*
X80123351Y-66167969D02*
X80291709Y-65999610D01*
X80291709Y-65999610D02*
X80392725Y-65965939D01*
X80392725Y-65965939D02*
X80460068Y-65965939D01*
X80460068Y-65965939D02*
X80561083Y-65999610D01*
X80561083Y-65999610D02*
X80628427Y-66066954D01*
X80628427Y-66066954D02*
X80695770Y-66201641D01*
X80695770Y-66201641D02*
X80695770Y-67009763D01*
X80695770Y-67009763D02*
X81133503Y-66572030D01*
X81133503Y-65763908D02*
X81032488Y-65797580D01*
X81032488Y-65797580D02*
X80965144Y-65797580D01*
X80965144Y-65797580D02*
X80864129Y-65763908D01*
X80864129Y-65763908D02*
X80830457Y-65730236D01*
X80830457Y-65730236D02*
X80796786Y-65629221D01*
X80796786Y-65629221D02*
X80796786Y-65561878D01*
X80796786Y-65561878D02*
X80830457Y-65460862D01*
X80830457Y-65460862D02*
X80965144Y-65326175D01*
X80965144Y-65326175D02*
X81066160Y-65292504D01*
X81066160Y-65292504D02*
X81133503Y-65292504D01*
X81133503Y-65292504D02*
X81234518Y-65326175D01*
X81234518Y-65326175D02*
X81268190Y-65359847D01*
X81268190Y-65359847D02*
X81301862Y-65460862D01*
X81301862Y-65460862D02*
X81301862Y-65528206D01*
X81301862Y-65528206D02*
X81268190Y-65629221D01*
X81268190Y-65629221D02*
X81133503Y-65763908D01*
X81133503Y-65763908D02*
X81099831Y-65864923D01*
X81099831Y-65864923D02*
X81099831Y-65932267D01*
X81099831Y-65932267D02*
X81133503Y-66033282D01*
X81133503Y-66033282D02*
X81268190Y-66167969D01*
X81268190Y-66167969D02*
X81369205Y-66201641D01*
X81369205Y-66201641D02*
X81436549Y-66201641D01*
X81436549Y-66201641D02*
X81537564Y-66167969D01*
X81537564Y-66167969D02*
X81672251Y-66033282D01*
X81672251Y-66033282D02*
X81705923Y-65932267D01*
X81705923Y-65932267D02*
X81705923Y-65864923D01*
X81705923Y-65864923D02*
X81672251Y-65763908D01*
X81672251Y-65763908D02*
X81537564Y-65629221D01*
X81537564Y-65629221D02*
X81436549Y-65595549D01*
X81436549Y-65595549D02*
X81369205Y-65595549D01*
X81369205Y-65595549D02*
X81268190Y-65629221D01*
X109894780Y-53829835D02*
X109894780Y-54448882D01*
X109894780Y-54448882D02*
X109513828Y-54115549D01*
X109513828Y-54115549D02*
X109513828Y-54258406D01*
X109513828Y-54258406D02*
X109466209Y-54353644D01*
X109466209Y-54353644D02*
X109418590Y-54401263D01*
X109418590Y-54401263D02*
X109323352Y-54448882D01*
X109323352Y-54448882D02*
X109085257Y-54448882D01*
X109085257Y-54448882D02*
X108990019Y-54401263D01*
X108990019Y-54401263D02*
X108942400Y-54353644D01*
X108942400Y-54353644D02*
X108894780Y-54258406D01*
X108894780Y-54258406D02*
X108894780Y-53972692D01*
X108894780Y-53972692D02*
X108942400Y-53877454D01*
X108942400Y-53877454D02*
X108990019Y-53829835D01*
X109894780Y-54734597D02*
X108894780Y-55067930D01*
X108894780Y-55067930D02*
X109894780Y-55401263D01*
X109894780Y-55925073D02*
X109894780Y-56020311D01*
X109894780Y-56020311D02*
X109847161Y-56115549D01*
X109847161Y-56115549D02*
X109799542Y-56163168D01*
X109799542Y-56163168D02*
X109704304Y-56210787D01*
X109704304Y-56210787D02*
X109513828Y-56258406D01*
X109513828Y-56258406D02*
X109275733Y-56258406D01*
X109275733Y-56258406D02*
X109085257Y-56210787D01*
X109085257Y-56210787D02*
X108990019Y-56163168D01*
X108990019Y-56163168D02*
X108942400Y-56115549D01*
X108942400Y-56115549D02*
X108894780Y-56020311D01*
X108894780Y-56020311D02*
X108894780Y-55925073D01*
X108894780Y-55925073D02*
X108942400Y-55829835D01*
X108942400Y-55829835D02*
X108990019Y-55782216D01*
X108990019Y-55782216D02*
X109085257Y-55734597D01*
X109085257Y-55734597D02*
X109275733Y-55686978D01*
X109275733Y-55686978D02*
X109513828Y-55686978D01*
X109513828Y-55686978D02*
X109704304Y-55734597D01*
X109704304Y-55734597D02*
X109799542Y-55782216D01*
X109799542Y-55782216D02*
X109847161Y-55829835D01*
X109847161Y-55829835D02*
X109894780Y-55925073D01*
X67305019Y-79357317D02*
X67305019Y-79928745D01*
X67305019Y-79643031D02*
X66305019Y-79643031D01*
X66305019Y-79643031D02*
X66447876Y-79738269D01*
X66447876Y-79738269D02*
X66543114Y-79833507D01*
X66543114Y-79833507D02*
X66590733Y-79928745D01*
X66305019Y-79071602D02*
X67305019Y-78738269D01*
X67305019Y-78738269D02*
X66305019Y-78404936D01*
X66400257Y-78119221D02*
X66352638Y-78071602D01*
X66352638Y-78071602D02*
X66305019Y-77976364D01*
X66305019Y-77976364D02*
X66305019Y-77738269D01*
X66305019Y-77738269D02*
X66352638Y-77643031D01*
X66352638Y-77643031D02*
X66400257Y-77595412D01*
X66400257Y-77595412D02*
X66495495Y-77547793D01*
X66495495Y-77547793D02*
X66590733Y-77547793D01*
X66590733Y-77547793D02*
X66733590Y-77595412D01*
X66733590Y-77595412D02*
X67305019Y-78166840D01*
X67305019Y-78166840D02*
X67305019Y-77547793D01*
X80798780Y-73823298D02*
X80846400Y-73870917D01*
X80846400Y-73870917D02*
X80894019Y-74013774D01*
X80894019Y-74013774D02*
X80894019Y-74109012D01*
X80894019Y-74109012D02*
X80846400Y-74251869D01*
X80846400Y-74251869D02*
X80751161Y-74347107D01*
X80751161Y-74347107D02*
X80655923Y-74394726D01*
X80655923Y-74394726D02*
X80465447Y-74442345D01*
X80465447Y-74442345D02*
X80322590Y-74442345D01*
X80322590Y-74442345D02*
X80132114Y-74394726D01*
X80132114Y-74394726D02*
X80036876Y-74347107D01*
X80036876Y-74347107D02*
X79941638Y-74251869D01*
X79941638Y-74251869D02*
X79894019Y-74109012D01*
X79894019Y-74109012D02*
X79894019Y-74013774D01*
X79894019Y-74013774D02*
X79941638Y-73870917D01*
X79941638Y-73870917D02*
X79989257Y-73823298D01*
X80846400Y-73442345D02*
X80894019Y-73299488D01*
X80894019Y-73299488D02*
X80894019Y-73061393D01*
X80894019Y-73061393D02*
X80846400Y-72966155D01*
X80846400Y-72966155D02*
X80798780Y-72918536D01*
X80798780Y-72918536D02*
X80703542Y-72870917D01*
X80703542Y-72870917D02*
X80608304Y-72870917D01*
X80608304Y-72870917D02*
X80513066Y-72918536D01*
X80513066Y-72918536D02*
X80465447Y-72966155D01*
X80465447Y-72966155D02*
X80417828Y-73061393D01*
X80417828Y-73061393D02*
X80370209Y-73251869D01*
X80370209Y-73251869D02*
X80322590Y-73347107D01*
X80322590Y-73347107D02*
X80274971Y-73394726D01*
X80274971Y-73394726D02*
X80179733Y-73442345D01*
X80179733Y-73442345D02*
X80084495Y-73442345D01*
X80084495Y-73442345D02*
X79989257Y-73394726D01*
X79989257Y-73394726D02*
X79941638Y-73347107D01*
X79941638Y-73347107D02*
X79894019Y-73251869D01*
X79894019Y-73251869D02*
X79894019Y-73013774D01*
X79894019Y-73013774D02*
X79941638Y-72870917D01*
D12*
X132538971Y-63016917D02*
X132110400Y-62445489D01*
X132110400Y-62445489D02*
X132538971Y-61874060D01*
D11*
X141041590Y-52265006D02*
X140993971Y-52407863D01*
X140993971Y-52407863D02*
X140946352Y-52455482D01*
X140946352Y-52455482D02*
X140851114Y-52503101D01*
X140851114Y-52503101D02*
X140708257Y-52503101D01*
X140708257Y-52503101D02*
X140613019Y-52455482D01*
X140613019Y-52455482D02*
X140565400Y-52407863D01*
X140565400Y-52407863D02*
X140517780Y-52312625D01*
X140517780Y-52312625D02*
X140517780Y-51931673D01*
X140517780Y-51931673D02*
X141517780Y-51931673D01*
X141517780Y-51931673D02*
X141517780Y-52265006D01*
X141517780Y-52265006D02*
X141470161Y-52360244D01*
X141470161Y-52360244D02*
X141422542Y-52407863D01*
X141422542Y-52407863D02*
X141327304Y-52455482D01*
X141327304Y-52455482D02*
X141232066Y-52455482D01*
X141232066Y-52455482D02*
X141136828Y-52407863D01*
X141136828Y-52407863D02*
X141089209Y-52360244D01*
X141089209Y-52360244D02*
X141041590Y-52265006D01*
X141041590Y-52265006D02*
X141041590Y-51931673D01*
X140517780Y-52931673D02*
X141517780Y-52931673D01*
X140803495Y-53360244D02*
X140803495Y-53836434D01*
X140517780Y-53265006D02*
X141517780Y-53598339D01*
X141517780Y-53598339D02*
X140517780Y-53931672D01*
X140565400Y-54217387D02*
X140517780Y-54360244D01*
X140517780Y-54360244D02*
X140517780Y-54598339D01*
X140517780Y-54598339D02*
X140565400Y-54693577D01*
X140565400Y-54693577D02*
X140613019Y-54741196D01*
X140613019Y-54741196D02*
X140708257Y-54788815D01*
X140708257Y-54788815D02*
X140803495Y-54788815D01*
X140803495Y-54788815D02*
X140898733Y-54741196D01*
X140898733Y-54741196D02*
X140946352Y-54693577D01*
X140946352Y-54693577D02*
X140993971Y-54598339D01*
X140993971Y-54598339D02*
X141041590Y-54407863D01*
X141041590Y-54407863D02*
X141089209Y-54312625D01*
X141089209Y-54312625D02*
X141136828Y-54265006D01*
X141136828Y-54265006D02*
X141232066Y-54217387D01*
X141232066Y-54217387D02*
X141327304Y-54217387D01*
X141327304Y-54217387D02*
X141422542Y-54265006D01*
X141422542Y-54265006D02*
X141470161Y-54312625D01*
X141470161Y-54312625D02*
X141517780Y-54407863D01*
X141517780Y-54407863D02*
X141517780Y-54645958D01*
X141517780Y-54645958D02*
X141470161Y-54788815D01*
X134421780Y-53899673D02*
X135421780Y-53899673D01*
X135421780Y-53899673D02*
X135421780Y-54280625D01*
X135421780Y-54280625D02*
X135374161Y-54375863D01*
X135374161Y-54375863D02*
X135326542Y-54423482D01*
X135326542Y-54423482D02*
X135231304Y-54471101D01*
X135231304Y-54471101D02*
X135088447Y-54471101D01*
X135088447Y-54471101D02*
X134993209Y-54423482D01*
X134993209Y-54423482D02*
X134945590Y-54375863D01*
X134945590Y-54375863D02*
X134897971Y-54280625D01*
X134897971Y-54280625D02*
X134897971Y-53899673D01*
X135421780Y-54804435D02*
X134421780Y-55042530D01*
X134421780Y-55042530D02*
X135136066Y-55233006D01*
X135136066Y-55233006D02*
X134421780Y-55423482D01*
X134421780Y-55423482D02*
X135421780Y-55661578D01*
X134421780Y-56042530D02*
X135421780Y-56042530D01*
X135421780Y-56042530D02*
X134707495Y-56375863D01*
X134707495Y-56375863D02*
X135421780Y-56709196D01*
X135421780Y-56709196D02*
X134421780Y-56709196D01*
X70432400Y-74442345D02*
X70480019Y-74299488D01*
X70480019Y-74299488D02*
X70480019Y-74061393D01*
X70480019Y-74061393D02*
X70432400Y-73966155D01*
X70432400Y-73966155D02*
X70384780Y-73918536D01*
X70384780Y-73918536D02*
X70289542Y-73870917D01*
X70289542Y-73870917D02*
X70194304Y-73870917D01*
X70194304Y-73870917D02*
X70099066Y-73918536D01*
X70099066Y-73918536D02*
X70051447Y-73966155D01*
X70051447Y-73966155D02*
X70003828Y-74061393D01*
X70003828Y-74061393D02*
X69956209Y-74251869D01*
X69956209Y-74251869D02*
X69908590Y-74347107D01*
X69908590Y-74347107D02*
X69860971Y-74394726D01*
X69860971Y-74394726D02*
X69765733Y-74442345D01*
X69765733Y-74442345D02*
X69670495Y-74442345D01*
X69670495Y-74442345D02*
X69575257Y-74394726D01*
X69575257Y-74394726D02*
X69527638Y-74347107D01*
X69527638Y-74347107D02*
X69480019Y-74251869D01*
X69480019Y-74251869D02*
X69480019Y-74013774D01*
X69480019Y-74013774D02*
X69527638Y-73870917D01*
X70384780Y-72870917D02*
X70432400Y-72918536D01*
X70432400Y-72918536D02*
X70480019Y-73061393D01*
X70480019Y-73061393D02*
X70480019Y-73156631D01*
X70480019Y-73156631D02*
X70432400Y-73299488D01*
X70432400Y-73299488D02*
X70337161Y-73394726D01*
X70337161Y-73394726D02*
X70241923Y-73442345D01*
X70241923Y-73442345D02*
X70051447Y-73489964D01*
X70051447Y-73489964D02*
X69908590Y-73489964D01*
X69908590Y-73489964D02*
X69718114Y-73442345D01*
X69718114Y-73442345D02*
X69622876Y-73394726D01*
X69622876Y-73394726D02*
X69527638Y-73299488D01*
X69527638Y-73299488D02*
X69480019Y-73156631D01*
X69480019Y-73156631D02*
X69480019Y-73061393D01*
X69480019Y-73061393D02*
X69527638Y-72918536D01*
X69527638Y-72918536D02*
X69575257Y-72870917D01*
X70480019Y-72442345D02*
X69480019Y-72442345D01*
X70480019Y-71870917D02*
X69908590Y-72299488D01*
X69480019Y-71870917D02*
X70051447Y-72442345D01*
X74572600Y-74442345D02*
X74620219Y-74299488D01*
X74620219Y-74299488D02*
X74620219Y-74061393D01*
X74620219Y-74061393D02*
X74572600Y-73966155D01*
X74572600Y-73966155D02*
X74524980Y-73918536D01*
X74524980Y-73918536D02*
X74429742Y-73870917D01*
X74429742Y-73870917D02*
X74334504Y-73870917D01*
X74334504Y-73870917D02*
X74239266Y-73918536D01*
X74239266Y-73918536D02*
X74191647Y-73966155D01*
X74191647Y-73966155D02*
X74144028Y-74061393D01*
X74144028Y-74061393D02*
X74096409Y-74251869D01*
X74096409Y-74251869D02*
X74048790Y-74347107D01*
X74048790Y-74347107D02*
X74001171Y-74394726D01*
X74001171Y-74394726D02*
X73905933Y-74442345D01*
X73905933Y-74442345D02*
X73810695Y-74442345D01*
X73810695Y-74442345D02*
X73715457Y-74394726D01*
X73715457Y-74394726D02*
X73667838Y-74347107D01*
X73667838Y-74347107D02*
X73620219Y-74251869D01*
X73620219Y-74251869D02*
X73620219Y-74013774D01*
X73620219Y-74013774D02*
X73667838Y-73870917D01*
X74620219Y-73442345D02*
X73620219Y-73442345D01*
X74096409Y-73442345D02*
X74096409Y-72870917D01*
X74620219Y-72870917D02*
X73620219Y-72870917D01*
X73620219Y-72394726D02*
X74429742Y-72394726D01*
X74429742Y-72394726D02*
X74524980Y-72347107D01*
X74524980Y-72347107D02*
X74572600Y-72299488D01*
X74572600Y-72299488D02*
X74620219Y-72204250D01*
X74620219Y-72204250D02*
X74620219Y-72013774D01*
X74620219Y-72013774D02*
X74572600Y-71918536D01*
X74572600Y-71918536D02*
X74524980Y-71870917D01*
X74524980Y-71870917D02*
X74429742Y-71823298D01*
X74429742Y-71823298D02*
X73620219Y-71823298D01*
X73620219Y-71489964D02*
X73620219Y-70918536D01*
X74620219Y-71204250D02*
X73620219Y-71204250D01*
D13*
X53972000Y-72025000D02*
X56772000Y-72025000D01*
X53972000Y-74025000D02*
X53972000Y-72025000D01*
X56772000Y-72025000D02*
X56772000Y-74025000D01*
X56772000Y-74025000D02*
X53972000Y-74025000D01*
X100519000Y-51763200D02*
X101919000Y-51763200D01*
X100519000Y-53163200D02*
X100519000Y-51763200D01*
X101919000Y-51763200D02*
X101919000Y-53163200D01*
X101919000Y-53163200D02*
X100519000Y-53163200D01*
X87008580Y-84215200D02*
X86727420Y-84215200D01*
X87008580Y-83195200D02*
X86727420Y-83195200D01*
D11*
X96340000Y-81020999D02*
X96340000Y-79820999D01*
X96390000Y-79470999D02*
X96390000Y-78870999D01*
X99290000Y-79470999D02*
X96390000Y-79470999D01*
X96390000Y-78870999D02*
X99290000Y-78870999D01*
X99290000Y-78870999D02*
X99290000Y-79470999D01*
D13*
X75576200Y-75156600D02*
X76976200Y-75156600D01*
X75576200Y-76556600D02*
X75576200Y-75156600D01*
X76976200Y-75156600D02*
X76976200Y-76556600D01*
X76976200Y-76556600D02*
X75576200Y-76556600D01*
X89991500Y-80132458D02*
X89991500Y-79657942D01*
X91036500Y-80132458D02*
X91036500Y-79657942D01*
X118048300Y-62221342D02*
X118048300Y-62695858D01*
X117003300Y-62221342D02*
X117003300Y-62695858D01*
D14*
X116809200Y-73635400D02*
X119309200Y-73635400D01*
X116809200Y-76255400D02*
X119309200Y-76255400D01*
D13*
X66178200Y-80643000D02*
X67578200Y-80643000D01*
X66178200Y-82043000D02*
X66178200Y-80643000D01*
X67578200Y-80643000D02*
X67578200Y-82043000D01*
X67578200Y-82043000D02*
X66178200Y-82043000D01*
X72426600Y-80643000D02*
X73826600Y-80643000D01*
X72426600Y-82043000D02*
X72426600Y-80643000D01*
X73826600Y-80643000D02*
X73826600Y-82043000D01*
X73826600Y-82043000D02*
X72426600Y-82043000D01*
X97394620Y-75739999D02*
X97675780Y-75739999D01*
X97394620Y-76759999D02*
X97675780Y-76759999D01*
X59930420Y-81462600D02*
X60211580Y-81462600D01*
X59930420Y-82482600D02*
X60211580Y-82482600D01*
X102551000Y-51763200D02*
X103951000Y-51763200D01*
X102551000Y-53163200D02*
X102551000Y-51763200D01*
X103951000Y-51763200D02*
X103951000Y-53163200D01*
X103951000Y-53163200D02*
X102551000Y-53163200D01*
X83273020Y-77747400D02*
X83554180Y-77747400D01*
X83273020Y-78767400D02*
X83554180Y-78767400D01*
X122744000Y-51763200D02*
X124144000Y-51763200D01*
X122744000Y-53163200D02*
X122744000Y-51763200D01*
X124144000Y-51763200D02*
X124144000Y-53163200D01*
X124144000Y-53163200D02*
X122744000Y-53163200D01*
X98350899Y-66018800D02*
X96550899Y-66018800D01*
X98350899Y-66018800D02*
X99150899Y-66018800D01*
X98350899Y-69138800D02*
X97550899Y-69138800D01*
X98350899Y-69138800D02*
X99150899Y-69138800D01*
X63000000Y-98687000D02*
X64000000Y-98687000D01*
X64000000Y-98687000D02*
X64000000Y-99687000D01*
X64000000Y-99687000D02*
X63000000Y-99687000D01*
X63000000Y-99687000D02*
X63000000Y-98687000D01*
X80965185Y-54471800D02*
X80684025Y-54471800D01*
X80965185Y-53451800D02*
X80684025Y-53451800D01*
X120063800Y-57595380D02*
X120063800Y-57314220D01*
X121083800Y-57595380D02*
X121083800Y-57314220D01*
X96745000Y-58795800D02*
X96745000Y-59795800D01*
X100105000Y-58795800D02*
X100105000Y-59795800D01*
X124144300Y-57217542D02*
X124144300Y-57692058D01*
X123099300Y-57217542D02*
X123099300Y-57692058D01*
X63000000Y-97163000D02*
X64000000Y-97163000D01*
X64000000Y-97163000D02*
X64000000Y-98163000D01*
X64000000Y-98163000D02*
X63000000Y-98163000D01*
X63000000Y-98163000D02*
X63000000Y-97163000D01*
X54976936Y-78951600D02*
X55431064Y-78951600D01*
X54976936Y-80421600D02*
X55431064Y-80421600D01*
X116501142Y-59650100D02*
X116975658Y-59650100D01*
X116501142Y-60695100D02*
X116975658Y-60695100D01*
X83273020Y-82573400D02*
X83554180Y-82573400D01*
X83273020Y-83593400D02*
X83554180Y-83593400D01*
D15*
X77343000Y-92099000D02*
X77343000Y-92749000D01*
X75344000Y-92099000D02*
X77343000Y-92099000D01*
X73944000Y-100249000D02*
X73944000Y-100249000D01*
X73844000Y-100249000D02*
X73844000Y-100249000D01*
X77343000Y-100549000D02*
X77343000Y-101199000D01*
X77343000Y-101199000D02*
X75344000Y-101199000D01*
X73844000Y-100249000D02*
G75*
G03*
X73944000Y-100249000I50000J0D01*
G01*
X73944000Y-100249000D02*
G75*
G03*
X73844000Y-100249000I-50000J0D01*
G01*
D13*
X138492000Y-51763200D02*
X139892000Y-51763200D01*
X138492000Y-53163200D02*
X138492000Y-51763200D01*
X139892000Y-51763200D02*
X139892000Y-53163200D01*
X139892000Y-53163200D02*
X138492000Y-53163200D01*
D11*
X85636000Y-79472200D02*
X86836000Y-79472200D01*
X87186000Y-79522200D02*
X87786000Y-79522200D01*
X87186000Y-82422200D02*
X87186000Y-79522200D01*
X87786000Y-79522200D02*
X87786000Y-82422200D01*
X87786000Y-82422200D02*
X87186000Y-82422200D01*
D13*
X69327800Y-75156600D02*
X70727800Y-75156600D01*
X69327800Y-76556600D02*
X69327800Y-75156600D01*
X70727800Y-75156600D02*
X70727800Y-76556600D01*
X70727800Y-76556600D02*
X69327800Y-76556600D01*
X77659000Y-75156600D02*
X79059000Y-75156600D01*
X77659000Y-76556600D02*
X77659000Y-75156600D01*
X79059000Y-75156600D02*
X79059000Y-76556600D01*
X79059000Y-76556600D02*
X77659000Y-76556600D01*
X70343800Y-82725800D02*
X71743800Y-82725800D01*
X70343800Y-84125800D02*
X70343800Y-82725800D01*
X71743800Y-82725800D02*
X71743800Y-84125800D01*
X71743800Y-84125800D02*
X70343800Y-84125800D01*
X63098542Y-74338100D02*
X63573058Y-74338100D01*
X63098542Y-75383100D02*
X63573058Y-75383100D01*
X70260582Y-63469761D02*
X70649491Y-63080852D01*
X76461909Y-58046252D02*
X76073000Y-57657343D01*
X70649491Y-63858670D02*
X70260582Y-63469761D01*
X81496509Y-63080852D02*
X81885418Y-63469761D01*
X75684091Y-68893270D02*
X76073000Y-69282179D01*
X81885418Y-63469761D02*
X81496509Y-63858670D01*
X76073000Y-69282179D02*
X76461909Y-68893270D01*
D10*
X120622400Y-66716600D02*
X120612400Y-66716600D01*
X120612400Y-66716600D02*
X120612400Y-69376600D01*
X118452400Y-66716600D02*
X118452400Y-69376600D01*
X118442400Y-66716600D02*
X118452400Y-66716600D01*
X120612400Y-69376600D02*
X120622400Y-69376600D01*
X118452400Y-69376600D02*
X118442400Y-69376600D01*
D13*
X90407258Y-78106300D02*
X89932742Y-78106300D01*
X90407258Y-77061300D02*
X89932742Y-77061300D01*
D10*
X127129200Y-60283400D02*
X127139200Y-60283400D01*
X127139200Y-60283400D02*
X127139200Y-57623400D01*
X129299200Y-60283400D02*
X129299200Y-57623400D01*
X129309200Y-60283400D02*
X129299200Y-60283400D01*
X127139200Y-57623400D02*
X127129200Y-57623400D01*
X129299200Y-57623400D02*
X129309200Y-57623400D01*
D13*
X86727420Y-77734200D02*
X87008580Y-77734200D01*
X86727420Y-78754200D02*
X87008580Y-78754200D01*
X62059601Y-82921600D02*
X64859601Y-82921600D01*
X62059601Y-84921600D02*
X62059601Y-82921600D01*
X64859601Y-82921600D02*
X64859601Y-84921600D01*
X64859601Y-84921600D02*
X62059601Y-84921600D01*
X125655800Y-57314220D02*
X125655800Y-57595380D01*
X124635800Y-57314220D02*
X124635800Y-57595380D01*
X118629200Y-51776400D02*
X120029200Y-51776400D01*
X118629200Y-53176400D02*
X118629200Y-51776400D01*
X120029200Y-51776400D02*
X120029200Y-53176400D01*
X120029200Y-53176400D02*
X118629200Y-53176400D01*
X116486400Y-62318020D02*
X116486400Y-62599180D01*
X115466400Y-62318020D02*
X115466400Y-62599180D01*
X63965200Y-91676600D02*
X64965200Y-91676600D01*
X64965200Y-91676600D02*
X64965200Y-92676600D01*
X64965200Y-92676600D02*
X63965200Y-92676600D01*
X63965200Y-92676600D02*
X63965200Y-91676600D01*
X104583000Y-51763200D02*
X105983000Y-51763200D01*
X104583000Y-53163200D02*
X104583000Y-51763200D01*
X105983000Y-51763200D02*
X105983000Y-53163200D01*
X105983000Y-53163200D02*
X104583000Y-53163200D01*
X123790942Y-66965300D02*
X124265458Y-66965300D01*
X123790942Y-68010300D02*
X124265458Y-68010300D01*
X67800600Y-89060400D02*
X68800600Y-89060400D01*
X68800600Y-89060400D02*
X68800600Y-90060400D01*
X68800600Y-90060400D02*
X67800600Y-90060400D01*
X67800600Y-90060400D02*
X67800600Y-89060400D01*
X78995000Y-58908200D02*
X82295000Y-58908200D01*
X82295000Y-58908200D02*
X82295000Y-54908200D01*
D15*
X136963000Y-83912200D02*
X136313000Y-83912200D01*
X136963000Y-81913200D02*
X136963000Y-83912200D01*
X128813000Y-80513200D02*
X128813000Y-80513200D01*
X128813000Y-80413200D02*
X128813000Y-80413200D01*
X128513000Y-83912200D02*
X127863000Y-83912200D01*
X127863000Y-83912200D02*
X127863000Y-81913200D01*
X128813000Y-80413200D02*
G75*
G03*
X128813000Y-80513200I0J-50000D01*
G01*
X128813000Y-80513200D02*
G75*
G03*
X128813000Y-80413200I0J50000D01*
G01*
D13*
X76662400Y-83371400D02*
X78582400Y-83371400D01*
X78582400Y-83371400D02*
X78582400Y-80686400D01*
X76662400Y-80686400D02*
X76662400Y-83371400D01*
X60116758Y-75484700D02*
X59642242Y-75484700D01*
X60116758Y-74439700D02*
X59642242Y-74439700D01*
X73493400Y-75156600D02*
X74893400Y-75156600D01*
X73493400Y-76556600D02*
X73493400Y-75156600D01*
X74893400Y-75156600D02*
X74893400Y-76556600D01*
X74893400Y-76556600D02*
X73493400Y-76556600D01*
X66178200Y-82725800D02*
X67578200Y-82725800D01*
X66178200Y-84125800D02*
X66178200Y-82725800D01*
X67578200Y-82725800D02*
X67578200Y-84125800D01*
X67578200Y-84125800D02*
X66178200Y-84125800D01*
X63965200Y-93175200D02*
X64965200Y-93175200D01*
X64965200Y-93175200D02*
X64965200Y-94175200D01*
X64965200Y-94175200D02*
X63965200Y-94175200D01*
X63965200Y-94175200D02*
X63965200Y-93175200D01*
X65839800Y-66893000D02*
X64839800Y-66893000D01*
X65839800Y-70253000D02*
X64839800Y-70253000D01*
D15*
X126836800Y-59486600D02*
X126836800Y-59486600D01*
X126836800Y-59586600D02*
X126836800Y-59586600D01*
D11*
X126786800Y-60661600D02*
X126786800Y-61461600D01*
X125536800Y-60661600D02*
X125536800Y-61461600D01*
D15*
X126836800Y-59586600D02*
G75*
G03*
X126836800Y-59486600I0J50000D01*
G01*
X126836800Y-59486600D02*
G75*
G03*
X126836800Y-59586600I0J-50000D01*
G01*
D13*
X53245800Y-66819300D02*
X53245800Y-66219300D01*
X53795800Y-68019300D02*
X54395800Y-68019300D01*
X53895800Y-65519300D02*
X56695800Y-65519300D01*
X54095800Y-67719300D02*
X53795800Y-68019300D01*
X54095800Y-67719300D02*
X54395800Y-68019300D01*
X56695800Y-67519300D02*
X53895800Y-67519300D01*
X57345800Y-66219300D02*
X57345800Y-66819300D01*
X53945800Y-65519300D02*
G75*
G03*
X53245800Y-66219300I-1J-699999D01*
G01*
X53245800Y-66819300D02*
G75*
G03*
X53945800Y-67519300I699999J-1D01*
G01*
X57345800Y-66219300D02*
G75*
G03*
X56645800Y-65519300I-700000J0D01*
G01*
X56645800Y-67519300D02*
G75*
G03*
X57345800Y-66819300I0J700000D01*
G01*
X59930420Y-82986600D02*
X60211580Y-82986600D01*
X59930420Y-84006600D02*
X60211580Y-84006600D01*
X140648458Y-65343300D02*
X140173942Y-65343300D01*
X140648458Y-64298300D02*
X140173942Y-64298300D01*
X97394620Y-74190599D02*
X97675780Y-74190599D01*
X97394620Y-75210599D02*
X97675780Y-75210599D01*
D11*
X105873000Y-64879200D02*
X105873000Y-67479200D01*
X105873000Y-67479200D02*
X106023000Y-67479200D01*
X106023000Y-64879200D02*
X105873000Y-64879200D01*
X110823000Y-64879200D02*
X110973000Y-64879200D01*
X110973000Y-64879200D02*
X110973000Y-67479200D01*
X110973000Y-67479200D02*
X110823000Y-67479200D01*
D13*
X79741800Y-75156600D02*
X81141800Y-75156600D01*
X79741800Y-76556600D02*
X79741800Y-75156600D01*
X81141800Y-75156600D02*
X81141800Y-76556600D01*
X81141800Y-76556600D02*
X79741800Y-76556600D01*
X57942800Y-80905600D02*
X60942800Y-80905600D01*
X59442800Y-77685600D02*
X60942800Y-77685600D01*
X53245800Y-69705000D02*
X53245800Y-69105000D01*
X53795800Y-70905000D02*
X54395800Y-70905000D01*
X53895800Y-68405000D02*
X56695800Y-68405000D01*
X54095800Y-70605000D02*
X53795800Y-70905000D01*
X54095800Y-70605000D02*
X54395800Y-70905000D01*
X56695800Y-70405000D02*
X53895800Y-70405000D01*
X57345800Y-69105000D02*
X57345800Y-69705000D01*
X53945800Y-68405000D02*
G75*
G03*
X53245800Y-69105000I-1J-699999D01*
G01*
X53245800Y-69705000D02*
G75*
G03*
X53945800Y-70405000I699999J-1D01*
G01*
X57345800Y-69105000D02*
G75*
G03*
X56645800Y-68405000I-700000J0D01*
G01*
X56645800Y-70405000D02*
G75*
G03*
X57345800Y-69705000I0J700000D01*
G01*
X58205900Y-82477342D02*
X58205900Y-82951858D01*
X57160900Y-82477342D02*
X57160900Y-82951858D01*
X68994400Y-99550600D02*
X69994400Y-99550600D01*
X69994400Y-99550600D02*
X69994400Y-100550600D01*
X69994400Y-100550600D02*
X68994400Y-100550600D01*
X68994400Y-100550600D02*
X68994400Y-99550600D01*
X132396000Y-51763200D02*
X133796000Y-51763200D01*
X132396000Y-53163200D02*
X132396000Y-51763200D01*
X133796000Y-51763200D02*
X133796000Y-53163200D01*
X133796000Y-53163200D02*
X132396000Y-53163200D01*
X83273020Y-76096400D02*
X83554180Y-76096400D01*
X83273020Y-77116400D02*
X83554180Y-77116400D01*
X68588000Y-94038800D02*
X69588000Y-94038800D01*
X69588000Y-94038800D02*
X69588000Y-95038800D01*
X69588000Y-95038800D02*
X68588000Y-95038800D01*
X68588000Y-95038800D02*
X68588000Y-94038800D01*
X71410600Y-75156600D02*
X72810600Y-75156600D01*
X71410600Y-76556600D02*
X71410600Y-75156600D01*
X72810600Y-75156600D02*
X72810600Y-76556600D01*
X72810600Y-76556600D02*
X71410600Y-76556600D01*
X70343800Y-80643000D02*
X71743800Y-80643000D01*
X70343800Y-82043000D02*
X70343800Y-80643000D01*
X71743800Y-80643000D02*
X71743800Y-82043000D01*
X71743800Y-82043000D02*
X70343800Y-82043000D01*
X124179000Y-77982948D02*
X124179000Y-78505452D01*
X122709000Y-77982948D02*
X122709000Y-78505452D01*
X109132600Y-60084736D02*
X109132600Y-60538864D01*
X107662600Y-60084736D02*
X107662600Y-60538864D01*
X83695000Y-56716820D02*
X83695000Y-56997980D01*
X82675000Y-56716820D02*
X82675000Y-56997980D01*
X67800600Y-90609800D02*
X68800600Y-90609800D01*
X68800600Y-90609800D02*
X68800600Y-91609800D01*
X68800600Y-91609800D02*
X67800600Y-91609800D01*
X67800600Y-91609800D02*
X67800600Y-90609800D01*
X130364000Y-51763200D02*
X131764000Y-51763200D01*
X130364000Y-53163200D02*
X130364000Y-51763200D01*
X131764000Y-51763200D02*
X131764000Y-53163200D01*
X131764000Y-53163200D02*
X130364000Y-53163200D01*
D15*
X54022000Y-63091200D02*
X54022000Y-62441200D01*
X56021000Y-63091200D02*
X54022000Y-63091200D01*
X57421000Y-54941200D02*
X57421000Y-54941200D01*
X57521000Y-54941200D02*
X57521000Y-54941200D01*
X54022000Y-54641200D02*
X54022000Y-53991200D01*
X54022000Y-53991200D02*
X56021000Y-53991200D01*
X57521000Y-54941200D02*
G75*
G03*
X57421000Y-54941200I-50000J0D01*
G01*
X57421000Y-54941200D02*
G75*
G03*
X57521000Y-54941200I50000J0D01*
G01*
D13*
X118428380Y-58726800D02*
X118147220Y-58726800D01*
X118428380Y-57706800D02*
X118147220Y-57706800D01*
X118641400Y-60643380D02*
X118641400Y-60362220D01*
X119661400Y-60643380D02*
X119661400Y-60362220D01*
X67245000Y-75156600D02*
X68645000Y-75156600D01*
X67245000Y-76556600D02*
X67245000Y-75156600D01*
X68645000Y-75156600D02*
X68645000Y-76556600D01*
X68645000Y-76556600D02*
X67245000Y-76556600D01*
D15*
X133801000Y-72999200D02*
X134301000Y-72999200D01*
X135601000Y-72999200D02*
X136005000Y-72999200D01*
X135936000Y-72999200D02*
X136101000Y-72999200D01*
X133801000Y-61899200D02*
X134301000Y-61899200D01*
X135601000Y-61899200D02*
X136005000Y-61899200D01*
X136005000Y-61899200D02*
X136101000Y-61899200D01*
X110214000Y-83658200D02*
X109564000Y-83658200D01*
X110214000Y-81659200D02*
X110214000Y-83658200D01*
X102064000Y-80259200D02*
X102064000Y-80259200D01*
X102064000Y-80159200D02*
X102064000Y-80159200D01*
X101764000Y-83658200D02*
X101114000Y-83658200D01*
X101114000Y-83658200D02*
X101114000Y-81659200D01*
X102064000Y-80159200D02*
G75*
G03*
X102064000Y-80259200I0J-50000D01*
G01*
X102064000Y-80259200D02*
G75*
G03*
X102064000Y-80159200I0J50000D01*
G01*
D13*
X99887000Y-53163200D02*
X98487000Y-53163200D01*
X99887000Y-51763200D02*
X99887000Y-53163200D01*
X98487000Y-53163200D02*
X98487000Y-51763200D01*
X98487000Y-51763200D02*
X99887000Y-51763200D01*
X106615000Y-51763200D02*
X108015000Y-51763200D01*
X106615000Y-53163200D02*
X106615000Y-51763200D01*
X108015000Y-51763200D02*
X108015000Y-53163200D01*
X108015000Y-53163200D02*
X106615000Y-53163200D01*
X59385220Y-76128600D02*
X59666380Y-76128600D01*
X59385220Y-77148600D02*
X59666380Y-77148600D01*
D15*
X116560400Y-64222000D02*
X116560400Y-64222000D01*
X116660400Y-64222000D02*
X116660400Y-64222000D01*
D11*
X117735400Y-64272000D02*
X118535400Y-64272000D01*
X117735400Y-65522000D02*
X118535400Y-65522000D01*
D15*
X116660400Y-64222000D02*
G75*
G03*
X116560400Y-64222000I-50000J0D01*
G01*
X116560400Y-64222000D02*
G75*
G03*
X116660400Y-64222000I50000J0D01*
G01*
D13*
X68261000Y-82725800D02*
X69661000Y-82725800D01*
X68261000Y-84125800D02*
X68261000Y-82725800D01*
X69661000Y-82725800D02*
X69661000Y-84125800D01*
X69661000Y-84125800D02*
X68261000Y-84125800D01*
X134428000Y-51763200D02*
X135828000Y-51763200D01*
X134428000Y-53163200D02*
X134428000Y-51763200D01*
X135828000Y-51763200D02*
X135828000Y-53163200D01*
X135828000Y-53163200D02*
X134428000Y-53163200D01*
X78418458Y-84723500D02*
X77943942Y-84723500D01*
X78418458Y-83678500D02*
X77943942Y-83678500D01*
X55266620Y-82986600D02*
X55547780Y-82986600D01*
X55266620Y-84006600D02*
X55547780Y-84006600D01*
X102208000Y-65016748D02*
X102208000Y-65539252D01*
X100738000Y-65016748D02*
X100738000Y-65539252D01*
X72426600Y-82725800D02*
X73826600Y-82725800D01*
X72426600Y-84125800D02*
X72426600Y-82725800D01*
X73826600Y-82725800D02*
X73826600Y-84125800D01*
X73826600Y-84125800D02*
X72426600Y-84125800D01*
X65365800Y-75763180D02*
X65365800Y-75482020D01*
X66385800Y-75763180D02*
X66385800Y-75482020D01*
X123022000Y-75919200D02*
X123022000Y-74219200D01*
X123022000Y-75919200D02*
X120362000Y-75919200D01*
X123022000Y-74219200D02*
X120362000Y-74219200D01*
D15*
X53971100Y-101229200D02*
X53971100Y-100579200D01*
X55970100Y-101229200D02*
X53971100Y-101229200D01*
X57370100Y-93079200D02*
X57370100Y-93079200D01*
X57470100Y-93079200D02*
X57470100Y-93079200D01*
X53971100Y-92779200D02*
X53971100Y-92129200D01*
X53971100Y-92129200D02*
X55970100Y-92129200D01*
X57470100Y-93079200D02*
G75*
G03*
X57370100Y-93079200I-50000J0D01*
G01*
X57370100Y-93079200D02*
G75*
G03*
X57470100Y-93079200I50000J0D01*
G01*
D13*
X68261000Y-80643000D02*
X69661000Y-80643000D01*
X68261000Y-82043000D02*
X68261000Y-80643000D01*
X69661000Y-80643000D02*
X69661000Y-82043000D01*
X69661000Y-82043000D02*
X68261000Y-82043000D01*
X119888000Y-76684200D02*
X118088000Y-76684200D01*
X119888000Y-76684200D02*
X120688000Y-76684200D01*
X119888000Y-79804200D02*
X119088000Y-79804200D01*
X119888000Y-79804200D02*
X120688000Y-79804200D01*
X97855000Y-53163200D02*
X96455000Y-53163200D01*
X97855000Y-51763200D02*
X97855000Y-53163200D01*
X96455000Y-53163200D02*
X96455000Y-51763200D01*
X96455000Y-51763200D02*
X97855000Y-51763200D01*
X55256820Y-74533800D02*
X55537980Y-74533800D01*
X55256820Y-75553800D02*
X55537980Y-75553800D01*
X89332000Y-75572000D02*
X89332000Y-72662000D01*
X91492000Y-75572000D02*
X89332000Y-75572000D01*
X86877000Y-72662000D02*
X86877000Y-55662000D01*
X88637000Y-72662000D02*
X91492000Y-72662000D01*
X88637000Y-72662000D02*
X88637000Y-55662000D01*
X89332000Y-72662000D02*
X86877000Y-72662000D01*
X91492000Y-72662000D02*
X91492000Y-75572000D01*
X88637000Y-55662000D02*
X91492000Y-55662000D01*
X89332000Y-55662000D02*
X86877000Y-55662000D01*
X91492000Y-55662000D02*
X91492000Y-52752000D01*
X89332000Y-52752000D02*
X89332000Y-55662000D01*
X91492000Y-52752000D02*
X89332000Y-52752000D01*
X135708600Y-56700800D02*
X135708600Y-57700800D01*
X139068600Y-56700800D02*
X139068600Y-57700800D01*
X121801658Y-72887100D02*
X121327142Y-72887100D01*
X121801658Y-71842100D02*
X121327142Y-71842100D01*
X116203000Y-78130780D02*
X116203000Y-77849620D01*
X117223000Y-78130780D02*
X117223000Y-77849620D01*
X100829342Y-73670900D02*
X101303858Y-73670900D01*
X100829342Y-74715900D02*
X101303858Y-74715900D01*
X89991500Y-83307458D02*
X89991500Y-82832942D01*
X91036500Y-83307458D02*
X91036500Y-82832942D01*
X119871200Y-73350000D02*
X119871200Y-71430000D01*
X119871200Y-71430000D02*
X117186200Y-71430000D01*
X117186200Y-73350000D02*
X119871200Y-73350000D01*
X108647000Y-51763200D02*
X110047000Y-51763200D01*
X108647000Y-53163200D02*
X108647000Y-51763200D01*
X110047000Y-51763200D02*
X110047000Y-53163200D01*
X110047000Y-53163200D02*
X108647000Y-53163200D01*
X83018400Y-51776400D02*
X84418400Y-51776400D01*
X83018400Y-53176400D02*
X83018400Y-51776400D01*
X84418400Y-51776400D02*
X84418400Y-53176400D01*
X84418400Y-53176400D02*
X83018400Y-53176400D01*
X102624600Y-76956800D02*
X102624600Y-75036800D01*
X102624600Y-75036800D02*
X99939600Y-75036800D01*
X99939600Y-76956800D02*
X102624600Y-76956800D01*
X97778180Y-82653600D02*
X97497020Y-82653600D01*
X97778180Y-81633600D02*
X97497020Y-81633600D01*
X124776000Y-51763200D02*
X126176000Y-51763200D01*
X124776000Y-53163200D02*
X124776000Y-51763200D01*
X126176000Y-51763200D02*
X126176000Y-53163200D01*
X126176000Y-53163200D02*
X124776000Y-53163200D01*
X120686600Y-51776400D02*
X122086600Y-51776400D01*
X120686600Y-53176400D02*
X120686600Y-51776400D01*
X122086600Y-51776400D02*
X122086600Y-53176400D01*
X122086600Y-53176400D02*
X120686600Y-53176400D01*
X121575300Y-57692058D02*
X121575300Y-57217542D01*
X122620300Y-57692058D02*
X122620300Y-57217542D01*
X136460000Y-51763200D02*
X137860000Y-51763200D01*
X136460000Y-53163200D02*
X136460000Y-51763200D01*
X137860000Y-51763200D02*
X137860000Y-53163200D01*
X137860000Y-53163200D02*
X136460000Y-53163200D01*
X68994400Y-101074600D02*
X69994400Y-101074600D01*
X69994400Y-101074600D02*
X69994400Y-102074600D01*
X69994400Y-102074600D02*
X68994400Y-102074600D01*
X68994400Y-102074600D02*
X68994400Y-101074600D01*
X111098000Y-60082836D02*
X111098000Y-60536964D01*
X109628000Y-60082836D02*
X109628000Y-60536964D01*
X137659200Y-62293337D02*
X137659200Y-60845863D01*
X140369200Y-62293337D02*
X140369200Y-60845863D01*
X124708600Y-64307400D02*
X124233600Y-64307400D01*
X120488600Y-63832400D02*
X120488600Y-64307400D01*
X124708600Y-63832400D02*
X124708600Y-64307400D01*
X120488600Y-60562400D02*
X120488600Y-60087400D01*
X124708600Y-60562400D02*
X124708600Y-60087400D01*
X120488600Y-60087400D02*
X120963600Y-60087400D01*
X124708600Y-60087400D02*
X124233600Y-60087400D01*
X55441258Y-82241100D02*
X54966742Y-82241100D01*
X55441258Y-81196100D02*
X54966742Y-81196100D01*
X68588000Y-95588200D02*
X69588000Y-95588200D01*
X69588000Y-95588200D02*
X69588000Y-96588200D01*
X69588000Y-96588200D02*
X68588000Y-96588200D01*
X68588000Y-96588200D02*
X68588000Y-95588200D01*
X83676258Y-75452500D02*
X83201742Y-75452500D01*
X83676258Y-74407500D02*
X83201742Y-74407500D01*
X63573058Y-77161100D02*
X63098542Y-77161100D01*
X63573058Y-76116100D02*
X63098542Y-76116100D01*
X63665980Y-78932000D02*
X63384820Y-78932000D01*
X63665980Y-77912000D02*
X63384820Y-77912000D01*
X81572800Y-79587600D02*
X78772800Y-79587600D01*
X81572800Y-77587600D02*
X81572800Y-79587600D01*
X78772800Y-79587600D02*
X78772800Y-77587600D01*
X78772800Y-77587600D02*
X81572800Y-77587600D01*
X97905180Y-70791801D02*
X97624020Y-70791801D01*
X97905180Y-69771801D02*
X97624020Y-69771801D01*
X121054400Y-67628380D02*
X121054400Y-67347220D01*
X122074400Y-67628380D02*
X122074400Y-67347220D01*
X123760620Y-65250600D02*
X124041780Y-65250600D01*
X123760620Y-66270600D02*
X124041780Y-66270600D01*
X131924000Y-58480000D02*
X131924000Y-59480000D01*
X135284000Y-58480000D02*
X135284000Y-59480000D01*
%LPC*%
D16*
X54722000Y-73025000D03*
X56022000Y-73025000D03*
D17*
X101219000Y-52463200D03*
D18*
X87643000Y-83705200D03*
X86093000Y-83705200D03*
D19*
X96890000Y-80420999D03*
X97840000Y-80420999D03*
X98790000Y-80420999D03*
X98790000Y-77920999D03*
X96890000Y-77920999D03*
D17*
X76276200Y-75856600D03*
D20*
X90514000Y-80720200D03*
X90514000Y-79070200D03*
D21*
X117525800Y-61633600D03*
X117525800Y-63283600D03*
D22*
X117109200Y-74955400D03*
X119009200Y-74955400D03*
D17*
X66878200Y-81343000D03*
X73126600Y-81343000D03*
D23*
X96760200Y-76249999D03*
X98310200Y-76249999D03*
X59296000Y-81972600D03*
X60846000Y-81972600D03*
D17*
X103251000Y-52463200D03*
D23*
X82638600Y-78257400D03*
X84188600Y-78257400D03*
D17*
X123444000Y-52463200D03*
D24*
X97213399Y-66628800D03*
X97213399Y-67578800D03*
X97213399Y-68528800D03*
X99488399Y-68528800D03*
X99488399Y-67578800D03*
X99488399Y-66628800D03*
D25*
X63500000Y-99187000D03*
D18*
X81599605Y-53961800D03*
X80049605Y-53961800D03*
D26*
X120573800Y-58229800D03*
X120573800Y-56679800D03*
D27*
X97225000Y-60195800D03*
D28*
X98025000Y-60195800D03*
X98825000Y-60195800D03*
D27*
X99625000Y-60195800D03*
X99625000Y-58395800D03*
D28*
X98825000Y-58395800D03*
X98025000Y-58395800D03*
D27*
X97225000Y-58395800D03*
D21*
X123621800Y-56629800D03*
X123621800Y-58279800D03*
D25*
X63500000Y-97663000D03*
D29*
X54291500Y-79686600D03*
X56116500Y-79686600D03*
D30*
X115913400Y-60172600D03*
X117563400Y-60172600D03*
D23*
X82638600Y-83083400D03*
X84188600Y-83083400D03*
D31*
X74469000Y-100249000D03*
D32*
X77343000Y-99949000D03*
D31*
X74469000Y-99649000D03*
D32*
X77343000Y-99349000D03*
D31*
X74469000Y-99049000D03*
D32*
X77343000Y-98749000D03*
D31*
X74469000Y-98449000D03*
D32*
X77343000Y-98149000D03*
D31*
X74469000Y-97849000D03*
D32*
X77343000Y-97549000D03*
D31*
X74469000Y-97249000D03*
D32*
X77343000Y-96949000D03*
D31*
X74469000Y-96649000D03*
D32*
X77343000Y-96349000D03*
D31*
X74469000Y-96049000D03*
D32*
X77343000Y-95749000D03*
D31*
X74469000Y-95449000D03*
D32*
X77343000Y-95149000D03*
D31*
X74469000Y-94849000D03*
D32*
X77343000Y-94549000D03*
D31*
X74469000Y-94249000D03*
D32*
X77343000Y-93949000D03*
D31*
X74469000Y-93649000D03*
D32*
X77343000Y-93349000D03*
D31*
X74469000Y-93049000D03*
D33*
X74743000Y-100949000D03*
X74743000Y-92349000D03*
D17*
X139192000Y-52463200D03*
D34*
X86236000Y-80022200D03*
X86236000Y-80972200D03*
X86236000Y-81922200D03*
X88736000Y-81922200D03*
X88736000Y-80022200D03*
D17*
X70027800Y-75856600D03*
X78359000Y-75856600D03*
X71043800Y-83425800D03*
D30*
X62510800Y-74860600D03*
X64160800Y-74860600D03*
D35*
X75551509Y-58422786D03*
X75268666Y-58705629D03*
X74985823Y-58988472D03*
X74702981Y-59271314D03*
X74420138Y-59554157D03*
X74137295Y-59837000D03*
X73854452Y-60119843D03*
X73571610Y-60402685D03*
X73288767Y-60685528D03*
X73005924Y-60968371D03*
X72723082Y-61251213D03*
X72440239Y-61534056D03*
X72157396Y-61816899D03*
X71874553Y-62099742D03*
X71591711Y-62382584D03*
X71308868Y-62665427D03*
X71026025Y-62948270D03*
D36*
X71026025Y-63991252D03*
X71308868Y-64274095D03*
X71591711Y-64556938D03*
X71874553Y-64839780D03*
X72157396Y-65122623D03*
X72440239Y-65405466D03*
X72723082Y-65688309D03*
X73005924Y-65971151D03*
X73288767Y-66253994D03*
X73571610Y-66536837D03*
X73854452Y-66819679D03*
X74137295Y-67102522D03*
X74420138Y-67385365D03*
X74702981Y-67668208D03*
X74985823Y-67951050D03*
X75268666Y-68233893D03*
X75551509Y-68516736D03*
D35*
X76594491Y-68516736D03*
X76877334Y-68233893D03*
X77160177Y-67951050D03*
X77443019Y-67668208D03*
X77725862Y-67385365D03*
X78008705Y-67102522D03*
X78291548Y-66819679D03*
X78574390Y-66536837D03*
X78857233Y-66253994D03*
X79140076Y-65971151D03*
X79422918Y-65688309D03*
X79705761Y-65405466D03*
X79988604Y-65122623D03*
X80271447Y-64839780D03*
X80554289Y-64556938D03*
X80837132Y-64274095D03*
X81119975Y-63991252D03*
D36*
X81119975Y-62948270D03*
X80837132Y-62665427D03*
X80554289Y-62382584D03*
X80271447Y-62099742D03*
X79988604Y-61816899D03*
X79705761Y-61534056D03*
X79422918Y-61251213D03*
X79140076Y-60968371D03*
X78857233Y-60685528D03*
X78574390Y-60402685D03*
X78291548Y-60119843D03*
X78008705Y-59837000D03*
X77725862Y-59554157D03*
X77443019Y-59271314D03*
X77160177Y-58988472D03*
X76877334Y-58705629D03*
X76594491Y-58422786D03*
D37*
X76073000Y-63469761D03*
D38*
X119532400Y-69276600D03*
X119532400Y-66816600D03*
D39*
X90995000Y-77583800D03*
X89345000Y-77583800D03*
D38*
X128219200Y-57723400D03*
X128219200Y-60183400D03*
D23*
X86093000Y-78244200D03*
X87643000Y-78244200D03*
D16*
X62809601Y-83921600D03*
X64109601Y-83921600D03*
D40*
X125145800Y-56679800D03*
X125145800Y-58229800D03*
D17*
X119329200Y-52476400D03*
D40*
X115976400Y-61683600D03*
X115976400Y-63233600D03*
D25*
X64465200Y-92176600D03*
D17*
X105283000Y-52463200D03*
D30*
X123203200Y-67487800D03*
X124853200Y-67487800D03*
D25*
X68300600Y-89560400D03*
D41*
X81495000Y-58008200D03*
X81495000Y-55808200D03*
X79795000Y-55808200D03*
X79795000Y-58008200D03*
D42*
X128813000Y-81038200D03*
D43*
X129113000Y-83912200D03*
D42*
X129413000Y-81038200D03*
D43*
X129713000Y-83912200D03*
D42*
X130013000Y-81038200D03*
D43*
X130313000Y-83912200D03*
D42*
X130613000Y-81038200D03*
D43*
X130913000Y-83912200D03*
D42*
X131213000Y-81038200D03*
D43*
X131513000Y-83912200D03*
D42*
X131813000Y-81038200D03*
D43*
X132113000Y-83912200D03*
D42*
X132413000Y-81038200D03*
D43*
X132713000Y-83912200D03*
D42*
X133013000Y-81038200D03*
D43*
X133313000Y-83912200D03*
D42*
X133613000Y-81038200D03*
D43*
X133913000Y-83912200D03*
D42*
X134213000Y-81038200D03*
D43*
X134513000Y-83912200D03*
D42*
X134813000Y-81038200D03*
D43*
X135113000Y-83912200D03*
D42*
X135413000Y-81038200D03*
D43*
X135713000Y-83912200D03*
D42*
X136013000Y-81038200D03*
D44*
X128113000Y-81312200D03*
X136713000Y-81312200D03*
D45*
X77622400Y-82623900D03*
X77622400Y-80748900D03*
D39*
X60704500Y-74962200D03*
X59054500Y-74962200D03*
D46*
X84138600Y-80797400D03*
X82688600Y-80797400D03*
D17*
X74193400Y-75856600D03*
X66878200Y-83425800D03*
D25*
X64465200Y-93675200D03*
D47*
X64439800Y-67373000D03*
D48*
X64439800Y-68173000D03*
X64439800Y-68973000D03*
D47*
X64439800Y-69773000D03*
X66239800Y-69773000D03*
D48*
X66239800Y-68973000D03*
X66239800Y-68173000D03*
D47*
X66239800Y-67373000D03*
D49*
X126161800Y-59911600D03*
X126161800Y-62211600D03*
D50*
X53995800Y-66519300D03*
D16*
X55295800Y-66519300D03*
D51*
X56595800Y-66519300D03*
D23*
X59296000Y-83496600D03*
X60846000Y-83496600D03*
D39*
X141236200Y-64820800D03*
X139586200Y-64820800D03*
D23*
X96760200Y-74700599D03*
X98310200Y-74700599D03*
D52*
X107423000Y-67404200D03*
X107423000Y-64954200D03*
X107823000Y-67404200D03*
X107823000Y-64954200D03*
X108223000Y-67404200D03*
X108223000Y-64954200D03*
X108623000Y-67404200D03*
X108623000Y-64954200D03*
X109023000Y-67404200D03*
X109023000Y-64954200D03*
X109423000Y-67404200D03*
X109423000Y-64954200D03*
D53*
X106673000Y-67374200D03*
X106673000Y-64984200D03*
X110173000Y-67374200D03*
X110173000Y-64984200D03*
D17*
X80441800Y-75856600D03*
D54*
X57992800Y-78170600D03*
X57992800Y-78620600D03*
X57992800Y-79070600D03*
X57992800Y-79520600D03*
X57992800Y-79970600D03*
X57992800Y-80420600D03*
X60892800Y-80420600D03*
X60892800Y-79970600D03*
X60892800Y-79520600D03*
X60892800Y-79070600D03*
X60892800Y-78620600D03*
X60892800Y-78170600D03*
D55*
X59442800Y-79295600D03*
D50*
X53995800Y-69405000D03*
D16*
X55295800Y-69405000D03*
D51*
X56595800Y-69405000D03*
D21*
X57683400Y-81889600D03*
X57683400Y-83539600D03*
D25*
X69494400Y-100050600D03*
D56*
X99092400Y-63881000D03*
X96792400Y-63881000D03*
D17*
X133096000Y-52463200D03*
D23*
X82638600Y-76606400D03*
X84188600Y-76606400D03*
D25*
X69088000Y-94538800D03*
D17*
X72110600Y-75856600D03*
X71043800Y-81343000D03*
D57*
X123444000Y-77294200D03*
X123444000Y-79194200D03*
D58*
X108397600Y-59399300D03*
X108397600Y-61224300D03*
D40*
X83185000Y-56082400D03*
X83185000Y-57632400D03*
D25*
X68300600Y-91109800D03*
D17*
X131064000Y-52463200D03*
D31*
X56896000Y-54941200D03*
D32*
X54022000Y-55241200D03*
D31*
X56896000Y-55541200D03*
D32*
X54022000Y-55841200D03*
D31*
X56896000Y-56141200D03*
D32*
X54022000Y-56441200D03*
D31*
X56896000Y-56741200D03*
D32*
X54022000Y-57041200D03*
D31*
X56896000Y-57341200D03*
D32*
X54022000Y-57641200D03*
D31*
X56896000Y-57941200D03*
D32*
X54022000Y-58241200D03*
D31*
X56896000Y-58541200D03*
D32*
X54022000Y-58841200D03*
D31*
X56896000Y-59141200D03*
D32*
X54022000Y-59441200D03*
D31*
X56896000Y-59741200D03*
D32*
X54022000Y-60041200D03*
D31*
X56896000Y-60341200D03*
D32*
X54022000Y-60641200D03*
D31*
X56896000Y-60941200D03*
D32*
X54022000Y-61241200D03*
D31*
X56896000Y-61541200D03*
D32*
X54022000Y-61841200D03*
D31*
X56896000Y-62141200D03*
D33*
X56622000Y-54241200D03*
X56622000Y-62841200D03*
D18*
X119062800Y-58216800D03*
X117512800Y-58216800D03*
D26*
X119151400Y-61277800D03*
X119151400Y-59727800D03*
D17*
X67945000Y-75856600D03*
D46*
X62610800Y-80956600D03*
X64060800Y-80956600D03*
D59*
X136005000Y-71649200D03*
X133997000Y-71649200D03*
X136005000Y-71299200D03*
X133997000Y-71299200D03*
X136005000Y-70949200D03*
X133997000Y-70949200D03*
X136005000Y-70599200D03*
X133997000Y-70599200D03*
X136005000Y-70249200D03*
X133997000Y-70249200D03*
X136005000Y-69899200D03*
X133997000Y-69899200D03*
X136005000Y-69549200D03*
X133997000Y-69549200D03*
X136005000Y-69199200D03*
X133997000Y-69199200D03*
X136005000Y-68849200D03*
X133997000Y-68849200D03*
X136005000Y-68499200D03*
X133997000Y-68499200D03*
X136005000Y-68149200D03*
X133997000Y-68149200D03*
X136005000Y-67799200D03*
X133997000Y-67799200D03*
X136005000Y-67449200D03*
X133997000Y-67449200D03*
X136005000Y-67099200D03*
X133997000Y-67099200D03*
X136005000Y-66749200D03*
X133997000Y-66749200D03*
X136005000Y-66399200D03*
X133997000Y-66399200D03*
X136005000Y-66049200D03*
X133997000Y-66049200D03*
X136005000Y-65699200D03*
X133997000Y-65699200D03*
X136005000Y-65349200D03*
X133997000Y-65349200D03*
X136005000Y-64999200D03*
X133997000Y-64999200D03*
X136005000Y-64649200D03*
X133997000Y-64649200D03*
X136005000Y-64299200D03*
X133997000Y-64299200D03*
X136005000Y-63949200D03*
X133997000Y-63949200D03*
X136005000Y-63599200D03*
X133997000Y-63599200D03*
X136005000Y-63249200D03*
X133997000Y-63249200D03*
D60*
X135001000Y-72959200D03*
X135001000Y-61939200D03*
D61*
X134066000Y-72349200D03*
X134066000Y-62549200D03*
X135936000Y-62549200D03*
X135936000Y-72349200D03*
D42*
X102064000Y-80784200D03*
D43*
X102364000Y-83658200D03*
D42*
X102664000Y-80784200D03*
D43*
X102964000Y-83658200D03*
D42*
X103264000Y-80784200D03*
D43*
X103564000Y-83658200D03*
D42*
X103864000Y-80784200D03*
D43*
X104164000Y-83658200D03*
D42*
X104464000Y-80784200D03*
D43*
X104764000Y-83658200D03*
D42*
X105064000Y-80784200D03*
D43*
X105364000Y-83658200D03*
D42*
X105664000Y-80784200D03*
D43*
X105964000Y-83658200D03*
D42*
X106264000Y-80784200D03*
D43*
X106564000Y-83658200D03*
D42*
X106864000Y-80784200D03*
D43*
X107164000Y-83658200D03*
D42*
X107464000Y-80784200D03*
D43*
X107764000Y-83658200D03*
D42*
X108064000Y-80784200D03*
D43*
X108364000Y-83658200D03*
D42*
X108664000Y-80784200D03*
D43*
X108964000Y-83658200D03*
D42*
X109264000Y-80784200D03*
D44*
X101364000Y-81058200D03*
X109964000Y-81058200D03*
D17*
X99187000Y-52463200D03*
X107315000Y-52463200D03*
D23*
X58750800Y-76638600D03*
X60300800Y-76638600D03*
D62*
X116985400Y-64897000D03*
X119285400Y-64897000D03*
D17*
X68961000Y-83425800D03*
X135128000Y-52463200D03*
D39*
X79006200Y-84201000D03*
X77356200Y-84201000D03*
D23*
X54632200Y-83496600D03*
X56182200Y-83496600D03*
D57*
X101473000Y-64328000D03*
X101473000Y-66228000D03*
D17*
X73126600Y-83425800D03*
D26*
X65875800Y-76397600D03*
X65875800Y-74847600D03*
D63*
X122462000Y-75069200D03*
X120362000Y-75069200D03*
D31*
X56845100Y-93079200D03*
D32*
X53971100Y-93379200D03*
D31*
X56845100Y-93679200D03*
D32*
X53971100Y-93979200D03*
D31*
X56845100Y-94279200D03*
D32*
X53971100Y-94579200D03*
D31*
X56845100Y-94879200D03*
D32*
X53971100Y-95179200D03*
D31*
X56845100Y-95479200D03*
D32*
X53971100Y-95779200D03*
D31*
X56845100Y-96079200D03*
D32*
X53971100Y-96379200D03*
D31*
X56845100Y-96679200D03*
D32*
X53971100Y-96979200D03*
D31*
X56845100Y-97279200D03*
D32*
X53971100Y-97579200D03*
D31*
X56845100Y-97879200D03*
D32*
X53971100Y-98179200D03*
D31*
X56845100Y-98479200D03*
D32*
X53971100Y-98779200D03*
D31*
X56845100Y-99079200D03*
D32*
X53971100Y-99379200D03*
D31*
X56845100Y-99679200D03*
D32*
X53971100Y-99979200D03*
D31*
X56845100Y-100279200D03*
D33*
X56571100Y-92379200D03*
X56571100Y-100979200D03*
D17*
X68961000Y-81343000D03*
D24*
X118750500Y-77294200D03*
X118750500Y-78244200D03*
X118750500Y-79194200D03*
X121025500Y-79194200D03*
X121025500Y-78244200D03*
X121025500Y-77294200D03*
D17*
X97155000Y-52463200D03*
D23*
X54622400Y-75043800D03*
X56172400Y-75043800D03*
D64*
X90472000Y-74112000D03*
X90472000Y-54212000D03*
D65*
X87757000Y-72412000D03*
X87757000Y-71912000D03*
X87757000Y-71412000D03*
X87757000Y-70912000D03*
X87757000Y-70412000D03*
X87757000Y-69912000D03*
X87757000Y-69412000D03*
X87757000Y-68912000D03*
X87757000Y-68412000D03*
X87757000Y-67912000D03*
X87757000Y-67412000D03*
X87757000Y-66912000D03*
X87757000Y-66412000D03*
X87757000Y-65912000D03*
X87757000Y-65412000D03*
X87757000Y-64912000D03*
X87757000Y-64412000D03*
X87757000Y-63912000D03*
X87757000Y-63412000D03*
X87757000Y-62912000D03*
X87757000Y-62412000D03*
X87757000Y-61912000D03*
X87757000Y-61412000D03*
X87757000Y-60912000D03*
X87757000Y-60412000D03*
X87757000Y-59912000D03*
X87757000Y-59412000D03*
X87757000Y-58912000D03*
X87757000Y-58412000D03*
X87757000Y-57912000D03*
X87757000Y-57412000D03*
X87757000Y-56912000D03*
X87757000Y-56412000D03*
X87757000Y-55912000D03*
D27*
X136188600Y-58100800D03*
D28*
X136988600Y-58100800D03*
X137788600Y-58100800D03*
D27*
X138588600Y-58100800D03*
X138588600Y-56300800D03*
D28*
X137788600Y-56300800D03*
X136988600Y-56300800D03*
D27*
X136188600Y-56300800D03*
D39*
X122389400Y-72364600D03*
X120739400Y-72364600D03*
D26*
X116713000Y-78765200D03*
X116713000Y-77215200D03*
D30*
X100241600Y-74193400D03*
X101891600Y-74193400D03*
D20*
X90514000Y-83895200D03*
X90514000Y-82245200D03*
D66*
X119123700Y-72390000D03*
X117248700Y-72390000D03*
D17*
X109347000Y-52463200D03*
X83718400Y-52476400D03*
D66*
X101877100Y-75996800D03*
X100002100Y-75996800D03*
D18*
X98412600Y-82143600D03*
X96862600Y-82143600D03*
D17*
X125476000Y-52463200D03*
X121386600Y-52476400D03*
D20*
X122097800Y-58279800D03*
X122097800Y-56629800D03*
D17*
X137160000Y-52463200D03*
D25*
X69494400Y-101574600D03*
D58*
X110363000Y-59397400D03*
X110363000Y-61222400D03*
D67*
X139014200Y-63032100D03*
X139014200Y-60107100D03*
D68*
X121348600Y-64184900D03*
X121848600Y-64184900D03*
X122348600Y-64184900D03*
X122848600Y-64184900D03*
X123348600Y-64184900D03*
X123848600Y-64184900D03*
D69*
X124586100Y-63447400D03*
X124586100Y-62947400D03*
X124586100Y-62447400D03*
X124586100Y-61947400D03*
X124586100Y-61447400D03*
X124586100Y-60947400D03*
D68*
X123848600Y-60209900D03*
X123348600Y-60209900D03*
X122848600Y-60209900D03*
X122348600Y-60209900D03*
X121848600Y-60209900D03*
X121348600Y-60209900D03*
D69*
X120611100Y-60947400D03*
X120611100Y-61447400D03*
X120611100Y-61947400D03*
X120611100Y-62447400D03*
X120611100Y-62947400D03*
X120611100Y-63447400D03*
D70*
X122598600Y-62197400D03*
D71*
X56275600Y-77279000D03*
X54925600Y-77279000D03*
D39*
X56029000Y-81718600D03*
X54379000Y-81718600D03*
D25*
X69088000Y-96088200D03*
D39*
X84264000Y-74930000D03*
X82614000Y-74930000D03*
X64160800Y-76638600D03*
X62510800Y-76638600D03*
D18*
X64300400Y-78422000D03*
X62750400Y-78422000D03*
D16*
X80822800Y-78587600D03*
X79522800Y-78587600D03*
D18*
X98539600Y-70281801D03*
X96989600Y-70281801D03*
D26*
X121564400Y-68262800D03*
X121564400Y-66712800D03*
D23*
X123126200Y-65760600D03*
X124676200Y-65760600D03*
D27*
X132404000Y-59880000D03*
D28*
X133204000Y-59880000D03*
X134004000Y-59880000D03*
D27*
X134804000Y-59880000D03*
X134804000Y-58080000D03*
D28*
X134004000Y-58080000D03*
X133204000Y-58080000D03*
D27*
X132404000Y-58080000D03*
%LPD*%
M02*
