G04 #@! TF.GenerationSoftware,KiCad,Pcbnew,7.0.1*
G04 #@! TF.CreationDate,2023-07-06T21:39:26+03:00*
G04 #@! TF.ProjectId,ssd2828_board,73736432-3832-4385-9f62-6f6172642e6b,rev?*
G04 #@! TF.SameCoordinates,Original*
G04 #@! TF.FileFunction,Legend,Bot*
G04 #@! TF.FilePolarity,Positive*
%FSLAX46Y46*%
G04 Gerber Fmt 4.6, Leading zero omitted, Abs format (unit mm)*
G04 Created by KiCad (PCBNEW 7.0.1) date 2023-07-06 21:39:26*
%MOMM*%
%LPD*%
G01*
G04 APERTURE LIST*
G04 Aperture macros list*
%AMRoundRect*
0 Rectangle with rounded corners*
0 $1 Rounding radius*
0 $2 $3 $4 $5 $6 $7 $8 $9 X,Y pos of 4 corners*
0 Add a 4 corners polygon primitive as box body*
4,1,4,$2,$3,$4,$5,$6,$7,$8,$9,$2,$3,0*
0 Add four circle primitives for the rounded corners*
1,1,$1+$1,$2,$3*
1,1,$1+$1,$4,$5*
1,1,$1+$1,$6,$7*
1,1,$1+$1,$8,$9*
0 Add four rect primitives between the rounded corners*
20,1,$1+$1,$2,$3,$4,$5,0*
20,1,$1+$1,$4,$5,$6,$7,0*
20,1,$1+$1,$6,$7,$8,$9,0*
20,1,$1+$1,$8,$9,$2,$3,0*%
G04 Aperture macros list end*
%ADD10C,0.150000*%
%ADD11C,0.120000*%
%ADD12RoundRect,0.225000X-0.017678X0.335876X-0.335876X0.017678X0.017678X-0.335876X0.335876X-0.017678X0*%
%ADD13RoundRect,0.225000X-0.250000X0.225000X-0.250000X-0.225000X0.250000X-0.225000X0.250000X0.225000X0*%
%ADD14RoundRect,0.225000X0.017678X-0.335876X0.335876X-0.017678X-0.017678X0.335876X-0.335876X0.017678X0*%
%ADD15RoundRect,0.225000X-0.225000X-0.250000X0.225000X-0.250000X0.225000X0.250000X-0.225000X0.250000X0*%
G04 APERTURE END LIST*
D10*
X91567000Y-67005200D02*
X91567000Y-102108000D01*
X110998000Y-102108000D02*
X110998000Y-67005200D01*
D11*
X71630830Y-86926019D02*
X71432019Y-87124830D01*
X70909581Y-86204770D02*
X70710770Y-86403581D01*
X118747000Y-73519420D02*
X118747000Y-73800580D01*
X117727000Y-73519420D02*
X117727000Y-73800580D01*
X120398000Y-73519420D02*
X120398000Y-73800580D01*
X119378000Y-73519420D02*
X119378000Y-73800580D01*
X73098370Y-69842781D02*
X73297181Y-69643970D01*
X73819619Y-70564030D02*
X74018430Y-70365219D01*
X76451170Y-73195581D02*
X76649981Y-72996770D01*
X77172419Y-73916830D02*
X77371230Y-73718019D01*
X75384370Y-72128781D02*
X75583181Y-71929970D01*
X76105619Y-72850030D02*
X76304430Y-72651219D01*
X114934420Y-78230000D02*
X115215580Y-78230000D01*
X114934420Y-79250000D02*
X115215580Y-79250000D01*
X79346770Y-76091181D02*
X79545581Y-75892370D01*
X80068019Y-76812430D02*
X80266830Y-76613619D01*
X114934420Y-76626000D02*
X115215580Y-76626000D01*
X114934420Y-77646000D02*
X115215580Y-77646000D01*
X67820830Y-82963619D02*
X67622019Y-83162430D01*
X67099581Y-82242370D02*
X66900770Y-82441181D01*
X70513230Y-85808419D02*
X70314419Y-86007230D01*
X69791981Y-85087170D02*
X69593170Y-85285981D01*
X74266770Y-71011181D02*
X74465581Y-70812370D01*
X74988019Y-71732430D02*
X75186830Y-71533619D01*
X66703230Y-81846019D02*
X66504419Y-82044830D01*
X65981981Y-81124770D02*
X65783170Y-81323581D01*
X78229170Y-74973581D02*
X78427981Y-74774770D01*
X78950419Y-75694830D02*
X79149230Y-75496019D01*
%LPC*%
D12*
X71718808Y-86116792D03*
X70622792Y-87212808D03*
D13*
X118237000Y-72885000D03*
X118237000Y-74435000D03*
X119888000Y-72885000D03*
X119888000Y-74435000D03*
D14*
X73010392Y-70652008D03*
X74106408Y-69555992D03*
X76363192Y-74004808D03*
X77459208Y-72908792D03*
X75296392Y-72938008D03*
X76392408Y-71841992D03*
D15*
X114300000Y-78740000D03*
X115850000Y-78740000D03*
D14*
X79258792Y-76900408D03*
X80354808Y-75804392D03*
D15*
X114300000Y-77136000D03*
X115850000Y-77136000D03*
D12*
X67908808Y-82154392D03*
X66812792Y-83250408D03*
X70601208Y-84999192D03*
X69505192Y-86095208D03*
D14*
X74178792Y-71820408D03*
X75274808Y-70724392D03*
D12*
X66791208Y-81036792D03*
X65695192Y-82132808D03*
D14*
X78141192Y-75782808D03*
X79237208Y-74686792D03*
M02*
