%TF.GenerationSoftware,KiCad,Pcbnew,7.0.8*%
%TF.CreationDate,2023-11-03T17:47:42+02:00*%
%TF.ProjectId,ssd2828_board,73736432-3832-4385-9f62-6f6172642e6b,rev?*%
%TF.SameCoordinates,Original*%
%TF.FileFunction,Drillmap*%
%TF.FilePolarity,Positive*%
%FSLAX45Y45*%
G04 Gerber Fmt 4.5, Leading zero omitted, Abs format (unit mm)*
G04 Created by KiCad (PCBNEW 7.0.8) date 2023-11-03 17:47:42*
%MOMM*%
%LPD*%
G01*
G04 APERTURE LIST*
%ADD10C,0.100000*%
%ADD11C,0.200000*%
%ADD12C,0.020000*%
%ADD13C,0.025000*%
%ADD14C,0.030000*%
G04 APERTURE END LIST*
D10*
X14200180Y-8656650D02*
G75*
G03*
X14296700Y-8560130I0J96520D01*
G01*
X5267630Y-10462260D02*
X7868920Y-10462260D01*
X5267630Y-5111700D02*
G75*
G03*
X5171110Y-5208220I0J-96520D01*
G01*
X5171110Y-10365740D02*
G75*
G03*
X5267630Y-10462260I96520J0D01*
G01*
X5171110Y-8558170D02*
X5171110Y-10365740D01*
X7965440Y-10365740D02*
X7965440Y-8656320D01*
X14296700Y-5207890D02*
X14296700Y-8559800D01*
X7868920Y-10462260D02*
G75*
G03*
X7965440Y-10365740I0J96520D01*
G01*
X14200180Y-8656320D02*
X7965440Y-8656320D01*
X5267630Y-5111700D02*
X14200180Y-5111370D01*
X5171110Y-8558170D02*
X5171110Y-5208220D01*
X14296700Y-5207890D02*
G75*
G03*
X14200180Y-5111370I-96520J0D01*
G01*
D11*
D12*
X10251600Y-6314600D02*
X10271600Y-6334600D01*
X10271600Y-6314600D02*
X10251600Y-6334600D01*
X10261760Y-6235860D02*
X10281760Y-6255860D01*
X10281760Y-6235860D02*
X10261760Y-6255860D01*
X10421780Y-6146960D02*
X10441780Y-6166960D01*
X10441780Y-6146960D02*
X10421780Y-6166960D01*
X11668920Y-5918360D02*
X11688920Y-5938360D01*
X11688920Y-5918360D02*
X11668920Y-5938360D01*
X12352180Y-7533800D02*
X12372180Y-7553800D01*
X12372180Y-7533800D02*
X12352180Y-7553800D01*
X12377580Y-7455060D02*
X12397580Y-7475060D01*
X12397580Y-7455060D02*
X12377580Y-7475060D01*
X12423300Y-7574440D02*
X12443300Y-7594440D01*
X12443300Y-7574440D02*
X12423300Y-7594440D01*
X13020200Y-5669440D02*
X13040200Y-5689440D01*
X13040200Y-5669440D02*
X13020200Y-5689440D01*
X13231020Y-6091080D02*
X13251020Y-6111080D01*
X13251020Y-6091080D02*
X13231020Y-6111080D01*
X13492640Y-6855620D02*
X13512640Y-6875620D01*
X13512640Y-6855620D02*
X13492640Y-6875620D01*
X13495180Y-6649880D02*
X13515180Y-6669880D01*
X13515180Y-6649880D02*
X13495180Y-6669880D01*
X13667900Y-6484780D02*
X13687900Y-6504780D01*
X13687900Y-6484780D02*
X13667900Y-6504780D01*
X13739020Y-6436520D02*
X13759020Y-6456520D01*
X13759020Y-6436520D02*
X13739020Y-6456520D01*
X13810140Y-6497480D02*
X13830140Y-6517480D01*
X13830140Y-6497480D02*
X13810140Y-6517480D01*
D13*
X5481120Y-10020300D02*
G75*
G03*
X5481120Y-10020300I-12500J0D01*
G01*
X5483660Y-5824220D02*
G75*
G03*
X5483660Y-5824220I-12500J0D01*
G01*
X5486200Y-9316720D02*
G75*
G03*
X5486200Y-9316720I-12500J0D01*
G01*
X5491280Y-9519920D02*
G75*
G03*
X5491280Y-9519920I-12500J0D01*
G01*
X5498900Y-5687060D02*
G75*
G03*
X5498900Y-5687060I-12500J0D01*
G01*
X5501440Y-5524500D02*
G75*
G03*
X5501440Y-5524500I-12500J0D01*
G01*
X5501440Y-9151620D02*
G75*
G03*
X5501440Y-9151620I-12500J0D01*
G01*
X5503980Y-5946140D02*
G75*
G03*
X5503980Y-5946140I-12500J0D01*
G01*
X5506520Y-9631680D02*
G75*
G03*
X5506520Y-9631680I-12500J0D01*
G01*
X5506520Y-9756140D02*
G75*
G03*
X5506520Y-9756140I-12500J0D01*
G01*
X5509060Y-6098540D02*
G75*
G03*
X5509060Y-6098540I-12500J0D01*
G01*
X5534137Y-9380820D02*
G75*
G03*
X5534137Y-9380820I-12500J0D01*
G01*
X5534137Y-9455820D02*
G75*
G03*
X5534137Y-9455820I-12500J0D01*
G01*
X5542080Y-9886280D02*
G75*
G03*
X5542080Y-9886280I-12500J0D01*
G01*
X5542080Y-9961280D02*
G75*
G03*
X5542080Y-9961280I-12500J0D01*
G01*
X5562362Y-9220800D02*
G75*
G03*
X5562362Y-9220800I-12500J0D01*
G01*
X5562362Y-9295800D02*
G75*
G03*
X5562362Y-9295800I-12500J0D01*
G01*
X5562400Y-5399320D02*
G75*
G03*
X5562400Y-5399320I-12500J0D01*
G01*
X5562400Y-5474320D02*
G75*
G03*
X5562400Y-5474320I-12500J0D01*
G01*
X5568853Y-5729520D02*
G75*
G03*
X5568853Y-5729520I-12500J0D01*
G01*
X5568853Y-5804520D02*
G75*
G03*
X5568853Y-5804520I-12500J0D01*
G01*
X5579588Y-6059720D02*
G75*
G03*
X5579588Y-6059720I-12500J0D01*
G01*
X5579588Y-6134720D02*
G75*
G03*
X5579588Y-6134720I-12500J0D01*
G01*
X5580180Y-9540840D02*
G75*
G03*
X5580180Y-9540840I-12500J0D01*
G01*
X5580180Y-9615840D02*
G75*
G03*
X5580180Y-9615840I-12500J0D01*
G01*
X5580180Y-9713560D02*
G75*
G03*
X5580180Y-9713560I-12500J0D01*
G01*
X5580180Y-9788560D02*
G75*
G03*
X5580180Y-9788560I-12500J0D01*
G01*
X5582720Y-5564420D02*
G75*
G03*
X5582720Y-5564420I-12500J0D01*
G01*
X5582720Y-5639420D02*
G75*
G03*
X5582720Y-5639420I-12500J0D01*
G01*
X5582720Y-6210300D02*
G75*
G03*
X5582720Y-6210300I-12500J0D01*
G01*
X5587800Y-5894620D02*
G75*
G03*
X5587800Y-5894620I-12500J0D01*
G01*
X5587800Y-5969620D02*
G75*
G03*
X5587800Y-5969620I-12500J0D01*
G01*
X5603040Y-10005060D02*
G75*
G03*
X5603040Y-10005060I-12500J0D01*
G01*
X5628440Y-5354320D02*
G75*
G03*
X5628440Y-5354320I-12500J0D01*
G01*
X5641140Y-9161780D02*
G75*
G03*
X5641140Y-9161780I-12500J0D01*
G01*
X5839260Y-9326880D02*
G75*
G03*
X5839260Y-9326880I-12500J0D01*
G01*
X5841800Y-9497060D02*
G75*
G03*
X5841800Y-9497060I-12500J0D01*
G01*
X5841800Y-9837420D02*
G75*
G03*
X5841800Y-9837420I-12500J0D01*
G01*
X5846880Y-5516880D02*
G75*
G03*
X5846880Y-5516880I-12500J0D01*
G01*
X5846880Y-5687060D02*
G75*
G03*
X5846880Y-5687060I-12500J0D01*
G01*
X5846880Y-5839460D02*
G75*
G03*
X5846880Y-5839460I-12500J0D01*
G01*
X5846880Y-6014720D02*
G75*
G03*
X5846880Y-6014720I-12500J0D01*
G01*
X5849420Y-9662160D02*
G75*
G03*
X5849420Y-9662160I-12500J0D01*
G01*
X5900220Y-10040620D02*
G75*
G03*
X5900220Y-10040620I-12500J0D01*
G01*
X5907840Y-9220800D02*
G75*
G03*
X5907840Y-9220800I-12500J0D01*
G01*
X5907840Y-9295800D02*
G75*
G03*
X5907840Y-9295800I-12500J0D01*
G01*
X5907840Y-9380820D02*
G75*
G03*
X5907840Y-9380820I-12500J0D01*
G01*
X5907840Y-9455820D02*
G75*
G03*
X5907840Y-9455820I-12500J0D01*
G01*
X5910380Y-9540840D02*
G75*
G03*
X5910380Y-9540840I-12500J0D01*
G01*
X5910380Y-9615840D02*
G75*
G03*
X5910380Y-9615840I-12500J0D01*
G01*
X5910380Y-9713560D02*
G75*
G03*
X5910380Y-9713560I-12500J0D01*
G01*
X5910380Y-9788560D02*
G75*
G03*
X5910380Y-9788560I-12500J0D01*
G01*
X5915460Y-9886280D02*
G75*
G03*
X5915460Y-9886280I-12500J0D01*
G01*
X5915460Y-9961280D02*
G75*
G03*
X5915460Y-9961280I-12500J0D01*
G01*
X5916120Y-5399320D02*
G75*
G03*
X5916120Y-5399320I-12500J0D01*
G01*
X5916120Y-5474320D02*
G75*
G03*
X5916120Y-5474320I-12500J0D01*
G01*
X5919112Y-6059720D02*
G75*
G03*
X5919112Y-6059720I-12500J0D01*
G01*
X5919112Y-6134720D02*
G75*
G03*
X5919112Y-6134720I-12500J0D01*
G01*
X5920317Y-5894620D02*
G75*
G03*
X5920317Y-5894620I-12500J0D01*
G01*
X5920317Y-5969620D02*
G75*
G03*
X5920317Y-5969620I-12500J0D01*
G01*
X5920704Y-5564420D02*
G75*
G03*
X5920704Y-5564420I-12500J0D01*
G01*
X5920704Y-5639420D02*
G75*
G03*
X5920704Y-5639420I-12500J0D01*
G01*
X5926653Y-5729520D02*
G75*
G03*
X5926653Y-5729520I-12500J0D01*
G01*
X5926653Y-5804520D02*
G75*
G03*
X5926653Y-5804520I-12500J0D01*
G01*
X5943400Y-9131300D02*
G75*
G03*
X5943400Y-9131300I-12500J0D01*
G01*
X5958640Y-5316220D02*
G75*
G03*
X5958640Y-5316220I-12500J0D01*
G01*
X5961180Y-6200140D02*
G75*
G03*
X5961180Y-6200140I-12500J0D01*
G01*
X5971340Y-9497060D02*
G75*
G03*
X5971340Y-9497060I-12500J0D01*
G01*
X5973880Y-9662160D02*
G75*
G03*
X5973880Y-9662160I-12500J0D01*
G01*
X5978960Y-9329420D02*
G75*
G03*
X5978960Y-9329420I-12500J0D01*
G01*
X5978960Y-9834880D02*
G75*
G03*
X5978960Y-9834880I-12500J0D01*
G01*
X5981500Y-6017260D02*
G75*
G03*
X5981500Y-6017260I-12500J0D01*
G01*
X5989120Y-5521960D02*
G75*
G03*
X5989120Y-5521960I-12500J0D01*
G01*
X5989120Y-5681980D02*
G75*
G03*
X5989120Y-5681980I-12500J0D01*
G01*
X6001820Y-5852160D02*
G75*
G03*
X6001820Y-5852160I-12500J0D01*
G01*
X7200700Y-9875520D02*
G75*
G03*
X7200700Y-9875520I-12500J0D01*
G01*
X7205780Y-9530080D02*
G75*
G03*
X7205780Y-9530080I-12500J0D01*
G01*
X7210860Y-9705340D02*
G75*
G03*
X7210860Y-9705340I-12500J0D01*
G01*
X7233720Y-9349740D02*
G75*
G03*
X7233720Y-9349740I-12500J0D01*
G01*
X7243880Y-9146540D02*
G75*
G03*
X7243880Y-9146540I-12500J0D01*
G01*
X7246420Y-10068560D02*
G75*
G03*
X7246420Y-10068560I-12500J0D01*
G01*
X7269736Y-9916702D02*
G75*
G03*
X7269736Y-9916702I-12500J0D01*
G01*
X7269736Y-9991702D02*
G75*
G03*
X7269736Y-9991702I-12500J0D01*
G01*
X7272773Y-9749800D02*
G75*
G03*
X7272773Y-9749800I-12500J0D01*
G01*
X7272773Y-9824800D02*
G75*
G03*
X7272773Y-9824800I-12500J0D01*
G01*
X7276900Y-9576400D02*
G75*
G03*
X7276900Y-9576400I-12500J0D01*
G01*
X7276900Y-9651400D02*
G75*
G03*
X7276900Y-9651400I-12500J0D01*
G01*
X7284520Y-9213180D02*
G75*
G03*
X7284520Y-9213180I-12500J0D01*
G01*
X7284520Y-9288180D02*
G75*
G03*
X7284520Y-9288180I-12500J0D01*
G01*
X7284520Y-9406220D02*
G75*
G03*
X7284520Y-9406220I-12500J0D01*
G01*
X7284520Y-9481220D02*
G75*
G03*
X7284520Y-9481220I-12500J0D01*
G01*
X7335320Y-9705340D02*
G75*
G03*
X7335320Y-9705340I-12500J0D01*
G01*
X7337860Y-9159240D02*
G75*
G03*
X7337860Y-9159240I-12500J0D01*
G01*
X7340400Y-9349740D02*
G75*
G03*
X7340400Y-9349740I-12500J0D01*
G01*
X7340400Y-9878060D02*
G75*
G03*
X7340400Y-9878060I-12500J0D01*
G01*
X7342940Y-9530080D02*
G75*
G03*
X7342940Y-9530080I-12500J0D01*
G01*
X7426497Y-6581402D02*
G75*
G03*
X7426497Y-6581402I-12500J0D01*
G01*
X7442000Y-6477000D02*
G75*
G03*
X7442000Y-6477000I-12500J0D01*
G01*
X7492800Y-6653603D02*
G75*
G03*
X7492800Y-6653603I-12500J0D01*
G01*
X7505500Y-6413500D02*
G75*
G03*
X7505500Y-6413500I-12500J0D01*
G01*
X7541060Y-9690100D02*
G75*
G03*
X7541060Y-9690100I-12500J0D01*
G01*
X7543600Y-9154160D02*
G75*
G03*
X7543600Y-9154160I-12500J0D01*
G01*
X7546140Y-9532620D02*
G75*
G03*
X7546140Y-9532620I-12500J0D01*
G01*
X7569000Y-6350000D02*
G75*
G03*
X7569000Y-6350000I-12500J0D01*
G01*
X7569000Y-6477000D02*
G75*
G03*
X7569000Y-6477000I-12500J0D01*
G01*
X7574080Y-10157460D02*
G75*
G03*
X7574080Y-10157460I-12500J0D01*
G01*
X7589320Y-9749800D02*
G75*
G03*
X7589320Y-9749800I-12500J0D01*
G01*
X7589320Y-9824800D02*
G75*
G03*
X7589320Y-9824800I-12500J0D01*
G01*
X7591860Y-10068560D02*
G75*
G03*
X7591860Y-10068560I-12500J0D01*
G01*
X7599480Y-9916702D02*
G75*
G03*
X7599480Y-9916702I-12500J0D01*
G01*
X7599480Y-9991702D02*
G75*
G03*
X7599480Y-9991702I-12500J0D01*
G01*
X7604560Y-9213180D02*
G75*
G03*
X7604560Y-9213180I-12500J0D01*
G01*
X7604560Y-9288180D02*
G75*
G03*
X7604560Y-9288180I-12500J0D01*
G01*
X7609640Y-9576400D02*
G75*
G03*
X7609640Y-9576400I-12500J0D01*
G01*
X7609640Y-9651400D02*
G75*
G03*
X7609640Y-9651400I-12500J0D01*
G01*
X7612180Y-9406220D02*
G75*
G03*
X7612180Y-9406220I-12500J0D01*
G01*
X7612180Y-9481220D02*
G75*
G03*
X7612180Y-9481220I-12500J0D01*
G01*
X7619800Y-6766560D02*
G75*
G03*
X7619800Y-6766560I-12500J0D01*
G01*
X7632500Y-6413500D02*
G75*
G03*
X7632500Y-6413500I-12500J0D01*
G01*
X7642660Y-6314440D02*
G75*
G03*
X7642660Y-6314440I-12500J0D01*
G01*
X7665520Y-9166860D02*
G75*
G03*
X7665520Y-9166860I-12500J0D01*
G01*
X7665520Y-9806940D02*
G75*
G03*
X7665520Y-9806940I-12500J0D01*
G01*
X7668060Y-9349740D02*
G75*
G03*
X7668060Y-9349740I-12500J0D01*
G01*
X7670600Y-9532620D02*
G75*
G03*
X7670600Y-9532620I-12500J0D01*
G01*
X7673140Y-10027920D02*
G75*
G03*
X7673140Y-10027920I-12500J0D01*
G01*
X7950000Y-6350000D02*
G75*
G03*
X7950000Y-6350000I-12500J0D01*
G01*
X8549440Y-7239000D02*
G75*
G03*
X8549440Y-7239000I-12500J0D01*
G01*
X8610400Y-7292340D02*
G75*
G03*
X8610400Y-7292340I-12500J0D01*
G01*
X8945680Y-7165340D02*
G75*
G03*
X8945680Y-7165340I-12500J0D01*
G01*
X10338900Y-8001000D02*
G75*
G03*
X10338900Y-8001000I-12500J0D01*
G01*
X10454440Y-8001000D02*
G75*
G03*
X10454440Y-8001000I-12500J0D01*
G01*
X10525560Y-7848600D02*
G75*
G03*
X10525560Y-7848600I-12500J0D01*
G01*
X10525560Y-8199120D02*
G75*
G03*
X10525560Y-8199120I-12500J0D01*
G01*
X10573820Y-8001000D02*
G75*
G03*
X10573820Y-8001000I-12500J0D01*
G01*
X10604900Y-7877528D02*
G75*
G03*
X10604900Y-7877528I-12500J0D01*
G01*
X10604900Y-8216900D02*
G75*
G03*
X10604900Y-8216900I-12500J0D01*
G01*
X10679900Y-7877528D02*
G75*
G03*
X10679900Y-7877528I-12500J0D01*
G01*
X10679900Y-8216900D02*
G75*
G03*
X10679900Y-8216900I-12500J0D01*
G01*
X10749080Y-8176260D02*
G75*
G03*
X10749080Y-8176260I-12500J0D01*
G01*
X10749080Y-8265160D02*
G75*
G03*
X10749080Y-8265160I-12500J0D01*
G01*
X10751620Y-7830820D02*
G75*
G03*
X10751620Y-7830820I-12500J0D01*
G01*
X10751620Y-7927340D02*
G75*
G03*
X10751620Y-7927340I-12500J0D01*
G01*
X10825880Y-7869830D02*
G75*
G03*
X10825880Y-7869830I-12500J0D01*
G01*
X10825880Y-8216900D02*
G75*
G03*
X10825880Y-8216900I-12500J0D01*
G01*
X10900880Y-7869830D02*
G75*
G03*
X10900880Y-7869830I-12500J0D01*
G01*
X10900880Y-8216900D02*
G75*
G03*
X10900880Y-8216900I-12500J0D01*
G01*
X10954820Y-8001000D02*
G75*
G03*
X10954820Y-8001000I-12500J0D01*
G01*
X10977680Y-8234680D02*
G75*
G03*
X10977680Y-8234680I-12500J0D01*
G01*
X10985300Y-7868920D02*
G75*
G03*
X10985300Y-7868920I-12500J0D01*
G01*
X12887760Y-8267700D02*
G75*
G03*
X12887760Y-8267700I-12500J0D01*
G01*
X12936020Y-8194040D02*
G75*
G03*
X12936020Y-8194040I-12500J0D01*
G01*
X12941100Y-7983220D02*
G75*
G03*
X12941100Y-7983220I-12500J0D01*
G01*
X12953800Y-6969760D02*
G75*
G03*
X12953800Y-6969760I-12500J0D01*
G01*
X12965200Y-7909036D02*
G75*
G03*
X12965200Y-7909036I-12500J0D01*
G01*
X12965200Y-8266613D02*
G75*
G03*
X12965200Y-8266613I-12500J0D01*
G01*
X13021263Y-6930543D02*
G75*
G03*
X13021263Y-6930543I-12500J0D01*
G01*
X13040200Y-7909036D02*
G75*
G03*
X13040200Y-7909036I-12500J0D01*
G01*
X13040200Y-8266613D02*
G75*
G03*
X13040200Y-8266613I-12500J0D01*
G01*
X13073180Y-7980680D02*
G75*
G03*
X13073180Y-7980680I-12500J0D01*
G01*
X13074297Y-6983577D02*
G75*
G03*
X13074297Y-6983577I-12500J0D01*
G01*
X13113820Y-8293100D02*
G75*
G03*
X13113820Y-8293100I-12500J0D01*
G01*
X13122680Y-8204200D02*
G75*
G03*
X13122680Y-8204200I-12500J0D01*
G01*
X13129060Y-6791960D02*
G75*
G03*
X13129060Y-6791960I-12500J0D01*
G01*
X13149380Y-6972300D02*
G75*
G03*
X13149380Y-6972300I-12500J0D01*
G01*
X13197680Y-8204200D02*
G75*
G03*
X13197680Y-8204200I-12500J0D01*
G01*
X13198302Y-6747670D02*
G75*
G03*
X13198302Y-6747670I-12500J0D01*
G01*
X13245900Y-8267700D02*
G75*
G03*
X13245900Y-8267700I-12500J0D01*
G01*
X13250980Y-8008620D02*
G75*
G03*
X13250980Y-8008620I-12500J0D01*
G01*
X13251335Y-6694637D02*
G75*
G03*
X13251335Y-6694637I-12500J0D01*
G01*
X13297940Y-8204200D02*
G75*
G03*
X13297940Y-8204200I-12500J0D01*
G01*
X13327180Y-6692900D02*
G75*
G03*
X13327180Y-6692900I-12500J0D01*
G01*
X13372940Y-8204200D02*
G75*
G03*
X13372940Y-8204200I-12500J0D01*
G01*
X13418620Y-8267700D02*
G75*
G03*
X13418620Y-8267700I-12500J0D01*
G01*
X13423700Y-7985760D02*
G75*
G03*
X13423700Y-7985760I-12500J0D01*
G01*
X13473383Y-8210703D02*
G75*
G03*
X13473383Y-8210703I-12500J0D01*
G01*
X13484660Y-7081520D02*
G75*
G03*
X13484660Y-7081520I-12500J0D01*
G01*
X13487200Y-7195820D02*
G75*
G03*
X13487200Y-7195820I-12500J0D01*
G01*
X13510060Y-6283960D02*
G75*
G03*
X13510060Y-6283960I-12500J0D01*
G01*
X13512600Y-6372860D02*
G75*
G03*
X13512600Y-6372860I-12500J0D01*
G01*
X13520220Y-6954520D02*
G75*
G03*
X13520220Y-6954520I-12500J0D01*
G01*
X13526417Y-8263737D02*
G75*
G03*
X13526417Y-8263737I-12500J0D01*
G01*
X13596420Y-8295640D02*
G75*
G03*
X13596420Y-8295640I-12500J0D01*
G01*
X13614200Y-8013700D02*
G75*
G03*
X13614200Y-8013700I-12500J0D01*
G01*
X13616740Y-7338060D02*
G75*
G03*
X13616740Y-7338060I-12500J0D01*
G01*
X13616740Y-7823200D02*
G75*
G03*
X13616740Y-7823200I-12500J0D01*
G01*
X13625783Y-8213243D02*
G75*
G03*
X13625783Y-8213243I-12500J0D01*
G01*
X13663060Y-7886700D02*
G75*
G03*
X13663060Y-7886700I-12500J0D01*
G01*
X13678817Y-8266277D02*
G75*
G03*
X13678817Y-8266277I-12500J0D01*
G01*
X13692940Y-7213600D02*
G75*
G03*
X13692940Y-7213600I-12500J0D01*
G01*
X13738060Y-7886700D02*
G75*
G03*
X13738060Y-7886700I-12500J0D01*
G01*
X13756440Y-8270240D02*
G75*
G03*
X13756440Y-8270240I-12500J0D01*
G01*
X13769140Y-8148320D02*
G75*
G03*
X13769140Y-8148320I-12500J0D01*
G01*
X13802160Y-7846060D02*
G75*
G03*
X13802160Y-7846060I-12500J0D01*
G01*
X13955499Y-6986852D02*
G75*
G03*
X13955499Y-6986852I-12500J0D01*
G01*
X13969800Y-7068820D02*
G75*
G03*
X13969800Y-7068820I-12500J0D01*
G01*
X14008532Y-6933819D02*
G75*
G03*
X14008532Y-6933819I-12500J0D01*
G01*
X14089180Y-6941820D02*
G75*
G03*
X14089180Y-6941820I-12500J0D01*
G01*
D14*
X5270500Y-5446000D02*
X5270500Y-5476000D01*
X5255500Y-5461000D02*
X5285500Y-5461000D01*
X5270500Y-5700000D02*
X5270500Y-5730000D01*
X5255500Y-5715000D02*
X5285500Y-5715000D01*
X5270500Y-6017500D02*
X5270500Y-6047500D01*
X5255500Y-6032500D02*
X5285500Y-6032500D01*
X5270500Y-6335000D02*
X5270500Y-6365000D01*
X5255500Y-6350000D02*
X5285500Y-6350000D01*
X5270500Y-6589000D02*
X5270500Y-6619000D01*
X5255500Y-6604000D02*
X5285500Y-6604000D01*
X5270500Y-6906500D02*
X5270500Y-6936500D01*
X5255500Y-6921500D02*
X5285500Y-6921500D01*
X5270500Y-7160500D02*
X5270500Y-7190500D01*
X5255500Y-7175500D02*
X5285500Y-7175500D01*
X5270500Y-7478000D02*
X5270500Y-7508000D01*
X5255500Y-7493000D02*
X5285500Y-7493000D01*
X5270500Y-7795500D02*
X5270500Y-7825500D01*
X5255500Y-7810500D02*
X5285500Y-7810500D01*
X5270500Y-8113000D02*
X5270500Y-8143000D01*
X5255500Y-8128000D02*
X5285500Y-8128000D01*
X5270500Y-8430500D02*
X5270500Y-8460500D01*
X5255500Y-8445500D02*
X5285500Y-8445500D01*
X5270500Y-8811500D02*
X5270500Y-8841500D01*
X5255500Y-8826500D02*
X5285500Y-8826500D01*
X5270500Y-8938500D02*
X5270500Y-8968500D01*
X5255500Y-8953500D02*
X5285500Y-8953500D01*
X5270500Y-9192500D02*
X5270500Y-9222500D01*
X5255500Y-9207500D02*
X5285500Y-9207500D01*
X5270500Y-9446500D02*
X5270500Y-9476500D01*
X5255500Y-9461500D02*
X5285500Y-9461500D01*
X5270500Y-9700500D02*
X5270500Y-9730500D01*
X5255500Y-9715500D02*
X5285500Y-9715500D01*
X5270500Y-10018000D02*
X5270500Y-10048000D01*
X5255500Y-10033000D02*
X5285500Y-10033000D01*
X5334000Y-10272000D02*
X5334000Y-10302000D01*
X5319000Y-10287000D02*
X5349000Y-10287000D01*
X5397500Y-8557500D02*
X5397500Y-8587500D01*
X5382500Y-8572500D02*
X5412500Y-8572500D01*
X5422900Y-6239700D02*
X5422900Y-6269700D01*
X5407900Y-6254700D02*
X5437900Y-6254700D01*
X5422900Y-6336220D02*
X5422900Y-6366220D01*
X5407900Y-6351220D02*
X5437900Y-6351220D01*
X5443220Y-10091660D02*
X5443220Y-10121660D01*
X5428220Y-10106660D02*
X5458220Y-10106660D01*
X5461000Y-5192000D02*
X5461000Y-5222000D01*
X5446000Y-5207000D02*
X5476000Y-5207000D01*
X5509260Y-10157700D02*
X5509260Y-10187700D01*
X5494260Y-10172700D02*
X5524260Y-10172700D01*
X5524500Y-8811500D02*
X5524500Y-8841500D01*
X5509500Y-8826500D02*
X5539500Y-8826500D01*
X5524500Y-10335500D02*
X5524500Y-10365500D01*
X5509500Y-10350500D02*
X5539500Y-10350500D01*
X5656700Y-6361420D02*
X5656700Y-6391420D01*
X5641700Y-6376420D02*
X5671700Y-6376420D01*
X5689600Y-8055800D02*
X5689600Y-8085800D01*
X5674600Y-8070800D02*
X5704600Y-8070800D01*
X5712460Y-7974520D02*
X5712460Y-8004520D01*
X5697460Y-7989520D02*
X5727460Y-7989520D01*
X5717540Y-7892060D02*
X5717540Y-7922060D01*
X5702540Y-7907060D02*
X5732540Y-7907060D01*
X5768340Y-8088820D02*
X5768340Y-8118820D01*
X5753340Y-8103820D02*
X5783340Y-8103820D01*
X5778500Y-8557500D02*
X5778500Y-8587500D01*
X5763500Y-8572500D02*
X5793500Y-8572500D01*
X5781040Y-7634160D02*
X5781040Y-7664160D01*
X5766040Y-7649160D02*
X5796040Y-7649160D01*
X5788660Y-7725600D02*
X5788660Y-7755600D01*
X5773660Y-7740600D02*
X5803660Y-7740600D01*
X5793740Y-6265100D02*
X5793740Y-6295100D01*
X5778740Y-6280100D02*
X5808740Y-6280100D01*
X5793740Y-6346380D02*
X5793740Y-6376380D01*
X5778740Y-6361380D02*
X5808740Y-6361380D01*
X5793740Y-10084040D02*
X5793740Y-10114040D01*
X5778740Y-10099040D02*
X5808740Y-10099040D01*
X5842000Y-5192000D02*
X5842000Y-5222000D01*
X5827000Y-5207000D02*
X5857000Y-5207000D01*
X5867400Y-10142460D02*
X5867400Y-10172460D01*
X5852400Y-10157460D02*
X5882400Y-10157460D01*
X5869940Y-8083740D02*
X5869940Y-8113740D01*
X5854940Y-8098740D02*
X5884940Y-8098740D01*
X5905500Y-8811500D02*
X5905500Y-8841500D01*
X5890500Y-8826500D02*
X5920500Y-8826500D01*
X5905500Y-10335500D02*
X5905500Y-10365500D01*
X5890500Y-10350500D02*
X5920500Y-10350500D01*
X5986780Y-7565580D02*
X5986780Y-7595580D01*
X5971780Y-7580580D02*
X6001780Y-7580580D01*
X6012180Y-8093900D02*
X6012180Y-8123900D01*
X5997180Y-8108900D02*
X6027180Y-8108900D01*
X6014720Y-7152880D02*
X6014720Y-7182880D01*
X5999720Y-7167880D02*
X6029720Y-7167880D01*
X6032500Y-7287500D02*
X6032500Y-7317500D01*
X6017500Y-7302500D02*
X6047500Y-7302500D01*
X6085840Y-6726160D02*
X6085840Y-6756160D01*
X6070840Y-6741160D02*
X6100840Y-6741160D01*
X6108700Y-8073580D02*
X6108700Y-8103580D01*
X6093700Y-8088580D02*
X6123700Y-8088580D01*
X6118860Y-7155420D02*
X6118860Y-7185420D01*
X6103860Y-7170420D02*
X6133860Y-7170420D01*
X6162040Y-7451280D02*
X6162040Y-7481280D01*
X6147040Y-7466280D02*
X6177040Y-7466280D01*
X6169660Y-7763700D02*
X6169660Y-7793700D01*
X6154660Y-7778700D02*
X6184660Y-7778700D01*
X6174740Y-6962380D02*
X6174740Y-6992380D01*
X6159740Y-6977380D02*
X6189740Y-6977380D01*
X6174740Y-7870380D02*
X6174740Y-7900380D01*
X6159740Y-7885380D02*
X6189740Y-7885380D01*
X6223000Y-5192000D02*
X6223000Y-5222000D01*
X6208000Y-5207000D02*
X6238000Y-5207000D01*
X6223000Y-8557500D02*
X6223000Y-8587500D01*
X6208000Y-8572500D02*
X6238000Y-8572500D01*
X6251080Y-7560500D02*
X6251080Y-7590500D01*
X6236080Y-7575500D02*
X6266080Y-7575500D01*
X6286500Y-8811500D02*
X6286500Y-8841500D01*
X6271500Y-8826500D02*
X6301500Y-8826500D01*
X6286500Y-10335500D02*
X6286500Y-10365500D01*
X6271500Y-10350500D02*
X6301500Y-10350500D01*
X6324600Y-7916100D02*
X6324600Y-7946100D01*
X6309600Y-7931100D02*
X6339600Y-7931100D01*
X6413500Y-7287500D02*
X6413500Y-7317500D01*
X6398500Y-7302500D02*
X6428500Y-7302500D01*
X6446520Y-7046200D02*
X6446520Y-7076200D01*
X6431520Y-7061200D02*
X6461520Y-7061200D01*
X6479540Y-7509700D02*
X6479540Y-7539700D01*
X6464540Y-7524700D02*
X6494540Y-7524700D01*
X6591300Y-8396160D02*
X6591300Y-8426160D01*
X6576300Y-8411160D02*
X6606300Y-8411160D01*
X6604000Y-5192000D02*
X6604000Y-5222000D01*
X6589000Y-5207000D02*
X6619000Y-5207000D01*
X6604000Y-8557500D02*
X6604000Y-8587500D01*
X6589000Y-8572500D02*
X6619000Y-8572500D01*
X6657340Y-7734540D02*
X6657340Y-7764540D01*
X6642340Y-7749540D02*
X6672340Y-7749540D01*
X6662420Y-7164260D02*
X6662420Y-7194260D01*
X6647420Y-7179260D02*
X6677420Y-7179260D01*
X6667500Y-10335500D02*
X6667500Y-10365500D01*
X6652500Y-10350500D02*
X6682500Y-10350500D01*
X6725920Y-7805660D02*
X6725920Y-7835660D01*
X6710920Y-7820660D02*
X6740920Y-7820660D01*
X6731000Y-8811500D02*
X6731000Y-8841500D01*
X6716000Y-8826500D02*
X6746000Y-8826500D01*
X6789420Y-8284400D02*
X6789420Y-8314400D01*
X6774420Y-8299400D02*
X6804420Y-8299400D01*
X6865620Y-6961060D02*
X6865620Y-6991060D01*
X6850620Y-6976060D02*
X6880620Y-6976060D01*
X6883400Y-6804900D02*
X6883400Y-6834900D01*
X6868400Y-6819900D02*
X6898400Y-6819900D01*
X6921500Y-8557500D02*
X6921500Y-8587500D01*
X6906500Y-8572500D02*
X6936500Y-8572500D01*
X6972300Y-6976300D02*
X6972300Y-7006300D01*
X6957300Y-6991300D02*
X6987300Y-6991300D01*
X6985000Y-5192000D02*
X6985000Y-5222000D01*
X6970000Y-5207000D02*
X7000000Y-5207000D01*
X6985000Y-7732000D02*
X6985000Y-7762000D01*
X6970000Y-7747000D02*
X7000000Y-7747000D01*
X7002780Y-8199360D02*
X7002780Y-8229360D01*
X6987780Y-8214360D02*
X7017780Y-8214360D01*
X7007860Y-6366700D02*
X7007860Y-6396700D01*
X6992860Y-6381700D02*
X7022860Y-6381700D01*
X7030720Y-6287960D02*
X7030720Y-6317960D01*
X7015720Y-6302960D02*
X7045720Y-6302960D01*
X7035800Y-6459460D02*
X7035800Y-6489460D01*
X7020800Y-6474460D02*
X7050800Y-6474460D01*
X7048500Y-10335500D02*
X7048500Y-10365500D01*
X7033500Y-10350500D02*
X7063500Y-10350500D01*
X7104380Y-6535660D02*
X7104380Y-6565660D01*
X7089380Y-6550660D02*
X7119380Y-6550660D01*
X7112000Y-8811500D02*
X7112000Y-8841500D01*
X7097000Y-8826500D02*
X7127000Y-8826500D01*
X7147560Y-6945820D02*
X7147560Y-6975820D01*
X7132560Y-6960820D02*
X7162560Y-6960820D01*
X7190740Y-6338760D02*
X7190740Y-6368760D01*
X7175740Y-6353760D02*
X7205740Y-6353760D01*
X7216140Y-8195500D02*
X7216140Y-8225500D01*
X7201140Y-8210500D02*
X7231140Y-8210500D01*
X7233920Y-10145000D02*
X7233920Y-10175000D01*
X7218920Y-10160000D02*
X7248920Y-10160000D01*
X7246620Y-6260020D02*
X7246620Y-6290020D01*
X7231620Y-6275020D02*
X7261620Y-6275020D01*
X7297420Y-6736320D02*
X7297420Y-6766320D01*
X7282420Y-6751320D02*
X7312420Y-6751320D01*
X7302500Y-6468300D02*
X7302500Y-6498300D01*
X7287500Y-6483300D02*
X7317500Y-6483300D01*
X7302500Y-8557500D02*
X7302500Y-8587500D01*
X7287500Y-8572500D02*
X7317500Y-8572500D01*
X7322820Y-6186360D02*
X7322820Y-6216360D01*
X7307820Y-6201360D02*
X7337820Y-6201360D01*
X7327900Y-10106900D02*
X7327900Y-10136900D01*
X7312900Y-10121900D02*
X7342900Y-10121900D01*
X7366000Y-5192000D02*
X7366000Y-5222000D01*
X7351000Y-5207000D02*
X7381000Y-5207000D01*
X7368540Y-6816280D02*
X7368540Y-6846280D01*
X7353540Y-6831280D02*
X7383540Y-6831280D01*
X7389404Y-6114696D02*
X7389404Y-6144696D01*
X7374404Y-6129696D02*
X7404404Y-6129696D01*
X7396480Y-8093900D02*
X7396480Y-8123900D01*
X7381480Y-8108900D02*
X7411480Y-8108900D01*
X7470140Y-6033960D02*
X7470140Y-6063960D01*
X7455140Y-6048960D02*
X7485140Y-6048960D01*
X7475220Y-6910260D02*
X7475220Y-6940260D01*
X7460220Y-6925260D02*
X7490220Y-6925260D01*
X7475220Y-8153640D02*
X7475220Y-8183640D01*
X7460220Y-8168640D02*
X7490220Y-8168640D01*
X7493000Y-10335500D02*
X7493000Y-10365500D01*
X7478000Y-10350500D02*
X7508000Y-10350500D01*
X7538720Y-5960300D02*
X7538720Y-5990300D01*
X7523720Y-5975300D02*
X7553720Y-5975300D01*
X7541260Y-8093900D02*
X7541260Y-8123900D01*
X7526260Y-8108900D02*
X7556260Y-8108900D01*
X7556500Y-7795500D02*
X7556500Y-7825500D01*
X7541500Y-7810500D02*
X7571500Y-7810500D01*
X7581900Y-8816580D02*
X7581900Y-8846580D01*
X7566900Y-8831580D02*
X7596900Y-8831580D01*
X7620000Y-7097000D02*
X7620000Y-7127000D01*
X7605000Y-7112000D02*
X7635000Y-7112000D01*
X7655560Y-10167860D02*
X7655560Y-10197860D01*
X7640560Y-10182860D02*
X7670560Y-10182860D01*
X7663180Y-5964160D02*
X7663180Y-5994160D01*
X7648180Y-5979160D02*
X7678180Y-5979160D01*
X7665720Y-5721540D02*
X7665720Y-5751540D01*
X7650720Y-5736540D02*
X7680720Y-5736540D01*
X7683500Y-8557500D02*
X7683500Y-8587500D01*
X7668500Y-8572500D02*
X7698500Y-8572500D01*
X7717790Y-10105630D02*
X7717790Y-10135630D01*
X7702790Y-10120630D02*
X7732790Y-10120630D01*
X7744460Y-5795200D02*
X7744460Y-5825200D01*
X7729460Y-5810200D02*
X7759460Y-5810200D01*
X7747000Y-5192000D02*
X7747000Y-5222000D01*
X7732000Y-5207000D02*
X7762000Y-5207000D01*
X7797800Y-6086080D02*
X7797800Y-6116080D01*
X7782800Y-6101080D02*
X7812800Y-6101080D01*
X7807960Y-5580620D02*
X7807960Y-5610620D01*
X7792960Y-5595620D02*
X7822960Y-5595620D01*
X7810500Y-5319000D02*
X7810500Y-5349000D01*
X7795500Y-5334000D02*
X7825500Y-5334000D01*
X7810500Y-8938500D02*
X7810500Y-8968500D01*
X7795500Y-8953500D02*
X7825500Y-8953500D01*
X7810500Y-10335500D02*
X7810500Y-10365500D01*
X7795500Y-10350500D02*
X7825500Y-10350500D01*
X7813040Y-5840920D02*
X7813040Y-5870920D01*
X7798040Y-5855920D02*
X7828040Y-5855920D01*
X7858760Y-6149580D02*
X7858760Y-6179580D01*
X7843760Y-6164580D02*
X7873760Y-6164580D01*
X7874000Y-9256000D02*
X7874000Y-9286000D01*
X7859000Y-9271000D02*
X7889000Y-9271000D01*
X7874000Y-9573500D02*
X7874000Y-9603500D01*
X7859000Y-9588500D02*
X7889000Y-9588500D01*
X7874000Y-9827500D02*
X7874000Y-9857500D01*
X7859000Y-9842500D02*
X7889000Y-9842500D01*
X7874000Y-10145000D02*
X7874000Y-10175000D01*
X7859000Y-10160000D02*
X7889000Y-10160000D01*
X7952740Y-5990780D02*
X7952740Y-6020780D01*
X7937740Y-6005780D02*
X7967740Y-6005780D01*
X7957820Y-7458900D02*
X7957820Y-7488900D01*
X7942820Y-7473900D02*
X7972820Y-7473900D01*
X8008620Y-8303500D02*
X8008620Y-8333500D01*
X7993620Y-8318500D02*
X8023620Y-8318500D01*
X8054340Y-8206980D02*
X8054340Y-8236980D01*
X8039340Y-8221980D02*
X8069340Y-8221980D01*
X8064500Y-8557500D02*
X8064500Y-8587500D01*
X8049500Y-8572500D02*
X8079500Y-8572500D01*
X8105140Y-8295880D02*
X8105140Y-8325880D01*
X8090140Y-8310880D02*
X8120140Y-8310880D01*
X8128000Y-5192000D02*
X8128000Y-5222000D01*
X8113000Y-5207000D02*
X8143000Y-5207000D01*
X8318500Y-5446000D02*
X8318500Y-5476000D01*
X8303500Y-5461000D02*
X8333500Y-5461000D01*
X8331200Y-5875260D02*
X8331200Y-5905260D01*
X8316200Y-5890260D02*
X8346200Y-5890260D01*
X8445500Y-5636500D02*
X8445500Y-5666500D01*
X8430500Y-5651500D02*
X8460500Y-5651500D01*
X8445500Y-8557500D02*
X8445500Y-8587500D01*
X8430500Y-8572500D02*
X8460500Y-8572500D01*
X8486140Y-5285980D02*
X8486140Y-5315980D01*
X8471140Y-5300980D02*
X8501140Y-5300980D01*
X8519160Y-8280640D02*
X8519160Y-8310640D01*
X8504160Y-8295640D02*
X8534160Y-8295640D01*
X8521700Y-7987220D02*
X8521700Y-8017220D01*
X8506700Y-8002220D02*
X8536700Y-8002220D01*
X8521700Y-8078660D02*
X8521700Y-8108660D01*
X8506700Y-8093660D02*
X8536700Y-8093660D01*
X8534400Y-7528800D02*
X8534400Y-7558800D01*
X8519400Y-7543800D02*
X8549400Y-7543800D01*
X8572500Y-5608560D02*
X8572500Y-5638560D01*
X8557500Y-5623560D02*
X8587500Y-5623560D01*
X8575040Y-5702540D02*
X8575040Y-5732540D01*
X8560040Y-5717540D02*
X8590040Y-5717540D01*
X8641080Y-5654280D02*
X8641080Y-5684280D01*
X8626080Y-5669280D02*
X8656080Y-5669280D01*
X8763000Y-5192000D02*
X8763000Y-5222000D01*
X8748000Y-5207000D02*
X8778000Y-5207000D01*
X8763000Y-7478000D02*
X8763000Y-7508000D01*
X8748000Y-7493000D02*
X8778000Y-7493000D01*
X8763000Y-8557500D02*
X8763000Y-8587500D01*
X8748000Y-8572500D02*
X8778000Y-8572500D01*
X8844280Y-8361920D02*
X8844280Y-8391920D01*
X8829280Y-8376920D02*
X8859280Y-8376920D01*
X8846820Y-8246300D02*
X8846820Y-8276300D01*
X8831820Y-8261300D02*
X8861820Y-8261300D01*
X8915400Y-8299640D02*
X8915400Y-8329640D01*
X8900400Y-8314640D02*
X8930400Y-8314640D01*
X9144000Y-8557500D02*
X9144000Y-8587500D01*
X9129000Y-8572500D02*
X9159000Y-8572500D01*
X9271000Y-5382500D02*
X9271000Y-5412500D01*
X9256000Y-5397500D02*
X9286000Y-5397500D01*
X9271000Y-5700000D02*
X9271000Y-5730000D01*
X9256000Y-5715000D02*
X9286000Y-5715000D01*
X9271000Y-6017500D02*
X9271000Y-6047500D01*
X9256000Y-6032500D02*
X9286000Y-6032500D01*
X9271000Y-6335000D02*
X9271000Y-6365000D01*
X9256000Y-6350000D02*
X9286000Y-6350000D01*
X9271000Y-6652500D02*
X9271000Y-6682500D01*
X9256000Y-6667500D02*
X9286000Y-6667500D01*
X9271000Y-6970000D02*
X9271000Y-7000000D01*
X9256000Y-6985000D02*
X9286000Y-6985000D01*
X9271000Y-7351000D02*
X9271000Y-7381000D01*
X9256000Y-7366000D02*
X9286000Y-7366000D01*
X9271000Y-7668500D02*
X9271000Y-7698500D01*
X9256000Y-7683500D02*
X9286000Y-7683500D01*
X9271000Y-7986000D02*
X9271000Y-8016000D01*
X9256000Y-8001000D02*
X9286000Y-8001000D01*
X9271000Y-8367000D02*
X9271000Y-8397000D01*
X9256000Y-8382000D02*
X9286000Y-8382000D01*
X9525000Y-5192000D02*
X9525000Y-5222000D01*
X9510000Y-5207000D02*
X9540000Y-5207000D01*
X9525000Y-5509500D02*
X9525000Y-5539500D01*
X9510000Y-5524500D02*
X9540000Y-5524500D01*
X9525000Y-5827000D02*
X9525000Y-5857000D01*
X9510000Y-5842000D02*
X9540000Y-5842000D01*
X9525000Y-6208000D02*
X9525000Y-6238000D01*
X9510000Y-6223000D02*
X9540000Y-6223000D01*
X9525000Y-6525500D02*
X9525000Y-6555500D01*
X9510000Y-6540500D02*
X9540000Y-6540500D01*
X9525000Y-6906500D02*
X9525000Y-6936500D01*
X9510000Y-6921500D02*
X9540000Y-6921500D01*
X9525000Y-7287500D02*
X9525000Y-7317500D01*
X9510000Y-7302500D02*
X9540000Y-7302500D01*
X9525000Y-7605000D02*
X9525000Y-7635000D01*
X9510000Y-7620000D02*
X9540000Y-7620000D01*
X9525000Y-7986000D02*
X9525000Y-8016000D01*
X9510000Y-8001000D02*
X9540000Y-8001000D01*
X9525000Y-8367000D02*
X9525000Y-8397000D01*
X9510000Y-8382000D02*
X9540000Y-8382000D01*
X9588500Y-8557500D02*
X9588500Y-8587500D01*
X9573500Y-8572500D02*
X9603500Y-8572500D01*
X9720580Y-6900100D02*
X9720580Y-6930100D01*
X9705580Y-6915100D02*
X9735580Y-6915100D01*
X9771380Y-8114220D02*
X9771380Y-8144220D01*
X9756380Y-8129220D02*
X9786380Y-8129220D01*
X9779000Y-6208000D02*
X9779000Y-6238000D01*
X9764000Y-6223000D02*
X9794000Y-6223000D01*
X9806700Y-5581420D02*
X9806700Y-5611420D01*
X9791700Y-5596420D02*
X9821700Y-5596420D01*
X9865360Y-6121640D02*
X9865360Y-6151640D01*
X9850360Y-6136640D02*
X9880360Y-6136640D01*
X9903460Y-8123160D02*
X9903460Y-8153160D01*
X9888460Y-8138160D02*
X9918460Y-8138160D01*
X9969500Y-8557500D02*
X9969500Y-8587500D01*
X9954500Y-8572500D02*
X9984500Y-8572500D01*
X9999980Y-7090600D02*
X9999980Y-7120600D01*
X9984980Y-7105600D02*
X10014980Y-7105600D01*
X10043160Y-7729460D02*
X10043160Y-7759460D01*
X10028160Y-7744460D02*
X10058160Y-7744460D01*
X10057800Y-6827160D02*
X10057800Y-6857160D01*
X10042800Y-6842160D02*
X10072800Y-6842160D01*
X10066700Y-6291420D02*
X10066700Y-6321420D01*
X10051700Y-6306420D02*
X10081700Y-6306420D01*
X10071100Y-5604700D02*
X10071100Y-5634700D01*
X10056100Y-5619700D02*
X10086100Y-5619700D01*
X10073640Y-8386000D02*
X10073640Y-8416000D01*
X10058640Y-8401000D02*
X10088640Y-8401000D01*
X10096500Y-5934900D02*
X10096500Y-5964900D01*
X10081500Y-5949900D02*
X10111500Y-5949900D01*
X10132060Y-8186660D02*
X10132060Y-8216660D01*
X10117060Y-8201660D02*
X10147060Y-8201660D01*
X10157460Y-6990320D02*
X10157460Y-7020320D01*
X10142460Y-7005320D02*
X10172460Y-7005320D01*
X10162540Y-8387320D02*
X10162540Y-8417320D01*
X10147540Y-8402320D02*
X10177540Y-8402320D01*
X10287000Y-7287500D02*
X10287000Y-7317500D01*
X10272000Y-7302500D02*
X10302000Y-7302500D01*
X10350500Y-6383260D02*
X10350500Y-6413260D01*
X10335500Y-6398260D02*
X10365500Y-6398260D01*
X10350500Y-8557500D02*
X10350500Y-8587500D01*
X10335500Y-8572500D02*
X10365500Y-8572500D01*
X10414000Y-5636500D02*
X10414000Y-5666500D01*
X10399000Y-5651500D02*
X10429000Y-5651500D01*
X10414000Y-6017500D02*
X10414000Y-6047500D01*
X10399000Y-6032500D02*
X10429000Y-6032500D01*
X10614660Y-6289280D02*
X10614660Y-6319280D01*
X10599660Y-6304280D02*
X10629660Y-6304280D01*
X10634980Y-6030200D02*
X10634980Y-6060200D01*
X10619980Y-6045200D02*
X10649980Y-6045200D01*
X10665460Y-6397180D02*
X10665460Y-6427180D01*
X10650460Y-6412180D02*
X10680460Y-6412180D01*
X10667300Y-6600380D02*
X10667300Y-6630380D01*
X10652300Y-6615380D02*
X10682300Y-6615380D01*
X10705140Y-5848540D02*
X10705140Y-5878540D01*
X10690140Y-5863540D02*
X10720140Y-5863540D01*
X10731500Y-8557500D02*
X10731500Y-8587500D01*
X10716500Y-8572500D02*
X10746500Y-8572500D01*
X10797540Y-6557200D02*
X10797540Y-6587200D01*
X10782540Y-6572200D02*
X10812540Y-6572200D01*
X10817860Y-6660120D02*
X10817860Y-6690120D01*
X10802860Y-6675120D02*
X10832860Y-6675120D01*
X10858500Y-5636500D02*
X10858500Y-5666500D01*
X10843500Y-5651500D02*
X10873500Y-5651500D01*
X10871200Y-6408660D02*
X10871200Y-6438660D01*
X10856200Y-6423660D02*
X10886200Y-6423660D01*
X10883900Y-6559740D02*
X10883900Y-6589740D01*
X10868900Y-6574740D02*
X10898900Y-6574740D01*
X10932160Y-6660120D02*
X10932160Y-6690120D01*
X10917160Y-6675120D02*
X10947160Y-6675120D01*
X11017300Y-6600380D02*
X11017300Y-6630380D01*
X11002300Y-6615380D02*
X11032300Y-6615380D01*
X11059160Y-5448540D02*
X11059160Y-5478540D01*
X11044160Y-5463540D02*
X11074160Y-5463540D01*
X11176000Y-8557500D02*
X11176000Y-8587500D01*
X11161000Y-8572500D02*
X11191000Y-8572500D01*
X11239500Y-5192000D02*
X11239500Y-5222000D01*
X11224500Y-5207000D02*
X11254500Y-5207000D01*
X11239500Y-5446000D02*
X11239500Y-5476000D01*
X11224500Y-5461000D02*
X11254500Y-5461000D01*
X11239500Y-5763500D02*
X11239500Y-5793500D01*
X11224500Y-5778500D02*
X11254500Y-5778500D01*
X11239500Y-6144500D02*
X11239500Y-6174500D01*
X11224500Y-6159500D02*
X11254500Y-6159500D01*
X11239500Y-6462000D02*
X11239500Y-6492000D01*
X11224500Y-6477000D02*
X11254500Y-6477000D01*
X11239500Y-6779500D02*
X11239500Y-6809500D01*
X11224500Y-6794500D02*
X11254500Y-6794500D01*
X11239500Y-7033500D02*
X11239500Y-7063500D01*
X11224500Y-7048500D02*
X11254500Y-7048500D01*
X11239500Y-7287500D02*
X11239500Y-7317500D01*
X11224500Y-7302500D02*
X11254500Y-7302500D01*
X11239500Y-7605000D02*
X11239500Y-7635000D01*
X11224500Y-7620000D02*
X11254500Y-7620000D01*
X11239500Y-7922500D02*
X11239500Y-7952500D01*
X11224500Y-7937500D02*
X11254500Y-7937500D01*
X11239500Y-8240000D02*
X11239500Y-8270000D01*
X11224500Y-8255000D02*
X11254500Y-8255000D01*
X11493500Y-5192000D02*
X11493500Y-5222000D01*
X11478500Y-5207000D02*
X11508500Y-5207000D01*
X11493500Y-5446000D02*
X11493500Y-5476000D01*
X11478500Y-5461000D02*
X11508500Y-5461000D01*
X11493500Y-5763500D02*
X11493500Y-5793500D01*
X11478500Y-5778500D02*
X11508500Y-5778500D01*
X11493500Y-6144500D02*
X11493500Y-6174500D01*
X11478500Y-6159500D02*
X11508500Y-6159500D01*
X11493500Y-6462000D02*
X11493500Y-6492000D01*
X11478500Y-6477000D02*
X11508500Y-6477000D01*
X11493500Y-6779500D02*
X11493500Y-6809500D01*
X11478500Y-6794500D02*
X11508500Y-6794500D01*
X11493500Y-7033500D02*
X11493500Y-7063500D01*
X11478500Y-7048500D02*
X11508500Y-7048500D01*
X11493500Y-7287500D02*
X11493500Y-7317500D01*
X11478500Y-7302500D02*
X11508500Y-7302500D01*
X11493500Y-7605000D02*
X11493500Y-7635000D01*
X11478500Y-7620000D02*
X11508500Y-7620000D01*
X11493500Y-7922500D02*
X11493500Y-7952500D01*
X11478500Y-7937500D02*
X11508500Y-7937500D01*
X11493500Y-8240000D02*
X11493500Y-8270000D01*
X11478500Y-8255000D02*
X11508500Y-8255000D01*
X11557000Y-8557500D02*
X11557000Y-8587500D01*
X11542000Y-8572500D02*
X11572000Y-8572500D01*
X11645900Y-7140180D02*
X11645900Y-7170180D01*
X11630900Y-7155180D02*
X11660900Y-7155180D01*
X11671300Y-7010640D02*
X11671300Y-7040640D01*
X11656300Y-7025640D02*
X11686300Y-7025640D01*
X11717020Y-7076680D02*
X11717020Y-7106680D01*
X11702020Y-7091680D02*
X11732020Y-7091680D01*
X11811000Y-8303500D02*
X11811000Y-8333500D01*
X11796000Y-8318500D02*
X11826000Y-8318500D01*
X11833860Y-5326620D02*
X11833860Y-5356620D01*
X11818860Y-5341620D02*
X11848860Y-5341620D01*
X11874500Y-8557500D02*
X11874500Y-8587500D01*
X11859500Y-8572500D02*
X11889500Y-8572500D01*
X11877040Y-7986000D02*
X11877040Y-8016000D01*
X11862040Y-8001000D02*
X11892040Y-8001000D01*
X11880900Y-6313360D02*
X11880900Y-6343360D01*
X11865900Y-6328360D02*
X11895900Y-6328360D01*
X12042140Y-5346940D02*
X12042140Y-5376940D01*
X12027140Y-5361940D02*
X12057140Y-5361940D01*
X12042140Y-7610080D02*
X12042140Y-7640080D01*
X12027140Y-7625080D02*
X12057140Y-7625080D01*
X12120880Y-6555980D02*
X12120880Y-6585980D01*
X12105880Y-6570980D02*
X12135880Y-6570980D01*
X12148820Y-7658340D02*
X12148820Y-7688340D01*
X12133820Y-7673340D02*
X12163820Y-7673340D01*
X12176760Y-8032940D02*
X12176760Y-8062940D01*
X12161760Y-8047940D02*
X12191760Y-8047940D01*
X12186920Y-6487400D02*
X12186920Y-6517400D01*
X12171920Y-6502400D02*
X12201920Y-6502400D01*
X12192000Y-7033500D02*
X12192000Y-7063500D01*
X12177000Y-7048500D02*
X12207000Y-7048500D01*
X12192000Y-8557500D02*
X12192000Y-8587500D01*
X12177000Y-8572500D02*
X12207000Y-8572500D01*
X12217400Y-6578840D02*
X12217400Y-6608840D01*
X12202400Y-6593840D02*
X12232400Y-6593840D01*
X12255500Y-8303500D02*
X12255500Y-8333500D01*
X12240500Y-8318500D02*
X12270500Y-8318500D01*
X12438380Y-5812980D02*
X12438380Y-5842980D01*
X12423380Y-5827980D02*
X12453380Y-5827980D01*
X12438380Y-6385800D02*
X12438380Y-6415800D01*
X12423380Y-6400800D02*
X12453380Y-6400800D01*
X12440920Y-5379960D02*
X12440920Y-5409960D01*
X12425920Y-5394960D02*
X12455920Y-5394960D01*
X12512040Y-6418820D02*
X12512040Y-6448820D01*
X12497040Y-6433820D02*
X12527040Y-6433820D01*
X12573000Y-8557500D02*
X12573000Y-8587500D01*
X12558000Y-8572500D02*
X12588000Y-8572500D01*
X12677140Y-8034260D02*
X12677140Y-8064260D01*
X12662140Y-8049260D02*
X12692140Y-8049260D01*
X12679680Y-5321540D02*
X12679680Y-5351540D01*
X12664680Y-5336540D02*
X12694680Y-5336540D01*
X12694920Y-7925040D02*
X12694920Y-7955040D01*
X12679920Y-7940040D02*
X12709920Y-7940040D01*
X12700000Y-6779500D02*
X12700000Y-6809500D01*
X12685000Y-6794500D02*
X12715000Y-6794500D01*
X12700000Y-7605000D02*
X12700000Y-7635000D01*
X12685000Y-7620000D02*
X12715000Y-7620000D01*
X12720320Y-6276580D02*
X12720320Y-6306580D01*
X12705320Y-6291580D02*
X12735320Y-6291580D01*
X12727940Y-8144700D02*
X12727940Y-8174700D01*
X12712940Y-8159700D02*
X12742940Y-8159700D01*
X12755880Y-8374620D02*
X12755880Y-8404620D01*
X12740880Y-8389620D02*
X12770880Y-8389620D01*
X12827000Y-5192000D02*
X12827000Y-5222000D01*
X12812000Y-5207000D02*
X12842000Y-5207000D01*
X12847320Y-8377160D02*
X12847320Y-8407160D01*
X12832320Y-8392160D02*
X12862320Y-8392160D01*
X12928600Y-6177520D02*
X12928600Y-6207520D01*
X12913600Y-6192520D02*
X12943600Y-6192520D01*
X12954000Y-8557500D02*
X12954000Y-8587500D01*
X12939000Y-8572500D02*
X12969000Y-8572500D01*
X13004800Y-6350240D02*
X13004800Y-6380240D01*
X12989800Y-6365240D02*
X13019800Y-6365240D01*
X13248640Y-5887960D02*
X13248640Y-5917960D01*
X13233640Y-5902960D02*
X13263640Y-5902960D01*
X13271500Y-8557500D02*
X13271500Y-8587500D01*
X13256500Y-8572500D02*
X13286500Y-8572500D01*
X13479780Y-5467540D02*
X13479780Y-5497540D01*
X13464780Y-5482540D02*
X13494780Y-5482540D01*
X13609320Y-5501880D02*
X13609320Y-5531880D01*
X13594320Y-5516880D02*
X13624320Y-5516880D01*
X13652500Y-8557500D02*
X13652500Y-8587500D01*
X13637500Y-8572500D02*
X13667500Y-8572500D01*
X13657580Y-6009880D02*
X13657580Y-6039880D01*
X13642580Y-6024880D02*
X13672580Y-6024880D01*
X13700760Y-6296900D02*
X13700760Y-6326900D01*
X13685760Y-6311900D02*
X13715760Y-6311900D01*
X13843000Y-6144500D02*
X13843000Y-6174500D01*
X13828000Y-6159500D02*
X13858000Y-6159500D01*
X13970000Y-8557500D02*
X13970000Y-8587500D01*
X13955000Y-8572500D02*
X13985000Y-8572500D01*
X14160500Y-5192000D02*
X14160500Y-5222000D01*
X14145500Y-5207000D02*
X14175500Y-5207000D01*
X14170660Y-6368020D02*
X14170660Y-6398020D01*
X14155660Y-6383020D02*
X14185660Y-6383020D01*
X14224000Y-5382500D02*
X14224000Y-5412500D01*
X14209000Y-5397500D02*
X14239000Y-5397500D01*
X14224000Y-5636500D02*
X14224000Y-5666500D01*
X14209000Y-5651500D02*
X14239000Y-5651500D01*
X14224000Y-5890500D02*
X14224000Y-5920500D01*
X14209000Y-5905500D02*
X14239000Y-5905500D01*
X14224000Y-6144500D02*
X14224000Y-6174500D01*
X14209000Y-6159500D02*
X14239000Y-6159500D01*
X14224000Y-6462000D02*
X14224000Y-6492000D01*
X14209000Y-6477000D02*
X14239000Y-6477000D01*
X14224000Y-6716000D02*
X14224000Y-6746000D01*
X14209000Y-6731000D02*
X14239000Y-6731000D01*
X14224000Y-6970000D02*
X14224000Y-7000000D01*
X14209000Y-6985000D02*
X14239000Y-6985000D01*
X14224000Y-7287500D02*
X14224000Y-7317500D01*
X14209000Y-7302500D02*
X14239000Y-7302500D01*
X14224000Y-7605000D02*
X14224000Y-7635000D01*
X14209000Y-7620000D02*
X14239000Y-7620000D01*
X14224000Y-7922500D02*
X14224000Y-7952500D01*
X14209000Y-7937500D02*
X14239000Y-7937500D01*
X14224000Y-8176500D02*
X14224000Y-8206500D01*
X14209000Y-8191500D02*
X14239000Y-8191500D01*
X14224000Y-8430500D02*
X14224000Y-8460500D01*
X14209000Y-8445500D02*
X14239000Y-8445500D01*
D11*
X5426887Y-10778744D02*
X5426887Y-10578744D01*
X5426887Y-10578744D02*
X5474506Y-10578744D01*
X5474506Y-10578744D02*
X5503077Y-10588268D01*
X5503077Y-10588268D02*
X5522125Y-10607315D01*
X5522125Y-10607315D02*
X5531649Y-10626363D01*
X5531649Y-10626363D02*
X5541172Y-10664458D01*
X5541172Y-10664458D02*
X5541172Y-10693030D01*
X5541172Y-10693030D02*
X5531649Y-10731125D01*
X5531649Y-10731125D02*
X5522125Y-10750172D01*
X5522125Y-10750172D02*
X5503077Y-10769220D01*
X5503077Y-10769220D02*
X5474506Y-10778744D01*
X5474506Y-10778744D02*
X5426887Y-10778744D01*
X5626887Y-10778744D02*
X5626887Y-10645410D01*
X5626887Y-10683506D02*
X5636410Y-10664458D01*
X5636410Y-10664458D02*
X5645934Y-10654934D01*
X5645934Y-10654934D02*
X5664982Y-10645410D01*
X5664982Y-10645410D02*
X5684030Y-10645410D01*
X5750696Y-10778744D02*
X5750696Y-10645410D01*
X5750696Y-10578744D02*
X5741172Y-10588268D01*
X5741172Y-10588268D02*
X5750696Y-10597791D01*
X5750696Y-10597791D02*
X5760220Y-10588268D01*
X5760220Y-10588268D02*
X5750696Y-10578744D01*
X5750696Y-10578744D02*
X5750696Y-10597791D01*
X5874506Y-10778744D02*
X5855458Y-10769220D01*
X5855458Y-10769220D02*
X5845934Y-10750172D01*
X5845934Y-10750172D02*
X5845934Y-10578744D01*
X5979268Y-10778744D02*
X5960220Y-10769220D01*
X5960220Y-10769220D02*
X5950696Y-10750172D01*
X5950696Y-10750172D02*
X5950696Y-10578744D01*
X6207839Y-10778744D02*
X6207839Y-10578744D01*
X6207839Y-10578744D02*
X6274506Y-10721601D01*
X6274506Y-10721601D02*
X6341172Y-10578744D01*
X6341172Y-10578744D02*
X6341172Y-10778744D01*
X6522125Y-10778744D02*
X6522125Y-10673982D01*
X6522125Y-10673982D02*
X6512601Y-10654934D01*
X6512601Y-10654934D02*
X6493553Y-10645410D01*
X6493553Y-10645410D02*
X6455458Y-10645410D01*
X6455458Y-10645410D02*
X6436410Y-10654934D01*
X6522125Y-10769220D02*
X6503077Y-10778744D01*
X6503077Y-10778744D02*
X6455458Y-10778744D01*
X6455458Y-10778744D02*
X6436410Y-10769220D01*
X6436410Y-10769220D02*
X6426887Y-10750172D01*
X6426887Y-10750172D02*
X6426887Y-10731125D01*
X6426887Y-10731125D02*
X6436410Y-10712077D01*
X6436410Y-10712077D02*
X6455458Y-10702553D01*
X6455458Y-10702553D02*
X6503077Y-10702553D01*
X6503077Y-10702553D02*
X6522125Y-10693030D01*
X6617363Y-10645410D02*
X6617363Y-10845410D01*
X6617363Y-10654934D02*
X6636410Y-10645410D01*
X6636410Y-10645410D02*
X6674506Y-10645410D01*
X6674506Y-10645410D02*
X6693553Y-10654934D01*
X6693553Y-10654934D02*
X6703077Y-10664458D01*
X6703077Y-10664458D02*
X6712601Y-10683506D01*
X6712601Y-10683506D02*
X6712601Y-10740649D01*
X6712601Y-10740649D02*
X6703077Y-10759696D01*
X6703077Y-10759696D02*
X6693553Y-10769220D01*
X6693553Y-10769220D02*
X6674506Y-10778744D01*
X6674506Y-10778744D02*
X6636410Y-10778744D01*
X6636410Y-10778744D02*
X6617363Y-10769220D01*
X6798315Y-10759696D02*
X6807839Y-10769220D01*
X6807839Y-10769220D02*
X6798315Y-10778744D01*
X6798315Y-10778744D02*
X6788791Y-10769220D01*
X6788791Y-10769220D02*
X6798315Y-10759696D01*
X6798315Y-10759696D02*
X6798315Y-10778744D01*
X6798315Y-10654934D02*
X6807839Y-10664458D01*
X6807839Y-10664458D02*
X6798315Y-10673982D01*
X6798315Y-10673982D02*
X6788791Y-10664458D01*
X6788791Y-10664458D02*
X6798315Y-10654934D01*
X6798315Y-10654934D02*
X6798315Y-10673982D01*
D12*
X5146110Y-11097260D02*
X5166110Y-11117260D01*
X5166110Y-11097260D02*
X5146110Y-11117260D01*
D11*
X5464982Y-10998744D02*
X5484030Y-10998744D01*
X5484030Y-10998744D02*
X5503077Y-11008268D01*
X5503077Y-11008268D02*
X5512601Y-11017791D01*
X5512601Y-11017791D02*
X5522125Y-11036839D01*
X5522125Y-11036839D02*
X5531649Y-11074934D01*
X5531649Y-11074934D02*
X5531649Y-11122553D01*
X5531649Y-11122553D02*
X5522125Y-11160649D01*
X5522125Y-11160649D02*
X5512601Y-11179696D01*
X5512601Y-11179696D02*
X5503077Y-11189220D01*
X5503077Y-11189220D02*
X5484030Y-11198744D01*
X5484030Y-11198744D02*
X5464982Y-11198744D01*
X5464982Y-11198744D02*
X5445934Y-11189220D01*
X5445934Y-11189220D02*
X5436411Y-11179696D01*
X5436411Y-11179696D02*
X5426887Y-11160649D01*
X5426887Y-11160649D02*
X5417363Y-11122553D01*
X5417363Y-11122553D02*
X5417363Y-11074934D01*
X5417363Y-11074934D02*
X5426887Y-11036839D01*
X5426887Y-11036839D02*
X5436411Y-11017791D01*
X5436411Y-11017791D02*
X5445934Y-11008268D01*
X5445934Y-11008268D02*
X5464982Y-10998744D01*
X5617363Y-11179696D02*
X5626887Y-11189220D01*
X5626887Y-11189220D02*
X5617363Y-11198744D01*
X5617363Y-11198744D02*
X5607839Y-11189220D01*
X5607839Y-11189220D02*
X5617363Y-11179696D01*
X5617363Y-11179696D02*
X5617363Y-11198744D01*
X5703077Y-11017791D02*
X5712601Y-11008268D01*
X5712601Y-11008268D02*
X5731649Y-10998744D01*
X5731649Y-10998744D02*
X5779268Y-10998744D01*
X5779268Y-10998744D02*
X5798315Y-11008268D01*
X5798315Y-11008268D02*
X5807839Y-11017791D01*
X5807839Y-11017791D02*
X5817363Y-11036839D01*
X5817363Y-11036839D02*
X5817363Y-11055887D01*
X5817363Y-11055887D02*
X5807839Y-11084458D01*
X5807839Y-11084458D02*
X5693553Y-11198744D01*
X5693553Y-11198744D02*
X5817363Y-11198744D01*
X5941172Y-10998744D02*
X5960220Y-10998744D01*
X5960220Y-10998744D02*
X5979268Y-11008268D01*
X5979268Y-11008268D02*
X5988791Y-11017791D01*
X5988791Y-11017791D02*
X5998315Y-11036839D01*
X5998315Y-11036839D02*
X6007839Y-11074934D01*
X6007839Y-11074934D02*
X6007839Y-11122553D01*
X6007839Y-11122553D02*
X5998315Y-11160649D01*
X5998315Y-11160649D02*
X5988791Y-11179696D01*
X5988791Y-11179696D02*
X5979268Y-11189220D01*
X5979268Y-11189220D02*
X5960220Y-11198744D01*
X5960220Y-11198744D02*
X5941172Y-11198744D01*
X5941172Y-11198744D02*
X5922125Y-11189220D01*
X5922125Y-11189220D02*
X5912601Y-11179696D01*
X5912601Y-11179696D02*
X5903077Y-11160649D01*
X5903077Y-11160649D02*
X5893553Y-11122553D01*
X5893553Y-11122553D02*
X5893553Y-11074934D01*
X5893553Y-11074934D02*
X5903077Y-11036839D01*
X5903077Y-11036839D02*
X5912601Y-11017791D01*
X5912601Y-11017791D02*
X5922125Y-11008268D01*
X5922125Y-11008268D02*
X5941172Y-10998744D01*
X6131649Y-10998744D02*
X6150696Y-10998744D01*
X6150696Y-10998744D02*
X6169744Y-11008268D01*
X6169744Y-11008268D02*
X6179268Y-11017791D01*
X6179268Y-11017791D02*
X6188791Y-11036839D01*
X6188791Y-11036839D02*
X6198315Y-11074934D01*
X6198315Y-11074934D02*
X6198315Y-11122553D01*
X6198315Y-11122553D02*
X6188791Y-11160649D01*
X6188791Y-11160649D02*
X6179268Y-11179696D01*
X6179268Y-11179696D02*
X6169744Y-11189220D01*
X6169744Y-11189220D02*
X6150696Y-11198744D01*
X6150696Y-11198744D02*
X6131649Y-11198744D01*
X6131649Y-11198744D02*
X6112601Y-11189220D01*
X6112601Y-11189220D02*
X6103077Y-11179696D01*
X6103077Y-11179696D02*
X6093553Y-11160649D01*
X6093553Y-11160649D02*
X6084030Y-11122553D01*
X6084030Y-11122553D02*
X6084030Y-11074934D01*
X6084030Y-11074934D02*
X6093553Y-11036839D01*
X6093553Y-11036839D02*
X6103077Y-11017791D01*
X6103077Y-11017791D02*
X6112601Y-11008268D01*
X6112601Y-11008268D02*
X6131649Y-10998744D01*
X6284030Y-11198744D02*
X6284030Y-11065410D01*
X6284030Y-11084458D02*
X6293553Y-11074934D01*
X6293553Y-11074934D02*
X6312601Y-11065410D01*
X6312601Y-11065410D02*
X6341172Y-11065410D01*
X6341172Y-11065410D02*
X6360220Y-11074934D01*
X6360220Y-11074934D02*
X6369744Y-11093982D01*
X6369744Y-11093982D02*
X6369744Y-11198744D01*
X6369744Y-11093982D02*
X6379268Y-11074934D01*
X6379268Y-11074934D02*
X6398315Y-11065410D01*
X6398315Y-11065410D02*
X6426887Y-11065410D01*
X6426887Y-11065410D02*
X6445934Y-11074934D01*
X6445934Y-11074934D02*
X6455458Y-11093982D01*
X6455458Y-11093982D02*
X6455458Y-11198744D01*
X6550696Y-11198744D02*
X6550696Y-11065410D01*
X6550696Y-11084458D02*
X6560220Y-11074934D01*
X6560220Y-11074934D02*
X6579268Y-11065410D01*
X6579268Y-11065410D02*
X6607839Y-11065410D01*
X6607839Y-11065410D02*
X6626887Y-11074934D01*
X6626887Y-11074934D02*
X6636411Y-11093982D01*
X6636411Y-11093982D02*
X6636411Y-11198744D01*
X6636411Y-11093982D02*
X6645934Y-11074934D01*
X6645934Y-11074934D02*
X6664982Y-11065410D01*
X6664982Y-11065410D02*
X6693553Y-11065410D01*
X6693553Y-11065410D02*
X6712601Y-11074934D01*
X6712601Y-11074934D02*
X6722125Y-11093982D01*
X6722125Y-11093982D02*
X6722125Y-11198744D01*
X7112601Y-10989220D02*
X6941173Y-11246363D01*
X7369744Y-10998744D02*
X7388792Y-10998744D01*
X7388792Y-10998744D02*
X7407839Y-11008268D01*
X7407839Y-11008268D02*
X7417363Y-11017791D01*
X7417363Y-11017791D02*
X7426887Y-11036839D01*
X7426887Y-11036839D02*
X7436411Y-11074934D01*
X7436411Y-11074934D02*
X7436411Y-11122553D01*
X7436411Y-11122553D02*
X7426887Y-11160649D01*
X7426887Y-11160649D02*
X7417363Y-11179696D01*
X7417363Y-11179696D02*
X7407839Y-11189220D01*
X7407839Y-11189220D02*
X7388792Y-11198744D01*
X7388792Y-11198744D02*
X7369744Y-11198744D01*
X7369744Y-11198744D02*
X7350696Y-11189220D01*
X7350696Y-11189220D02*
X7341173Y-11179696D01*
X7341173Y-11179696D02*
X7331649Y-11160649D01*
X7331649Y-11160649D02*
X7322125Y-11122553D01*
X7322125Y-11122553D02*
X7322125Y-11074934D01*
X7322125Y-11074934D02*
X7331649Y-11036839D01*
X7331649Y-11036839D02*
X7341173Y-11017791D01*
X7341173Y-11017791D02*
X7350696Y-11008268D01*
X7350696Y-11008268D02*
X7369744Y-10998744D01*
X7522125Y-11179696D02*
X7531649Y-11189220D01*
X7531649Y-11189220D02*
X7522125Y-11198744D01*
X7522125Y-11198744D02*
X7512601Y-11189220D01*
X7512601Y-11189220D02*
X7522125Y-11179696D01*
X7522125Y-11179696D02*
X7522125Y-11198744D01*
X7655458Y-10998744D02*
X7674506Y-10998744D01*
X7674506Y-10998744D02*
X7693554Y-11008268D01*
X7693554Y-11008268D02*
X7703077Y-11017791D01*
X7703077Y-11017791D02*
X7712601Y-11036839D01*
X7712601Y-11036839D02*
X7722125Y-11074934D01*
X7722125Y-11074934D02*
X7722125Y-11122553D01*
X7722125Y-11122553D02*
X7712601Y-11160649D01*
X7712601Y-11160649D02*
X7703077Y-11179696D01*
X7703077Y-11179696D02*
X7693554Y-11189220D01*
X7693554Y-11189220D02*
X7674506Y-11198744D01*
X7674506Y-11198744D02*
X7655458Y-11198744D01*
X7655458Y-11198744D02*
X7636411Y-11189220D01*
X7636411Y-11189220D02*
X7626887Y-11179696D01*
X7626887Y-11179696D02*
X7617363Y-11160649D01*
X7617363Y-11160649D02*
X7607839Y-11122553D01*
X7607839Y-11122553D02*
X7607839Y-11074934D01*
X7607839Y-11074934D02*
X7617363Y-11036839D01*
X7617363Y-11036839D02*
X7626887Y-11017791D01*
X7626887Y-11017791D02*
X7636411Y-11008268D01*
X7636411Y-11008268D02*
X7655458Y-10998744D01*
X7845934Y-10998744D02*
X7864982Y-10998744D01*
X7864982Y-10998744D02*
X7884030Y-11008268D01*
X7884030Y-11008268D02*
X7893554Y-11017791D01*
X7893554Y-11017791D02*
X7903077Y-11036839D01*
X7903077Y-11036839D02*
X7912601Y-11074934D01*
X7912601Y-11074934D02*
X7912601Y-11122553D01*
X7912601Y-11122553D02*
X7903077Y-11160649D01*
X7903077Y-11160649D02*
X7893554Y-11179696D01*
X7893554Y-11179696D02*
X7884030Y-11189220D01*
X7884030Y-11189220D02*
X7864982Y-11198744D01*
X7864982Y-11198744D02*
X7845934Y-11198744D01*
X7845934Y-11198744D02*
X7826887Y-11189220D01*
X7826887Y-11189220D02*
X7817363Y-11179696D01*
X7817363Y-11179696D02*
X7807839Y-11160649D01*
X7807839Y-11160649D02*
X7798315Y-11122553D01*
X7798315Y-11122553D02*
X7798315Y-11074934D01*
X7798315Y-11074934D02*
X7807839Y-11036839D01*
X7807839Y-11036839D02*
X7817363Y-11017791D01*
X7817363Y-11017791D02*
X7826887Y-11008268D01*
X7826887Y-11008268D02*
X7845934Y-10998744D01*
X7979268Y-10998744D02*
X8112601Y-10998744D01*
X8112601Y-10998744D02*
X8026887Y-11198744D01*
X8198315Y-11198744D02*
X8236411Y-11198744D01*
X8236411Y-11198744D02*
X8255458Y-11189220D01*
X8255458Y-11189220D02*
X8264982Y-11179696D01*
X8264982Y-11179696D02*
X8284030Y-11151125D01*
X8284030Y-11151125D02*
X8293554Y-11113030D01*
X8293554Y-11113030D02*
X8293554Y-11036839D01*
X8293554Y-11036839D02*
X8284030Y-11017791D01*
X8284030Y-11017791D02*
X8274506Y-11008268D01*
X8274506Y-11008268D02*
X8255458Y-10998744D01*
X8255458Y-10998744D02*
X8217363Y-10998744D01*
X8217363Y-10998744D02*
X8198315Y-11008268D01*
X8198315Y-11008268D02*
X8188792Y-11017791D01*
X8188792Y-11017791D02*
X8179268Y-11036839D01*
X8179268Y-11036839D02*
X8179268Y-11084458D01*
X8179268Y-11084458D02*
X8188792Y-11103506D01*
X8188792Y-11103506D02*
X8198315Y-11113030D01*
X8198315Y-11113030D02*
X8217363Y-11122553D01*
X8217363Y-11122553D02*
X8255458Y-11122553D01*
X8255458Y-11122553D02*
X8274506Y-11113030D01*
X8274506Y-11113030D02*
X8284030Y-11103506D01*
X8284030Y-11103506D02*
X8293554Y-11084458D01*
X8369744Y-10998744D02*
X8369744Y-11036839D01*
X8445935Y-10998744D02*
X8445935Y-11036839D01*
X8741173Y-11274934D02*
X8731649Y-11265410D01*
X8731649Y-11265410D02*
X8712601Y-11236839D01*
X8712601Y-11236839D02*
X8703078Y-11217791D01*
X8703078Y-11217791D02*
X8693554Y-11189220D01*
X8693554Y-11189220D02*
X8684030Y-11141601D01*
X8684030Y-11141601D02*
X8684030Y-11103506D01*
X8684030Y-11103506D02*
X8693554Y-11055887D01*
X8693554Y-11055887D02*
X8703078Y-11027315D01*
X8703078Y-11027315D02*
X8712601Y-11008268D01*
X8712601Y-11008268D02*
X8731649Y-10979696D01*
X8731649Y-10979696D02*
X8741173Y-10970172D01*
X8922125Y-11198744D02*
X8807839Y-11198744D01*
X8864982Y-11198744D02*
X8864982Y-10998744D01*
X8864982Y-10998744D02*
X8845935Y-11027315D01*
X8845935Y-11027315D02*
X8826887Y-11046363D01*
X8826887Y-11046363D02*
X8807839Y-11055887D01*
X9093554Y-11065410D02*
X9093554Y-11198744D01*
X9045935Y-10989220D02*
X8998316Y-11132077D01*
X8998316Y-11132077D02*
X9122125Y-11132077D01*
X9350697Y-11198744D02*
X9350697Y-10998744D01*
X9436411Y-11198744D02*
X9436411Y-11093982D01*
X9436411Y-11093982D02*
X9426887Y-11074934D01*
X9426887Y-11074934D02*
X9407840Y-11065410D01*
X9407840Y-11065410D02*
X9379268Y-11065410D01*
X9379268Y-11065410D02*
X9360220Y-11074934D01*
X9360220Y-11074934D02*
X9350697Y-11084458D01*
X9560220Y-11198744D02*
X9541173Y-11189220D01*
X9541173Y-11189220D02*
X9531649Y-11179696D01*
X9531649Y-11179696D02*
X9522125Y-11160649D01*
X9522125Y-11160649D02*
X9522125Y-11103506D01*
X9522125Y-11103506D02*
X9531649Y-11084458D01*
X9531649Y-11084458D02*
X9541173Y-11074934D01*
X9541173Y-11074934D02*
X9560220Y-11065410D01*
X9560220Y-11065410D02*
X9588792Y-11065410D01*
X9588792Y-11065410D02*
X9607840Y-11074934D01*
X9607840Y-11074934D02*
X9617363Y-11084458D01*
X9617363Y-11084458D02*
X9626887Y-11103506D01*
X9626887Y-11103506D02*
X9626887Y-11160649D01*
X9626887Y-11160649D02*
X9617363Y-11179696D01*
X9617363Y-11179696D02*
X9607840Y-11189220D01*
X9607840Y-11189220D02*
X9588792Y-11198744D01*
X9588792Y-11198744D02*
X9560220Y-11198744D01*
X9741173Y-11198744D02*
X9722125Y-11189220D01*
X9722125Y-11189220D02*
X9712601Y-11170172D01*
X9712601Y-11170172D02*
X9712601Y-10998744D01*
X9893554Y-11189220D02*
X9874506Y-11198744D01*
X9874506Y-11198744D02*
X9836411Y-11198744D01*
X9836411Y-11198744D02*
X9817363Y-11189220D01*
X9817363Y-11189220D02*
X9807840Y-11170172D01*
X9807840Y-11170172D02*
X9807840Y-11093982D01*
X9807840Y-11093982D02*
X9817363Y-11074934D01*
X9817363Y-11074934D02*
X9836411Y-11065410D01*
X9836411Y-11065410D02*
X9874506Y-11065410D01*
X9874506Y-11065410D02*
X9893554Y-11074934D01*
X9893554Y-11074934D02*
X9903078Y-11093982D01*
X9903078Y-11093982D02*
X9903078Y-11113030D01*
X9903078Y-11113030D02*
X9807840Y-11132077D01*
X9979268Y-11189220D02*
X9998316Y-11198744D01*
X9998316Y-11198744D02*
X10036411Y-11198744D01*
X10036411Y-11198744D02*
X10055459Y-11189220D01*
X10055459Y-11189220D02*
X10064982Y-11170172D01*
X10064982Y-11170172D02*
X10064982Y-11160649D01*
X10064982Y-11160649D02*
X10055459Y-11141601D01*
X10055459Y-11141601D02*
X10036411Y-11132077D01*
X10036411Y-11132077D02*
X10007840Y-11132077D01*
X10007840Y-11132077D02*
X9988792Y-11122553D01*
X9988792Y-11122553D02*
X9979268Y-11103506D01*
X9979268Y-11103506D02*
X9979268Y-11093982D01*
X9979268Y-11093982D02*
X9988792Y-11074934D01*
X9988792Y-11074934D02*
X10007840Y-11065410D01*
X10007840Y-11065410D02*
X10036411Y-11065410D01*
X10036411Y-11065410D02*
X10055459Y-11074934D01*
X10131649Y-11274934D02*
X10141173Y-11265410D01*
X10141173Y-11265410D02*
X10160221Y-11236839D01*
X10160221Y-11236839D02*
X10169744Y-11217791D01*
X10169744Y-11217791D02*
X10179268Y-11189220D01*
X10179268Y-11189220D02*
X10188792Y-11141601D01*
X10188792Y-11141601D02*
X10188792Y-11103506D01*
X10188792Y-11103506D02*
X10179268Y-11055887D01*
X10179268Y-11055887D02*
X10169744Y-11027315D01*
X10169744Y-11027315D02*
X10160221Y-11008268D01*
X10160221Y-11008268D02*
X10141173Y-10979696D01*
X10141173Y-10979696D02*
X10131649Y-10970172D01*
D13*
X5166110Y-11371260D02*
G75*
G03*
X5166110Y-11371260I-12500J0D01*
G01*
D11*
X5464982Y-11262744D02*
X5484030Y-11262744D01*
X5484030Y-11262744D02*
X5503077Y-11272268D01*
X5503077Y-11272268D02*
X5512601Y-11281791D01*
X5512601Y-11281791D02*
X5522125Y-11300839D01*
X5522125Y-11300839D02*
X5531649Y-11338934D01*
X5531649Y-11338934D02*
X5531649Y-11386553D01*
X5531649Y-11386553D02*
X5522125Y-11424648D01*
X5522125Y-11424648D02*
X5512601Y-11443696D01*
X5512601Y-11443696D02*
X5503077Y-11453220D01*
X5503077Y-11453220D02*
X5484030Y-11462744D01*
X5484030Y-11462744D02*
X5464982Y-11462744D01*
X5464982Y-11462744D02*
X5445934Y-11453220D01*
X5445934Y-11453220D02*
X5436411Y-11443696D01*
X5436411Y-11443696D02*
X5426887Y-11424648D01*
X5426887Y-11424648D02*
X5417363Y-11386553D01*
X5417363Y-11386553D02*
X5417363Y-11338934D01*
X5417363Y-11338934D02*
X5426887Y-11300839D01*
X5426887Y-11300839D02*
X5436411Y-11281791D01*
X5436411Y-11281791D02*
X5445934Y-11272268D01*
X5445934Y-11272268D02*
X5464982Y-11262744D01*
X5617363Y-11443696D02*
X5626887Y-11453220D01*
X5626887Y-11453220D02*
X5617363Y-11462744D01*
X5617363Y-11462744D02*
X5607839Y-11453220D01*
X5607839Y-11453220D02*
X5617363Y-11443696D01*
X5617363Y-11443696D02*
X5617363Y-11462744D01*
X5703077Y-11281791D02*
X5712601Y-11272268D01*
X5712601Y-11272268D02*
X5731649Y-11262744D01*
X5731649Y-11262744D02*
X5779268Y-11262744D01*
X5779268Y-11262744D02*
X5798315Y-11272268D01*
X5798315Y-11272268D02*
X5807839Y-11281791D01*
X5807839Y-11281791D02*
X5817363Y-11300839D01*
X5817363Y-11300839D02*
X5817363Y-11319887D01*
X5817363Y-11319887D02*
X5807839Y-11348458D01*
X5807839Y-11348458D02*
X5693553Y-11462744D01*
X5693553Y-11462744D02*
X5817363Y-11462744D01*
X5998315Y-11262744D02*
X5903077Y-11262744D01*
X5903077Y-11262744D02*
X5893553Y-11357982D01*
X5893553Y-11357982D02*
X5903077Y-11348458D01*
X5903077Y-11348458D02*
X5922125Y-11338934D01*
X5922125Y-11338934D02*
X5969744Y-11338934D01*
X5969744Y-11338934D02*
X5988791Y-11348458D01*
X5988791Y-11348458D02*
X5998315Y-11357982D01*
X5998315Y-11357982D02*
X6007839Y-11377029D01*
X6007839Y-11377029D02*
X6007839Y-11424648D01*
X6007839Y-11424648D02*
X5998315Y-11443696D01*
X5998315Y-11443696D02*
X5988791Y-11453220D01*
X5988791Y-11453220D02*
X5969744Y-11462744D01*
X5969744Y-11462744D02*
X5922125Y-11462744D01*
X5922125Y-11462744D02*
X5903077Y-11453220D01*
X5903077Y-11453220D02*
X5893553Y-11443696D01*
X6131649Y-11262744D02*
X6150696Y-11262744D01*
X6150696Y-11262744D02*
X6169744Y-11272268D01*
X6169744Y-11272268D02*
X6179268Y-11281791D01*
X6179268Y-11281791D02*
X6188791Y-11300839D01*
X6188791Y-11300839D02*
X6198315Y-11338934D01*
X6198315Y-11338934D02*
X6198315Y-11386553D01*
X6198315Y-11386553D02*
X6188791Y-11424648D01*
X6188791Y-11424648D02*
X6179268Y-11443696D01*
X6179268Y-11443696D02*
X6169744Y-11453220D01*
X6169744Y-11453220D02*
X6150696Y-11462744D01*
X6150696Y-11462744D02*
X6131649Y-11462744D01*
X6131649Y-11462744D02*
X6112601Y-11453220D01*
X6112601Y-11453220D02*
X6103077Y-11443696D01*
X6103077Y-11443696D02*
X6093553Y-11424648D01*
X6093553Y-11424648D02*
X6084030Y-11386553D01*
X6084030Y-11386553D02*
X6084030Y-11338934D01*
X6084030Y-11338934D02*
X6093553Y-11300839D01*
X6093553Y-11300839D02*
X6103077Y-11281791D01*
X6103077Y-11281791D02*
X6112601Y-11272268D01*
X6112601Y-11272268D02*
X6131649Y-11262744D01*
X6284030Y-11462744D02*
X6284030Y-11329410D01*
X6284030Y-11348458D02*
X6293553Y-11338934D01*
X6293553Y-11338934D02*
X6312601Y-11329410D01*
X6312601Y-11329410D02*
X6341172Y-11329410D01*
X6341172Y-11329410D02*
X6360220Y-11338934D01*
X6360220Y-11338934D02*
X6369744Y-11357982D01*
X6369744Y-11357982D02*
X6369744Y-11462744D01*
X6369744Y-11357982D02*
X6379268Y-11338934D01*
X6379268Y-11338934D02*
X6398315Y-11329410D01*
X6398315Y-11329410D02*
X6426887Y-11329410D01*
X6426887Y-11329410D02*
X6445934Y-11338934D01*
X6445934Y-11338934D02*
X6455458Y-11357982D01*
X6455458Y-11357982D02*
X6455458Y-11462744D01*
X6550696Y-11462744D02*
X6550696Y-11329410D01*
X6550696Y-11348458D02*
X6560220Y-11338934D01*
X6560220Y-11338934D02*
X6579268Y-11329410D01*
X6579268Y-11329410D02*
X6607839Y-11329410D01*
X6607839Y-11329410D02*
X6626887Y-11338934D01*
X6626887Y-11338934D02*
X6636411Y-11357982D01*
X6636411Y-11357982D02*
X6636411Y-11462744D01*
X6636411Y-11357982D02*
X6645934Y-11338934D01*
X6645934Y-11338934D02*
X6664982Y-11329410D01*
X6664982Y-11329410D02*
X6693553Y-11329410D01*
X6693553Y-11329410D02*
X6712601Y-11338934D01*
X6712601Y-11338934D02*
X6722125Y-11357982D01*
X6722125Y-11357982D02*
X6722125Y-11462744D01*
X7112601Y-11253220D02*
X6941173Y-11510363D01*
X7369744Y-11262744D02*
X7388792Y-11262744D01*
X7388792Y-11262744D02*
X7407839Y-11272268D01*
X7407839Y-11272268D02*
X7417363Y-11281791D01*
X7417363Y-11281791D02*
X7426887Y-11300839D01*
X7426887Y-11300839D02*
X7436411Y-11338934D01*
X7436411Y-11338934D02*
X7436411Y-11386553D01*
X7436411Y-11386553D02*
X7426887Y-11424648D01*
X7426887Y-11424648D02*
X7417363Y-11443696D01*
X7417363Y-11443696D02*
X7407839Y-11453220D01*
X7407839Y-11453220D02*
X7388792Y-11462744D01*
X7388792Y-11462744D02*
X7369744Y-11462744D01*
X7369744Y-11462744D02*
X7350696Y-11453220D01*
X7350696Y-11453220D02*
X7341173Y-11443696D01*
X7341173Y-11443696D02*
X7331649Y-11424648D01*
X7331649Y-11424648D02*
X7322125Y-11386553D01*
X7322125Y-11386553D02*
X7322125Y-11338934D01*
X7322125Y-11338934D02*
X7331649Y-11300839D01*
X7331649Y-11300839D02*
X7341173Y-11281791D01*
X7341173Y-11281791D02*
X7350696Y-11272268D01*
X7350696Y-11272268D02*
X7369744Y-11262744D01*
X7522125Y-11443696D02*
X7531649Y-11453220D01*
X7531649Y-11453220D02*
X7522125Y-11462744D01*
X7522125Y-11462744D02*
X7512601Y-11453220D01*
X7512601Y-11453220D02*
X7522125Y-11443696D01*
X7522125Y-11443696D02*
X7522125Y-11462744D01*
X7655458Y-11262744D02*
X7674506Y-11262744D01*
X7674506Y-11262744D02*
X7693554Y-11272268D01*
X7693554Y-11272268D02*
X7703077Y-11281791D01*
X7703077Y-11281791D02*
X7712601Y-11300839D01*
X7712601Y-11300839D02*
X7722125Y-11338934D01*
X7722125Y-11338934D02*
X7722125Y-11386553D01*
X7722125Y-11386553D02*
X7712601Y-11424648D01*
X7712601Y-11424648D02*
X7703077Y-11443696D01*
X7703077Y-11443696D02*
X7693554Y-11453220D01*
X7693554Y-11453220D02*
X7674506Y-11462744D01*
X7674506Y-11462744D02*
X7655458Y-11462744D01*
X7655458Y-11462744D02*
X7636411Y-11453220D01*
X7636411Y-11453220D02*
X7626887Y-11443696D01*
X7626887Y-11443696D02*
X7617363Y-11424648D01*
X7617363Y-11424648D02*
X7607839Y-11386553D01*
X7607839Y-11386553D02*
X7607839Y-11338934D01*
X7607839Y-11338934D02*
X7617363Y-11300839D01*
X7617363Y-11300839D02*
X7626887Y-11281791D01*
X7626887Y-11281791D02*
X7636411Y-11272268D01*
X7636411Y-11272268D02*
X7655458Y-11262744D01*
X7845934Y-11262744D02*
X7864982Y-11262744D01*
X7864982Y-11262744D02*
X7884030Y-11272268D01*
X7884030Y-11272268D02*
X7893554Y-11281791D01*
X7893554Y-11281791D02*
X7903077Y-11300839D01*
X7903077Y-11300839D02*
X7912601Y-11338934D01*
X7912601Y-11338934D02*
X7912601Y-11386553D01*
X7912601Y-11386553D02*
X7903077Y-11424648D01*
X7903077Y-11424648D02*
X7893554Y-11443696D01*
X7893554Y-11443696D02*
X7884030Y-11453220D01*
X7884030Y-11453220D02*
X7864982Y-11462744D01*
X7864982Y-11462744D02*
X7845934Y-11462744D01*
X7845934Y-11462744D02*
X7826887Y-11453220D01*
X7826887Y-11453220D02*
X7817363Y-11443696D01*
X7817363Y-11443696D02*
X7807839Y-11424648D01*
X7807839Y-11424648D02*
X7798315Y-11386553D01*
X7798315Y-11386553D02*
X7798315Y-11338934D01*
X7798315Y-11338934D02*
X7807839Y-11300839D01*
X7807839Y-11300839D02*
X7817363Y-11281791D01*
X7817363Y-11281791D02*
X7826887Y-11272268D01*
X7826887Y-11272268D02*
X7845934Y-11262744D01*
X8007839Y-11462744D02*
X8045934Y-11462744D01*
X8045934Y-11462744D02*
X8064982Y-11453220D01*
X8064982Y-11453220D02*
X8074506Y-11443696D01*
X8074506Y-11443696D02*
X8093554Y-11415125D01*
X8093554Y-11415125D02*
X8103077Y-11377029D01*
X8103077Y-11377029D02*
X8103077Y-11300839D01*
X8103077Y-11300839D02*
X8093554Y-11281791D01*
X8093554Y-11281791D02*
X8084030Y-11272268D01*
X8084030Y-11272268D02*
X8064982Y-11262744D01*
X8064982Y-11262744D02*
X8026887Y-11262744D01*
X8026887Y-11262744D02*
X8007839Y-11272268D01*
X8007839Y-11272268D02*
X7998315Y-11281791D01*
X7998315Y-11281791D02*
X7988792Y-11300839D01*
X7988792Y-11300839D02*
X7988792Y-11348458D01*
X7988792Y-11348458D02*
X7998315Y-11367506D01*
X7998315Y-11367506D02*
X8007839Y-11377029D01*
X8007839Y-11377029D02*
X8026887Y-11386553D01*
X8026887Y-11386553D02*
X8064982Y-11386553D01*
X8064982Y-11386553D02*
X8084030Y-11377029D01*
X8084030Y-11377029D02*
X8093554Y-11367506D01*
X8093554Y-11367506D02*
X8103077Y-11348458D01*
X8217363Y-11348458D02*
X8198315Y-11338934D01*
X8198315Y-11338934D02*
X8188792Y-11329410D01*
X8188792Y-11329410D02*
X8179268Y-11310363D01*
X8179268Y-11310363D02*
X8179268Y-11300839D01*
X8179268Y-11300839D02*
X8188792Y-11281791D01*
X8188792Y-11281791D02*
X8198315Y-11272268D01*
X8198315Y-11272268D02*
X8217363Y-11262744D01*
X8217363Y-11262744D02*
X8255458Y-11262744D01*
X8255458Y-11262744D02*
X8274506Y-11272268D01*
X8274506Y-11272268D02*
X8284030Y-11281791D01*
X8284030Y-11281791D02*
X8293554Y-11300839D01*
X8293554Y-11300839D02*
X8293554Y-11310363D01*
X8293554Y-11310363D02*
X8284030Y-11329410D01*
X8284030Y-11329410D02*
X8274506Y-11338934D01*
X8274506Y-11338934D02*
X8255458Y-11348458D01*
X8255458Y-11348458D02*
X8217363Y-11348458D01*
X8217363Y-11348458D02*
X8198315Y-11357982D01*
X8198315Y-11357982D02*
X8188792Y-11367506D01*
X8188792Y-11367506D02*
X8179268Y-11386553D01*
X8179268Y-11386553D02*
X8179268Y-11424648D01*
X8179268Y-11424648D02*
X8188792Y-11443696D01*
X8188792Y-11443696D02*
X8198315Y-11453220D01*
X8198315Y-11453220D02*
X8217363Y-11462744D01*
X8217363Y-11462744D02*
X8255458Y-11462744D01*
X8255458Y-11462744D02*
X8274506Y-11453220D01*
X8274506Y-11453220D02*
X8284030Y-11443696D01*
X8284030Y-11443696D02*
X8293554Y-11424648D01*
X8293554Y-11424648D02*
X8293554Y-11386553D01*
X8293554Y-11386553D02*
X8284030Y-11367506D01*
X8284030Y-11367506D02*
X8274506Y-11357982D01*
X8274506Y-11357982D02*
X8255458Y-11348458D01*
X8369744Y-11262744D02*
X8369744Y-11300839D01*
X8445935Y-11262744D02*
X8445935Y-11300839D01*
X8741173Y-11538934D02*
X8731649Y-11529410D01*
X8731649Y-11529410D02*
X8712601Y-11500839D01*
X8712601Y-11500839D02*
X8703078Y-11481791D01*
X8703078Y-11481791D02*
X8693554Y-11453220D01*
X8693554Y-11453220D02*
X8684030Y-11405601D01*
X8684030Y-11405601D02*
X8684030Y-11367506D01*
X8684030Y-11367506D02*
X8693554Y-11319887D01*
X8693554Y-11319887D02*
X8703078Y-11291315D01*
X8703078Y-11291315D02*
X8712601Y-11272268D01*
X8712601Y-11272268D02*
X8731649Y-11243696D01*
X8731649Y-11243696D02*
X8741173Y-11234172D01*
X8922125Y-11462744D02*
X8807839Y-11462744D01*
X8864982Y-11462744D02*
X8864982Y-11262744D01*
X8864982Y-11262744D02*
X8845935Y-11291315D01*
X8845935Y-11291315D02*
X8826887Y-11310363D01*
X8826887Y-11310363D02*
X8807839Y-11319887D01*
X9017363Y-11462744D02*
X9055458Y-11462744D01*
X9055458Y-11462744D02*
X9074506Y-11453220D01*
X9074506Y-11453220D02*
X9084030Y-11443696D01*
X9084030Y-11443696D02*
X9103078Y-11415125D01*
X9103078Y-11415125D02*
X9112601Y-11377029D01*
X9112601Y-11377029D02*
X9112601Y-11300839D01*
X9112601Y-11300839D02*
X9103078Y-11281791D01*
X9103078Y-11281791D02*
X9093554Y-11272268D01*
X9093554Y-11272268D02*
X9074506Y-11262744D01*
X9074506Y-11262744D02*
X9036411Y-11262744D01*
X9036411Y-11262744D02*
X9017363Y-11272268D01*
X9017363Y-11272268D02*
X9007839Y-11281791D01*
X9007839Y-11281791D02*
X8998316Y-11300839D01*
X8998316Y-11300839D02*
X8998316Y-11348458D01*
X8998316Y-11348458D02*
X9007839Y-11367506D01*
X9007839Y-11367506D02*
X9017363Y-11377029D01*
X9017363Y-11377029D02*
X9036411Y-11386553D01*
X9036411Y-11386553D02*
X9074506Y-11386553D01*
X9074506Y-11386553D02*
X9093554Y-11377029D01*
X9093554Y-11377029D02*
X9103078Y-11367506D01*
X9103078Y-11367506D02*
X9112601Y-11348458D01*
X9179268Y-11262744D02*
X9312601Y-11262744D01*
X9312601Y-11262744D02*
X9226887Y-11462744D01*
X9541173Y-11462744D02*
X9541173Y-11262744D01*
X9626887Y-11462744D02*
X9626887Y-11357982D01*
X9626887Y-11357982D02*
X9617363Y-11338934D01*
X9617363Y-11338934D02*
X9598316Y-11329410D01*
X9598316Y-11329410D02*
X9569744Y-11329410D01*
X9569744Y-11329410D02*
X9550697Y-11338934D01*
X9550697Y-11338934D02*
X9541173Y-11348458D01*
X9750697Y-11462744D02*
X9731649Y-11453220D01*
X9731649Y-11453220D02*
X9722125Y-11443696D01*
X9722125Y-11443696D02*
X9712601Y-11424648D01*
X9712601Y-11424648D02*
X9712601Y-11367506D01*
X9712601Y-11367506D02*
X9722125Y-11348458D01*
X9722125Y-11348458D02*
X9731649Y-11338934D01*
X9731649Y-11338934D02*
X9750697Y-11329410D01*
X9750697Y-11329410D02*
X9779268Y-11329410D01*
X9779268Y-11329410D02*
X9798316Y-11338934D01*
X9798316Y-11338934D02*
X9807840Y-11348458D01*
X9807840Y-11348458D02*
X9817363Y-11367506D01*
X9817363Y-11367506D02*
X9817363Y-11424648D01*
X9817363Y-11424648D02*
X9807840Y-11443696D01*
X9807840Y-11443696D02*
X9798316Y-11453220D01*
X9798316Y-11453220D02*
X9779268Y-11462744D01*
X9779268Y-11462744D02*
X9750697Y-11462744D01*
X9931649Y-11462744D02*
X9912601Y-11453220D01*
X9912601Y-11453220D02*
X9903078Y-11434172D01*
X9903078Y-11434172D02*
X9903078Y-11262744D01*
X10084030Y-11453220D02*
X10064982Y-11462744D01*
X10064982Y-11462744D02*
X10026887Y-11462744D01*
X10026887Y-11462744D02*
X10007840Y-11453220D01*
X10007840Y-11453220D02*
X9998316Y-11434172D01*
X9998316Y-11434172D02*
X9998316Y-11357982D01*
X9998316Y-11357982D02*
X10007840Y-11338934D01*
X10007840Y-11338934D02*
X10026887Y-11329410D01*
X10026887Y-11329410D02*
X10064982Y-11329410D01*
X10064982Y-11329410D02*
X10084030Y-11338934D01*
X10084030Y-11338934D02*
X10093554Y-11357982D01*
X10093554Y-11357982D02*
X10093554Y-11377029D01*
X10093554Y-11377029D02*
X9998316Y-11396077D01*
X10169744Y-11453220D02*
X10188792Y-11462744D01*
X10188792Y-11462744D02*
X10226887Y-11462744D01*
X10226887Y-11462744D02*
X10245935Y-11453220D01*
X10245935Y-11453220D02*
X10255459Y-11434172D01*
X10255459Y-11434172D02*
X10255459Y-11424648D01*
X10255459Y-11424648D02*
X10245935Y-11405601D01*
X10245935Y-11405601D02*
X10226887Y-11396077D01*
X10226887Y-11396077D02*
X10198316Y-11396077D01*
X10198316Y-11396077D02*
X10179268Y-11386553D01*
X10179268Y-11386553D02*
X10169744Y-11367506D01*
X10169744Y-11367506D02*
X10169744Y-11357982D01*
X10169744Y-11357982D02*
X10179268Y-11338934D01*
X10179268Y-11338934D02*
X10198316Y-11329410D01*
X10198316Y-11329410D02*
X10226887Y-11329410D01*
X10226887Y-11329410D02*
X10245935Y-11338934D01*
X10322125Y-11538934D02*
X10331649Y-11529410D01*
X10331649Y-11529410D02*
X10350697Y-11500839D01*
X10350697Y-11500839D02*
X10360221Y-11481791D01*
X10360221Y-11481791D02*
X10369744Y-11453220D01*
X10369744Y-11453220D02*
X10379268Y-11405601D01*
X10379268Y-11405601D02*
X10379268Y-11367506D01*
X10379268Y-11367506D02*
X10369744Y-11319887D01*
X10369744Y-11319887D02*
X10360221Y-11291315D01*
X10360221Y-11291315D02*
X10350697Y-11272268D01*
X10350697Y-11272268D02*
X10331649Y-11243696D01*
X10331649Y-11243696D02*
X10322125Y-11234172D01*
D14*
X5151110Y-11620260D02*
X5151110Y-11650260D01*
X5136110Y-11635260D02*
X5166110Y-11635260D01*
D11*
X5464982Y-11526744D02*
X5484030Y-11526744D01*
X5484030Y-11526744D02*
X5503077Y-11536268D01*
X5503077Y-11536268D02*
X5512601Y-11545791D01*
X5512601Y-11545791D02*
X5522125Y-11564839D01*
X5522125Y-11564839D02*
X5531649Y-11602934D01*
X5531649Y-11602934D02*
X5531649Y-11650553D01*
X5531649Y-11650553D02*
X5522125Y-11688648D01*
X5522125Y-11688648D02*
X5512601Y-11707696D01*
X5512601Y-11707696D02*
X5503077Y-11717220D01*
X5503077Y-11717220D02*
X5484030Y-11726744D01*
X5484030Y-11726744D02*
X5464982Y-11726744D01*
X5464982Y-11726744D02*
X5445934Y-11717220D01*
X5445934Y-11717220D02*
X5436411Y-11707696D01*
X5436411Y-11707696D02*
X5426887Y-11688648D01*
X5426887Y-11688648D02*
X5417363Y-11650553D01*
X5417363Y-11650553D02*
X5417363Y-11602934D01*
X5417363Y-11602934D02*
X5426887Y-11564839D01*
X5426887Y-11564839D02*
X5436411Y-11545791D01*
X5436411Y-11545791D02*
X5445934Y-11536268D01*
X5445934Y-11536268D02*
X5464982Y-11526744D01*
X5617363Y-11707696D02*
X5626887Y-11717220D01*
X5626887Y-11717220D02*
X5617363Y-11726744D01*
X5617363Y-11726744D02*
X5607839Y-11717220D01*
X5607839Y-11717220D02*
X5617363Y-11707696D01*
X5617363Y-11707696D02*
X5617363Y-11726744D01*
X5693553Y-11526744D02*
X5817363Y-11526744D01*
X5817363Y-11526744D02*
X5750696Y-11602934D01*
X5750696Y-11602934D02*
X5779268Y-11602934D01*
X5779268Y-11602934D02*
X5798315Y-11612458D01*
X5798315Y-11612458D02*
X5807839Y-11621982D01*
X5807839Y-11621982D02*
X5817363Y-11641029D01*
X5817363Y-11641029D02*
X5817363Y-11688648D01*
X5817363Y-11688648D02*
X5807839Y-11707696D01*
X5807839Y-11707696D02*
X5798315Y-11717220D01*
X5798315Y-11717220D02*
X5779268Y-11726744D01*
X5779268Y-11726744D02*
X5722125Y-11726744D01*
X5722125Y-11726744D02*
X5703077Y-11717220D01*
X5703077Y-11717220D02*
X5693553Y-11707696D01*
X5941172Y-11526744D02*
X5960220Y-11526744D01*
X5960220Y-11526744D02*
X5979268Y-11536268D01*
X5979268Y-11536268D02*
X5988791Y-11545791D01*
X5988791Y-11545791D02*
X5998315Y-11564839D01*
X5998315Y-11564839D02*
X6007839Y-11602934D01*
X6007839Y-11602934D02*
X6007839Y-11650553D01*
X6007839Y-11650553D02*
X5998315Y-11688648D01*
X5998315Y-11688648D02*
X5988791Y-11707696D01*
X5988791Y-11707696D02*
X5979268Y-11717220D01*
X5979268Y-11717220D02*
X5960220Y-11726744D01*
X5960220Y-11726744D02*
X5941172Y-11726744D01*
X5941172Y-11726744D02*
X5922125Y-11717220D01*
X5922125Y-11717220D02*
X5912601Y-11707696D01*
X5912601Y-11707696D02*
X5903077Y-11688648D01*
X5903077Y-11688648D02*
X5893553Y-11650553D01*
X5893553Y-11650553D02*
X5893553Y-11602934D01*
X5893553Y-11602934D02*
X5903077Y-11564839D01*
X5903077Y-11564839D02*
X5912601Y-11545791D01*
X5912601Y-11545791D02*
X5922125Y-11536268D01*
X5922125Y-11536268D02*
X5941172Y-11526744D01*
X6131649Y-11526744D02*
X6150696Y-11526744D01*
X6150696Y-11526744D02*
X6169744Y-11536268D01*
X6169744Y-11536268D02*
X6179268Y-11545791D01*
X6179268Y-11545791D02*
X6188791Y-11564839D01*
X6188791Y-11564839D02*
X6198315Y-11602934D01*
X6198315Y-11602934D02*
X6198315Y-11650553D01*
X6198315Y-11650553D02*
X6188791Y-11688648D01*
X6188791Y-11688648D02*
X6179268Y-11707696D01*
X6179268Y-11707696D02*
X6169744Y-11717220D01*
X6169744Y-11717220D02*
X6150696Y-11726744D01*
X6150696Y-11726744D02*
X6131649Y-11726744D01*
X6131649Y-11726744D02*
X6112601Y-11717220D01*
X6112601Y-11717220D02*
X6103077Y-11707696D01*
X6103077Y-11707696D02*
X6093553Y-11688648D01*
X6093553Y-11688648D02*
X6084030Y-11650553D01*
X6084030Y-11650553D02*
X6084030Y-11602934D01*
X6084030Y-11602934D02*
X6093553Y-11564839D01*
X6093553Y-11564839D02*
X6103077Y-11545791D01*
X6103077Y-11545791D02*
X6112601Y-11536268D01*
X6112601Y-11536268D02*
X6131649Y-11526744D01*
X6284030Y-11726744D02*
X6284030Y-11593410D01*
X6284030Y-11612458D02*
X6293553Y-11602934D01*
X6293553Y-11602934D02*
X6312601Y-11593410D01*
X6312601Y-11593410D02*
X6341172Y-11593410D01*
X6341172Y-11593410D02*
X6360220Y-11602934D01*
X6360220Y-11602934D02*
X6369744Y-11621982D01*
X6369744Y-11621982D02*
X6369744Y-11726744D01*
X6369744Y-11621982D02*
X6379268Y-11602934D01*
X6379268Y-11602934D02*
X6398315Y-11593410D01*
X6398315Y-11593410D02*
X6426887Y-11593410D01*
X6426887Y-11593410D02*
X6445934Y-11602934D01*
X6445934Y-11602934D02*
X6455458Y-11621982D01*
X6455458Y-11621982D02*
X6455458Y-11726744D01*
X6550696Y-11726744D02*
X6550696Y-11593410D01*
X6550696Y-11612458D02*
X6560220Y-11602934D01*
X6560220Y-11602934D02*
X6579268Y-11593410D01*
X6579268Y-11593410D02*
X6607839Y-11593410D01*
X6607839Y-11593410D02*
X6626887Y-11602934D01*
X6626887Y-11602934D02*
X6636411Y-11621982D01*
X6636411Y-11621982D02*
X6636411Y-11726744D01*
X6636411Y-11621982D02*
X6645934Y-11602934D01*
X6645934Y-11602934D02*
X6664982Y-11593410D01*
X6664982Y-11593410D02*
X6693553Y-11593410D01*
X6693553Y-11593410D02*
X6712601Y-11602934D01*
X6712601Y-11602934D02*
X6722125Y-11621982D01*
X6722125Y-11621982D02*
X6722125Y-11726744D01*
X7112601Y-11517220D02*
X6941173Y-11774363D01*
X7369744Y-11526744D02*
X7388792Y-11526744D01*
X7388792Y-11526744D02*
X7407839Y-11536268D01*
X7407839Y-11536268D02*
X7417363Y-11545791D01*
X7417363Y-11545791D02*
X7426887Y-11564839D01*
X7426887Y-11564839D02*
X7436411Y-11602934D01*
X7436411Y-11602934D02*
X7436411Y-11650553D01*
X7436411Y-11650553D02*
X7426887Y-11688648D01*
X7426887Y-11688648D02*
X7417363Y-11707696D01*
X7417363Y-11707696D02*
X7407839Y-11717220D01*
X7407839Y-11717220D02*
X7388792Y-11726744D01*
X7388792Y-11726744D02*
X7369744Y-11726744D01*
X7369744Y-11726744D02*
X7350696Y-11717220D01*
X7350696Y-11717220D02*
X7341173Y-11707696D01*
X7341173Y-11707696D02*
X7331649Y-11688648D01*
X7331649Y-11688648D02*
X7322125Y-11650553D01*
X7322125Y-11650553D02*
X7322125Y-11602934D01*
X7322125Y-11602934D02*
X7331649Y-11564839D01*
X7331649Y-11564839D02*
X7341173Y-11545791D01*
X7341173Y-11545791D02*
X7350696Y-11536268D01*
X7350696Y-11536268D02*
X7369744Y-11526744D01*
X7522125Y-11707696D02*
X7531649Y-11717220D01*
X7531649Y-11717220D02*
X7522125Y-11726744D01*
X7522125Y-11726744D02*
X7512601Y-11717220D01*
X7512601Y-11717220D02*
X7522125Y-11707696D01*
X7522125Y-11707696D02*
X7522125Y-11726744D01*
X7655458Y-11526744D02*
X7674506Y-11526744D01*
X7674506Y-11526744D02*
X7693554Y-11536268D01*
X7693554Y-11536268D02*
X7703077Y-11545791D01*
X7703077Y-11545791D02*
X7712601Y-11564839D01*
X7712601Y-11564839D02*
X7722125Y-11602934D01*
X7722125Y-11602934D02*
X7722125Y-11650553D01*
X7722125Y-11650553D02*
X7712601Y-11688648D01*
X7712601Y-11688648D02*
X7703077Y-11707696D01*
X7703077Y-11707696D02*
X7693554Y-11717220D01*
X7693554Y-11717220D02*
X7674506Y-11726744D01*
X7674506Y-11726744D02*
X7655458Y-11726744D01*
X7655458Y-11726744D02*
X7636411Y-11717220D01*
X7636411Y-11717220D02*
X7626887Y-11707696D01*
X7626887Y-11707696D02*
X7617363Y-11688648D01*
X7617363Y-11688648D02*
X7607839Y-11650553D01*
X7607839Y-11650553D02*
X7607839Y-11602934D01*
X7607839Y-11602934D02*
X7617363Y-11564839D01*
X7617363Y-11564839D02*
X7626887Y-11545791D01*
X7626887Y-11545791D02*
X7636411Y-11536268D01*
X7636411Y-11536268D02*
X7655458Y-11526744D01*
X7912601Y-11726744D02*
X7798315Y-11726744D01*
X7855458Y-11726744D02*
X7855458Y-11526744D01*
X7855458Y-11526744D02*
X7836411Y-11555315D01*
X7836411Y-11555315D02*
X7817363Y-11574363D01*
X7817363Y-11574363D02*
X7798315Y-11583887D01*
X8103077Y-11726744D02*
X7988792Y-11726744D01*
X8045934Y-11726744D02*
X8045934Y-11526744D01*
X8045934Y-11526744D02*
X8026887Y-11555315D01*
X8026887Y-11555315D02*
X8007839Y-11574363D01*
X8007839Y-11574363D02*
X7988792Y-11583887D01*
X8217363Y-11612458D02*
X8198315Y-11602934D01*
X8198315Y-11602934D02*
X8188792Y-11593410D01*
X8188792Y-11593410D02*
X8179268Y-11574363D01*
X8179268Y-11574363D02*
X8179268Y-11564839D01*
X8179268Y-11564839D02*
X8188792Y-11545791D01*
X8188792Y-11545791D02*
X8198315Y-11536268D01*
X8198315Y-11536268D02*
X8217363Y-11526744D01*
X8217363Y-11526744D02*
X8255458Y-11526744D01*
X8255458Y-11526744D02*
X8274506Y-11536268D01*
X8274506Y-11536268D02*
X8284030Y-11545791D01*
X8284030Y-11545791D02*
X8293554Y-11564839D01*
X8293554Y-11564839D02*
X8293554Y-11574363D01*
X8293554Y-11574363D02*
X8284030Y-11593410D01*
X8284030Y-11593410D02*
X8274506Y-11602934D01*
X8274506Y-11602934D02*
X8255458Y-11612458D01*
X8255458Y-11612458D02*
X8217363Y-11612458D01*
X8217363Y-11612458D02*
X8198315Y-11621982D01*
X8198315Y-11621982D02*
X8188792Y-11631506D01*
X8188792Y-11631506D02*
X8179268Y-11650553D01*
X8179268Y-11650553D02*
X8179268Y-11688648D01*
X8179268Y-11688648D02*
X8188792Y-11707696D01*
X8188792Y-11707696D02*
X8198315Y-11717220D01*
X8198315Y-11717220D02*
X8217363Y-11726744D01*
X8217363Y-11726744D02*
X8255458Y-11726744D01*
X8255458Y-11726744D02*
X8274506Y-11717220D01*
X8274506Y-11717220D02*
X8284030Y-11707696D01*
X8284030Y-11707696D02*
X8293554Y-11688648D01*
X8293554Y-11688648D02*
X8293554Y-11650553D01*
X8293554Y-11650553D02*
X8284030Y-11631506D01*
X8284030Y-11631506D02*
X8274506Y-11621982D01*
X8274506Y-11621982D02*
X8255458Y-11612458D01*
X8369744Y-11526744D02*
X8369744Y-11564839D01*
X8445935Y-11526744D02*
X8445935Y-11564839D01*
X8741173Y-11802934D02*
X8731649Y-11793410D01*
X8731649Y-11793410D02*
X8712601Y-11764839D01*
X8712601Y-11764839D02*
X8703078Y-11745791D01*
X8703078Y-11745791D02*
X8693554Y-11717220D01*
X8693554Y-11717220D02*
X8684030Y-11669601D01*
X8684030Y-11669601D02*
X8684030Y-11631506D01*
X8684030Y-11631506D02*
X8693554Y-11583887D01*
X8693554Y-11583887D02*
X8703078Y-11555315D01*
X8703078Y-11555315D02*
X8712601Y-11536268D01*
X8712601Y-11536268D02*
X8731649Y-11507696D01*
X8731649Y-11507696D02*
X8741173Y-11498172D01*
X8807839Y-11545791D02*
X8817363Y-11536268D01*
X8817363Y-11536268D02*
X8836411Y-11526744D01*
X8836411Y-11526744D02*
X8884030Y-11526744D01*
X8884030Y-11526744D02*
X8903078Y-11536268D01*
X8903078Y-11536268D02*
X8912601Y-11545791D01*
X8912601Y-11545791D02*
X8922125Y-11564839D01*
X8922125Y-11564839D02*
X8922125Y-11583887D01*
X8922125Y-11583887D02*
X8912601Y-11612458D01*
X8912601Y-11612458D02*
X8798316Y-11726744D01*
X8798316Y-11726744D02*
X8922125Y-11726744D01*
X9017363Y-11726744D02*
X9055458Y-11726744D01*
X9055458Y-11726744D02*
X9074506Y-11717220D01*
X9074506Y-11717220D02*
X9084030Y-11707696D01*
X9084030Y-11707696D02*
X9103078Y-11679125D01*
X9103078Y-11679125D02*
X9112601Y-11641029D01*
X9112601Y-11641029D02*
X9112601Y-11564839D01*
X9112601Y-11564839D02*
X9103078Y-11545791D01*
X9103078Y-11545791D02*
X9093554Y-11536268D01*
X9093554Y-11536268D02*
X9074506Y-11526744D01*
X9074506Y-11526744D02*
X9036411Y-11526744D01*
X9036411Y-11526744D02*
X9017363Y-11536268D01*
X9017363Y-11536268D02*
X9007839Y-11545791D01*
X9007839Y-11545791D02*
X8998316Y-11564839D01*
X8998316Y-11564839D02*
X8998316Y-11612458D01*
X8998316Y-11612458D02*
X9007839Y-11631506D01*
X9007839Y-11631506D02*
X9017363Y-11641029D01*
X9017363Y-11641029D02*
X9036411Y-11650553D01*
X9036411Y-11650553D02*
X9074506Y-11650553D01*
X9074506Y-11650553D02*
X9093554Y-11641029D01*
X9093554Y-11641029D02*
X9103078Y-11631506D01*
X9103078Y-11631506D02*
X9112601Y-11612458D01*
X9303078Y-11726744D02*
X9188792Y-11726744D01*
X9245935Y-11726744D02*
X9245935Y-11526744D01*
X9245935Y-11526744D02*
X9226887Y-11555315D01*
X9226887Y-11555315D02*
X9207839Y-11574363D01*
X9207839Y-11574363D02*
X9188792Y-11583887D01*
X9541173Y-11726744D02*
X9541173Y-11526744D01*
X9626887Y-11726744D02*
X9626887Y-11621982D01*
X9626887Y-11621982D02*
X9617363Y-11602934D01*
X9617363Y-11602934D02*
X9598316Y-11593410D01*
X9598316Y-11593410D02*
X9569744Y-11593410D01*
X9569744Y-11593410D02*
X9550697Y-11602934D01*
X9550697Y-11602934D02*
X9541173Y-11612458D01*
X9750697Y-11726744D02*
X9731649Y-11717220D01*
X9731649Y-11717220D02*
X9722125Y-11707696D01*
X9722125Y-11707696D02*
X9712601Y-11688648D01*
X9712601Y-11688648D02*
X9712601Y-11631506D01*
X9712601Y-11631506D02*
X9722125Y-11612458D01*
X9722125Y-11612458D02*
X9731649Y-11602934D01*
X9731649Y-11602934D02*
X9750697Y-11593410D01*
X9750697Y-11593410D02*
X9779268Y-11593410D01*
X9779268Y-11593410D02*
X9798316Y-11602934D01*
X9798316Y-11602934D02*
X9807840Y-11612458D01*
X9807840Y-11612458D02*
X9817363Y-11631506D01*
X9817363Y-11631506D02*
X9817363Y-11688648D01*
X9817363Y-11688648D02*
X9807840Y-11707696D01*
X9807840Y-11707696D02*
X9798316Y-11717220D01*
X9798316Y-11717220D02*
X9779268Y-11726744D01*
X9779268Y-11726744D02*
X9750697Y-11726744D01*
X9931649Y-11726744D02*
X9912601Y-11717220D01*
X9912601Y-11717220D02*
X9903078Y-11698172D01*
X9903078Y-11698172D02*
X9903078Y-11526744D01*
X10084030Y-11717220D02*
X10064982Y-11726744D01*
X10064982Y-11726744D02*
X10026887Y-11726744D01*
X10026887Y-11726744D02*
X10007840Y-11717220D01*
X10007840Y-11717220D02*
X9998316Y-11698172D01*
X9998316Y-11698172D02*
X9998316Y-11621982D01*
X9998316Y-11621982D02*
X10007840Y-11602934D01*
X10007840Y-11602934D02*
X10026887Y-11593410D01*
X10026887Y-11593410D02*
X10064982Y-11593410D01*
X10064982Y-11593410D02*
X10084030Y-11602934D01*
X10084030Y-11602934D02*
X10093554Y-11621982D01*
X10093554Y-11621982D02*
X10093554Y-11641029D01*
X10093554Y-11641029D02*
X9998316Y-11660077D01*
X10169744Y-11717220D02*
X10188792Y-11726744D01*
X10188792Y-11726744D02*
X10226887Y-11726744D01*
X10226887Y-11726744D02*
X10245935Y-11717220D01*
X10245935Y-11717220D02*
X10255459Y-11698172D01*
X10255459Y-11698172D02*
X10255459Y-11688648D01*
X10255459Y-11688648D02*
X10245935Y-11669601D01*
X10245935Y-11669601D02*
X10226887Y-11660077D01*
X10226887Y-11660077D02*
X10198316Y-11660077D01*
X10198316Y-11660077D02*
X10179268Y-11650553D01*
X10179268Y-11650553D02*
X10169744Y-11631506D01*
X10169744Y-11631506D02*
X10169744Y-11621982D01*
X10169744Y-11621982D02*
X10179268Y-11602934D01*
X10179268Y-11602934D02*
X10198316Y-11593410D01*
X10198316Y-11593410D02*
X10226887Y-11593410D01*
X10226887Y-11593410D02*
X10245935Y-11602934D01*
X10322125Y-11802934D02*
X10331649Y-11793410D01*
X10331649Y-11793410D02*
X10350697Y-11764839D01*
X10350697Y-11764839D02*
X10360221Y-11745791D01*
X10360221Y-11745791D02*
X10369744Y-11717220D01*
X10369744Y-11717220D02*
X10379268Y-11669601D01*
X10379268Y-11669601D02*
X10379268Y-11631506D01*
X10379268Y-11631506D02*
X10369744Y-11583887D01*
X10369744Y-11583887D02*
X10360221Y-11555315D01*
X10360221Y-11555315D02*
X10350697Y-11536268D01*
X10350697Y-11536268D02*
X10331649Y-11507696D01*
X10331649Y-11507696D02*
X10322125Y-11498172D01*
M02*
