G04 #@! TF.GenerationSoftware,KiCad,Pcbnew,7.0.1*
G04 #@! TF.CreationDate,2023-08-25T16:41:33+03:00*
G04 #@! TF.ProjectId,ssd2828_board,73736432-3832-4385-9f62-6f6172642e6b,rev?*
G04 #@! TF.SameCoordinates,Original*
G04 #@! TF.FileFunction,Soldermask,Top*
G04 #@! TF.FilePolarity,Negative*
%FSLAX46Y46*%
G04 Gerber Fmt 4.6, Leading zero omitted, Abs format (unit mm)*
G04 Created by KiCad (PCBNEW 7.0.1) date 2023-08-25 16:41:33*
%MOMM*%
%LPD*%
G01*
G04 APERTURE LIST*
G04 Aperture macros list*
%AMRoundRect*
0 Rectangle with rounded corners*
0 $1 Rounding radius*
0 $2 $3 $4 $5 $6 $7 $8 $9 X,Y pos of 4 corners*
0 Add a 4 corners polygon primitive as box body*
4,1,4,$2,$3,$4,$5,$6,$7,$8,$9,$2,$3,0*
0 Add four circle primitives for the rounded corners*
1,1,$1+$1,$2,$3*
1,1,$1+$1,$4,$5*
1,1,$1+$1,$6,$7*
1,1,$1+$1,$8,$9*
0 Add four rect primitives between the rounded corners*
20,1,$1+$1,$2,$3,$4,$5,0*
20,1,$1+$1,$4,$5,$6,$7,0*
20,1,$1+$1,$6,$7,$8,$9,0*
20,1,$1+$1,$8,$9,$2,$3,0*%
%AMRotRect*
0 Rectangle, with rotation*
0 The origin of the aperture is its center*
0 $1 length*
0 $2 width*
0 $3 Rotation angle, in degrees counterclockwise*
0 Add horizontal line*
21,1,$1,$2,0,0,$3*%
%AMFreePoly0*
4,1,33,0.550000,-0.750000,0.000000,-0.750000,0.000000,-0.749013,-0.031395,-0.749013,-0.093691,-0.741144,-0.154508,-0.725528,-0.212890,-0.702414,-0.267913,-0.672164,-0.318712,-0.635257,-0.364484,-0.592274,-0.404508,-0.543893,-0.438153,-0.490877,-0.464888,-0.434062,-0.484292,-0.374345,-0.496057,-0.312667,-0.500000,-0.250000,-0.500000,0.250000,-0.496057,0.312667,-0.484292,0.374345,-0.464888,0.434062,
-0.438153,0.490877,-0.404508,0.543893,-0.364484,0.592274,-0.318712,0.635257,-0.267913,0.672164,-0.212890,0.702414,-0.154508,0.725528,-0.093691,0.741144,-0.031395,0.749013,0.000000,0.749013,0.000000,0.750000,0.550000,0.750000,0.550000,-0.750000,0.550000,-0.750000,$1*%
%AMFreePoly1*
4,1,33,0.000000,0.749013,0.031395,0.749013,0.093691,0.741144,0.154508,0.725528,0.212890,0.702414,0.267913,0.672164,0.318712,0.635257,0.364484,0.592274,0.404508,0.543893,0.438153,0.490877,0.464888,0.434062,0.484292,0.374345,0.496057,0.312667,0.500000,0.250000,0.500000,-0.250000,0.496057,-0.312667,0.484292,-0.374345,0.464888,-0.434062,0.438153,-0.490877,0.404508,-0.543893,
0.364484,-0.592274,0.318712,-0.635257,0.267913,-0.672164,0.212890,-0.702414,0.154508,-0.725528,0.093691,-0.741144,0.031395,-0.749013,0.000000,-0.749013,0.000000,-0.750000,-0.550000,-0.750000,-0.550000,0.750000,0.000000,0.750000,0.000000,0.749013,0.000000,0.749013,$1*%
G04 Aperture macros list end*
%ADD10R,3.000000X0.650000*%
%ADD11R,0.800000X0.300000*%
%ADD12R,0.650000X0.300000*%
%ADD13R,0.950000X0.400000*%
%ADD14R,1.000000X1.500000*%
%ADD15R,1.000000X1.000000*%
%ADD16RoundRect,0.225000X0.225000X0.250000X-0.225000X0.250000X-0.225000X-0.250000X0.225000X-0.250000X0*%
%ADD17R,0.600000X1.200000*%
%ADD18RoundRect,0.200000X0.275000X-0.200000X0.275000X0.200000X-0.275000X0.200000X-0.275000X-0.200000X0*%
%ADD19RoundRect,0.200000X0.200000X0.275000X-0.200000X0.275000X-0.200000X-0.275000X0.200000X-0.275000X0*%
%ADD20RoundRect,0.200000X-0.275000X0.200000X-0.275000X-0.200000X0.275000X-0.200000X0.275000X0.200000X0*%
%ADD21R,0.800000X2.000000*%
%ADD22RoundRect,0.225000X-0.225000X-0.250000X0.225000X-0.250000X0.225000X0.250000X-0.225000X0.250000X0*%
%ADD23RoundRect,0.150000X-0.512500X-0.150000X0.512500X-0.150000X0.512500X0.150000X-0.512500X0.150000X0*%
%ADD24RoundRect,0.225000X0.250000X-0.225000X0.250000X0.225000X-0.250000X0.225000X-0.250000X-0.225000X0*%
%ADD25R,0.500000X0.800000*%
%ADD26R,0.400000X0.800000*%
%ADD27RoundRect,0.250000X-0.262500X-0.450000X0.262500X-0.450000X0.262500X0.450000X-0.262500X0.450000X0*%
%ADD28R,1.200000X0.600000*%
%ADD29RoundRect,0.200000X-0.200000X-0.275000X0.200000X-0.275000X0.200000X0.275000X-0.200000X0.275000X0*%
%ADD30R,2.000000X0.800000*%
%ADD31RoundRect,0.050000X-0.291682X0.220971X0.220971X-0.291682X0.291682X-0.220971X-0.220971X0.291682X0*%
%ADD32RoundRect,0.050000X-0.291682X-0.220971X-0.220971X-0.291682X0.291682X0.220971X0.220971X0.291682X0*%
%ADD33RotRect,5.200000X5.200000X315.000000*%
%ADD34R,1.200000X1.400000*%
%ADD35R,0.300000X0.800000*%
%ADD36R,0.300000X0.650000*%
%ADD37R,0.400000X0.950000*%
%ADD38R,0.700000X2.000000*%
%ADD39R,0.800000X0.500000*%
%ADD40R,0.800000X0.400000*%
%ADD41R,0.900000X0.800000*%
%ADD42FreePoly0,0.000000*%
%ADD43FreePoly1,0.000000*%
%ADD44R,0.240000X0.450000*%
%ADD45R,0.500000X0.470000*%
%ADD46RoundRect,0.050000X-0.350000X-0.050000X0.350000X-0.050000X0.350000X0.050000X-0.350000X0.050000X0*%
%ADD47R,1.700000X2.500000*%
%ADD48R,0.800000X2.700000*%
%ADD49RoundRect,0.250000X-0.475000X0.250000X-0.475000X-0.250000X0.475000X-0.250000X0.475000X0.250000X0*%
%ADD50RoundRect,0.250000X-0.450000X0.262500X-0.450000X-0.262500X0.450000X-0.262500X0.450000X0.262500X0*%
%ADD51RoundRect,0.225000X-0.250000X0.225000X-0.250000X-0.225000X0.250000X-0.225000X0.250000X0.225000X0*%
%ADD52R,0.467000X0.180000*%
%ADD53R,1.000000X0.300000*%
%ADD54R,0.350000X0.800000*%
%ADD55R,0.800000X0.900000*%
%ADD56RoundRect,0.112500X0.187500X0.112500X-0.187500X0.112500X-0.187500X-0.112500X0.187500X-0.112500X0*%
%ADD57R,1.800000X2.200000*%
%ADD58R,1.400000X0.300000*%
%ADD59RoundRect,0.062500X0.062500X-0.325000X0.062500X0.325000X-0.062500X0.325000X-0.062500X-0.325000X0*%
%ADD60RoundRect,0.062500X0.325000X-0.062500X0.325000X0.062500X-0.325000X0.062500X-0.325000X-0.062500X0*%
%ADD61R,2.450000X2.450000*%
%ADD62R,0.650000X2.000000*%
G04 APERTURE END LIST*
D10*
X66800600Y-102031800D03*
X69800600Y-100761800D03*
X66800600Y-99491800D03*
X69800600Y-98221800D03*
X66800600Y-96951800D03*
X69800600Y-95681800D03*
X66800600Y-94411800D03*
X69800600Y-93141800D03*
X66800600Y-91871800D03*
X69800600Y-90601800D03*
X66800600Y-89331800D03*
D11*
X78358600Y-99595600D03*
D12*
X81232600Y-99295600D03*
D11*
X78358600Y-98995600D03*
D12*
X81232600Y-98695600D03*
D11*
X78358600Y-98395600D03*
D12*
X81232600Y-98095600D03*
D11*
X78358600Y-97795600D03*
D12*
X81232600Y-97495600D03*
D11*
X78358600Y-97195600D03*
D12*
X81232600Y-96895600D03*
D11*
X78358600Y-96595600D03*
D12*
X81232600Y-96295600D03*
D11*
X78358600Y-95995600D03*
D12*
X81232600Y-95695600D03*
D11*
X78358600Y-95395600D03*
D12*
X81232600Y-95095600D03*
D11*
X78358600Y-94795600D03*
D12*
X81232600Y-94495600D03*
D11*
X78358600Y-94195600D03*
D12*
X81232600Y-93895600D03*
D11*
X78358600Y-93595600D03*
D12*
X81232600Y-93295600D03*
D11*
X78358600Y-92995600D03*
D12*
X81232600Y-92695600D03*
D11*
X78358600Y-92395600D03*
D13*
X78632600Y-100295600D03*
X78632600Y-91695600D03*
D11*
X56874000Y-92437400D03*
D12*
X54000000Y-92737400D03*
D11*
X56874000Y-93037400D03*
D12*
X54000000Y-93337400D03*
D11*
X56874000Y-93637400D03*
D12*
X54000000Y-93937400D03*
D11*
X56874000Y-94237400D03*
D12*
X54000000Y-94537400D03*
D11*
X56874000Y-94837400D03*
D12*
X54000000Y-95137400D03*
D11*
X56874000Y-95437400D03*
D12*
X54000000Y-95737400D03*
D11*
X56874000Y-96037400D03*
D12*
X54000000Y-96337400D03*
D11*
X56874000Y-96637400D03*
D12*
X54000000Y-96937400D03*
D11*
X56874000Y-97237400D03*
D12*
X54000000Y-97537400D03*
D11*
X56874000Y-97837400D03*
D12*
X54000000Y-98137400D03*
D11*
X56874000Y-98437400D03*
D12*
X54000000Y-98737400D03*
D11*
X56874000Y-99037400D03*
D12*
X54000000Y-99337400D03*
D11*
X56874000Y-99637400D03*
D13*
X56600000Y-91737400D03*
X56600000Y-100337400D03*
D14*
X54722000Y-73025000D03*
X56022000Y-73025000D03*
D15*
X101219000Y-52463200D03*
D16*
X87643000Y-83705200D03*
X86093000Y-83705200D03*
D17*
X96890000Y-80420999D03*
X97840000Y-80420999D03*
X98790000Y-80420999D03*
X98790000Y-77920999D03*
X96890000Y-77920999D03*
D15*
X76276200Y-75856600D03*
D18*
X90514000Y-80720200D03*
X90514000Y-79070200D03*
D19*
X119189000Y-61419200D03*
X117539000Y-61419200D03*
D20*
X98449600Y-82155800D03*
X98449600Y-83805800D03*
D21*
X117158000Y-75069200D03*
X118808000Y-75069200D03*
D15*
X66878200Y-81343000D03*
X73126600Y-81343000D03*
D22*
X96760200Y-76249999D03*
X98310200Y-76249999D03*
X59296000Y-81972600D03*
X60846000Y-81972600D03*
D15*
X103251000Y-52463200D03*
D22*
X82638600Y-78257400D03*
X84188600Y-78257400D03*
D15*
X123444000Y-52463200D03*
D23*
X97213399Y-66628800D03*
X97213399Y-67578800D03*
X97213399Y-68528800D03*
X99488399Y-68528800D03*
X99488399Y-67578800D03*
X99488399Y-66628800D03*
D16*
X81599605Y-53961800D03*
X80049605Y-53961800D03*
D24*
X116967000Y-59654200D03*
X116967000Y-58104200D03*
D25*
X97225000Y-60195800D03*
D26*
X98025000Y-60195800D03*
X98825000Y-60195800D03*
D25*
X99625000Y-60195800D03*
X99625000Y-58395800D03*
D26*
X98825000Y-58395800D03*
X98025000Y-58395800D03*
D25*
X97225000Y-58395800D03*
D18*
X121539000Y-59704200D03*
X121539000Y-58054200D03*
D27*
X54291500Y-79686600D03*
X56116500Y-79686600D03*
D19*
X119189000Y-63093600D03*
X117539000Y-63093600D03*
D22*
X82638600Y-83083400D03*
X84188600Y-83083400D03*
D15*
X139192000Y-52463200D03*
D28*
X86236000Y-80022200D03*
X86236000Y-80972200D03*
X86236000Y-81922200D03*
X88736000Y-81922200D03*
X88736000Y-80022200D03*
D15*
X70027800Y-75856600D03*
X78359000Y-75856600D03*
X71043800Y-83425800D03*
D29*
X62510800Y-74860600D03*
X64160800Y-74860600D03*
D30*
X118618000Y-67957600D03*
X118618000Y-66357600D03*
D19*
X90995000Y-77583800D03*
X89345000Y-77583800D03*
D21*
X126530000Y-59895200D03*
X124930000Y-59895200D03*
D22*
X86093000Y-78244200D03*
X87643000Y-78244200D03*
D14*
X62809601Y-83921600D03*
X64109601Y-83921600D03*
D31*
X75551509Y-58428941D03*
X75268666Y-58711784D03*
X74985823Y-58994627D03*
X74702981Y-59277469D03*
X74420138Y-59560312D03*
X74137295Y-59843155D03*
X73854452Y-60125998D03*
X73571610Y-60408840D03*
X73288767Y-60691683D03*
X73005924Y-60974526D03*
X72723082Y-61257368D03*
X72440239Y-61540211D03*
X72157396Y-61823054D03*
X71874553Y-62105897D03*
X71591711Y-62388739D03*
X71308868Y-62671582D03*
X71026025Y-62954425D03*
D32*
X71026025Y-63997407D03*
X71308868Y-64280250D03*
X71591711Y-64563093D03*
X71874553Y-64845935D03*
X72157396Y-65128778D03*
X72440239Y-65411621D03*
X72723082Y-65694464D03*
X73005924Y-65977306D03*
X73288767Y-66260149D03*
X73571610Y-66542992D03*
X73854452Y-66825834D03*
X74137295Y-67108677D03*
X74420138Y-67391520D03*
X74702981Y-67674363D03*
X74985823Y-67957205D03*
X75268666Y-68240048D03*
X75551509Y-68522891D03*
D31*
X76594491Y-68522891D03*
X76877334Y-68240048D03*
X77160177Y-67957205D03*
X77443019Y-67674363D03*
X77725862Y-67391520D03*
X78008705Y-67108677D03*
X78291548Y-66825834D03*
X78574390Y-66542992D03*
X78857233Y-66260149D03*
X79140076Y-65977306D03*
X79422918Y-65694464D03*
X79705761Y-65411621D03*
X79988604Y-65128778D03*
X80271447Y-64845935D03*
X80554289Y-64563093D03*
X80837132Y-64280250D03*
X81119975Y-63997407D03*
D32*
X81119975Y-62954425D03*
X80837132Y-62671582D03*
X80554289Y-62388739D03*
X80271447Y-62105897D03*
X79988604Y-61823054D03*
X79705761Y-61540211D03*
X79422918Y-61257368D03*
X79140076Y-60974526D03*
X78857233Y-60691683D03*
X78574390Y-60408840D03*
X78291548Y-60125998D03*
X78008705Y-59843155D03*
X77725862Y-59560312D03*
X77443019Y-59277469D03*
X77160177Y-58994627D03*
X76877334Y-58711784D03*
X76594491Y-58428941D03*
D33*
X76073000Y-63475916D03*
D24*
X118491000Y-59654201D03*
X118491000Y-58104201D03*
D15*
X121412000Y-52463200D03*
D24*
X116078000Y-62956200D03*
X116078000Y-61406200D03*
D15*
X105283000Y-52463200D03*
D29*
X122974600Y-67347600D03*
X124624600Y-67347600D03*
D34*
X81495000Y-58008200D03*
X81495000Y-55808200D03*
X79795000Y-55808200D03*
X79795000Y-58008200D03*
D35*
X128813000Y-81038200D03*
D36*
X129113000Y-83912200D03*
D35*
X129413000Y-81038200D03*
D36*
X129713000Y-83912200D03*
D35*
X130013000Y-81038200D03*
D36*
X130313000Y-83912200D03*
D35*
X130613000Y-81038200D03*
D36*
X130913000Y-83912200D03*
D35*
X131213000Y-81038200D03*
D36*
X131513000Y-83912200D03*
D35*
X131813000Y-81038200D03*
D36*
X132113000Y-83912200D03*
D35*
X132413000Y-81038200D03*
D36*
X132713000Y-83912200D03*
D35*
X133013000Y-81038200D03*
D36*
X133313000Y-83912200D03*
D35*
X133613000Y-81038200D03*
D36*
X133913000Y-83912200D03*
D35*
X134213000Y-81038200D03*
D36*
X134513000Y-83912200D03*
D35*
X134813000Y-81038200D03*
D36*
X135113000Y-83912200D03*
D35*
X135413000Y-81038200D03*
D36*
X135713000Y-83912200D03*
D35*
X136013000Y-81038200D03*
D37*
X128113000Y-81312200D03*
X136713000Y-81312200D03*
D19*
X60704500Y-74962200D03*
X59054500Y-74962200D03*
D38*
X84138600Y-80797400D03*
X82688600Y-80797400D03*
D15*
X74193400Y-75856600D03*
X66878200Y-83425800D03*
D39*
X64439800Y-67373000D03*
D40*
X64439800Y-68173000D03*
X64439800Y-68973000D03*
D39*
X64439800Y-69773000D03*
X66239800Y-69773000D03*
D40*
X66239800Y-68973000D03*
X66239800Y-68173000D03*
D39*
X66239800Y-67373000D03*
D41*
X123317000Y-60537200D03*
X123317000Y-58237200D03*
D42*
X53995800Y-66519300D03*
D14*
X55295800Y-66519300D03*
D43*
X56595800Y-66519300D03*
D22*
X59296000Y-83496600D03*
X60846000Y-83496600D03*
D29*
X118758200Y-80784200D03*
X120408200Y-80784200D03*
D22*
X96760200Y-74700599D03*
X98310200Y-74700599D03*
D44*
X107423000Y-67404200D03*
X107423000Y-64954200D03*
X107823000Y-67404200D03*
X107823000Y-64954200D03*
X108223000Y-67404200D03*
X108223000Y-64954200D03*
X108623000Y-67404200D03*
X108623000Y-64954200D03*
X109023000Y-67404200D03*
X109023000Y-64954200D03*
X109423000Y-67404200D03*
X109423000Y-64954200D03*
D45*
X106673000Y-67374200D03*
X106673000Y-64984200D03*
X110173000Y-67374200D03*
X110173000Y-64984200D03*
D15*
X80441800Y-75856600D03*
D46*
X57992800Y-78170600D03*
X57992800Y-78620600D03*
X57992800Y-79070600D03*
X57992800Y-79520600D03*
X57992800Y-79970600D03*
X57992800Y-80420600D03*
X60892800Y-80420600D03*
X60892800Y-79970600D03*
X60892800Y-79520600D03*
X60892800Y-79070600D03*
X60892800Y-78620600D03*
X60892800Y-78170600D03*
D47*
X59442800Y-79295600D03*
D42*
X53995800Y-69405000D03*
D14*
X55295800Y-69405000D03*
D43*
X56595800Y-69405000D03*
D20*
X57683400Y-81889600D03*
X57683400Y-83539600D03*
D48*
X99531800Y-63479200D03*
X97231800Y-63479200D03*
D15*
X133096000Y-52463200D03*
D22*
X82638600Y-76606400D03*
X84188600Y-76606400D03*
D15*
X72110600Y-75856600D03*
X71043800Y-81343000D03*
D49*
X123444000Y-77294200D03*
X123444000Y-79194200D03*
D50*
X108397600Y-59399300D03*
X108397600Y-61224300D03*
D51*
X83185000Y-56082400D03*
X83185000Y-57632400D03*
D15*
X131064000Y-52463200D03*
D11*
X56896000Y-54941200D03*
D12*
X54022000Y-55241200D03*
D11*
X56896000Y-55541200D03*
D12*
X54022000Y-55841200D03*
D11*
X56896000Y-56141200D03*
D12*
X54022000Y-56441200D03*
D11*
X56896000Y-56741200D03*
D12*
X54022000Y-57041200D03*
D11*
X56896000Y-57341200D03*
D12*
X54022000Y-57641200D03*
D11*
X56896000Y-57941200D03*
D12*
X54022000Y-58241200D03*
D11*
X56896000Y-58541200D03*
D12*
X54022000Y-58841200D03*
D11*
X56896000Y-59141200D03*
D12*
X54022000Y-59441200D03*
D11*
X56896000Y-59741200D03*
D12*
X54022000Y-60041200D03*
D11*
X56896000Y-60341200D03*
D12*
X54022000Y-60641200D03*
D11*
X56896000Y-60941200D03*
D12*
X54022000Y-61241200D03*
D11*
X56896000Y-61541200D03*
D12*
X54022000Y-61841200D03*
D11*
X56896000Y-62141200D03*
D13*
X56622000Y-54241200D03*
X56622000Y-62841200D03*
D51*
X121310400Y-69366600D03*
X121310400Y-70916600D03*
X119786400Y-69366600D03*
X119786400Y-70916600D03*
D15*
X67945000Y-75856600D03*
D38*
X62610800Y-80956600D03*
X64060800Y-80956600D03*
D52*
X136005000Y-71649200D03*
X133997000Y-71649200D03*
X136005000Y-71299200D03*
X133997000Y-71299200D03*
X136005000Y-70949200D03*
X133997000Y-70949200D03*
X136005000Y-70599200D03*
X133997000Y-70599200D03*
X136005000Y-70249200D03*
X133997000Y-70249200D03*
X136005000Y-69899200D03*
X133997000Y-69899200D03*
X136005000Y-69549200D03*
X133997000Y-69549200D03*
X136005000Y-69199200D03*
X133997000Y-69199200D03*
X136005000Y-68849200D03*
X133997000Y-68849200D03*
X136005000Y-68499200D03*
X133997000Y-68499200D03*
X136005000Y-68149200D03*
X133997000Y-68149200D03*
X136005000Y-67799200D03*
X133997000Y-67799200D03*
X136005000Y-67449200D03*
X133997000Y-67449200D03*
X136005000Y-67099200D03*
X133997000Y-67099200D03*
X136005000Y-66749200D03*
X133997000Y-66749200D03*
X136005000Y-66399200D03*
X133997000Y-66399200D03*
X136005000Y-66049200D03*
X133997000Y-66049200D03*
X136005000Y-65699200D03*
X133997000Y-65699200D03*
X136005000Y-65349200D03*
X133997000Y-65349200D03*
X136005000Y-64999200D03*
X133997000Y-64999200D03*
X136005000Y-64649200D03*
X133997000Y-64649200D03*
X136005000Y-64299200D03*
X133997000Y-64299200D03*
X136005000Y-63949200D03*
X133997000Y-63949200D03*
X136005000Y-63599200D03*
X133997000Y-63599200D03*
X136005000Y-63249200D03*
X133997000Y-63249200D03*
D53*
X135001000Y-72959200D03*
X135001000Y-61939200D03*
D54*
X134066000Y-72349200D03*
X134066000Y-62549200D03*
X135936000Y-62549200D03*
X135936000Y-72349200D03*
D35*
X102064000Y-80784200D03*
D36*
X102364000Y-83658200D03*
D35*
X102664000Y-80784200D03*
D36*
X102964000Y-83658200D03*
D35*
X103264000Y-80784200D03*
D36*
X103564000Y-83658200D03*
D35*
X103864000Y-80784200D03*
D36*
X104164000Y-83658200D03*
D35*
X104464000Y-80784200D03*
D36*
X104764000Y-83658200D03*
D35*
X105064000Y-80784200D03*
D36*
X105364000Y-83658200D03*
D35*
X105664000Y-80784200D03*
D36*
X105964000Y-83658200D03*
D35*
X106264000Y-80784200D03*
D36*
X106564000Y-83658200D03*
D35*
X106864000Y-80784200D03*
D36*
X107164000Y-83658200D03*
D35*
X107464000Y-80784200D03*
D36*
X107764000Y-83658200D03*
D35*
X108064000Y-80784200D03*
D36*
X108364000Y-83658200D03*
D35*
X108664000Y-80784200D03*
D36*
X108964000Y-83658200D03*
D35*
X109264000Y-80784200D03*
D37*
X101364000Y-81058200D03*
X109964000Y-81058200D03*
D15*
X99187000Y-52463200D03*
X107315000Y-52463200D03*
D18*
X101473000Y-69531000D03*
X101473000Y-67881000D03*
D22*
X58750800Y-76638600D03*
X60300800Y-76638600D03*
D55*
X116350400Y-64770000D03*
X118650400Y-64770000D03*
D15*
X68961000Y-83425800D03*
X135128000Y-52463200D03*
D22*
X54632200Y-83496600D03*
X56182200Y-83496600D03*
D49*
X101473000Y-64328000D03*
X101473000Y-66228000D03*
D15*
X73126600Y-83425800D03*
D24*
X65875800Y-76397600D03*
X65875800Y-74847600D03*
D56*
X122462000Y-75069200D03*
X120362000Y-75069200D03*
D15*
X68961000Y-81343000D03*
D23*
X118750500Y-77294200D03*
X118750500Y-78244200D03*
X118750500Y-79194200D03*
X121025500Y-79194200D03*
X121025500Y-78244200D03*
X121025500Y-77294200D03*
D15*
X97155000Y-52463200D03*
D22*
X54622400Y-75043800D03*
X56172400Y-75043800D03*
D57*
X91996000Y-74864200D03*
X91996000Y-54964200D03*
D58*
X89281000Y-73164200D03*
X89281000Y-72664200D03*
X89281000Y-72164200D03*
X89281000Y-71664200D03*
X89281000Y-71164200D03*
X89281000Y-70664200D03*
X89281000Y-70164200D03*
X89281000Y-69664200D03*
X89281000Y-69164200D03*
X89281000Y-68664200D03*
X89281000Y-68164200D03*
X89281000Y-67664200D03*
X89281000Y-67164200D03*
X89281000Y-66664200D03*
X89281000Y-66164200D03*
X89281000Y-65664200D03*
X89281000Y-65164200D03*
X89281000Y-64664200D03*
X89281000Y-64164200D03*
X89281000Y-63664200D03*
X89281000Y-63164200D03*
X89281000Y-62664200D03*
X89281000Y-62164200D03*
X89281000Y-61664200D03*
X89281000Y-61164200D03*
X89281000Y-60664200D03*
X89281000Y-60164200D03*
X89281000Y-59664200D03*
X89281000Y-59164200D03*
X89281000Y-58664200D03*
X89281000Y-58164200D03*
X89281000Y-57664200D03*
X89281000Y-57164200D03*
X89281000Y-56664200D03*
D25*
X136214000Y-59880000D03*
D26*
X137014000Y-59880000D03*
X137814000Y-59880000D03*
D25*
X138614000Y-59880000D03*
X138614000Y-58080000D03*
D26*
X137814000Y-58080000D03*
X137014000Y-58080000D03*
D25*
X136214000Y-58080000D03*
D24*
X116713000Y-78765200D03*
X116713000Y-77215200D03*
D18*
X90514000Y-83895200D03*
X90514000Y-82245200D03*
D15*
X109347000Y-52463200D03*
D24*
X96824000Y-83755999D03*
X96824000Y-82205999D03*
D15*
X125476000Y-52463200D03*
X119380000Y-52463200D03*
D20*
X120015000Y-58054200D03*
X120015000Y-59704200D03*
D15*
X137160000Y-52463200D03*
D50*
X110363000Y-59397400D03*
X110363000Y-61222400D03*
D19*
X120408200Y-82435200D03*
X118758200Y-82435200D03*
D59*
X121390000Y-65880700D03*
X121890000Y-65880700D03*
X122390000Y-65880700D03*
X122890000Y-65880700D03*
X123390000Y-65880700D03*
X123890000Y-65880700D03*
D60*
X124627500Y-65143200D03*
X124627500Y-64643200D03*
X124627500Y-64143200D03*
X124627500Y-63643200D03*
X124627500Y-63143200D03*
X124627500Y-62643200D03*
D59*
X123890000Y-61905700D03*
X123390000Y-61905700D03*
X122890000Y-61905700D03*
X122390000Y-61905700D03*
X121890000Y-61905700D03*
X121390000Y-61905700D03*
D60*
X120652500Y-62643200D03*
X120652500Y-63143200D03*
X120652500Y-63643200D03*
X120652500Y-64143200D03*
X120652500Y-64643200D03*
X120652500Y-65143200D03*
D61*
X122640000Y-63893200D03*
D62*
X56275600Y-77279000D03*
X54925600Y-77279000D03*
D19*
X56029000Y-81718600D03*
X54379000Y-81718600D03*
D29*
X85763600Y-76567800D03*
X87413600Y-76567800D03*
D19*
X64160800Y-76638600D03*
X62510800Y-76638600D03*
D16*
X64300400Y-78422000D03*
X62750400Y-78422000D03*
D14*
X80822800Y-78587600D03*
X79522800Y-78587600D03*
D16*
X98539600Y-70281801D03*
X96989600Y-70281801D03*
X124574600Y-68897000D03*
X123024600Y-68897000D03*
X124574600Y-70446400D03*
X123024600Y-70446400D03*
D25*
X132404000Y-59880000D03*
D26*
X133204000Y-59880000D03*
X134004000Y-59880000D03*
D25*
X134804000Y-59880000D03*
X134804000Y-58080000D03*
D26*
X134004000Y-58080000D03*
X133204000Y-58080000D03*
D25*
X132404000Y-58080000D03*
M02*
