M48
; DRILL file {KiCad 7.0.1} date Fri Aug 25 16:41:39 2023
; FORMAT={-:-/ absolute / metric / decimal}
; #@! TF.CreationDate,2023-08-25T16:41:39+03:00
; #@! TF.GenerationSoftware,Kicad,Pcbnew,7.0.1
; #@! TF.FileFunction,Plated,1,4,PTH
FMAT,2
METRIC
; #@! TA.AperFunction,Plated,PTH,ViaDrill
T1C0.300
%
G90
G05
T1
X52.629Y-64.554
X52.654Y-57.721
X52.666Y-67.614
X52.691Y-61.914
X52.691Y-71.523
X52.742Y-53.288
X53.067Y-74.964
X53.167Y-77.064
X53.167Y-79.464
X53.518Y-73.317
X53.67Y-64.985
X53.848Y-84.467
X54.229Y-62.547
X54.229Y-63.512
X54.762Y-71.589
X54.788Y-55.41
X54.839Y-60.896
X54.889Y-53.301
X55.016Y-59.499
X55.042Y-58.229
X55.143Y-56.807
X55.474Y-53.968
X55.474Y-54.768
X55.667Y-52.364
X55.672Y-60.572
X55.672Y-61.372
X55.855Y-62.191
X55.871Y-58.921
X55.871Y-59.721
X55.873Y-55.619
X55.873Y-56.419
X55.88Y-57.27
X55.88Y-58.07
X56.567Y-63.764
X56.767Y-85.664
X56.896Y-80.708
X57.125Y-79.895
X57.175Y-79.071
X57.683Y-81.038
X57.81Y-76.492
X57.887Y-77.406
X57.937Y-62.801
X57.937Y-63.614
X58.064Y-60.134
X58.141Y-58.483
X58.141Y-61.76
X58.217Y-56.857
X58.268Y-55.181
X58.547Y-52.031
X58.699Y-80.987
X59.055Y-53.968
X59.055Y-54.768
X59.055Y-55.619
X59.055Y-56.419
X59.055Y-57.27
X59.055Y-58.07
X59.055Y-58.921
X59.055Y-59.721
X59.055Y-60.572
X59.055Y-61.372
X59.207Y-63.817
X59.284Y-67.475
X59.36Y-70.319
X59.69Y-62.09
X59.766Y-53.2
X59.842Y-55.181
X59.868Y-56.908
X59.868Y-75.806
X59.893Y-58.458
X59.893Y-60.057
X59.893Y-63.106
X60.02Y-73.088
X60.122Y-81.089
X60.147Y-71.679
X60.376Y-84.747
X60.858Y-67.412
X61.087Y-80.886
X61.189Y-71.704
X61.62Y-74.663
X61.667Y-51.864
X61.667Y-85.464
X61.697Y-77.787
X61.747Y-69.774
X61.747Y-78.854
X61.824Y-66.777
X61.849Y-73.24
X62.509Y-70.929
X62.511Y-75.755
X63.246Y-79.311
X63.322Y-66.89
X64.465Y-70.612
X64.795Y-75.247
X65.354Y-70.065
X65.481Y-77.876
X65.888Y-85.496
X65.913Y-84.112
X66.624Y-71.793
X66.878Y-78.257
X66.904Y-77.572
X67.667Y-51.864
X67.894Y-82.994
X68.167Y-85.664
X68.224Y-77.343
X68.656Y-69.761
X68.936Y-68.135
X69.723Y-69.913
X70.028Y-82.144
X70.079Y-63.817
X70.129Y-84.899
X70.307Y-63.03
X70.51Y-64.922
X71.12Y-65.507
X71.247Y-77.99
X71.653Y-69.608
X71.907Y-63.538
X72.161Y-82.105
X72.466Y-62.75
X73.025Y-64.833
X73.228Y-62.014
X73.304Y-67.576
X73.685Y-68.313
X73.894Y-61.297
X73.965Y-81.089
X74.117Y-65.824
X74.681Y-66.565
X74.701Y-60.49
X74.701Y-77.381
X74.752Y-69.253
X74.752Y-81.686
X75.26Y-57.213
X75.387Y-59.753
X75.413Y-81.089
X75.567Y-85.364
X75.692Y-51.93
X76.048Y-67.703
X76.606Y-59.766
X76.657Y-57.365
X76.708Y-78.664
X76.867Y-77.564
X77.445Y-58.102
X77.826Y-55.994
X78.105Y-78.74
X78.13Y-58.559
X78.308Y-84.594
X78.562Y-53.86
X78.664Y-61.633
X79.223Y-52.641
X79.527Y-60.058
X79.567Y-85.564
X79.578Y-74.739
X80.086Y-82.931
X80.543Y-82.22
X80.95Y-82.88
X81.356Y-84.899
X81.839Y-60.007
X82.093Y-52.412
X82.667Y-73.364
X83.337Y-58.826
X83.718Y-53.759
X84.531Y-74.333
X84.557Y-55.232
X84.582Y-57.696
X85.217Y-80.022
X85.217Y-80.937
X86.131Y-71.996
X86.436Y-75.806
X86.436Y-82.765
X86.667Y-85.764
X86.792Y-72.504
X87.554Y-72.91
X87.909Y-56.4
X88.29Y-52.031
X88.443Y-83.769
X88.468Y-82.613
X89.154Y-83.146
X89.459Y-74.485
X90.367Y-51.764
X91.567Y-85.164
X92.278Y-83.121
X92.659Y-80.048
X92.697Y-77.29
X95.567Y-80.264
X95.58Y-72.478
X95.631Y-61.963
X95.767Y-75.364
X95.809Y-83.832
X96.037Y-70.142
X96.088Y-67.271
X96.241Y-59.982
X97.206Y-69.151
X97.714Y-81.292
X98.067Y-55.964
X99.299Y-85.635
X99.365Y-76.669
X99.466Y-82.435
X99.567Y-81.264
X100.0Y-71.056
X100.432Y-74.917
X100.667Y-63.064
X100.667Y-67.164
X100.711Y-56.197
X100.736Y-84.01
X100.965Y-59.499
X101.067Y-81.953
X101.767Y-67.119
X101.967Y-61.564
X102.499Y-85.49
X102.514Y-75.018
X103.251Y-79.667
X104.369Y-79.667
X105.156Y-82.181
X105.232Y-78.143
X105.486Y-79.667
X105.639Y-63.36
X105.842Y-85.509
X105.899Y-78.727
X105.899Y-81.826
X106.655Y-64.122
X106.673Y-66.154
X106.699Y-78.727
X106.699Y-81.826
X107.051Y-58.635
X107.255Y-61.074
X107.366Y-79.667
X107.391Y-77.914
X107.391Y-82.257
X107.975Y-65.722
X108.109Y-78.676
X108.109Y-81.876
X108.28Y-66.56
X108.839Y-65.747
X108.909Y-78.676
X108.909Y-81.876
X109.398Y-66.459
X109.583Y-85.423
X109.652Y-79.616
X109.728Y-77.939
X109.728Y-82.232
X110.173Y-66.154
X110.236Y-53.759
X111.567Y-85.364
X111.76Y-56.349
X111.836Y-83.197
X111.867Y-53.364
X112.268Y-62.979
X112.319Y-66.751
X112.467Y-78.764
X112.471Y-73.889
X112.497Y-69.977
X115.468Y-64.059
X115.567Y-52.964
X115.567Y-57.364
X115.748Y-60.312
X115.967Y-73.864
X115.976Y-71.259
X116.205Y-65.697
X116.484Y-54.749
X116.535Y-83.451
X116.637Y-79.768
X116.891Y-66.535
X117.373Y-57.01
X117.805Y-82.257
X118.364Y-68.973
X118.466Y-53.581
X118.72Y-70.878
X119.267Y-84.564
X120.218Y-61.734
X120.396Y-81.572
X120.421Y-60.921
X120.447Y-68.211
X120.625Y-73.215
X121.158Y-54.089
X121.45Y-68.173
X121.768Y-80.479
X122.047Y-66.84
X122.834Y-83.832
X123.267Y-55.364
X123.419Y-82.461
X123.825Y-74.841
X123.927Y-56.807
X124.435Y-53.962
X124.993Y-57.975
X125.755Y-69.151
X125.767Y-85.064
X125.857Y-74.688
X126.267Y-73.464
X126.594Y-55.664
X126.67Y-61.379
X126.767Y-68.364
X126.767Y-77.364
X126.797Y-53.809
X127.279Y-81.597
X127.533Y-66.751
X128.473Y-83.908
X128.626Y-60.464
X128.727Y-83.045
X128.753Y-78.498
X128.854Y-85.356
X128.967Y-79.864
X128.981Y-82.003
X129.169Y-57.356
X129.502Y-78.879
X129.502Y-82.689
X129.515Y-59.499
X130.2Y-68.694
X130.302Y-78.879
X130.302Y-82.689
X130.378Y-56.959
X130.658Y-78.117
X130.667Y-79.864
X131.035Y-68.69
X131.077Y-82.054
X131.216Y-82.892
X131.369Y-70.04
X131.601Y-69.256
X131.851Y-66.687
X131.877Y-82.054
X132.232Y-85.407
X132.283Y-60.788
X132.367Y-79.864
X132.461Y-67.224
X132.461Y-68.024
X132.613Y-82.892
X132.829Y-82.054
X133.629Y-82.054
X133.96Y-82.791
X134.067Y-79.864
X134.474Y-82.063
X134.747Y-70.934
X134.772Y-71.97
X134.798Y-54.825
X135.007Y-69.194
X135.027Y-66.044
X135.027Y-68.144
X135.057Y-67.094
X135.179Y-64.376
X135.267Y-70.064
X135.274Y-82.063
X135.357Y-63.563
X135.611Y-82.816
X135.865Y-78.117
X135.867Y-79.864
X136.067Y-73.374
X136.115Y-82.152
X136.379Y-78.879
X136.525Y-85.382
X136.681Y-82.718
X136.797Y-72.104
X137.179Y-78.879
X137.185Y-55.638
X137.49Y-82.791
X137.719Y-78.143
X137.767Y-79.864
X138.5Y-60.75
X139.141Y-70.573
X139.217Y-63.919
X139.29Y-69.764
X139.367Y-84.864
X139.856Y-69.198
X139.967Y-81.464
X140.605Y-79.068
X140.665Y-69.1
X140.767Y-54.364
X140.867Y-61.464
X141.267Y-65.964
X141.667Y-57.964
X141.967Y-77.364
X142.267Y-69.664
X142.267Y-73.264
T0
M30
