G04 #@! TF.GenerationSoftware,KiCad,Pcbnew,7.0.1*
G04 #@! TF.CreationDate,2023-08-25T16:41:33+03:00*
G04 #@! TF.ProjectId,ssd2828_board,73736432-3832-4385-9f62-6f6172642e6b,rev?*
G04 #@! TF.SameCoordinates,Original*
G04 #@! TF.FileFunction,Copper,L4,Bot*
G04 #@! TF.FilePolarity,Positive*
%FSLAX46Y46*%
G04 Gerber Fmt 4.6, Leading zero omitted, Abs format (unit mm)*
G04 Created by KiCad (PCBNEW 7.0.1) date 2023-08-25 16:41:33*
%MOMM*%
%LPD*%
G01*
G04 APERTURE LIST*
G04 Aperture macros list*
%AMRoundRect*
0 Rectangle with rounded corners*
0 $1 Rounding radius*
0 $2 $3 $4 $5 $6 $7 $8 $9 X,Y pos of 4 corners*
0 Add a 4 corners polygon primitive as box body*
4,1,4,$2,$3,$4,$5,$6,$7,$8,$9,$2,$3,0*
0 Add four circle primitives for the rounded corners*
1,1,$1+$1,$2,$3*
1,1,$1+$1,$4,$5*
1,1,$1+$1,$6,$7*
1,1,$1+$1,$8,$9*
0 Add four rect primitives between the rounded corners*
20,1,$1+$1,$2,$3,$4,$5,0*
20,1,$1+$1,$4,$5,$6,$7,0*
20,1,$1+$1,$6,$7,$8,$9,0*
20,1,$1+$1,$8,$9,$2,$3,0*%
G04 Aperture macros list end*
G04 #@! TA.AperFunction,SMDPad,CuDef*
%ADD10RoundRect,0.225000X-0.017678X0.335876X-0.335876X0.017678X0.017678X-0.335876X0.335876X-0.017678X0*%
G04 #@! TD*
G04 #@! TA.AperFunction,SMDPad,CuDef*
%ADD11RoundRect,0.225000X-0.250000X0.225000X-0.250000X-0.225000X0.250000X-0.225000X0.250000X0.225000X0*%
G04 #@! TD*
G04 #@! TA.AperFunction,SMDPad,CuDef*
%ADD12RoundRect,0.225000X0.017678X-0.335876X0.335876X-0.017678X-0.017678X0.335876X-0.335876X0.017678X0*%
G04 #@! TD*
G04 #@! TA.AperFunction,SMDPad,CuDef*
%ADD13RoundRect,0.225000X-0.225000X-0.250000X0.225000X-0.250000X0.225000X0.250000X-0.225000X0.250000X0*%
G04 #@! TD*
G04 #@! TA.AperFunction,ViaPad*
%ADD14C,0.450000*%
G04 #@! TD*
G04 #@! TA.AperFunction,Conductor*
%ADD15C,0.350000*%
G04 #@! TD*
G04 #@! TA.AperFunction,Conductor*
%ADD16C,0.200000*%
G04 #@! TD*
G04 #@! TA.AperFunction,Conductor*
%ADD17C,0.300000*%
G04 #@! TD*
G04 #@! TA.AperFunction,Conductor*
%ADD18C,0.166000*%
G04 #@! TD*
G04 APERTURE END LIST*
D10*
X74385808Y-70380992D03*
X73289792Y-71477008D03*
D11*
X120904000Y-57149200D03*
X120904000Y-58699200D03*
X122555000Y-57149200D03*
X122555000Y-58699200D03*
D12*
X75677392Y-54916208D03*
X76773408Y-53820192D03*
X77912592Y-57139208D03*
X79008608Y-56043192D03*
X80848200Y-60096400D03*
X81944216Y-59000384D03*
D13*
X116967000Y-63004200D03*
X118517000Y-63004200D03*
D12*
X81925792Y-61164608D03*
X83021808Y-60068592D03*
D13*
X116967000Y-61400200D03*
X118517000Y-61400200D03*
D10*
X70575808Y-66418592D03*
X69479792Y-67514608D03*
X73268208Y-69263392D03*
X72172192Y-70359408D03*
D12*
X76845792Y-56084608D03*
X77941808Y-54988592D03*
D10*
X69458208Y-65300992D03*
X68362192Y-66397008D03*
D12*
X79792192Y-59018808D03*
X80888208Y-57922792D03*
D14*
X135610600Y-82816200D03*
X102514400Y-75018400D03*
X140665200Y-69100200D03*
X130200400Y-68693800D03*
X53167000Y-79464200D03*
X101967000Y-61564200D03*
X61620400Y-74662800D03*
X59867800Y-56908200D03*
X62509400Y-70929000D03*
X59690000Y-62089800D03*
X141667000Y-57964200D03*
X139141200Y-70573400D03*
X89458800Y-74485000D03*
X102498818Y-85489763D03*
X110173000Y-66153800D03*
X58064400Y-60134000D03*
X59842400Y-55181000D03*
X55041800Y-58229000D03*
X95767000Y-75364200D03*
X116484400Y-54749200D03*
X117373400Y-57009800D03*
X92696924Y-77289798D03*
X59893200Y-60056514D03*
X105156000Y-82181200D03*
X65481200Y-77876400D03*
X127279400Y-81597000D03*
X122047000Y-66839600D03*
X59283600Y-67474600D03*
X56567000Y-63764200D03*
X73228200Y-62013600D03*
X54762400Y-71589400D03*
X111836200Y-83197200D03*
X111760000Y-56349400D03*
X141967000Y-77364200D03*
X101767000Y-67119000D03*
X112471200Y-73888600D03*
X134067000Y-79864200D03*
X125767000Y-85064200D03*
X54889400Y-53301400D03*
X92659200Y-80047600D03*
X70129400Y-84899000D03*
X126669800Y-61378600D03*
X115567000Y-57364200D03*
X132367000Y-79864200D03*
X52691272Y-71522808D03*
X95631000Y-61962800D03*
X53670200Y-64985400D03*
X58267600Y-55181000D03*
X105841800Y-85508600D03*
X135867000Y-79864200D03*
X59766200Y-53199800D03*
X115567000Y-52964200D03*
X140605057Y-79068458D03*
X116636800Y-79768200D03*
X85217000Y-80936600D03*
X54838600Y-60896000D03*
X53067000Y-74964200D03*
X97713800Y-81292200D03*
X79222600Y-52641000D03*
X122834400Y-83832200D03*
X76708000Y-78663800D03*
X133959600Y-82790800D03*
X77825600Y-55993800D03*
X75387200Y-59753000D03*
X109728000Y-82232000D03*
X128967000Y-79864200D03*
X111867000Y-53364200D03*
X61823600Y-66776600D03*
X112318800Y-66751200D03*
X67667000Y-51864200D03*
X59893200Y-63105800D03*
X75260200Y-57213000D03*
X123267000Y-55364200D03*
X124993400Y-57975000D03*
X108280200Y-66560200D03*
X107365800Y-79666600D03*
X61667000Y-51864200D03*
X60020200Y-73088000D03*
X84531200Y-74332600D03*
X52654200Y-57721000D03*
X128752600Y-78498200D03*
X96037400Y-70141600D03*
X60375800Y-84746600D03*
X107051400Y-58635400D03*
X130657600Y-78117200D03*
X131216400Y-82892400D03*
X74701400Y-60489600D03*
X84582000Y-57695600D03*
X134747000Y-70934200D03*
X90367000Y-51764200D03*
X81356200Y-84899000D03*
X103251000Y-79666600D03*
X55016400Y-59499000D03*
X83337400Y-58826400D03*
X58699400Y-80987400D03*
X58140600Y-61759600D03*
X82667000Y-73364200D03*
X88290400Y-52031400D03*
X78105000Y-78740000D03*
X118719600Y-70878200D03*
X115976400Y-71259200D03*
X131851400Y-66687200D03*
X65887600Y-85496400D03*
X139367000Y-84864200D03*
X126267000Y-73464200D03*
X109583090Y-85422507D03*
X115468400Y-64058800D03*
X126767000Y-68364200D03*
X132232400Y-85407000D03*
X58547000Y-52031400D03*
X137767000Y-79864200D03*
X107391200Y-77914000D03*
X128854200Y-85356200D03*
X128727200Y-83044800D03*
X63322200Y-66890400D03*
X84556600Y-55231800D03*
X61849000Y-73240400D03*
X95580200Y-72478400D03*
X105232200Y-78142600D03*
X138500000Y-60749800D03*
X63246000Y-79311000D03*
X130667000Y-79864200D03*
X95567000Y-80264200D03*
X137718800Y-78142600D03*
X86667000Y-85764200D03*
X96240600Y-59981600D03*
X71247000Y-77990200D03*
X56767000Y-85664200D03*
X115967000Y-73864200D03*
X129169395Y-57356160D03*
X126593600Y-55663600D03*
X135007000Y-69194200D03*
X126767000Y-77364200D03*
X52741714Y-53288093D03*
X52691272Y-61913643D03*
X109728000Y-77939400D03*
X119267000Y-84564200D03*
X65354200Y-70065400D03*
X112268000Y-62978800D03*
X109651800Y-79615800D03*
X53517800Y-73316600D03*
X92278200Y-83121000D03*
X131368800Y-70040000D03*
X64795400Y-75247000D03*
X135027000Y-68144200D03*
X109397800Y-66458600D03*
X54787800Y-55409600D03*
X71653400Y-69608200D03*
X59893200Y-58457600D03*
X99466400Y-82435200D03*
X55667000Y-52364200D03*
X112467000Y-78764200D03*
X137490200Y-82790800D03*
X135864600Y-78117200D03*
X87909400Y-56400200D03*
X73894042Y-61296958D03*
X141267000Y-65964200D03*
X132613400Y-82892400D03*
X140867000Y-61464200D03*
X123418600Y-82460600D03*
X116535200Y-83451200D03*
X128981200Y-82003400D03*
X68935600Y-68135000D03*
X75692000Y-51929800D03*
X111567000Y-85364200D03*
X139217400Y-63918600D03*
X112496600Y-69977000D03*
X135027000Y-66044200D03*
X127533400Y-66751200D03*
X83718400Y-53758600D03*
X128625600Y-60464200D03*
X117805200Y-82257400D03*
X59359800Y-70319400D03*
X57175400Y-79070600D03*
X132283200Y-60788200D03*
X53848000Y-84467200D03*
X78562200Y-53860200D03*
X75567000Y-85364200D03*
X96088200Y-67271400D03*
X99364800Y-76669400D03*
X86436200Y-82765400D03*
X58216800Y-56857400D03*
X76606400Y-59766200D03*
X55143400Y-56806600D03*
X91567000Y-85164200D03*
X99298911Y-85634534D03*
X59867800Y-75805800D03*
X55854600Y-62191400D03*
X59207400Y-63817000D03*
X106673000Y-66153800D03*
X68224400Y-77343000D03*
X58140600Y-58483000D03*
X101066600Y-81952600D03*
X53167000Y-77064200D03*
X135057000Y-67094200D03*
X81838800Y-60007000D03*
X78308200Y-84594200D03*
X68167000Y-85664200D03*
X95808800Y-83832200D03*
X79567000Y-85564200D03*
X142267000Y-73264200D03*
X139967000Y-81464200D03*
X52666051Y-67613567D03*
X105486200Y-79666600D03*
X52628800Y-64553600D03*
X136067000Y-73374200D03*
X136525000Y-85381600D03*
X82092800Y-52412400D03*
X142267000Y-69664200D03*
X104368600Y-79666600D03*
X140767000Y-54364200D03*
X116890800Y-66534800D03*
X74701400Y-77380600D03*
X76867000Y-77564200D03*
X61667000Y-85464200D03*
X107391200Y-82257400D03*
X70510400Y-64922400D03*
X78130400Y-58559200D03*
X66624200Y-71792600D03*
X76657200Y-57365400D03*
X61188600Y-71704200D03*
X60147200Y-71678800D03*
X71907400Y-63537600D03*
X70027800Y-82143600D03*
X74752200Y-69252600D03*
X72466200Y-62750200D03*
X77444600Y-58102000D03*
X66878200Y-78257400D03*
X66903600Y-77571600D03*
X79527400Y-60057800D03*
X71120000Y-65506600D03*
X73685400Y-68312800D03*
X75412600Y-81089000D03*
X100431600Y-74916800D03*
X89154000Y-83146400D03*
X57937400Y-63613800D03*
X88442800Y-83769200D03*
X57886600Y-77406000D03*
X73964800Y-81089000D03*
X57810400Y-76491600D03*
X57937400Y-62801000D03*
X88468200Y-82613000D03*
X61087000Y-80885800D03*
X120624600Y-73215000D03*
X118364000Y-68973200D03*
X125755400Y-69151000D03*
X125857000Y-74688200D03*
X74752200Y-81686400D03*
X99999800Y-71056000D03*
X60121800Y-81089000D03*
X62510800Y-75755000D03*
X57124600Y-79895200D03*
X61747400Y-78853800D03*
X56896000Y-80708000D03*
X100736400Y-84010000D03*
X54229000Y-63512200D03*
X128473200Y-83908400D03*
X80949800Y-82880200D03*
X80543400Y-82219800D03*
X134772400Y-71970400D03*
X80086200Y-82931000D03*
X105638600Y-63359800D03*
X54229000Y-62547000D03*
X60858400Y-67411600D03*
X70307200Y-63029600D03*
X70078600Y-63817000D03*
X61747400Y-69773800D03*
X73025000Y-64833000D03*
X68656200Y-69760600D03*
X64465200Y-70612000D03*
X69723000Y-69913000D03*
X73304400Y-67576200D03*
X74117200Y-65823600D03*
X86131400Y-71995800D03*
X74680886Y-66565086D03*
X86791800Y-72503800D03*
X76047600Y-67703200D03*
X87553800Y-72910200D03*
X79578200Y-74739000D03*
X78663800Y-61632600D03*
X55473600Y-53968200D03*
X59055000Y-53968200D03*
X59055000Y-54768200D03*
X55473600Y-54768200D03*
X55872903Y-55619200D03*
X59055000Y-55619200D03*
X55872903Y-56419200D03*
X59055000Y-56419200D03*
X59055000Y-57270200D03*
X55880000Y-57270200D03*
X59055000Y-58070200D03*
X55880000Y-58070200D03*
X59055000Y-58921200D03*
X55870998Y-58921200D03*
X55870998Y-59721200D03*
X59055000Y-59721200D03*
X59055000Y-60572200D03*
X55671840Y-60572200D03*
X55671840Y-61372200D03*
X59055000Y-61372200D03*
X120446800Y-68211200D03*
X120218200Y-61734200D03*
X120421400Y-60921400D03*
X121450100Y-68173100D03*
X72161400Y-82105000D03*
X85217000Y-80022200D03*
X86436200Y-75805800D03*
X105899000Y-78726800D03*
X105899000Y-81825600D03*
X110236000Y-53758600D03*
X106654600Y-64121800D03*
X106699000Y-81825600D03*
X106699000Y-78726800D03*
X100965000Y-59499000D03*
X107975400Y-65722000D03*
X108108800Y-81876400D03*
X108108800Y-78676000D03*
X108839000Y-65747400D03*
X98067000Y-55964200D03*
X108908800Y-81876400D03*
X108908800Y-78676000D03*
X67894200Y-82994000D03*
X61696600Y-77787000D03*
X65913000Y-84111600D03*
X57683400Y-81038200D03*
X99567000Y-81264200D03*
X100667000Y-63064200D03*
X100667000Y-67164200D03*
X100711000Y-56197000D03*
X107254600Y-61073800D03*
X97205800Y-69151000D03*
X130302000Y-78879200D03*
X130302000Y-82689200D03*
X129502000Y-78879200D03*
X129502000Y-82689200D03*
X132461000Y-68024200D03*
X131876800Y-82054200D03*
X132461000Y-67224200D03*
X131076800Y-82054200D03*
X133629400Y-82054200D03*
X131600843Y-69256043D03*
X131035157Y-68690357D03*
X132829400Y-82054200D03*
X134474000Y-82063202D03*
X139290157Y-69764043D03*
X135274000Y-82063202D03*
X139855843Y-69198357D03*
X136115157Y-82152357D03*
X136379000Y-78879200D03*
X137179000Y-78879200D03*
X136680843Y-82718043D03*
X135178800Y-64375800D03*
X123825000Y-74840600D03*
X124434600Y-53961800D03*
X137185400Y-55638200D03*
X130378200Y-56959000D03*
X126796800Y-53809400D03*
X120396000Y-81571600D03*
X135356600Y-63563000D03*
X121767600Y-80479400D03*
X134797800Y-54825400D03*
X115747800Y-60311800D03*
X116205000Y-65696600D03*
X118465600Y-53580800D03*
X136797000Y-72104200D03*
X123926600Y-56806600D03*
X121158000Y-54088800D03*
X135267000Y-70064200D03*
X129514600Y-59499000D03*
D15*
X124269200Y-58699200D02*
X124993400Y-57975000D01*
X122555000Y-58699200D02*
X124269200Y-58699200D01*
X118517000Y-64908600D02*
X116890800Y-66534800D01*
X118517000Y-61400200D02*
X118517000Y-63004200D01*
X69479792Y-67590808D02*
X69479792Y-67514608D01*
X120904000Y-58699200D02*
X122555000Y-58699200D01*
X73289792Y-71477008D02*
X73268208Y-71477008D01*
X118517000Y-63004200D02*
X118517000Y-64908600D01*
X66624200Y-71792600D02*
X66624200Y-74853800D01*
X64312800Y-77165200D02*
X64312800Y-78460600D01*
X65252600Y-79400400D02*
X64312800Y-78460600D01*
X65252600Y-79400400D02*
X67284600Y-79400400D01*
X66624200Y-74853800D02*
X64312800Y-77165200D01*
X67284600Y-79400400D02*
X70027800Y-82143600D01*
X79538192Y-60047008D02*
X79527400Y-60057800D01*
X70575808Y-66012192D02*
X70575808Y-66418592D01*
X124637800Y-73773800D02*
X124079000Y-73215000D01*
X123494800Y-70040000D02*
X119430800Y-70040000D01*
X124841000Y-70624200D02*
X125755400Y-69709800D01*
X125857000Y-74688200D02*
X124942600Y-73773800D01*
X100431600Y-71487800D02*
X99999800Y-71056000D01*
X100431600Y-74916800D02*
X100431600Y-71487800D01*
X124079000Y-70624200D02*
X124841000Y-70624200D01*
X124079000Y-73215000D02*
X124079000Y-70624200D01*
X119430800Y-70040000D02*
X118364000Y-68973200D01*
X124942600Y-73773800D02*
X124637800Y-73773800D01*
X124079000Y-73215000D02*
X120624600Y-73215000D01*
X124079000Y-70624200D02*
X123494800Y-70040000D01*
X125755400Y-69709800D02*
X125755400Y-69151000D01*
D16*
X57454800Y-79565000D02*
X58953400Y-79565000D01*
X58953400Y-79565000D02*
X62510800Y-76007600D01*
X62510800Y-76007600D02*
X62510800Y-75755000D01*
X57124600Y-79895200D02*
X57454800Y-79565000D01*
X57175400Y-80428600D02*
X60172600Y-80428600D01*
X60172600Y-80428600D02*
X61747400Y-78853800D01*
X56896000Y-80708000D02*
X57175400Y-80428600D01*
D17*
X100380800Y-83654400D02*
X100736400Y-84010000D01*
X100380800Y-79209400D02*
X100380800Y-83654400D01*
X105638600Y-63359800D02*
X103936800Y-65061600D01*
X103936800Y-65061600D02*
X103936800Y-75653400D01*
X103936800Y-75653400D02*
X100380800Y-79209400D01*
D16*
X60858400Y-67411600D02*
X60858400Y-67423800D01*
X82622293Y-71233800D02*
X78566107Y-71233800D01*
X86131400Y-71995800D02*
X83798507Y-71995800D01*
X77419200Y-70086893D02*
X77419200Y-67249907D01*
X77272753Y-66896353D02*
X76346446Y-65970046D01*
X78212553Y-71087353D02*
X77565646Y-70440446D01*
X83444953Y-71849353D02*
X82975846Y-71380246D01*
X75992893Y-65823600D02*
X74117200Y-65823600D01*
X77419195Y-67249907D02*
G75*
G03*
X77272753Y-66896353I-499995J7D01*
G01*
X76346449Y-65970043D02*
G75*
G03*
X75992893Y-65823600I-353549J-353557D01*
G01*
X82975849Y-71380243D02*
G75*
G03*
X82622293Y-71233800I-353549J-353557D01*
G01*
X83444950Y-71849356D02*
G75*
G03*
X83798507Y-71995800I353550J353556D01*
G01*
X77419205Y-70086893D02*
G75*
G03*
X77565646Y-70440446I499995J-7D01*
G01*
X78212550Y-71087356D02*
G75*
G03*
X78566107Y-71233800I353550J353556D01*
G01*
X82393693Y-71716400D02*
X78235907Y-71716400D01*
X77012800Y-70493293D02*
X77012800Y-67605507D01*
X83241753Y-72357353D02*
X82747246Y-71862846D01*
X76018293Y-66611000D02*
X74726800Y-66611000D01*
X76866353Y-67251953D02*
X76371846Y-66757446D01*
X77882353Y-71569953D02*
X77159246Y-70846846D01*
X74726800Y-66611000D02*
X74680886Y-66565086D01*
X86791800Y-72503800D02*
X83595307Y-72503800D01*
X83241750Y-72357356D02*
G75*
G03*
X83595307Y-72503800I353550J353556D01*
G01*
X77012805Y-70493293D02*
G75*
G03*
X77159246Y-70846846I499995J-7D01*
G01*
X77012795Y-67605507D02*
G75*
G03*
X76866353Y-67251953I-499995J7D01*
G01*
X82747249Y-71862843D02*
G75*
G03*
X82393693Y-71716400I-353549J-353557D01*
G01*
X77882350Y-71569956D02*
G75*
G03*
X78235907Y-71716400I353550J353556D01*
G01*
X76371849Y-66757443D02*
G75*
G03*
X76018293Y-66611000I-353549J-353557D01*
G01*
X76459953Y-68115553D02*
X76047600Y-67703200D01*
X87553800Y-72910200D02*
X87452200Y-73011800D01*
X82987753Y-72865353D02*
X82518646Y-72396246D01*
X87452200Y-73011800D02*
X83341307Y-73011800D01*
X77602953Y-72103353D02*
X76752846Y-71253246D01*
X82165093Y-72249800D02*
X77956507Y-72249800D01*
X76606400Y-70899693D02*
X76606400Y-68469107D01*
X76606395Y-68469107D02*
G75*
G03*
X76459953Y-68115553I-499995J7D01*
G01*
X82518649Y-72396243D02*
G75*
G03*
X82165093Y-72249800I-353549J-353557D01*
G01*
X77602950Y-72103356D02*
G75*
G03*
X77956507Y-72249800I353550J353556D01*
G01*
X82987750Y-72865356D02*
G75*
G03*
X83341307Y-73011800I353550J353556D01*
G01*
X76606405Y-70899693D02*
G75*
G03*
X76752846Y-71253246I499995J-7D01*
G01*
D18*
X58600893Y-54215200D02*
X55927707Y-54215200D01*
X59055000Y-53968200D02*
X58954446Y-54068754D01*
X55574153Y-54068753D02*
X55473600Y-53968200D01*
X55574150Y-54068756D02*
G75*
G03*
X55927707Y-54215200I353550J353556D01*
G01*
X58600893Y-54215195D02*
G75*
G03*
X58954446Y-54068754I7J499995D01*
G01*
X59055000Y-54768200D02*
X58954446Y-54667646D01*
X58600893Y-54521200D02*
X55927707Y-54521200D01*
X55574153Y-54667647D02*
X55473600Y-54768200D01*
X55927707Y-54521205D02*
G75*
G03*
X55574153Y-54667647I-7J-499995D01*
G01*
X58954449Y-54667643D02*
G75*
G03*
X58600893Y-54521200I-353549J-353557D01*
G01*
X59055000Y-55619200D02*
X58954446Y-55719754D01*
X55973456Y-55719753D02*
X55872903Y-55619200D01*
X58600893Y-55866200D02*
X56327010Y-55866200D01*
X58600893Y-55866195D02*
G75*
G03*
X58954446Y-55719754I7J499995D01*
G01*
X55973451Y-55719758D02*
G75*
G03*
X56327010Y-55866200I353549J353558D01*
G01*
X55973456Y-56318647D02*
X55872903Y-56419200D01*
X58600893Y-56172200D02*
X56327010Y-56172200D01*
X59055000Y-56419200D02*
X58954446Y-56318646D01*
X58954449Y-56318643D02*
G75*
G03*
X58600893Y-56172200I-353549J-353557D01*
G01*
X56327010Y-56172207D02*
G75*
G03*
X55973456Y-56318647I-10J-499993D01*
G01*
X59055000Y-57270200D02*
X58954446Y-57370754D01*
X55980553Y-57370753D02*
X55880000Y-57270200D01*
X58600893Y-57517200D02*
X56334107Y-57517200D01*
X55980550Y-57370756D02*
G75*
G03*
X56334107Y-57517200I353550J353556D01*
G01*
X58600893Y-57517195D02*
G75*
G03*
X58954446Y-57370754I7J499995D01*
G01*
X58600893Y-57823200D02*
X56334107Y-57823200D01*
X55980553Y-57969647D02*
X55880000Y-58070200D01*
X59055000Y-58070200D02*
X58954446Y-57969646D01*
X58954449Y-57969643D02*
G75*
G03*
X58600893Y-57823200I-353549J-353557D01*
G01*
X56334107Y-57823205D02*
G75*
G03*
X55980553Y-57969647I-7J-499995D01*
G01*
X59055000Y-58921200D02*
X58954446Y-59021754D01*
X55971551Y-59021753D02*
X55870998Y-58921200D01*
X58600893Y-59168200D02*
X56325105Y-59168200D01*
X58600893Y-59168195D02*
G75*
G03*
X58954446Y-59021754I7J499995D01*
G01*
X55971549Y-59021755D02*
G75*
G03*
X56325105Y-59168200I353551J353555D01*
G01*
X58600893Y-59474200D02*
X56325105Y-59474200D01*
X59055000Y-59721200D02*
X58954446Y-59620646D01*
X55971551Y-59620647D02*
X55870998Y-59721200D01*
X56325105Y-59474204D02*
G75*
G03*
X55971551Y-59620647I-5J-499996D01*
G01*
X58954449Y-59620643D02*
G75*
G03*
X58600893Y-59474200I-353549J-353557D01*
G01*
X58600893Y-60819200D02*
X56125947Y-60819200D01*
X55772393Y-60672753D02*
X55671840Y-60572200D01*
X59055000Y-60572200D02*
X58954446Y-60672754D01*
X55772370Y-60672776D02*
G75*
G03*
X56125947Y-60819200I353530J353576D01*
G01*
X58600893Y-60819195D02*
G75*
G03*
X58954446Y-60672754I7J499995D01*
G01*
X58600893Y-61125200D02*
X56125947Y-61125200D01*
X59055000Y-61372200D02*
X58954446Y-61271646D01*
X55772393Y-61271647D02*
X55671840Y-61372200D01*
X58954449Y-61271643D02*
G75*
G03*
X58600893Y-61125200I-353549J-353557D01*
G01*
X56125947Y-61125234D02*
G75*
G03*
X55772394Y-61271648I-47J-499966D01*
G01*
D16*
X120218200Y-61734200D02*
X120446800Y-61962800D01*
X120446800Y-61962800D02*
X120446800Y-68211200D01*
X121450100Y-61950100D02*
X121450100Y-68173100D01*
X120421400Y-60921400D02*
X121450100Y-61950100D01*
X74117200Y-80149200D02*
X85090000Y-80149200D01*
X72161400Y-82105000D02*
X74117200Y-80149200D01*
X86436200Y-78803000D02*
X86436200Y-75805800D01*
X85217000Y-80022200D02*
X86436200Y-78803000D01*
X85090000Y-80149200D02*
X85217000Y-80022200D01*
D18*
X105899000Y-78726800D02*
X105999554Y-78827354D01*
X105999553Y-81725047D02*
X105899000Y-81825600D01*
X106146000Y-79180907D02*
X106146000Y-81371493D01*
X106145995Y-79180907D02*
G75*
G03*
X105999554Y-78827354I-499995J7D01*
G01*
X105999556Y-81725050D02*
G75*
G03*
X106146000Y-81371493I-353556J353550D01*
G01*
X106598447Y-81725047D02*
X106699000Y-81825600D01*
X106452000Y-79180907D02*
X106452000Y-81371493D01*
X106699000Y-78726800D02*
X106598446Y-78827354D01*
X106452005Y-81371493D02*
G75*
G03*
X106598447Y-81725047I499995J-7D01*
G01*
X106598443Y-78827351D02*
G75*
G03*
X106452000Y-79180907I353557J-353549D01*
G01*
D16*
X100965000Y-59499000D02*
X100990400Y-59524400D01*
X108356400Y-64020200D02*
X107975400Y-64401200D01*
X107975400Y-64401200D02*
X107975400Y-65722000D01*
X108356400Y-60184800D02*
X108356400Y-64020200D01*
X100990400Y-59524400D02*
X107696000Y-59524400D01*
X107696000Y-59524400D02*
X108356400Y-60184800D01*
D18*
X108209353Y-81775847D02*
X108108800Y-81876400D01*
X108108800Y-78676000D02*
X108209354Y-78776554D01*
X108355800Y-79130107D02*
X108355800Y-81422293D01*
X108355795Y-79130107D02*
G75*
G03*
X108209354Y-78776554I-499995J7D01*
G01*
X108209356Y-81775850D02*
G75*
G03*
X108355800Y-81422293I-353556J353550D01*
G01*
D16*
X98067000Y-55964200D02*
X100154000Y-58051200D01*
X109016800Y-65747400D02*
X108839000Y-65747400D01*
X100154000Y-58051200D02*
X108737400Y-58051200D01*
X108737400Y-58051200D02*
X109448600Y-58762400D01*
X109448600Y-58762400D02*
X109448600Y-65315600D01*
X109448600Y-65315600D02*
X109016800Y-65747400D01*
D18*
X108661800Y-79130107D02*
X108661800Y-81422293D01*
X108808247Y-81775847D02*
X108908800Y-81876400D01*
X108908800Y-78676000D02*
X108808246Y-78776554D01*
X108808243Y-78776551D02*
G75*
G03*
X108661800Y-79130107I353557J-353549D01*
G01*
X108661805Y-81422293D02*
G75*
G03*
X108808247Y-81775847I499995J-7D01*
G01*
D16*
X62560200Y-80682600D02*
X62560200Y-78193400D01*
X62153800Y-77787000D02*
X61696600Y-77787000D01*
X67894200Y-82994000D02*
X67513200Y-82613000D01*
X67513200Y-82613000D02*
X64490600Y-82613000D01*
X64490600Y-82613000D02*
X62560200Y-80682600D01*
X62560200Y-78193400D02*
X62153800Y-77787000D01*
X65074800Y-83273400D02*
X63779400Y-83273400D01*
X65913000Y-84111600D02*
X65074800Y-83273400D01*
X63779400Y-83273400D02*
X62153800Y-81647800D01*
X62153800Y-81647800D02*
X58293000Y-81647800D01*
X58293000Y-81647800D02*
X57683400Y-81038200D01*
X100167000Y-76064200D02*
X100167000Y-77264200D01*
X100367000Y-63364200D02*
X100367000Y-64008600D01*
X96647000Y-72544200D02*
X100167000Y-76064200D01*
X96647000Y-67728600D02*
X96647000Y-72544200D01*
X100667000Y-63064200D02*
X100367000Y-63364200D01*
X100367000Y-64008600D02*
X96647000Y-67728600D01*
X99567000Y-77864200D02*
X99567000Y-81264200D01*
X100167000Y-77264200D02*
X99567000Y-77864200D01*
X96967000Y-55764200D02*
X96967000Y-57864200D01*
X96967000Y-57864200D02*
X101467000Y-62364200D01*
X97567000Y-55164200D02*
X96967000Y-55764200D01*
X101467000Y-65964200D02*
X100667000Y-66764200D01*
X99678200Y-55164200D02*
X97567000Y-55164200D01*
X101467000Y-62364200D02*
X101467000Y-65964200D01*
X100711000Y-56197000D02*
X99678200Y-55164200D01*
X100667000Y-66764200D02*
X100667000Y-67164200D01*
D17*
X102867000Y-64937600D02*
X106730800Y-61073800D01*
X97205800Y-69151000D02*
X102280200Y-69151000D01*
X102280200Y-69151000D02*
X102867000Y-68564200D01*
X102867000Y-68564200D02*
X102867000Y-64937600D01*
X106730800Y-61073800D02*
X107254600Y-61073800D01*
D18*
X130201447Y-82588647D02*
X130302000Y-82689200D01*
X130055000Y-79333307D02*
X130055000Y-82235093D01*
X130302000Y-78879200D02*
X130201446Y-78979754D01*
X130201443Y-78979751D02*
G75*
G03*
X130055000Y-79333307I353557J-353549D01*
G01*
X130055005Y-82235093D02*
G75*
G03*
X130201447Y-82588647I499995J-7D01*
G01*
X129502000Y-78879200D02*
X129602554Y-78979754D01*
X129749000Y-79333307D02*
X129749000Y-82235093D01*
X129602553Y-82588647D02*
X129502000Y-82689200D01*
X129748995Y-79333307D02*
G75*
G03*
X129602554Y-78979754I-499995J7D01*
G01*
X129602556Y-82588650D02*
G75*
G03*
X129749000Y-82235093I-353556J353550D01*
G01*
X129624603Y-74984578D02*
X129624603Y-74984577D01*
X128270600Y-69926400D02*
X128270600Y-69628590D01*
X131629800Y-81600093D02*
X131629800Y-76544038D01*
X129566674Y-74066699D02*
X129566674Y-74066700D01*
X128398600Y-70822400D02*
X128543850Y-70822400D01*
X129566675Y-74680469D02*
X129566675Y-74680470D01*
X130121990Y-67777200D02*
X130190376Y-67777200D01*
X129443584Y-74984578D02*
X129443585Y-74984578D01*
X128648726Y-74008841D02*
X128771887Y-73885681D01*
X128771888Y-73271912D02*
X128563493Y-73063517D01*
X128543848Y-71078400D02*
X128398600Y-71078400D01*
X130190376Y-67777200D02*
X132006893Y-67777200D01*
X128952905Y-74066699D02*
X128829745Y-74189860D01*
X132360446Y-67923646D02*
X132461000Y-68024200D01*
X130361462Y-74861487D02*
X130361462Y-74861488D01*
X129443584Y-74803559D02*
X129566675Y-74680469D01*
X129747693Y-74861487D02*
X129624603Y-74984578D01*
X129566675Y-74066700D02*
X129566674Y-74066699D01*
X128563493Y-68921483D02*
X129414883Y-68070093D01*
X128398600Y-70310400D02*
X128543848Y-70310400D01*
X128829745Y-74189860D02*
X128829745Y-74189859D01*
X128543850Y-70566400D02*
X128398600Y-70566400D01*
X128771887Y-73885681D02*
X128771887Y-73885682D01*
X131876800Y-82054200D02*
X131776247Y-81953647D01*
X128398600Y-71334400D02*
X128543848Y-71334400D01*
X128270600Y-72356410D02*
X128270600Y-71462400D01*
X131336907Y-75836931D02*
X130361462Y-74861487D01*
X128771887Y-73271912D02*
X128771888Y-73271912D01*
X128543848Y-70054400D02*
X128398600Y-70054400D01*
X128648726Y-74189860D02*
X128648727Y-74189860D01*
X128543848Y-71334448D02*
G75*
G03*
X128671848Y-71206400I-48J128048D01*
G01*
X128771890Y-73885685D02*
G75*
G03*
X128771887Y-73271912I-306890J306885D01*
G01*
X132360449Y-67923643D02*
G75*
G03*
X132006893Y-67777200I-353549J-353557D01*
G01*
X131629773Y-76544038D02*
G75*
G03*
X131336907Y-75836931I-999973J38D01*
G01*
X128270600Y-70950400D02*
G75*
G03*
X128398600Y-71078400I128000J0D01*
G01*
X130121990Y-67777193D02*
G75*
G03*
X129414883Y-68070093I10J-1000007D01*
G01*
X130361485Y-74861465D02*
G75*
G03*
X129747693Y-74861487I-306885J-306935D01*
G01*
X128648691Y-74189895D02*
G75*
G03*
X128829745Y-74189859I90509J90495D01*
G01*
X128398600Y-70822400D02*
G75*
G03*
X128270600Y-70950400I0J-128000D01*
G01*
X129443591Y-74984571D02*
G75*
G03*
X129624603Y-74984577I90509J90471D01*
G01*
X128671900Y-70694400D02*
G75*
G03*
X128543850Y-70566400I-128000J0D01*
G01*
X128543850Y-70822350D02*
G75*
G03*
X128671850Y-70694400I50J127950D01*
G01*
X129443616Y-74803591D02*
G75*
G03*
X129443585Y-74984578I90484J-90509D01*
G01*
X128671800Y-70182400D02*
G75*
G03*
X128543848Y-70054400I-128000J0D01*
G01*
X129566690Y-74680485D02*
G75*
G03*
X129566675Y-74066700I-306890J306885D01*
G01*
X128543848Y-70310448D02*
G75*
G03*
X128671848Y-70182400I-48J128048D01*
G01*
X128270600Y-69926400D02*
G75*
G03*
X128398600Y-70054400I128000J0D01*
G01*
X128648777Y-74008892D02*
G75*
G03*
X128648728Y-74189859I90423J-90508D01*
G01*
X128270600Y-70438400D02*
G75*
G03*
X128398600Y-70566400I128000J0D01*
G01*
X128563498Y-68921488D02*
G75*
G03*
X128270600Y-69628590I707102J-707112D01*
G01*
X131629805Y-81600093D02*
G75*
G03*
X131776247Y-81953647I499995J-7D01*
G01*
X128270593Y-72356410D02*
G75*
G03*
X128563493Y-73063517I1000007J10D01*
G01*
X128671800Y-71206400D02*
G75*
G03*
X128543848Y-71078400I-128000J0D01*
G01*
X129566685Y-74066689D02*
G75*
G03*
X128952905Y-74066699I-306885J-306911D01*
G01*
X128398600Y-71334400D02*
G75*
G03*
X128270600Y-71462400I0J-128000D01*
G01*
X128398600Y-70310400D02*
G75*
G03*
X128270600Y-70438400I0J-128000D01*
G01*
X130063624Y-67471200D02*
X129995238Y-67471200D01*
X132006893Y-67471200D02*
X130063624Y-67471200D01*
X128555512Y-73669307D02*
X128555512Y-73669306D01*
X128432352Y-74406235D02*
X128432351Y-74406235D01*
X129288131Y-67764093D02*
X128257493Y-68794731D01*
X129350300Y-74464094D02*
X129227209Y-74587184D01*
X129350298Y-74283075D02*
X129350298Y-74283074D01*
X127964600Y-69501838D02*
X127964600Y-72483162D01*
X131323800Y-76670790D02*
X131323800Y-81600093D01*
X128555512Y-73669306D02*
X128432351Y-73792466D01*
X132461000Y-67224200D02*
X132360446Y-67324754D01*
X129227210Y-75200953D02*
X129227209Y-75200953D01*
X130145086Y-75077862D02*
X131030907Y-75963683D01*
X128257493Y-73190269D02*
X128555512Y-73488288D01*
X129350298Y-74283074D02*
X129350300Y-74283075D01*
X131177353Y-81953647D02*
X131076800Y-82054200D01*
X129046120Y-74406234D02*
X129046119Y-74406235D01*
X129840977Y-75200953D02*
X129964067Y-75077862D01*
X129350300Y-74464095D02*
X129350300Y-74464094D01*
X128555512Y-73488288D02*
X128555512Y-73488287D01*
X129840978Y-75200952D02*
X129840977Y-75200953D01*
X129046119Y-74406235D02*
X129169279Y-74283074D01*
X130145086Y-75077863D02*
X130145086Y-75077862D01*
X128432301Y-73792416D02*
G75*
G03*
X128432352Y-74406235I306899J-306884D01*
G01*
X129995238Y-67471227D02*
G75*
G03*
X129288131Y-67764093I-38J-999973D01*
G01*
X131323807Y-76670790D02*
G75*
G03*
X131030907Y-75963683I-1000007J-10D01*
G01*
X128555515Y-73669310D02*
G75*
G03*
X128555512Y-73488287I-90515J90510D01*
G01*
X129227242Y-74587217D02*
G75*
G03*
X129227211Y-75200952I306858J-306883D01*
G01*
X128432316Y-74406270D02*
G75*
G03*
X129046120Y-74406234I306884J306970D01*
G01*
X132006893Y-67471195D02*
G75*
G03*
X132360446Y-67324754I7J499995D01*
G01*
X129350315Y-74464110D02*
G75*
G03*
X129350300Y-74283075I-90515J90510D01*
G01*
X130145110Y-75077839D02*
G75*
G03*
X129964067Y-75077862I-90510J-90561D01*
G01*
X129350310Y-74283063D02*
G75*
G03*
X129169279Y-74283074I-90510J-90537D01*
G01*
X127964627Y-72483162D02*
G75*
G03*
X128257493Y-73190269I999973J-38D01*
G01*
X131177356Y-81953650D02*
G75*
G03*
X131323800Y-81600093I-353556J353550D01*
G01*
X129227216Y-75200946D02*
G75*
G03*
X129840978Y-75200952I306884J306846D01*
G01*
X128257474Y-68794712D02*
G75*
G03*
X127964600Y-69501838I707126J-707088D01*
G01*
X133520819Y-77482818D02*
X133520818Y-77482818D01*
X131492629Y-74183349D02*
X132235528Y-73440447D01*
X133659237Y-77921236D02*
X133659237Y-77944400D01*
X133520819Y-76882818D02*
X133520818Y-76882818D01*
X133382400Y-78221236D02*
X133382400Y-78244400D01*
X132849297Y-74054217D02*
X132676554Y-74226961D01*
X133382400Y-75528038D02*
X133382400Y-75844400D01*
X130516827Y-73388560D02*
X130516826Y-73388560D01*
X131492629Y-74183348D02*
X131492629Y-74183349D01*
X133659237Y-76121236D02*
X133659237Y-76144400D01*
X130689587Y-73034781D02*
X130516826Y-73207541D01*
X132849299Y-74054218D02*
X132849297Y-74054217D01*
X130201000Y-70720789D02*
X130201000Y-71518210D01*
X133382400Y-77621236D02*
X133382400Y-77644400D01*
X132054535Y-73259406D02*
X131311610Y-74002330D01*
X131600843Y-69256043D02*
X131458639Y-69256043D01*
X132676554Y-74407981D02*
X132676553Y-74407979D01*
X133528847Y-81953647D02*
X133629400Y-82054200D01*
X133659237Y-76721236D02*
X133659237Y-76744400D01*
X133520818Y-77782818D02*
X133520819Y-77782818D01*
X131105085Y-69402490D02*
X130493893Y-70013682D01*
X130697845Y-73388560D02*
X131440765Y-72645636D01*
X133520818Y-77182818D02*
X133520819Y-77182818D01*
X133382400Y-77021236D02*
X133382400Y-77044400D01*
X133382400Y-76421236D02*
X133382400Y-76444400D01*
X133659237Y-77321236D02*
X133659237Y-77344400D01*
X133520819Y-78082818D02*
X133520818Y-78082818D01*
X130689587Y-73034782D02*
X130689587Y-73034781D01*
X130697845Y-73388559D02*
X130697845Y-73388560D01*
X130689588Y-72421012D02*
X130689587Y-72421012D01*
X133382400Y-78244400D02*
X133382400Y-81600093D01*
X133520819Y-76282818D02*
X133520818Y-76282818D01*
X133520818Y-76582818D02*
X133520819Y-76582818D01*
X130493893Y-72225317D02*
X130689588Y-72421012D01*
X133520818Y-75982818D02*
X133520819Y-75982818D01*
X132054534Y-73259407D02*
X132054535Y-73259406D01*
X131311609Y-74183349D02*
X131311610Y-74183349D01*
X132676553Y-74407979D02*
X133089507Y-74820931D01*
X133382382Y-77044400D02*
G75*
G03*
X133520818Y-77182818I138418J0D01*
G01*
X133520819Y-76282837D02*
G75*
G03*
X133659237Y-76144400I-19J138437D01*
G01*
X130493899Y-70013688D02*
G75*
G03*
X130201000Y-70720789I707101J-707112D01*
G01*
X133382382Y-75844400D02*
G75*
G03*
X133520818Y-75982818I138418J0D01*
G01*
X133659182Y-77321236D02*
G75*
G03*
X133520819Y-77182818I-138382J36D01*
G01*
X133382382Y-76444400D02*
G75*
G03*
X133520818Y-76582818I138418J0D01*
G01*
X132849286Y-73440461D02*
G75*
G03*
X132235528Y-73440447I-306886J-306839D01*
G01*
X133520818Y-77482800D02*
G75*
G03*
X133382400Y-77621236I-18J-138400D01*
G01*
X132849265Y-74054184D02*
G75*
G03*
X132849298Y-73440449I-306865J306884D01*
G01*
X133520819Y-78082837D02*
G75*
G03*
X133659237Y-77944400I-19J138437D01*
G01*
X130516791Y-73388595D02*
G75*
G03*
X130697845Y-73388559I90509J90495D01*
G01*
X133659182Y-77921236D02*
G75*
G03*
X133520819Y-77782818I-138382J36D01*
G01*
X133520819Y-76882837D02*
G75*
G03*
X133659237Y-76744400I-19J138437D01*
G01*
X130200993Y-71518210D02*
G75*
G03*
X130493893Y-72225317I1000007J10D01*
G01*
X131311570Y-74002290D02*
G75*
G03*
X131311609Y-74183349I90530J-90510D01*
G01*
X133382405Y-81600093D02*
G75*
G03*
X133528847Y-81953647I499995J-7D01*
G01*
X130516877Y-73207592D02*
G75*
G03*
X130516828Y-73388559I90423J-90508D01*
G01*
X131458639Y-69256058D02*
G75*
G03*
X131105085Y-69402490I-39J-499942D01*
G01*
X131311592Y-74183367D02*
G75*
G03*
X131492628Y-74183347I90508J90567D01*
G01*
X133659182Y-76721236D02*
G75*
G03*
X133520819Y-76582818I-138382J36D01*
G01*
X130689590Y-73034785D02*
G75*
G03*
X130689587Y-72421012I-306890J306885D01*
G01*
X132054485Y-72645688D02*
G75*
G03*
X131440766Y-72645637I-306885J-306812D01*
G01*
X133520818Y-78082800D02*
G75*
G03*
X133382400Y-78221236I-18J-138400D01*
G01*
X133520818Y-76882800D02*
G75*
G03*
X133382400Y-77021236I-18J-138400D01*
G01*
X132054512Y-73259385D02*
G75*
G03*
X132054535Y-72645638I-306912J306885D01*
G01*
X133382373Y-75528038D02*
G75*
G03*
X133089507Y-74820931I-999973J38D01*
G01*
X133659182Y-76121236D02*
G75*
G03*
X133520819Y-75982818I-138382J36D01*
G01*
X133520819Y-77482837D02*
G75*
G03*
X133659237Y-77344400I-19J138437D01*
G01*
X133520818Y-76282800D02*
G75*
G03*
X133382400Y-76421236I-18J-138400D01*
G01*
X133382382Y-77644400D02*
G75*
G03*
X133520818Y-77782818I138418J0D01*
G01*
X132676583Y-74226990D02*
G75*
G03*
X132676554Y-74407981I90517J-90510D01*
G01*
X132929953Y-81953647D02*
X132829400Y-82054200D01*
X131095234Y-74399724D02*
X131095235Y-74399724D01*
X132460180Y-74624355D02*
X132783507Y-74947682D01*
X132632924Y-73837843D02*
X132460179Y-74010585D01*
X130473212Y-72818406D02*
X130300451Y-72991166D01*
X130300452Y-73604935D02*
X130300451Y-73604935D01*
X130914220Y-73604934D02*
X130914219Y-73604935D01*
X131838160Y-73043031D02*
X131838160Y-73043030D01*
X130473212Y-72818407D02*
X130473212Y-72818406D01*
X131709004Y-74399723D02*
X131709003Y-74399724D01*
X131035157Y-68690357D02*
X131035157Y-68832561D01*
X132632925Y-73837842D02*
X132632924Y-73837843D01*
X131709003Y-74399724D02*
X132451904Y-73656823D01*
X131838160Y-73043030D02*
X131095235Y-73785955D01*
X130187893Y-72352069D02*
X130473212Y-72637388D01*
X130473212Y-72637388D02*
X130473212Y-72637387D01*
X133076400Y-75654789D02*
X133076400Y-81600093D01*
X130914219Y-73604935D02*
X131657141Y-72862012D01*
X129895000Y-70594039D02*
X129895000Y-71644962D01*
X132460179Y-74624353D02*
X132460180Y-74624355D01*
X130888710Y-69186115D02*
X130187893Y-69886932D01*
X130187874Y-69886913D02*
G75*
G03*
X129895000Y-70594039I707126J-707087D01*
G01*
X130300416Y-73604970D02*
G75*
G03*
X130914220Y-73604934I306884J306970D01*
G01*
X130473215Y-72818410D02*
G75*
G03*
X130473212Y-72637387I-90515J90510D01*
G01*
X129895027Y-71644962D02*
G75*
G03*
X130187893Y-72352069I999973J-38D01*
G01*
X133076408Y-75654789D02*
G75*
G03*
X132783507Y-74947682I-1000008J-11D01*
G01*
X130888720Y-69186125D02*
G75*
G03*
X131035157Y-68832561I-353520J353525D01*
G01*
X131838160Y-72862013D02*
G75*
G03*
X131657142Y-72862013I-90509J-90511D01*
G01*
X131095195Y-73785915D02*
G75*
G03*
X131095234Y-74399724I306905J-306885D01*
G01*
X131095216Y-74399743D02*
G75*
G03*
X131709004Y-74399723I306884J306943D01*
G01*
X132632892Y-73837809D02*
G75*
G03*
X132632924Y-73656823I-90492J90509D01*
G01*
X132929956Y-81953650D02*
G75*
G03*
X133076400Y-81600093I-353556J353550D01*
G01*
X132460211Y-74010617D02*
G75*
G03*
X132460180Y-74624352I306889J-306883D01*
G01*
X132632923Y-73656824D02*
G75*
G03*
X132451905Y-73656824I-90509J-90511D01*
G01*
X130300401Y-72991116D02*
G75*
G03*
X130300452Y-73604935I306899J-306884D01*
G01*
X131838139Y-73043010D02*
G75*
G03*
X131838161Y-72862012I-90439J90510D01*
G01*
X136440777Y-76105444D02*
X136440778Y-76105446D01*
X137823626Y-74938972D02*
X137823626Y-74938975D01*
X138817112Y-73729112D02*
X138817113Y-73729113D01*
X137499910Y-74001487D02*
X137499910Y-74001488D01*
X136272222Y-75574852D02*
X136272223Y-75574852D01*
X136272223Y-75755870D02*
X136272223Y-75755871D01*
X137227537Y-75318692D02*
X137227537Y-75318691D01*
X134574554Y-81962648D02*
X134474000Y-82063202D01*
X137966287Y-75443671D02*
X137966285Y-75443672D01*
X136259758Y-76105446D02*
X136091174Y-75936862D01*
X138761122Y-74648933D02*
X138113679Y-74001488D01*
X136621797Y-75743407D02*
X136453242Y-75574852D01*
X137823626Y-74938975D02*
X138147305Y-75262651D01*
X137715438Y-74830784D02*
X137823626Y-74938972D01*
X136272223Y-75755871D02*
X136440777Y-75924425D01*
X135910154Y-75936862D02*
X135910155Y-75936862D01*
X138942143Y-74648931D02*
X138942142Y-74648933D01*
X139785914Y-69910489D02*
X140320907Y-70445482D01*
X140613800Y-71152589D02*
X140613800Y-71518210D01*
X134721000Y-78239438D02*
X134721000Y-81609095D01*
X136440777Y-76105445D02*
X136440777Y-76105444D01*
X139290157Y-69764043D02*
X139432361Y-69764043D01*
X138817112Y-74342883D02*
X138942142Y-74467913D01*
X137227537Y-75318691D02*
X136802817Y-75743407D01*
X137966285Y-75443672D02*
X137841305Y-75318692D01*
X137499910Y-74615256D02*
X137715438Y-74830784D01*
X140320907Y-72225317D02*
X138817112Y-73729112D01*
X138817113Y-74342883D02*
X138817112Y-74342883D01*
X138761123Y-74648934D02*
X138761122Y-74648933D01*
X138942141Y-74648932D02*
X138942143Y-74648931D01*
X135910155Y-76117880D02*
X135910155Y-76117881D01*
X136078738Y-76467483D02*
X135013893Y-77532331D01*
X135910155Y-76117881D02*
X136078738Y-76286464D01*
X136078738Y-76467484D02*
X136078738Y-76467483D01*
X140320902Y-72225312D02*
G75*
G03*
X140613800Y-71518210I-707102J707112D01*
G01*
X136621798Y-75743406D02*
G75*
G03*
X136802816Y-75743406I90509J90511D01*
G01*
X138942118Y-74648909D02*
G75*
G03*
X138942141Y-74467914I-90518J90509D01*
G01*
X138761091Y-74648966D02*
G75*
G03*
X138942142Y-74648933I90509J90566D01*
G01*
X136440742Y-76105410D02*
G75*
G03*
X136440777Y-75924425I-90442J90510D01*
G01*
X139785924Y-69910479D02*
G75*
G03*
X139432361Y-69764043I-353524J-353521D01*
G01*
X140613808Y-71152589D02*
G75*
G03*
X140320907Y-70445482I-1000008J-11D01*
G01*
X137841305Y-75318692D02*
G75*
G03*
X137227537Y-75318692I-306884J-306882D01*
G01*
X134574556Y-81962650D02*
G75*
G03*
X134721000Y-81609095I-353556J353550D01*
G01*
X136091173Y-75936863D02*
G75*
G03*
X135910155Y-75936863I-90509J-90511D01*
G01*
X138147344Y-75443710D02*
G75*
G03*
X138147305Y-75262651I-90544J90510D01*
G01*
X136272263Y-75574892D02*
G75*
G03*
X136272224Y-75755869I90437J-90508D01*
G01*
X138817116Y-73729116D02*
G75*
G03*
X138817114Y-74342882I306884J-306884D01*
G01*
X137499939Y-74001517D02*
G75*
G03*
X137499911Y-74615255I306861J-306883D01*
G01*
X136078764Y-76467510D02*
G75*
G03*
X136078738Y-76286464I-90564J90510D01*
G01*
X136453241Y-75574853D02*
G75*
G03*
X136272223Y-75574853I-90509J-90511D01*
G01*
X136259759Y-76105445D02*
G75*
G03*
X136440777Y-76105445I90509J90511D01*
G01*
X138113685Y-74001482D02*
G75*
G03*
X137499910Y-74001487I-306885J-306918D01*
G01*
X135910184Y-75936891D02*
G75*
G03*
X135910155Y-76117880I90516J-90509D01*
G01*
X135013874Y-77532312D02*
G75*
G03*
X134721000Y-78239438I707126J-707088D01*
G01*
X137966288Y-75443670D02*
G75*
G03*
X138147304Y-75443670I90508J90505D01*
G01*
X137716285Y-74217862D02*
X137716285Y-74217863D01*
X139158517Y-74865306D02*
X139158518Y-74865306D01*
X139855843Y-69198357D02*
X139855843Y-69340561D01*
X137716285Y-74398882D02*
X138238700Y-74921295D01*
X138544748Y-74865307D02*
X137897304Y-74217863D01*
X139033487Y-74126508D02*
X139158517Y-74251538D01*
X138238700Y-74921295D02*
X138363679Y-75046277D01*
X140002289Y-69694114D02*
X140626907Y-70318732D01*
X140626907Y-72352069D02*
X139033488Y-73945488D01*
X137716285Y-74398881D02*
X137716285Y-74398882D01*
X135027000Y-78366190D02*
X135027000Y-81609095D01*
X137749911Y-75660045D02*
X137624931Y-75535065D01*
X139158516Y-74865307D02*
X139158517Y-74865306D01*
X137443911Y-75535066D02*
X135319893Y-77659083D01*
X138544749Y-74865307D02*
X138544748Y-74865307D01*
X139033488Y-74126508D02*
X139033487Y-74126508D01*
X140919800Y-71025839D02*
X140919800Y-71644962D01*
X135173446Y-81962648D02*
X135274000Y-82063202D01*
X137443911Y-75535065D02*
X137443911Y-75535066D01*
X135027004Y-81609095D02*
G75*
G03*
X135173446Y-81962648I499996J-5D01*
G01*
X139158494Y-74865285D02*
G75*
G03*
X139158517Y-74251538I-306894J306885D01*
G01*
X137624930Y-75535066D02*
G75*
G03*
X137443912Y-75535066I-90509J-90511D01*
G01*
X137749911Y-75660045D02*
G75*
G03*
X138363679Y-75660045I306884J306882D01*
G01*
X139855858Y-69340561D02*
G75*
G03*
X140002289Y-69694114I499942J-39D01*
G01*
X138544716Y-74865340D02*
G75*
G03*
X139158518Y-74865306I306884J306940D01*
G01*
X140919772Y-71025839D02*
G75*
G03*
X140626906Y-70318733I-999972J39D01*
G01*
X140626926Y-72352088D02*
G75*
G03*
X140919800Y-71644962I-707126J707088D01*
G01*
X137897309Y-74217858D02*
G75*
G03*
X137716286Y-74217863I-90509J-90542D01*
G01*
X135319898Y-77659088D02*
G75*
G03*
X135027000Y-78366190I707102J-707112D01*
G01*
X138363718Y-75660084D02*
G75*
G03*
X138363679Y-75046277I-306918J306884D01*
G01*
X139033490Y-73945490D02*
G75*
G03*
X139033488Y-74126508I90510J-90510D01*
G01*
X137716313Y-74217891D02*
G75*
G03*
X137716285Y-74398881I90487J-90509D01*
G01*
X136479553Y-82137272D02*
X136464468Y-82152357D01*
X136464468Y-82152357D02*
X136115157Y-82152357D01*
X136626000Y-79333307D02*
X136626000Y-81783718D01*
X136379000Y-78879200D02*
X136479554Y-78979754D01*
X136625995Y-79333307D02*
G75*
G03*
X136479554Y-78979754I-499995J7D01*
G01*
X136479544Y-82137263D02*
G75*
G03*
X136626000Y-81783718I-353544J353563D01*
G01*
X136785553Y-82264022D02*
X136739421Y-82310154D01*
X137179000Y-78879200D02*
X137078446Y-78979754D01*
X136932000Y-79333307D02*
X136932000Y-81910468D01*
X136680843Y-82451575D02*
X136680843Y-82718043D01*
X136739443Y-82310176D02*
G75*
G03*
X136680843Y-82451575I141357J-141424D01*
G01*
X136785569Y-82264038D02*
G75*
G03*
X136932000Y-81910468I-353569J353538D01*
G01*
X137078443Y-78979751D02*
G75*
G03*
X136932000Y-79333307I353557J-353549D01*
G01*
D16*
X130378200Y-56959000D02*
X130378200Y-56349400D01*
X131089400Y-55638200D02*
X137185400Y-55638200D01*
X130378200Y-56349400D02*
X131089400Y-55638200D01*
X118338600Y-53707800D02*
X118465600Y-53580800D01*
X136797000Y-72104200D02*
X136797000Y-61041000D01*
X123520200Y-60388000D02*
X118338600Y-60388000D01*
X117246400Y-60388000D02*
X116967000Y-60667400D01*
X134518400Y-58762400D02*
X125145800Y-58762400D01*
X116967000Y-61400200D02*
X116836200Y-61400200D01*
X118338600Y-60388000D02*
X118338600Y-53707800D01*
X116967000Y-60667400D02*
X116967000Y-63004200D01*
X116205000Y-63766200D02*
X116205000Y-65696600D01*
X118338600Y-60388000D02*
X117246400Y-60388000D01*
X125145800Y-58762400D02*
X123520200Y-60388000D01*
X136797000Y-61041000D02*
X134518400Y-58762400D01*
X116967000Y-63004200D02*
X116205000Y-63766200D01*
X116836200Y-61400200D02*
X115747800Y-60311800D01*
X136097000Y-62779400D02*
X136097000Y-69234200D01*
X135267000Y-70064200D02*
X136097000Y-69234200D01*
X122555000Y-57149200D02*
X123584000Y-57149200D01*
X120904000Y-57149200D02*
X120904000Y-54342800D01*
X120904000Y-54342800D02*
X121158000Y-54088800D01*
X129514600Y-59499000D02*
X130124200Y-60108600D01*
X130124200Y-60108600D02*
X133426200Y-60108600D01*
X133426200Y-60108600D02*
X136097000Y-62779400D01*
X120904000Y-57149200D02*
X122555000Y-57149200D01*
X123584000Y-57149200D02*
X123926600Y-56806600D01*
G04 #@! TA.AperFunction,Conductor*
G36*
X75854415Y-54333973D02*
G01*
X75878292Y-54343863D01*
X75898796Y-54359596D01*
X77395541Y-55856341D01*
X77412378Y-55878809D01*
X77422231Y-55905100D01*
X77424306Y-55933099D01*
X77420154Y-55993799D01*
X77423930Y-56049009D01*
X77435187Y-56103181D01*
X77438884Y-56113581D01*
X77443160Y-56129913D01*
X77444600Y-56146735D01*
X77444600Y-56210200D01*
X77597000Y-56362600D01*
X77637332Y-56362600D01*
X77656646Y-56364502D01*
X77675218Y-56370136D01*
X77690210Y-56376346D01*
X77695613Y-56378179D01*
X77706128Y-56381749D01*
X77718949Y-56384299D01*
X77726346Y-56386068D01*
X77734673Y-56388401D01*
X77743110Y-56390765D01*
X77797931Y-56398300D01*
X77853265Y-56398300D01*
X77853269Y-56398300D01*
X77900947Y-56391746D01*
X77923698Y-56391261D01*
X77945972Y-56395988D01*
X77966576Y-56405679D01*
X77984421Y-56419821D01*
X78507804Y-56943204D01*
X78523537Y-56963708D01*
X78533427Y-56987585D01*
X78536800Y-57013208D01*
X78536800Y-57286792D01*
X78533427Y-57312415D01*
X78523537Y-57336292D01*
X78507804Y-57356795D01*
X78333600Y-57530999D01*
X78333600Y-57531000D01*
X78333600Y-58293000D01*
X78333601Y-58293000D01*
X78335967Y-58295366D01*
X78343615Y-58296373D01*
X78367492Y-58306263D01*
X78387996Y-58321996D01*
X78457004Y-58391004D01*
X78472737Y-58411508D01*
X78482627Y-58435385D01*
X78486000Y-58461008D01*
X78486000Y-58658392D01*
X78482627Y-58684015D01*
X78472737Y-58707892D01*
X78457004Y-58728396D01*
X78311796Y-58873604D01*
X78291292Y-58889337D01*
X78267415Y-58899227D01*
X78241792Y-58902600D01*
X78069808Y-58902600D01*
X78044185Y-58899227D01*
X78020308Y-58889337D01*
X77999804Y-58873604D01*
X77879996Y-58753796D01*
X77864263Y-58733292D01*
X77854373Y-58709415D01*
X77851000Y-58683792D01*
X77851000Y-58486408D01*
X77854373Y-58460785D01*
X77864263Y-58436908D01*
X77879996Y-58416405D01*
X77905396Y-58391004D01*
X77927200Y-58369200D01*
X77927200Y-57937400D01*
X77419200Y-57429400D01*
X77419199Y-57429400D01*
X77139799Y-57429400D01*
X76911199Y-57658000D01*
X76911200Y-57658000D01*
X75822596Y-58746604D01*
X75802092Y-58762337D01*
X75778215Y-58772227D01*
X75752592Y-58775600D01*
X74930000Y-58775600D01*
X71856600Y-61849000D01*
X71856600Y-61849001D01*
X71856600Y-63017400D01*
X72085199Y-63246000D01*
X71780400Y-63246000D01*
X71221600Y-63804800D01*
X71221600Y-61636008D01*
X71224973Y-61610385D01*
X71234863Y-61586508D01*
X71250596Y-61566004D01*
X74672404Y-58144196D01*
X74692908Y-58128463D01*
X74716785Y-58118573D01*
X74742408Y-58115200D01*
X75717399Y-58115200D01*
X75717400Y-58115200D01*
X76352400Y-57480200D01*
X76352400Y-57140208D01*
X76355773Y-57114585D01*
X76365663Y-57090708D01*
X76381396Y-57070204D01*
X76403200Y-57048400D01*
X76403200Y-57048401D01*
X76508396Y-56943204D01*
X76581000Y-56870600D01*
X76581000Y-56565800D01*
X75085996Y-55070796D01*
X75070263Y-55050292D01*
X75060373Y-55026415D01*
X75057000Y-55000792D01*
X75057000Y-54854208D01*
X75060373Y-54828585D01*
X75070263Y-54804708D01*
X75085996Y-54784204D01*
X75510604Y-54359596D01*
X75531108Y-54343863D01*
X75554985Y-54333973D01*
X75580608Y-54330600D01*
X75828792Y-54330600D01*
X75854415Y-54333973D01*
G37*
G04 #@! TD.AperFunction*
G04 #@! TA.AperFunction,Conductor*
G36*
X77530815Y-57788373D02*
G01*
X77554692Y-57798263D01*
X77575196Y-57813996D01*
X77720404Y-57959204D01*
X77736137Y-57979708D01*
X77746027Y-58003585D01*
X77749400Y-58029208D01*
X77749400Y-58175792D01*
X77746027Y-58201415D01*
X77736137Y-58225292D01*
X77720404Y-58245795D01*
X77673200Y-58292999D01*
X77673200Y-58293000D01*
X77673200Y-58801000D01*
X78308200Y-59436000D01*
X78308201Y-59436000D01*
X78816199Y-59436000D01*
X78816200Y-59436000D01*
X79171800Y-59080400D01*
X79171800Y-58918208D01*
X79175173Y-58892585D01*
X79185063Y-58868708D01*
X79200796Y-58848204D01*
X79625404Y-58423596D01*
X79645908Y-58407863D01*
X79669785Y-58397973D01*
X79695408Y-58394600D01*
X79841992Y-58394600D01*
X79867615Y-58397973D01*
X79891492Y-58407863D01*
X79911996Y-58423596D01*
X81403404Y-59915004D01*
X81419137Y-59935508D01*
X81429027Y-59959385D01*
X81432400Y-59985008D01*
X81432400Y-60147200D01*
X81470265Y-60185066D01*
X81480153Y-60196603D01*
X81488159Y-60209518D01*
X81491675Y-60216303D01*
X81492380Y-60217663D01*
X81524292Y-60262871D01*
X81562062Y-60303314D01*
X81604988Y-60338236D01*
X81641910Y-60360689D01*
X81660463Y-60375263D01*
X81686400Y-60401200D01*
X81732833Y-60401200D01*
X81749537Y-60403495D01*
X81749600Y-60403043D01*
X81811131Y-60411500D01*
X81858892Y-60411500D01*
X81884515Y-60414873D01*
X81908392Y-60424763D01*
X81928896Y-60440496D01*
X82470204Y-60981804D01*
X82485937Y-61002308D01*
X82495827Y-61026185D01*
X82499200Y-61051808D01*
X82499200Y-61325392D01*
X82495827Y-61351015D01*
X82485937Y-61374892D01*
X82470204Y-61395396D01*
X82096396Y-61769204D01*
X82075892Y-61784937D01*
X82052015Y-61794827D01*
X82026392Y-61798200D01*
X81829008Y-61798200D01*
X81803385Y-61794827D01*
X81779508Y-61784937D01*
X81759004Y-61769204D01*
X81315192Y-61325392D01*
X80594200Y-60604400D01*
X80594199Y-60604400D01*
X78003401Y-60604400D01*
X78003400Y-60604400D01*
X76250800Y-62357000D01*
X75390796Y-63217004D01*
X75370292Y-63232737D01*
X75346415Y-63242627D01*
X75320792Y-63246000D01*
X73202800Y-63246000D01*
X72948800Y-63500000D01*
X72948800Y-63500001D01*
X72948800Y-64322593D01*
X72945427Y-64348217D01*
X72935536Y-64372094D01*
X72919806Y-64392593D01*
X72884511Y-64427888D01*
X72849219Y-64463180D01*
X72830656Y-64477762D01*
X72791186Y-64501764D01*
X72748260Y-64536686D01*
X72710493Y-64577126D01*
X72678579Y-64622337D01*
X72673283Y-64632558D01*
X72665277Y-64645472D01*
X72655389Y-64657009D01*
X72466200Y-64846199D01*
X72466200Y-65211592D01*
X72462827Y-65237215D01*
X72452937Y-65261092D01*
X72437204Y-65281595D01*
X71450200Y-66268600D01*
X71450200Y-66700400D01*
X73101200Y-68351400D01*
X73176550Y-68352250D01*
X73333396Y-68195404D01*
X73478605Y-68050196D01*
X73499108Y-68034463D01*
X73522985Y-68024573D01*
X73548608Y-68021200D01*
X73771392Y-68021200D01*
X73797015Y-68024573D01*
X73820892Y-68034463D01*
X73841396Y-68050196D01*
X73986604Y-68195404D01*
X74002337Y-68215908D01*
X74012227Y-68239785D01*
X74015600Y-68265408D01*
X74015600Y-68564392D01*
X74012227Y-68590015D01*
X74002337Y-68613892D01*
X73986604Y-68634395D01*
X73787000Y-68833999D01*
X73787000Y-69113400D01*
X73834204Y-69160605D01*
X73849937Y-69181108D01*
X73859827Y-69204985D01*
X73863200Y-69230608D01*
X73863200Y-69427992D01*
X73859827Y-69453615D01*
X73849937Y-69477492D01*
X73834204Y-69497996D01*
X73485796Y-69846404D01*
X73465292Y-69862137D01*
X73441415Y-69872027D01*
X73415792Y-69875400D01*
X73243808Y-69875400D01*
X73218185Y-69872027D01*
X73194308Y-69862137D01*
X73173804Y-69846404D01*
X72266596Y-68939196D01*
X72250863Y-68918692D01*
X72240973Y-68894815D01*
X72237600Y-68869192D01*
X72237600Y-68783201D01*
X72237600Y-68783200D01*
X70408800Y-66954400D01*
X69980596Y-66526196D01*
X69964863Y-66505692D01*
X69954973Y-66481815D01*
X69951600Y-66456192D01*
X69951600Y-66335008D01*
X69954973Y-66309385D01*
X69964863Y-66285508D01*
X69980596Y-66265004D01*
X71034008Y-65211592D01*
X72415400Y-63830200D01*
X72415400Y-63169800D01*
X72415398Y-63169798D01*
X72088796Y-62843195D01*
X72073063Y-62822692D01*
X72063173Y-62798815D01*
X72059800Y-62773192D01*
X72059800Y-62652008D01*
X72063173Y-62626385D01*
X72073063Y-62602508D01*
X72088796Y-62582004D01*
X72284804Y-62385996D01*
X72305308Y-62370263D01*
X72329185Y-62360373D01*
X72354808Y-62357000D01*
X72653792Y-62357000D01*
X72679415Y-62360373D01*
X72703292Y-62370263D01*
X72723795Y-62385996D01*
X72923399Y-62585599D01*
X72923400Y-62585600D01*
X75006199Y-62585600D01*
X75006200Y-62585600D01*
X77597000Y-59994800D01*
X77597000Y-59613800D01*
X77419200Y-59436000D01*
X77143396Y-59160195D01*
X77127663Y-59139692D01*
X77117773Y-59115815D01*
X77114400Y-59090192D01*
X77114400Y-58003808D01*
X77117773Y-57978185D01*
X77127663Y-57954308D01*
X77143396Y-57933804D01*
X77263204Y-57813996D01*
X77283708Y-57798263D01*
X77307585Y-57788373D01*
X77333208Y-57785000D01*
X77505192Y-57785000D01*
X77530815Y-57788373D01*
G37*
G04 #@! TD.AperFunction*
G04 #@! TA.AperFunction,Conductor*
G36*
X71841215Y-69294573D02*
G01*
X71865092Y-69304463D01*
X71885596Y-69320196D01*
X73834204Y-71268804D01*
X73849937Y-71289308D01*
X73859827Y-71313185D01*
X73863200Y-71338808D01*
X73863200Y-71586992D01*
X73859827Y-71612615D01*
X73849937Y-71636492D01*
X73834204Y-71656996D01*
X73434996Y-72056204D01*
X73414492Y-72071937D01*
X73390615Y-72081827D01*
X73364992Y-72085200D01*
X73218408Y-72085200D01*
X73192785Y-72081827D01*
X73168908Y-72071937D01*
X73148404Y-72056204D01*
X71580796Y-70488596D01*
X71565063Y-70468092D01*
X71555173Y-70444215D01*
X71551800Y-70418592D01*
X71551800Y-69900801D01*
X71551799Y-69900799D01*
X71402996Y-69751995D01*
X71387263Y-69731492D01*
X71377373Y-69707615D01*
X71374000Y-69681992D01*
X71374000Y-69484608D01*
X71377373Y-69458985D01*
X71387263Y-69435108D01*
X71402996Y-69414604D01*
X71497404Y-69320196D01*
X71517908Y-69304463D01*
X71541785Y-69294573D01*
X71567408Y-69291200D01*
X71815592Y-69291200D01*
X71841215Y-69294573D01*
G37*
G04 #@! TD.AperFunction*
G04 #@! TA.AperFunction,Conductor*
G36*
X72183204Y-63344004D02*
G01*
X72198937Y-63364508D01*
X72208827Y-63388385D01*
X72212200Y-63414008D01*
X72212200Y-63636792D01*
X72208827Y-63662415D01*
X72198937Y-63686292D01*
X72183204Y-63706796D01*
X70005996Y-65884004D01*
X69985492Y-65899737D01*
X69961615Y-65909627D01*
X69935992Y-65913000D01*
X69383008Y-65913000D01*
X69357385Y-65909627D01*
X69333508Y-65899737D01*
X69313004Y-65884004D01*
X68884800Y-65455800D01*
X68884801Y-65455800D01*
X68681600Y-65252600D01*
X67970400Y-65252600D01*
X66878200Y-66344800D01*
X66878200Y-71170800D01*
X67233800Y-71526400D01*
X71586992Y-71526400D01*
X71612615Y-71529773D01*
X71636492Y-71539663D01*
X71656996Y-71555396D01*
X72720200Y-72618600D01*
X72720201Y-72618600D01*
X73786999Y-72618600D01*
X73787000Y-72618600D01*
X74726800Y-71678800D01*
X74726800Y-71501000D01*
X74218800Y-70993000D01*
X73841395Y-70615595D01*
X73825663Y-70595092D01*
X73815773Y-70571215D01*
X73812400Y-70545592D01*
X73812400Y-70246608D01*
X73815773Y-70220985D01*
X73825663Y-70197108D01*
X73841396Y-70176604D01*
X73888600Y-70129400D01*
X74447400Y-69570600D01*
X74447400Y-69154408D01*
X74450773Y-69128785D01*
X74460663Y-69104908D01*
X74476396Y-69084404D01*
X74672404Y-68888396D01*
X74692908Y-68872663D01*
X74716785Y-68862773D01*
X74742408Y-68859400D01*
X74863592Y-68859400D01*
X74889215Y-68862773D01*
X74913092Y-68872663D01*
X74933596Y-68888396D01*
X75129604Y-69084404D01*
X75145337Y-69104908D01*
X75155227Y-69128785D01*
X75158600Y-69154408D01*
X75158600Y-69478792D01*
X75155227Y-69504415D01*
X75145337Y-69528292D01*
X75129604Y-69548795D01*
X74879200Y-69799199D01*
X74879200Y-70129400D01*
X75006200Y-70256401D01*
X75006200Y-70256400D01*
X75891604Y-71141804D01*
X75907337Y-71162308D01*
X75917227Y-71186185D01*
X75920600Y-71211808D01*
X75920600Y-72272792D01*
X75917227Y-72298415D01*
X75907337Y-72322292D01*
X75891604Y-72342796D01*
X74552596Y-73681804D01*
X74532092Y-73697537D01*
X74508215Y-73707427D01*
X74482592Y-73710800D01*
X72278608Y-73710800D01*
X72252985Y-73707427D01*
X72229108Y-73697537D01*
X72208604Y-73681804D01*
X72208603Y-73681803D01*
X70942200Y-72415400D01*
X70942199Y-72415400D01*
X60086608Y-72415400D01*
X60060985Y-72412027D01*
X60037108Y-72402137D01*
X60016604Y-72386404D01*
X59769796Y-72139596D01*
X59754063Y-72119092D01*
X59744173Y-72095215D01*
X59740800Y-72069592D01*
X59740800Y-71592808D01*
X59744173Y-71567185D01*
X59754063Y-71543308D01*
X59769796Y-71522804D01*
X59991204Y-71301396D01*
X60011708Y-71285663D01*
X60035585Y-71275773D01*
X60061208Y-71272400D01*
X62267851Y-71272400D01*
X62294561Y-71276071D01*
X62319290Y-71286813D01*
X62322867Y-71288988D01*
X62373622Y-71311034D01*
X62373623Y-71311034D01*
X62373625Y-71311035D01*
X62426910Y-71325965D01*
X62481731Y-71333500D01*
X62537069Y-71333500D01*
X62591890Y-71325965D01*
X62645175Y-71311035D01*
X62695931Y-71288989D01*
X62697508Y-71288029D01*
X62699510Y-71286813D01*
X62724239Y-71276071D01*
X62750949Y-71272400D01*
X63789192Y-71272400D01*
X63814815Y-71275773D01*
X63838692Y-71285663D01*
X63859195Y-71301396D01*
X64084199Y-71526399D01*
X64084200Y-71526400D01*
X65430399Y-71526400D01*
X65430400Y-71526400D01*
X65836800Y-71120000D01*
X65836800Y-66055608D01*
X65840173Y-66029985D01*
X65850063Y-66006108D01*
X65865796Y-65985604D01*
X67585804Y-64265596D01*
X67606308Y-64249863D01*
X67630185Y-64239973D01*
X67655808Y-64236600D01*
X69046992Y-64236600D01*
X69072615Y-64239973D01*
X69096492Y-64249863D01*
X69116995Y-64265596D01*
X69570599Y-64719199D01*
X69570600Y-64719200D01*
X70307199Y-64719200D01*
X70307200Y-64719200D01*
X71780400Y-63246000D01*
X72085200Y-63246000D01*
X72183204Y-63344004D01*
G37*
G04 #@! TD.AperFunction*
G04 #@! TA.AperFunction,Conductor*
G36*
X76895815Y-53165573D02*
G01*
X76919692Y-53175463D01*
X76940195Y-53191195D01*
X77724000Y-53975000D01*
X77724001Y-53975000D01*
X77876399Y-53975000D01*
X77876400Y-53975000D01*
X78355404Y-53495995D01*
X78375908Y-53480263D01*
X78399785Y-53470373D01*
X78425408Y-53467000D01*
X78648192Y-53467000D01*
X78673815Y-53470373D01*
X78697692Y-53480263D01*
X78718196Y-53495996D01*
X78863404Y-53641204D01*
X78879137Y-53661708D01*
X78889027Y-53685585D01*
X78892400Y-53711208D01*
X78892400Y-53908592D01*
X78889027Y-53934215D01*
X78879137Y-53958092D01*
X78863404Y-53978595D01*
X78486000Y-54355999D01*
X78486000Y-54356000D01*
X78486000Y-54737000D01*
X82575400Y-58826400D01*
X82956400Y-58826400D01*
X83163196Y-58619604D01*
X83257605Y-58525196D01*
X83278108Y-58509463D01*
X83301985Y-58499573D01*
X83327608Y-58496200D01*
X83474192Y-58496200D01*
X83499815Y-58499573D01*
X83523692Y-58509463D01*
X83544196Y-58525196D01*
X83638604Y-58619604D01*
X83654337Y-58640108D01*
X83664227Y-58663985D01*
X83667600Y-58689608D01*
X83667600Y-58836192D01*
X83664227Y-58861815D01*
X83654337Y-58885692D01*
X83638604Y-58906195D01*
X83312000Y-59232799D01*
X83312000Y-59563000D01*
X83638604Y-59889605D01*
X83654337Y-59910108D01*
X83664227Y-59933985D01*
X83667600Y-59959608D01*
X83667600Y-60182392D01*
X83664227Y-60208015D01*
X83654337Y-60231892D01*
X83638604Y-60252396D01*
X83239396Y-60651604D01*
X83218892Y-60667337D01*
X83195015Y-60677227D01*
X83169392Y-60680600D01*
X82895808Y-60680600D01*
X82870185Y-60677227D01*
X82846308Y-60667337D01*
X82825804Y-60651604D01*
X82825803Y-60651603D01*
X82232500Y-60058300D01*
X82232499Y-60058300D01*
X82045595Y-60245204D01*
X82025092Y-60260937D01*
X82001215Y-60270827D01*
X81975592Y-60274200D01*
X81778208Y-60274200D01*
X81752585Y-60270827D01*
X81728708Y-60260937D01*
X81708204Y-60245204D01*
X81613796Y-60150796D01*
X81598063Y-60130292D01*
X81588173Y-60106415D01*
X81584800Y-60080792D01*
X81584800Y-59934208D01*
X81588173Y-59908585D01*
X81598063Y-59884708D01*
X81613796Y-59864205D01*
X81662797Y-59815202D01*
X81711800Y-59766200D01*
X81711800Y-59537600D01*
X78308200Y-56134000D01*
X78308199Y-56134000D01*
X78079599Y-56134000D01*
X77981595Y-56232004D01*
X77961092Y-56247737D01*
X77937215Y-56257627D01*
X77911592Y-56261000D01*
X77765008Y-56261000D01*
X77739385Y-56257627D01*
X77715508Y-56247737D01*
X77695004Y-56232004D01*
X77600596Y-56137596D01*
X77584863Y-56117092D01*
X77574973Y-56093215D01*
X77571600Y-56067592D01*
X77571600Y-55895608D01*
X77574973Y-55869985D01*
X77584863Y-55846108D01*
X77600596Y-55825605D01*
X77636897Y-55789302D01*
X77673200Y-55753000D01*
X77673200Y-55499000D01*
X77114400Y-54940200D01*
X76936600Y-54762400D01*
X76152795Y-53978595D01*
X76137063Y-53958092D01*
X76127173Y-53934215D01*
X76123800Y-53908592D01*
X76123800Y-53660408D01*
X76127173Y-53634785D01*
X76137063Y-53610908D01*
X76152796Y-53590404D01*
X76552004Y-53191196D01*
X76572508Y-53175463D01*
X76596385Y-53165573D01*
X76622008Y-53162200D01*
X76870192Y-53162200D01*
X76895815Y-53165573D01*
G37*
G04 #@! TD.AperFunction*
G04 #@! TA.AperFunction,Conductor*
G36*
X68463015Y-65789373D02*
G01*
X68486892Y-65799263D01*
X68507396Y-65814996D01*
X70049604Y-67357204D01*
X70065337Y-67377708D01*
X70075227Y-67401585D01*
X70078600Y-67427208D01*
X70078600Y-67624592D01*
X70075227Y-67650215D01*
X70065337Y-67674092D01*
X70049604Y-67694596D01*
X69370996Y-68373204D01*
X69350492Y-68388937D01*
X69326615Y-68398827D01*
X69300992Y-68402200D01*
X68824208Y-68402200D01*
X68798585Y-68398827D01*
X68774708Y-68388937D01*
X68754204Y-68373204D01*
X68685196Y-68304196D01*
X68669463Y-68283692D01*
X68659573Y-68259815D01*
X68656200Y-68234192D01*
X68656200Y-67986008D01*
X68659573Y-67960385D01*
X68669463Y-67936508D01*
X68685196Y-67916005D01*
X68759597Y-67841602D01*
X68834000Y-67767200D01*
X68834000Y-67564000D01*
X67796196Y-66526196D01*
X67780463Y-66505692D01*
X67770573Y-66481815D01*
X67767200Y-66456192D01*
X67767200Y-66233408D01*
X67770573Y-66207785D01*
X67780463Y-66183908D01*
X67796196Y-66163404D01*
X68144604Y-65814996D01*
X68165108Y-65799263D01*
X68188985Y-65789373D01*
X68214608Y-65786000D01*
X68437392Y-65786000D01*
X68463015Y-65789373D01*
G37*
G04 #@! TD.AperFunction*
M02*
