G04 #@! TF.GenerationSoftware,KiCad,Pcbnew,7.0.8*
G04 #@! TF.CreationDate,2023-11-02T14:20:23+02:00*
G04 #@! TF.ProjectId,ssd2828_board,73736432-3832-4385-9f62-6f6172642e6b,rev?*
G04 #@! TF.SameCoordinates,Original*
G04 #@! TF.FileFunction,Copper,L4,Bot*
G04 #@! TF.FilePolarity,Positive*
%FSLAX46Y46*%
G04 Gerber Fmt 4.6, Leading zero omitted, Abs format (unit mm)*
G04 Created by KiCad (PCBNEW 7.0.8) date 2023-11-02 14:20:23*
%MOMM*%
%LPD*%
G01*
G04 APERTURE LIST*
G04 Aperture macros list*
%AMRoundRect*
0 Rectangle with rounded corners*
0 $1 Rounding radius*
0 $2 $3 $4 $5 $6 $7 $8 $9 X,Y pos of 4 corners*
0 Add a 4 corners polygon primitive as box body*
4,1,4,$2,$3,$4,$5,$6,$7,$8,$9,$2,$3,0*
0 Add four circle primitives for the rounded corners*
1,1,$1+$1,$2,$3*
1,1,$1+$1,$4,$5*
1,1,$1+$1,$6,$7*
1,1,$1+$1,$8,$9*
0 Add four rect primitives between the rounded corners*
20,1,$1+$1,$2,$3,$4,$5,0*
20,1,$1+$1,$4,$5,$6,$7,0*
20,1,$1+$1,$6,$7,$8,$9,0*
20,1,$1+$1,$8,$9,$2,$3,0*%
G04 Aperture macros list end*
G04 #@! TA.AperFunction,SMDPad,CuDef*
%ADD10RoundRect,0.225000X-0.017678X0.335876X-0.335876X0.017678X0.017678X-0.335876X0.335876X-0.017678X0*%
G04 #@! TD*
G04 #@! TA.AperFunction,SMDPad,CuDef*
%ADD11RoundRect,0.225000X-0.225000X-0.250000X0.225000X-0.250000X0.225000X0.250000X-0.225000X0.250000X0*%
G04 #@! TD*
G04 #@! TA.AperFunction,SMDPad,CuDef*
%ADD12RoundRect,0.225000X0.017678X-0.335876X0.335876X-0.017678X-0.017678X0.335876X-0.335876X0.017678X0*%
G04 #@! TD*
G04 #@! TA.AperFunction,SMDPad,CuDef*
%ADD13RoundRect,0.225000X0.225000X0.250000X-0.225000X0.250000X-0.225000X-0.250000X0.225000X-0.250000X0*%
G04 #@! TD*
G04 #@! TA.AperFunction,ViaPad*
%ADD14C,0.450000*%
G04 #@! TD*
G04 #@! TA.AperFunction,Conductor*
%ADD15C,0.200000*%
G04 #@! TD*
G04 #@! TA.AperFunction,Conductor*
%ADD16C,0.350000*%
G04 #@! TD*
G04 #@! TA.AperFunction,Conductor*
%ADD17C,0.166000*%
G04 #@! TD*
G04 #@! TA.AperFunction,Conductor*
%ADD18C,0.300000*%
G04 #@! TD*
G04 #@! TA.AperFunction,Conductor*
%ADD19C,0.250000*%
G04 #@! TD*
G04 APERTURE END LIST*
D10*
X74385808Y-70380992D03*
X73289792Y-71477008D03*
D11*
X126606000Y-59715400D03*
X128156000Y-59715400D03*
X126606000Y-61264799D03*
X128156000Y-61264799D03*
D12*
X75778992Y-55005608D03*
X76875008Y-53909592D03*
X77912592Y-57139208D03*
X79008608Y-56043192D03*
X80848200Y-60096400D03*
X81944216Y-59000384D03*
D13*
X118808800Y-60528200D03*
X117258800Y-60528200D03*
D12*
X81925792Y-61164608D03*
X83021808Y-60068592D03*
D13*
X118808800Y-62103000D03*
X117258800Y-62103000D03*
D10*
X70575808Y-66418592D03*
X69479792Y-67514608D03*
X73268208Y-69263392D03*
X72172192Y-70359408D03*
D12*
X76845792Y-56084608D03*
X77941808Y-54988592D03*
D10*
X69458208Y-65300992D03*
X68362192Y-66397008D03*
D12*
X79792192Y-59018808D03*
X80888208Y-57922792D03*
D14*
X101625400Y-84023200D03*
X104317800Y-61569600D03*
X102616000Y-63246000D03*
X102717600Y-62458600D03*
X108712000Y-64236600D03*
X129286000Y-61925200D03*
X77061099Y-103504950D03*
X77061099Y-88264950D03*
X74521099Y-103504950D03*
X74521099Y-88264950D03*
X71981099Y-103504950D03*
X71981099Y-88264950D03*
X69441099Y-103504950D03*
X69441099Y-88264950D03*
X66901099Y-103504950D03*
X66901099Y-88264950D03*
X64361099Y-103504950D03*
X64361099Y-88264950D03*
X61821099Y-103504950D03*
X61821099Y-88264950D03*
X59281099Y-103504950D03*
X59281099Y-88264950D03*
X56741099Y-103504950D03*
X56741099Y-88264950D03*
X54201099Y-103504950D03*
X54201099Y-88264950D03*
X78587600Y-61645800D03*
X72974200Y-67513200D03*
X71983600Y-97053400D03*
X92301099Y-62864950D03*
X125321099Y-85724950D03*
X77061099Y-52704950D03*
X115161099Y-57784950D03*
X115161099Y-83184950D03*
X112621099Y-78104950D03*
X61620400Y-74662800D03*
X82141099Y-52704950D03*
X115161099Y-55244950D03*
X109728000Y-78689200D03*
X102461099Y-60324950D03*
X92301099Y-75564950D03*
X110173000Y-66153800D03*
X89761099Y-62864950D03*
X105130600Y-78486000D03*
X61821099Y-85724950D03*
X59486800Y-62001400D03*
X140561099Y-65404950D03*
X137566400Y-81483200D03*
X140561099Y-85724950D03*
X54201099Y-52704950D03*
X120241099Y-55244950D03*
X127861099Y-85724950D03*
X125321099Y-75564950D03*
X54889400Y-91516200D03*
X59613800Y-96621600D03*
X133146800Y-66929000D03*
X97381099Y-83184950D03*
X58369200Y-96621600D03*
X107365800Y-81762600D03*
X56159400Y-53543200D03*
X127279400Y-81597000D03*
X56567000Y-63764200D03*
X54889400Y-55245000D03*
X73228200Y-62013600D03*
X131013200Y-82931000D03*
X61821099Y-73024950D03*
X112621099Y-80644950D03*
X68834000Y-68199000D03*
X129235200Y-81940400D03*
X73279000Y-93497400D03*
X59461400Y-53162200D03*
X115161099Y-67944950D03*
X112621099Y-70484950D03*
X102461099Y-73024950D03*
X84681099Y-85724950D03*
X54686200Y-100203000D03*
X135026400Y-68656200D03*
X92301099Y-67944950D03*
X77061099Y-73024950D03*
X117701099Y-83184950D03*
X112621099Y-52704950D03*
X78079600Y-55956200D03*
X104419400Y-80010000D03*
X122781099Y-83184950D03*
X64361099Y-73024950D03*
X84681099Y-55244950D03*
X125321099Y-55244950D03*
X99921099Y-85724950D03*
X73279000Y-98780600D03*
X138021099Y-62864950D03*
X76530200Y-91668600D03*
X131165600Y-67919600D03*
X85217000Y-80936600D03*
X72212200Y-93497400D03*
X136042400Y-78232000D03*
X89761099Y-57784950D03*
X77061099Y-85724950D03*
X92301099Y-73024950D03*
X92301099Y-57784950D03*
X109423200Y-80010000D03*
X97713800Y-81292200D03*
X77061099Y-78104950D03*
X54914800Y-59461400D03*
X59893200Y-58521600D03*
X92301099Y-83184950D03*
X71932800Y-95300800D03*
X140561099Y-60324950D03*
X92301099Y-55244950D03*
X58343800Y-58394600D03*
X89761099Y-67944950D03*
X121208800Y-65709800D03*
X59281099Y-70484950D03*
X75387200Y-59753000D03*
X112621099Y-62864950D03*
X115161099Y-75564950D03*
X79601099Y-85724950D03*
X125321099Y-70484950D03*
X117701099Y-85724950D03*
X102461099Y-55244950D03*
X79601099Y-52704950D03*
X92301099Y-70484950D03*
X130606800Y-79806800D03*
X59690000Y-60172600D03*
X71981099Y-85724950D03*
X108178600Y-66751200D03*
X84681099Y-57784950D03*
X140561099Y-83184950D03*
X72339200Y-100685600D03*
X135051800Y-66598800D03*
X112621099Y-85724950D03*
X59588400Y-94970600D03*
X58267600Y-93268800D03*
X107051400Y-58635400D03*
X107391200Y-78308200D03*
X59664600Y-98348800D03*
X74701400Y-60489600D03*
X59281099Y-73024950D03*
X112621099Y-57784950D03*
X87221099Y-85724950D03*
X92301099Y-85724950D03*
X58699400Y-80987400D03*
X74521099Y-78104950D03*
X105001099Y-85724950D03*
X73304400Y-95300800D03*
X92301099Y-80644950D03*
X87221099Y-52704950D03*
X103505000Y-63982600D03*
X55702200Y-62103000D03*
X125321099Y-73024950D03*
X58293000Y-98374200D03*
X74521099Y-52704950D03*
X112621099Y-75564950D03*
X74521099Y-85724950D03*
X76606400Y-100279200D03*
X115161099Y-70484950D03*
X115161099Y-78104950D03*
X138021099Y-65404950D03*
X82141099Y-85724950D03*
X103264000Y-80010000D03*
X89761099Y-65404950D03*
X76555600Y-93497400D03*
X73253600Y-91592400D03*
X58343800Y-56870600D03*
X55905400Y-100050600D03*
X137896600Y-78460600D03*
X84681099Y-52704950D03*
X125321099Y-78104950D03*
X63246000Y-79311000D03*
X64361099Y-85724950D03*
X76530200Y-98069400D03*
X140561099Y-57784950D03*
X75793600Y-100685600D03*
X134061200Y-82677000D03*
X102461099Y-85724950D03*
X117701099Y-80644950D03*
X131368800Y-69723000D03*
X136017000Y-80137000D03*
X89761099Y-70484950D03*
X59281099Y-85724950D03*
X115161099Y-80644950D03*
X72313800Y-91465400D03*
X75285600Y-96901000D03*
X73228200Y-97053400D03*
X58877200Y-100406200D03*
X135839200Y-82956400D03*
X75615800Y-101574600D03*
X140561099Y-52704950D03*
X116789200Y-59283600D03*
X121869200Y-65024000D03*
X112621099Y-73024950D03*
X71981099Y-78104950D03*
X92301099Y-60324950D03*
X54201099Y-67944950D03*
X66901099Y-85724950D03*
X71882000Y-98755200D03*
X54711600Y-58242200D03*
X56286400Y-91617800D03*
X54787800Y-95199200D03*
X56741099Y-85724950D03*
X115161099Y-65404950D03*
X59664600Y-93294200D03*
X129286000Y-79832200D03*
X92301099Y-65404950D03*
X75311000Y-91541600D03*
X136042400Y-73380600D03*
X117701099Y-55244950D03*
X64795400Y-75247000D03*
X54940200Y-96316800D03*
X138021099Y-85724950D03*
X109321600Y-66751200D03*
X130401099Y-85724950D03*
X140561099Y-62864950D03*
X71475600Y-69608200D03*
X132410200Y-61010800D03*
X58343800Y-60147200D03*
X75336400Y-95326200D03*
X101574600Y-70053200D03*
X107391200Y-79273400D03*
X105613200Y-80010000D03*
X73894042Y-61296958D03*
X109651800Y-82346800D03*
X87221099Y-75564950D03*
X115161099Y-85724950D03*
X112621099Y-67944950D03*
X112621099Y-65404950D03*
X59309000Y-91313000D03*
X59766200Y-55219600D03*
X132334000Y-82677000D03*
X89761099Y-60324950D03*
X105130600Y-81991200D03*
X140561099Y-78104950D03*
X120241099Y-85724950D03*
X132384800Y-80086200D03*
X140766800Y-69418200D03*
X134112000Y-79857600D03*
X57175400Y-79070600D03*
X92301099Y-52704950D03*
X115161099Y-73024950D03*
X54737000Y-93167200D03*
X97381099Y-85724950D03*
X76581000Y-95326200D03*
X92301099Y-78104950D03*
X58293000Y-94970600D03*
X132941099Y-85724950D03*
X58343800Y-55168800D03*
X85191600Y-82956400D03*
X76631800Y-59791600D03*
X139573000Y-70688200D03*
X59766200Y-56819800D03*
X59867800Y-75805800D03*
X107365800Y-82651600D03*
X69441099Y-78104950D03*
X122174000Y-65938400D03*
X106673000Y-66153800D03*
X83312000Y-58902600D03*
X101320600Y-82016600D03*
X54965600Y-60985400D03*
X112621099Y-83184950D03*
X112621099Y-55244950D03*
X135481099Y-85724950D03*
X128752600Y-82677000D03*
X74521099Y-73024950D03*
X127861099Y-55244950D03*
X137439400Y-82702400D03*
X134721600Y-70815200D03*
X54864000Y-56870600D03*
X112621099Y-60324950D03*
X69441099Y-85724950D03*
X129413000Y-69697600D03*
X110081099Y-85724950D03*
X54201099Y-85724950D03*
X115161099Y-52704950D03*
X140561099Y-55244950D03*
X140561099Y-80644950D03*
X122781099Y-85724950D03*
X54940200Y-97561400D03*
X89761099Y-85724950D03*
X107541099Y-85724950D03*
X70358000Y-64744600D03*
X78130400Y-58559200D03*
X66624200Y-71792600D03*
X76657200Y-57365400D03*
X61188600Y-71704200D03*
X60147200Y-71678800D03*
X71907400Y-63537600D03*
X70027800Y-82143600D03*
X74752200Y-69252600D03*
X72466200Y-62750200D03*
X77444600Y-58102000D03*
X67259200Y-78206600D03*
X66573400Y-77495400D03*
X79527400Y-60057800D03*
X71043800Y-65506600D03*
X73685400Y-68312800D03*
X73431400Y-100787200D03*
X116713000Y-70256400D03*
X58013600Y-101625400D03*
X85750400Y-57175400D03*
X128117600Y-80137000D03*
X75412600Y-81089000D03*
X100431600Y-77444600D03*
X89154000Y-83146400D03*
X57937400Y-63613800D03*
X88442800Y-83769200D03*
X57886600Y-77406000D03*
X86410800Y-56692800D03*
X57759600Y-100812600D03*
X127000000Y-80162400D03*
X85725000Y-56235600D03*
X73964800Y-81089000D03*
X57810400Y-76491600D03*
X57937400Y-62801000D03*
X88468200Y-82613000D03*
X121488200Y-76733400D03*
X120421400Y-76250800D03*
X61087000Y-80885800D03*
X125120400Y-64338200D03*
X74752200Y-81686400D03*
X99999800Y-71056000D03*
X60121800Y-81089000D03*
X117170200Y-70916800D03*
X124383800Y-64008000D03*
X73025000Y-101600000D03*
X62510800Y-75755000D03*
X57124600Y-79895200D03*
X61747400Y-78853800D03*
X56896000Y-80708000D03*
X100736400Y-84010000D03*
X54229000Y-63512200D03*
X77063600Y-101320600D03*
X128473200Y-83908400D03*
X80949800Y-82880200D03*
X80543400Y-82219800D03*
X80086200Y-82931000D03*
X106146600Y-63042800D03*
X77419200Y-100533200D03*
X54762400Y-101549200D03*
X54229000Y-62547000D03*
X54076600Y-100787200D03*
X134747000Y-71958200D03*
X60858400Y-67411600D03*
X70307200Y-63029600D03*
X70078600Y-63817000D03*
X61747400Y-69773800D03*
X73025000Y-64833000D03*
X68656200Y-69760600D03*
X64465200Y-70612000D03*
X69723000Y-69913000D03*
X89331800Y-71653400D03*
X74139975Y-65814025D03*
X74803000Y-66536027D03*
X85369400Y-72390000D03*
X76073000Y-67665600D03*
X85979000Y-72923400D03*
X79578200Y-74739000D03*
X59036200Y-53993200D03*
X55499000Y-53993200D03*
X55499000Y-54743200D03*
X59036200Y-54743200D03*
X59082042Y-55644200D03*
X55702200Y-55644200D03*
X55702200Y-56394200D03*
X59082042Y-56394200D03*
X59141534Y-57295200D03*
X55563529Y-57295200D03*
X59141534Y-58045200D03*
X55563529Y-58045200D03*
X55753000Y-58946200D03*
X59078175Y-58946200D03*
X59078175Y-59696200D03*
X55753000Y-59696200D03*
X59066118Y-60597200D03*
X55670875Y-60597200D03*
X59066118Y-61347200D03*
X55670875Y-61347200D03*
X72161400Y-82105000D03*
X85217000Y-80022200D03*
X85344000Y-75438000D03*
X105924000Y-78775279D03*
X105924000Y-82169000D03*
X110591600Y-54635400D03*
X106654600Y-64121800D03*
X106674000Y-82169000D03*
X106674000Y-78775279D03*
X100965000Y-59499000D03*
X107975400Y-65722000D03*
X108133800Y-82169000D03*
X108133800Y-78698299D03*
X108839000Y-65747400D03*
X98067000Y-55964200D03*
X108883800Y-78698299D03*
X108883800Y-82169000D03*
X67894200Y-82994000D03*
X61696600Y-77787000D03*
X65913000Y-84111600D03*
X57683400Y-81038200D03*
X99034600Y-81381600D03*
X100667000Y-63064200D03*
X100578000Y-68421600D03*
X100711000Y-56197000D03*
X106349800Y-60452000D03*
X97205800Y-69151000D03*
X130277000Y-82666135D03*
X130277000Y-79090365D03*
X129527000Y-79090365D03*
X129527000Y-82666135D03*
X131858018Y-67476699D03*
X131851800Y-82042000D03*
X132388350Y-66946367D03*
X131101800Y-82042000D03*
X133604400Y-82042000D03*
X130617966Y-69835766D03*
X132854400Y-82042000D03*
X130087634Y-69305434D03*
X139429992Y-69868524D03*
X134608834Y-82107034D03*
X135139166Y-82637366D03*
X139960324Y-69338192D03*
X136132834Y-82132434D03*
X136505600Y-78867000D03*
X136663166Y-82662766D03*
X137255600Y-78867000D03*
X123825000Y-74840600D03*
X124434600Y-53961800D03*
X135305800Y-64033400D03*
X137185400Y-55638200D03*
X130302000Y-56794400D03*
X126796800Y-53809400D03*
X135267700Y-63157100D03*
X120396000Y-81571600D03*
X121767600Y-80479400D03*
X134797800Y-54825400D03*
X136804400Y-72136000D03*
X120421400Y-53619400D03*
X118809000Y-63283600D03*
X135077200Y-69545200D03*
X127203200Y-62915800D03*
X118338600Y-53416200D03*
X124383800Y-58279800D03*
X72720200Y-92131800D03*
X58953400Y-92208000D03*
X55498617Y-92208000D03*
X75920600Y-92131800D03*
X58953400Y-92958000D03*
X75920600Y-92881800D03*
X72720200Y-92881800D03*
X55498617Y-92958000D03*
X55216370Y-93808200D03*
X58953400Y-93808200D03*
X72720200Y-94062200D03*
X75996800Y-94062200D03*
X55216370Y-94558200D03*
X75996800Y-94812200D03*
X58953400Y-94558200D03*
X72720200Y-94812200D03*
X72644000Y-95764000D03*
X58978800Y-95408400D03*
X55676800Y-95408400D03*
X75971400Y-95764000D03*
X58978800Y-96158400D03*
X72644000Y-96514000D03*
X75971400Y-96514000D03*
X55676800Y-96158400D03*
X55676800Y-97135600D03*
X75768200Y-97498000D03*
X72602727Y-97498000D03*
X58978800Y-97135600D03*
X58978800Y-97885600D03*
X75768200Y-98248000D03*
X72602727Y-98248000D03*
X55676800Y-97885600D03*
X55295800Y-99612800D03*
X59029600Y-99612800D03*
X72572358Y-99917019D03*
X75869800Y-99917019D03*
X55295800Y-98862800D03*
X72572358Y-99167019D03*
X75869800Y-99167019D03*
X59029600Y-98862800D03*
D15*
X100367000Y-63364200D02*
X100667000Y-63064200D01*
X100367000Y-64008600D02*
X100367000Y-63364200D01*
X96647000Y-67728600D02*
X100367000Y-64008600D01*
X99567000Y-77864200D02*
X96647000Y-74944200D01*
X96647000Y-74944200D02*
X96647000Y-67728600D01*
X99567000Y-80849200D02*
X99567000Y-77864200D01*
X99034600Y-81381600D02*
X99567000Y-80849200D01*
X107975400Y-60833000D02*
X107975400Y-65722000D01*
X106666800Y-59524400D02*
X107975400Y-60833000D01*
X100990400Y-59524400D02*
X106666800Y-59524400D01*
X100965000Y-59499000D02*
X100990400Y-59524400D01*
X109487200Y-65747400D02*
X108839000Y-65747400D01*
X110337600Y-64897000D02*
X109487200Y-65747400D01*
X110337600Y-59651400D02*
X110337600Y-64897000D01*
X108737400Y-58051200D02*
X110337600Y-59651400D01*
X100154000Y-58051200D02*
X108737400Y-58051200D01*
X98067000Y-55964200D02*
X100154000Y-58051200D01*
D16*
X128625599Y-61264799D02*
X129286000Y-61925200D01*
X128156000Y-61264799D02*
X128625599Y-61264799D01*
D17*
X78130400Y-68707000D02*
X78130400Y-70104000D01*
X75959427Y-66536027D02*
X78130400Y-68707000D01*
X78130400Y-70104000D02*
X80416400Y-72390000D01*
X74803000Y-66536027D02*
X75959427Y-66536027D01*
X80416400Y-72390000D02*
X85369400Y-72390000D01*
D15*
X72122800Y-67513200D02*
X72974200Y-67513200D01*
X69723000Y-69913000D02*
X72122800Y-67513200D01*
D16*
X128156000Y-61264799D02*
X128156000Y-59715400D01*
X117258800Y-62103000D02*
X117258800Y-60528200D01*
X117258800Y-60528200D02*
X117258800Y-59753200D01*
X69479792Y-67590808D02*
X69479792Y-67514608D01*
X117258800Y-59753200D02*
X116789200Y-59283600D01*
X73289792Y-71477008D02*
X73268208Y-71477008D01*
X66624200Y-71792600D02*
X66624200Y-74853800D01*
X64312800Y-77165200D02*
X64312800Y-78460600D01*
X65252600Y-79400400D02*
X64312800Y-78460600D01*
X65252600Y-79400400D02*
X67284600Y-79400400D01*
X66624200Y-74853800D02*
X64312800Y-77165200D01*
X67284600Y-79400400D02*
X70027800Y-82143600D01*
X79538192Y-60047008D02*
X79527400Y-60057800D01*
X70575808Y-66012192D02*
X70575808Y-66418592D01*
X99898200Y-76911200D02*
X99898200Y-71157600D01*
X99898200Y-71157600D02*
X99999800Y-71056000D01*
X100431600Y-77444600D02*
X99898200Y-76911200D01*
D15*
X57454800Y-79565000D02*
X58953400Y-79565000D01*
X58953400Y-79565000D02*
X62510800Y-76007600D01*
X62510800Y-76007600D02*
X62510800Y-75755000D01*
X57124600Y-79895200D02*
X57454800Y-79565000D01*
X57175400Y-80428600D02*
X60172600Y-80428600D01*
X60172600Y-80428600D02*
X61747400Y-78853800D01*
X56896000Y-80708000D02*
X57175400Y-80428600D01*
X69431400Y-63029600D02*
X70307200Y-63029600D01*
X65049400Y-67411600D02*
X69431400Y-63029600D01*
X60858400Y-67411600D02*
X65049400Y-67411600D01*
X69456800Y-63817000D02*
X70078600Y-63817000D01*
X63500000Y-69773800D02*
X69456800Y-63817000D01*
X61747400Y-69773800D02*
X63500000Y-69773800D01*
X68656200Y-69760600D02*
X69025000Y-69760600D01*
X69025000Y-69760600D02*
X73025000Y-65760600D01*
X73025000Y-65760600D02*
X73025000Y-64833000D01*
X69723000Y-69913000D02*
X69660000Y-69913000D01*
X69660000Y-69913000D02*
X68961000Y-70612000D01*
X68961000Y-70612000D02*
X64465200Y-70612000D01*
D17*
X74139975Y-65814025D02*
X76024825Y-65814025D01*
X80264000Y-71653400D02*
X89331800Y-71653400D01*
X76024825Y-65814025D02*
X78587600Y-68376800D01*
X78587600Y-68376800D02*
X78587600Y-69977000D01*
X78587600Y-69977000D02*
X80264000Y-71653400D01*
X77724000Y-69316600D02*
X77724000Y-70408800D01*
X77724000Y-70408800D02*
X80238600Y-72923400D01*
X80238600Y-72923400D02*
X85979000Y-72923400D01*
X76073000Y-67665600D02*
X77724000Y-69316600D01*
X59036200Y-53993200D02*
X58960646Y-54068754D01*
X55574553Y-54068753D02*
X55499000Y-53993200D01*
X58607093Y-54215200D02*
X55928107Y-54215200D01*
X55574550Y-54068756D02*
G75*
G03*
X55928107Y-54215200I353550J353556D01*
G01*
X58607093Y-54215195D02*
G75*
G03*
X58960646Y-54068754I7J499995D01*
G01*
X59036200Y-54743200D02*
X58960646Y-54667646D01*
X58607093Y-54521200D02*
X55928107Y-54521200D01*
X55574553Y-54667647D02*
X55499000Y-54743200D01*
X58960649Y-54667643D02*
G75*
G03*
X58607093Y-54521200I-353549J-353557D01*
G01*
X55928107Y-54521205D02*
G75*
G03*
X55574553Y-54667647I-7J-499995D01*
G01*
X58652935Y-55866200D02*
X56131307Y-55866200D01*
X55777753Y-55719753D02*
X55702200Y-55644200D01*
X59082042Y-55644200D02*
X59006488Y-55719754D01*
X58652935Y-55866224D02*
G75*
G03*
X59006487Y-55719753I-35J500024D01*
G01*
X55777750Y-55719756D02*
G75*
G03*
X56131307Y-55866200I353550J353556D01*
G01*
X55777753Y-56318647D02*
X55702200Y-56394200D01*
X59082042Y-56394200D02*
X59006488Y-56318646D01*
X58652935Y-56172200D02*
X56131307Y-56172200D01*
X59006470Y-56318664D02*
G75*
G03*
X58652935Y-56172200I-353570J-353536D01*
G01*
X56131307Y-56172205D02*
G75*
G03*
X55777753Y-56318647I-7J-499995D01*
G01*
X59141534Y-57295200D02*
X59065980Y-57370754D01*
X56328729Y-57517200D02*
X55992636Y-57517200D01*
X55639082Y-57370753D02*
X55563529Y-57295200D01*
X58712427Y-57517200D02*
X56328729Y-57517200D01*
X58712427Y-57517219D02*
G75*
G03*
X59065980Y-57370754I-27J500019D01*
G01*
X55639064Y-57370771D02*
G75*
G03*
X55992636Y-57517200I353536J353571D01*
G01*
X59141534Y-58045200D02*
X59065980Y-57969646D01*
X55639082Y-57969647D02*
X55563529Y-58045200D01*
X58712427Y-57823200D02*
X56328729Y-57823200D01*
X56328729Y-57823200D02*
X55992636Y-57823200D01*
X55992636Y-57823226D02*
G75*
G03*
X55639082Y-57969647I-36J-499974D01*
G01*
X59065966Y-57969660D02*
G75*
G03*
X58712427Y-57823200I-353566J-353540D01*
G01*
X59078175Y-58946200D02*
X59002621Y-59021754D01*
X55828553Y-59021753D02*
X55753000Y-58946200D01*
X58649068Y-59168200D02*
X56182107Y-59168200D01*
X58649068Y-59168177D02*
G75*
G03*
X59002621Y-59021754I32J499977D01*
G01*
X55828550Y-59021756D02*
G75*
G03*
X56182107Y-59168200I353550J353556D01*
G01*
X59078175Y-59696200D02*
X59002621Y-59620646D01*
X58649068Y-59474200D02*
X56182107Y-59474200D01*
X55828553Y-59620647D02*
X55753000Y-59696200D01*
X59002637Y-59620630D02*
G75*
G03*
X58649068Y-59474200I-353537J-353570D01*
G01*
X56182107Y-59474205D02*
G75*
G03*
X55828553Y-59620647I-7J-499995D01*
G01*
X59066118Y-60597200D02*
X58990564Y-60672754D01*
X55746428Y-60672753D02*
X55670875Y-60597200D01*
X58637011Y-60819200D02*
X56099982Y-60819200D01*
X58637011Y-60819207D02*
G75*
G03*
X58990563Y-60672753I-11J500007D01*
G01*
X55746437Y-60672744D02*
G75*
G03*
X56099982Y-60819200I353563J353544D01*
G01*
X55746428Y-61271647D02*
X55670875Y-61347200D01*
X59066118Y-61347200D02*
X58990564Y-61271646D01*
X58637011Y-61125200D02*
X56099982Y-61125200D01*
X58990558Y-61271652D02*
G75*
G03*
X58637011Y-61125200I-353558J-353548D01*
G01*
X56099982Y-61125188D02*
G75*
G03*
X55746429Y-61271648I18J-500012D01*
G01*
D15*
X74117200Y-80149200D02*
X85090000Y-80149200D01*
X72161400Y-82105000D02*
X74117200Y-80149200D01*
X85344000Y-79895200D02*
X85217000Y-80022200D01*
X85344000Y-75438000D02*
X85344000Y-79895200D01*
X85090000Y-80149200D02*
X85217000Y-80022200D01*
D17*
X105924000Y-78775279D02*
X105999554Y-78850833D01*
X106146000Y-79204386D02*
X106146000Y-81739893D01*
X105999553Y-82093447D02*
X105924000Y-82169000D01*
X106146010Y-79204386D02*
G75*
G03*
X105999554Y-78850833I-500010J-14D01*
G01*
X105999556Y-82093450D02*
G75*
G03*
X106146000Y-81739893I-353556J353550D01*
G01*
X106452000Y-79204386D02*
X106452000Y-81739893D01*
X106674000Y-78775279D02*
X106598446Y-78850833D01*
X106598447Y-82093447D02*
X106674000Y-82169000D01*
X106452005Y-81739893D02*
G75*
G03*
X106598447Y-82093447I499995J-7D01*
G01*
X106598453Y-78850840D02*
G75*
G03*
X106452000Y-79204386I353547J-353560D01*
G01*
X108133800Y-78698299D02*
X108209354Y-78773853D01*
X108355800Y-79127406D02*
X108355800Y-81739893D01*
X108209353Y-82093447D02*
X108133800Y-82169000D01*
X108209356Y-82093450D02*
G75*
G03*
X108355800Y-81739893I-353556J353550D01*
G01*
X108355795Y-79127406D02*
G75*
G03*
X108209353Y-78773854I-499995J6D01*
G01*
X108883800Y-78698299D02*
X108808246Y-78773853D01*
X108661800Y-79127406D02*
X108661800Y-81739893D01*
X108808247Y-82093447D02*
X108883800Y-82169000D01*
X108808243Y-78773850D02*
G75*
G03*
X108661800Y-79127406I353557J-353550D01*
G01*
X108661805Y-81739893D02*
G75*
G03*
X108808247Y-82093447I499995J-7D01*
G01*
D15*
X62560200Y-80682600D02*
X62560200Y-78193400D01*
X62153800Y-77787000D02*
X61696600Y-77787000D01*
X67894200Y-82994000D02*
X67513200Y-82613000D01*
X67513200Y-82613000D02*
X64490600Y-82613000D01*
X64490600Y-82613000D02*
X62560200Y-80682600D01*
X62560200Y-78193400D02*
X62153800Y-77787000D01*
X65074800Y-83273400D02*
X63779400Y-83273400D01*
X65913000Y-84111600D02*
X65074800Y-83273400D01*
X63779400Y-83273400D02*
X62153800Y-81647800D01*
X62153800Y-81647800D02*
X58293000Y-81647800D01*
X58293000Y-81647800D02*
X57683400Y-81038200D01*
X101467000Y-62364200D02*
X96967000Y-57864200D01*
X96967000Y-55764200D02*
X97567000Y-55164200D01*
X101467000Y-65964200D02*
X101467000Y-62364200D01*
X100578000Y-66853200D02*
X101467000Y-65964200D01*
X99678200Y-55164200D02*
X100711000Y-56197000D01*
X96967000Y-57864200D02*
X96967000Y-55764200D01*
X97567000Y-55164200D02*
X99678200Y-55164200D01*
X100578000Y-68421600D02*
X100578000Y-66853200D01*
D18*
X106299000Y-60452000D02*
X104775000Y-61976000D01*
X104775000Y-61976000D02*
X104775000Y-66656200D01*
X104775000Y-66656200D02*
X102280200Y-69151000D01*
X106349800Y-60452000D02*
X106299000Y-60452000D01*
X102280200Y-69151000D02*
X97205800Y-69151000D01*
D17*
X130055000Y-82237028D02*
X130055000Y-79519472D01*
X130277000Y-82666135D02*
X130201446Y-82590581D01*
X130201447Y-79165918D02*
X130277000Y-79090365D01*
X130201461Y-79165932D02*
G75*
G03*
X130055000Y-79519472I353539J-353568D01*
G01*
X130054981Y-82237028D02*
G75*
G03*
X130201447Y-82590580I500019J28D01*
G01*
X129749000Y-82237028D02*
X129749000Y-79519472D01*
X129527000Y-82666135D02*
X129602554Y-82590581D01*
X129602553Y-79165918D02*
X129527000Y-79090365D01*
X129602540Y-82590567D02*
G75*
G03*
X129749000Y-82237028I-353540J353567D01*
G01*
X129749019Y-79519472D02*
G75*
G03*
X129602552Y-79165919I-500019J-28D01*
G01*
X131757800Y-78211600D02*
X131830088Y-78211600D01*
X131830088Y-78467600D02*
X131757800Y-78467600D01*
X130135981Y-74221793D02*
X131336907Y-75422717D01*
X128270600Y-69628590D02*
X128270600Y-71942196D01*
X131830103Y-77015800D02*
X131757800Y-77015800D01*
X128563493Y-72649303D02*
X129341195Y-73427005D01*
X131830074Y-78979600D02*
X131757800Y-78979600D01*
X131629800Y-79866230D02*
X131629800Y-81612893D01*
X129341195Y-73427005D02*
X129341194Y-73427005D01*
X131757800Y-76759800D02*
X131830103Y-76759800D01*
X129386473Y-74357532D02*
X129386473Y-74357533D01*
X131853476Y-67158200D02*
X130740990Y-67158200D01*
X130033883Y-67451093D02*
X128563493Y-68921483D01*
X131776247Y-81966447D02*
X131851800Y-82042000D01*
X131629800Y-77143800D02*
X131629800Y-77449800D01*
X129205453Y-74357532D02*
X129205454Y-74357533D01*
X131757800Y-77699600D02*
X131830088Y-77699600D01*
X129341194Y-74040775D02*
X129341194Y-74040774D01*
X131757800Y-78723600D02*
X131830074Y-78723600D01*
X129341194Y-74040774D02*
X129205454Y-74176513D01*
X131629800Y-79107600D02*
X131629800Y-79866230D01*
X130135981Y-74221792D02*
X130135981Y-74221793D01*
X131858018Y-67476699D02*
X131858018Y-67162742D01*
X131830088Y-77955600D02*
X131757800Y-77955600D01*
X131629800Y-76129824D02*
X131629800Y-76631800D01*
X129386473Y-74357533D02*
X129522212Y-74221793D01*
X131629800Y-77449800D02*
X131629800Y-77571600D01*
X131858018Y-67162742D02*
X131853476Y-67158200D01*
X131757800Y-78467600D02*
G75*
G03*
X131629800Y-78595600I0J-128000D01*
G01*
X131629800Y-76631800D02*
G75*
G03*
X131757800Y-76759800I128000J0D01*
G01*
X131629800Y-78083600D02*
G75*
G03*
X131757800Y-78211600I128000J0D01*
G01*
X131629805Y-81612893D02*
G75*
G03*
X131776247Y-81966447I499995J-7D01*
G01*
X131757800Y-78979600D02*
G75*
G03*
X131629800Y-79107600I0J-128000D01*
G01*
X129205431Y-74176490D02*
G75*
G03*
X129205453Y-74357532I90569J-90510D01*
G01*
X131629783Y-76129824D02*
G75*
G03*
X131336907Y-75422717I-999983J24D01*
G01*
X131629800Y-78595600D02*
G75*
G03*
X131757800Y-78723600I128000J0D01*
G01*
X131958100Y-78851600D02*
G75*
G03*
X131830074Y-78723600I-128000J0D01*
G01*
X129205492Y-74357495D02*
G75*
G03*
X129386472Y-74357531I90508J90495D01*
G01*
X131830074Y-78979574D02*
G75*
G03*
X131958074Y-78851600I26J127974D01*
G01*
X130740990Y-67158193D02*
G75*
G03*
X130033883Y-67451093I10J-1000007D01*
G01*
X131629800Y-77571600D02*
G75*
G03*
X131757800Y-77699600I128000J0D01*
G01*
X128270603Y-71942196D02*
G75*
G03*
X128563493Y-72649303I999997J-4D01*
G01*
X131958100Y-77827600D02*
G75*
G03*
X131830088Y-77699600I-128000J0D01*
G01*
X131830088Y-78467588D02*
G75*
G03*
X131958088Y-78339600I12J127988D01*
G01*
X128563498Y-68921488D02*
G75*
G03*
X128270600Y-69628590I707102J-707112D01*
G01*
X131958100Y-76887800D02*
G75*
G03*
X131830103Y-76759800I-128000J0D01*
G01*
X131757800Y-77955600D02*
G75*
G03*
X131629800Y-78083600I0J-128000D01*
G01*
X131757800Y-77015800D02*
G75*
G03*
X131629800Y-77143800I0J-128000D01*
G01*
X130135984Y-74221789D02*
G75*
G03*
X129522212Y-74221793I-306884J-306911D01*
G01*
X131830103Y-77015803D02*
G75*
G03*
X131958103Y-76887800I-3J128003D01*
G01*
X129341204Y-74040785D02*
G75*
G03*
X129341194Y-73427005I-306904J306885D01*
G01*
X131958100Y-78339600D02*
G75*
G03*
X131830088Y-78211600I-128000J0D01*
G01*
X131830088Y-77955588D02*
G75*
G03*
X131958088Y-77827600I12J127988D01*
G01*
X129124819Y-73824400D02*
X129124819Y-73824399D01*
X132388350Y-66946367D02*
X132115814Y-66946367D01*
X131323800Y-76719173D02*
X131323800Y-81612893D01*
X129919606Y-74438167D02*
X131030907Y-75549469D01*
X129919605Y-74438166D02*
X129919606Y-74438167D01*
X131323800Y-76256576D02*
X131323800Y-76719173D01*
X128257493Y-72776055D02*
X129124819Y-73643381D01*
X129602847Y-74573907D02*
X129738586Y-74438167D01*
X129602848Y-74573906D02*
X129602847Y-74573907D01*
X129907131Y-67145093D02*
X129288131Y-67764093D01*
X131177353Y-81966447D02*
X131101800Y-82042000D01*
X127964600Y-69501838D02*
X127964600Y-72068948D01*
X128989078Y-74573907D02*
X128989079Y-74573907D01*
X129288131Y-67764093D02*
X128257493Y-68794731D01*
X131938805Y-66852200D02*
X130614238Y-66852200D01*
X132045104Y-66917078D02*
X132009516Y-66881490D01*
X129124819Y-73643381D02*
X129124819Y-73643380D01*
X129124819Y-73824399D02*
X128989079Y-73960138D01*
X128989116Y-74573870D02*
G75*
G03*
X129602848Y-74573906I306884J306870D01*
G01*
X132045104Y-66917078D02*
G75*
G03*
X132115814Y-66946367I70696J70678D01*
G01*
X131323817Y-76256576D02*
G75*
G03*
X131030907Y-75549469I-1000017J-24D01*
G01*
X129124828Y-73824409D02*
G75*
G03*
X129124818Y-73643381I-90528J90509D01*
G01*
X132009514Y-66881492D02*
G75*
G03*
X131938805Y-66852200I-70714J-70708D01*
G01*
X128989056Y-73960115D02*
G75*
G03*
X128989078Y-74573907I306944J-306885D01*
G01*
X130614238Y-66852227D02*
G75*
G03*
X129907131Y-67145093I-38J-999973D01*
G01*
X127964637Y-72068948D02*
G75*
G03*
X128257493Y-72776055I999963J-52D01*
G01*
X129919609Y-74438162D02*
G75*
G03*
X129738586Y-74438167I-90509J-90538D01*
G01*
X131177356Y-81966450D02*
G75*
G03*
X131323800Y-81612893I-353556J353550D01*
G01*
X128257474Y-68794712D02*
G75*
G03*
X127964600Y-69501838I707126J-707088D01*
G01*
X130304009Y-69835766D02*
X130259579Y-69880196D01*
X132176147Y-72181625D02*
X132176148Y-72181627D01*
X130617966Y-69835766D02*
X130304009Y-69835766D01*
X130725494Y-72656475D02*
X130725494Y-72656474D01*
X130648040Y-73095964D02*
X130648040Y-73095965D01*
X131261808Y-73890752D02*
X131261809Y-73890752D01*
X133579345Y-77985000D02*
X133510400Y-77985000D01*
X130725495Y-72042705D02*
X130725494Y-72042705D01*
X133579345Y-77473000D02*
X133510400Y-77473000D01*
X131442828Y-73890751D02*
X131442828Y-73890752D01*
X133382400Y-75485283D02*
X133382400Y-77089000D01*
X130467022Y-73095965D02*
X130467021Y-73095965D01*
X131442828Y-73890752D02*
X131701300Y-73632279D01*
X132176147Y-72795396D02*
X132176148Y-72795395D01*
X130201000Y-70021618D02*
X130201000Y-71103996D01*
X133528847Y-81966447D02*
X133604400Y-82042000D01*
X133510400Y-77217000D02*
X133579345Y-77217000D01*
X132315069Y-73632280D02*
X132315068Y-73632279D01*
X133579350Y-78497000D02*
X133510400Y-78497000D01*
X130725494Y-72656474D02*
X130467021Y-72914946D01*
X132315068Y-73632279D02*
X133089507Y-74406717D01*
X132176148Y-72795395D02*
X131261809Y-73709733D01*
X133382400Y-75113824D02*
X133382400Y-75485283D01*
X133382400Y-79443000D02*
X133382400Y-81612893D01*
X133510400Y-78241000D02*
X133579350Y-78241000D01*
X133382400Y-78625000D02*
X133382400Y-79443000D01*
X130493893Y-71811103D02*
X130725495Y-72042705D01*
X130648040Y-73095965D02*
X131562378Y-72181626D01*
X133510400Y-77729000D02*
X133579345Y-77729000D01*
X133579345Y-77473045D02*
G75*
G03*
X133707345Y-77345000I-45J128045D01*
G01*
X133382383Y-75113824D02*
G75*
G03*
X133089507Y-74406717I-999983J24D01*
G01*
X132315084Y-73632265D02*
G75*
G03*
X131701301Y-73632280I-306884J-306935D01*
G01*
X133579345Y-77985045D02*
G75*
G03*
X133707345Y-77857000I-45J128045D01*
G01*
X133382400Y-77089000D02*
G75*
G03*
X133510400Y-77217000I128000J0D01*
G01*
X131261766Y-73709690D02*
G75*
G03*
X131261808Y-73890752I90534J-90510D01*
G01*
X133707400Y-78369000D02*
G75*
G03*
X133579350Y-78241000I-128000J0D01*
G01*
X133510400Y-77985000D02*
G75*
G03*
X133382400Y-78113000I0J-128000D01*
G01*
X130467066Y-72914991D02*
G75*
G03*
X130467022Y-73095965I90434J-90509D01*
G01*
X131261791Y-73890770D02*
G75*
G03*
X131442828Y-73890751I90509J90570D01*
G01*
X130259570Y-69880187D02*
G75*
G03*
X130201000Y-70021618I141430J-141413D01*
G01*
X132176136Y-72795385D02*
G75*
G03*
X132176148Y-72181627I-306836J306885D01*
G01*
X133707300Y-77345000D02*
G75*
G03*
X133579345Y-77217000I-128000J0D01*
G01*
X133382405Y-81612893D02*
G75*
G03*
X133528847Y-81966447I499995J-7D01*
G01*
X133707300Y-77857000D02*
G75*
G03*
X133579345Y-77729000I-128000J0D01*
G01*
X133510400Y-78497000D02*
G75*
G03*
X133382400Y-78625000I0J-128000D01*
G01*
X133382400Y-78113000D02*
G75*
G03*
X133510400Y-78241000I128000J0D01*
G01*
X130725504Y-72656485D02*
G75*
G03*
X130725494Y-72042705I-306904J306885D01*
G01*
X130201003Y-71103996D02*
G75*
G03*
X130493893Y-71811103I999997J-4D01*
G01*
X133382400Y-77601000D02*
G75*
G03*
X133510400Y-77729000I128000J0D01*
G01*
X130466991Y-73095995D02*
G75*
G03*
X130648040Y-73095964I90509J90495D01*
G01*
X133579350Y-78496950D02*
G75*
G03*
X133707350Y-78369000I50J127950D01*
G01*
X133510400Y-77473000D02*
G75*
G03*
X133382400Y-77601000I0J-128000D01*
G01*
X132176184Y-72181588D02*
G75*
G03*
X131562378Y-72181626I-306884J-306912D01*
G01*
X131045433Y-74107127D02*
X131045434Y-74107127D01*
X130864414Y-73312339D02*
X131778753Y-72398001D01*
X129895000Y-69894868D02*
X129895000Y-71230748D01*
X132929953Y-81966447D02*
X132854400Y-82042000D01*
X132098693Y-73848654D02*
X132783507Y-74533469D01*
X131659202Y-74107127D02*
X131917674Y-73848654D01*
X130509119Y-72440100D02*
X130509119Y-72440099D01*
X130509119Y-72259081D02*
X130509119Y-72259080D01*
X131959772Y-72579020D02*
X131045434Y-73493358D01*
X133076400Y-75485283D02*
X133076400Y-81612893D01*
X130029056Y-69677969D02*
X129953579Y-69753446D01*
X132098693Y-73848655D02*
X132098693Y-73848654D01*
X130250647Y-73312340D02*
X130250646Y-73312339D01*
X130864415Y-73312338D02*
X130864414Y-73312339D01*
X131659203Y-74107126D02*
X131659202Y-74107127D01*
X133076400Y-75240576D02*
X133076400Y-75485283D01*
X130509119Y-72440099D02*
X130250646Y-72698571D01*
X131959772Y-72398000D02*
X131959773Y-72398002D01*
X130187893Y-71937855D02*
X130509119Y-72259081D01*
X130087634Y-69305434D02*
X130087634Y-69536548D01*
X131959772Y-72579021D02*
X131959772Y-72579020D01*
X133076417Y-75240576D02*
G75*
G03*
X132783507Y-74533469I-1000017J-24D01*
G01*
X131959760Y-72579009D02*
G75*
G03*
X131959772Y-72398003I-90460J90509D01*
G01*
X132929956Y-81966450D02*
G75*
G03*
X133076400Y-81612893I-353556J353550D01*
G01*
X131045416Y-74107145D02*
G75*
G03*
X131659203Y-74107126I306884J306945D01*
G01*
X130250617Y-73312368D02*
G75*
G03*
X130864414Y-73312337I306883J306868D01*
G01*
X132098710Y-73848638D02*
G75*
G03*
X131917674Y-73848654I-90510J-90562D01*
G01*
X129953595Y-69753462D02*
G75*
G03*
X129895000Y-69894868I141405J-141438D01*
G01*
X131959808Y-72397964D02*
G75*
G03*
X131778754Y-72398002I-90508J-90536D01*
G01*
X130509128Y-72440109D02*
G75*
G03*
X130509118Y-72259081I-90528J90509D01*
G01*
X130029039Y-69677952D02*
G75*
G03*
X130087634Y-69536548I-141439J141452D01*
G01*
X131045392Y-73493316D02*
G75*
G03*
X131045434Y-74107126I306908J-306884D01*
G01*
X129894966Y-71230748D02*
G75*
G03*
X130187893Y-71937855I1000034J48D01*
G01*
X130250691Y-72698616D02*
G75*
G03*
X130250647Y-73312340I306809J-306884D01*
G01*
X137820628Y-75101575D02*
X137928817Y-75209761D01*
X140613800Y-71152589D02*
X140613800Y-71518210D01*
X137461710Y-74110373D02*
X137461710Y-74110374D01*
X138842502Y-74671976D02*
X138810318Y-74704161D01*
X138734313Y-74404225D02*
X138842502Y-74512414D01*
X134767631Y-79255000D02*
X134885893Y-79255000D01*
X137443197Y-74724142D02*
X137820628Y-75101575D01*
X134767602Y-78743000D02*
X134885893Y-78743000D01*
X139429992Y-69868524D02*
X139536842Y-69868524D01*
X137928817Y-75209761D02*
X138037003Y-75317950D01*
X139890396Y-70014971D02*
X140320907Y-70445482D01*
X137443198Y-74724143D02*
X137443197Y-74724142D01*
X138354596Y-74408003D02*
X138056967Y-74110374D01*
X134885893Y-78487000D02*
X134767602Y-78487000D01*
X140320907Y-72225317D02*
X138817112Y-73729112D01*
X135013893Y-77946545D02*
X135013893Y-78359000D01*
X138354600Y-74408004D02*
X138354596Y-74408003D01*
X135013893Y-79383000D02*
X135013893Y-80201000D01*
X138650756Y-74704160D02*
X138354600Y-74408004D01*
X134881370Y-82107034D02*
X134608834Y-82107034D01*
X138817112Y-73729112D02*
X138734313Y-73811913D01*
X138842501Y-74671977D02*
X138842502Y-74671976D01*
X138037003Y-75477552D02*
X138015588Y-75498968D01*
X134885893Y-78999000D02*
X134767631Y-78999000D01*
X137461710Y-74110374D02*
X137443197Y-74128886D01*
X138650755Y-74704162D02*
X138650756Y-74704160D01*
X135013893Y-80201000D02*
X135013893Y-81933089D01*
X137144738Y-75401488D02*
X135306786Y-77239438D01*
X134955314Y-82074511D02*
X134952080Y-82077745D01*
X137855985Y-75498969D02*
X137855984Y-75498969D01*
X137155445Y-75390782D02*
X137144738Y-75401488D01*
X137855984Y-75498969D02*
X137747797Y-75390782D01*
X135013900Y-79383000D02*
G75*
G03*
X134885893Y-79255000I-128000J0D01*
G01*
X134881370Y-82107002D02*
G75*
G03*
X134952080Y-82077745I30J100002D01*
G01*
X137855999Y-75498955D02*
G75*
G03*
X138015588Y-75498968I79801J79755D01*
G01*
X138650719Y-74704198D02*
G75*
G03*
X138810318Y-74704161I79781J79798D01*
G01*
X140320902Y-72225312D02*
G75*
G03*
X140613800Y-71518210I-707102J707112D01*
G01*
X138734345Y-73811945D02*
G75*
G03*
X138734314Y-74404224I296155J-296155D01*
G01*
X140613808Y-71152589D02*
G75*
G03*
X140320907Y-70445482I-1000008J-11D01*
G01*
X138056928Y-74110413D02*
G75*
G03*
X137461711Y-74110374I-297628J-297587D01*
G01*
X134955318Y-82074515D02*
G75*
G03*
X135013893Y-81933089I-141418J141415D01*
G01*
X137747797Y-75390782D02*
G75*
G03*
X137155445Y-75390782I-296176J-296176D01*
G01*
X134639600Y-78615000D02*
G75*
G03*
X134767602Y-78743000I128000J0D01*
G01*
X135013900Y-78871000D02*
G75*
G03*
X134885893Y-78743000I-128000J0D01*
G01*
X139890370Y-70014997D02*
G75*
G03*
X139536842Y-69868524I-353570J-353503D01*
G01*
X138842505Y-74671981D02*
G75*
G03*
X138842501Y-74512415I-79805J79781D01*
G01*
X134639600Y-79127000D02*
G75*
G03*
X134767631Y-79255000I128000J0D01*
G01*
X134767631Y-78999031D02*
G75*
G03*
X134639631Y-79127000I-31J-127969D01*
G01*
X137443184Y-74128873D02*
G75*
G03*
X137443199Y-74724142I297616J-297627D01*
G01*
X134885893Y-78998993D02*
G75*
G03*
X135013893Y-78871000I7J127993D01*
G01*
X134767602Y-78487002D02*
G75*
G03*
X134639602Y-78615000I-2J-127998D01*
G01*
X138037052Y-75477600D02*
G75*
G03*
X138037002Y-75317951I-79852J79800D01*
G01*
X134885893Y-78486993D02*
G75*
G03*
X135013893Y-78359000I7J127993D01*
G01*
X135306762Y-77239414D02*
G75*
G03*
X135013893Y-77946545I707138J-707086D01*
G01*
X140626907Y-72352069D02*
X139033488Y-73945488D01*
X137678085Y-74326749D02*
X137659572Y-74345261D01*
X135319893Y-78073297D02*
X135319893Y-81976997D01*
X137361113Y-75617863D02*
X135612786Y-77366190D01*
X138950687Y-74187852D02*
X139058876Y-74296041D01*
X135202735Y-82259840D02*
X135139166Y-82323409D01*
X138434381Y-74920537D02*
X138434380Y-74920537D01*
X138253378Y-75693927D02*
X138231963Y-75715343D01*
X135139166Y-82323409D02*
X135139166Y-82637366D01*
X139058876Y-74888353D02*
X139026694Y-74920536D01*
X139033488Y-73945488D02*
X138950688Y-74028288D01*
X138145191Y-74993387D02*
X138253380Y-75101573D01*
X137371822Y-75607156D02*
X137361113Y-75617863D01*
X137678085Y-74326748D02*
X137678085Y-74326749D01*
X137957204Y-74805397D02*
X138145191Y-74993387D01*
X137659572Y-74507768D02*
X137957201Y-74805397D01*
X139960324Y-69338192D02*
X139960324Y-69445042D01*
X140919800Y-71025839D02*
X140919800Y-71644962D01*
X139058875Y-74888354D02*
X139058876Y-74888353D01*
X137639611Y-75715343D02*
X137531424Y-75607156D01*
X140106771Y-69798596D02*
X140626907Y-70318732D01*
X137659573Y-74507768D02*
X137659572Y-74507768D01*
X138950688Y-74187850D02*
X138950687Y-74187852D01*
X138434380Y-74920537D02*
X137840592Y-74326749D01*
X137957201Y-74805397D02*
X137957204Y-74805397D01*
X140626926Y-72352088D02*
G75*
G03*
X140919800Y-71644962I-707126J707088D01*
G01*
X137639611Y-75715343D02*
G75*
G03*
X138231963Y-75715343I296176J296176D01*
G01*
X138253329Y-75693878D02*
G75*
G03*
X138253380Y-75101573I-296129J296178D01*
G01*
X137659558Y-74345247D02*
G75*
G03*
X137659573Y-74507768I81242J-81253D01*
G01*
X138950719Y-74028319D02*
G75*
G03*
X138950688Y-74187850I79781J-79781D01*
G01*
X139960288Y-69445042D02*
G75*
G03*
X140106772Y-69798595I500012J42D01*
G01*
X140919772Y-71025839D02*
G75*
G03*
X140626906Y-70318733I-999972J39D01*
G01*
X137531423Y-75607157D02*
G75*
G03*
X137371823Y-75607157I-79800J-79799D01*
G01*
X135612786Y-77366190D02*
G75*
G03*
X135319893Y-78073297I707114J-707110D01*
G01*
X135202735Y-82259840D02*
G75*
G03*
X135319893Y-81976997I-282835J282840D01*
G01*
X139058878Y-74888357D02*
G75*
G03*
X139058876Y-74296041I-296178J296157D01*
G01*
X138434344Y-74920574D02*
G75*
G03*
X139026694Y-74920536I296156J296174D01*
G01*
X137840554Y-74326787D02*
G75*
G03*
X137678085Y-74326748I-81254J-81213D01*
G01*
X136505600Y-78867000D02*
X136581154Y-78942554D01*
X136610442Y-81968783D02*
X136563948Y-82015277D01*
X136727600Y-79296107D02*
X136727600Y-81685940D01*
X136281106Y-82132434D02*
X136132834Y-82132434D01*
X136610422Y-81968763D02*
G75*
G03*
X136727600Y-81685940I-282822J282863D01*
G01*
X136281106Y-82132427D02*
G75*
G03*
X136563947Y-82015276I-6J400027D01*
G01*
X136727595Y-79296107D02*
G75*
G03*
X136581154Y-78942554I-499995J7D01*
G01*
X137033600Y-79296107D02*
X137033600Y-81812690D01*
X136916442Y-82095533D02*
X136780323Y-82231652D01*
X137255600Y-78867000D02*
X137180046Y-78942554D01*
X136663166Y-82514494D02*
X136663166Y-82662766D01*
X137180043Y-78942551D02*
G75*
G03*
X137033600Y-79296107I353557J-353549D01*
G01*
X136780319Y-82231648D02*
G75*
G03*
X136663166Y-82514494I282881J-282852D01*
G01*
X136916447Y-82095538D02*
G75*
G03*
X137033600Y-81812690I-282847J282838D01*
G01*
D15*
X130302000Y-56794400D02*
X130302000Y-56425600D01*
X130302000Y-56425600D02*
X131089400Y-55638200D01*
X131089400Y-55638200D02*
X137185400Y-55638200D01*
D19*
X134315200Y-69646800D02*
X136804400Y-72136000D01*
X118809000Y-55231800D02*
X120421400Y-53619400D01*
X118809000Y-63283600D02*
X118809000Y-62458600D01*
X126771400Y-63500000D02*
X132842000Y-63500000D01*
X134315200Y-64973200D02*
X134315200Y-69646800D01*
X118809000Y-62458600D02*
X125730000Y-62458600D01*
X118809000Y-63283600D02*
X118809000Y-55231800D01*
X132842000Y-63500000D02*
X134315200Y-64973200D01*
X125730000Y-62458600D02*
X126771400Y-63500000D01*
X126606000Y-62318600D02*
X126606000Y-59715400D01*
X126606000Y-59715400D02*
X126606000Y-59677000D01*
X136017000Y-65735200D02*
X136017000Y-68605400D01*
X124955800Y-58851800D02*
X124383800Y-58279800D01*
X136017000Y-68605400D02*
X135077200Y-69545200D01*
X124383800Y-56413400D02*
X121060800Y-53090400D01*
X118664400Y-53090400D02*
X118338600Y-53416200D01*
X127203200Y-62915800D02*
X127228600Y-62941200D01*
X133223000Y-62941200D02*
X136017000Y-65735200D01*
X121060800Y-53090400D02*
X118664400Y-53090400D01*
X127203200Y-62915800D02*
X126606000Y-62318600D01*
X124383800Y-58279800D02*
X124383800Y-56413400D01*
X127228600Y-62941200D02*
X133223000Y-62941200D01*
X125780800Y-58851800D02*
X124955800Y-58851800D01*
X126606000Y-59677000D02*
X125780800Y-58851800D01*
D17*
X73149307Y-92353800D02*
X75491493Y-92353800D01*
X58524293Y-92430000D02*
X55927724Y-92430000D01*
X75845047Y-92207353D02*
X75920600Y-92131800D01*
X55574170Y-92283553D02*
X55498617Y-92208000D01*
X58953400Y-92208000D02*
X58877846Y-92283554D01*
X72720200Y-92131800D02*
X72795754Y-92207354D01*
X55574158Y-92283565D02*
G75*
G03*
X55927724Y-92430000I353542J353565D01*
G01*
X58524293Y-92429995D02*
G75*
G03*
X58877846Y-92283554I7J499995D01*
G01*
X75491493Y-92353795D02*
G75*
G03*
X75845047Y-92207353I7J499995D01*
G01*
X72795751Y-92207357D02*
G75*
G03*
X73149307Y-92353800I353549J353557D01*
G01*
X58524293Y-92736000D02*
X55927724Y-92736000D01*
X55574170Y-92882447D02*
X55498617Y-92958000D01*
X72720200Y-92881800D02*
X72795754Y-92806246D01*
X58953400Y-92958000D02*
X58877846Y-92882446D01*
X73149307Y-92659800D02*
X75491493Y-92659800D01*
X75845047Y-92806247D02*
X75920600Y-92881800D01*
X73149307Y-92659805D02*
G75*
G03*
X72795754Y-92806246I-7J-499995D01*
G01*
X55927724Y-92736017D02*
G75*
G03*
X55574170Y-92882447I-24J-499983D01*
G01*
X75845050Y-92806244D02*
G75*
G03*
X75491493Y-92659800I-353550J-353556D01*
G01*
X58877849Y-92882443D02*
G75*
G03*
X58524293Y-92736000I-353549J-353557D01*
G01*
X73149307Y-94284200D02*
X75567693Y-94284200D01*
X55291923Y-93883753D02*
X55216370Y-93808200D01*
X75921247Y-94137753D02*
X75996800Y-94062200D01*
X58524293Y-94030200D02*
X55645477Y-94030200D01*
X58953400Y-93808200D02*
X58877846Y-93883754D01*
X72720200Y-94062200D02*
X72795754Y-94137754D01*
X72795751Y-94137757D02*
G75*
G03*
X73149307Y-94284200I353549J353557D01*
G01*
X75567693Y-94284195D02*
G75*
G03*
X75921247Y-94137753I7J499995D01*
G01*
X58524293Y-94030195D02*
G75*
G03*
X58877846Y-93883754I7J499995D01*
G01*
X55291935Y-93883741D02*
G75*
G03*
X55645477Y-94030200I353565J353541D01*
G01*
X72720200Y-94812200D02*
X72795754Y-94736646D01*
X58524293Y-94336200D02*
X55645477Y-94336200D01*
X58953400Y-94558200D02*
X58877846Y-94482646D01*
X73149307Y-94590200D02*
X75567693Y-94590200D01*
X55291923Y-94482647D02*
X55216370Y-94558200D01*
X75921247Y-94736647D02*
X75996800Y-94812200D01*
X73149307Y-94590205D02*
G75*
G03*
X72795754Y-94736646I-7J-499995D01*
G01*
X58877849Y-94482643D02*
G75*
G03*
X58524293Y-94336200I-353549J-353557D01*
G01*
X75921250Y-94736644D02*
G75*
G03*
X75567693Y-94590200I-353550J-353556D01*
G01*
X55645477Y-94336184D02*
G75*
G03*
X55291923Y-94482647I23J-500016D01*
G01*
X72644000Y-95764000D02*
X72719554Y-95839554D01*
X73073107Y-95986000D02*
X75542293Y-95986000D01*
X58549693Y-95630400D02*
X56105907Y-95630400D01*
X55752353Y-95483953D02*
X55676800Y-95408400D01*
X58978800Y-95408400D02*
X58903246Y-95483954D01*
X75895847Y-95839553D02*
X75971400Y-95764000D01*
X55752350Y-95483956D02*
G75*
G03*
X56105907Y-95630400I353550J353556D01*
G01*
X58549693Y-95630395D02*
G75*
G03*
X58903246Y-95483954I7J499995D01*
G01*
X72719551Y-95839557D02*
G75*
G03*
X73073107Y-95986000I353549J353557D01*
G01*
X75542293Y-95985995D02*
G75*
G03*
X75895847Y-95839553I7J499995D01*
G01*
X58978800Y-96158400D02*
X58903246Y-96082846D01*
X73073107Y-96292000D02*
X75542293Y-96292000D01*
X72644000Y-96514000D02*
X72719554Y-96438446D01*
X55752353Y-96082847D02*
X55676800Y-96158400D01*
X58549693Y-95936400D02*
X56105907Y-95936400D01*
X75895847Y-96438447D02*
X75971400Y-96514000D01*
X56105907Y-95936405D02*
G75*
G03*
X55752353Y-96082847I-7J-499995D01*
G01*
X73073107Y-96292005D02*
G75*
G03*
X72719554Y-96438446I-7J-499995D01*
G01*
X75895850Y-96438444D02*
G75*
G03*
X75542293Y-96292000I-353550J-353556D01*
G01*
X58903249Y-96082843D02*
G75*
G03*
X58549693Y-95936400I-353549J-353557D01*
G01*
X72602727Y-97498000D02*
X72678281Y-97573554D01*
X73031834Y-97720000D02*
X75339093Y-97720000D01*
X75692647Y-97573553D02*
X75768200Y-97498000D01*
X58978800Y-97135600D02*
X58903246Y-97211154D01*
X55752353Y-97211153D02*
X55676800Y-97135600D01*
X58549693Y-97357600D02*
X56105907Y-97357600D01*
X55752350Y-97211156D02*
G75*
G03*
X56105907Y-97357600I353550J353556D01*
G01*
X58549693Y-97357595D02*
G75*
G03*
X58903246Y-97211154I7J499995D01*
G01*
X72678264Y-97573571D02*
G75*
G03*
X73031834Y-97720000I353536J353571D01*
G01*
X75339093Y-97719995D02*
G75*
G03*
X75692647Y-97573553I7J499995D01*
G01*
X58549693Y-97663600D02*
X56105907Y-97663600D01*
X73031834Y-98026000D02*
X75339093Y-98026000D01*
X58978800Y-97885600D02*
X58903246Y-97810046D01*
X72602727Y-98248000D02*
X72678281Y-98172446D01*
X55752353Y-97810047D02*
X55676800Y-97885600D01*
X75692647Y-98172447D02*
X75768200Y-98248000D01*
X73031834Y-98026024D02*
G75*
G03*
X72678281Y-98172446I-34J-499976D01*
G01*
X56105907Y-97663605D02*
G75*
G03*
X55752353Y-97810047I-7J-499995D01*
G01*
X75692650Y-98172444D02*
G75*
G03*
X75339093Y-98026000I-353550J-353556D01*
G01*
X58903249Y-97810043D02*
G75*
G03*
X58549693Y-97663600I-353549J-353557D01*
G01*
X58600493Y-99390800D02*
X55724907Y-99390800D01*
X73001465Y-99695019D02*
X75440693Y-99695019D01*
X72572358Y-99917019D02*
X72647912Y-99841465D01*
X75794247Y-99841466D02*
X75869800Y-99917019D01*
X59029600Y-99612800D02*
X58954046Y-99537246D01*
X55371353Y-99537247D02*
X55295800Y-99612800D01*
X73001465Y-99694989D02*
G75*
G03*
X72647912Y-99841465I35J-500011D01*
G01*
X55724907Y-99390805D02*
G75*
G03*
X55371353Y-99537247I-7J-499995D01*
G01*
X75794246Y-99841467D02*
G75*
G03*
X75440693Y-99695019I-353546J-353533D01*
G01*
X58954049Y-99537243D02*
G75*
G03*
X58600493Y-99390800I-353549J-353557D01*
G01*
X59029600Y-98862800D02*
X58954046Y-98938354D01*
X73001465Y-99389019D02*
X75440693Y-99389019D01*
X58600493Y-99084800D02*
X55724907Y-99084800D01*
X72572358Y-99167019D02*
X72647912Y-99242573D01*
X75794247Y-99242572D02*
X75869800Y-99167019D01*
X55371353Y-98938353D02*
X55295800Y-98862800D01*
X58600493Y-99084795D02*
G75*
G03*
X58954046Y-98938354I7J499995D01*
G01*
X55371350Y-98938356D02*
G75*
G03*
X55724907Y-99084800I353550J353556D01*
G01*
X75440693Y-99389008D02*
G75*
G03*
X75794247Y-99242572I7J500008D01*
G01*
X72647926Y-99242559D02*
G75*
G03*
X73001465Y-99389019I353574J353559D01*
G01*
G04 #@! TA.AperFunction,Conductor*
G36*
X125099876Y-63681696D02*
G01*
X125128775Y-63693138D01*
X125153922Y-63711408D01*
X125156719Y-63714119D01*
X125363481Y-63920881D01*
X125382532Y-63945441D01*
X125394876Y-63973967D01*
X125399739Y-64004667D01*
X125399800Y-64008562D01*
X125399800Y-64464638D01*
X125395904Y-64495476D01*
X125384462Y-64524375D01*
X125366192Y-64549522D01*
X125363481Y-64552319D01*
X125232919Y-64682881D01*
X125208359Y-64701932D01*
X125179833Y-64714276D01*
X125149133Y-64719139D01*
X125145238Y-64719200D01*
X122179576Y-64719200D01*
X122148738Y-64715304D01*
X122119839Y-64703862D01*
X122106634Y-64694968D01*
X122106468Y-64695204D01*
X122103006Y-64692760D01*
X122055732Y-64664011D01*
X122004977Y-64641966D01*
X122004975Y-64641965D01*
X121951690Y-64627035D01*
X121896870Y-64619500D01*
X121896869Y-64619500D01*
X121841531Y-64619500D01*
X121841530Y-64619500D01*
X121814120Y-64623267D01*
X121786710Y-64627035D01*
X121786708Y-64627035D01*
X121745223Y-64638659D01*
X121733425Y-64641965D01*
X121733423Y-64641965D01*
X121733422Y-64641966D01*
X121682667Y-64664011D01*
X121635393Y-64692760D01*
X121631932Y-64695204D01*
X121631634Y-64694782D01*
X121610681Y-64707836D01*
X121581040Y-64717194D01*
X121558824Y-64719200D01*
X120776999Y-64719200D01*
X117449600Y-68046599D01*
X117449600Y-68046600D01*
X117449600Y-72263000D01*
X124942600Y-79756000D01*
X128320238Y-79756000D01*
X128351076Y-79759896D01*
X128379975Y-79771338D01*
X128405122Y-79789608D01*
X128407919Y-79792319D01*
X128462281Y-79846681D01*
X128481332Y-79871241D01*
X128493676Y-79899767D01*
X128498539Y-79930467D01*
X128498600Y-79934362D01*
X128498600Y-80492038D01*
X128494704Y-80522876D01*
X128483262Y-80551775D01*
X128464992Y-80576922D01*
X128462281Y-80579719D01*
X128382519Y-80659481D01*
X128357959Y-80678532D01*
X128329433Y-80690876D01*
X128298733Y-80695739D01*
X128294838Y-80695800D01*
X124257362Y-80695800D01*
X124226524Y-80691904D01*
X124197625Y-80680462D01*
X124172478Y-80662192D01*
X124169681Y-80659481D01*
X116419119Y-72908919D01*
X116400068Y-72884359D01*
X116387724Y-72855833D01*
X116382861Y-72825133D01*
X116382800Y-72821238D01*
X116382800Y-67818562D01*
X116386696Y-67787724D01*
X116398138Y-67758825D01*
X116416408Y-67733678D01*
X116419119Y-67730881D01*
X120435881Y-63714119D01*
X120460441Y-63695068D01*
X120488967Y-63682724D01*
X120519667Y-63677861D01*
X120523562Y-63677800D01*
X125069038Y-63677800D01*
X125099876Y-63681696D01*
G37*
G04 #@! TD.AperFunction*
G04 #@! TA.AperFunction,Conductor*
G36*
X58178284Y-100384810D02*
G01*
X58203915Y-100396516D01*
X58220395Y-100409796D01*
X58347396Y-100536796D01*
X58470800Y-100660200D01*
X58553499Y-100660200D01*
X58581391Y-100664210D01*
X58607022Y-100675916D01*
X58623503Y-100689196D01*
X58628045Y-100693738D01*
X58671497Y-100726267D01*
X58671506Y-100726273D01*
X58719138Y-100752283D01*
X58719143Y-100752284D01*
X58719147Y-100752287D01*
X58770009Y-100771257D01*
X58823054Y-100782796D01*
X58877200Y-100786669D01*
X58931346Y-100782796D01*
X58984391Y-100771257D01*
X59035253Y-100752287D01*
X59035258Y-100752283D01*
X59035261Y-100752283D01*
X59082893Y-100726273D01*
X59082897Y-100726271D01*
X59126354Y-100693739D01*
X59130897Y-100689196D01*
X59153455Y-100672310D01*
X59179857Y-100662462D01*
X59200901Y-100660200D01*
X71053592Y-100660200D01*
X71081484Y-100664210D01*
X71107115Y-100675916D01*
X71123596Y-100689196D01*
X71602600Y-101168200D01*
X72542399Y-101168200D01*
X72542400Y-101168200D01*
X73173804Y-100536796D01*
X73196362Y-100519910D01*
X73222764Y-100510062D01*
X73243808Y-100507800D01*
X73568192Y-100507800D01*
X73596084Y-100511810D01*
X73621715Y-100523516D01*
X73638196Y-100536796D01*
X73885004Y-100783604D01*
X73901890Y-100806162D01*
X73911738Y-100832564D01*
X73914000Y-100853608D01*
X73914000Y-101558992D01*
X73909990Y-101586884D01*
X73898284Y-101612515D01*
X73885004Y-101628996D01*
X73612796Y-101901204D01*
X73590238Y-101918090D01*
X73563836Y-101927938D01*
X73542792Y-101930200D01*
X57749808Y-101930200D01*
X57721916Y-101926190D01*
X57696285Y-101914484D01*
X57679804Y-101901204D01*
X57432996Y-101654396D01*
X57416110Y-101631838D01*
X57406262Y-101605436D01*
X57404000Y-101584392D01*
X57404000Y-100701208D01*
X57408010Y-100673316D01*
X57419716Y-100647685D01*
X57432996Y-100631204D01*
X57654404Y-100409796D01*
X57676962Y-100392910D01*
X57703364Y-100383062D01*
X57724408Y-100380800D01*
X58150392Y-100380800D01*
X58178284Y-100384810D01*
G37*
G04 #@! TD.AperFunction*
G04 #@! TA.AperFunction,Conductor*
G36*
X71861476Y-69345896D02*
G01*
X71890375Y-69357338D01*
X71915522Y-69375608D01*
X71918319Y-69378319D01*
X73852281Y-71312281D01*
X73871332Y-71336841D01*
X73883676Y-71365367D01*
X73888539Y-71396067D01*
X73888600Y-71399962D01*
X73888600Y-71551238D01*
X73884704Y-71582076D01*
X73873262Y-71610975D01*
X73854992Y-71636122D01*
X73852281Y-71638919D01*
X73467719Y-72023481D01*
X73443159Y-72042532D01*
X73414633Y-72054876D01*
X73383933Y-72059739D01*
X73380038Y-72059800D01*
X73177962Y-72059800D01*
X73147124Y-72055904D01*
X73118225Y-72044462D01*
X73093078Y-72026192D01*
X73090281Y-72023481D01*
X71410319Y-70343519D01*
X71391268Y-70318959D01*
X71378924Y-70290433D01*
X71374061Y-70259733D01*
X71374000Y-70255838D01*
X71374000Y-69520362D01*
X71377896Y-69489524D01*
X71389338Y-69460625D01*
X71407608Y-69435478D01*
X71410319Y-69432681D01*
X71464681Y-69378319D01*
X71489241Y-69359268D01*
X71517767Y-69346924D01*
X71548467Y-69342061D01*
X71552362Y-69342000D01*
X71830638Y-69342000D01*
X71861476Y-69345896D01*
G37*
G04 #@! TD.AperFunction*
G04 #@! TA.AperFunction,Conductor*
G36*
X81081676Y-57331696D02*
G01*
X81110575Y-57343138D01*
X81135722Y-57361408D01*
X81138519Y-57364119D01*
X82245200Y-58470800D01*
X83311438Y-58470800D01*
X83342276Y-58474696D01*
X83371175Y-58486138D01*
X83396322Y-58504408D01*
X83399119Y-58507119D01*
X83682081Y-58790081D01*
X83701132Y-58814641D01*
X83713476Y-58843167D01*
X83718339Y-58873867D01*
X83718400Y-58877762D01*
X83718400Y-60146638D01*
X83714504Y-60177476D01*
X83703062Y-60206375D01*
X83684792Y-60231522D01*
X83682081Y-60234319D01*
X83246719Y-60669681D01*
X83222159Y-60688732D01*
X83193633Y-60701076D01*
X83162933Y-60705939D01*
X83159038Y-60706000D01*
X82906162Y-60706000D01*
X82875324Y-60702104D01*
X82846425Y-60690662D01*
X82821278Y-60672392D01*
X82818481Y-60669681D01*
X82296000Y-60147200D01*
X82042562Y-60147200D01*
X82011724Y-60143304D01*
X81982825Y-60131862D01*
X81957678Y-60113592D01*
X81954881Y-60110881D01*
X81494119Y-59650119D01*
X81475068Y-59625559D01*
X81462724Y-59597033D01*
X81457861Y-59566333D01*
X81457800Y-59562438D01*
X81457800Y-59309000D01*
X80325719Y-58176919D01*
X80306668Y-58152359D01*
X80294324Y-58123833D01*
X80289461Y-58093133D01*
X80289400Y-58089238D01*
X80289400Y-57785562D01*
X80293296Y-57754724D01*
X80304738Y-57725825D01*
X80323008Y-57700678D01*
X80325719Y-57697881D01*
X80659481Y-57364119D01*
X80684041Y-57345068D01*
X80712567Y-57332724D01*
X80743267Y-57327861D01*
X80747162Y-57327800D01*
X81050838Y-57327800D01*
X81081676Y-57331696D01*
G37*
G04 #@! TD.AperFunction*
G04 #@! TA.AperFunction,Conductor*
G36*
X77533084Y-100080010D02*
G01*
X77558715Y-100091716D01*
X77575196Y-100104996D01*
X77898204Y-100428004D01*
X77915090Y-100450562D01*
X77924938Y-100476964D01*
X77927200Y-100498008D01*
X77927200Y-101152592D01*
X77923190Y-101180484D01*
X77911484Y-101206115D01*
X77898204Y-101222596D01*
X76254396Y-102866404D01*
X76231838Y-102883290D01*
X76205436Y-102893138D01*
X76184392Y-102895400D01*
X55667008Y-102895400D01*
X55639116Y-102891390D01*
X55613485Y-102879684D01*
X55597004Y-102866404D01*
X53673796Y-100943196D01*
X53656910Y-100920638D01*
X53647062Y-100894236D01*
X53644800Y-100873192D01*
X53644800Y-100625008D01*
X53648810Y-100597116D01*
X53660516Y-100571485D01*
X53673796Y-100555004D01*
X53920604Y-100308196D01*
X53943162Y-100291310D01*
X53969564Y-100281462D01*
X53990608Y-100279200D01*
X54238792Y-100279200D01*
X54266684Y-100283210D01*
X54292315Y-100294916D01*
X54308796Y-100308196D01*
X54312072Y-100311472D01*
X54328958Y-100334030D01*
X54334825Y-100346876D01*
X54340115Y-100361060D01*
X54340116Y-100361061D01*
X54366126Y-100408693D01*
X54366132Y-100408702D01*
X54398661Y-100452154D01*
X54437045Y-100490538D01*
X54480497Y-100523067D01*
X54480501Y-100523070D01*
X54480503Y-100523071D01*
X54528147Y-100549087D01*
X54528150Y-100549088D01*
X54528152Y-100549089D01*
X54542317Y-100554372D01*
X54567049Y-100567876D01*
X54577727Y-100577127D01*
X56210200Y-102209600D01*
X75615799Y-102209600D01*
X75615800Y-102209600D01*
X76555600Y-101269800D01*
X76555600Y-100777406D01*
X76559610Y-100749514D01*
X76571316Y-100723883D01*
X76584590Y-100707409D01*
X76608886Y-100683113D01*
X76631437Y-100666232D01*
X76657838Y-100656384D01*
X76657842Y-100656383D01*
X76660537Y-100655796D01*
X76660546Y-100655796D01*
X76713591Y-100644257D01*
X76764453Y-100625287D01*
X76764458Y-100625283D01*
X76764461Y-100625283D01*
X76796215Y-100607943D01*
X76812097Y-100599271D01*
X76855554Y-100566739D01*
X76893939Y-100528354D01*
X76926471Y-100484897D01*
X76944101Y-100452611D01*
X76952483Y-100437261D01*
X76952483Y-100437258D01*
X76952487Y-100437253D01*
X76971457Y-100386391D01*
X76982996Y-100333346D01*
X76982996Y-100333341D01*
X76983584Y-100330640D01*
X76993432Y-100304239D01*
X77010315Y-100281684D01*
X77187004Y-100104996D01*
X77209562Y-100088110D01*
X77235963Y-100078262D01*
X77257007Y-100076000D01*
X77505192Y-100076000D01*
X77533084Y-100080010D01*
G37*
G04 #@! TD.AperFunction*
G04 #@! TA.AperFunction,Conductor*
G36*
X74934876Y-68939496D02*
G01*
X74963775Y-68950938D01*
X74988922Y-68969208D01*
X74991719Y-68971919D01*
X75122281Y-69102481D01*
X75141332Y-69127041D01*
X75153676Y-69155567D01*
X75158539Y-69186267D01*
X75158600Y-69190162D01*
X75158600Y-70332038D01*
X75154704Y-70362876D01*
X75143262Y-70391775D01*
X75124992Y-70416922D01*
X75122281Y-70419719D01*
X74559919Y-70982081D01*
X74535359Y-71001132D01*
X74506833Y-71013476D01*
X74476133Y-71018339D01*
X74472238Y-71018400D01*
X74295562Y-71018400D01*
X74264724Y-71014504D01*
X74235825Y-71003062D01*
X74210678Y-70984792D01*
X74207881Y-70982081D01*
X73797919Y-70572119D01*
X73778868Y-70547559D01*
X73766524Y-70519033D01*
X73761661Y-70488333D01*
X73761600Y-70484438D01*
X73761600Y-70353792D01*
X73765496Y-70322954D01*
X73776938Y-70294055D01*
X73792281Y-70272137D01*
X73938051Y-70105543D01*
X73940855Y-70102544D01*
X74472800Y-69570600D01*
X74472800Y-69215562D01*
X74476696Y-69184724D01*
X74488138Y-69155825D01*
X74506408Y-69130678D01*
X74509119Y-69127881D01*
X74665081Y-68971919D01*
X74689641Y-68952868D01*
X74718167Y-68940524D01*
X74748867Y-68935661D01*
X74752762Y-68935600D01*
X74904038Y-68935600D01*
X74934876Y-68939496D01*
G37*
G04 #@! TD.AperFunction*
G04 #@! TA.AperFunction,Conductor*
G36*
X73842676Y-68050496D02*
G01*
X73871575Y-68061938D01*
X73896722Y-68080208D01*
X73899519Y-68082919D01*
X73928481Y-68111881D01*
X73947532Y-68136441D01*
X73959876Y-68164967D01*
X73964739Y-68195667D01*
X73964800Y-68199562D01*
X73964800Y-69316038D01*
X73960904Y-69346876D01*
X73949462Y-69375775D01*
X73931192Y-69400922D01*
X73928481Y-69403719D01*
X73518519Y-69813681D01*
X73493959Y-69832732D01*
X73465433Y-69845076D01*
X73434733Y-69849939D01*
X73430838Y-69850000D01*
X73177962Y-69850000D01*
X73147124Y-69846104D01*
X73118225Y-69834662D01*
X73093078Y-69816392D01*
X73090281Y-69813681D01*
X72731119Y-69454519D01*
X72712068Y-69429959D01*
X72699724Y-69401433D01*
X72694861Y-69370733D01*
X72694800Y-69366838D01*
X72694800Y-68910762D01*
X72698696Y-68879924D01*
X72710138Y-68851025D01*
X72728408Y-68825878D01*
X72731119Y-68823081D01*
X73471281Y-68082919D01*
X73495841Y-68063868D01*
X73524367Y-68051524D01*
X73555067Y-68046661D01*
X73558962Y-68046600D01*
X73811838Y-68046600D01*
X73842676Y-68050496D01*
G37*
G04 #@! TD.AperFunction*
G04 #@! TA.AperFunction,Conductor*
G36*
X77017676Y-53343896D02*
G01*
X77046575Y-53355338D01*
X77071722Y-53373608D01*
X77074519Y-53376319D01*
X79567281Y-55869081D01*
X79586332Y-55893641D01*
X79598676Y-55922167D01*
X79603539Y-55952867D01*
X79603600Y-55956762D01*
X79603600Y-56209638D01*
X79599704Y-56240476D01*
X79588262Y-56269375D01*
X79569992Y-56294522D01*
X79567281Y-56297319D01*
X79233519Y-56631081D01*
X79208959Y-56650132D01*
X79180433Y-56662476D01*
X79149733Y-56667339D01*
X79145838Y-56667400D01*
X78918362Y-56667400D01*
X78887524Y-56663504D01*
X78858625Y-56652062D01*
X78833478Y-56633792D01*
X78830681Y-56631081D01*
X78486000Y-56286400D01*
X78054762Y-56286400D01*
X78023924Y-56282504D01*
X77995025Y-56271062D01*
X77969878Y-56252792D01*
X77967081Y-56250081D01*
X77684119Y-55967119D01*
X77665068Y-55942559D01*
X77652724Y-55914033D01*
X77647861Y-55883333D01*
X77647800Y-55879438D01*
X77647800Y-55448200D01*
X76337919Y-54138319D01*
X76318868Y-54113759D01*
X76306524Y-54085233D01*
X76301661Y-54054533D01*
X76301600Y-54050638D01*
X76301600Y-53772362D01*
X76305496Y-53741524D01*
X76316938Y-53712625D01*
X76335208Y-53687478D01*
X76337919Y-53684681D01*
X76646281Y-53376319D01*
X76670841Y-53357268D01*
X76699367Y-53344924D01*
X76730067Y-53340061D01*
X76733962Y-53340000D01*
X76986838Y-53340000D01*
X77017676Y-53343896D01*
G37*
G04 #@! TD.AperFunction*
G04 #@! TA.AperFunction,Conductor*
G36*
X77449476Y-57763496D02*
G01*
X77478375Y-57774938D01*
X77503522Y-57793208D01*
X77506319Y-57795919D01*
X77662281Y-57951881D01*
X77681332Y-57976441D01*
X77693676Y-58004967D01*
X77698539Y-58035667D01*
X77698600Y-58039562D01*
X77698600Y-58801000D01*
X78206600Y-59309000D01*
X78740000Y-59309000D01*
X79592681Y-58456319D01*
X79617241Y-58437268D01*
X79645767Y-58424924D01*
X79676467Y-58420061D01*
X79680362Y-58420000D01*
X79907838Y-58420000D01*
X79938676Y-58423896D01*
X79967575Y-58435338D01*
X79992722Y-58453608D01*
X79995519Y-58456319D01*
X82462881Y-60923681D01*
X82481932Y-60948241D01*
X82494276Y-60976767D01*
X82499139Y-61007467D01*
X82499200Y-61011362D01*
X82499200Y-61340438D01*
X82495304Y-61371276D01*
X82483862Y-61400175D01*
X82465592Y-61425322D01*
X82462881Y-61428119D01*
X82179919Y-61711081D01*
X82155359Y-61730132D01*
X82126833Y-61742476D01*
X82096133Y-61747339D01*
X82092238Y-61747400D01*
X81737762Y-61747400D01*
X81706924Y-61743504D01*
X81678025Y-61732062D01*
X81652878Y-61713792D01*
X81650081Y-61711081D01*
X80264000Y-60325000D01*
X78105562Y-60325000D01*
X78074724Y-60321104D01*
X78045825Y-60309662D01*
X78020678Y-60291392D01*
X78017881Y-60288681D01*
X76896719Y-59167519D01*
X76877668Y-59142959D01*
X76865324Y-59114433D01*
X76860461Y-59083733D01*
X76860400Y-59079838D01*
X76860400Y-57988762D01*
X76864296Y-57957924D01*
X76875738Y-57929025D01*
X76894008Y-57903878D01*
X76896719Y-57901081D01*
X77001881Y-57795919D01*
X77026441Y-57776868D01*
X77054967Y-57764524D01*
X77085667Y-57759661D01*
X77089562Y-57759600D01*
X77418638Y-57759600D01*
X77449476Y-57763496D01*
G37*
G04 #@! TD.AperFunction*
G04 #@! TA.AperFunction,Conductor*
G36*
X70508855Y-64494330D02*
G01*
X70524752Y-64504952D01*
X70648448Y-64628648D01*
X70659070Y-64644545D01*
X70662800Y-64663296D01*
X70662800Y-64902104D01*
X70659070Y-64920855D01*
X70648448Y-64936752D01*
X69711952Y-65873248D01*
X69696055Y-65883870D01*
X69677304Y-65887600D01*
X69387696Y-65887600D01*
X69368945Y-65883870D01*
X69353048Y-65873248D01*
X68899152Y-65419352D01*
X68888530Y-65403455D01*
X68884800Y-65384704D01*
X68884800Y-65196696D01*
X68888530Y-65177945D01*
X68899152Y-65162048D01*
X69556248Y-64504952D01*
X69572145Y-64494330D01*
X69590896Y-64490600D01*
X70490104Y-64490600D01*
X70508855Y-64494330D01*
G37*
G04 #@! TD.AperFunction*
G04 #@! TA.AperFunction,Conductor*
G36*
X71143855Y-65180130D02*
G01*
X71159752Y-65190752D01*
X71385048Y-65416048D01*
X71395670Y-65431945D01*
X71399400Y-65450696D01*
X71399400Y-66324504D01*
X71395670Y-66343255D01*
X71385048Y-66359152D01*
X70804152Y-66940048D01*
X70788255Y-66950670D01*
X70769504Y-66954400D01*
X70505296Y-66954400D01*
X70486545Y-66950670D01*
X70470648Y-66940048D01*
X69965952Y-66435352D01*
X69955330Y-66419455D01*
X69951600Y-66400704D01*
X69951600Y-66161896D01*
X69955330Y-66143145D01*
X69965952Y-66127248D01*
X70902448Y-65190752D01*
X70918345Y-65180130D01*
X70937096Y-65176400D01*
X71125104Y-65176400D01*
X71143855Y-65180130D01*
G37*
G04 #@! TD.AperFunction*
G04 #@! TA.AperFunction,Conductor*
G36*
X75925476Y-54410696D02*
G01*
X75954375Y-54422138D01*
X75979522Y-54440408D01*
X75982319Y-54443119D01*
X78424281Y-56885081D01*
X78443332Y-56909641D01*
X78455676Y-56938167D01*
X78460539Y-56968867D01*
X78460600Y-56972762D01*
X78460600Y-58597238D01*
X78456704Y-58628076D01*
X78445262Y-58656975D01*
X78426992Y-58682122D01*
X78424281Y-58684919D01*
X78319119Y-58790081D01*
X78294559Y-58809132D01*
X78266033Y-58821476D01*
X78235333Y-58826339D01*
X78231438Y-58826400D01*
X78029362Y-58826400D01*
X77998524Y-58822504D01*
X77969625Y-58811062D01*
X77944478Y-58792792D01*
X77941681Y-58790081D01*
X77861919Y-58710319D01*
X77842868Y-58685759D01*
X77830524Y-58657233D01*
X77825661Y-58626533D01*
X77825600Y-58622638D01*
X77825600Y-58259244D01*
X77829496Y-58228406D01*
X77832762Y-58217713D01*
X77835007Y-58211396D01*
X77835010Y-58211388D01*
X77846269Y-58157208D01*
X77850045Y-58102000D01*
X77846269Y-58046792D01*
X77835010Y-57992612D01*
X77832758Y-57986274D01*
X77826103Y-57955912D01*
X77825600Y-57944754D01*
X77825600Y-57835800D01*
X77546200Y-57556400D01*
X76936600Y-57556400D01*
X76936599Y-57556400D01*
X76896719Y-57596281D01*
X76872159Y-57615332D01*
X76843633Y-57627676D01*
X76812933Y-57632539D01*
X76809038Y-57632600D01*
X76581562Y-57632600D01*
X76550724Y-57628704D01*
X76521825Y-57617262D01*
X76496678Y-57598992D01*
X76493881Y-57596281D01*
X76185519Y-57287919D01*
X76166468Y-57263359D01*
X76154124Y-57234833D01*
X76149261Y-57204133D01*
X76149200Y-57200238D01*
X76149200Y-56210200D01*
X75169519Y-55230519D01*
X75150468Y-55205959D01*
X75138124Y-55177433D01*
X75133261Y-55146733D01*
X75133200Y-55142838D01*
X75133200Y-54864562D01*
X75137096Y-54833724D01*
X75148538Y-54804825D01*
X75166808Y-54779678D01*
X75169519Y-54776881D01*
X75503281Y-54443119D01*
X75527841Y-54424068D01*
X75556367Y-54411724D01*
X75587067Y-54406861D01*
X75590962Y-54406800D01*
X75894638Y-54406800D01*
X75925476Y-54410696D01*
G37*
G04 #@! TD.AperFunction*
G04 #@! TA.AperFunction,Conductor*
G36*
X68457876Y-65815296D02*
G01*
X68486775Y-65826738D01*
X68511922Y-65845008D01*
X68514719Y-65847719D01*
X70016881Y-67349881D01*
X70035932Y-67374441D01*
X70048276Y-67402967D01*
X70053139Y-67433667D01*
X70053200Y-67437562D01*
X70053200Y-67639638D01*
X70049304Y-67670476D01*
X70037862Y-67699375D01*
X70019592Y-67724522D01*
X70016881Y-67727319D01*
X69378319Y-68365881D01*
X69353759Y-68384932D01*
X69325233Y-68397276D01*
X69294533Y-68402139D01*
X69290638Y-68402200D01*
X68859962Y-68402200D01*
X68829124Y-68398304D01*
X68800225Y-68386862D01*
X68775078Y-68368592D01*
X68772281Y-68365881D01*
X68692519Y-68286119D01*
X68673468Y-68261559D01*
X68661124Y-68233033D01*
X68656261Y-68202333D01*
X68656200Y-68198438D01*
X68656200Y-67487800D01*
X67803519Y-66635119D01*
X67784468Y-66610559D01*
X67772124Y-66582033D01*
X67767261Y-66551333D01*
X67767200Y-66547438D01*
X67767200Y-66345362D01*
X67771096Y-66314524D01*
X67782538Y-66285625D01*
X67800808Y-66260478D01*
X67803519Y-66257681D01*
X68213481Y-65847719D01*
X68238041Y-65828668D01*
X68266567Y-65816324D01*
X68297267Y-65811461D01*
X68301162Y-65811400D01*
X68427038Y-65811400D01*
X68457876Y-65815296D01*
G37*
G04 #@! TD.AperFunction*
M02*
